<?xml version="1.0" encoding="utf-8" ?>
<svg baseProfile="full" height="200mm" version="1.1" viewBox="0,0,200,200" width="200mm" xmlns="http://www.w3.org/2000/svg" xmlns:ev="http://www.w3.org/2001/xml-events" xmlns:xlink="http://www.w3.org/1999/xlink"><defs /><rect fill="#1a1a1a" height="200" width="200" x="0" y="0" /><text alignment-baseline="middle" fill="#e1ed5e" style="dominant-baseline: central; font-size:9.0px; font-family:Arial;" text-anchor="middle" x="100.0" y="100.0">2024</text><line stroke="#e1ed5e" stroke-width="0.3" x1="100.0" x2="100.0" y1="15.0" y2="10.0" /><path d="M 100.0 14.0 a86.0,86.0 0 0,1 42.35913384403234,11.155469271406648" fill="none" id="id97" stroke="none" /><text fill="#e1ed5e" style="font-size:6.75px; font-family:Arial;" text-anchor="middle"><textPath startOffset="22.145653131862478" xlink:href="#id97">January</textPath></text><path d="M 101.80034050326958 79.07731436759882 l 0.38943698977498986 -4.525848135890472 a25.542572235875646,25.542572235875646 0 0,0 0.4365352537012198,0.04134034238949753 l -0.4670718068612226 4.51849603799579" fill="#ff2f04" stroke="none" /><path d="M 102.15924093988457 79.11130261209362 l 0.8422560367906499 -8.148063122866578 a29.19147898036298,29.19147898036298 0 0,0 0.49801232846852567,0.055803320159210364 l -0.9820042668599722 8.132404042200395" fill="#ff6209" stroke="none" /><path d="M 102.51750503828377 79.15144685158666 l 0.9555965099803403 -7.913709932570843 a28.971196245655793,28.971196245655793 0 0,0 0.49323072305600846,0.06385859192268843 l -1.0913050549271404 7.8961397444477575" fill="#ff5f08" stroke="none" /><path d="M 103.23170211078529 79.25015418208739 l 1.1947766922454843 -7.6713234391845475 a28.763806711460255,28.763806711460255 0 0,0 0.4872349116714043,0.0801743193009009 l -1.326289106969959 7.649683121387978" fill="#ff5c08" stroke="none" /><path d="M 103.58742460773223 79.30868818359171 l 1.3152627572977689 -7.5860860666171845 a28.6992608691262,28.6992608691262 0 0,0 0.48469671443030776,0.08832788746627236 l -1.4452942052791302 7.562390005219546" fill="#ff5b08" stroke="none" /><path d="M 103.94208987418118 79.37332000966035 l 0.6626207628173312 -3.4671118279429907 a24.529862703106,24.529862703106 0 0,0 0.4129234607138606,0.08259625673875497 l -0.7220407090621487 3.4552261745413766" fill="#ff2003" stroke="none" /><path d="M 104.29559338865022 79.4440306129975 l 2.039798951313779 -9.761176397568986 a30.97202809995232,30.97202809995232 0 0,0 0.5195005871586417,0.1132227350416585 l -2.207061955091555 9.724722204393608" fill="#ff7a0b" stroke="none" /><path d="M 104.64783097203109 79.52079915486377 l 1.5567261590699863 -6.859222692115264 a28.033657105259095,28.033657105259095 0 0,0 0.4683861376817538,0.11053785314356136 l -1.6742444504916252 6.831488695325475" fill="#ff5207" stroke="none" /><path d="M 104.9986988182912 79.60360301121754 l 1.8253055540361223 -7.4478695475150065 a28.668278891798114,28.668278891798114 0 0,0 0.476978328434877,0.12124602587890185 l -1.9528891756963935 7.4154382898008375" fill="#ff5b08" stroke="none" /><path d="M 106.72888874123014 80.10723608172694 l 20.186666223690402 -59.67829175481916 a84.0,84.0 0 0,0 1.3619769118199267,0.4737662697256382 l -21.208148907555344 59.32296705252493" fill="#4dd2ff" stroke="none" /><path d="M 108.07796709384702 80.6158196554323 l 3.009456142310271 -7.221599187503946 a28.823574700700867,28.823574700700867 0 0,0 0.455089827569399,0.19425078607548094 l -3.1329810450501 7.1688737517690635" fill="#ff5d08" stroke="none" /><path d="M 108.4095320186766 80.7573450057729 l 1.6803149702266083 -3.8448894875358297 a25.196025925864994,25.196025925864994 0 0,0 0.3948416396906759,0.176607643250735 l -1.7460700127729158 3.815478093375242" fill="#ff2a04" stroke="none" /><path d="M 108.73861861582097 80.90454125486305 l 2.0354149978545477 -4.44774910423449 a25.891358329514404,25.891358329514404 0 0,0 0.40256289084683183,0.1884197595082879 l -2.1114666025728845 4.412153113155669" fill="#ff3404" stroke="none" /><path d="M 109.06512990194946 81.05736502329252 l 4.433125335478372 -9.263526937203828 a31.269641257432568,31.269641257432568 0 0,0 0.4822072776415022,0.23587174320929083 l -4.591492862381941 9.186061443897318" fill="#ff7e0b" stroke="none" /><path d="M 109.3889696526874 81.21577127319529 l 2.282624730913026 -4.566778531514222 a26.10547175274479,26.10547175274479 0 0,0 0.3991312544824504,0.2037992624615217 l -2.360683207109055 4.526921317379867" fill="#ff3705" stroke="none" /><path d="M 109.71004243097381 81.37971332152246 l 3.912220876874626 -7.5021993770653985 a29.460996849230835,29.460996849230835 0 0,0 0.44641993788105633,0.23769347221866316 l -4.040429630542242 7.433935437124162" fill="#ff6609" stroke="none" /><path d="M 110.02825361518725 81.54914285379988 l 3.33314657553614 -6.132614278863656 a27.97988710419665,27.97988710419665 0 0,0 0.4200391440159131,0.23298863259145627 l -3.437929907708153 6.0744927308390535" fill="#ff5107" stroke="none" /><path d="M 110.34350942703115 81.72400993836675 l 3.097669619024711 -5.47328540384656 a27.28907069292344,27.28907069292344 0 0,0 0.40570730549622774,0.23423522204044483 l -3.191169392381336 5.419303284529944" fill="#ff4706" stroke="none" /><line stroke="#e1ed5e" stroke-width="0.3" x1="143.13028292997686" x2="145.6673583964461" y1="26.7553504044142" y2="22.446841604673864" /><path d="M 143.63769802327073 25.89364864446614 a86.0,86.0 0 0,1 29.32050498858742,28.57503671076993" fill="none" id="id98" stroke="none" /><text fill="#e1ed5e" style="font-size:6.75px; font-family:Arial;" text-anchor="middle"><textPath startOffset="20.669276256404974" xlink:href="#id98">February</textPath></text><path d="M 110.65571695917076 81.90426304109057 l 2.132819750770603 -3.621994215743051 a25.20330372304373,25.20330372304373 0 0,0 0.37092931463461337,0.22273239577322917 l -2.194681821962651 3.5848478194339006" fill="#ff2a04" stroke="none" /><path d="M 111.27062007382361 82.28071324371311 l 5.149099564789526 -8.095239758554353 a30.594067598083456,30.594067598083456 0 0,0 0.44072119124383785,0.2856701515218828 l -5.2873063882903715 8.005655765328576" fill="#ff750a" stroke="none" /><path d="M 112.16784306229584 82.88440491214696 l 3.7343761802591304 -5.252867766275975 a27.445012430218263,27.445012430218263 0 0,0 0.38164118095934424,0.2762787836859294 l -3.8239983715924426 5.187988211216971" fill="#ff4a06" stroke="none" /><path d="M 112.7482090630111 83.31218511350987 l 5.343526549124769 -6.994847782310948 a29.80233897773209,29.80233897773209 0 0,0 0.4038785380796447,0.3140583940482299 l -5.46281503183964 6.902088336641927" fill="#ff6a09" stroke="none" /><path d="M 113.03279911837588 83.53348406188908 l 4.808602831600585 -6.075512593066323 a28.74819427096305,28.74819427096305 0 0,0 0.3843349235833437,0.3095930087969933 l -4.912188525539189 5.992071290475922" fill="#ff5c08" stroke="none" /><path d="M 113.31354834802062 83.75963576809568 l 5.4185805912698095 -6.609787272469139 a29.54694702284862,29.54694702284862 0 0,0 0.3894930134801596,0.32492892464420614 l -5.531247938911862 6.515796163913063" fill="#ff6709" stroke="none" /><path d="M 113.59037401385872 83.9905735841838 l 2.884953275937493 -3.3984677049425387 a25.45786250863347,25.45786250863347 0 0,0 0.33073463303480755,0.2856806988126619 l -2.942867388735161 3.3484428736651566" fill="#ff2e04" stroke="none" /><path d="M 114.13192950727249 84.46653392183569 l 5.78678451036255 -6.3606898723281375 a29.599142435226298,29.599142435226298 0 0,0 0.3729072325237308,0.34515736724224194 l -5.8951215142002455 6.260414758953521" fill="#ff6809" stroke="none" /><path d="M 114.65682725009322 84.96080404539774 l 1.4481278198835916 -1.4859067162984945 a23.074847693750502,23.074847693750502 0 0,0 0.28130225958907756,0.2788979812191902 l -1.4734219996026316 1.4608287248506449" fill="#ff0b01" stroke="none" /><path d="M 114.91283532996326 85.21462403516908 l 3.141748284285886 -3.114895896201369 a25.42415627278077,25.42415627278077 0 0,0 0.3046215851350487,0.31256858204550336 l -3.1947566705717465 3.0605046220881236" fill="#ff2d04" stroke="none" /><path d="M 115.16444852881244 85.47280134310134 l 1.3315028477837938 -1.275549608363916 a22.843888998029353,22.843888998029353 0 0,0 0.26884447145901846,0.2855035121720381 l -1.3532031529790722 1.252504636247383" fill="#ff0801" stroke="none" /><path d="M 115.6541949942343 86.00192230759917 l 6.766010005276766 -6.0502078680065745 a30.07655808319398,30.07655808319398 0 0,0 0.3408518122860476,0.38782679307734746 l -6.868872881521404 5.933168797117929" fill="#ff6e0a" stroke="none" /><path d="M 115.8921839302757 86.27271002978787 l 6.388224591713041 -5.517996252121373 a29.44142737175371,29.44142737175371 0 0,0 0.32708786018765024,0.38530867685032866 l -6.482007015407804 5.407520792821492" fill="#ff6509" stroke="none" /><path d="M 116.1254893667686 86.54754324733833 l 6.452957296710603 -5.3832864842952395 a29.403596328070883,29.403596328070883 0 0,0 0.32001359364781007,0.39036455076784127 l -6.544417709597041 5.271719651828903" fill="#ff6509" stroke="none" /><path d="M 116.35404254752997 86.82634096563983 l 4.341728929203042 -3.4973894905010643 a26.57515410934495,26.57515410934495 0 0,0 0.28313114691116087,0.35772695495741424 l -4.401126506755762 3.4223425916289716" fill="#ff3d05" stroke="none" /><path d="M 116.57777611688842 87.10902102172516 l 6.640309822311153 -5.163545081384047 a29.41165336564503,29.41165336564503 0 0,0 0.3065086753243792,0.4012296950602728 l -6.7279704749898395 5.048794473082892" fill="#ff6509" stroke="none" /><path d="M 116.7966241395341 87.39550010848427 l 5.784958715073529 -4.341140868000027 a28.232651752360624,28.232651752360624 0 0,0 0.28756700912490957,0.3901398767211473 l -5.8586277437822645 4.241194682010004" fill="#ff5507" stroke="none" /><path d="M 117.01052211995028 87.68569379921539 l 3.609520195331686 -2.6130142631600877 a25.456060993746085,25.456060993746085 0 0,0 0.2532088948806649,0.35617002086830923 l -3.653844188742312 2.5506670155822744" fill="#ff2d04" stroke="none" /><path d="M 117.21940702142032 87.97951657250589 l 6.303998130349437 -4.400680288151346 a28.68806734010395,28.68806734010395 0 0,0 0.27842488356410783,0.4062302259484902 l -6.37861275072887 4.291815327132807" fill="#ff5b08" stroke="none" /><path d="M 117.42321728460499 88.27688183743584 l 2.9081881802442506 -1.9567587959831105 a24.505205197612494,24.505205197612494 0 0,0 0.2318373996189735,0.3510313718510534 l -2.9413500187839485 1.9065475457929983" fill="#ff2003" stroke="none" /><path d="M 117.62189284568427 88.57770195909679 l 6.450377650669446 -4.181056861912075 a28.68691149414366,28.68691149414366 0 0,0 0.26430523123860505,0.4155317234391299 l -6.521200573533942 4.069711463794273" fill="#ff5b08" stroke="none" /><line stroke="#e1ed5e" stroke-width="0.3" x1="172.87174338648825" x2="177.1583165268699" y1="56.24261187166439" y2="53.66864786411523" /><path d="M 173.72905801456457 55.72781907015455 a86.0,86.0 0 0,1 12.242430191666344,42.057860355516425" fill="none" id="id99" stroke="none" /><text fill="#e1ed5e" style="font-size:6.75px; font-family:Arial;" text-anchor="middle"><textPath startOffset="22.145653131862474" xlink:href="#id99">March</textPath></text><path d="M 118.00360718960297 89.18935116829356 l 4.206553876960988 -2.5259147390052212 a25.906662897377334,25.906662897377334 0 0,0 0.22566712984457324,0.38323212202299695 l -4.249294716935329 2.4533314486886675" fill="#ff3404" stroke="none" /><path d="M 118.18653347947321 89.5 l 6.863461092350155 -3.962621109240886 a28.92524221848177,28.92524221848177 0 0,0 0.24457894888940176,0.43214756758532485 l -6.930473406260933 3.844216771556443" fill="#ff5e08" stroke="none" /><path d="M 118.36410011445183 89.81374322990088 l 5.242453511963353 -2.9079005911181084 a26.99493158200508,26.99493158200508 0 0,0 0.2213001432694222,0.4071673380611376 l -5.291599004848116 2.8174784195823674" fill="#ff4306" stroke="none" /><path d="M 118.53625476483649 90.13048839642627 l 6.781609763273452 -3.6108252232541314 a28.682987034624883,28.682987034624883 0 0,0 0.22767726173182143,0.43660116974299107 l -6.842595093980218 3.493877810406642" fill="#ff5b08" stroke="none" /><path d="M 118.70294669586156 90.45014215332178 l 6.415673517549616 -3.27588861154451 a28.203631922789675,28.203631922789675 0 0,0 0.21646970671711738,0.4330844207420372 l -6.470963137478471 3.1652723346387224" fill="#ff5407" stroke="none" /><path d="M 119.0197475246899 91.09779779509293 l 6.952371536595627 -3.254060924945105 a28.676221888801784,28.676221888801784 0 0,0 0.20485137012304228,0.4476372135050316 l -7.00720737157372 3.134234729225389" fill="#ff5b08" stroke="none" /><path d="M 119.16976305983485 91.42560881287824 l 6.361039999731778 -2.8452122827176485 a27.968361558638804,27.968361558638804 0 0,0 0.19227065640792768,0.43995288900197344 l -6.408944538156676 2.7355973239398255" fill="#ff5107" stroke="none" /><path d="M 119.31412917781788 91.75594674310238 l 4.858662429077802 -2.0738740770465505 a26.282760101232867,26.282760101232867 0 0,0 0.17355902668041348,0.4164784820878175 l -4.893547300294699 1.9901630855174552" fill="#ff3905" stroke="none" /><path d="M 119.4528033332814 92.08871423366111 l 9.198676707865467 -3.7410217366245972 a30.930301949574563,30.930301949574563 0 0,0 0.19580549166068129,0.493557748599034 l -9.261540874492272 3.582562970811998" fill="#ff7a0b" stroke="none" /><path d="M 119.58574465831526 92.42381321644754 l 5.1886634761822785 -2.0070864977739835 a26.563328579062592,26.563328579062592 0 0,0 0.16085906338151032,0.4266977768258507 l -5.222353223378229 1.9177204407539752" fill="#ff3d05" stroke="none" /><path d="M 119.71291397450082 92.76114493625339 l 7.22580733433124 -2.653416541026913 a28.69759124486812,28.69759124486812 0 0,0 0.16584451398217231,0.463896622081037 l -7.270292018357355 2.528984962564959" fill="#ff5b08" stroke="none" /><path d="M 119.83427380445688 93.10060997987247 l 5.331452001270499 -1.8545557600444675 a26.64479915576855,26.64479915576855 0 0,0 0.14656489246512425,0.43329306169843956 l -5.362502315307989 1.7627610238718663" fill="#ff3e05" stroke="none" /><path d="M 119.94978838288452 93.4421083053983 l 5.339168763078718 -1.7550908217908676 a26.620237261305796,26.620237261305796 0 0,0 0.13897701324857667,0.43534351457213305 l -5.368510492104552 1.6631782735273475" fill="#ff3e05" stroke="none" /><path d="M 120.05942366710727 93.78553927170692 l 7.387209917574699 -2.2885765157701234 a28.733592492163556,28.733592492163556 0 0,0 0.14192161680015947,0.4724109048234279 l -7.425407854378486 2.161428007355972" fill="#ff5c08" stroke="none" /><path d="M 120.26092885502905 94.47779374421319 l 11.774720518024635 -3.209252437043994 a33.20423469465673,33.20423469465673 0 0,0 0.14516657270466776,0.5512211215208788 l -11.828076571534032 3.0066508111503167" fill="#ff980e" stroke="none" /><path d="M 120.43855184770803 95.1765574152323 l 6.150155278068597 -1.4514198996195784 a27.319100384498313,27.319100384498313 0 0,0 0.10379845155708309,0.4573551296601311 l -6.174164591183347 1.345630436020421" fill="#ff4806" stroke="none" /><path d="M 120.51834098615036 95.52812308129327 l 4.734023351279314 -1.0317583556825638 a25.845152463543187,25.845152463543187 0 0,0 0.09075622413118715,0.4343013865907091 l -4.751037286234868 0.9503405178064501" fill="#ff3304" stroke="none" /><path d="M 120.592083275326 95.88100663000786 l 6.214426688961524 -1.2430593829622838 a27.337530725925347,27.337530725925347 0 0,0 0.08809676495589651,0.46095950039871986 l -6.234849746199577 1.1361973175302493" fill="#ff4806" stroke="none" /><path d="M 120.77682067341334 96.94652285012252 l 25.567446374913825 -3.7575341537417017 a46.842085385096716,46.842085385096716 0 0,0 0.1100911318925458,0.7965645885384729 l -25.628182023361582 3.318081257003143" fill="#bdff1f" stroke="none" /><path d="M 120.86939407059847 97.66154086499901 l 7.535490810575477 -0.8443674628547021 a28.58264981181349,28.58264981181349 0 0,0 0.050451925955156365,0.48807661731842567 l -7.548875129012299 0.714886323253345" fill="#ff5a08" stroke="none" /><path d="M 120.9064616781168 98.02013634271609 l 4.892285128706057 -0.46330448817813424 a25.914173870481633,25.914173870481633 0 0,0 0.03813872548178343,0.44322980137736095 l -4.899517476885581 0.37925363942511126" fill="#ff3404" stroke="none" /><path d="M 120.93736805541906 98.37931529534042 l 9.09555595560864 -0.7040535552803132 a30.12276435902576,30.12276435902576 0 0,0 0.0354818032857345,0.5158976325891937 l -9.106301720059442 0.5478124985367854" fill="#ff6f0a" stroke="none" /><path d="M 120.99303781780057 99.45929381324524 l 31.952651797015527 -0.8229869664321432 a52.96324865229185,52.96324865229185 0 0,0 0.015607937478169876,0.9090841103340851 l -31.962071166092365 0.27435594012899167" fill="#79ff26" stroke="none" /><line stroke="#e1ed5e" stroke-width="0.3" x1="184.99686870605535" x2="189.99668451229388" y1="99.2704041080226" y2="99.22748670261217" /><path d="M 185.99683186730306 99.26182062694052 a86.0,86.0 0 0,1 -10.086455211305974,41.156179273409016" fill="none" id="id100" stroke="none" /><text fill="#e1ed5e" style="font-size:6.75px; font-family:Arial;" text-anchor="middle"><textPath startOffset="21.40746469413373" xlink:href="#id100">April</textPath></text><path d="M 120.99922638620191 100.18025310272382 l 5.593510027334225 0.048013556261592566 a26.59371609285575,26.59371609285575 0 0,0 -0.007837001480296753,0.45646604673870483 l -5.591861594255259 -0.14402651896936847" fill="#ff3e05" stroke="none" /><path d="M 120.99303781780057 100.54070618675476 l 1.3159677117580377 0.03389466019604481 a22.316404142495568,22.316404142495568 0 0,0 -0.01315107077944141,0.38287907666650867 l -1.3151919539817505 -0.05648000142666418" fill="#ff0000" stroke="none" /><path d="M 120.93736805541906 101.62068470465957 l 7.829076341932279 0.6060200234048845 a28.852496204174273,28.852496204174273 0 0,0 -0.04246314922848626,0.49348616034348275 l -7.817519570006051 -0.7403272311240245" fill="#ff5d08" stroke="none" /><path d="M 120.86939407059847 102.33845913500097 l 9.024448500377819 1.011208277665593 a30.08092577421437,30.08092577421437 0 0,0 -0.06190642168283129,0.5126739780280445 l -9.005759992435324 -1.165975932617046" fill="#ff6e0a" stroke="none" /><path d="M 120.82617615685814 102.69636545807757 l 9.023963835411228 1.16833278454391 a30.099281553960722,30.099281553960722 0 0,0 -0.07074117106840834,0.5118478741760422 l -9.00257814778761 -1.323068966920037" fill="#ff6e0a" stroke="none" /><path d="M 120.77682067341334 103.0534771498775 l 6.92557369576604 1.0178208380493288 a27.999966448052014,27.999966448052014 0 0,0 -0.07397125517697616,0.47494852163423773 l -6.907080948450797 -1.1365575416150169" fill="#ff5107" stroke="none" /><path d="M 120.7213421655516 103.40968896794604 l 7.721514952957005 1.270572347128027 a28.825352851982142,28.825352851982142 0 0,0 -0.08453402934476496,0.4875698172164979 l -7.698566106120006 -1.402935197265113" fill="#ff5d08" stroke="none" /><path d="M 120.65975698304385 103.76489593502545 l 3.4387775481825007 0.626659820986027 a24.495410356041518,24.495410356041518 0 0,0 -0.07893786861253921,0.41303628454908026 l -3.427513387287802 -0.6855986705684217" fill="#ff2003" stroke="none" /><path d="M 120.592083275326 104.11899336999214 l 9.347026661539742 1.8696671110569016 a30.53218561074545,30.53218561074545 0 0,0 -0.10721491716532233,0.5130621908729726 l -9.313554033550055 -2.0298457532152834" fill="#ff740a" stroke="none" /><path d="M 120.51834098615036 104.47187691870673 l 12.507627467265351 2.7259791918069785 a33.8012385109432,33.8012385109432 0 0,0 -0.12842722376533636,0.5658740443231379 l -12.45898938194235 -2.9402875700691333" fill="#ffa00e" stroke="none" /><path d="M 120.43855184770803 104.8234425847677 l 6.109704448447239 1.4418736139708375 a27.277538368344818,27.277538368344818 0 0,0 -0.11146443037782437,0.4548129132716676 l -6.084052491553119 -1.5465423518506047" fill="#ff4706" stroke="none" /><path d="M 120.35273937422433 105.17358676015961 l 6.125816840110114 1.5571586859355782 a27.320630912477114,27.320630912477114 0 0,0 -0.11944387184842188,0.45354783661545583 l -6.098183487456962 -1.6620870269238373" fill="#ff4806" stroke="none" /><path d="M 120.26092885502905 105.52220625578681 l 6.102264031179446 1.6631991972607723 a27.324860304860124,27.324860304860124 0 0,0 -0.12723171640288963,0.4515004764877946 l -6.072813822701977 -1.7677075976515755" fill="#ff4806" stroke="none" /><path d="M 120.16314734710363 105.8691983318838 l 6.294114688429578 1.832125054391505 a27.55534605692438,27.55534605692438 0 0,0 -0.1361019950760795,0.45303927683336287 l -6.261736373349868 -1.9399019348155915" fill="#ff4b07" stroke="none" /><path d="M 119.83427380445688 106.89939002012753 l 24.670432682194928 8.581657121296583 a47.120396009138375,47.120396009138375 0 0,0 -0.2723106308157661,0.7617012993614483 l -24.519481881335217 -9.003893377038953" fill="#baff1f" stroke="none" /><path d="M 119.58574465831526 107.57618678355244 l 7.787290755331026 3.012291354220789 a29.349598583810923,29.349598583810923 0 0,0 -0.1857987869021039,0.4683343157440599 l -7.734433293462797 -3.1455266871784127" fill="#ff6409" stroke="none" /><path d="M 119.4528033332814 107.91128576633889 l 7.770279639416033 3.160105084011835 a29.388296001973274,29.388296001973274 0 0,0 -0.19406652993263918,0.4656890243987416 l -7.714887264946908 -3.2930266178518544" fill="#ff6509" stroke="none" /><path d="M 119.16976305983485 108.57439118712176 l 7.166322121158114 3.205404732856581 a28.850528150743713,28.850528150743713 0 0,0 -0.20609654379752798,0.4503581427018603 l -7.1102411125055305 -3.3279518577731304" fill="#ff5d08" stroke="none" /><path d="M 119.0197475246899 108.90220220490707 l 9.22298729388124 4.316823749465525 a31.183244173987205,31.183244173987205 0 0,0 -0.23108379036062573,0.4828762452586589 l -9.147524245560701 -4.474512496789287" fill="#ff7d0b" stroke="none" /><path d="M 118.8641267826498 109.22738970284198 l 7.086277420571243 3.4662533842913303 a28.88861459353979,28.88861459353979 0 0,0 -0.22172711463712186,0.44360275837998575 l -7.025730392722389 -3.587387998835062" fill="#ff5e08" stroke="none" /><path d="M 118.70294669586154 109.54985784667822 l 7.5133391260558735 3.8363644924249187 a29.43611032063123,29.43611032063123 0 0,0 -0.23365533672440217,0.44806491678000426 l -7.446375720356522 -3.964775652309426" fill="#ff6509" stroke="none" /><line stroke="#e1ed5e" stroke-width="0.3" x1="174.33088141563837" x2="178.70328620479359" y1="141.23008692659167" y2="143.65538615756765" /><path d="M 175.20536237346943 141.71514677278685 a86.0,86.0 0 0,1 -30.301960400862466,31.631185727798858" fill="none" id="id101" stroke="none" /><text fill="#e1ed5e" style="font-size:6.75px; font-family:Arial;" text-anchor="middle"><textPath startOffset="22.145653131862474" xlink:href="#id101">May</textPath></text><path d="M 118.18653347947321 110.5 l 5.108498343986841 2.9493928940555585 a26.89878578811112,26.89878578811112 0 0,0 -0.23430928982063629,0.3979083990189902 l -5.057115344036439 -3.036652461368098" fill="#ff4206" stroke="none" /><path d="M 118.00360718960297 110.81064883170644 l 4.125525860830541 2.4772597434428887 a25.812149152391715,25.812149152391715 0 0,0 -0.2313653988921616,0.3779179913055918 l -4.082392497482974 -2.5477148508730374" fill="#ff3304" stroke="none" /><path d="M 117.62189284568427 111.42229804090321 l 12.235473939379233 7.930886382703282 a35.581007555603854,35.581007555603854 0 0,0 -0.3366226971369266,0.5096896676997876 l -12.097526803321578 -8.13975592874213" fill="#ffb711" stroke="none" /><path d="M 117.423217284605 111.72311816256416 l 4.657324745445698 3.1336559385353344 a26.61341904062565,26.61341904062565 0 0,0 -0.25828990185305134,0.3768526858908372 l -4.602845106777326 -3.213143359496216" fill="#ff3e05" stroke="none" /><path d="M 117.21940702142032 112.02048342749411 l 6.898371033974755 4.815598736207774 a29.412937305754028,29.412937305754028 0 0,0 -0.29256754814556546,0.411532895704578 l -6.8146883872992285 -4.933308858621856" fill="#ff6509" stroke="none" /><path d="M 117.01052211995028 112.31430620078461 l 3.9704782686736135 2.8743200719667814 a25.901674566729266,25.901674566729266 0 0,0 -0.26382456567715784,0.35792869231598184 l -3.920551683412628 -2.9420550735516406" fill="#ff3404" stroke="none" /><path d="M 116.79662413953412 112.60449989151573 l 6.2013246356150615 4.653589617028362 a28.7532137568882,28.7532137568882 0 0,0 -0.2996468559716188,0.3922473532601512 l -6.120525802289138 -4.75935788352939" fill="#ff5c08" stroke="none" /><path d="M 116.57777611688842 112.89097897827486 l 3.8770814728057705 3.014842003571408 a25.91131683495091,25.91131683495091 0 0,0 -0.2760586382029029,0.34879107124515923 l -3.824756403961306 -3.08095301873125" fill="#ff3404" stroke="none" /><path d="M 116.35404254752997 113.17365903436017 l 3.8130980823430463 3.0715619000848657 a25.896346545294886,25.896346545294886 0 0,0 -0.28184249395361544,0.3438020156749205 l -3.759808769150803 -3.1365661974582792" fill="#ff3404" stroke="none" /><path d="M 116.1254893667686 113.45245675266167 l 7.868384312525132 6.564086042293989 a31.246887198570615,31.246887198570615 0 0,0 -0.3471461265193559,0.4089372641532819 l -7.7545436224986615 -6.698190088896828" fill="#ff7e0b" stroke="none" /><path d="M 115.89218393027572 113.72728997021213 l 5.8451067717414285 5.04886401482474 a28.723749155251593,28.723749155251593 0 0,0 -0.3255206905037526,0.37038279078430336 l -5.75757501727909 -5.148459083420336" fill="#ff5b08" stroke="none" /><path d="M 115.6541949942343 113.99807769240083 l 5.794680790695013 5.181639294814407 a28.773526307128222,28.773526307128222 0 0,0 -0.33240588747599814,0.3653722992768535 l -5.704877202377135 -5.280349169648932" fill="#ff5c08" stroke="none" /><path d="M 115.41159269507618 114.26474011684316 l 4.145896074348766 3.837379511782708 a26.649242053297964,26.649242053297964 0 0,0 -0.31362879565823454,0.33306291251877596 l -4.079411444954271 -3.9079838842459815" fill="#ff3e05" stroke="none" /><path d="M 115.16444852881244 114.52719865689866 l 6.588450190129759 6.311586245371504 a30.123803858072772,30.123803858072772 0 0,0 -0.3609307928683499,0.3703467897503208 l -6.479132596110602 -6.423755727189562" fill="#ff6f0a" stroke="none" /><path d="M 114.39649973595853 115.28858382429668 l 10.326718501126 10.966617186817768 a36.063459347829266,36.063459347829266 0 0,0 -0.4543484612792683,0.4205381527314159 l -10.136940268532765 -11.142273085681563" fill="#ffbe11" stroke="none" /><path d="M 112.45986205192187 116.90419585922612 l 13.25847330697429 17.987665404437184 a43.3459889271819,43.3459889271819 0 0,0 -0.6027548519455636,0.43634802967987607 l -12.947737444654758 -18.212614205490137" fill="#e6ff1a" stroke="none" /><path d="M 111.8722381534696 117.32195027204791 l 4.427986296630207 6.460564338757178 a28.83236581234341,28.83236581234341 0 0,0 -0.4106603636865226,0.2763106198780204 l -4.316429644846681 -6.535624632692319" fill="#ff5d08" stroke="none" /><path d="M 111.5731344415666 117.5232005979908 l 3.8671414137003755 5.855344986720502 a28.017111059907023,28.017111059907023 0 0,0 -0.4035989827749007,0.26160798449011863 l -3.7660567986684654 -5.920866812914516" fill="#ff5207" stroke="none" /><path d="M 111.27062007382361 117.71928675628689 l 4.877743930073574 7.668623629807943 a30.088463798850626,30.088463798850626 0 0,0 -0.4381967399666955,0.2734671746299792 l -4.745383061317163 -7.75122660127947" fill="#ff6e0a" stroke="none" /><line stroke="#e1ed5e" stroke-width="0.3" x1="143.1302829299769" x2="145.66735839644613" y1="173.24464959558577" y2="177.55315839532614" /><path d="M 143.63769802327073 174.10635135553383 a86.0,86.0 0 0,1 -40.68552437913181,11.842963189579606" fill="none" id="id102" stroke="none" /><text fill="#e1ed5e" style="font-size:6.75px; font-family:Arial;" text-anchor="middle"><textPath startOffset="21.407464694133747" xlink:href="#id102">June</textPath></text><path d="M 110.34350942703117 118.27599006163325 l 3.8430316920304315 6.790268767633252 a28.8023485260943,28.8023485260943 0 0,0 -0.43238608417166546,0.23983727216364764 l -3.7259014197026716 -6.8552389552300435" fill="#ff5d08" stroke="none" /><path d="M 110.02825361518725 118.45085714620011 l 4.347953995593462 7.999745631627304 a30.104978534765323,30.104978534765323 0 0,0 -0.4561781366794312,0.24288916344606687 l -4.2099870431274775 -8.07320526279594" fill="#ff6e0a" stroke="none" /><path d="M 109.71004243097381 118.62028667847754 l 3.5594476052675006 6.825710113859337 a28.698050780105714,28.698050780105714 0 0,0 -0.43876966168443987,0.22403891561369002 l -3.4417507218694783 -6.885806981145864" fill="#ff5b08" stroke="none" /><path d="M 109.06512990194946 118.94263497670748 l 3.9335573652256284 8.219622017041862 a30.112357524184404,30.112357524184404 0 0,0 -0.4681916468372608,0.21913733110196468 l -3.791877004516861 -8.28593557971436" fill="#ff6f0a" stroke="none" /><path d="M 108.73861861582097 119.09545874513695 l 3.5126369393937464 7.675745642612173 a29.441308514565335,29.441308514565335 0 0,0 -0.46136857307314105,0.2063642943642812 l -3.3803549634649785 -7.734913687886305" fill="#ff6509" stroke="none" /><path d="M 108.4095320186766 119.2426549942271 l 1.9856413810278177 4.543536067467388 a25.95847675102214,25.95847675102214 0 0,0 -0.4098533520306079,0.1749420245950775 l -1.9073529538267786 -4.576952741721869" fill="#ff3505" stroke="none" /><path d="M 108.07796709384702 119.3841803445677 l 1.9124852134353842 4.589268296449014 a25.97181890140832,25.97181890140832 0 0,0 -0.41300824080452825,0.16796685602981337 l -1.8334225114404152 -4.621422409058119" fill="#ff3505" stroke="none" /><path d="M 107.74402155503746 119.51999308798841 l 1.3829070454606114 3.485829136304748 a24.750124886439878,24.750124886439878 0 0,0 -0.3962704044557273,0.15328590530132555 l -1.3228643785113547 -3.509054929744114" fill="#ff2303" stroke="none" /><path d="M 107.407793817531 119.65005319985036 l 2.96482377305119 7.864547300272266 a29.404836955198434,29.404836955198434 0 0,0 -0.47385313426098946,0.17400543445045089 l -2.8293814871360734 -7.9142835837314385" fill="#ff6509" stroke="none" /><path d="M 106.38641147887787 120.00534299687104 l 1.0611775815923836 3.324123660142832 a24.48939765111339,24.48939765111339 0 0,0 -0.40157873697583507,0.12441011923717739 l -1.0039582117449242 -3.341850367186654" fill="#ff2003" stroke="none" /><path d="M 106.0420521117495 120.11202640906438 l 1.7365856111520215 5.780528705664809 a27.0357469878943,27.0357469878943 0 0,0 -0.44562633941160684,0.12971533277485947 l -1.6370992593588078 -5.809487732742187" fill="#ff4406" stroke="none" /><path d="M 105.69591212413111 120.21278271476187 l 1.991934794343164 7.068673866904882 a28.34397402375437,28.34397402375437 0 0,0 -0.46945530175645894,0.12795213006872325 l -1.87029809165201 -7.101826491117746" fill="#ff5608" stroke="none" /><path d="M 105.3480935250658 120.30758222061773 l 2.1448235755945917 8.144244468793305 a29.421934821517958,29.421934821517958 0 0,0 -0.48951753760503514,0.12443344381575781 l -2.004700744764159 -8.179863144444333" fill="#ff6509" stroke="none" /><path d="M 104.9986988182912 120.39639698878246 l 1.66555819760719 6.796045819365909 a27.9971653466627,27.9971653466627 0 0,0 -0.46777643364628724,0.11039396465133054 l -1.5486496102210237 -6.823635927663465" fill="#ff5107" stroke="none" /><path d="M 104.64783097203109 120.47920084513623 l 1.8191249080470298 8.015399995926526 a29.21923673620465,29.21923673620465 0 0,0 -0.49010063505686163,0.10681515231829092 l -1.6812618563710324 -8.045446606378535" fill="#ff6209" stroke="none" /><path d="M 104.29559338865022 120.5559693870025 l 1.00431453922646 4.806008636154392 a25.90982349015647,25.90982349015647 0 0,0 -0.4361530315734683,0.08724282149274896 l -0.9216650221220332 -4.822540854310002" fill="#ff3404" stroke="none" /><path d="M 103.94208987418118 120.62667999033965 l 0.3672737469509312 1.9217314391604028 a22.95651264484973,22.95651264484973 0 0,0 -0.38770846066305503,0.07065339678116092 l -0.334230552736819 -1.9277530098729272" fill="#ff0901" stroke="none" /><path d="M 103.58742460773223 120.69131181640829 l 1.0191473636686417 5.878171165768037 a26.965866039640808,26.965866039640808 0 0,0 -0.45677929523606614,0.07516285920618464 l -0.9180905653795032 -5.894800023469892" fill="#ff4306" stroke="none" /><path d="M 103.2317021107853 120.74984581791261 l 1.0536603543375227 6.765255319785023 a27.84681529502456,27.84681529502456 0 0,0 -0.47296475735786536,0.0695095318956882 l -0.9373704913719719 -6.782345924979594" fill="#ff4f07" stroke="none" /><path d="M 102.875027216393 120.80226474461374 l 1.118207113934812 8.090789642181534 a29.16769638170313,29.16769638170313 0 0,0 -0.4965761114673835,0.06429171942955053 l -0.9791531805766531 -8.10879295781148" fill="#ff6209" stroke="none" /><path d="M 102.51750503828377 120.84855314841334 l 0.924597410090498 7.65699291640674 a28.712614400619874,28.712614400619874 0 0,0 -0.4898428052819993,0.05488790804616579 l -0.7930187032076994 -7.671736584959876" fill="#ff5b08" stroke="none" /><path d="M 102.15924093988457 120.88869738790638 l 0.8724435978282408 8.440100391957504 a29.48507233072958,29.48507233072958 0 0,0 -0.5039145396725357,0.04772123082496096 l -0.7274294947706896 -8.453833378287648" fill="#ff6609" stroke="none" /><path d="M 101.80034050326958 120.92268563240118 l 0.6012633105731134 6.987591073228404 a28.01341190686121,28.01341190686121 0 0,0 -0.4794708953075478,0.03711407968267767 l -0.4812234204903298 -6.996882919906135" fill="#ff5207" stroke="none" /><path d="M 101.44090949804482 120.95050786540614 l 0.19789295966237355 2.877320201956296 a23.884117398454812,23.884117398454812 0 0,0 -0.40927783524596273,0.02462113824187693 l -0.14847077228394567 -2.8802933180228645" fill="#ff1702" stroke="none" /><path d="M 101.08105385017728 120.97215588758144 l 0.5556087033118219 10.778660412190993 a31.79297092150855,31.79297092150855 0 0,0 -0.5452861485663946,0.023416933441332416 l -0.3704967941445978 -10.786609914058157" fill="#ff850c" stroke="none" /><path d="M 100.72087961077811 120.9876233191556 l 0.162664119684378 4.73578836248788 a25.73858111992486,25.73858111992486 0 0,0 -0.44170675953957345,0.011376799283996916 l -0.08134404607406069 -4.737882879121922" fill="#ff3204" stroke="none" /><line stroke="#e1ed5e" stroke-width="0.3" x1="101.45913802915013" x2="101.54496967792366" y1="184.9874750549273" y2="189.98673829345242" /><path d="M 101.47630435890484 185.9873277026323 a86.0,86.0 0 0,1 -42.54439059252881,-10.42667462771756" fill="none" id="id103" stroke="none" /><text fill="#e1ed5e" style="font-size:6.75px; font-family:Arial;" text-anchor="middle"><textPath startOffset="22.145653131862474" xlink:href="#id103">July</textPath></text><path d="M 100.36049292484886 120.99690560180557 l 0.10761589986713758 6.268086653048847 a27.2690104061194,27.2690104061194 0 0,0 -0.468108824715989,0.004018151264986793 l -7.677323527675571e-16 -6.269010406119399" fill="#ff4706" stroke="none" /><path d="M 100.0 121.0 l 7.711348462901648e-16 6.2967938741771015 a27.2967938741771,27.2967938741771 0 0,0 -0.4685857648903968,-0.004022245222767408 l 0.10809284004154393 -6.295866027148769" fill="#ff4806" stroke="none" /><path d="M 99.63950707515114 120.99690560180557 l -0.08416956835046377 4.9024553864418206 a25.90317788095524,25.90317788095524 0 0,0 -0.4445314491215938,-0.01144955326776314 l 0.16831433154280148 -4.90028811582401" fill="#ff3404" stroke="none" /><path d="M 99.27912038922189 120.98762331915562 l -0.25026754434969345 7.2862664878979615 a28.29056329623574,28.29056329623574 0 0,0 -0.48521581511407313,-0.020837254856156735 l 0.3753091200646053 -7.280896664615977" fill="#ff5507" stroke="none" /><path d="M 98.91894614982273 120.97215588758144 l -0.39649776355437333 7.691950687725867 a28.702163063640633,28.702163063640633 0 0,0 -0.4918397849745985,-0.02958786011814314 l 0.5284819006614182 -7.684010849783032" fill="#ff5b08" stroke="none" /><path d="M 98.55909050195518 120.95050786540614 l -0.3583455239955143 5.210265272862805 a26.22257366900341,26.22257366900341 0 0,0 -0.4488193339728724,-0.03474145498135161 l 0.4477338527436228 -5.2033460508864" fill="#ff3805" stroke="none" /><path d="M 98.19965949673042 120.92268563240118 l -0.6596977041846931 7.666687302766473 a28.695017560688683,28.695017560688683 0 0,0 -0.4904121110098011,-0.046442536792177816 l 0.7912093785795093 -7.654233010469111" fill="#ff5b08" stroke="none" /><path d="M 97.84075906011543 120.88869738790638 l -0.7227119514238534 6.991582538594884 a28.028836244977953,28.028836244977953 0 0,0 -0.4781774164993269,-0.05358077690139479 l 0.8426252695239795 -6.978146001186519" fill="#ff5207" stroke="none" /><path d="M 97.48249496171623 120.84855314841334 l -0.8365026089088303 6.927441588165103 a27.977763507897837,27.977763507897837 0 0,0 -0.47631766418894733,-0.06166885784111294 l 0.9552980949885717 -6.912061134123594" fill="#ff5107" stroke="none" /><path d="M 97.12497278360702 120.80226474461374 l -0.6666204950060991 4.823333825235997 a25.869181869064647,25.869181869064647 0 0,0 -0.43937560529353453,-0.06457308324820855 l 0.7493212059073185 -4.811179668688906" fill="#ff3304" stroke="none" /><path d="M 96.76829788921471 120.74984581791261 l -1.0904954381983953 7.001762981878098 a28.086174225569817,28.086174225569817 0 0,0 -0.475756382152685,-0.07828553163668686 l 1.2105293234041439 -6.982011451745743" fill="#ff5307" stroke="none" /><path d="M 96.05791012581884 120.62667999033965 l -3.2287006979831014 16.893926370899134 a38.19968768386559,38.19968768386559 0 0,0 -0.6430344689460125,-0.12862490301982835 l 3.518231652460072 -16.836012071216444" fill="#ffd914" stroke="none" /><path d="M 95.35216902796893 120.47920084513623 l -1.550711120741249 6.832719323389803 a28.00647973894273,28.00647973894273 0 0,0 -0.46793205844430014,-0.11043069167991687 l 1.6677753329254368 -6.805092488063658" fill="#ff5107" stroke="none" /><path d="M 95.00130118170881 120.39639698878247 l -2.1117013339623347 8.616462062413513 a29.871454277449082,29.871454277449082 0 0,0 -0.49699657181908713,-0.12633458506643722 l 2.259303199006801 -8.578942245511811" fill="#ff6b09" stroke="none" /><path d="M 94.6519064749342 120.30758222061772 l -1.776774442650082 6.746701962577362 a27.976740986442003,27.976740986442003 0 0,0 -0.4633728979198644,-0.12629434385580784 l 1.8923287415046417 -6.715207124577409" fill="#ff5107" stroke="none" /><path d="M 94.30408787586889 120.21278271476187 l -1.0060308842600016 3.5700486989147726 a24.709089625866167,24.709089625866167 0 0,0 -0.4072763798647182,-0.11855221846906207 l 1.0671672765063267 -3.5522527861431943" fill="#ff2303" stroke="none" /><path d="M 93.61358852112213 120.00534299687104 l -4.935988117062508 15.461912474149774 a37.230672076351325,37.230672076351325 0 0,0 -0.6071742213449238,-0.1995902265685294 l 5.2006850760551755 -15.374901326179224" fill="#ffcd13" stroke="none" /><path d="M 92.93061703081489 119.77432235084164 l -2.361686759750211 6.606058192430705 a28.015523443974818,28.015523443974818 0 0,0 -0.45146462169187807,-0.16578406252186018 l 2.4747405330962082 -6.564543280900125" fill="#ff5207" stroke="none" /><path d="M 92.59220618246901 119.65005319985036 l -2.4744938634961726 6.56388896047992 a28.01482417213649,28.01482417213649 0 0,0 -0.4485409975256699,-0.17350529360100936 l 2.5868071235153707 -6.520443778740869" fill="#ff5207" stroke="none" /><path d="M 92.25597844496254 119.51999308798841 l -2.7874905740036087 7.026297170103895 a28.559031394482297,28.559031394482297 0 0,0 -0.4541505298528336,-0.1846990668153709 l 2.9076955650468834 -6.977410846709233" fill="#ff5908" stroke="none" /><path d="M 90.93487009805054 118.94263497670748 l -3.4461192943309245 7.201063921286033 a28.983173541218257,28.983173541218257 0 0,0 -0.4469477950086812,-0.21862456337837272 l 3.569227338601675 -7.140845607810439" fill="#ff5f08" stroke="none" /><path d="M 90.6110303473126 118.78422872680471 l -3.455172475935397 6.912659480154308 a28.728070776528174,28.728070776528174 0 0,0 -0.43922864281089263,-0.2242732746472268 l 3.573328340459872 -6.852328253834245" fill="#ff5c08" stroke="none" /><path d="M 90.28995756902619 118.62028667847754 l -3.216861705302135 6.168756479031645 a27.95713703534969,27.95713703534969 0 0,0 -0.4236320801540949,-0.22556022151024885 l 3.322282601242792 -6.112625789798823" fill="#ff5107" stroke="none" /><path d="M 89.97174638481275 118.45085714620012 l -2.9783912521025484 5.47990444067066 a27.236999850046736,27.236999850046736 0 0,0 -0.4088867857104093,-0.22680260743454514 l 3.0720222259690604 -5.427968917802967" fill="#ff4706" stroke="none" /><line stroke="#e1ed5e" stroke-width="0.3" x1="58.13341422392154" x2="55.67067388415222" y1="173.97424548756322" y2="178.32567169271397" /><path d="M 57.64086615596768 174.84453072859336 a86.0,86.0 0 0,1 -31.369924170532247,-30.572349798747897" fill="none" id="id104" stroke="none" /><text fill="#e1ed5e" style="font-size:6.75px; font-family:Arial;" text-anchor="middle"><textPath startOffset="22.145653131862474" xlink:href="#id104">August</textPath></text><path d="M 89.65649057296885 118.27599006163327 l -3.448302563388455 6.092820219537479 a28.00094627863092,28.00094627863092 0 0,0 -0.4162907778678516,-0.24034559266316466 l 3.552385809116706 -6.032727729598143" fill="#ff5107" stroke="none" /><path d="M 89.34428304082925 118.09573695890944 l -1.7898913729913664 3.0396268589695756 a24.527469711971765,24.527469711971765 0 0,0 -0.36098273583334795,-0.21675976099148866 l 1.8418068653821416 -3.0084530974421684" fill="#ff2003" stroke="none" /><path d="M 89.03521579738668 117.91015095944536 l -3.104366517562766 5.070749404237733 a26.945552202776636,26.945552202776636 0 0,0 -0.39242459205611774,-0.24490196904035438 l 3.190955238408596 -5.016711638355831" fill="#ff4306" stroke="none" /><path d="M 88.72937992617639 117.7192867562869 l -4.684006046188179 7.364035497332915 a29.72748139194273,29.72748139194273 0 0,0 -0.4282376303750031,-0.2775784581888099 l 4.809729308820192 -7.28254319744021" fill="#ff6909" stroke="none" /><path d="M 88.4268655584334 117.5232005979908 l -4.266923398077471 6.460665865266729 a28.74253438530845,28.74253438530845 0 0,0 -0.40938089162596225,-0.2754497339746537 l 4.377200577800439 -6.386466457234954" fill="#ff5c08" stroke="none" /><path d="M 88.1277618465304 117.32195027204791 l -2.753268416269597 4.017100901760833 a25.870070495070415,25.870070495070415 0 0,0 -0.3641580871439786,-0.2542106267687882 l 2.8218215945873406 -3.9692454591869164" fill="#ff3304" stroke="none" /><path d="M 87.83215693770417 117.11559508785305 l -4.4855904275140706 6.309544682177618 a28.741503444409343,28.741503444409343 0 0,0 -0.3996697521985686,-0.2893300789393581 l 4.593241190086593 -6.231613831865195" fill="#ff5c08" stroke="none" /><path d="M 87.2517909369889 116.68781488649013 l -6.404400577781375 8.383565940336263 a31.549906380468627,31.549906380468627 0 0,0 -0.4275614096938538,-0.33247433826000644 l 6.547371932110456 -8.272390550455464" fill="#ff820c" stroke="none" /><path d="M 86.68645165197938 116.24036423190432 l -4.909599538217679 5.988913146907133 a28.74411055621395,28.74411055621395 0 0,0 -0.3789098830308617,-0.31610010082132417 l 5.011683755410433 -5.903750862173938" fill="#ff5c08" stroke="none" /><path d="M 86.40962598614128 116.0094264158162 l -4.98914029761593 5.877194725576731 a28.709276149655174,28.709276149655174 0 0,0 -0.37297522165621744,-0.3221671132074689 l 5.08929499903501 -5.79068347990454" fill="#ff5b08" stroke="none" /><path d="M 86.13680546590413 115.77377054828092 l -4.506125384648615 5.127143509702399 a27.82588943297927,27.82588943297927 0 0,0 -0.3560852214470253,-0.3184136007483655 l 4.593475632919011 -5.049034379070651" fill="#ff4f07" stroke="none" /><path d="M 85.86807049272751 115.53346607816431 l -5.178821852145925 5.692432411566063 a28.69571195774062,28.69571195774062 0 0,0 -0.3615252892841886,-0.33462241050226743 l 5.275776912744081 -5.602692254931419" fill="#ff5b08" stroke="none" /><path d="M 85.60350026404147 115.28858382429668 l -2.6541133631670033 2.818576416225179 a24.87152305412772,24.87152305412772 0 0,0 -0.3083210366392663,-0.295364578596405 l 2.702106885671584 -2.7725997073231916" fill="#ff2503" stroke="none" /><path d="M 85.08716467003676 114.78537596483092 l -8.808684626661835 8.733397176266045 a33.404239238679665,33.404239238679665 0 0,0 -0.4002355947603733,-0.41067697905559863 l 8.957307022573017 -8.58089750514271" fill="#ff9b0e" stroke="none" /><path d="M 84.83555147118756 114.52719865689866 l -9.052627606389628 8.672212468200183 a33.53624089085617,33.53624089085617 0 0,0 -0.3946802997424204,-0.4191368011030477 l 9.200163739868302 -8.515534207152644" fill="#ff9d0e" stroke="none" /><path d="M 84.58840730492382 114.26474011684316 l -2.930124821861396 2.712079790891303 a24.99261922349844,24.99261922349844 0 0,0 -0.2887269945525787,-0.31736154453818927 l 2.9762495172558543 -2.6613806707954395" fill="#ff2703" stroke="none" /><path d="M 84.3458050057657 113.99807769240083 l -5.2533382488366485 4.697567455800892 a28.04731883474061,28.04731883474061 0 0,0 -0.3178548365854308,-0.361660456226649 l 5.333204149380672 -4.606694721762943" fill="#ff5207" stroke="none" /><path d="M 84.1078160697243 113.72728997021213 l -5.853871578613291 5.056434846246707 a28.735331008640447,28.735331008640447 0 0,0 -0.3192432830351654,-0.376067784689607 l 5.93980942515557 -4.955200279107546" fill="#ff5c08" stroke="none" /><path d="M 83.8745106332314 113.45245675266167 l -5.402640280111948 4.507074673229475 a28.035783119621772,28.035783119621772 0 0,0 -0.30512701938692777,-0.37220535069268545 l 5.479214118737505 -4.413667040838294" fill="#ff5207" stroke="none" /><path d="M 83.64595745247003 113.17365903436017 l -3.2833194471086644 2.6448097326019413 a25.216065122057284,25.216065122057284 0 0,0 -0.26865144071108105,-0.3394323191882962 l 3.328237318461307 -2.5880574694989646" fill="#ff2a04" stroke="none" /><path d="M 83.4222238831116 112.89097897827486 l -5.619639798411661 4.369865897332356 a28.118713326476954,28.118713326476954 0 0,0 -0.29303451480194825,-0.38359158641004226 l 5.6938262905679045 -4.272753397681443" fill="#ff5307" stroke="none" /><path d="M 83.20337586046588 112.60449989151573 l -5.496372049509923 4.1245800540786215 a27.87184591861147,27.87184591861147 0 0,0 -0.2838919786886501,-0.38515399212433216 l 5.566366047782404 -4.02961975268541" fill="#ff5007" stroke="none" /><path d="M 82.98947788004972 112.3143062007846 l -5.666846037219375 4.1023595162419495 a27.995891480722797,27.995891480722797 0 0,0 -0.27847233492936646,-0.391706213124083 l 5.736433470678702 -4.004476076408363" fill="#ff5107" stroke="none" /><path d="M 82.78059297857968 112.02048342749411 l -5.78250760191882 4.036639398311323 a28.052081380574684,28.052081380574684 0 0,0 -0.27225248043108796,-0.39722450531290854 l 5.850949819165233 -3.9367801579283626" fill="#ff5207" stroke="none" /><path d="M 82.576782715395 111.72311816256416 l -5.837132289442281 3.9274831072740013 a28.035427273618307,28.035427273618307 0 0,0 -0.2652359163658704,-0.4016009830126793 l 5.903692644728878 -3.826702245922261" fill="#ff5207" stroke="none" /><path d="M 82.18462484594161 111.11811171558189 l -6.946998576305959 4.335440909408138 a29.18882391422399,29.18882391422399 0 0,0 -0.2616319876441497,-0.4273561894095144 l 7.020398528405513 -4.215547603874067" fill="#ff6209" stroke="none" /><line stroke="#e1ed5e" stroke-width="0.3" x1="26.387840678322732" x2="22.057713659400548" y1="142.50000000000003" y2="145.00000000000006" /><path d="M 25.521815274538298 143.00000000000003 a86.0,86.0 0 0,1 -11.493303480769221,-40.785679425670985" fill="none" id="id105" stroke="none" /><text fill="#e1ed5e" style="font-size:6.75px; font-family:Arial;" text-anchor="middle"><textPath startOffset="21.40746469413373" xlink:href="#id105">September</textPath></text><path d="M 81.63589988554817 110.18625677009913 l -14.103427662789429 7.8229335832599 a37.12776989194816,37.12776989194816 0 0,0 -0.30436753549099177,-0.5600019836734446 l 14.235640547895748 -7.579676766111868" fill="#ffcb12" stroke="none" /><path d="M 81.29705330413844 109.54985784667822 l -3.7684555206039514 1.9242002401290441 a25.23128864235035,25.23128864235035 0 0,0 -0.1936562520549402,-0.38744222929025257 l 3.8009316858706286 -1.8592261546750388" fill="#ff2a04" stroke="none" /><path d="M 81.1358732173502 109.22738970284198 l -5.670211756104183 2.7735847078451283 a27.31221621070242,27.31221621070242 0 0,0 -0.20239749302232532,-0.4229329167912004 l 5.71698850708642 -2.6758392889888234" fill="#ff4806" stroke="none" /><path d="M 80.9802524753101 108.90220220490708 l -1.8011285961745516 0.8430191273239682 a22.988654185370542,22.988654185370542 0 0,0 -0.1642216790419246,-0.3588540060009938 l 1.8153347400715323 -0.8119761391082855" fill="#ff0a01" stroke="none" /><path d="M 80.68587082218212 108.24405325689762 l -5.581693115726739 2.38249288311475 a27.068901908602882,27.068901908602882 0 0,0 -0.1787503386428676,-0.4289357409669472 l 5.621769298906092 -2.2863246327065214" fill="#ff4406" stroke="none" /><path d="M 80.41425534168474 107.57618678355246 l -4.633398740077816 1.7922981694036713 a25.967969063168816,25.967969063168816 0 0,0 -0.15725375564243144,-0.41713426971161793 l 4.663483179534683 -1.7124956194979084" fill="#ff3505" stroke="none" /><path d="M 80.28708602549918 107.23885506374661 l -5.9465539864806765 2.1836569921909903 a27.33481350741076,27.33481350741076 0 0,0 -0.15796896757809017,-0.44186731712440813 l 5.98316312410271 -2.0812547186856607" fill="#ff4806" stroke="none" /><path d="M 80.16572619554312 106.89939002012753 l -5.6378556662427535 1.9611388600400446 a26.96921118253867,26.96921118253867 0 0,0 -0.14834938382270246,-0.43856859331379383 l 5.6706904716378235 -1.8640685922520892" fill="#ff4306" stroke="none" /><path d="M 79.94057633289273 106.21446072829308 l -2.4440272689069205 0.7571658953694025 a23.55862648393062,23.55862648393062 0 0,0 -0.11636130640824928,-0.3873289445691874 l 2.4566648953187995 -0.7150993472094916" fill="#ff1202" stroke="none" /><path d="M 79.83685265289637 105.86919833188381 l -13.063460493795178 3.8025829608305832 a34.60564725571505,34.60564725571505 0 0,0 -0.16113297006662672,-0.5718040659971984 l 13.126811955936379 -3.577770970930389" fill="#ffab0f" stroke="none" /><path d="M 79.73907114497094 105.5222062557868 l -4.768022631974902 1.2995457707996128 a25.941948910038228,25.941948910038228 0 0,0 -0.11341637135084337,-0.4306604354573357 l 4.789628484130478 -1.2175048309694745" fill="#ff3405" stroke="none" /><path d="M 79.64726062577567 105.17358676015961 l -7.001543375236016 1.7797649466626042 a28.224207423702637,28.224207423702637 0 0,0 -0.11533281195929113,-0.4705972302124911 l 7.031063713711601 -1.6593118918420136" fill="#ff5507" stroke="none" /><path d="M 79.56144815229197 104.8234425847677 l -6.280601692530931 1.4822048982455172 a27.45313016919738,27.45313016919738 0 0,0 -0.10430769541645213,-0.459598952066309 l 6.30512024950505 -1.374171612240182" fill="#ff4a06" stroke="none" /><path d="M 79.48165901384964 104.47187691870673 l -2.812880218321168 0.613054151497324 a23.878911342033764,23.878911342033764 0 0,0 -0.08385169454207433,-0.4012607130389509 l 2.8229896236876093 -0.564676987172964" fill="#ff1702" stroke="none" /><path d="M 79.34024301695615 103.76489593502545 l -3.8577030364157037 0.7030020000843692 a24.921235077025294,24.921235077025294 0 0,0 -0.07308470526369212,-0.4215331584563378 l 3.8692025591716304 -0.6366758087074387" fill="#ff2603" stroke="none" /><path d="M 79.03789590574601 101.26102812881392 l -7.084918849482954 0.42621112457937654 a28.097727173291045,28.097727173291045 0 0,0 -0.02483091220091186,-0.4817130630661845 l 7.091191351140439 -0.3045262681364613" fill="#ff5307" stroke="none" /><path d="M 79.01933749520258 100.90099992219065 l -7.584559744997161 0.32571362980221363 a28.591550295826956,28.591550295826956 0 0,0 -0.016849018293153235,-0.4905407837136351 l 7.589033450287163 -0.19546658152445867" fill="#ff5a08" stroke="none" /><path d="M 79.00696218219943 100.54070618675478 l -3.5497296918548087 0.09142844510409617 a24.5509069328567,24.5509069328567 0 0,0 -0.007234998422322291,-0.4214023866526177 l 3.550776121875797 -0.030479142482426124" fill="#ff2103" stroke="none" /><line stroke="#e1ed5e" stroke-width="0.3" x1="15.003131293944662" x2="10.003315487706104" y1="100.72959589197737" y2="100.7725132973878" /><path d="M 14.003168132696942 100.73817937305945 a86.0,86.0 0 0,1 10.791469493833604,-42.45332614584628" fill="none" id="id106" stroke="none" /><text fill="#e1ed5e" style="font-size:6.75px; font-family:Arial;" text-anchor="middle"><textPath startOffset="22.145653131862435" xlink:href="#id106">October</textPath></text><path d="M 79.00077361379809 99.81974689727619 l -4.938463423967389 -0.042390768997238024 a25.938645357500363,25.938645357500363 0 0,0 0.007643956239658803,-0.4452221292712394 l 4.937008036129065 0.1271598142375298" fill="#ff3405" stroke="none" /><path d="M 79.00696218219943 99.45929381324524 l -4.95779530396587 -0.12769522051949053 a25.95943951927731,25.95943951927731 0 0,0 0.015297913782732686,-0.44538206829627364 l 4.954872703186287 0.21278355337990268" fill="#ff3505" stroke="none" /><path d="M 79.01933749520258 99.09900007780938 l -5.97949574473509 -0.2567852754656135 a26.98500693725588,26.98500693725588 0 0,0 0.02384756367899486,-0.4626363644446295 l 5.974206591599525 0.35939343328695506" fill="#ff4306" stroke="none" /><path d="M 79.03789590574601 98.7389718711861 l -5.360600485569406 -0.32248041366656044 a26.370291536135213,26.370291536135213 0 0,0 0.031061740739353867,-0.4516308932351703 l 5.354274783664988 0.41445473105605574" fill="#ff3a05" stroke="none" /><path d="M 79.06263194458094 98.37931529534042 l -4.346734712461088 -0.33646475741611875 a25.35973751428882,25.35973751428882 0 0,0 0.03732274361441943,-0.4337468552004723 l 4.340318346148925 0.4110326599922717" fill="#ff2c04" stroke="none" /><path d="M 79.0935383218832 98.0201363427161 l -5.645768945135576 -0.5346601889881775 a26.671028874864433,26.671028874864433 0 0,0 0.04707767764017564,-0.4554338257422971 l 5.635758875013737 0.6314985370133873" fill="#ff3f05" stroke="none" /><path d="M 79.13060592940154 97.66154086499901 l -6.275466217860709 -0.70317907908122 a27.314739667537253,27.314739667537253 0 0,0 0.05621362203767815,-0.4655294304858009 l 6.262470509563362 0.8108021864904572" fill="#ff4806" stroke="none" /><path d="M 79.17382384314186 97.30363454192245 l -7.483303567803306 -0.9688634678089371 a28.545762301262375,28.545762301262375 0 0,0 0.06708999517518696,-0.48542978424393124 l 7.465569056072911 1.0971815602529353" fill="#ff5908" stroke="none" /><path d="M 79.22317932658666 96.9465228501225 l -6.888452489212497 -1.0123652990249121 a27.962446494933204,27.962446494933204 0 0,0 0.0738721337001155,-0.47431209064784335 l 6.870058863374115 1.1304655716042054" fill="#ff5107" stroke="none" /><path d="M 79.2786578344484 96.59031103205396 l -6.658952858565343 -1.0957281588481784 a27.748501564842996,27.748501564842996 0 0,0 0.08137602538989892,-0.4693552896117176 l 6.639162015683209 1.2098764813804888" fill="#ff4e07" stroke="none" /><path d="M 79.407916724674 95.88100663000787 l -19.169004484555177 -3.834337756191995 a40.548730878434434,40.548730878434434 0 0,0 0.14238839229249708,-0.6813800022978502 l 19.100358381438312 4.162834209775254" fill="#fff617" stroke="none" /><path d="M 79.48165901384962 95.52812308129327 l -7.554800180570041 -1.6465335367872298 a28.73214578600961,28.73214578600961 0 0,0 0.10916729323168413,-0.4810112366961899 l 7.525422025780695 1.775979107422428" fill="#ff5c08" stroke="none" /><path d="M 79.56144815229197 95.17655741523228 l -7.373407662118474 -1.7401041315117964 a28.57595557935049,28.57595557935049 0 0,0 0.11677016335354545,-0.47646211439841607 l 7.34244997224863 1.86642207051833" fill="#ff5908" stroke="none" /><path d="M 79.64726062577567 94.8264132398404 l -6.119121608027235 -1.555456784121608 a27.31372275769975,27.31372275769975 0 0,0 0.11941366988286646,-0.45343315483289914 l 6.091518457339642 1.6602704433272917" fill="#ff4806" stroke="none" /><path d="M 79.73907114497095 94.47779374421319 l -8.232649691958885 -2.2438452825104465 a29.53295743586918,29.53295743586918 0 0,0 0.13751319578935586,-0.4879858197121996 l 8.192918004094947 2.3848390261256593" fill="#ff6709" stroke="none" /><path d="M 79.94057633289273 93.78553927170692 l -3.9862019552104795 -1.2349355553181223 a25.173112969176934,25.173112969176934 0 0,0 0.1314219711974727,-0.4116774529523902 l 3.9644152682357494 1.3031820419619042" fill="#ff2904" stroke="none" /><path d="M 80.05021161711548 93.44210830539832 l -6.206469938493929 -2.0401899449401273 a27.533195551096235,27.533195551096235 0 0,0 0.15145168937383416,-0.4477400084321346 l 6.1705328275477305 2.1464316278464235" fill="#ff4b07" stroke="none" /><path d="M 80.16572619554312 93.10060997987247 l -7.155214057290392 -2.488954874044972 a28.57574976953953,28.57574976953953 0 0,0 0.16514038728086408,-0.4619270543792672 l 7.111433499965584 2.611416884805161" fill="#ff5908" stroke="none" /><path d="M 80.28708602549916 92.7611449362534 l -6.597578436933163 -2.4227221880253937 a28.02834433076781,28.02834433076781 0 0,0 0.16973073249320347,-0.45023093316231394 l 6.555017020625524 2.5356214013818525" fill="#ff5207" stroke="none" /><path d="M 80.41425534168474 92.42381321644754 l -4.667581865947945 -1.8055209368274152 a26.00462049796468,26.00462049796468 0 0,0 0.16462327171439636,-0.4149581846007037 l 4.635899919267416 1.885380138641702" fill="#ff3505" stroke="none" /><path d="M 80.5471966667186 92.08871423366112 l -7.169222012557841 -2.9156601797662205 a28.739432702027862,28.739432702027862 0 0,0 0.18978174087878213,-0.4554070904921662 l 7.118114427142581 3.0382997796996505" fill="#ff5c08" stroke="none" /><path d="M 80.68587082218212 91.75594674310238 l -5.18992276251483 -2.2152694154337955 a26.64293512844388,26.64293512844388 0 0,0 0.18315891029366424,-0.41910343073457146 l 5.151129970204189 2.304034915944234" fill="#ff3e05" stroke="none" /><path d="M 80.83023694016515 91.42560881287825 l -3.807701981529683 -1.7031366643242891 a25.17124308540161,25.17124308540161 0 0,0 0.17981321436762984,-0.3929243245117818 l 3.7779043023070065 1.7682499710507422" fill="#ff2904" stroke="none" /><path d="M 80.9802524753101 91.09779779509293 l -13.456349412896476 -6.298250976149068 a35.85736534115393,35.85736534115393 0 0,0 0.2657214191425314,-0.5552555675156147 l 13.34624873579404 6.528319045729769" fill="#ffbb11" stroke="none" /><path d="M 81.1358732173502 90.77261029715801 l -3.8129990569343337 -1.865128910565975 a25.244722330283942,25.244722330283942 0 0,0 0.19375935886383763,-0.3876485119765563 l 3.780419784858752 1.9303092787063016" fill="#ff2a04" stroke="none" /><path d="M 81.29705330413844 90.45014215332179 l -5.615117808445543 -2.867119162290703 a27.304753785319203,27.304753785319203 0 0,0 0.21673724450660364,-0.4156222442182988 l 5.565072494963999 2.9630876496134886" fill="#ff4806" stroke="none" /><path d="M 81.46374523516351 90.13048839642627 l -4.186261752858763 -2.2289485912663496 a25.742678492788265,25.742678492788265 0 0,0 0.211034372185257,-0.3882794755241689 l 4.1473820310581555 2.300482900265138" fill="#ff3204" stroke="none" /><path d="M 81.63589988554816 89.8137432299009 l -6.157419316433523 -3.4154166992915123 a28.041227440452978,28.041227440452978 0 0,0 0.23710411415579455,-0.4189402508358723 l 6.0978818372563595 3.52061372022649" fill="#ff5207" stroke="none" /><line stroke="#e1ed5e" stroke-width="0.3" x1="26.387840678322718" x2="22.05771365940052" y1="57.49999999999999" y2="54.99999999999999" /><path d="M 25.521815274538284 56.99999999999999 a86.0,86.0 0 0,1 29.574782752854787,-30.34633250058573" fill="none" id="id107" stroke="none" /><text fill="#e1ed5e" style="font-size:6.75px; font-family:Arial;" text-anchor="middle"><textPath startOffset="21.40746469413373" xlink:href="#id107">November</textPath></text><path d="M 81.81346652052679 89.5 l -2.638015976567339 -1.5230592341976874 a24.046118468395374,24.046118468395374 0 0,0 0.20946034462873134,-0.3557094575848269 l 2.6114819218088288 1.568119860076087" fill="#ff1902" stroke="none" /><path d="M 81.99639281039701 89.18935116829357 l -13.79171273311373 -8.2815272281418 a37.08710767488007,37.08710767488007 0 0,0 0.3324277033383187,-0.5429956704913438 l 13.647517065320018 8.517060014757687" fill="#ffcb12" stroke="none" /><path d="M 82.18462484594161 88.88188828441811 l -7.573552488257067 -4.726456890192597 a29.927378788156908,29.927378788156908 0 0,0 0.27573420626280837,-0.4334999704794719 l 7.491300590368369 4.855770535350741" fill="#ff6c0a" stroke="none" /><path d="M 82.37810715431573 88.57770195909679 l -5.879774356806305 -3.811198700663403 a28.00692386307254,28.00692386307254 0 0,0 0.26496625298096954,-0.4011926782780065 l 5.813483664904607 3.91157125728047" fill="#ff5107" stroke="none" /><path d="M 82.576782715395 88.27688183743585 l -6.77973491487826 -4.5617082206859205 a29.171535192770868,29.171535192770868 0 0,0 0.2831170602447609,-0.4130762519529579 l 6.700428117818186 4.677419207708914" fill="#ff6209" stroke="none" /><path d="M 82.78059297857968 87.97951657250589 l -5.759780816819251 -4.020774337260748 a28.0243648345579,28.0243648345579 0 0,0 0.2787555565346065,-0.39210459978066653 l 5.689910161754672 4.119056163750935" fill="#ff5207" stroke="none" /><path d="M 82.98947788004972 87.6856937992154 l -3.947833881943195 -2.857927282259264 a25.873719391809555,25.873719391809555 0 0,0 0.26353982494109757,-0.357542386821476 l 3.8981920374182786 2.925275978349603" fill="#ff3304" stroke="none" /><path d="M 83.2033758604659 87.39550010848427 l -5.6228509799063175 -4.219492201377803 a28.029976356981688,28.029976356981688 0 0,0 0.29210975716814164,-0.3823810489822723 l 5.549589245383869 4.31539416360096" fill="#ff5207" stroke="none" /><path d="M 83.42222388311158 87.10902102172516 l -4.442547299917192 -3.4545516509227268 a26.627624154196376,26.627624154196376 0 0,0 0.2836901616930154,-0.35843325187271313 l 4.382590707582615 3.530304846710123" fill="#ff3e05" stroke="none" /><path d="M 83.64595745247003 86.82634096563983 l -4.500722106814073 -3.625463139847996 a26.77931505121164,26.77931505121164 0 0,0 0.291452268265012,-0.35552437780738155 l 4.437823019310431 3.7021897993538704" fill="#ff4006" stroke="none" /><path d="M 83.8745106332314 86.54754324733833 l -4.845680647578876 -4.042439138814624 a27.31046235464096,27.31046235464096 0 0,0 0.30341330192723936,-0.357420106748392 l 4.775572782144522 4.125026028012572" fill="#ff4806" stroke="none" /><path d="M 84.10781606972428 86.27271002978789 l -4.775199339640833 -4.1247034572722745 a27.30996888611506,27.30996888611506 0 0,0 0.3094985923109745,-0.35215258417692197 l 4.703689683371267 4.206068319260497" fill="#ff4806" stroke="none" /><path d="M 84.34580500576568 86.00192230759919 l -2.6003239788878765 -2.3252257363148883 a24.488317577285702,24.488317577285702 0 0,0 0.2829010546078124,-0.31095781598443 l 2.560025223438198 2.3695211278569763" fill="#ff2003" stroke="none" /><path d="M 85.08716467003674 85.21462403516908 l -22.432495277508078 -22.240765700727977 a52.589056702125504,52.589056702125504 0 0,0 0.6411058775469972,-0.6356263730579623 l 22.047397479831105 22.62257208401461" fill="#7dff26" stroke="none" /><path d="M 85.86807049272753 84.46653392183569 l -3.062569932565532 -3.3663008391763696 a25.55096868058812,25.55096868058812 0 0,0 0.32697328014353344,-0.2923815233216451 l 3.004331625598607 3.4183778923814154" fill="#ff2f04" stroke="none" /><path d="M 86.96720088162412 83.53348406188908 l -24.971337168673255 -31.550468763393443 a61.236796084944785,61.236796084944785 0 0,0 0.8298753899130795,-0.6453161226528332 l 24.42605183412493 31.974485937667083" fill="#31ff3b" stroke="none" /><path d="M 87.83215693770416 82.88440491214696 l -3.6512177774574983 -5.135895058523382 a27.30149262560757,27.30149262560757 0 0,0 0.38430739230537336,-0.2682764066453441 l 3.5625152939783598 5.197816280973853" fill="#ff4806" stroke="none" /><path d="M 88.12776184653039 82.6780497279521 l -4.361314336126653 -6.363287955866806 a28.714434285661095,28.714434285661095 0 0,0 0.4089806609541099,-0.275180440916905 l 4.251437387075554 6.43721807084082" fill="#ff5b08" stroke="none" /><path d="M 88.4268655584334 82.4767994020092 l -2.6948724749624775 -4.080380401973375 a25.889973607405135,25.889973607405135 0 0,0 0.37295661889173565,-0.24174597443158716 l 2.624430223813716 4.126040218108869" fill="#ff3404" stroke="none" /><path d="M 89.03521579738668 82.08984904055464 l -2.3331376015229033 -3.811004929989783 a25.468477329476617,25.468477329476617 0 0,0 0.3748320039476579,-0.22507584857233784 l 2.267372841017811 3.850494779098044" fill="#ff2e04" stroke="none" /><line stroke="#e1ed5e" stroke-width="0.3" x1="56.869717070023135" x2="54.33264160355391" y1="26.7553504044142" y2="22.446841604673864" /><path d="M 56.362301976729285 25.89364864446614 a86.0,86.0 0 0,1 42.16139366436587,-11.88097634709845" fill="none" id="id108" stroke="none" /><text fill="#e1ed5e" style="font-size:6.75px; font-family:Arial;" text-anchor="middle"><textPath startOffset="22.145653131862474" xlink:href="#id108">December</textPath></text><path d="M 89.34428304082924 81.90426304109057 l -3.0161597336758916 -5.122098623282195 a26.944166370962137,26.944166370962137 0 0,0 0.4005796042017571,-0.23127474231775694 l 2.927787661613735 5.173120262876125" fill="#ff4306" stroke="none" /><path d="M 89.65649057296885 81.72400993836675 l -3.890132262478647 -6.873490962525762 a28.89797486900918,28.89797486900918 0 0,0 0.4338216441892397,-0.24063355310618326 l 3.771566430133305 6.939257431065091" fill="#ff5e08" stroke="none" /><path d="M 89.97174638481275 81.54914285379989 l -3.332819508391703 -6.132012512156229 a27.979202198300094,27.979202198300094 0 0,0 0.42396643166039544,-0.22573824485492727 l 3.2270642609447457 6.188321224733732" fill="#ff5107" stroke="none" /><path d="M 90.28995756902619 81.37971332152246 l -3.564297135756721 -6.835009728006971 a28.70853890526042,28.70853890526042 0 0,0 0.43893001651693686,-0.22412079393373957 l 3.4464398975262016 6.895188473613544" fill="#ff5b08" stroke="none" /><path d="M 90.61103034731259 81.2157712731953 l -3.7743710266679416 -7.551270404251654 a29.442011689465808,29.442011689465808 0 0,0 0.4540235107971584,-0.22208565053915538 l 3.6441872666087303 7.614949804888023" fill="#ff6509" stroke="none" /><path d="M 90.93487009805054 81.0573650232925 l -1.6057362228570333 -3.355371127325673 a24.71979894879897,24.71979894879897 0 0,0 0.3843473022671303,-0.17989394429399957 l 1.5479002067183805 3.3824413031902156" fill="#ff2303" stroke="none" /></svg>