<?xml version="1.0" encoding="utf-8" ?>
<svg baseProfile="full" height="200mm" version="1.1" viewBox="0,0,200,200" width="200mm" xmlns="http://www.w3.org/2000/svg" xmlns:ev="http://www.w3.org/2001/xml-events" xmlns:xlink="http://www.w3.org/1999/xlink"><defs /><rect fill="#1a1a1a" height="200" width="200" x="0" y="0" /><text alignment-baseline="middle" fill="#e1ed5e" style="dominant-baseline: central; font-size:9.0px; font-family:Arial;" text-anchor="middle" x="100.0" y="100.0">2025</text><line stroke="#e1ed5e" stroke-width="0.3" x1="100.0" x2="100.0" y1="15.0" y2="10.0" /><path d="M 100.0 14.0 a86.0,86.0 0 0,1 42.46469731375804,11.215312516191453" fill="none" id="id109" stroke="none" /><text fill="#e1ed5e" style="font-size:6.75px; font-family:Arial;" text-anchor="middle"><textPath startOffset="22.20632615414155" xlink:href="#id109">January</textPath></text><path d="M 100.36148047927253 79.00311137660856 l 0.3110894766544511 -18.069886114923744 a39.07256376026376,39.07256376026376 0 0,0 0.6723706589337898,0.017365350433592743 l -0.6220867707831086 18.06185397234779" fill="#ffd513" stroke="none" /><path d="M 100.72285384407766 79.0124445844662 l 0.655499292264385 -19.03196314712263 a40.04324816189699,40.04324816189699 0 0,0 0.6886660083132451,0.029655406965397965 l -0.9830061329669616 19.01786001363304" fill="#ffe215" stroke="none" /><path d="M 101.08401301168833 79.027996857942 l 0.9683521195002465 -18.734354176383857 a39.75936385471351,39.75936385471351 0 0,0 0.683175590132153,0.04121101726838208 l -1.2906897584720114 18.71490988973517" fill="#ffde14" stroke="none" /><path d="M 101.44485096284872 79.0497635885617 l 1.293234625480741 -18.751810280737047 a39.796351896080736,39.796351896080736 0 0,0 0.6829997929017187,0.05301392905468864 l -1.6158246077448009 18.726771089493894" fill="#ffdf14" stroke="none" /><path d="M 101.80526077348638 79.07773832637324 l 1.0297712889365744 -11.934643840684728 a32.978987958567785,32.978987958567785 0 0,0 0.5651575762039023,0.053668521710692786 l -1.2350539922307209 11.915149774458857" fill="#ff840c" stroke="none" /><path d="M 102.16513564639614 79.11191278185805 l 2.358127435249686 -22.749970248273684 a43.871858501184704,43.871858501184704 0 0,0 0.7504872548826412,0.08432598751776363 l -2.7493813936420524 22.70600830728532" fill="#ecff1a" stroke="none" /><path d="M 102.52436894288641 79.15227682838746 l 3.743810720993144 -30.918590461240825 a52.14442734783472,52.14442734783472 0 0,0 0.890143294980544,0.11556614697209885 l -4.275468744481534 30.849565991104587" fill="#8bff24" stroke="none" /><path d="M 102.88285421437855 79.19881850522331 l 3.9659328414651562 -28.61611538313438 a49.88962933171473,49.88962933171473 0 0,0 0.8496228097113133,0.12521231661647994 l -4.457924631605126 28.54360858235693" fill="#a4ff21" stroke="none" /><path d="M 103.95276090670814 79.375362276772 l 3.541633479172768 -18.479465158753044 a39.81578593241231,39.81578593241231 0 0,0 0.672002474662534,0.13479737454625032 l -3.859202363302428 18.415763828129585" fill="#ffdf14" stroke="none" /><path d="M 104.307194497241 79.44645832069477 l 2.300418228503186 -10.977387245841879 a32.215835001068875,32.215835001068875 0 0,0 0.5417741203855672,0.11841083855491062 l -2.489035073042281 10.936162909191097" fill="#ff790b" stroke="none" /><path d="M 104.66035177308747 79.52364482259891 l 6.363869735320956 -27.96116330866929 a49.6762182231585,49.6762182231585 0 0,0 0.8321388996279904,0.19694039221239143 l -6.844232321911471 27.84747700431603" fill="#a7ff21" stroke="none" /><path d="M 108.43124777332544 80.76684994638697 l 7.79779827787596 -17.78814101996677 a40.42224546566822,40.42224546566822 0 0,0 0.6348561603001186,0.28484145351377266 l -8.10283655664286 17.651279235936464" fill="#ffe715" stroke="none" /><path d="M 108.76106565485865 80.91482961587045 l 10.666164440576637 -23.235251704871892 a46.56646212642988,46.56646212642988 0 0,0 0.7255981443076149,0.3406780579613191 l -11.06454079618385 23.048208664270568" fill="#cbff1d" stroke="none" /><path d="M 109.08828744355905 81.06846463323043 l 8.164509856946403 -17.00724235110568 a39.86545821318469,39.86545821318469 0 0,0 0.616070792570162,0.30230326234810206 l -8.456051916526995 16.864183928622747" fill="#ffe015" stroke="none" /><path d="M 109.41281617654863 81.2277094730956 l 18.679487844563972 -37.25312022830862 a62.673951491069694,62.673951491069694 0 0,0 0.9602231711248929,0.491863603520478 l -19.317971503277622 36.92606409947564" fill="#32ff46" stroke="none" /><path d="M 109.73455568895987 81.39251694778311 l 5.9278987550809115 -11.331105306174642 a33.78803859511336,33.78803859511336 0 0,0 0.5130230225783095,0.2740391315489329 l -6.122066824187532 11.227387448123956" fill="#ff8f0d" stroke="none" /><path d="M 110.05341064243156 81.56283822128135 l 12.807235633315537 -23.48745950085828 a47.752309028787124,47.752309028787124 0 0,0 0.718276386351515,0.39972003134327505 l -13.209636108739089 23.263524071954823" fill="#bdff1f" stroke="none" /><path d="M 110.36928655335952 81.73862282372117 l 5.466964337386717 -9.62788493311905 a32.071759903088534,32.071759903088534 0 0,0 0.4777214901558838,0.2767271218868643 l -5.631882560007929 9.532353653842138" fill="#ff770b" stroke="none" /><line stroke="#e1ed5e" stroke-width="0.3" x1="143.23703022742887" x2="145.7803849466894" y1="26.81831364943548" y2="22.513508569990506" /><path d="M 143.74570117128098 25.957352633546492 a86.0,86.0 0 0,1 28.547481713284135,27.462654790039103" fill="none" id="id110" stroke="none" /><text fill="#e1ed5e" style="font-size:6.75px; font-family:Arial;" text-anchor="middle"><textPath startOffset="19.985693538727396" xlink:href="#id110">February</textPath></text><path d="M 110.99172775467656 82.1063720568725 l 20.175611339479726 -32.844234399837326 a59.5460636931088,59.5460636931088 0 0,0 0.8687511174852321,0.5440118700698717 l -20.737981609337222 32.49207818844451" fill="#3cff2e" stroke="none" /><path d="M 111.2981086023043 82.29822771554956 l 10.072239399979496 -15.781091732163253 a39.721454612007335,39.721454612007335 0 0,0 0.5731862157738716,0.37281625895119636 l -10.342392641537648 15.605376549052528" fill="#ffde14" stroke="none" /><path d="M 111.60114157652 82.49532879139004 l 12.656842601507032 -19.097591975510362 a43.91099482568143,43.91099482568143 0 0,0 0.6264537101767994,0.42298434154048037 l -12.983701006090374 18.876895721671215" fill="#ebff1a" stroke="none" /><path d="M 111.90073688211348 82.69761687909136 l 13.524875854325149 -19.66370536651186 a44.86595013017279,44.86595013017279 0 0,0 0.6325433679303336,0.44313705241881973 l -13.861350361839133 19.427983471329103" fill="#e0ff1b" stroke="none" /><path d="M 112.19680574252982 82.90503203632743 l 17.99450360375264 -25.22098565165288 a51.98225745787978,51.98225745787978 0 0,0 0.7239264123838162,0.525963325743186 l -18.425975332490246 24.907503091093023" fill="#8dff24" stroke="none" /><path d="M 113.06298171725822 83.55741782278167 l 30.310106967020868 -38.151812150750075 a69.72641331699234,69.72641331699234 0 0,0 0.9333265625568643,0.7546851717425501 l -30.96233692814222 37.6244208817434" fill="#3bff99" stroke="none" /><path d="M 113.34407831869373 83.78471172551755 l 16.603283467890112 -20.175767955260465 a47.129114690314864,47.129114690314864 0 0,0 0.621975186962386,0.5208863320321917 l -16.948116191811614 19.88698046583445" fill="#c5ff1e" stroke="none" /><path d="M 113.6212207817346 84.01681056812373 l 15.464809462157833 -18.14646301695612 a44.84228285476461,44.84228285476461 0 0,0 0.5831764538320047,0.5057248740469115 l -15.7748797146366 17.877573149489535" fill="#e0ff1b" stroke="none" /><path d="M 114.16331599549186 84.49514656593476 l 18.219882195756863 -19.945654190096644 a48.01468541919705,48.01468541919705 0 0,0 0.6054242933844715,0.5626758991777725 l -18.560514372936183 19.629073704844227" fill="#baff1f" stroke="none" /><path d="M 114.68862486808459 84.99185889309783 l 18.70626824933872 -19.11317880271042 a47.743935308039404,47.743935308039404 0 0,0 0.5823946183355729,0.5798936307600397 l -19.032498667841615 18.78834932130026" fill="#bdff1f" stroke="none" /><path d="M 114.94478906791727 85.2469230424477 l 13.6426809507447 -13.467672314341929 a40.1703140582074,40.1703140582074 0 0,0 0.4815382660342947,0.4962675115569328 l -13.872483480482103 13.230840607234882" fill="#ffe415" stroke="none" /><path d="M 115.19652480421416 85.50635884689758 l 18.91367207484039 -18.038859507153372 a47.13670682533312,47.13670682533312 0 0,0 0.5549397267581079,0.5919710084520609 l -19.221379123568965 17.710619081823257" fill="#c5ff1e" stroke="none" /><path d="M 115.4437574822437 85.77008943001954 l 17.631826651508923 -16.2460020966296 a44.97527674902948,44.97527674902948 0 0,0 0.519692234200274,0.573857145080148 l -17.908862526325233 15.940092164279902" fill="#deff1b" stroke="none" /><path d="M 115.68641384162765 86.03803664274999 l 15.84657306228811 -14.104515835640763 a42.214411252171864,42.214411252171864 0 0,0 0.47844635010894004,0.5469468859889145 l -16.0870112759749 13.8296533934489" fill="#fffd18" stroke="none" /><path d="M 115.9244219780498 86.31012108654704 l 20.138891670844973 -17.31296676294041 a47.557744178764665,47.557744178764665 0 0,0 0.52831985540003,0.6253640681330627 l -20.433922139732122 16.963743745178242" fill="#c0ff1e" stroke="none" /><path d="M 116.82858285166822 87.43820079747576 l 21.65602024547076 -16.16526954451405 a48.0240476671988,48.0240476671988 0 0,0 0.48878735642419746,0.6667054048523259 l -21.931070214408585 15.79010169599023" fill="#baff1f" stroke="none" /><path d="M 117.2510076193507 88.02491185347247 l 22.272146514598866 -15.460599381193475 a48.112333790980045,48.112333790980045 0 0,0 0.4664044790201437,0.6843910216721704 l -22.534975459287743 15.074930336250898" fill="#b9ff1f" stroke="none" /><path d="M 117.65298651832404 88.62581576622439 l 5.443096116634047 -3.507099377687736 a27.47510937204109,27.47510937204109 0 0,0 0.25273490099059276,0.3997659189493626 l -5.5026586138705955 3.412885811024167" fill="#ff3605" stroke="none" /><line stroke="#e1ed5e" stroke-width="0.3" x1="172.23445277983987" x2="176.4835382374775" y1="55.19839476539836" y2="52.563006222186495" /><path d="M 173.08426987136738 54.67131705675599 a86.0,86.0 0 0,1 12.851231095245387,41.99856678651699" fill="none" id="id111" stroke="none" /><text fill="#e1ed5e" style="font-size:6.75px; font-family:Arial;" text-anchor="middle"><textPath startOffset="22.20632615414155" xlink:href="#id111">March</textPath></text><path d="M 118.21658344932153 89.55222093294921 l 9.921842810482158 -5.690486468569095 a32.43785823504053,32.43785823504053 0 0,0 0.27362470091317886,0.4867478110599387 l -10.018325152687769 5.518855147574362" fill="#ff7c0b" stroke="none" /><path d="M 119.34039704204932 91.81776055985345 l 24.8044352867766 -10.493881188310953 a47.93290835187085,47.93290835187085 0 0,0 0.3149381827156971,0.7626477901186335 l -24.981395156378493 10.065358827739017" fill="#bbff1f" stroke="none" /><path d="M 119.47837535516314 92.15188598940014 l 17.163913451835153 -6.915584445925807 a39.50473542666359,39.50473542666359 0 0,0 0.24870384922008676,0.6329241688395107 l -17.280410850936942 6.619111272190512" fill="#ffdb14" stroke="none" /><path d="M 119.61058180528143 92.48833698450437 l 14.403310394635406 -5.517062933999675 a36.42379115982596,36.42379115982596 0 0,0 0.2192285748560508,0.5874235870242172 l -14.496143557993081 5.268316209946125" fill="#ffb310" stroke="none" /><path d="M 119.85752413597 93.16781622104841 l 13.111869218980232 -4.511272381000452 a34.86624292702312,34.86624292702312 0 0,0 0.19037417952492153,0.5691945654965788 l -13.187580692276924 4.284904712581559" fill="#ff9e0e" stroke="none" /><path d="M 119.97218684219823 93.5106431181261 l 8.604931075162254 -2.7959115910468157 a30.047759967707087,30.047759967707087 0 0,0 0.15559662483511275,0.4932838213393297 l -8.651783183765572 2.647377603281067" fill="#ff5b08" stroke="none" /><path d="M 120.6074358757038 95.95851677861258 l 21.019655913118278 -4.12232687291103 a42.42007267851845,42.42007267851845 0 0,0 0.13435906790013386,0.7177515132528091 l -21.08750070492827 3.7598972821956576" fill="#feff18" stroke="none" /><path d="M 120.78858239683441 97.02765380044208 l 19.49693369663111 -2.787666598422732 a40.69521537416617,40.69521537416617 0 0,0 0.09318041782823643,0.6943023444900864 l -19.542030113517182 2.4516459118679816" fill="#ffea16" stroke="none" /><path d="M 120.87857604477298 97.74499172005257 l 23.706096043263774 -2.560396970950135 a44.84396406349617,44.84396406349617 0 0,0 0.07628358534052036,0.7681652939928834 l -23.746656754286523 2.1519561462528163" fill="#e0ff1b" stroke="none" /><path d="M 120.91429891909075 98.10471618934814 l 12.194700494000415 -1.1051012759949632 a33.244671043706305,33.244671043706305 0 0,0 0.04674124156269166,0.5703615382882505 l -12.2119162193826 0.8950258204989439" fill="#ff880c" stroke="none" /><path d="M 120.96714384426684 98.82574320788733 l 57.79929497055032 -3.2370271889488027 a78.88986823369594,78.88986823369594 0 0,0 0.0642629044006402,1.356488343769649 l -57.84645148318446 2.2416277385561543" fill="#46fffb" stroke="none" /><line stroke="#e1ed5e" stroke-width="0.3" x1="184.98032266829074" x2="189.97916517819016" y1="98.17113171792111" y2="98.06355123074" /><path d="M 185.9800911702706 98.14961562048488 a86.0,86.0 0 0,1 -9.607161424134198,41.387399972396054" fill="none" id="id112" stroke="none" /><text fill="#e1ed5e" style="font-size:6.75px; font-family:Arial;" text-anchor="middle"><textPath startOffset="21.466115282336823" xlink:href="#id112">April</textPath></text><path d="M 120.99513854157772 99.54816195383933 l 21.47318513821428 -0.4621261249828323 a42.4781572891023,42.4781572891023 0 0,0 0.009440250367657128,0.7311577944959594 l -21.477958395699652 0.09243207242641016" fill="#fdff18" stroke="none" /><path d="M 120.99980553446 99.90962569577887 l 19.074685210422 -0.08208939846134138 a40.07486184867486,40.07486184867486 0 0,0 -0.0029687891047988457,0.6898420343139392 l -19.0732721240277 -0.24626211405628248" fill="#ffe215" stroke="none" /><path d="M 120.9904718944345 100.63252640178507 l 3.4851479867085464 0.10502137002006778 a24.486729983440004,24.486729983440004 0 0,0 -0.016321999676983456,0.42119828648775604 l -3.48282385418036 -0.16499690352183002" fill="#ff0a01" stroke="none" /><path d="M 120.9764740272857 100.99374915477107 l 2.8378037017167563 0.13443942134025716 a23.840986414520074,23.840986414520074 0 0,0 -0.022948253994204273,0.4097564908315819 l -2.8350690968350225 -0.1832676285072624" fill="#ff0000" stroke="none" /><path d="M 120.95626037817324 101.35467743843564 l 40.085988792642105 2.591282205642736 a61.16965572360696,61.16965572360696 0 0,0 -0.07696727664454235,1.050157339028781 l -40.035444957333226 -3.2809126811682874" fill="#30ff34" stroke="none" /><path d="M 120.92983693683757 101.71520430193887 l 21.46616348154325 1.759156369004625 a42.53812447143322,42.53812447143322 0 0,0 -0.06608683259507286,0.7292626907596885 l -21.432702052671104 -2.128400448312884" fill="#fcff18" stroke="none" /><path d="M 120.89721153311464 102.0752229133903 l 18.993082786008287 1.8861311008401627 a40.08650529158549,40.08650529158549 0 0,0 -0.07409837506120256,0.6860589259324094 l -18.957802109446032 -2.2127863486573633" fill="#ffe315" stroke="none" /><path d="M 120.8583938346157 102.4346265915055 l 19.004431568619392 2.2182290170694716 a40.13345131487015,40.13345131487015 0 0,0 -0.08599736847067883,0.6854836402769109 l -18.963432690901865 -2.5450304116337774" fill="#ffe315" stroke="none" /><path d="M 120.70491114924044 103.5080841355445 l 18.64117998425322 3.15842107697175 a39.90685629354553,39.90685629354553 0 0,0 -0.12058247651829529,0.6762905653360434 l -18.584051065395734 -3.4788303930410116" fill="#ffe015" stroke="none" /><path d="M 120.64145759157962 103.86396538481128 l 20.223035590482073 3.7856391270210388 a41.5743100028637,41.5743100028637 0 0,0 -0.13772988254236881,0.7022817038160821 l -20.15487577496404 -4.133184557905066" fill="#fff517" stroke="none" /><path d="M 120.5718875245553 104.21870165774334 l 21.09873778335886 4.3267434724549965 a42.53781430710569,42.53781430710569 0 0,0 -0.15326974333849,0.7160252147525252 l -21.021134001295927 -4.689282506623691" fill="#fcff18" stroke="none" /><path d="M 120.49622156327973 104.57218783832717 l 16.258212360364166 3.6267953387162026 a37.65782439526938,37.65782439526938 0 0,0 -0.1465775835407591,0.6314523936018178 l -16.193374210892852 -3.906116389666585" fill="#ffc312" stroke="none" /><path d="M 120.41448212921028 104.9243191809786 l 17.62711369697113 4.251958660224088 a39.132685673506884,39.132685673506884 0 0,0 -0.16359081158960337,0.6534639731100585 l -17.551311571086465 -4.554750472731543" fill="#ffd614" stroke="none" /><path d="M 120.32669344350535 105.2749913415812 l 16.3420338024436 4.240930137078481 a37.883351480905375,37.883351480905375 0 0,0 -0.16923381319258646,0.629781975413409 l -16.266611912909237 -4.521603045667438" fill="#ffc612" stroke="none" /><path d="M 120.02730092923936 106.31721596034902 l 55.134696990409566 17.391149662524732 a78.81251507077522,78.81251507077522 0 0,0 -0.4192366023954481,1.2902775893737672 l -54.82716813699787 -18.337626151876297" fill="#46fffa" stroke="none" /><path d="M 119.79798401119884 107.00284435728193 l 13.507218060637346 4.777705938392817 a35.32729610817623,35.32729610817623 0 0,0 -0.20771733303067796,0.5715488894556954 l -13.42297646660144 -5.009502624854644" fill="#ffa40f" stroke="none" /><path d="M 119.67450827220406 107.3425965602758 l 15.785465990596007 5.891192129495401 a37.84894896564447,37.84894896564447 0 0,0 -0.23305169583958357,0.608424437663649 l -15.681720015162917 -6.162040133992194" fill="#ffc512" stroke="none" /><path d="M 119.54520255179757 107.68017299344265 l 14.247354443330584 5.5984145743022316 a36.307820040085765,36.307820040085765 0 0,0 -0.23357578902041157,0.5797159529376248 l -14.14887604005278 -5.842829895082669" fill="#ffb110" stroke="none" /><path d="M 119.26925614724726 108.34839909993367 l 27.79041870605282 12.040190069585774 a51.28652421076876,51.28652421076876 0 0,0 -0.3579284455349324,0.8070341543312659 l -27.579049175786615 -12.516772560409729" fill="#95ff23" stroke="none" /><path d="M 119.12269723197855 108.67885076344098 l 24.607717760831836 11.168231525309718 a48.02349290524229,48.02349290524229 0 0,0 -0.3481140289614357,0.7498066487050666 l -24.41182911503057 -11.590158241293615" fill="#baff1f" stroke="none" /><path d="M 118.97047184881838 109.00673069616215 l 24.294557191379102 11.534480309665602 a47.893674816567064,47.893674816567064 0 0,0 -0.35999336183566577,0.7416929518931129 l -24.09241057292872 -11.95096221752399" fill="#bcff1f" stroke="none" /><path d="M 118.81262510543309 109.33194174019688 l 17.467041780358702 8.66446949080048 a40.49796348631848,40.49796348631848 0 0,0 -0.31515386018482244,0.6218284647991174 l -17.31530925038761 -8.963852167302292" fill="#ffe815" stroke="none" /><path d="M 118.64920377521936 109.65438752849418 l 19.22107620321218 9.9504365235746 a42.643958912809296,42.643958912809296 0 0,0 -0.343075709413326,0.6489699507532222 l -19.04694798557396 -10.279821489413957" fill="#fbff18" stroke="none" /><line stroke="#e1ed5e" stroke-width="0.3" x1="174.80103733775053" x2="179.2010983576182" y1="140.37084112569926" y2="142.7455964860345" /><path d="M 175.68104954172406 140.8457921977663 a86.0,86.0 0 0,1 -30.038265399797805,32.042727171017184" fill="none" id="id113" stroke="none" /><text fill="#e1ed5e" style="font-size:6.75px; font-family:Arial;" text-anchor="middle"><textPath startOffset="22.206326154141568" xlink:href="#id113">May</textPath></text><path d="M 118.48025628344425 109.97397251340804 l 25.08008466251803 13.535963528925711 a49.49970096922912,49.49970096922912 0 0,0 -0.41113883686331115,0.7463364122547944 l -24.843369416203206 -13.96567045957831" fill="#a9ff21" stroke="none" /><path d="M 118.30583269289576 110.29060199501025 l 6.7460039526220745 3.7922580686614062 a28.73884943567971,28.73884943567971 0 0,0 -0.24612498589925283,0.42913965885214844 l -6.679726970570442 -3.90781757337187" fill="#ff4806" stroke="none" /><path d="M 118.12598468904814 110.60418214915192 l 14.869012603406242 8.698767031389098 a38.226609755452046,38.226609755452046 0 0,0 -0.33715710399668725,0.5650946995388361 l -14.717074623711328 -8.953423824814038" fill="#ffca12" stroke="none" /><path d="M 117.75023020441432 111.22182372390056 l 14.108560479386403 8.919533824315716 a37.69160155418335,37.69160155418335 0 0,0 -0.3514205845637672,0.545412551270634 l -13.952935031445586 -9.161067975507803" fill="#ffc312" stroke="none" /><path d="M 117.35343817320211 111.8261652097733 l 13.794367777711326 9.400700349715505 a37.693044942487326,37.693044942487326 0 0,0 -0.37000048051148415,0.5330132881166182 l -13.630506390037706 -9.636754900019143" fill="#ffc312" stroke="none" /><path d="M 117.14729908036423 112.12312394758627 l 22.064099938859883 15.599297422707997 a48.0215207972109,48.0215207972109 0 0,0 -0.48300550443934254,0.6708524008110134 l -21.792314642044936 -15.97678342897014" fill="#baff1f" stroke="none" /><path d="M 116.71984013943494 112.70617746262583 l 13.453238073295237 10.223735931725285 a37.897171096322936,37.897171096322936 0 0,0 -0.3991712330108139,0.5159826274901865 l -13.275260023066355 -10.453796553328726" fill="#ffc612" stroke="none" /><path d="M 116.498646956653 112.99209946851258 l 14.701338247517361 11.576782589130652 a39.712328593307554,39.712328593307554 0 0,0 -0.4275355316923189,0.5334163123793646 l -14.49988480377019 -11.828126735088267" fill="#ffde14" stroke="none" /><path d="M 116.27256486870786 113.27417163493432 l 18.576114935930175 15.153268090144929 a44.97276746486923,44.97276746486923 0 0,0 -0.49449485254741965,0.5956509050854024 l -18.312524083489212 -15.470780252344102" fill="#deff1b" stroke="none" /><path d="M 116.0416608686014 113.55231037782055 l 16.416576380064832 13.869046370335946 a42.49079866512716,42.49079866512716 0 0,0 -0.47682261808367477,0.5546524280489586 l -16.17541125241038 -14.149575897546432" fill="#fdff18" stroke="none" /><path d="M 115.80600337817218 113.82643327865902 l 20.318456459359027 17.77373924572407 a47.995286249007634,47.995286249007634 0 0,0 -0.5492972527877993,0.6171412865672886 l -20.00950035692289 -18.120854702032226" fill="#baff1f" stroke="none" /><path d="M 115.56566222782051 114.09645910891815 l 9.144620759421823 8.281483351948799 a33.337222351171825,33.337222351171825 0 0,0 -0.38886058868404005,0.42203136811752023 l -9.00071376274206 -8.437665974867652" fill="#ff890c" stroke="none" /><path d="M 115.32070863581623 114.36230785411682 l 7.795339288015768 7.307694790307557 a31.68502305863541,31.68502305863541 0 0,0 -0.3764383653588561,0.39469412109800883 l -7.668394371277947 -7.440796027988073" fill="#ff720a" stroke="none" /><path d="M 115.07121518719521 114.62390073753431 l 20.546818782256192 19.936988133452527 a49.62962203565221,49.62962203565221 0 0,0 -0.6001860852811549,0.6079853356580099 l -20.200592071919502 -20.287713963091203" fill="#a7ff21" stroke="none" /><path d="M 114.55890576462653 115.13401014063108 l 18.259428256894196 18.9807102861656 a47.33769320263297,47.33769320263297 0 0,0 -0.5920912231873108,0.5598592079943839 l -17.93000119931608 -19.292204130905905" fill="#c2ff1e" stroke="none" /><path d="M 114.29624159901734 115.38237550388516 l 18.343795969392023 19.737436291454276 a47.94552359717471,47.94552359717471 0 0,0 -0.6093658023396684,0.5566412125135652 l -18.001330617585488 -20.050270270554424" fill="#bbff1f" stroke="none" /><path d="M 114.0293411484842 115.62618273729858 l 12.461939754055056 13.880377260560792 a39.6538150341744,39.6538150341744 0 0,0 -0.5118318953066996,0.4516321379341244 l -12.221165505841768 -14.092832540267205" fill="#ffdd14" stroke="none" /><path d="M 113.20401910651253 116.32954008644616 l 15.570738205832399 19.256484836672985 a45.764088849371895,45.764088849371895 0 0,0 -0.6168182119729588,0.4900376923180912 l -15.236962501142088 -19.521656442996203" fill="#d5ff1c" stroke="none" /><path d="M 112.92097659922987 116.55440617244103 l 17.37952400873477 22.266714695654976 a49.2463172485881,49.2463172485881 0 0,0 -0.6727311260054886,0.5158215406941671 l -16.993664154235788 -22.562575578176514" fill="#acff21" stroke="none" /><path d="M 112.63410532772338 116.77436683061366 l 14.962450621096812 19.865722889968023 a45.87010001044949,45.87010001044949 0 0,0 -0.634787641497152,0.4696007215504027 l -14.618278009181095 -20.120333560258192" fill="#d4ff1c" stroke="none" /><path d="M 112.34349029814194 116.9893568818739 l 15.866186575801102 21.837932349755064 a47.99316887233898,47.99316887233898 0 0,0 -0.6725275261458535,0.4798305331917604 l -15.487931721806364 -22.107807144791046" fill="#baff1f" stroke="none" /><line stroke="#e1ed5e" stroke-width="0.3" x1="143.8653032363475" x2="146.44561519142675" y1="172.8068346515853" y2="177.08958963109032" /><path d="M 144.38136562736335 173.6633856474863 a86.0,86.0 0 0,1 -40.68145358897372,12.25698825130547" fill="none" id="id114" stroke="none" /><text fill="#e1ed5e" style="font-size:6.75px; font-family:Arial;" text-anchor="middle"><textPath startOffset="21.466115282336833" xlink:href="#id114">June</textPath></text><path d="M 110.8373102113329 117.98757091392108 l 4.717921207816367 7.830720043719357 a30.14215275119988,30.14215275119988 0 0,0 -0.446724112978269,0.26393248009669146 l -4.582429223809716 -7.910771096109798" fill="#ff5c08" stroke="none" /><path d="M 110.5260780823613 118.17145234162733 l 7.605231930384145 13.129116893173968 a36.17278033550742,36.17278033550742 0 0,0 -0.5414741953502552,0.3074631797283044 l -7.378108968112691 -13.258083238696901" fill="#ffaf10" stroke="none" /><path d="M 110.21172684928248 118.3499491758327 l 13.148296370089668 23.626813926861292 a48.03893551473948,48.03893551473948 0 0,0 -0.7260220130710154,0.3958850890635823 l -12.739651545150004 -23.849639667684645" fill="#baff1f" stroke="none" /><path d="M 109.89434966115114 118.52300852407294 l 12.726968489497235 23.825895980023198 a48.01201669967537,48.01201669967537 0 0,0 -0.7323183684264685,0.38311435885716966 l -12.31495921854427 -24.041439757825085" fill="#baff1f" stroke="none" /><path d="M 109.57404056367764 118.69057910512821 l 12.355173948559305 24.119947529704486 a48.10022494620397,48.10022494620397 0 0,0 -0.7401618919498103,0.3711325381324609 l -11.938158148926734 -24.32904790874625" fill="#b9ff1f" stroke="none" /><path d="M 109.2508944713604 118.85261126421891 l 8.471568472139628 17.264404831111957 a40.2308904253202,40.2308904253202 0 0,0 -0.6243208354610753,0.29971194093600667 l -8.173134968678319 -17.407671048547524" fill="#ffe415" stroke="none" /><path d="M 108.92500713936063 119.00905698771935 l 7.8826942373691296 16.789071609151804 a39.547501015961146,39.547501015961146 0 0,0 -0.6186961795792253,0.2840130709134891 l -7.592530062022485 -16.922271750399368" fill="#ffdc14" stroke="none" /><path d="M 108.59647513512805 119.15986991738527 l 7.668747889870413 17.092146454158424 a39.733690629686194,39.733690629686194 0 0,0 -0.6264287374778112,0.2746079494666405 l -7.373398477734847 -17.221618956919517" fill="#ffde14" stroke="none" /><path d="M 108.2653958097858 119.30500536409082 l 4.732502484782946 11.053431433512381 a33.02393139633774,33.02393139633774 0 0,0 -0.5244963638226903,0.21923952261579915 l -4.541534661462795 -11.133255999148155" fill="#ff850c" stroke="none" /><path d="M 107.59598834532513 119.57807347666477 l 11.26647518295521 29.03846990374445 a52.14749102895477,52.14749102895477 0 0,0 -0.8396485537869536,0.3174832371714588 l -10.764956408407983 -29.228101391022538" fill="#8bff24" stroke="none" /><path d="M 107.2578585660854 119.70592522655815 l 8.894124973896014 24.14857772377207 a46.7343984800955,46.7343984800955 0 0,0 -0.7572762689767596,0.27153232745594297 l -8.47712914428952 -24.298097592267975" fill="#c9ff1d" stroke="none" /><path d="M 106.91757812671514 119.82793768551818 l 8.903109627007689 25.51909059182136 a48.02756640291727,48.02756640291727 0 0,0 -0.7829185539564636,0.26560848136127946 l -8.462521340114 -25.668562060080763" fill="#baff1f" stroke="none" /><path d="M 106.2309692047433 120.05430185196036 l 5.644953579794836 18.168217384758126 a40.024973688756205,40.024973688756205 0 0,0 -0.6596973829071061,0.19876140988976124 l -5.331381222447485 -18.26269416375361" fill="#ffe215" stroke="none" /><path d="M 105.88484417918355 120.15858648285463 l 7.5780048611130075 25.958523574949297 a48.042024773789606,48.042024773789606 0 0,0 -0.7958249066641802,0.22490806790342943 l -7.130048786344222 -26.085120436191243" fill="#baff1f" stroke="none" /><path d="M 105.53697534728816 120.25689768951611 l 8.233473966591538 30.121976225201227 a52.22696823692829,52.22696823692829 0 0,0 -0.8692297400850856,0.22957147466263947 l -7.713753783694955 -30.25923904916745" fill="#8aff24" stroke="none" /><path d="M 105.18746579009965 120.34920634021253 l 5.308843210153604 20.825341367538275 a42.491362434813084,42.491362434813084 0 0,0 -0.7103072956917544,0.17457625159038903 l -4.9495826297186385 -20.913638877442693" fill="#fdff18" stroke="none" /><path d="M 104.83641907484287 120.43548508189849 l 4.415285725515996 18.656056098495355 a40.17141562817287,40.17141562817287 0 0,0 -0.6742673609188391,0.15346105611907068 l -4.093498215204295 -18.72929388819211" fill="#ffe415" stroke="none" /><path d="M 104.48393922423573 120.51570834832081 l 3.600513877285561 16.47370513213473 a37.862581681375126,37.862581681375126 0 0,0 -0.6379097471999112,0.13368018980603744 l -3.3164126686562714 -16.533241302667307" fill="#ffc612" stroke="none" /><path d="M 104.13013068566511 120.58985236759428 l 3.6628125751048026 18.2601413638878 a39.62388140505389,39.62388140505389 0 0,0 -0.66989338738877,0.12838666205275734 l -3.347951573144328 -18.320485224289026" fill="#ffdd14" stroke="none" /><path d="M 103.7750983002368 120.6578951692458 l 2.481486521031685 13.579060553775081 a34.80393642687304,34.80393642687304 0 0,0 -0.5902598931072485,0.10262424841031008 l -2.247377656452387 -13.619763380706397" fill="#ff9d0e" stroke="none" /><path d="M 103.41894727170886 120.7198165907248 l 3.9080481913127945 23.683910665063397 a45.00417599202953,45.00417599202953 0 0,0 -0.7654227453430255,0.11954329110876917 l -3.499789582361252 -23.747672263519274" fill="#deff1b" stroke="none" /><path d="M 103.06178313531738 120.77559828337769 l 2.7627516998559356 18.746533289979748 a39.9490186381083,39.9490186381083 0 0,0 -0.681171494497667,0.09440416228858298 l -2.439651614171438 -18.791312017760934" fill="#ffe115" stroke="none" /><path d="M 102.34483914955558 120.86867818915974 l 3.4679589061806593 30.86425710694528 a52.05847880593285,52.05847880593285 0 0,0 -0.8913586689957878,0.0923929705871254 l -2.936167640579269 -30.919379445988163" fill="#8cff24" stroke="none" /><path d="M 101.98527174616119 120.90594882070398 l 0.6885214454890316 7.2504905835606985 a28.28310891606055,28.28310891606055 0 0,0 -0.4850629708597177,0.04185327416431348 l -0.5636141568877722 -7.261268110003676" fill="#ff4206" stroke="none" /><path d="M 101.62511606390274 120.93702456842531 l 3.9439879240684554 50.81198438558808 a71.96481921822587,71.96481921822587 0 0,0 -1.2358663678049693,0.08523258050207307 l -3.068758795484556 -50.87234531060644" fill="#3effb2" stroke="none" /><path d="M 100.90346689309514 120.98055641714683 l 1.0306434119541086 23.93388447957965 a44.95606503840871,44.95606503840871 0 0,0 -0.7734148270079885,0.026637970440121783 l -0.6185082332714679 -23.948079248445868" fill="#dfff1b" stroke="none" /><line stroke="#e1ed5e" stroke-width="0.3" x1="102.19456741930631" x2="102.32365962044197" y1="184.97166512339345" y2="189.96999836594603" /><path d="M 102.22038585953345 185.97133177190398 a86.0,86.0 0 0,1 -42.740103519485714,-10.115201625700543" fill="none" id="id115" stroke="none" /><text fill="#e1ed5e" style="font-size:6.75px; font-family:Arial;" text-anchor="middle"><textPath startOffset="22.20632615414155" xlink:href="#id115">July</textPath></text><path d="M 100.54218724476979 120.99299961872073 l 0.64349609253993 24.915586553635606 a45.9238949711481,45.9238949711481 0 0,0 -0.7904165161765865,0.013607737137497833 l -0.21451988647067557 -24.922971768052264" fill="#d3ff1c" stroke="none" /><path d="M 100.18074693466247 120.99922214144158 l 0.200172982859249 23.25614507170572 a44.257006531780675,44.257006531780675 0 0,0 -0.7618398350433929,0.0 l 0.20017298285923296 -23.25614507170572" fill="#e7ff1a" stroke="none" /><path d="M 99.81925306533755 120.99922214144158 l -0.20662965941522518 24.006283299764352 a45.00717254665145,45.00717254665145 0 0,0 -0.774638400110281,-0.013336102560586677 l 0.6198277494181741 -23.999169719924605" fill="#deff1b" stroke="none" /><path d="M 99.09653310690486 120.98055641714683 l -0.7959908653929347 18.48471857302624 a39.50184915574036,39.50184915574036 0 0,0 -0.6790780411882295,-0.03510057802364129 l 1.1140569749946532 -18.468278188240397" fill="#ffdb14" stroke="none" /><path d="M 96.58105272829116 120.7198165907248 l -2.9799719438410928 18.059498206602118 a39.30370750040399,39.30370750040399 0 0,0 -0.6665740881538373,-0.11589244941998124 l 3.29039500346698 -18.005527178661133" fill="#ffd814" stroke="none" /><path d="M 96.22490169976321 120.6578951692458 l -1.9575618161970307 10.712067228495776 a31.88946429224348,31.88946429224348 0 0,0 -0.5391329798907598,-0.10332611874336815 l 2.1416624106594857 -10.676783911403941" fill="#ff750a" stroke="none" /><path d="M 95.86986931433489 120.58985236759428 l -3.2928544029797413 16.415796783538703 a37.7427976801269,37.7427976801269 0 0,0 -0.6358916232748585,-0.13325727231569454 l 3.5749374876839863 -16.356683530496465" fill="#ffc412" stroke="none" /><path d="M 95.51606077576429 120.51570834832081 l -4.6077364029712635 21.08212700082081 a42.57978947158671,42.57978947158671 0 0,0 -0.7146913253251544,-0.16266141880881474 l 4.96994787768928 -20.99968884843431" fill="#fcff18" stroke="none" /><path d="M 95.16358092515715 120.4354850818985 l -4.427108797579399 18.70601252473454 a40.22275206314461,40.22275206314461 0 0,0 -0.6723840471597698,-0.16525563976927965 l 4.748446129482379 -18.62703562665123" fill="#ffe415" stroke="none" /><path d="M 94.11515582081647 120.15858648285463 l -5.755997762794891 19.71722192863856 a41.5402130180893,41.5402130180893 0 0,0 -0.6846717758401805,-0.20628598961242742 l 6.094544513075318 -19.615220569920403" fill="#fff517" stroke="none" /><path d="M 93.76903079525671 120.05430185196036 l -4.594840800937344 14.78844163016484 a36.48581828108386,36.48581828108386 0 0,0 -0.5981565924318061,-0.19151085173405294 l 4.84871873846009 -14.70715793177108" fill="#ffb310" stroke="none" /><path d="M 93.08242187328487 119.8279376855182 l -4.405064053048563 12.626288268035633 a34.37264912943561,34.37264912943561 0 0,0 -0.5569685784802187,-0.19970911625015203 l 4.6217521921585085 -12.548591610745524" fill="#ff970d" stroke="none" /><path d="M 92.7421414339146 119.70592522655815 l -5.482860932147563 14.886601409042322 a36.86419444891454,36.86419444891454 0 0,0 -0.5935658062314988,-0.2244357985096696 l 5.738296959139345 -14.790017360426019" fill="#ffb811" stroke="none" /><path d="M 92.40401165467489 119.57807347666478 l -6.086484509622186 15.687443888365383 a37.82679973840787,37.82679973840787 0 0,0 -0.605010704424598,-0.2407462452884756 l 6.3556162900886415 -15.58035079867084" fill="#ffc512" stroke="none" /><path d="M 92.06813273071674 119.44442032107085 l -3.996992811464691 9.798349569891508 a31.582230664122452,31.582230664122452 0 0,0 -0.5015988237723454,-0.20966834901771025 l 4.165063094734498 -9.728096177853825" fill="#ff700a" stroke="none" /><path d="M 91.7346041902142 119.30500536409082 l -14.63264297841739 34.17661509382627 a58.17734874631839,58.17734874631839 0 0,0 -0.917205589196775,-0.40207597611625523 l 15.21876924227191 -33.91967456441556" fill="#4aff2c" stroke="none" /><path d="M 91.40352486487194 119.15986991738527 l -6.777085408362611 15.104804329932291 a37.5554824900328,37.5554824900328 0 0,0 -0.5875322824939077,-0.2697072542542485 l 7.036085686623938 -14.985910005343968" fill="#ffc212" stroke="none" /><path d="M 90.7491055286396 118.85261126421891 l -9.527092814342424 19.415482239364298 a42.62698425763901,42.62698425763901 0 0,0 -0.6559401614345014,-0.32890201403763997 l 9.859886883459687 -19.248612384417356" fill="#fbff18" stroke="none" /><path d="M 90.42595943632237 118.69057910512821 l -5.432135206706387 10.604692148045128 a32.91501525214085,32.91501525214085 0 0,0 -0.5020466108923746,-0.2626470586307024 l 5.613872720125257 -10.509615670469708" fill="#ff830c" stroke="none" /><path d="M 90.10565033884886 118.52300852407294 l -10.16948552222946 19.038084711449052 a42.58395481062599,42.58395481062599 0 0,0 -0.6435798017766359,-0.35093102214373895 l 10.495688135874737 -18.86021303754555" fill="#fcff18" stroke="none" /><line stroke="#e1ed5e" stroke-width="0.3" x1="58.666819895761336" x2="56.23545636021788" y1="174.27360380694188" y2="178.64263932499728" /><path d="M 58.180547188652646 175.14741091055294 a86.0,86.0 0 0,1 -31.652253787137756,-30.449443065178592" fill="none" id="id116" stroke="none" /><text fill="#e1ed5e" style="font-size:6.75px; font-family:Arial;" text-anchor="middle"><textPath startOffset="22.20632615414155" xlink:href="#id116">August</textPath></text><path d="M 89.4739219176387 118.17145234162733 l -13.6364418683758 23.54095719048432 a48.20531588263235,48.20531588263235 0 0,0 -0.7144306233286196,-0.42209820512043944 l 14.0396403627328 -23.302740413070133" fill="#b8ff1f" stroke="none" /><path d="M 89.1626897886671 117.98757091392108 l -12.565365166000229 20.85576518298668 a45.3485388293181,45.3485388293181 0 0,0 -0.6651568196241584,-0.40859364566610024 l 12.922501185556696 -20.6363830704922" fill="#daff1c" stroke="none" /><path d="M 88.8546689885994 117.79835938074946 l -14.319605831431405 22.867467149947274 a47.9809593050633,47.9809593050633 0 0,0 -0.696222450261847,-0.44436210838224016 l 14.711110083740175 -22.61759061274123" fill="#bbff1f" stroke="none" /><path d="M 88.54995079064634 117.60387380957326 l -11.76925315094063 18.094633788370974 a42.585437027454006,42.585437027454006 0 0,0 -0.6110509353137126,-0.40497124033683846 l 12.078978784994304 -17.889364526942817" fill="#fcff18" stroke="none" /><path d="M 88.24862548938628 117.40417183066458 l -5.986401275529535 8.866057017630053 a31.697848721660293,31.697848721660293 0 0,0 -0.4495707625719827,-0.3092188699020841 l 6.138128922724408 -8.76169735836287" fill="#ff720a" stroke="none" /><path d="M 87.95078237400918 117.19931262002967 l -10.98423515123905 15.679133709940292 a40.14389343242125,40.14389343242125 0 0,0 -0.5625357519480058,-0.4013543227643334 l 11.252498231035942 -15.487735125331739" fill="#ffe315" stroke="none" /><path d="M 87.65650970185807 116.9893568818739 l -15.87743991500874 21.8534212423854 a48.01231419652626,48.01231419652626 0 0,0 -0.6644333385950792,-0.4915318995349337 l 16.251258224022383 -21.5768793941107" fill="#baff1f" stroke="none" /><path d="M 87.36589467227662 116.77436683061367 l -11.973221098222991 15.896907429204317 a40.90149967413571,40.90149967413571 0 0,0 -0.558736438954407,-0.4284152756462206 l 12.245086265670885 -15.68845281173073" fill="#ffed16" stroke="none" /><path d="M 87.07902340077011 116.55440617244103 l -10.46562176534934 13.408595876650573 a38.00939982241245,38.00939982241245 0 0,0 -0.5122988488592392,-0.40700118900380805 l 10.694878106925938 -13.226460773641634" fill="#ffc812" stroke="none" /><path d="M 86.79598089348748 116.32954008644616 l -9.02916181398801 11.166453077593955 a35.36020325055627,35.36020325055627 0 0,0 -0.47000423752197373,-0.3867814897549981 l 9.220036180054674 -11.009376468981777" fill="#ffa40f" stroke="none" /><path d="M 86.51685102203217 116.09983520530335 l -17.34799010487406 20.714729347580136 a48.0194887557538,48.0194887557538 0 0,0 -0.6291342454203672,-0.5361618527232141 l 17.701989826871483 -20.41304310463397" fill="#baff1f" stroke="none" /><path d="M 86.24171649860922 115.8653595955263 l -17.7074406755763 20.419328748827446 a48.027808676097756,48.027808676097756 0 0,0 -0.61991927689503,-0.5470066850814604 l 18.05630230537792 -20.1114989219737" fill="#baff1f" stroke="none" /><path d="M 85.97065885151581 115.62618273729859 l -18.049992795357632 20.104471253638007 a48.01836420475561,48.01836420475561 0 0,0 -0.6102915733387587,-0.5574868823714122 l 18.393383918163245 -19.79079160468002" fill="#baff1f" stroke="none" /><path d="M 85.44109423537348 115.13401014063109 l -43.67671729387956 45.40203042189327 a84.0,84.0 0 0,0 -1.033400190496823,-1.0113995883097213 l 44.45176743675218 -44.64348073066098" fill="#4dd2ff" stroke="none" /><path d="M 84.9287848128048 114.62390073753433 l -16.13289011486477 15.65406509819981 a43.4793215546417,43.4793215546417 0 0,0 -0.5165621846843231,-0.5416133854531131 l 16.399958850928055 -15.374044596164197" fill="#f1ff19" stroke="none" /><path d="M 84.67929136418377 114.36230785411682 l -19.729343888474816 18.49515694225701 a48.042888909811694,48.042888909811694 0 0,0 -0.5603942004152633,-0.6081972253519933 l 20.044784496885807 -18.152808462103675" fill="#baff1f" stroke="none" /><path d="M 84.43433777217949 114.09645910891817 l -21.590765801003847 19.552868537781123 a50.12860854777564,50.12860854777564 0 0,0 -0.5737127354238352,-0.6445723401356348 l 21.924137386076023 -19.178322027904624" fill="#a2ff22" stroke="none" /><path d="M 83.28015986056508 112.70617746262583 l -8.516690315639206 6.472225669760256 a31.696902311080823,31.696902311080823 0 0,0 -0.32638561930655946,-0.4372468742367507 l 8.626837201640852 -6.324665916014197" fill="#ff720a" stroke="none" /><path d="M 83.06392112726016 112.41649034213515 l -8.623678823715359 6.322350387768057 a31.692986060044575,31.692986060044575 0 0,0 -0.3187713855161711,-0.4427455739486959 l 8.731230001607138 -6.1729712083682236" fill="#ff720a" stroke="none" /><path d="M 82.85270091963577 112.12312394758628 l -8.74762406277153 6.184561793834121 a31.713063582623423,31.713063582623423 0 0,0 -0.3113001027634077,-0.44845101588946995 l 8.852785072697072 -6.033069515757638" fill="#ff720a" stroke="none" /><path d="M 82.6465618267979 111.8261652097733 l -17.775150269286907 12.113557072381841 a42.510328496831065,42.510328496831065 0 0,0 -0.4068782864682275,-0.6082278322991471 l 17.981031661165865 -11.805792325876872" fill="#fdff18" stroke="none" /><path d="M 82.44556493220864 111.52570212397912 l -18.02507174872867 11.83470769278003 a42.56301272365166,42.56301272365166 0 0,0 -0.3968395662529486,-0.6159038194755384 l 18.226116178358666 -11.522682273383044" fill="#fcff18" stroke="none" /><path d="M 82.24976979558568 111.22182372390057 l -15.82844135477023 10.00685493437465 a39.7263638061162,39.7263638061162 0 0,0 -0.3604417639276297,-0.5811468906074801 l 15.998347758365815 -9.732911712401904" fill="#ffde14" stroke="none" /><path d="M 82.05923443525364 110.91462005526583 l -15.957482684074538 9.70805063510786 a39.678530476093584,39.678530476093584 0 0,0 -0.34996298420776534,-0.586558091365458 l 16.122226543980535 -9.43193044985629" fill="#ffdd14" stroke="none" /><line stroke="#e1ed5e" stroke-width="0.3" x1="26.63291911575756" x2="22.317208475507996" y1="142.92168965132927" y2="145.44649492493687" /><path d="M 25.769776987707644 143.4266507060508 a86.0,86.0 0 0,1 -11.730757126820373,-40.83630448921669" fill="none" id="id117" stroke="none" /><text fill="#e1ed5e" style="font-size:6.75px; font-family:Arial;" text-anchor="middle"><textPath startOffset="21.46611528233685" xlink:href="#id117">September</textPath></text><path d="M 81.87401531095188 110.60418214915194 l -19.330028300341777 11.308579619894315 a43.39495405468614,43.39495405468614 0 0,0 -0.3716426601806955,-0.6479903038781032 l 19.52182295667485 -10.974169470157905" fill="#f2ff19" stroke="none" /><path d="M 81.69416730710424 110.29060199501025 l -9.323466765242644 5.241175711829394 a31.69565123612651,31.69565123612651 0 0,0 -0.2632604425417935,-0.47789417237800724 l 9.412303617235954 -5.079911021053564" fill="#ff720a" stroke="none" /><path d="M 81.51974371655577 109.97397251340807 l -9.36785636632341 5.0559224111501715 a31.645143696899382,31.645143696899382 0 0,0 -0.25458893592639076,-0.4815863224271885 l 9.453497810474689 -4.893921073636856" fill="#ff710a" stroke="none" /><path d="M 81.35079622478065 109.6543875284942 l -19.069184154588417 9.871804496299582 a42.47292034947195,42.47292034947195 0 0,0 -0.3305229115034594,-0.652153061113074 l 19.23628573587814 -9.542097223483823" fill="#fdff18" stroke="none" /><path d="M 81.18737489456691 109.33194174019688 l -21.560404026083766 10.694968572377137 a45.067267699764,45.067267699764 0 0,0 -0.3387486399847816,-0.6979225324015358 l 21.741305922683267 -10.322257084010316" fill="#ddff1b" stroke="none" /><path d="M 81.02952815118164 109.00673069616217 l -41.361939012446335 19.63766893754898 a66.78698548900229,66.78698548900229 0 0,0 -0.4841273550560147,-1.042767252799239 l 41.693840984342174 -18.922781617470914" fill="#37ff77" stroke="none" /><path d="M 80.87730276802145 108.67885076344099 l -11.16672965144213 5.068028792428379 a33.26298360715205,33.26298360715205 0 0,0 -0.23214222838406778,-0.5234194412475992 l 11.252312964557479 -4.875061014688084" fill="#ff880c" stroke="none" /><line stroke="#e1ed5e" stroke-width="0.3" x1="15.007084014347285" x2="10.007500721073583" y1="101.09737516637583" y2="101.16192664675087" /><path d="M 14.007167355692545 101.11028546245083 a86.0,86.0 0 0,1 10.666146001902534,-42.60595125391555" fill="none" id="id118" stroke="none" /><text fill="#e1ed5e" style="font-size:6.75px; font-family:Arial;" text-anchor="middle"><textPath startOffset="22.20632615414155" xlink:href="#id118">October</textPath></text><line stroke="#e1ed5e" stroke-width="0.3" x1="26.266209847984243" x2="21.928928074336255" y1="57.711370442889674" y2="55.22380399835377" /><path d="M 25.398753493254645 57.213857153982495 a86.0,86.0 0 0,1 29.58750427330803,-30.492523968695096" fill="none" id="id119" stroke="none" /><text fill="#e1ed5e" style="font-size:6.75px; font-family:Arial;" text-anchor="middle"><textPath startOffset="21.46611528233685" xlink:href="#id119">November</textPath></text><line stroke="#e1ed5e" stroke-width="0.3" x1="56.762969772571076" x2="54.21961505331055" y1="26.818313649435495" y2="22.513508569990535" /><path d="M 56.25429882871897 25.957352633546506 a86.0,86.0 0 0,1 42.265352541879196,-11.944610805530505" fill="none" id="id120" stroke="none" /><text fill="#e1ed5e" style="font-size:6.75px; font-family:Arial;" text-anchor="middle"><textPath startOffset="22.20632615414155" xlink:href="#id120">December</textPath></text></svg>