<?xml version="1.0" encoding="utf-8" ?>
<svg baseProfile="full" height="200mm" version="1.1" viewBox="0,0,200,200" width="200mm" xmlns="http://www.w3.org/2000/svg" xmlns:ev="http://www.w3.org/2001/xml-events" xmlns:xlink="http://www.w3.org/1999/xlink"><defs /><rect fill="#1a1a1a" height="200" width="200" x="0" y="0" /><text alignment-baseline="middle" fill="#e1ed5e" style="dominant-baseline: central; font-size:9.0px; font-family:Arial;" text-anchor="middle" x="100.0" y="100.0">2025</text><line stroke="#e1ed5e" stroke-width="0.3" x1="100.0" x2="100.0" y1="15.0" y2="10.0" /><path d="M 100.0 14.0 a86.0,86.0 0 0,1 42.46469731375804,11.215312516191453" fill="none" id="id109" stroke="none" /><text fill="#e1ed5e" style="font-size:6.75px; font-family:Arial;" text-anchor="middle"><textPath startOffset="22.20632615414155" xlink:href="#id109">January</textPath></text><path d="M 100.36148047927253 79.00311137660856 l 0.4702850660425183 -27.3168918355185 a48.32093972755622,48.32093972755622 0 0,0 0.8315190752329991,0.021475684493037803 l -0.9404307764703852 27.304749358883104" fill="#ffc212" stroke="none" /><path d="M 100.72285384407766 79.0124445844662 l 0.9909416778369494 -28.771298025954227 a49.78835798560161,49.78835798560161 0 0,0 0.856262948894374,0.036872483776350835 l -1.486045459120655 28.74997781565368" fill="#ffdb14" stroke="none" /><path d="M 101.08401301168833 79.027996857942 l 1.463892463895307 -28.32139192188438 a49.35919994532334,49.35919994532334 0 0,0 0.8481272656755435,0.05116135280064584 l -1.9511817784104626 28.291997299703432" fill="#ffd413" stroke="none" /><path d="M 101.44485096284872 79.0497635885617 l 1.955028944705321 -28.34778093792207 a49.41511608772791,49.41511608772791 0 0,0 0.8480806015150449,0.06582737697527509 l -2.4426997355827074 28.30992829875833" fill="#ffd513" stroke="none" /><path d="M 101.80526077348638 79.07773832637324 l 1.5567420146588788 -18.04202709513301 a39.10906368097804,39.10906368097804 0 0,0 0.6702080629434056,0.06364433122945926 l -1.8670752046925285 18.012557219388373" fill="#ff1b02" stroke="none" /><path d="M 102.16513564639614 79.11191278185805 l 3.5648654160516924 -34.39194207317664 a55.57620489584273,55.57620489584273 0 0,0 0.9507058710072633,0.10682288192110563 l -4.156337990568681 34.32548323778493" fill="#c6ff1e" stroke="none" /><path d="M 102.52436894288641 79.15227682838746 l 5.659652300385062 -46.74073682395059 a68.08214250654981,68.08214250654981 0 0,0 1.162211682868001,0.15088843213490635 l -6.463378711760909 46.63639006865155" fill="#33ff4e" stroke="none" /><path d="M 102.88285421437855 79.19881850522331 l 5.995442238441104 -43.26000306267552 a64.67348386168865,64.67348386168865 0 0,0 1.1013925701279328,0.16231663466845478 l -6.739203788997692 43.150391943846095" fill="#43ff2d" stroke="none" /><path d="M 103.95276090670814 79.375362276772 l 5.354013747309214 -27.936067095795305 a49.44449521413859,49.44449521413859 0 0,0 0.8345138081348894,0.16739561921355522 l -5.8340939649112284 27.839767520504545" fill="#ffd513" stroke="none" /><path d="M 104.307194497241 79.44645832069477 l 3.477624348311606 -16.594908131911513 a37.95537811476207,37.95537811476207 0 0,0 0.6382960923205798,0.13950680310128744 l -3.7627631647857136 16.532587830714355" fill="#ff0400" stroke="none" /><path d="M 104.66035177308747 79.52364482259891 l 9.620489034046464 -42.269888633518434 a64.35086267128094,64.35086267128094 0 0,0 1.0779575814897229,0.25511773212598665 l -10.34667030249871 42.09802498925158" fill="#47ff2c" stroke="none" /><path d="M 108.43124777332544 80.76684994638697 l 11.78820999519227 -26.89096771872116 a50.36130173783265,50.36130173783265 0 0,0 0.7909551357346297,0.3548785136153198 l -12.249347249393681 26.684068874589308" fill="#ffe515" stroke="none" /><path d="M 108.76106565485865 80.91482961587045 l 16.12442150824896 -35.12555937299613 a59.649733378660684,59.649733378660684 0 0,0 0.9294615453174964,0.4363946582452253 l -16.726661264866056 34.8427997321109" fill="#89ff24" stroke="none" /><path d="M 109.08828744355905 81.06846463323043 l 12.342580978860292 -25.710455327214653 a49.51958657400952,49.51958657400952 0 0,0 0.7652632709062163,0.3755113635317843 l -12.783315516776941 25.494188803548038" fill="#ffd714" stroke="none" /><path d="M 109.41281617654863 81.2277094730956 l 28.23844852964587 -56.31687158071319 a84.0,84.0 0 0,0 1.2869580496449777,0.6592298987499978 l -29.203667066879603 55.82244915665069" fill="#4dd2ff" stroke="none" /><path d="M 109.73455568895987 81.39251694778311 l 8.96141614145051 -17.129636349506608 a40.33213440690365,40.33213440690365 0 0,0 0.6123857542727221,0.32711526167077376 l -9.254946942251543 16.97284236133408" fill="#ff3204" stroke="none" /><path d="M 110.05341064243156 81.56283822128135 l 19.361155254782595 -35.506830900620464 a61.44242046916891,61.44242046916891 0 0,0 0.9241990731103699,0.5143157835768153 l -19.969478416965 35.16829971948347" fill="#6fff27" stroke="none" /><path d="M 110.36928655335952 81.73862282372117 l 8.264605129397646 -14.554817315955255 a37.7375746464563,37.7375746464563 0 0,0 0.5621160313450054,0.3256138874343121 l -8.51391789320798 14.410399271130894" fill="#ff0000" stroke="none" /><line stroke="#e1ed5e" stroke-width="0.3" x1="143.23703022742887" x2="145.7803849466894" y1="26.81831364943548" y2="22.513508569990506" /><path d="M 143.74570117128098 25.957352633546492 a86.0,86.0 0 0,1 28.547481713284135,27.462654790039103" fill="none" id="id110" stroke="none" /><text fill="#e1ed5e" style="font-size:6.75px; font-family:Arial;" text-anchor="middle"><textPath startOffset="19.985693538727396" xlink:href="#id110">February</textPath></text><line stroke="#e1ed5e" stroke-width="0.3" x1="172.23445277983987" x2="176.4835382374775" y1="55.19839476539836" y2="52.563006222186495" /><path d="M 173.08426987136738 54.67131705675599 a86.0,86.0 0 0,1 12.851231095245387,41.99856678651699" fill="none" id="id111" stroke="none" /><text fill="#e1ed5e" style="font-size:6.75px; font-family:Arial;" text-anchor="middle"><textPath startOffset="22.20632615414155" xlink:href="#id111">March</textPath></text><line stroke="#e1ed5e" stroke-width="0.3" x1="184.98032266829074" x2="189.97916517819016" y1="98.17113171792111" y2="98.06355123074" /><path d="M 185.9800911702706 98.14961562048488 a86.0,86.0 0 0,1 -9.607161424134198,41.387399972396054" fill="none" id="id112" stroke="none" /><text fill="#e1ed5e" style="font-size:6.75px; font-family:Arial;" text-anchor="middle"><textPath startOffset="21.466115282336823" xlink:href="#id112">April</textPath></text><line stroke="#e1ed5e" stroke-width="0.3" x1="174.80103733775053" x2="179.2010983576182" y1="140.37084112569926" y2="142.7455964860345" /><path d="M 175.68104954172406 140.8457921977663 a86.0,86.0 0 0,1 -30.038265399797805,32.042727171017184" fill="none" id="id113" stroke="none" /><text fill="#e1ed5e" style="font-size:6.75px; font-family:Arial;" text-anchor="middle"><textPath startOffset="22.206326154141568" xlink:href="#id113">May</textPath></text><line stroke="#e1ed5e" stroke-width="0.3" x1="143.8653032363475" x2="146.44561519142675" y1="172.8068346515853" y2="177.08958963109032" /><path d="M 144.38136562736335 173.6633856474863 a86.0,86.0 0 0,1 -40.68145358897372,12.25698825130547" fill="none" id="id114" stroke="none" /><text fill="#e1ed5e" style="font-size:6.75px; font-family:Arial;" text-anchor="middle"><textPath startOffset="21.466115282336833" xlink:href="#id114">June</textPath></text><line stroke="#e1ed5e" stroke-width="0.3" x1="102.19456741930631" x2="102.32365962044197" y1="184.97166512339345" y2="189.96999836594603" /><path d="M 102.22038585953345 185.97133177190398 a86.0,86.0 0 0,1 -42.740103519485714,-10.115201625700543" fill="none" id="id115" stroke="none" /><text fill="#e1ed5e" style="font-size:6.75px; font-family:Arial;" text-anchor="middle"><textPath startOffset="22.20632615414155" xlink:href="#id115">July</textPath></text><line stroke="#e1ed5e" stroke-width="0.3" x1="58.666819895761336" x2="56.23545636021788" y1="174.27360380694188" y2="178.64263932499728" /><path d="M 58.180547188652646 175.14741091055294 a86.0,86.0 0 0,1 -31.652253787137756,-30.449443065178592" fill="none" id="id116" stroke="none" /><text fill="#e1ed5e" style="font-size:6.75px; font-family:Arial;" text-anchor="middle"><textPath startOffset="22.20632615414155" xlink:href="#id116">August</textPath></text><line stroke="#e1ed5e" stroke-width="0.3" x1="26.63291911575756" x2="22.317208475507996" y1="142.92168965132927" y2="145.44649492493687" /><path d="M 25.769776987707644 143.4266507060508 a86.0,86.0 0 0,1 -11.730757126820373,-40.83630448921669" fill="none" id="id117" stroke="none" /><text fill="#e1ed5e" style="font-size:6.75px; font-family:Arial;" text-anchor="middle"><textPath startOffset="21.46611528233685" xlink:href="#id117">September</textPath></text><line stroke="#e1ed5e" stroke-width="0.3" x1="15.007084014347285" x2="10.007500721073583" y1="101.09737516637583" y2="101.16192664675087" /><path d="M 14.007167355692545 101.11028546245083 a86.0,86.0 0 0,1 10.666146001902534,-42.60595125391555" fill="none" id="id118" stroke="none" /><text fill="#e1ed5e" style="font-size:6.75px; font-family:Arial;" text-anchor="middle"><textPath startOffset="22.20632615414155" xlink:href="#id118">October</textPath></text><line stroke="#e1ed5e" stroke-width="0.3" x1="26.266209847984243" x2="21.928928074336255" y1="57.711370442889674" y2="55.22380399835377" /><path d="M 25.398753493254645 57.213857153982495 a86.0,86.0 0 0,1 29.58750427330803,-30.492523968695096" fill="none" id="id119" stroke="none" /><text fill="#e1ed5e" style="font-size:6.75px; font-family:Arial;" text-anchor="middle"><textPath startOffset="21.46611528233685" xlink:href="#id119">November</textPath></text><line stroke="#e1ed5e" stroke-width="0.3" x1="56.762969772571076" x2="54.21961505331055" y1="26.818313649435495" y2="22.513508569990535" /><path d="M 56.25429882871897 25.957352633546506 a86.0,86.0 0 0,1 42.265352541879196,-11.944610805530505" fill="none" id="id120" stroke="none" /><text fill="#e1ed5e" style="font-size:6.75px; font-family:Arial;" text-anchor="middle"><textPath startOffset="22.20632615414155" xlink:href="#id120">December</textPath></text></svg>