<?xml version="1.0" encoding="utf-8" ?>
<svg baseProfile="full" height="200mm" version="1.1" viewBox="0,0,200,200" width="200mm" xmlns="http://www.w3.org/2000/svg" xmlns:ev="http://www.w3.org/2001/xml-events" xmlns:xlink="http://www.w3.org/1999/xlink"><defs /><rect fill="#1a1a1a" height="200" width="200" x="0" y="0" /><text alignment-baseline="middle" fill="#e1ed5e" style="dominant-baseline: central; font-size:9.0px; font-family:Arial;" text-anchor="middle" x="100.0" y="100.0">2025</text><line stroke="#e1ed5e" stroke-width="0.3" x1="100.0" x2="100.0" y1="15.0" y2="10.0" /><path d="M 100.0 14.0 a86.0,86.0 0 0,1 42.46469731375804,11.215312516191453" fill="none" id="id109" stroke="none" /><text fill="#e1ed5e" style="font-size:6.75px; font-family:Arial;" text-anchor="middle"><textPath startOffset="22.20632615414155" xlink:href="#id109">January</textPath></text><path d="M 100.36148047927253 79.00311137660856 l 0.1779156760035598 -10.334377228115079 a31.335908604508425,31.335908604508425 0 0,0 0.5392363205541574,0.013926883257804673 l -0.35577863175258495 10.329783552714915" fill="#ff800b" stroke="none" /><path d="M 100.72285384407766 79.0124445844662 l 0.37488763990758545 -10.884600229522782 a31.891054260221225,31.891054260221225 0 0,0 0.5484641243261028,0.023618018918414477 l -0.5621925966230198 10.876534484080173" fill="#ff880c" stroke="none" /><path d="M 101.08401301168833 79.027996857942 l 0.5538117965389595 -10.7143942110385 a31.72869753583915,31.72869753583915 0 0,0 0.5451865815152311,0.0328871434369724 l -0.7381604268938026 10.703273798221224" fill="#ff850c" stroke="none" /><path d="M 101.44485096284872 79.0497635885617 l 0.7396158658211059 -10.724377559365763 a31.749851425243154,31.749851425243154 0 0,0 0.5449027590450327,0.04229494138935158 l -0.9241088142284799 10.710057355787947" fill="#ff860c" stroke="none" /><path d="M 101.80526077348638 79.07773832637324 l 0.5889381311464763 -6.82556108812292 a27.850922002914356,27.850922002914356 0 0,0 0.47727842934372977,0.045323337819040015 l -0.7063416875804502 6.814412205788702" fill="#ff5007" stroke="none" /><path d="M 102.16513564639614 79.11191278185805 l 1.348640401652061 -13.010971567766694 a34.080680871812504,34.080680871812504 0 0,0 0.5829959683911551,0.0655063899268307 l -1.5724030735529413 12.985829224369262" fill="#ffa50f" stroke="none" /><path d="M 102.52436894288641 79.15227682838746 l 2.1411287273941912 -17.682700109779397 a38.81185884178473,38.81185884178473 0 0,0 0.6625466549529693,0.08601757102921374 l -2.4451901108550067 17.64322421558605" fill="#ffe115" stroke="none" /><path d="M 102.88285421437855 79.19881850522331 l 2.2681629416148756 -16.365887935969738 a37.52231373211497,37.52231373211497 0 0,0 0.639006824604387,0.09417299527262274 l -2.5495387466479187 16.324420456536146" fill="#ffd113" stroke="none" /><path d="M 103.95276090670814 79.375362276772 l 2.025501220357165 -10.568620228693089 a31.76096597578531,31.76096597578531 0 0,0 0.5360549147423835,0.10752757295451068 l -2.207122544566674 10.53218869966137" fill="#ff860c" stroke="none" /><path d="M 104.307194497241 79.44645832069477 l 1.3156358376907504 -6.278094950689067 a27.414465984576097,27.414465984576097 0 0,0 0.4610294345666031,0.10076317766281787 l -1.4235079964108814 6.254518274930379" fill="#ff4a06" stroke="none" /><path d="M 104.66035177308747 79.52364482259891 l 3.639570833879003 -15.991313256261671 a37.400261446535325,37.400261446535325 0 0,0 0.6265012418238035,0.1482726024963969 l -3.91429576266533 15.926294741624407" fill="#ffcf13" stroke="none" /><path d="M 108.43124777332544 80.76684994638697 l 4.459651180964643 -10.173243943990405 a32.1078072093378,32.1078072093378 0 0,0 0.5042728073552778,0.22625250946079728 l -4.634106106786701 10.094971104013077" fill="#ff8b0c" stroke="none" /><path d="M 108.76106565485865 80.91482961587045 l 6.1001030225082395 -13.288509655300805 a35.621755904960146,35.621755904960146 0 0,0 0.5550578420890556,0.26060709937391097 l -6.327939075896894 13.181537573286892" fill="#ffb911" stroke="none" /><path d="M 109.08828744355905 81.06846463323043 l 4.669377781781556 -9.726638947721035 a31.78937412866562,31.78937412866562 0 0,0 0.4912650146908196,0.24106160916825103 l -4.836114063482808 9.644822178417954" fill="#ff860c" stroke="none" /><path d="M 109.41281617654863 81.2277094730956 l 10.683015520185473 -21.30549107587945 a44.833815695119036,44.833815695119036 0 0,0 0.6868957143468188,0.35185466406273075 l -11.048171722121047 21.118443886504217" fill="#d4ff1c" stroke="none" /><path d="M 109.73455568895987 81.39251694778311 l 3.39023397908883 -6.480390407596067 a28.31362743567319,28.31362743567319 0 0,0 0.4299019218388718,0.2296387181999396 l -3.5012809474560127 6.421072962894374" fill="#ff5708" stroke="none" /><path d="M 110.05341064243156 81.56283822128135 l 7.324606444239268 -13.432750215922947 a36.2999554877251,36.2999554877251 0 0,0 0.5460134050633212,0.3038558687615677 l -7.5547439383746235 13.3046789496012" fill="#ffc112" stroke="none" /><path d="M 110.36928655335952 81.73862282372117 l 3.12662024519046 -5.506298942612774 a27.332067766776774,27.332067766776774 0 0,0 0.40712190980604057,0.23583128806063738 l -3.2209388874618288 5.4516634971620865" fill="#ff4906" stroke="none" /><line stroke="#e1ed5e" stroke-width="0.3" x1="143.23703022742887" x2="145.7803849466894" y1="26.81831364943548" y2="22.513508569990506" /><path d="M 143.74570117128098 25.957352633546492 a86.0,86.0 0 0,1 28.547481713284135,27.462654790039103" fill="none" id="id110" stroke="none" /><text fill="#e1ed5e" style="font-size:6.75px; font-family:Arial;" text-anchor="middle"><textPath startOffset="19.985693538727396" xlink:href="#id110">February</textPath></text><path d="M 110.99172775467656 82.1063720568725 l 11.538665881121382 -18.78399818891084 a43.04494042353393,43.04494042353393 0 0,0 0.6280069206213217,0.39325787607960605 l -11.860291954114969 18.582595971508287" fill="#e9ff1a" stroke="none" /><path d="M 111.2981086023043 82.29822771554956 l 5.760430410532827 -9.025389202479284 a31.707016800716296,31.707016800716296 0 0,0 0.45753674307756464,0.2975946249101477 l -5.914934179394672 8.924895653409607" fill="#ff850c" stroke="none" /><path d="M 111.60114157652 82.49532879139004 l 7.23859492688358 -10.922134116858013 a34.10306338922843,34.10306338922843 0 0,0 0.4865294141794746,0.32850683227448824 l -7.425529035469596 10.795915372284854" fill="#ffa50f" stroke="none" /><path d="M 111.90073688211348 82.69761687909136 l 7.73503320126548 -11.245900924201921 a34.64921339204736,34.64921339204736 0 0,0 0.4885025296812553,0.3422272401817834 l -7.927466870530387 11.111088841256201" fill="#ffac0f" stroke="none" /><path d="M 112.19680574252982 82.90503203632743 l 10.291265096589171 -14.424173906320087 a38.719112002807584,38.719112002807584 0 0,0 0.5392183643734911,0.3917650735988297 l -10.538028777316452 14.244889597904582" fill="#ffe015" stroke="none" /><path d="M 113.06298171725822 83.55741782278167 l 17.334701349501813 -21.819463398632475 a48.867200323690255,48.867200323690255 0 0,0 0.6541144729836919,0.5289150798736736 l -17.707719221049995 21.51784222149467" fill="#a6ff21" stroke="none" /><path d="M 113.34407831869373 83.78471172551755 l 9.495610182113605 -11.53875545150095 a35.94354342517873,35.94354342517873 0 0,0 0.4743562931081408,0.39725975372137984 l -9.692824012180862 11.373594540385753" fill="#ffbd11" stroke="none" /><path d="M 113.6212207817346 84.01681056812373 l 8.84450370779423 -10.378172445612847 a34.63567780303068,34.63567780303068 0 0,0 0.45043897124191895,0.39061623716166277 l -9.021836477682912 10.224391215031513" fill="#ffac0f" stroke="none" /><path d="M 114.16331599549186 84.49514656593476 l 10.420161724608837 -11.407150723089252 a36.45001158531212,36.45001158531212 0 0,0 0.4596036049227213,0.4271514613653112 l -10.614973213326406 11.226094675649302" fill="#ffc312" stroke="none" /><path d="M 114.68862486808459 84.99185889309783 l 10.698331543955831 -10.93104840392382 a36.29516645981095,36.29516645981095 0 0,0 0.44273915590339546,0.44083789326590583 l -10.884906500026549 10.745274660007794" fill="#ffc112" stroke="none" /><path d="M 114.94478906791727 85.2469230424477 l 7.8024073008060775 -7.7023178339847815 a31.963724718515692,31.963724718515692 0 0,0 0.3831624655622229,0.39488260169346734 l -7.933834030071409 7.5668710367412" fill="#ff890c" stroke="none" /><path d="M 115.19652480421416 85.50635884689758 l 10.816948194755765 -10.316632751654714 a35.94788545515869,35.94788545515869 0 0,0 0.42321390431323463,0.45145508538523305 l -10.992929421039463 10.128908249391426" fill="#ffbd11" stroke="none" /><path d="M 115.4437574822437 85.77008943001954 l 10.083845945599935 -9.29127682640225 a34.71173855203751,34.71173855203751 0 0,0 0.40109638594882974,0.44290064733555196 l -10.2422859721648 9.116323391797147" fill="#ffad10" stroke="none" /><path d="M 115.68641384162765 86.03803664274999 l 9.06283873384905 -8.066536022330071 a33.13276758679994,33.13276758679994 0 0,0 0.37551753656393,0.4292814590624506 l -9.200348133990827 7.909339007064673" fill="#ff980e" stroke="none" /><path d="M 115.9244219780498 86.31012108654704 l 11.517665477192468 -9.901486280994176 a36.188681595755014,36.188681595755014 0 0,0 0.4020207299135114,0.47586574035188617 l -11.686396820593096 9.701761591013183" fill="#ffc011" stroke="none" /><path d="M 116.82858285166822 87.43820079747576 l 12.385328886580904 -9.24510494447426 a36.455365963416,36.455365963416 0 0,0 0.3710416514704858,0.5061003956207478 l -12.542633150565017 9.030542105182018" fill="#ffc312" stroke="none" /><path d="M 117.2510076193507 88.02491185347247 l 12.73769863837819 -8.842095913712415 a36.50585782049582,36.50585782049582 0 0,0 0.3538904529537469,0.5192905719213334 l -12.88801355700067 8.621527318520675" fill="#ffc412" stroke="none" /><path d="M 117.65298651832404 88.62581576622439 l 3.112969733203097 -2.0057507676033106 a24.703190070949617,24.703190070949617 0 0,0 0.22723688601897038,0.35943418262579624 l -3.147034215468023 1.951868937263308" fill="#ff2403" stroke="none" /><line stroke="#e1ed5e" stroke-width="0.3" x1="172.23445277983987" x2="176.4835382374775" y1="55.19839476539836" y2="52.563006222186495" /><path d="M 173.08426987136738 54.67131705675599 a86.0,86.0 0 0,1 12.851231095245387,41.99856678651699" fill="none" id="id111" stroke="none" /><text fill="#e1ed5e" style="font-size:6.75px; font-family:Arial;" text-anchor="middle"><textPath startOffset="22.20632615414155" xlink:href="#id111">March</textPath></text><path d="M 118.21658344932153 89.55222093294921 l 5.674416858493679 -3.254455141757025 a27.54144364446152,27.54144364446152 0 0,0 0.23232172806625925,0.4132744310748282 l -5.729596227852371 3.1562972007474026" fill="#ff4c07" stroke="none" /><path d="M 119.34039704204932 91.81776055985345 l 14.185943926465088 -6.001572234451441 a36.40324233303333,36.40324233303333 0 0,0 0.2391837128088051,0.5792023324484411 l -14.28714932616009 5.756495331549696" fill="#ffc312" stroke="none" /><path d="M 119.47837535516314 92.15188598940014 l 9.81624096543078 -3.9551028690799304 a31.58307258769426,31.58307258769426 0 0,0 0.19883266241179218,0.5060074381227814 l -9.882867177724272 3.785546426061365" fill="#ff830c" stroke="none" /><path d="M 119.61058180528143 92.48833698450437 l 8.237420092474197 -3.1552722130393254 a29.821044865449654,29.821044865449654 0 0,0 0.1794877731942859,0.48093799645419033 l -8.29051245417011 3.0130110795558016" fill="#ff6c09" stroke="none" /><path d="M 119.85752413597 93.16781622104841 l 7.498829921387368 -2.580048942617937 a28.93026498524472,28.93026498524472 0 0,0 0.15796297500514106,0.472289189358413 l -7.542130190164279 2.4505866503372102" fill="#ff5f08" stroke="none" /><path d="M 119.97218684219823 93.5106431181261 l 4.921259779230872 -1.599014232550915 a26.174518753524417,26.174518753524417 0 0,0 0.1355397799739061,0.42969814210219587 l -4.948055042972984 1.5140659240222998" fill="#ff3905" stroke="none" /><path d="M 120.6074358757038 95.95851677861258 l 12.021384751945941 -2.357606500191181 a33.25038773933552,33.25038773933552 0 0,0 0.10531549858087584,0.5625996046026632 l -12.060185974436676 2.150328818125955" fill="#ff9a0e" stroke="none" /><path d="M 120.78858239683441 97.02765380044208 l 11.150522273968656 -1.5942988257421284 a32.26392186265662,32.26392186265662 0 0,0 0.07387516424961336,0.5504557817356541 l -11.176313437276105 1.40212470194181" fill="#ff8d0d" stroke="none" /><path d="M 120.87857604477298 97.74499172005257 l 13.557790987663232 -1.4643206926284251 a34.636639305782865,34.636639305782865 0 0,0 0.05892001489097426,0.5933165091645071 l -13.580988128236434 1.230728652759483" fill="#ffac0f" stroke="none" /><path d="M 120.91429891909075 98.10471618934814 l 6.974290501189104 -0.632020223523775 a28.00286923752826,28.00286923752826 0 0,0 0.03937138898920064,0.4804306697396253 l -6.9841363739978 0.5118756365763809" fill="#ff5207" stroke="none" /><path d="M 120.96714384426684 98.82574320788733 l 33.05608646041444 -1.8512933537878606 a54.10788635899571,54.10788635899571 0 0,0 0.044075747700687264,0.9303693718256307 l -33.083055816348626 1.2820128753392301" fill="#6dff28" stroke="none" /><line stroke="#e1ed5e" stroke-width="0.3" x1="184.98032266829074" x2="189.97916517819016" y1="98.17113171792111" y2="98.06355123074" /><path d="M 185.9800911702706 98.14961562048488 a86.0,86.0 0 0,1 -9.607161424134198,41.387399972396054" fill="none" id="id112" stroke="none" /><text fill="#e1ed5e" style="font-size:6.75px; font-family:Arial;" text-anchor="middle"><textPath startOffset="21.466115282336823" xlink:href="#id112">April</textPath></text><path d="M 120.99513854157772 99.54816195383933 l 12.280763370400315 -0.2642952851039481 a33.28360700110087,33.28360700110087 0 0,0 0.007396874141470981,0.5728960538982334 l -12.283493251659502 0.05286297314525205" fill="#ff9a0e" stroke="none" /><path d="M 120.99980553446 99.90962569577887 l 10.909033472504568 -0.0469478780736705 a31.90913449396792,31.90913449396792 0 0,0 -0.0023638631915180374,0.5492785561092032 l -10.908225312023546 -0.14084015623921736" fill="#ff880c" stroke="none" /><path d="M 120.9904718944345 100.63252640178507 l 1.9931965127719302 0.0600629382995653 a22.994101275031777,22.994101275031777 0 0,0 -0.015327065469232098,0.3955234554764633 l -1.991867314451495 -0.09436364079003477" fill="#ff0b01" stroke="none" /><path d="M 120.9764740272857 100.99374915477107 l 1.6229728160080392 0.07688746268922385 a22.624793046335395,22.624793046335395 0 0,0 -0.02177760132766146,0.3888537010704802 l -1.6214088637928485 -0.10481288009512733" fill="#ff0600" stroke="none" /><path d="M 120.95626037817324 101.35467743843564 l 22.92564142963914 1.481984316187657 a43.97349151682897,43.97349151682897 0 0,0 -0.055330046353294055,0.7549345225642015 l -22.896734824621507 -1.8763919752486287" fill="#deff1b" stroke="none" /><path d="M 120.92983693683757 101.71520430193887 l 12.276747603596737 1.0060819091449884 a33.317902927459976,33.317902927459976 0 0,0 -0.05176238258140929,0.5711935784960789 l -12.257610624738252 -1.2172568761896378" fill="#ff9b0e" stroke="none" /><path d="M 120.89721153311464 102.0752229133903 l 10.86236410053085 1.0787002294200383 a31.91579351387027,31.91579351387027 0 0,0 -0.058995126189338096,0.5462215989928806 l -10.84218667284046 -1.2655181502977102" fill="#ff880c" stroke="none" /><path d="M 120.8583938346157 102.4346265915055 l 10.868854600793945 1.2686308754217392 a31.942642488506742,31.942642488506742 0 0,0 -0.0684462239357289,0.5455837496082131 l -10.845406867611368 -1.4555323793173474" fill="#ff880c" stroke="none" /><path d="M 120.70491114924044 103.5080841355445 l 10.66110681103615 1.806337607612161 a31.813050170465104,31.813050170465104 0 0,0 -0.09612624825513762,0.5391270494119963 l -10.628434120441824 -1.9895834077573755" fill="#ff870c" stroke="none" /><path d="M 120.64145759157962 103.86396538481128 l 11.565788359730382 2.165050877428442 a32.766686266061846,32.766686266061846 0 0,0 -0.10855145522358613,0.553501531540797 l -11.526806971531132 -2.3638161360371837" fill="#ff930d" stroke="none" /><path d="M 120.5718875245553 104.21870165774334 l 12.066612589784725 2.4745147218556878 a33.31772554088748,33.31772554088748 0 0,0 -0.12004846336030599,0.5608264546280318 l -12.022230087699976 -2.6818549958998887" fill="#ff9b0e" stroke="none" /><path d="M 120.49622156327973 104.57218783832717 l 9.298260017701034 2.074206274521438 a30.526802770396884,30.526802770396884 0 0,0 -0.11882112297151777,0.5118782879235906 l -9.261178328798964 -2.2339532197935936" fill="#ff750a" stroke="none" /><path d="M 120.41448212921028 104.9243191809786 l 10.081150552295147 2.4317444212786605 a31.37029302326895,31.37029302326895 0 0,0 -0.13114079974721918,0.5238423063431675 l -10.037798438252867 -2.604914567019224" fill="#ff810b" stroke="none" /><path d="M 120.32669344350535 105.2749913415812 l 9.346198471587476 2.4254370811144303 a30.655784323645022,30.655784323645022 0 0,0 -0.13694657612632044,0.5096291551428271 l -9.303063819119378 -2.5859571694328056" fill="#ff770a" stroke="none" /><path d="M 120.02730092923936 106.31721596034902 l 31.53217200334957 9.946199987099105 a54.06364718890208,54.06364718890208 0 0,0 -0.28758706330114564,0.8851019702265197 l -31.356292689032173 -10.48750085730342" fill="#6dff28" stroke="none" /><path d="M 119.79798401119884 107.00284435728193 l 7.72493450447097 2.7324253810088432 a29.193946641341245,29.193946641341245 0 0,0 -0.17165448265302805,0.4723194135943404 l -7.676755760812715 -2.864992591609315" fill="#ff6309" stroke="none" /><path d="M 119.67450827220406 107.3425965602758 l 9.027890891557448 3.369241034630893 a30.636109126577313,30.636109126577313 0 0,0 -0.18863924576495342,0.49247754500288277 l -8.968557366198988 -3.5241421464669194" fill="#ff770a" stroke="none" /><path d="M 119.54520255179757 107.68017299344265 l 8.148227077006188 3.201798158674268 a29.754719638420568,29.754719638420568 0 0,0 -0.19141832555499255,0.47508458592486985 l -8.091906137193805 -3.3415821124419516" fill="#ff6b09" stroke="none" /><path d="M 119.26925614724726 108.34839909993367 l 15.893662439766157 6.885924199297567 a38.32121409796973,38.32121409796973 0 0,0 -0.26744359857043315,0.603014711728284 l -15.77277775646445 -7.158487247518539" fill="#ffdb14" stroke="none" /><path d="M 119.12269723197855 108.67885076344098 l 14.07343889419398 6.387241005252167 a36.45504868862556,36.45504868862556 0 0,0 -0.26425636927374424,0.5691847100654049 l -13.961407908080405 -6.628545782596403" fill="#ffc312" stroke="none" /><path d="M 118.97047184881838 109.00673069616215 l 13.894338736223247 6.596702928409849 a36.38080421963055,36.38080421963055 0 0,0 -0.27345673656220676,0.5634018725280459 l -13.778728743046326 -6.8348937569031705" fill="#ffc212" stroke="none" /><path d="M 118.81262510543309 109.33194174019688 l 9.989603568579845 4.955310488950705 a32.15111122262208,32.15111122262208 0 0,0 -0.2501989220881197,0.49366620965774893 l -9.902825976705456 -5.126530910311148" fill="#ff8b0c" stroke="none" /><path d="M 118.64920377521936 109.65438752849418 l 10.99275617737776 5.690769934300047 a33.37843087068835,33.37843087068835 0 0,0 -0.26853343690436166,0.5079640631551163 l -10.893170232248506 -5.879149012541298" fill="#ff9b0e" stroke="none" /><line stroke="#e1ed5e" stroke-width="0.3" x1="174.80103733775053" x2="179.2010983576182" y1="140.37084112569926" y2="142.7455964860345" /><path d="M 175.68104954172406 140.8457921977663 a86.0,86.0 0 0,1 -30.038265399797805,32.042727171017184" fill="none" id="id113" stroke="none" /><text fill="#e1ed5e" style="font-size:6.75px; font-family:Arial;" text-anchor="middle"><textPath startOffset="22.206326154141568" xlink:href="#id113">May</textPath></text><path d="M 118.48025628344425 109.97397251340804 l 14.34359099814495 7.741374370832136 a37.299309183871614,37.299309183871614 0 0,0 -0.3098037825156748,0.5623838538575837 l -14.208210806177767 -7.987128743087525" fill="#ffce13" stroke="none" /><path d="M 118.30583269289576 110.29060199501025 l 3.8581178201878283 2.168836326840099 a25.425937655127118,25.425937655127118 0 0,0 -0.2177525777727933,0.37966997376626815 l -3.8202132462626555 -2.2349261464646824" fill="#ff2e04" stroke="none" /><path d="M 118.12598468904814 110.60418214915192 l 8.503760581329269 4.97492564978709 a30.85209770787313,30.85209770787313 0 0,0 -0.2721142152535711,0.45607907674540293 l -8.416865490377472 -5.120566820418597" fill="#ff7a0b" stroke="none" /><path d="M 117.75023020441432 111.22182372390056 l 8.068849200949735 5.101184736481639 a30.546120318924356,30.546120318924356 0 0,0 -0.2847991333878502,0.44201457957721574 l -7.979845204184835 -5.239320915980308" fill="#ff750a" stroke="none" /><path d="M 117.35343817320211 111.8261652097733 l 7.889158754602696 5.376369447187486 a30.546945809418602,30.546945809418602 0 0,0 -0.2998533189581398,0.4319610700764981 l -7.795444528482419 -5.511371779451003" fill="#ff750a" stroke="none" /><path d="M 117.14729908036423 112.12312394758627 l 12.618714391270595 8.921418930619978 a36.45392081719342,36.45392081719342 0 0,0 -0.36665736779671093,0.5092550151099994 l -12.463277231098282 -9.13730755118111" fill="#ffc312" stroke="none" /><path d="M 116.71984013943494 112.70617746262583 l 7.694062724294035 5.847073032287875 a30.663687921817377,30.663687921817377 0 0,0 -0.32298089177422185,0.4174963408805358 l -7.592275015301745 -5.9786473672816625" fill="#ff770b" stroke="none" /><path d="M 116.498646956653 112.99209946851258 l 8.407865674509361 6.620896092153142 a31.701797524887187,31.701797524887187 0 0,0 -0.3412956464781314,0.4258187955861234 l -8.292652115976377 -6.764642721317516" fill="#ff850c" stroke="none" /><path d="M 116.27256486870786 113.27417163493432 l 10.623895356051904 8.666329587599476 a34.71030346335351,34.71030346335351 0 0,0 -0.3816546625998724,0.4597276271665088 l -10.473144693558488 -8.847918471879755" fill="#ffad10" stroke="none" /><path d="M 116.0416608686014 113.55231037782055 l 9.388830235384681 7.931868306956218 a33.29083675051337,33.29083675051337 0 0,0 -0.37358262109118434,0.4345609876852732 l -9.250905104722719 -8.09230639380302" fill="#ff9a0e" stroke="none" /><path d="M 115.80600337817218 113.82643327865902 l 11.620360660194109 10.165007402441022 a36.43891697512062,36.43891697512062 0 0,0 -0.41703672492234206,0.46854518142621804 l -11.443665085623428 -10.363526753608106" fill="#ffc312" stroke="none" /><path d="M 115.56566222782051 114.09645910891815 l 5.229914562542118 4.736276278836689 a28.055800402573844,28.055800402573844 0 0,0 -0.3272556707221682,0.3551713967889744 l -5.147612483824227 -4.825598930426998" fill="#ff5307" stroke="none" /><path d="M 115.32070863581623 114.36230785411682 l 4.458244856173568 4.179355318050288 a27.110888484673346,27.110888484673346 0 0,0 -0.3220947172962606,0.33771502336741926 l -4.385643587498343 -4.255477458000215" fill="#ff4606" stroke="none" /><path d="M 115.07121518719521 114.62390073753431 l 11.750963718481168 11.402194504888932 a37.37361254703372,37.37361254703372 0 0,0 -0.45197044199339415,0.4578436715241871 l -11.55295265143224 -11.602778670393784" fill="#ffcf13" stroke="none" /><path d="M 114.55890576462653 115.13401014063108 l 10.442778575156767 10.85528812452215 a36.062831892978984,36.062831892978984 0 0,0 -0.45106731660351884,0.4265123020509759 l -10.25437542416244 -11.033435063319049" fill="#ffbe11" stroke="none" /><path d="M 114.29624159901734 115.38237550388516 l 10.491029447424612 11.28806849442825 a36.41045713798374,36.41045713798374 0 0,0 -0.46276035305929997,0.42272061057760085 l -10.295169544898448 -11.466981871592434" fill="#ffc312" stroke="none" /><path d="M 114.0293411484842 115.62618273729858 l 7.127127730267498 7.938348574356314 a31.668332942476667,31.668332942476667 0 0,0 -0.4087592292742154,0.36068249421384274 l -6.989426148086695 -8.059854210342445" fill="#ff850c" stroke="none" /><path d="M 113.20401910651253 116.32954008644616 l 8.905085583599696 11.013006785100949 a35.162869331456626,35.162869331456626 0 0,0 -0.47393269994417353,0.37652079994827825 l -8.71419539093817 -11.164661499054352" fill="#ffb310" stroke="none" /><path d="M 112.92097659922987 116.55440617244103 l 9.939551141000976 12.734592118190744 a37.154396098315146,37.154396098315146 0 0,0 -0.5075489928942877,0.3891669247519972 l -9.718873419613194 -12.903798384770113" fill="#ffcc13" stroke="none" /><path d="M 112.63410532772338 116.77436683061366 l 8.557198866226045 11.361437086455947 a35.22349834272978,35.22349834272978 0 0,0 -0.4874513339444794,0.36060484353657796 l -8.360362561863 -11.507051878732295" fill="#ffb410" stroke="none" /><path d="M 112.34349029814194 116.9893568818739 l 9.074055929470697 12.489366526667714 a36.43770602287174,36.43770602287174 0 0,0 -0.5106010056384409,0.36430026022549394 l -8.857727595983372 -12.643711048737428" fill="#ffc312" stroke="none" /><line stroke="#e1ed5e" stroke-width="0.3" x1="143.8653032363475" x2="146.44561519142675" y1="172.8068346515853" y2="177.08958963109032" /><path d="M 144.38136562736335 173.6633856474863 a86.0,86.0 0 0,1 -40.68145358897372,12.25698825130547" fill="none" id="id114" stroke="none" /><text fill="#e1ed5e" style="font-size:6.75px; font-family:Arial;" text-anchor="middle"><textPath startOffset="21.466115282336833" xlink:href="#id114">June</textPath></text><path d="M 110.8373102113329 117.98757091392108 l 2.6982338009220164 4.478479520284412 a26.22850308004547,26.22850308004547 0 0,0 -0.38872156444481853,0.22966355204554997 l -2.620744365448816 -4.524261644623712" fill="#ff3a05" stroke="none" /><path d="M 110.5260780823613 118.17145234162733 l 4.349520255746628 7.50869406609155 a29.67748886679255,29.67748886679255 0 0,0 -0.44424548666469643,0.2522541814232205 l -4.219626002160733 -7.582451413309399" fill="#ff6a09" stroke="none" /><path d="M 110.21172684928248 118.3499491758327 l 7.519663031154429 13.512448626724394 a36.46388049591617,36.46388049591617 0 0,0 -0.5510858981024522,0.3004959710920414 l -7.285954321183328 -13.639885249576206" fill="#ffc412" stroke="none" /><path d="M 109.89434966115114 118.52300852407294 l 7.278700734708721 13.626305959506563 a36.448485313697695,36.448485313697695 0 0,0 -0.5559419731003232,0.2908425648857752 l -7.043067859081902 -13.749577943337055" fill="#ffc312" stroke="none" /><path d="M 109.57404056367764 118.69057910512821 l 7.066067129108234 13.794477447671538 a36.498932631874446,36.498932631874446 0 0,0 -0.561642259701924,0.2816190885165974 l -6.827570961723549 -13.914064377097437" fill="#ffc412" stroke="none" /><path d="M 109.2508944713604 118.85261126421891 l 4.844988161413595 9.873713149539478 a31.998369044709616,31.998369044709616 0 0,0 -0.4965649103011599,0.23838133314446083 l -4.674310583112202 -9.9556487591835" fill="#ff890c" stroke="none" /><path d="M 108.92500713936063 119.00905698771935 l 4.508204163809433 9.60186457265583 a31.607530723698698,31.607530723698698 0 0,0 -0.49448025797617146,0.22699163371175024 l -4.342255910065842 -9.678043276701654" fill="#ff840c" stroke="none" /><path d="M 108.59647513512805 119.15986991738527 l 4.385845768877265 9.775196587961899 a31.714014720994207,31.714014720994207 0 0,0 -0.49999307608194415,0.21918227111227329 l -4.216932018137567 -9.849243412368628" fill="#ff850c" stroke="none" /><path d="M 108.2653958097858 119.30500536409082 l 2.7065730021589167 6.321585502671209 a27.876625675692864,27.876625675692864 0 0,0 -0.4427452512261639,0.1850675509202396 l -2.597356291435292 -6.367238096611422" fill="#ff5107" stroke="none" /><path d="M 107.59598834532513 119.57807347666477 l 6.443427691317654 16.607437379736258 a38.81361099651332,38.81361099651332 0 0,0 -0.6249541770356009,0.23630419455165438 l -6.156603293521778 -16.715889824394544" fill="#ffe115" stroke="none" /><path d="M 107.2578585660854 119.70592522655815 l 5.08665312053786 13.81085138737026 a35.71780065134409,35.71780065134409 0 0,0 -0.5787651856656625,0.20752460410071458 l -4.848168374242462 -13.896363532510934" fill="#ffba11" stroke="none" /><path d="M 106.91757812671514 119.82793768551818 l 5.091791547749257 14.594663575467548 a36.45737836914171,36.45737836914171 0 0,0 -0.5943078130246117,0.2016214775865284 l -4.839814001787418 -14.680148039952199" fill="#ffc312" stroke="none" /><path d="M 106.2309692047433 120.05430185196036 l 3.2284143551197277 10.390614020606472 a31.88060287730266,31.88060287730266 0 0,0 -0.525460689798417,0.15831699541649766 l -3.049078690881065 -10.444646385128696" fill="#ff870c" stroke="none" /><path d="M 105.88484417918355 120.15858648285463 l 4.333948779375697 14.845980389820316 a36.46564727895931,36.46564727895931 0 0,0 -0.604060101106716,0.17071341836602094 l -4.077757510164375 -14.918382601524856" fill="#ffc412" stroke="none" /><path d="M 105.53697534728816 120.25689768951611 l 4.7088191551107075 17.227107198558958 a38.85906493258198,38.85906493258198 0 0,0 -0.6467435513021903,0.17081085005957425 l -4.41158516099702 -17.305609397922115" fill="#ffe215" stroke="none" /><path d="M 105.18746579009965 120.34920634021253 l 3.0361889405231746 11.91025401198654 a33.29115917692862,33.29115917692862 0 0,0 -0.5565120036262713,0.13677711062155887 l -2.830723652153692 -11.960752380922129" fill="#ff9a0e" stroke="none" /><path d="M 104.83641907484287 120.43548508189849 l 2.525153062238137 10.669614633126951 a31.964354719141816,31.964354719141816 0 0,0 -0.5365138560074606,0.1221088068881483 l -2.3411190568378144 -10.711500173592784" fill="#ff890c" stroke="none" /><path d="M 104.48393922423573 120.51570834832081 l 2.0591756022303658 9.421502830591251 a30.64390583465329,30.64390583465329 0 0,0 -0.5162893114025922,0.10819344499136145 l -1.8966948293983954 -9.455552256309154" fill="#ff770a" stroke="none" /><path d="M 104.13013068566511 120.58985236759428 l 2.0948049493103493 10.443186409308515 a31.65121355316948,31.65121355316948 0 0,0 -0.5351050404515315,0.10255415456326611 l -1.9147322942871134 -10.47769776222025" fill="#ff840c" stroke="none" /><path d="M 103.7750983002368 120.6578951692458 l 1.4191908920579586 7.76602205866869 a28.894631175921326,28.894631175921326 0 0,0 -0.49004060058286436,0.0851998397868714 l -1.285301320003044 -7.7893004769765675" fill="#ff5f08" stroke="none" /><path d="M 103.41894727170886 120.7198165907248 l 2.235058039537053 13.545102912829066 a34.728266363937934,34.728266363937934 0 0,0 -0.5906519649642512,0.09224768955623955 l -2.001570210964285 -13.581568909732411" fill="#ffad10" stroke="none" /><path d="M 103.06178313531738 120.77559828337769 l 1.5800497065859846 10.721359587212074 a31.83716330381649,31.83716330381649 0 0,0 -0.5428560912767864,0.07523490773499342 l -1.3952650241223679 -10.746969060439671" fill="#ff870c" stroke="none" /><path d="M 102.34483914955558 120.86867818915974 l 1.9833658784641168 17.651626234947653 a38.76270387486511,38.76270387486511 0 0,0 -0.6637049895633901,0.06879573589422112 l -1.679228292295124 -17.68315133929763" fill="#ffe115" stroke="none" /><path d="M 101.98527174616119 120.90594882070398 l 0.3937733919337848 4.146639569439737 a25.16529437171473,25.16529437171473 0 0,0 -0.431591607794279,0.03723953996326564 l -0.3223374663979641 -4.1528033616816655" fill="#ff2a04" stroke="none" /><path d="M 101.62511606390274 120.93702456842531 l 2.2556123891003237 29.059962581395414 a50.14737059293624,50.14737059293624 0 0,0 -0.8611909183253514,0.05939276784769919 l -1.755058709996042 -29.094483693759397" fill="#98ff23" stroke="none" /><path d="M 100.90346689309514 120.98055641714683 l 0.5894369084046837 13.688065833565368 a34.700751152145244,34.700751152145244 0 0,0 -0.5969845320415447,0.020561354350100078 l -0.3537320246884867 -13.696183986341563" fill="#ffad10" stroke="none" /><line stroke="#e1ed5e" stroke-width="0.3" x1="102.19456741930631" x2="102.32365962044197" y1="184.97166512339345" y2="189.96999836594603" /><path d="M 102.22038585953345 185.97133177190398 a86.0,86.0 0 0,1 -42.740103519485714,-10.115201625700543" fill="none" id="id115" stroke="none" /><text fill="#e1ed5e" style="font-size:6.75px; font-family:Arial;" text-anchor="middle"><textPath startOffset="22.20632615414155" xlink:href="#id115">July</textPath></text><path d="M 100.54218724476979 120.99299961872073 l 0.36802287091524105 14.249512623788261 a35.254264304025575,35.254264304025575 0 0,0 -0.6067767725072786,0.01044621241134808 l -0.1226864085152945 -14.25373631347877" fill="#ffb410" stroke="none" /><path d="M 100.18074693466247 120.99922214144158 l 0.1144812481156704 13.30045881386511 a34.300951492862914,34.300951492862914 0 0,0 -0.5904563655562425,0.0 l 0.11448124811566124 -13.30045881386511" fill="#ffa80f" stroke="none" /><path d="M 99.81925306533755 120.99922214144158 l -0.1181738962455486 13.729471557646892 a34.7299801282445,34.7299801282445 0 0,0 -0.5977530851225796,-0.010290861449634996 l 0.35448667126079614 -13.725403218918098" fill="#ffad10" stroke="none" /><path d="M 99.09653310690486 120.98055641714683 l -0.4552363983251965 10.571624717182367 a31.581421895912726,31.581421895912726 0 0,0 -0.5429176248043803,-0.028062639776293318 l 0.6371420915430658 -10.562222270643872" fill="#ff830c" stroke="none" /><path d="M 96.58105272829116 120.7198165907248 l -1.7042804808503447 10.328436262990891 a31.468102387542487,31.468102387542487 0 0,0 -0.5336855729117189,-0.09278807767062619 l 1.8818150252341137 -10.297569606799259" fill="#ff820c" stroke="none" /><path d="M 96.22490169976321 120.6578951692458 l -1.119552283133997 6.126355358752172 a27.227810794844526,27.227810794844526 0 0,0 -0.46032164840400974,-0.08822173949138307 l 1.2248415461097018 -6.1061764209123215" fill="#ff4806" stroke="none" /><path d="M 95.86986931433489 120.58985236759428 l -1.8832215843102398 9.388384375098923 a30.575399976513438,30.575399976513438 0 0,0 -0.5151351229477229,-0.10795157357868213 l 2.0445481686873497 -9.3545768207937" fill="#ff760a" stroke="none" /><path d="M 95.51606077576429 120.51570834832081 l -2.635217834422089 12.057112690797506 a33.34173162378143,33.34173162378143 0 0,0 -0.5596327896063688,-0.1273706009064707 l 2.8423707734213206 -12.00996535631335" fill="#ff9b0e" stroke="none" /><path d="M 95.16358092515715 120.4354850818985 l -2.5319148141341534 10.69818529209186 a31.99371462108975,31.99371462108975 0 0,0 -0.5348232584093655,-0.13144654473179265 l 2.715691357286729 -10.653017489046038" fill="#ff890c" stroke="none" /><path d="M 94.11515582081647 120.15858648285463 l -3.291921809943287 11.276507666128886 a32.747185805419264,32.747185805419264 0 0,0 -0.539743834471941,-0.16262038974020812 l 3.485540618855474 -11.218171907282953" fill="#ff930d" stroke="none" /><path d="M 93.76903079525671 120.05430185196036 l -2.6278426902095235 8.45768110823146 a29.856518894747698,29.856518894747698 0 0,0 -0.48947438882622196,-0.15671424221041536 l 2.773038424126686 -8.41119401936134" fill="#ff6c0a" stroke="none" /><path d="M 93.08242187328487 119.8279376855182 l -2.5193071693249847 7.2211205495666 a28.647972973591454,28.647972973591454 0 0,0 -0.464206896691496,-0.16644807746327264 l 2.6432336266462073 -7.17668493106337" fill="#ff5b08" stroke="none" /><path d="M 92.7421414339146 119.70592522655815 l -3.1357116919132677 8.5138198230577 a30.072916609023352,30.072916609023352 0 0,0 -0.48421660257635646,-0.18308928632671093 l 3.2817985152499074 -8.458582286624354" fill="#ff6f0a" stroke="none" /><path d="M 92.40401165467489 119.57807347666478 l -3.480931009496853 8.971830915600677 a30.62344172689817,30.62344172689817 0 0,0 -0.48979850738692476,-0.1949009343784226 l 3.6348505929256363 -8.910583136816188" fill="#ff760a" stroke="none" /><path d="M 92.06813273071674 119.44442032107085 l -2.285926498320639 5.603789643398385 a27.052100323291366,27.052100323291366 0 0,0 -0.42964988277883803,-0.17959368584719215 l 2.3820478405969387 -5.56361091453122" fill="#ff4506" stroke="none" /><path d="M 91.7346041902142 119.30500536409082 l -8.368578054202798 19.546002144860935 a42.26215648743544,42.26215648743544 0 0,0 -0.6662917265413811,-0.2920827124068432 l 8.703790455401922 -19.39905487915964" fill="#f2ff19" stroke="none" /><path d="M 91.40352486487194 119.15986991738527 l -3.8758936648378044 8.638612601629285 a30.468272249051466,30.468272249051466 0 0,0 -0.4766572641659425,-0.21880997141611774 l 4.024018924771166 -8.570615559879094" fill="#ff740a" stroke="none" /><path d="M 90.7491055286396 118.85261126421891 l -5.448654762099735 11.103939241855363 a33.36872286872689,33.36872286872689 0 0,0 -0.5134748762212381,-0.2574669625009031 l 5.638983546003733 -11.008504438445158" fill="#ff9b0e" stroke="none" /><path d="M 90.42595943632237 118.69057910512821 l -3.1067010618215827 6.0649463061871 a27.814335270916445,27.814335270916445 0 0,0 -0.42424688702155744,-0.22194592014352033 l 3.2106388513696356 -6.010570967098863" fill="#ff5007" stroke="none" /><path d="M 90.10565033884886 118.52300852407294 l -5.816046594548093 10.888101223085942 a33.3441138294379,33.3441138294379 0 0,0 -0.5039362422818561,-0.2747862193795572 l 6.002605648698589 -10.786374351946618" fill="#ff9b0e" stroke="none" /><line stroke="#e1ed5e" stroke-width="0.3" x1="58.666819895761336" x2="56.23545636021788" y1="174.27360380694188" y2="178.64263932499728" /><path d="M 58.180547188652646 175.14741091055294 a86.0,86.0 0 0,1 -31.652253787137756,-30.449443065178592" fill="none" id="id116" stroke="none" /><text fill="#e1ed5e" style="font-size:6.75px; font-family:Arial;" text-anchor="middle"><textPath startOffset="22.20632615414155" xlink:href="#id116">August</textPath></text><path d="M 89.4739219176387 118.17145234162733 l -7.798839097312849 13.463346164448128 a36.55903535600892,36.55903535600892 0 0,0 -0.5418260193809193,-0.32012036270600996 l 8.029432987722151 -13.327107229448368" fill="#ffc512" stroke="none" /><path d="M 89.1626897886671 117.98757091392108 l -7.186277921653144 11.927653744533984 a34.92521146039567,34.92521146039567 0 0,0 -0.5122710274554465,-0.31467870508402684 l 7.3905281490408985 -11.80218657262158" fill="#ffb010" stroke="none" /><path d="M 88.8546689885994 117.79835938074946 l -8.189548482970785 13.078169407161315 a36.430723229885864,36.430723229885864 0 0,0 -0.5286240158446717,-0.3373928578917265 l 8.41345430086238 -12.935262120445783" fill="#ffc312" stroke="none" /><path d="M 88.54995079064634 117.60387380957326 l -6.7309722364299365 10.348530709287864 a33.34496152641492,33.34496152641492 0 0,0 -0.4784609798786362,-0.31709784778375766 l 6.908107915048534 -10.231134840412787" fill="#ff9b0e" stroke="none" /><path d="M 88.24862548938628 117.40417183066458 l -3.423692248347772 5.07060073115201 a27.118223629956322,27.118223629956322 0 0,0 -0.38461791473520685,-0.26454370888826256 l 3.5104670477058693 -5.010916232898646" fill="#ff4606" stroke="none" /><path d="M 87.95078237400918 117.19931262002967 l -6.282011347126029 8.96707822827705 a31.948614456517337,31.948614456517337 0 0,0 -0.44769543560214464,-0.31941880625107355 l 6.43543411057706 -8.857615160181757" fill="#ff880c" stroke="none" /><path d="M 87.65650970185807 116.9893568818739 l -9.080491844545541 12.498224803818426 a36.448655455593546,36.448655455593546 0 0,0 -0.5044060515919465,-0.37314753832212566 l 9.294282866556053 -12.340067316756533" fill="#ffc312" stroke="none" /><path d="M 87.36589467227662 116.77436683061367 l -6.847623868667913 9.091625541466001 a32.381898243833824,32.381898243833824 0 0,0 -0.44235411061919705,-0.3391782690758535 l 7.003106707780597 -8.972407930562781" fill="#ff8e0d" stroke="none" /><path d="M 87.07902340077011 116.55440617244103 l -5.985410343044003 7.668531334805274 a30.727872830558,30.727872830558 0 0,0 -0.41415686521063366,-0.329031261635984 l 6.116524700971995 -7.564366159164159" fill="#ff780b" stroke="none" /><path d="M 86.79598089348748 116.32954008644616 l -5.163882253932938 6.386223890398298 a29.21276661733289,29.21276661733289 0 0,0 -0.3882931328928636,-0.3195388135089224 l 5.273045515370491 -6.296389958032195" fill="#ff6309" stroke="none" /><path d="M 86.51685102203217 116.09983520530335 l -9.921516536028973 11.84699371621373 a36.45275866914073,36.45275866914073 0 0,0 -0.47759106589931444,-0.407013467476303 l 10.123973078505344 -11.674455858514476" fill="#ffc312" stroke="none" /><path d="M 86.24171649860922 115.8653595955263 l -10.12709048203355 11.678050691254647 a36.45751692798063,36.45751692798063 0 0,0 -0.47057565511269894,-0.4152283027437144 l 10.326608490052836 -11.501999246738643" fill="#ffc312" stroke="none" /><path d="M 85.97065885151581 115.62618273729859 l -10.323000008169803 11.497980041794397 a36.45211552539574,36.45211552539574 0 0,0 -0.4632898122197327,-0.42320425896729796 l 10.519389369856391 -11.318583016240524" fill="#ffc312" stroke="none" /><path d="M 85.44109423537348 115.13401014063109 l -24.979220661933528 25.96594722944561 a57.03042992249636,57.03042992249636 0 0,0 -0.7016102041193268,-0.6866732541040385 l 25.42248081842865 -25.532123872419" fill="#4fff2b" stroke="none" /><path d="M 84.9287848128048 114.62390073753433 l -9.22658677350745 8.952741198775941 a33.856184444123485,33.856184444123485 0 0,0 -0.40223315305306956,-0.4217398528691889 l 9.379326477939477 -8.792594229324251" fill="#ffa20e" stroke="none" /><path d="M 84.67929136418377 114.36230785411682 l -11.283440355405137 10.577594541485134 a36.46614148836229,36.46614148836229 0 0,0 -0.42535773067191984,-0.4616418074722743 l 11.463844494072786 -10.381801479211514" fill="#ffc412" stroke="none" /><path d="M 84.43433777217949 114.09645910891817 l -12.348009113747624 11.18251205768741 a37.65898871461046,37.65898871461046 0 0,0 -0.4310002223214154,-0.4842333187801008 l 12.538668185717377 -10.968304569166444" fill="#ffd313" stroke="none" /><path d="M 83.72743513129214 113.27417163493432 l -48.81769460612356 39.82251490480297 a84.0,84.0 0 0,0 -0.9043283517805563,-1.1282886656869615 l 49.49594086995897 -38.976298405537754" fill="#4dd2ff" stroke="none" /><path d="M 83.28015986056508 112.70617746262583 l -4.870793866495902 3.701540848204428 a27.117682366780745,27.117682366780745 0 0,0 -0.2792330135789379,-0.37407825329590133 l 4.933788146769925 -3.617149715399219" fill="#ff4606" stroke="none" /><path d="M 83.06392112726016 112.41649034213515 l -4.931981833841143 3.6158254379673753 a27.11544261743915,27.11544261743915 0 0,0 -0.27272997235632374,-0.3787980779654608 l 4.993491598573074 -3.5303937545507766" fill="#ff4606" stroke="none" /><path d="M 82.85270091963577 112.12312394758628 l -5.002867552095753 3.5370225446680723 a27.1269251852216,27.1269251852216 0 0,0 -0.26628189281724973,-0.3835989268452737 l 5.063010352075136 -3.4503823556357864" fill="#ff4606" stroke="none" /><path d="M 82.6465618267979 111.8261652097733 l -10.165814383164827 6.927883638231968 a33.30200608753886,33.30200608753886 0 0,0 -0.31874284796134583,-0.47647731010468874 l 10.283560336536903 -6.751869413921458" fill="#ff9a0e" stroke="none" /><path d="M 82.44556493220864 111.52570212397912 l -10.30874737286567 6.768406447268879 a33.33213680726077,33.33213680726077 0 0,0 -0.3107747752434584,-0.482329352580467 l 10.423727011486173 -6.589955494766964" fill="#ff9b0e" stroke="none" /><path d="M 82.24976979558568 111.22182372390057 l -9.05246900024432 5.723036277104329 a31.709824425705428,31.709824425705428 0 0,0 -0.28770680109607794,-0.4638749712066696 l 9.149640441008355 -5.566364974532395" fill="#ff850c" stroke="none" /><path d="M 82.05923443525364 110.91462005526583 l -9.126269231555503 5.5521466363857135 a31.682467990065117,31.682467990065117 0 0,0 -0.2794380465161267,-0.4683542392074345 l 9.220488153769862 -5.394230303292168" fill="#ff850c" stroke="none" /><line stroke="#e1ed5e" stroke-width="0.3" x1="26.63291911575756" x2="22.317208475507996" y1="142.92168965132927" y2="145.44649492493687" /><path d="M 25.769776987707644 143.4266507060508 a86.0,86.0 0 0,1 -11.730757126820373,-40.83630448921669" fill="none" id="id117" stroke="none" /><text fill="#e1ed5e" style="font-size:6.75px; font-family:Arial;" text-anchor="middle"><textPath startOffset="21.46611528233685" xlink:href="#id117">September</textPath></text><path d="M 81.87401531095188 110.60418214915194 l -11.055067144052954 6.4675077066281395 a33.80793369341103,33.80793369341103 0 0,0 -0.289537589951084,-0.504833193275808 l 11.164756730156416 -6.276254667494024" fill="#ffa10e" stroke="none" /><path d="M 81.69416730710424 110.29060199501025 l -5.332198665393635 2.997489114231095 a27.11696686251933,27.11696686251933 0 0,0 -0.225230415473565,-0.40885862668109146 l 5.383005490318716 -2.905259969152181" fill="#ff4606" stroke="none" /><path d="M 81.51974371655577 109.97397251340807 l -5.357585592552812 2.891540605214685 a27.088081015651383,27.088081015651383 0 0,0 -0.2179268259331134,-0.4122354267967971 l 5.406564926710812 -2.7988901633317615" fill="#ff4606" stroke="none" /><path d="M 81.35079622478065 109.6543875284942 l -10.905887354937711 5.645799366865183 a33.280611934650715,33.280611934650715 0 0,0 -0.25898866060417464,-0.5110091976326419 l 11.001454685328152 -5.457235957529856" fill="#ff9a0e" stroke="none" /><path d="M 81.18737489456691 109.33194174019688 l -12.330644862897135 6.116576439211672 a34.7643492425763,34.7643492425763 0 0,0 -0.2613066339928205,-0.5383690624936048 l 12.434104753504673 -5.903418420752782" fill="#ffae10" stroke="none" /><path d="M 81.02952815118164 109.00673069616217 l -23.6553721435955 11.231010388818133 a47.18610749244215,47.18610749244215 0 0,0 -0.3420439663273396,-0.7367322738093316 l 23.845190726762667 -10.822158047729973" fill="#b9ff1f" stroke="none" /><path d="M 80.87730276802145 108.67885076344099 l -6.386382066186474 2.8984643849330882 a28.01334240473355,28.01334240473355 0 0,0 -0.19550500361376136,-0.44081217133542405 l 6.435328154531516 -2.7881038771049687" fill="#ff5307" stroke="none" /><path d="M 80.58989483394504 108.01547362559985 l -5.656672053789888 2.3359433278658517 a27.120013885207165,27.120013885207165 0 0,0 -0.17446871319975388,-0.4330170380867552 l 5.696043381247029 -2.238226921936291" fill="#ff4606" stroke="none" /><path d="M 80.45479744820244 107.68017299344265 l -11.507978068391514 4.521992654502436 a33.36454515095295,33.36454515095295 0 0,0 -0.2054393593704221,-0.5363373402996551 l 11.584111707355445 -4.323231747369623" fill="#ff9b0e" stroke="none" /><path d="M 80.32549172779594 107.34259656027581 l -9.069106922566306 3.384623004199179 a30.680101923714147,30.680101923714147 0 0,0 -0.18039277416503052,-0.4963634388885117 l 9.12602395773656 -3.22801176830455" fill="#ff770b" stroke="none" /><path d="M 80.20201598880116 107.00284435728193 l -9.057150886558532 3.2036503283925413 a30.607047288761393,30.607047288761393 0 0,0 -0.17141282851964476,-0.4982059162445415 l 9.110954546021404 -3.0472717090587027" fill="#ff760a" stroke="none" /><path d="M 80.0844068197444 106.66101706037122 l -20.896813607987564 6.98919839797693 a43.03464801655015,43.03464801655015 0 0,0 -0.22891922182080232,-0.7045409203408564 l 21.014025080824617 -6.62845857765827" fill="#e9ff1a" stroke="none" /><path d="M 79.97269907076064 106.31721596034903 l -9.20229666250532 2.9026824709750403 a30.649239834933233,30.649239834933233 0 0,0 -0.15437471512259832,-0.5045055010818926 l 9.25089815013405 -2.7438499973411" fill="#ff770a" stroke="none" /><path d="M 79.86692584326677 105.97154293290107 l -14.805394424231102 4.391333770221196 a36.442911524014455,36.442911524014455 0 0,0 -0.17320337635261396,-0.6029436752317254 l 14.878790437469819 -4.135832619484874" fill="#ffc312" stroke="none" /><path d="M 79.67330655649465 105.27499134158121 l -14.97738719482614 3.886789948980145 a36.47350197244422,36.47350197244422 0 0,0 -0.15247432386749848,-0.6090591305438335 l 15.042072832988696 -3.6284029790389196" fill="#ffc412" stroke="none" /><path d="M 79.58551787078972 104.9243191809786 l -5.040167956433863 1.2157739582189986 a26.18472750938236,26.18472750938236 0 0,0 -0.10192022894664467,-0.43906967880193015 l 5.060348751311063 -1.128835622068494" fill="#ff3905" stroke="none" /><path d="M 79.50377843672027 104.57218783832718 l -7.568111477984199 1.6882539619271488 a28.754128757195026,28.754128757195026 0 0,0 -0.10360518062163634,-0.4840089119236533 l 7.596050697330275 -1.5577312305873319" fill="#ff5d08" stroke="none" /><path d="M 79.4281124754447 104.21870165774334 l -15.806525430766376 3.241463135472684 a37.135468058041965,37.135468058041965 0 0,0 -0.12302461913228463,-0.6272998824998486 l 15.859979982874327 -2.9688995259048805" fill="#ffcc13" stroke="none" /><path d="M 79.35854240842038 103.8639653848113 l -12.075253304179974 2.260419864884601 a33.28500062375555,33.28500062375555 0 0,0 -0.1005738907771244,-0.5640717906584708 l 12.112373637296287 -2.0522293234929165" fill="#ff9a0e" stroke="none" /><path d="M 79.29508885075956 103.50808413554451 l -15.251334954480972 2.584071277294658 a36.468698790134624,36.468698790134624 0 0,0 -0.09953913501795404,-0.6198302887743341 l 15.293555843860217 -2.3211617588271105" fill="#ffc412" stroke="none" /><path d="M 79.1416061653843 102.43462659150553 l -15.438642861078455 1.8020241991960249 a36.54345471915484,36.54345471915484 0 0,0 -0.06754918130467215,-0.625421525576246 l 15.46737434388418 -1.5360063517349969" fill="#ffc512" stroke="none" /><path d="M 79.07016306316243 101.71520430193888 l -32.0703858569629 2.628174502873791 a53.17789536672717,53.17789536672717 0 0,0 -0.06691157136080136,-0.9129552297271234 l 32.11087398698803 -2.075746136649907" fill="#77ff27" stroke="none" /><path d="M 79.04373962182676 101.35467743843564 l -12.890845288226297 0.8333040799833201 a33.91775088530132,33.91775088530132 0 0,0 -0.03264769119426639,-0.5829464577520951 l 12.903279330308093 -0.6112859058957876" fill="#ffa30f" stroke="none" /><path d="M 79.0235259727143 100.99374915477108 l -15.411717077580091 0.7301217926089164 a36.42900194800092,36.42900194800092 0 0,0 -0.024282301411021993,-0.626618303437589 l 15.422001511842314 -0.46472624215733077" fill="#ffc312" stroke="none" /><path d="M 79.0095281055655 100.63252640178507 l -7.528704217905565 0.22686980135585097 a28.532121686980123,28.532121686980123 0 0,0 -0.010567669235479558,-0.491038064513807 l 7.531493949826052 -0.09724192105191515" fill="#ff5a08" stroke="none" /><line stroke="#e1ed5e" stroke-width="0.3" x1="15.007084014347285" x2="10.007500721073583" y1="101.09737516637583" y2="101.16192664675087" /><path d="M 14.007167355692545 101.11028546245083 a86.0,86.0 0 0,1 10.666146001902534,-42.60595125391555" fill="none" id="id118" stroke="none" /><text fill="#e1ed5e" style="font-size:6.75px; font-family:Arial;" text-anchor="middle"><textPath startOffset="22.20632615414155" xlink:href="#id118">October</textPath></text><path d="M 79.00019446554 99.90962569577889 l -9.061656463345308 -0.038997546744982674 a30.06174037745178,30.06174037745178 0 0,0 0.0066808537319357365,-0.517439484097539 l 9.059642602495657 0.1949732889029937" fill="#ff6f0a" stroke="none" /><path d="M 79.03285615573316 98.82574320788736 l -1.2322414766931624 -0.06901120792975876 a22.23417243677813,22.23417243677813 0 0,0 0.024689893368172976,-0.3819417224001541 l 1.2308709923205763 0.09021199458292466" fill="#ff0000" stroke="none" /><path d="M 79.05617556472873 98.46500227214037 l -2.807555666724781 -0.20576908398851165 a23.81508609773909,23.81508609773909 0 0,0 0.03348346237708884,-0.4085830515006625 l 2.803597720528195 0.2540660526969525" fill="#ff1702" stroke="none" /><path d="M 79.08570108090925 98.10471618934814 l -39.55066148314096 -3.5841377566400285 a60.712729284356456,60.712729284356456 0 0,0 0.10327777131971144,-1.039993062919082 l 39.48310658613902 4.264406350263541" fill="#30ff35" stroke="none" /><path d="M 79.32604984820605 96.31383870115002 l -27.44920804293581 -4.894188465631556 a48.88211080462691,48.88211080462691 0 0,0 0.1548265816156043,-0.8270897899422658 l 27.360895737410342 5.365956333036395" fill="#a6ff21" stroke="none" /><path d="M 79.3925641242962 95.95851677861259 l -8.068598706784831 -1.5823951359239816 a29.22230256420461,29.22230256420461 0 0,0 0.10105448510464754,-0.49277755814016566 l 8.04016492576519 1.72104835022755" fill="#ff6309" stroke="none" /><path d="M 79.46518482838121 95.60439243477599 l -12.508613621616437 -2.6775481642334586 a33.79197713047824,33.79197713047824 0 0,0 0.1266484892603532,-0.5677403440810118 l 12.460670745354046 2.8924666778644297" fill="#ffa10e" stroke="none" /><path d="M 79.54389044137918 95.25157060432595 l -12.039515563313095 -2.7947048996136425 a33.35962420444824,33.35962420444824 0 0,0 0.13465723467441057,-0.558241171987417 l 11.98962552837787 3.0015313032604563" fill="#ff9b0e" stroke="none" /><path d="M 79.62865764111835 94.90015583598534 l -12.474193433688427 -3.1228399907505286 a33.85914582812195,33.85914582812195 0 0,0 0.14640641147293587,-0.5641636263391498 l 12.418590690345184 3.3371000426385424" fill="#ffa20e" stroke="none" /><path d="M 79.71946130924805 94.55025226153421 l -5.040402300837621 -1.354447308269655 a26.219212858771723,26.219212858771723 0 0,0 0.12087460333646147,-0.4348502605696621 l 5.016340926934799 1.4410088722582597" fill="#ff3905" stroke="none" /><path d="M 79.81627453868168 94.20196356495316 l -10.311483990878905 -2.9621072677141513 a31.728503230162023,31.728503230162023 0 0,0 0.1553096678825149,-0.5236269915281745 l 10.258968425884683 3.139163645988865" fill="#ff850c" stroke="none" /><path d="M 79.91906864156998 93.8553929516997 l -12.149276046775599 -3.717582909690298 a33.70532688092584,33.70532688092584 0 0,0 0.17453664124289692,-0.5533288491782133 l 12.083483921764499 3.9261619252949256" fill="#ffa00e" stroke="none" /><path d="M 80.02781315780177 93.51064311812611 l -13.074223949023763 -4.248072873997787 a34.747052593629746,34.747052593629746 0 0,0 0.18972338494476865,-0.5672487725366173 l 12.999163270307221 4.472494749456726" fill="#ffad10" stroke="none" /><path d="M 80.14247586403 93.16781622104843 l -14.615551393700013 -5.028629574801344 a36.45643742724866,36.45643742724866 0 0,0 0.20927196269070375,-0.5916400193921941 l 14.5268263501995 5.279467220620149" fill="#ffc312" stroke="none" /><path d="M 80.38941819471856 92.48833698450439 l -12.949574294579008 -4.960221948581086 a34.867057228915115,34.867057228915115 0 0,0 0.21950713630032323,-0.5586217190964218 l 12.862273608396993 5.182392672573272" fill="#ffaf10" stroke="none" /><path d="M 80.65960295795068 91.81776055985345 l -19.387172953732 -8.202028677595322 a42.05078976109955,42.05078976109955 0 0,0 0.28776614986296595,-0.6642039492650378 l 19.243116094026355 8.534531771446959" fill="#f5ff19" stroke="none" /><path d="M 80.803312248108 91.48605970444005 l -32.14879829351309 -14.258342521510928 a56.1688152086151,56.1688152086151 0 0,0 0.3995948024324168,-0.8804541788615644 l 31.89860117411732 14.809618709214563" fill="#58ff2a" stroke="none" /><path d="M 80.95270993114464 91.15688171328213 l -7.5511940525624235 -3.5058059162944692 a29.325335233020915,29.325335233020915 0 0,0 0.21650728289160395,-0.4560195540108048 l 7.489728575829068 3.6352678859458063" fill="#ff6509" stroke="none" /><path d="M 81.10775173730289 90.83032412892265 l -11.104216997810997 -5.389621672137499 a33.34308133746387,33.34308133746387 0 0,0 0.25505867400683335,-0.5141827229065189 l 11.009798310850751 5.57996398354298" fill="#ff9b0e" stroke="none" /><path d="M 81.26839172434947 90.50648371742162 l -11.46656190730824 -5.811459996936289 a33.855158858221984,33.855158858221984 0 0,0 0.2679241924334428,-0.5175442612237567 l 11.364828281714683 6.0079769804203815" fill="#ffa20e" stroke="none" /><path d="M 81.6062741919709 89.86733742301443 l -11.30402479703853 -6.227116258320597 a33.90573335795772,33.90573335795772 0 0,0 0.28600674193993075,-0.5087740804212727 l 11.19516041380617 6.420773848676654" fill="#ffa20f" stroke="none" /><line stroke="#e1ed5e" stroke-width="0.3" x1="26.266209847984243" x2="21.928928074336255" y1="57.711370442889674" y2="55.22380399835377" /><path d="M 25.398753493254645 57.213857153982495 a86.0,86.0 0 0,1 29.58750427330803,-30.492523968695096" fill="none" id="id119" stroke="none" /><text fill="#e1ed5e" style="font-size:6.75px; font-family:Arial;" text-anchor="middle"><textPath startOffset="21.46611528233685" xlink:href="#id119">November</textPath></text><path d="M 81.78341655067845 89.55222093294921 l -10.966242694730758 -6.289482393279063 a33.641837984055286,33.641837984055286 0 0,0 0.2924281931917161,-0.49985457415619494 l 10.856354827068717 6.4773163797891495" fill="#ff9f0e" stroke="none" /><path d="M 81.96595687620814 89.24020034530311 l -19.19284383899806 -11.451184467838923 a43.34938210207703,43.34938210207703 0 0,0 0.387841145287357,-0.6375088668896115 l 18.992886895424483 11.779861107935607" fill="#e5ff1a" stroke="none" /><path d="M 82.15384107792192 88.93136811851018 l -11.587066095847703 -7.186586747401628 a34.63477648469061,34.63477648469061 0 0,0 0.3185944298586425,-0.503939877418552 l 11.461644069743098 7.384974272534396" fill="#ffac0f" stroke="none" /><line stroke="#e1ed5e" stroke-width="0.3" x1="56.762969772571076" x2="54.21961505331055" y1="26.818313649435495" y2="22.513508569990535" /><path d="M 56.25429882871897 25.957352633546506 a86.0,86.0 0 0,1 42.265352541879196,-11.944610805530505" fill="none" id="id120" stroke="none" /><text fill="#e1ed5e" style="font-size:6.75px; font-family:Arial;" text-anchor="middle"><textPath startOffset="22.20632615414155" xlink:href="#id120">December</textPath></text></svg>