<?xml version="1.0" encoding="utf-8" ?>
<svg baseProfile="full" height="200mm" version="1.1" viewBox="0,0,200,200" width="200mm" xmlns="http://www.w3.org/2000/svg" xmlns:ev="http://www.w3.org/2001/xml-events" xmlns:xlink="http://www.w3.org/1999/xlink"><defs /><rect fill="#1a1a1a" height="200" width="200" x="0" y="0" /><text alignment-baseline="middle" fill="#e1ed5e" style="dominant-baseline: central; font-size:9.0px; font-family:Arial;" text-anchor="middle" x="100.0" y="100.0">2023</text><line stroke="#e1ed5e" stroke-width="0.3" x1="100.0" x2="100.0" y1="15.0" y2="10.0" /><path d="M 100.0 14.0 a86.0,86.0 0 0,1 42.46469731375804,11.215312516191453" fill="none" id="id85" stroke="none" /><text fill="#e1ed5e" style="font-size:6.75px; font-family:Arial;" text-anchor="middle"><textPath startOffset="22.20632615414155" xlink:href="#id85">January</textPath></text><path d="M 100.0 79.0 l 0.0 -5.723361010800215 a26.723361010800215,26.723361010800215 0 0,0 0.4599987307598505,0.00395935430243228 l -0.0985182514873221 5.722513033106341" fill="#ff4706" stroke="none" /><path d="M 100.36148047927253 79.00311137660856 l 0.10152301687007702 -5.897047282391658 a26.89792112304982,26.89792112304982 0 0,0 0.46286629821426445,0.011954470894278054 l -0.2030159502792093 5.894426019355021" fill="#ff4906" stroke="none" /><path d="M 100.72285384407766 79.0124445844662 l 0.2371912055289543 -6.886680635236924 a27.89076409694364,27.89076409694364 0 0,0 0.4796669116798897,0.0206554662230875 l -0.3556989495981755 6.881577442489641" fill="#ff5708" stroke="none" /><path d="M 101.08401301168833 79.027996857942 l 0.2949146414594398 -5.705605671368593 a26.713222446474546,26.713222446474546 0 0,0 0.45900687887988406,0.027688548427448847 l -0.3930835691789358 5.69968385356084" fill="#ff4706" stroke="none" /><path d="M 101.44485096284872 79.0497635885617 l 0.5287432943455693 -7.666740239880528 a28.684951228024726,28.684951228024726 0 0,0 0.49230180191632716,0.03821209474955592 l -0.6606352856242377 7.656502882942508" fill="#ff6209" stroke="none" /><path d="M 102.16513564639614 79.11191278185805 l 0.7676274964655648 -7.405665378936284 a28.445342952349844,28.445342952349844 0 0,0 0.48659591993185897,0.05467472126063648 l -0.8949901199071492 7.391354704205047" fill="#ff5f08" stroke="none" /><path d="M 102.52436894288641 79.15227682838746 l 0.7341068862135943 -6.06268635386399 a27.10696968599934,27.10696968599934 0 0,0 0.46273568510547897,0.060076372529777336 l -0.8383572998269193 6.049151658170076" fill="#ff4c07" stroke="none" /><path d="M 103.2404852339499 79.25152402106235 l 1.1768443245187974 -7.535206746942656 a28.62655251626331,28.62655251626331 0 0,0 0.4862026291182293,0.08022759974938984 l -1.3063761597759018 7.513832884253641" fill="#ff6108" stroke="none" /><path d="M 103.59715602781102 79.31037775812273 l 1.304454484343571 -7.502780058504903 a28.61533388027228,28.61533388027228 0 0,0 0.4845596351949658,0.08855017610463799 l -1.4334092406414378 7.479214401049526" fill="#ff6108" stroke="none" /><path d="M 103.95276090670814 79.375362276772 l 1.5774534027075078 -8.230805182499745 a29.380603390566705,29.380603390566705 0 0,0 0.4958796548448052,0.09946879376827869 l -1.7188994670194384 8.202432432654257" fill="#ff6b09" stroke="none" /><path d="M 104.66035177308747 79.52364482259891 l 2.0960424261731707 -9.209456984142934 a30.444971773123356,30.444971773123356 0 0,0 0.5099914248037799,0.12069849308897077 l -2.2542575379394743 9.172012578913094" fill="#ff7a0b" stroke="none" /><path d="M 105.36241919743992 79.69619591428918 l 2.224883663803704 -8.424108664413119 a29.71296241856355,29.71296241856355 0 0,0 0.4933796529890316,0.13485929668626803 l -2.3695612060164466 8.384562826900556" fill="#ff700a" stroke="none" /><path d="M 105.71112130821622 79.79150937346287 l 2.4846105545382944 -8.791658659000667 a30.136003042036737,30.136003042036737 0 0,0 0.4979756121096812,0.14537273656520747 l -2.6355763843714026 8.747587593516757" fill="#ff750a" stroke="none" /><path d="M 106.0581310904928 79.89281104454417 l 2.2412568122714394 -7.438824539925669 a28.76912753366512,28.76912753366512 0 0,0 0.47292969709390564,0.1469415589908802 l -2.368971882076063 7.399142846052269" fill="#ff6309" stroke="none" /><path d="M 106.74666289553966 80.11325718540242 l 3.3295708273443063 -9.814380791155084 a31.363788506530618,31.363788506530618 0 0,0 0.5097631160967792,0.17784634174499958 l -3.498015947504359 9.755613596237877" fill="#ff860c" stroke="none" /><path d="M 107.08798089147638 80.2323363322302 l 2.2323793824147695 -6.225880894163505 a27.614008664595225,27.614008664595225 0 0,0 0.44605522834761496,0.16428590501535062 l -2.339216936534961 6.18653172134183" fill="#ff5307" stroke="none" /><path d="M 107.4271985657038 80.35727306442388 l 3.1789339213254353 -8.407332914347446 a29.988262769235412,29.988262769235412 0 0,0 0.48126425741171613,0.18672305498690503 l -3.3231813437368185 8.351367155469994" fill="#ff730a" stroke="none" /><path d="M 107.76421540070413 80.48803036053334 l 2.9755993257919457 -7.477871324745121 a29.04815201751923,29.04815201751923 0 0,0 0.46299452566249105,0.1888670921179404 l -3.103877721042824 7.425543346443601" fill="#ff6709" stroke="none" /><path d="M 108.76106565485865 80.91482961587045 l 2.688063825491563 -5.855698168917475 a27.443204806257505,27.443204806257505 0 0,0 0.4276197411607167,0.20077320222968223 l -2.788461777951878 5.808559984047791" fill="#ff5107" stroke="none" /><path d="M 109.08828744355905 81.06846463323043 l 3.921382301420896 -8.16851229530453 a30.06100614018324,30.06100614018324 0 0,0 0.46455524928882364,0.22795524328472916 l -4.061408817720151 8.09980189188497" fill="#ff740a" stroke="none" /><path d="M 109.41281617654863 81.2277094730956 l 3.834699281418078 -7.647667567697754 a29.555216993444667,29.555216993444667 0 0,0 0.4528133859371149,0.23194860364431835 l -3.9657731549439483 7.580526438740935" fill="#ff6e0a" stroke="none" /><path d="M 110.05341064243156 81.56283822128135 l 4.861769347809565 -8.91610132963796 a31.15547458820475,31.15547458820475 0 0,0 0.4686316150448685,0.2607929863957852 l -5.014525051926468 8.831092945681995" fill="#ff830c" stroke="none" /><path d="M 110.36928655335952 81.73862282372117 l 2.528333507816057 -4.452654633089907 a26.12041049216979,26.12041049216979 0 0,0 0.3890737976808396,0.2253766565926903 l -2.604604037962225 4.408473819107167" fill="#ff3e05" stroke="none" /><line stroke="#e1ed5e" stroke-width="0.3" x1="143.23703022742887" x2="145.7803849466894" y1="26.81831364943548" y2="22.513508569990506" /><path d="M 143.74570117128098 25.957352633546492 a86.0,86.0 0 0,1 28.547481713284135,27.462654790039103" fill="none" id="id86" stroke="none" /><text fill="#e1ed5e" style="font-size:6.75px; font-family:Arial;" text-anchor="middle"><textPath startOffset="19.985693538727396" xlink:href="#id86">February</textPath></text><path d="M 110.68208982089419 81.91981866633111 l 4.297850482068965 -7.2744114086000415 a29.449176297592025,29.449176297592025 0 0,0 0.434218195256139,0.261611604141276 l -4.4224307435427415 7.1993531950001515" fill="#ff6c0a" stroke="none" /><path d="M 110.99172775467656 82.1063720568725 l 4.009392321182452 -6.5269606448128625 a28.660054963516433,28.660054963516433 0 0,0 0.4181377110847471,0.2618377963212413 l -4.121149184639462 6.456978507168677" fill="#ff6109" stroke="none" /><path d="M 112.19680574252982 82.90503203632743 l 5.209054727416895 -7.300979089607015 a29.968753916799322,29.968753916799322 0 0,0 0.4173572593337477,0.3032277982777282 l -5.333957303104431 7.210232056512613" fill="#ff730a" stroke="none" /><path d="M 112.48926042617603 83.11751280151076 l 5.759963265465393 -7.786090030533664 a30.68505935877971,30.68505935877971 0 0,0 0.4219251862857128,0.31778530288394896 l -5.893134605509489 7.685788138143868" fill="#ff7d0b" stroke="none" /><path d="M 113.06298171725822 83.55741782278167 l 6.734622803036351 -8.476976487320355 a31.8265541455146,31.8265541455146 0 0,0 0.4260160097955885,0.3444753191604051 l -6.879542211396431 8.35979507089582" fill="#ff8c0c" stroke="none" /><path d="M 113.6212207817346 84.01681056812373 l 3.3504987756296853 -3.9314873079488524 a26.16550428303558,26.16550428303558 0 0,0 0.34028388005865096,0.29509082757382626 l -3.4176764543351004 3.873231486955355" fill="#ff3f05" stroke="none" /><path d="M 114.16331599549186 84.49514656593476 l 6.714102821652788 -7.350057022247153 a30.955024607202667,30.955024607202667 0 0,0 0.39031649871065643,0.3627566473228204 l -6.839627204158291 7.233395788849692" fill="#ff800b" stroke="none" /><path d="M 114.42810811169701 84.74124197986012 l 7.144208238908899 -7.555512054600122 a31.398339952516533,31.398339952516533 0 0,0 0.3895139847802012,0.37471214474702785 l -7.273205467301518 7.431416823090792" fill="#ff860c" stroke="none" /><path d="M 114.94478906791727 85.2469230424477 l 3.8395775551835656 -3.790323362791221 a26.395267092256912,26.395267092256912 0 0,0 0.3164110474391614,0.326089397702346 l -3.904252866325836 3.7236697695387604" fill="#ff4206" stroke="none" /><path d="M 115.19652480421416 85.50635884689758 l 7.998921192508856 -7.6289477278397095 a32.05366833580952,32.05366833580952 0 0,0 0.3773673458729887,0.4025491734000226 l -8.129055860352308 7.490129137561632" fill="#ff8f0d" stroke="none" /><path d="M 115.4437574822437 85.77008943001954 l 5.991385516229012 -5.520475194216067 a29.14692253394088,29.14692253394088 0 0,0 0.33679457663488227,0.37189698345903965 l -6.0855237334799295 5.416525423487478" fill="#ff6809" stroke="none" /><path d="M 115.68641384162765 86.03803664274999 l 7.445531853566521 -6.627024121910265 a30.967617232561363,30.967617232561363 0 0,0 0.3509783269979259,0.40122890049721277 l -7.558502044142295 6.497879665210104" fill="#ff810b" stroke="none" /><path d="M 116.15771136456269 86.58626213691792 l 8.192142200087632 -6.800916635388975 a31.64723724296435,31.64723724296435 0 0,0 0.34435435388728514,0.4221377209486855 l -8.307995046051326 6.658894744832189" fill="#ff8a0c" stroke="none" /><path d="M 116.38621287248628 86.86637796730983 l 6.468592915978427 -5.184605808731168 a29.289923504144973,29.289923504144973 0 0,0 0.3119319938769983,0.3961219550338499 l -6.556878990449389 5.072491459744279" fill="#ff6a09" stroke="none" /><path d="M 116.60985879189232 87.15038557335679 l 7.246488941194213 -5.605983169870845 a30.161803822158888,30.161803822158888 0 0,0 0.31414819914983055,0.4133822060431885 l -7.3419130805681565 5.480416187946623" fill="#ff760a" stroke="none" /><path d="M 117.04232023915458 87.72973835380427 l 9.471134551607745 -6.819100768189577 a32.67058374638483,32.67058374638483 0 0,0 0.3246637395957569,0.45921383526779264 l -9.587110911007386 6.655060432589991" fill="#ff970e" stroke="none" /><path d="M 117.2510076193507 88.02491185347247 l 3.782979313036303 -2.62602114205112 a25.605097123987733,25.605097123987733 0 0,0 0.24821768231522767,0.364228820344326 l -3.8276214610202643 2.5605142984363876" fill="#ff3705" stroke="none" /><path d="M 117.45458315368197 88.32363383020206 l 7.01455270489323 -4.692434369731857 a29.4393654953418,29.4393654953418 0 0,0 0.2781366270096963,0.42362116479291656 l -7.094285967260851 4.570995140961267" fill="#ff6c0a" stroke="none" /><path d="M 117.65298651832404 88.62581576622439 l 5.120540698914533 -3.2992702524042636 a27.09139731487282,27.09139731487282 0 0,0 0.24920525430332593,0.3941828655365918 l -5.176573549463814 3.2106397391534656" fill="#ff4c07" stroke="none" /><line stroke="#e1ed5e" stroke-width="0.3" x1="172.23445277983987" x2="176.4835382374775" y1="55.19839476539836" y2="52.563006222186495" /><path d="M 173.08426987136738 54.67131705675599 a86.0,86.0 0 0,1 12.851231095245387,41.99856678651699" fill="none" id="id87" stroke="none" /><text fill="#e1ed5e" style="font-size:6.75px; font-family:Arial;" text-anchor="middle"><textPath startOffset="22.20632615414155" xlink:href="#id87">March</textPath></text><path d="M 117.84615892207809 88.93136811851018 l 10.046844818162088 -6.231303181163225 a32.822361444982356,32.822361444982356 0 0,0 0.29365729421197767,0.48269537969790177 l -10.152617910660288 6.057440028258242" fill="#ff990e" stroke="none" /><path d="M 118.21658344932153 89.55222093294921 l 6.052542356445073 -3.471321914453739 a27.97734511188378,27.97734511188378 0 0,0 0.2359987096902244,0.419815371095227 l -6.111398707427731 3.366623033423718" fill="#ff5808" stroke="none" /><path d="M 118.56541770881063 90.18545643968196 l 15.614717054276031 -8.254665912445608 a38.66235822338541,38.66235822338541 0 0,0 0.3059675823100504,0.5910319814975614 l -15.754494069746197 7.984661208687702" fill="#ffe415" stroke="none" /><path d="M 118.73160827565052 90.50648371742162 l 7.724226499174119 -3.9147770421590424 a29.65962783844428,29.65962783844428 0 0,0 0.22688201103687738,0.4573802897223713 l -7.790468523164404 3.781237163937721" fill="#ff6f0a" stroke="none" /><path d="M 119.04729006885535 91.15688171328212 l 5.598307725138838 -2.599136005168442 a27.17224087011453,27.17224087011453 0 0,0 0.1933080870909028,0.4259287459468524 l -5.642218129193087 2.5023852503795263" fill="#ff4d07" stroke="none" /><path d="M 119.196687751892 91.48605970444005 l 5.210520119883194 -2.310922476984451 a26.699989703002938,26.699989703002938 0 0,0 0.18271602702029932,0.4217337820959511 l -5.249526856746174 2.2208895503018975" fill="#ff4606" stroke="none" /><path d="M 119.34039704204932 91.81776055985345 l 10.970380759932555 -4.641180940194064 a32.911751111298415,32.911751111298415 0 0,0 0.21624323333134635,0.5236501417712648 l -11.048645680150099 4.4516562279694964" fill="#ff9a0e" stroke="none" /><path d="M 119.61058180528143 92.48833698450437 l 6.260709029911757 -2.3981102109934467 a27.70428296995955,27.70428296995955 0 0,0 0.16674734505978347,0.4467999831960746 l -6.301060963473166 2.289987090768039" fill="#ff5407" stroke="none" /><path d="M 119.7369772167798 92.82701384747503 l 6.4865821191363455 -2.357410823691086 a27.901676128300664,27.901676128300664 0 0,0 0.16016481416710124,0.4528074976762254 l -6.526200014113257 2.245405699588246" fill="#ff5708" stroke="none" /><path d="M 119.85752413597 93.16781622104841 l 5.75434638170965 -1.979841582383904 a27.08541493836134,27.08541493836134 0 0,0 0.14788985600700175,0.4421718456847629 l -5.787573531488421 1.880496633776827" fill="#ff4c07" stroke="none" /><path d="M 119.97218684219823 93.5106431181261 l 5.158287182855836 -1.6760291045356126 a26.423744114545343,26.423744114545343 0 0,0 0.1368303462270925,0.43378958980382826 l -5.186373012851135 1.5869893483053652" fill="#ff4306" stroke="none" /><path d="M 120.18372546131832 94.20196356495316 l 7.061846044464972 -2.028606698152394 a28.347442731421207,28.347442731421207 0 0,0 0.1306860703339983,0.47014732763488565 l -7.095718885365334 1.9067480670985564" fill="#ff5d08" stroke="none" /><path d="M 120.37134235888165 94.90015583598534 l 30.53719860212391 -7.644805694824495 a52.479573576800234,52.479573576800234 0 0,0 0.21183554741007848,0.878195104338305 l -30.66426694979481 7.118025358826784" fill="#7cff26" stroke="none" /><path d="M 120.53481517161879 95.60439243477599 l 3.7185917349026725 -0.7959881705927793 a24.802830742829624,24.802830742829624 0 0,0 0.08577138246883084,0.4182517220044999 l -3.7317424132865002 0.7318607924248676" fill="#ff2c04" stroke="none" /><path d="M 120.6074358757038 95.95851677861258 l 5.975533936698629 -1.171908057346989 a27.089365674970736,27.089365674970736 0 0,0 0.0858014070291326,0.4583545472357268 l -5.994821067637621 1.0688754326486996" fill="#ff4c07" stroke="none" /><path d="M 120.83666639777658 97.38593545837742 l 12.568794213995481 -1.5768184151214577 a33.667317960327374,33.667317960327374 0 0,0 0.06718978147777387,0.5756410155935091 l -12.594074348476845 1.3602336612030959" fill="#ffa40f" stroke="none" /><path d="M 120.91429891909075 98.10471618934814 l 3.829255281375763 -0.3470126141794741 a24.84494652294981,24.84494652294981 0 0,0 0.034931422407959156,0.42625183142552636 l -3.834661187603217 0.28104686554617897" fill="#ff2c04" stroke="none" /><path d="M 120.94382443527127 98.46500227214037 l 7.560405833509114 -0.5541111085991061 a28.58068436805224,28.58068436805224 0 0,0 0.0317373651501104,0.4909629915818958 l -7.56882378966364 0.42388905276417493" fill="#ff6008" stroke="none" /><path d="M 120.96714384426684 98.82574320788733 l 6.8686831890750115 -0.3846779488684079 a27.87944662572705,27.87944662572705 0 0,0 0.022710320772048175,0.47937897762128207 l -6.874287118080556 0.26638786462412606" fill="#ff5708" stroke="none" /><line stroke="#e1ed5e" stroke-width="0.3" x1="184.98032266829074" x2="189.97916517819016" y1="98.17113171792111" y2="98.06355123074" /><path d="M 185.9800911702706 98.14961562048488 a86.0,86.0 0 0,1 -9.607161424134198,41.387399972396054" fill="none" id="id88" stroke="none" /><text fill="#e1ed5e" style="font-size:6.75px; font-family:Arial;" text-anchor="middle"><textPath startOffset="21.466115282336823" xlink:href="#id88">April</textPath></text><path d="M 120.99980553446 99.90962569577887 l 28.206037343650504 -0.12138688596828359 a49.206298541416096,49.206298541416096 0 0,0 -0.003645255810209759,0.8470290731143701 l -28.20394779055079 -0.3641516653497712" fill="#9fff22" stroke="none" /><path d="M 120.99824983174949 100.27111621757518 l 3.802487291733729 0.04909532842845819 a24.802804222553405,24.802804222553405 0 0,0 -0.009186412213288227,0.42685647823784495 l -3.8010788168354335 -0.11454162245641797" fill="#ff2c04" stroke="none" /><path d="M 120.9904718944345 100.63252640178507 l 6.063742583410923 0.1827246808421097 a27.066495069383954,27.066495069383954 0 0,0 -0.018041581055466684,0.46557304107831904 l -6.0596988695042535 -0.2870749689344349" fill="#ff4c07" stroke="none" /><path d="M 120.95626037817324 101.35467743843564 l 3.821999121492453 0.2470658355151625 a24.829976346110755,24.829976346110755 0 0,0 -0.031242543968920983,0.42627969013917594 l -3.8171800188591942 -0.3128186621511087" fill="#ff2c04" stroke="none" /><path d="M 120.92983693683757 101.71520430193887 l 9.883457588556668 0.8099513161560343 a30.916589889641564,30.916589889641564 0 0,0 -0.048031725089792705,0.5300260839467646 l -9.8680512671898 -0.9799587886513695" fill="#ff800b" stroke="none" /><path d="M 120.8583938346157 102.4346265915055 l 7.743262109291781 0.9038064956369224 a28.795830569910386,28.795830569910386 0 0,0 -0.06170328169664003,0.4918358655226258 l -7.726557318348293 -1.0369601154469432" fill="#ff6309" stroke="none" /><path d="M 120.81339534386255 102.79330883721812 l 6.774897365685611 0.909240437235809 a27.83563841117116,27.83563841117116 0 0,0 -0.0678208026126817,0.4743385355120783 l -6.758242512056327 -1.0257244447282967" fill="#ff5608" stroke="none" /><path d="M 120.76222939487914 103.15116336523771 l 6.847211484838971 1.039227607724109 a27.9256262632896,27.9256262632896 0 0,0 -0.07622132884638518,0.47463028748538055 l -6.828308401631298 -1.1569371249026943" fill="#ff5708" stroke="none" /><path d="M 120.70491114924044 103.5080841355445 l 6.88930099219091 1.1672712498736093 a27.987488127487886,27.987488127487886 0 0,0 -0.08456693769899161,0.4742962970785528 l -6.86818761215273 -1.2856862976853805" fill="#ff5808" stroke="none" /><path d="M 120.49622156327973 104.57218783832717 l 36.88736818305688 8.228637442943478 a58.794026057563755,58.794026057563755 0 0,0 -0.22884716269569483,0.9858675874063517 l -36.740260454430626 -8.862373687698396" fill="#3bff2e" stroke="none" /><path d="M 120.32669344350535 105.2749913415812 l 3.305996658160906 0.8579410023358821 a24.41550533117139,24.41550533117139 0 0,0 -0.10906978677165625,0.4058892515339367 l -3.2907387950474725 -0.9147211870453671" fill="#ff2603" stroke="none" /><path d="M 120.23288151984713 105.62410040840565 l 5.796020097413852 1.6111100618573158 a27.01577298450026,27.01577298450026 0 0,0 -0.12839871733651062,0.4469727793776135 l -5.767428743191242 -1.7106403167395112" fill="#ff4b07" stroke="none" /><path d="M 120.13307415673323 105.97154293290107 l 7.389294430707505 2.191691571456291 a28.707475859714222,28.707475859714222 0 0,0 -0.1445943988040122,0.4725428614674358 l -7.35047325939736 -2.318561405475784" fill="#ff6209" stroke="none" /><path d="M 120.02730092923936 106.31721596034902 l 5.961204074687275 1.8803439193611964 a27.250731739176366,27.250731739176366 0 0,0 -0.14495799527350023,0.446134835635183 l -5.927953828397528 -1.9826776549741747" fill="#ff4e07" stroke="none" /><path d="M 119.79798401119884 107.00284435728193 l 17.249545465966985 6.101423360262138 a39.2968354040696,39.2968354040696 0 0,0 -0.23105741865111729,0.6357707809152432 l -17.14196378631064 -6.397441938183512" fill="#ffec16" stroke="none" /><path d="M 119.54520255179757 107.68017299344265 l 8.572975864231807 3.3687007096200854 a30.211083521480845,30.211083521480845 0 0,0 -0.19435420972398249,0.4823712096621946 l -8.513719040250432 -3.5157712871250935" fill="#ff770a" stroke="none" /><path d="M 119.26925614724726 108.34839909993367 l 7.701796735734376 3.336800987289915 a29.393563831135594,29.393563831135594 0 0,0 -0.20513756337968206,0.4625310506860536 l -7.6432180876234215 -3.468880374468656" fill="#ff6b09" stroke="none" /><path d="M 119.12269723197855 108.67885076344098 l 7.694305182653545 3.492066291618603 a29.449666219967988,29.449666219967988 0 0,0 -0.21347555829874773,0.45980736089828567 l -7.633055007514965 -3.623993719795719" fill="#ff6c0a" stroke="none" /><path d="M 118.81262510543309 109.33194174019688 l 17.946164178104716 8.902136604089097 a41.03279423408906,41.03279423408906 0 0,0 -0.31931589600576876,0.6300405563262851 l -17.79026961231268 -9.209731372118076" fill="#fdff18" stroke="none" /><path d="M 118.64920377521936 109.65438752849418 l 4.500793212521063 2.3299869733330487 a26.06813366415857,26.06813366415857 0 0,0 -0.20972122846751515,0.3967135287520357 l -4.460019475828654 -2.407115517171219" fill="#ff3e05" stroke="none" /><line stroke="#e1ed5e" stroke-width="0.3" x1="174.80103733775053" x2="179.2010983576182" y1="140.37084112569926" y2="142.7455964860345" /><path d="M 175.68104954172406 140.8457921977663 a86.0,86.0 0 0,1 -30.038265399797805,32.042727171017184" fill="none" id="id89" stroke="none" /><text fill="#e1ed5e" style="font-size:6.75px; font-family:Arial;" text-anchor="middle"><textPath startOffset="22.206326154141568" xlink:href="#id89">May</textPath></text><path d="M 118.48025628344425 109.97397251340804 l 6.093183453079087 3.2885498635972903 a27.92397608302069,27.92397608302069 0 0,0 -0.231933341466221,0.42102638435423484 l -6.035673702161357 -3.39294676634933" fill="#ff5708" stroke="none" /><path d="M 118.30583269289576 110.29060199501025 l 6.277342945914655 3.52880084322317 a28.201213081957583,28.201213081957583 0 0,0 -0.24152056566054628,0.42111146405822664 l -6.215670384101729 -3.636332153139712" fill="#ff5b08" stroke="none" /><path d="M 118.12598468904814 110.60418214915192 l 7.276773272888404 4.2571055072341695 a29.430562055091375,29.430562055091375 0 0,0 -0.2595763300739527,0.4350648600065544 l -7.202416067116224 -4.381732461126828" fill="#ff6c09" stroke="none" /><path d="M 117.94076556474637 110.91462005526583 l 5.939407482084936 3.613356174038864 a27.952186999693787,27.952186999693787 0 0,0 -0.253613334383578,0.40890544726999234 l -5.876329508033395 -3.71505795267413" fill="#ff5808" stroke="none" /><path d="M 117.75023020441432 111.22182372390056 l 3.9043400189144215 2.4683519563330543 a25.61915927021681,25.61915927021681 0 0,0 -0.2388622280703432,0.3707194823995696 l -3.861272927467028 -2.535193038654077" fill="#ff3705" stroke="none" /><path d="M 117.35343817320211 111.8261652097733 l 4.9467975728892295 3.371184705439769 a26.986292053127194,26.986292053127194 0 0,0 -0.26490141728044253,0.38161024887376743 l -4.888035248446651 -3.455836216500556" fill="#ff4a06" stroke="none" /><path d="M 117.14729908036423 112.12312394758627 l 7.487830374457768 5.293888868597526 a30.17021608631515,30.17021608631515 0 0,0 -0.3034552050392578,0.4214727388572647 l -7.395595377042907 -5.421995212905922" fill="#ff760a" stroke="none" /><path d="M 116.93607887273984 112.41649034213515 l 5.573459301208895 4.086117223812161 a27.91084673169405,27.91084673169405 0 0,0 -0.28740029251090243,0.3850196581029189 l -5.5022977420029 -4.181449761424394" fill="#ff5708" stroke="none" /><path d="M 116.71984013943494 112.70617746262583 l 6.736573112686378 5.119432527220299 a29.461087796692,29.461087796692 0 0,0 -0.31031389418896316,0.40112253897313094 l -6.647452401279347 -5.234633060306683" fill="#ff6c0a" stroke="none" /><path d="M 116.0416608686014 113.55231037782055 l 28.37426876647326 23.971139909808556 a58.144510719723804,58.144510719723804 0 0,0 -0.6524852132592888,0.7589877117297296 l -27.957441043643193 -24.456004720699813" fill="#42ff2d" stroke="none" /><path d="M 115.56566222782051 114.09645910891815 l 4.425917873538206 4.008166784722597 a26.97110961191121,26.97110961191121 0 0,0 -0.3146033418942267,0.34143979271153585 l -4.356268123648258 -4.0837578322354675" fill="#ff4a06" stroke="none" /><path d="M 115.32070863581623 114.36230785411682 l 4.8781535512158705 4.572996244992745 a27.686454720250318,27.686454720250318 0 0,0 -0.32893281277359043,0.34488473913705414 l -4.798714187063315 -4.656288100712306" fill="#ff5407" stroke="none" /><path d="M 115.07121518719521 114.62390073753431 l 4.401340798445059 4.270708774910608 a27.132760737559835,27.132760737559835 0 0,0 -0.32812471225849527,0.33238860115645047 l -4.327175461131028 -4.345837870047723" fill="#ff4c07" stroke="none" /><path d="M 114.81725581225074 114.88116024355365 l 3.833599691011932 3.8501333873455406 a26.433232342839723,26.433232342839723 0 0,0 -0.3251917540302066,0.3182685751100364 l -3.7667579846059316 -3.915552065378149" fill="#ff4306" stroke="none" /><path d="M 114.29624159901734 115.38237550388516 l 13.784759299612178 14.832034161473764 a41.2486746804666,41.2486746804666 0 0,0 -0.5242518979100618,0.4788916788483155 l -13.527407852235251 -15.067118606908663" fill="#fbff18" stroke="none" /><path d="M 114.0293411484842 115.62618273729858 l 5.450644403549894 6.071045288902033 a29.15886728129888,29.15886728129888 0 0,0 -0.37636828367514086,0.332101250753327 l -5.345333766968166 -6.163969681427648" fill="#ff6809" stroke="none" /><path d="M 113.75828350139079 115.86535959552629 l 3.5160473416169125 4.05452870803306 a26.366730098743144,26.366730098743144 0 0,0 -0.3454475104733009,0.2943978627490371 l -3.4457343545665644 -4.114450961005044" fill="#ff4206" stroke="none" /><path d="M 113.48314897796784 116.09983520530334 l 3.4969075544975796 4.175555387512802 a26.4464323404307,26.4464323404307 0 0,0 -0.3515232980779021,0.2892797427338242 l -3.4245141278749864 -4.235130249103805" fill="#ff4306" stroke="none" /><path d="M 113.20401910651253 116.32954008644616 l 5.2465941640451055 6.4885145218271 a29.34431369389678,29.34431369389678 0 0,0 -0.3955089582099578,0.314216236502493 l -5.134127713117797 -6.577864672334719" fill="#ff6b09" stroke="none" /><path d="M 112.92097659922987 116.55440617244103 l 5.170425509359361 6.6243695520187496 a29.403307200712533,29.403307200712533 0 0,0 -0.4016649582459436,0.30797956211051036 l -5.055631822619924 -6.712388455956631" fill="#ff6c09" stroke="none" /><path d="M 112.63410532772338 116.77436683061366 l 3.7829579867864744 5.02265283762604 a27.2879100388845,27.2879100388845 0 0,0 -0.37763222776980837,0.2793632941925881 l -3.6959407885981017 -5.087026080558397" fill="#ff4f07" stroke="none" /><path d="M 112.34349029814194 116.9893568818739 l 2.813728932839192 3.8727656322665114 a25.78700158240636,25.78700158240636 0 0,0 -0.3613528505914172,0.257815664383734 l -2.74664875439889 -3.9206255584944647" fill="#ff3a05" stroke="none" /><path d="M 112.04921762599082 117.19931262002967 l 2.5060858027315365 3.5772408227420742 a25.367736021618633,25.367736021618633 0 0,0 -0.35979073936872374,0.2474673512849267 l -2.4441381787399292 -3.619848963392095" fill="#ff3404" stroke="none" /><path d="M 111.7513745106137 117.40417183066458 l 5.105824038079658 7.561893190929823 a30.12423518651634,30.12423518651634 0 0,0 -0.43224734489548616,0.2864699704694214 l -4.974901994444208 -7.648661182490563" fill="#ff750a" stroke="none" /><path d="M 111.45004920935366 117.60387380957326 l 4.0096880241430375 6.164693330322867 a28.353981364395977,28.353981364395977 0 0,0 -0.41142733838826945,0.2625923933701729 l -3.9029788837078376 -6.232800152516848" fill="#ff5d08" stroke="none" /><path d="M 111.1453310114006 117.79835938074945 l 4.6660044644153995 7.451301737462741 a29.791671925445108,29.791671925445108 0 0,0 -0.43697402961094184,0.2684251390837825 l -4.537051234872149 -7.530515343374901" fill="#ff710a" stroke="none" /><line stroke="#e1ed5e" stroke-width="0.3" x1="143.8653032363475" x2="146.44561519142675" y1="172.8068346515853" y2="177.08958963109032" /><path d="M 144.38136562736335 173.6633856474863 a86.0,86.0 0 0,1 -40.68145358897372,12.25698825130547" fill="none" id="id90" stroke="none" /><text fill="#e1ed5e" style="font-size:6.75px; font-family:Arial;" text-anchor="middle"><textPath startOffset="21.466115282336833" xlink:href="#id90">June</textPath></text><path d="M 110.8373102113329 117.98757091392108 l 4.427805329484934 7.349190971193222 a29.57998065072895,29.57998065072895 0 0,0 -0.43839239775550637,0.25900995588472875 l -4.300645060701045 -7.4243194993717" fill="#ff6e0a" stroke="none" /><path d="M 110.5260780823613 118.17145234162733 l 4.233847877197487 7.309005720859661 a29.446717260262055,29.446717260262055 0 0,0 -0.4407910419469613,0.25029265755702135 l -4.107408068329327 -7.380801544211311" fill="#ff6c0a" stroke="none" /><path d="M 110.21172684928248 118.3499491758327 l 3.620364583318748 6.5056093922597995 a28.44513218692641,28.44513218692641 0 0,0 -0.42989695569101427,0.2344140969941266 l -3.5078448157590847 -6.566964141013696" fill="#ff5f08" stroke="none" /><path d="M 109.89434966115114 118.52300852407294 l 4.12065412316796 7.714191843035824 a29.7457730472464,29.7457730472464 0 0,0 -0.45370674849596127,0.23735792730788866 l -3.9872564721455035 -7.783979189288429" fill="#ff700a" stroke="none" /><path d="M 109.57404056367764 118.69057910512821 l 2.166614043557999 4.229694965471005 a25.75231900388363,25.75231900388363 0 0,0 -0.3962743454386658,0.1987001833234131 l -2.0934857904365725 -4.26636298970372" fill="#ff3905" stroke="none" /><path d="M 108.92500713936063 119.00905698771935 l 3.7511164839139735 7.989370304907378 a29.826149372451553,29.826149372451553 0 0,0 -0.46661164913675396,0.21419852226252037 l -3.6130368390098 -8.052755897503973" fill="#ff710a" stroke="none" /><path d="M 108.59647513512805 119.15986991738527 l 2.5403216175950853 5.661882454885805 a27.20565442590583,27.20565442590583 0 0,0 -0.42891570061062845,0.1880240384771687 l -2.442485242326703 -5.704771046657428" fill="#ff4d07" stroke="none" /><path d="M 107.59598834532513 119.57807347666477 l 5.1499665885280805 13.273641254942678 a35.237686189401416,35.237686189401416 0 0,0 -0.5673767167686197,0.21453332578611317 l -4.920719650999186 -13.360322830835422" fill="#ffb911" stroke="none" /><path d="M 107.2578585660854 119.70592522655815 l 2.5567811607759516 6.941956489805009 a28.39783007445053,28.39783007445053 0 0,0 -0.46015362356648365,0.16499471792919435 l -2.4369079765797332 -6.984938748774164" fill="#ff5e08" stroke="none" /><path d="M 106.91757812671514 119.82793768551818 l 1.6560254219280997 4.746685656475054 a26.02727012596878,26.02727012596878 0 0,0 -0.424282015863706,0.1439394957917013 l -1.5740736731271665 -4.774488139164879" fill="#ff3d05" stroke="none" /><path d="M 106.57524785965236 119.94407469862006 l 2.8752470773683556 8.72121381764235 a30.18295247776831,30.18295247776831 0 0,0 -0.4948260133442925,0.15842766338236938 l -2.7246997189331226 -8.769414327684427" fill="#ff760a" stroke="none" /><path d="M 106.2309692047433 120.05430185196036 l 2.2599373230802584 7.273581966841038 a28.61658134156042,28.61658134156042 0 0,0 -0.4716626165847802,0.1421080772695528 l -2.134399732055232 -7.311405413216317" fill="#ff6108" stroke="none" /><path d="M 105.18746579009965 120.34920634021253 l 4.586652057966099 17.992355596145448 a39.5677741530586,39.5677741530586 0 0,0 -0.6614351022120807,0.162564655487645 l -4.276263671010807 -18.06864150994712" fill="#ffef16" stroke="none" /><path d="M 104.83641907484287 120.43548508189849 l 1.32711489647229 5.607503454341554 a26.762406523223707,26.762406523223707 0 0,0 -0.44920043110444696,0.10223655564832819 l -1.230394315974981 -5.629516743567567" fill="#ff4706" stroke="none" /><path d="M 104.48393922423573 120.51570834832081 l 1.292141610320571 5.912033838189418 a27.051592686641968,27.051592686641968 0 0,0 -0.4557659273556438,0.09551018140648283 l -1.1901842215355491 -5.933400000322443" fill="#ff4b07" stroke="none" /><path d="M 103.7750983002368 120.6578951692458 l 3.58955252169971 19.642561279297805 a40.96785168507144,40.96785168507144 0 0,0 -0.694797262581843,0.12079941006096265 l -3.250906287645817 -19.701439267879774" fill="#feff18" stroke="none" /><path d="M 103.06178313531738 120.77559828337769 l 0.9416764859614315 6.389705449602166 a27.458722035889785,27.458722035889785 0 0,0 -0.46819920398096565,0.064888143430899 l -0.8315486907936354 -6.404968158525668" fill="#ff5107" stroke="none" /><path d="M 102.70371172650421 120.8252237178851 l 0.7909825712360415 6.092509360913522 a27.143640918935453,27.143640918935453 0 0,0 -0.46386230306411264,0.056167264981012856 l -0.6859928451205486 -6.105222154619885" fill="#ff4d07" stroke="none" /><path d="M 102.34483914955558 120.86867818915974 l 0.836568623443894 7.445321521993424 a28.492173224611754,28.492173224611754 0 0,0 -0.48785032111604865,0.05056768048329574 l -0.7082857057222427 -7.458618570932478" fill="#ff5f08" stroke="none" /><path d="M 101.98527174616119 120.90594882070398 l 0.846623617786279 8.91538906855632 a29.95549740628219,29.95549740628219 0 0,0 -0.5137448859881448,0.04432807048879895 l -0.6930344140565926 -8.928641391323783" fill="#ff730a" stroke="none" /><path d="M 101.62511606390274 120.93702456842531 l 0.4724993440426943 6.087399290749269 a27.105709275353313,27.105709275353313 0 0,0 -0.4654918171520171,0.03210304108277721 l -0.36764476611174685 -6.0946306763483316" fill="#ff4c07" stroke="none" /><path d="M 101.26447882468166 120.96189622390904 l 0.4655352918206546 7.717410750764062 a28.731439180640255,28.731439180640255 0 0,0 -0.49392344551731293,0.025530200338609088 l -0.33262377788986214 -7.7242807578648724" fill="#ff6209" stroke="none" /><line stroke="#e1ed5e" stroke-width="0.3" x1="102.19456741930631" x2="102.32365962044197" y1="184.97166512339345" y2="189.96999836594603" /><path d="M 102.22038585953345 185.97133177190398 a86.0,86.0 0 0,1 -42.740103519485714,-10.115201625700543" fill="none" id="id91" stroke="none" /><text fill="#e1ed5e" style="font-size:6.75px; font-family:Arial;" text-anchor="middle"><textPath startOffset="22.20632615414155" xlink:href="#id91">July</textPath></text><path d="M 100.54218724476979 120.99299961872073 l 0.2040926467528235 7.902282646440487 a28.90491776255092,28.90491776255092 0 0,0 -0.49749535427253977,0.008564833691499744 l -0.06803760258761579 -7.904624957411146" fill="#ff6509" stroke="none" /><path d="M 100.18074693466247 120.99922214144158 l 0.056915434302999675 6.612448783362566 a27.612693723381945,27.612693723381945 0 0,0 -0.4753247379309057,0.0 l 0.05691543430299512 -6.612448783362566" fill="#ff5307" stroke="none" /><path d="M 99.45781275523022 120.99299961872073 l -0.23076872294793735 8.93515618375672 a29.938135724613772,29.938135724613772 0 0,0 -0.51504948314787,-0.017739345598492 l 0.3845385577704504 -8.929860039732134" fill="#ff730a" stroke="none" /><path d="M 99.09653310690486 120.98055641714683 l -0.2603599542439463 6.046150390820872 a27.051753618100896,27.051753618100896 0 0,0 -0.46504789649871403,-0.024037664282622228 l 0.3643959191561492 -6.040772919776048" fill="#ff4b07" stroke="none" /><path d="M 96.93821686468263 120.77559828337769 l -0.7901537991368174 5.361554750104687 a26.41946605900069,26.41946605900069 0 0,0 -0.44933741804224164,-0.07017726360746417 l 0.8823270807875763 -5.3471591791501165" fill="#ff4306" stroke="none" /><path d="M 96.58105272829116 120.7198165907248 l -0.9449512760393729 5.726680048189558 a26.804118993303014,26.804118993303014 0 0,0 -0.4545864070595443,-0.07903567378844854 l 1.0433866545709671 -5.709565795880103" fill="#ff4806" stroke="none" /><path d="M 96.22490169976321 120.6578951692458 l -1.2388659653140055 6.779257440421601 a27.891525253782724,27.891525253782724 0 0,0 -0.4715426068611566,-0.09037226288580143 l 1.3553761867468572 -6.756927979187331" fill="#ff5708" stroke="none" /><path d="M 95.86986931433489 120.58985236759428 l -1.0737822453277412 5.353103712426895 a26.459736959449575,26.459736959449575 0 0,0 -0.4457943268850331,-0.09342053557581333 l 1.1657680336421612 -5.333827196124541" fill="#ff4306" stroke="none" /><path d="M 95.51606077576429 120.51570834832081 l -0.35390843216382095 1.6192641811558037 a22.65748836096391,22.65748836096391 0 0,0 -0.3803003863145482,-0.08655512977343188 l 0.38172896787123184 -1.612932317804685" fill="#ff0d01" stroke="none" /><path d="M 95.16358092515715 120.4354850818985 l -1.5876691614361924 6.708432201891817 a27.893747600076072,27.893747600076072 0 0,0 -0.46628611767660283,-0.11460178304002906 l 1.7029085638560058 -6.680109160537759" fill="#ff5708" stroke="none" /><path d="M 94.81253420990036 120.34920634021253 l -2.216127849955548 8.693347526475117 a29.971371905311898,29.971371905311898 0 0,0 -0.49882290109322536,-0.13174366190951822 l 2.365441193860262 -8.653912515262018" fill="#ff730a" stroke="none" /><path d="M 94.46302465271185 120.25689768951611 l -2.36522023365578 8.653104137406796 a29.97053387299225,29.97053387299225 0 0,0 -0.49646736236566263,-0.14030663568298032 l 2.5138187641260568 -8.611108708385295" fill="#ff730a" stroke="none" /><path d="M 94.11515582081647 120.15858648285463 l -1.7061648749363156 5.844483071798918 a27.08843008968737,27.08843008968737 0 0,0 -0.44647540748412645,-0.1345193777813526 l 1.806515256860688 -5.81424832491184" fill="#ff4c07" stroke="none" /><path d="M 93.76903079525671 120.05430185196036 l -2.0453444449825033 6.582917286717572 a27.893347075433372,27.893347075433372 0 0,0 -0.4572897148591311,-0.14640972596465807 l 2.158355504932575 -6.5467347140932075" fill="#ff5708" stroke="none" /><path d="M 93.08242187328487 119.8279376855182 l -3.537085290530047 10.138390263804093 a31.7376873438223,31.7376873438223 0 0,0 -0.5142721044739151,-0.18439967973927474 l 3.711076955633689 -10.07600304302486" fill="#ff8b0c" stroke="none" /><path d="M 92.7421414339146 119.70592522655815 l -2.551393748931128 6.927329043704749 a28.382242053864136,28.382242053864136 0 0,0 -0.4569943447619664,-0.1727961577373159 l 2.670258314453377 -6.8823846358608" fill="#ff5e08" stroke="none" /><path d="M 92.40401165467489 119.57807347666478 l -2.0809845666491174 5.3635770485003365 a26.75312571754098,26.75312571754098 0 0,0 -0.4278957656440265,-0.1702685559119317 l 2.173001408335002 -5.326961648182339" fill="#ff4706" stroke="none" /><path d="M 92.06813273071674 119.44442032107085 l -3.4919443972980884 8.560258548679414 a30.24509070231658,30.24509070231658 0 0,0 -0.4803619504433582,-0.20079133424383216 l 3.6387778072389088 -8.498882171415609" fill="#ff770b" stroke="none" /><path d="M 91.7346041902142 119.30500536409082 l -2.391661883104867 5.586065875728168 a27.07652684772078,27.07652684772078 0 0,0 -0.42687991625499505,-0.18713161044184348 l 2.4874624740176055 -5.544069711991872" fill="#ff4c07" stroke="none" /><path d="M 91.07499286063937 119.00905698771935 l -3.435697806073484 7.31757122077908 a29.083988371208385,29.083988371208385 0 0,0 -0.4513382559145279,-0.21666979061961952 l 3.561148729988254 -7.257347153659898" fill="#ff6709" stroke="none" /><path d="M 90.42595943632237 118.69057910512821 l -3.477367831686756 6.788567282903139 a28.627367356523006,28.627367356523006 0 0,0 -0.436647914333826,-0.22843355152455272 l 3.593706648547078 -6.727704312433869" fill="#ff6108" stroke="none" /><path d="M 90.10565033884886 118.52300852407294 l -2.8230266233891843 5.284930086313426 a26.991657978688785,26.991657978688785 0 0,0 -0.40793031010855335,-0.22243613036739035 l 2.9135797453663783 -5.235553304186269" fill="#ff4a06" stroke="none" /><line stroke="#e1ed5e" stroke-width="0.3" x1="58.666819895761336" x2="56.23545636021788" y1="174.27360380694188" y2="178.64263932499728" /><path d="M 58.180547188652646 175.14741091055294 a86.0,86.0 0 0,1 -31.652253787137756,-30.449443065178592" fill="none" id="id92" stroke="none" /><text fill="#e1ed5e" style="font-size:6.75px; font-family:Arial;" text-anchor="middle"><textPath startOffset="22.20632615414155" xlink:href="#id92">August</textPath></text><path d="M 89.4739219176387 118.17145234162733 l -4.305546259229374 7.432780570511164 a29.589758762604006,29.589758762604006 0 0,0 -0.43853731502103954,-0.25909557555957907 l 4.432851445278795 -7.357566422657835" fill="#ff6e0a" stroke="none" /><path d="M 89.1626897886671 117.98757091392108 l -3.9219480180710224 6.509578181308524 a28.599755545740877,28.599755545740877 0 0,0 -0.41949140880664265,-0.2576858854830108 l 4.033418626809974 -6.441103828997135" fill="#ff6108" stroke="none" /><path d="M 88.54995079064634 117.60387380957326 l -2.651079856023535 4.0759017180830375 a25.862221634035826,25.862221634035826 0 0,0 -0.37109246310141536,-0.2459398494900891 l 2.7208470178649122 -4.02966384750163" fill="#ff3b05" stroke="none" /><path d="M 88.24862548938628 117.40417183066458 l -6.126096740034229 9.072950591314417 a31.947488008702756,31.947488008702756 0 0,0 -0.45311139795166117,-0.311654151201464 l 6.281365022608781 -8.966155650747853" fill="#ff8e0d" stroke="none" /><path d="M 87.95078237400918 117.19931262002967 l -4.802972622632067 6.855866514013587 a29.370869230356305,29.370869230356305 0 0,0 -0.41157353199132646,-0.2936467871207793 l 4.920273482472281 -6.772175465048589" fill="#ff6b09" stroke="none" /><path d="M 87.65650970185807 116.9893568818739 l -4.634323004346299 6.3785983968058995 a28.88438121962327,28.88438121962327 0 0,0 -0.3997254905991563,-0.29570736185842506 l 4.74343346536402 -6.297881086207708" fill="#ff6509" stroke="none" /><path d="M 87.36589467227662 116.77436683061367 l -3.273196374514309 4.345839714843631 a26.44060082465584,26.44060082465584 0 0,0 -0.36119279895072304,-0.2769472361843413 l 3.347517901958519 -4.288853136831923" fill="#ff4306" stroke="none" /><path d="M 86.79598089348748 116.32954008644616 l -7.9332634846225565 9.811144852447864 a33.61725932333008,33.61725932333008 0 0,0 -0.44683720350480893,-0.3677165979625176 l 8.100970816672055 -9.673133135628166" fill="#ffa40f" stroke="none" /><path d="M 86.51685102203217 116.09983520530335 l -3.1120349707671804 3.7159902530457773 a25.846993420669055,25.846993420669055 0 0,0 -0.33863810555770163,-0.28859474015308273 l 3.1755385529019384 -3.661871122669743" fill="#ff3a05" stroke="none" /><path d="M 86.24171649860922 115.8653595955263 l -6.01343276835863 6.934387800911838 a30.178622327615635,30.178622327615635 0 0,0 -0.38953077907829575,-0.34371562256951255 l 6.131905900343513 -6.829849036570037" fill="#ff760a" stroke="none" /><path d="M 85.97065885151581 115.62618273729859 l -5.6184195965235135 6.257916917187633 a29.410003739893497,29.410003739893497 0 0,0 -0.37378777373138405,-0.34144626888104224 l 5.725306919721752 -6.160277881720015" fill="#ff6c09" stroke="none" /><path d="M 85.70375840098266 115.38237550388516 l -4.138339100716311 4.452742741421233 a27.07887887967814,27.07887887967814 0 0,0 -0.33869767269346607,-0.3202597899744859 l 4.214372607800594 -4.380848314700816" fill="#ff4c07" stroke="none" /><path d="M 85.44109423537348 115.13401014063109 l -9.842528443480413 10.231326974792305 a35.19702144204317,35.19702144204317 0 0,0 -0.4330072459896212,-0.42378872614536783 l 10.017185641845828 -10.060388145724367" fill="#ffb811" stroke="none" /><path d="M 85.18274418774928 114.88116024355367 l -6.211536840934192 6.238326196153999 a29.803402958850853,29.803402958850853 0 0,0 -0.36042159936418255,-0.36510517728043657 l 6.317999065353908 -6.1304805248928975" fill="#ff710a" stroke="none" /><path d="M 84.9287848128048 114.62390073753433 l -6.590997283319305 6.395376141567634 a30.183794487076405,30.183794487076405 0 0,0 -0.3586028085261668,-0.37599361106455015 l 6.700106643224428 -6.280975413920583" fill="#ff760a" stroke="none" /><path d="M 84.19399662182784 113.82643327865904 l -5.221429844459998 4.567489303673284 a27.937239231840532,27.937239231840532 0 0,0 -0.31350569937601547,-0.3646779552214489 l 5.299278053406792 -4.476934249290305" fill="#ff5808" stroke="none" /><path d="M 83.95833913139862 113.55231037782056 l -3.5064783937311828 2.9623418618691852 a25.590300647265515,25.590300647265515 0 0,0 -0.2813763230181254,-0.3389359072433969 l 3.5569507166428447 -2.901544697512027" fill="#ff3705" stroke="none" /><path d="M 83.72743513129214 113.27417163493432 l -5.350191818557823 4.364362044481888 a27.904506394426555,27.904506394426555 0 0,0 -0.3004147175585924,-0.3748135510288193 l 5.424524448171276 -4.2716206598748085" fill="#ff5708" stroke="none" /><path d="M 83.50135304334701 112.99209946851258 l -6.84867649124055 5.393089896137258 a29.717212186788203,29.717212186788203 0 0,0 -0.31301165461912794,-0.40460975799088456 l 6.940494963077747 -5.274402144033122" fill="#ff700a" stroke="none" /><path d="M 83.06392112726016 112.41649034213515 l -5.346585510266022 3.919787328014385 a27.62953311443941,27.62953311443941 0 0,0 -0.277900748618901,-0.3859798339453083 l 5.41326605126053 -3.827173888617938" fill="#ff5307" stroke="none" /><path d="M 82.85270091963577 112.12312394758628 l -8.925591135688347 6.310384343114216 a31.93101677243702,31.93101677243702 0 0,0 -0.31343956337432644,-0.4515330684680109 l 9.032891606224807 -6.1558100124591935" fill="#ff8d0d" stroke="none" /><path d="M 82.6465618267979 111.8261652097733 l -6.3069891425752065 4.298139356126093 a28.632307250710074,28.632307250710074 0 0,0 -0.2740478496342168,-0.409664351902638 l 6.380040097620154 -4.188938090017634" fill="#ff6109" stroke="none" /><path d="M 82.44556493220864 111.52570212397912 l -7.641560482080649 5.017213572450954 a30.141437448940003,30.141437448940003 0 0,0 -0.28102604111083046,-0.4361586565738872 l 7.726791386568526 -4.884933315955618" fill="#ff760a" stroke="none" /><path d="M 82.24976979558568 111.22182372390057 l -7.0528384378687266 4.458855394632024 a29.34409500550645,29.34409500550645 0 0,0 -0.26624227216628127,-0.42926731611703856 l 7.128545349702964 -4.336791747149721" fill="#ff6b09" stroke="none" /><line stroke="#e1ed5e" stroke-width="0.3" x1="26.63291911575756" x2="22.317208475507996" y1="142.92168965132927" y2="145.44649492493687" /><path d="M 25.769776987707644 143.4266507060508 a86.0,86.0 0 0,1 -11.730757126820373,-40.83630448921669" fill="none" id="id93" stroke="none" /><text fill="#e1ed5e" style="font-size:6.75px; font-family:Arial;" text-anchor="middle"><textPath startOffset="21.46611528233685" xlink:href="#id93">September</textPath></text><path d="M 81.69416730710424 110.29060199501025 l -5.6207063341472026 3.159673355803641 a27.447935747981514,27.447935747981514 0 0,0 -0.22797940506223854,-0.4138488412825363 l 5.674262148660958 -3.062453996123282" fill="#ff5107" stroke="none" /><path d="M 81.51974371655577 109.97397251340807 l -8.3593149569128 4.5116028875563945 a30.499089807127483,30.499089807127483 0 0,0 -0.24536879639705386,-0.46414529313798664 l 8.435736261534739 -4.367042579332281" fill="#ff7a0b" stroke="none" /><path d="M 81.18737489456691 109.33194174019688 l -8.70311498466271 4.317151994468407 a30.715040492947168,30.715040492947168 0 0,0 -0.23086995784565464,-0.4756604945847573 l 8.776138199123084 -4.166702543918365" fill="#ff7d0b" stroke="none" /><path d="M 80.87730276802145 108.67885076344099 l -7.665002391020903 3.4787671972258654 a29.417486731017213,29.417486731017213 0 0,0 -0.20530452120142142,-0.4629074964985088 l 7.7237479969536045 -3.3463113642346607" fill="#ff6c09" stroke="none" /><path d="M 80.73074385275274 108.34839909993369 l -5.033449825983268 2.1807405369305397 a26.48554887318517,26.48554887318517 0 0,0 -0.17764112244625432,-0.4198911391236812 l 5.070241929621829 -2.0937748721407" fill="#ff4306" stroke="none" /><path d="M 80.58989483394504 108.01547362559985 l -3.535151517159942 1.4598536950665062 a24.824718167431108,24.824718167431108 0 0,0 -0.15970259648652732,-0.396368747364945 l 3.5597567279038573 -1.3987855798587556" fill="#ff2c04" stroke="none" /><path d="M 80.45479744820244 107.68017299344265 l -10.22283809825133 4.017004421952419 a31.983749055265427,31.983749055265427 0 0,0 -0.19693722442340567,-0.5141409488276124 l 10.290469602268246 -3.8404399062916483" fill="#ff8e0d" stroke="none" /><path d="M 80.32549172779594 107.34259656027581 l -7.820512160540302 2.918642991993086 a29.347388056624006,29.347388056624006 0 0,0 -0.1725566870408619,-0.47480189258830346 l 7.869593108586389 -2.7835933023986654" fill="#ff6b09" stroke="none" /><path d="M 80.20201598880116 107.00284435728193 l -8.615308470580928 3.0473640283436905 a30.13837882583703,30.13837882583703 0 0,0 -0.16878808049642338,-0.4905771698717449 l 8.66648738202058 -2.8986141553826488" fill="#ff760a" stroke="none" /><path d="M 80.0844068197444 106.66101706037122 l -6.516281613166318 2.179451176905748 a27.87109405368645,27.87109405368645 0 0,0 -0.14825796087865295,-0.45629108545140495 l 6.55283182506122 -2.0669611914765396" fill="#ff5708" stroke="none" /><path d="M 79.97269907076064 106.31721596034903 l -7.298423329029866 2.302143284431202 a28.652897934232435,28.652897934232435 0 0,0 -0.14431949959791404,-0.4716444749563477 l 7.3369696011339105 -2.1761718369228067" fill="#ff6109" stroke="none" /><path d="M 79.76711848015287 105.62410040840567 l -14.497651931935753 4.029888183318894 a36.04732236345104,36.04732236345104 0 0,0 -0.16103184064969045,-0.5992593843726152 l 14.564871848927217 -3.7797378657707403" fill="#ffc312" stroke="none" /><path d="M 79.58551787078972 104.9243191809786 l -5.89594697171105 1.4222023649224238 a27.065051546361303,27.065051546361303 0 0,0 -0.10534676173618694,-0.4538310923785835 l 5.919554299377792 -1.3205026151952661" fill="#ff4b07" stroke="none" /><path d="M 79.50377843672027 104.57218783832718 l -7.298432651037816 1.6280954469046713 a28.477821470586644,28.477821470586644 0 0,0 -0.10260960650503327,-0.47935792109457326 l 7.325376296267289 -1.5022237063939343" fill="#ff5f08" stroke="none" /><path d="M 79.4281124754447 104.21870165774334 l -5.978691514462571 1.2260574423758197 a27.10311142591317,27.10311142591317 0 0,0 -0.08978882278422665,-0.4578312729566841 l 5.998910270222464 -1.1229624423511808" fill="#ff4c07" stroke="none" /><path d="M 79.23777060512086 103.15116336523772 l -42.30746065033873 6.421165932713651 a63.79196885649692,63.79196885649692 0 0,0 -0.15542745828867743,-1.0870592812658424 l 42.41172215964401 -5.691961179467408" fill="#34ff5c" stroke="none" /><path d="M 79.1416061653843 102.43462659150553 l -8.382354197021144 0.978402392307772 a29.43926140877219,29.43926140877219 0 0,0 -0.05441735111416369,-0.5038370872051484 l 8.39795384963636 -0.8339689832178415" fill="#ff6c0a" stroke="none" /><path d="M 79.10278846688536 102.07522291339032 l -6.270658214194695 0.6227153124001747 a27.301502106604826,27.301502106604826 0 0,0 -0.042415358498583834,-0.46804994661706023 l 6.280448168970355 -0.5146839772345483" fill="#ff4f07" stroke="none" /><path d="M 79.07016306316243 101.71520430193888 l -7.590871253037312 0.6220734097434895 a28.61631812014822,28.61631812014822 0 0,0 -0.03600674300430733,-0.49128340080323585 l 7.600454554705954 -0.4913168724434929" fill="#ff6108" stroke="none" /><path d="M 79.04373962182676 101.35467743843564 l -1.2178224807638813 0.07872380896874323 a22.22036430329326,22.22036430329326 0 0,0 -0.021388316532285123,-0.38190275954233077 l 1.218997148183698 -0.05774933309097488" fill="#ff0701" stroke="none" /><path d="M 79.0235259727143 100.99374915477108 l -4.890199277168231 0.23167055588211707 a25.89568383546971,25.89568383546971 0 0,0 -0.017261159145533823,-0.44543381930969106 l 4.893462569164966 -0.14745948955842925" fill="#ff3b05" stroke="none" /><path d="M 79.0095281055655 100.63252640178507 l -7.788925164055322 0.23471129341782102 a28.79246075399242,28.79246075399242 0 0,0 -0.010664093089949334,-0.4955185021407565 l 7.791811319830279 -0.1006029754869357" fill="#ff6309" stroke="none" /><line stroke="#e1ed5e" stroke-width="0.3" x1="15.007084014347285" x2="10.007500721073583" y1="101.09737516637583" y2="101.16192664675087" /><path d="M 14.007167355692545 101.11028546245083 a86.0,86.0 0 0,1 10.666146001902534,-42.60595125391555" fill="none" id="id94" stroke="none" /><text fill="#e1ed5e" style="font-size:6.75px; font-family:Arial;" text-anchor="middle"><textPath startOffset="22.20632615414155" xlink:href="#id94">October</textPath></text><path d="M 79.00019446554 99.90962569577889 l -7.709561696719625 -0.033178701252613865 a28.709633089955915,28.709633089955915 0 0,0 0.006380364442086778,-0.49416625744792186 l 7.707848325159822 0.1658812167610077" fill="#ff6209" stroke="none" /><path d="M 79.00486145842228 99.54816195383935 l -9.615370337417925 -0.20693314967968238 a30.61759679203349,30.61759679203349 0 0,0 0.015874940424072483,-0.5268119873841155 l 9.610383702538208 0.37241528448879224" fill="#ff7c0b" stroke="none" /><path d="M 79.01574976396665 99.18683210126434 l -6.640545067941149 -0.25733004604017967 a27.645529140102582,27.645529140102582 0 0,0 0.022519773907753317,-0.4753568344771903 l 6.635131685799897 0.37159798714037906" fill="#ff5407" stroke="none" /><path d="M 79.03285615573316 98.82574320788736 l -6.804415951792896 -0.38107868706863546 a27.815078679718347,27.815078679718347 0 0,0 0.03088719980841806,-0.4778113100379856 l 6.796848160980065 0.4981490613596329" fill="#ff5607" stroke="none" /><path d="M 79.12142395522702 97.74499172005258 l -9.721397549718812 -1.049967771761174 a30.777934477251115,30.777934477251115 0 0,0 0.061423446153345926,-0.526238575975435 l 9.701883750561878 1.2171500860614708" fill="#ff7e0b" stroke="none" /><path d="M 79.16333360222342 97.38593545837743 l -9.11573226528448 -1.1436144357596287 a30.187188291856565,30.187188291856565 0 0,0 0.06912003763176085,-0.5150245652196511 l 9.094696228594886 1.3003573430439392" fill="#ff760a" stroke="none" /><path d="M 79.26566170972629 96.67025291283419 l -14.339503124224157 -2.30279443167415 a35.523230083014724,35.523230083014724 0 0,0 0.1021515113096225,-0.6029040022149122 l 14.297739751394312 2.5492842222048906" fill="#ffbc11" stroke="none" /><path d="M 79.32604984820605 96.31383870115002 l -3.975073058776881 -0.7087547547411059 a25.03776412448547,25.03776412448547 0 0,0 0.07930327407884706,-0.4236412611786097 l 3.9622840607881726 0.7770740933822883" fill="#ff2f04" stroke="none" /><path d="M 79.46518482838121 95.60439243477599 l -27.454464739399604 -5.876802488803084 a49.07640364468602,49.07640364468602 0 0,0 0.18393278250430714,-0.8245345983725321 l 27.34923756989326 6.348515256725576" fill="#a0ff22" stroke="none" /><path d="M 79.62865764111835 94.90015583598534 l -7.494836614862043 -1.876287683805137 a28.726126542833452,28.726126542833452 0 0,0 0.12421131720223828,-0.4786368741653849 l 7.461428965789498 2.005020983519386" fill="#ff6209" stroke="none" /><path d="M 79.71946130924805 94.55025226153421 l -7.227619228073801 -1.9421920760245153 a28.48402229861687,28.48402229861687 0 0,0 0.13131572314232814,-0.4724125237986212 l 7.193116734365113 2.0663159032420793" fill="#ff5f08" stroke="none" /><path d="M 79.81627453868168 94.20196356495316 l -8.089459558952923 -2.3238019835602506 a29.41661521127902,29.41661521127902 0 0,0 0.1439930747930258,-0.48547306541019297 l 8.04826058704819 2.4627044357169825" fill="#ff6c09" stroke="none" /><path d="M 79.91906864156998 93.8553929516997 l -12.691635281709354 -3.883540569631488 a34.272508936892955,34.272508936892955 0 0,0 0.1774736859234445,-0.5626400834353842 l 12.622906112017706 4.101430819493287" fill="#ffac0f" stroke="none" /><path d="M 80.02781315780177 93.51064311812611 l -4.346419136486853 -1.4122371855281983 a25.570095532722235,25.570095532722235 0 0,0 0.13961601677601165,-0.41743411949823594 l 4.321465825939069 1.4868444079487564" fill="#ff3705" stroke="none" /><path d="M 80.14247586403 93.16781622104843 l -13.664447832206173 -4.701392690663781 a35.45061340535103,35.45061340535103 0 0,0 0.20349820140083488,-0.5753168187226777 l 13.58149654999553 4.9359071358130695" fill="#ffbb11" stroke="none" /><path d="M 80.38941819471856 92.48833698450439 l -7.873397860562585 -3.015836659141971 a29.431231501111572,29.431231501111572 0 0,0 0.18528564949390994,-0.4715317678901021 l 7.820318661186984 3.1509174319278364" fill="#ff6c09" stroke="none" /><path d="M 80.52162464483688 92.15188598940014 l -6.94162382515423 -2.7968788056066507 a28.483894199091843,28.483894199091843 0 0,0 0.18715046059536444,-0.45319968497304747 l 6.892451677672667 2.9159530610330093" fill="#ff5f08" stroke="none" /><path d="M 80.65960295795068 91.81776055985345 l -6.8644401220870055 -2.904102360429783 a28.45347896686988,28.45347896686988 0 0,0 0.19471567927786115,-0.4494306339427593 l 6.813433732966463 3.0218321389591414" fill="#ff5f08" stroke="none" /><path d="M 80.803312248108 91.48605970444005 l -7.7254502817778725 -3.4263214209384074 a29.45116918158684,29.45116918158684 0 0,0 0.20952078278330558,-0.46165127183081267 l 7.665327182031215 3.558794701611291" fill="#ff6c0a" stroke="none" /><path d="M 81.10775173730289 90.83032412892265 l -8.62640305326801 -4.186972287884112 a30.588825088452765,30.588825088452765 0 0,0 0.23398992695139878,-0.4717094144751349 l 8.553053113363198 4.334841290858209" fill="#ff7c0b" stroke="none" /><path d="M 81.26839172434947 90.50648371742162 l -1.0751522650466976 -0.544906522935355 a22.20535285778586,22.20535285778586 0 0,0 0.17572953230071972,-0.33945352281827024 l 1.0656132995858638 0.5633327680139608" fill="#ff0701" stroke="none" /><path d="M 81.43458229118936 90.18545643968196 l -6.092110226564613 -3.2205729023000713 a27.891001148718715,27.891001148718715 0 0,0 0.22803138104396678,-0.4225075171096796 l 6.035770746302174 3.3249614027422236" fill="#ff5708" stroke="none" /><path d="M 81.6062741919709 89.86733742301443 l -6.009731548608606 -3.310617032995819 a27.86127236199698,27.86127236199698 0 0,0 0.2350195953713408,-0.4180736359744516 l 5.951854311944834 3.4135741789050553" fill="#ff5608" stroke="none" /><line stroke="#e1ed5e" stroke-width="0.3" x1="26.266209847984243" x2="21.928928074336255" y1="57.711370442889674" y2="55.22380399835377" /><path d="M 25.398753493254645 57.213857153982495 a86.0,86.0 0 0,1 29.58750427330803,-30.492523968695096" fill="none" id="id95" stroke="none" /><text fill="#e1ed5e" style="font-size:6.75px; font-family:Arial;" text-anchor="middle"><textPath startOffset="21.46611528233685" xlink:href="#id95">November</textPath></text><path d="M 82.34701348167596 88.62581576622439 l -52.95895955497213 -34.12255270132681 a84.0,84.0 0 0,0 0.793613458568319,-1.208727744089332 l 52.36374946104589 35.02909850939381" fill="#4dd2ff" stroke="none" /><path d="M 83.17141714833178 87.43820079747576 l -4.054124827648641 -3.0262264194065516 a26.05904877024044,26.05904877024044 0 0,0 0.27141623528213965,-0.3571519505778101 l 4.001432652142393 3.095563145865388" fill="#ff3d05" stroke="none" /><path d="M 83.39014120810768 87.1503855733568 l -3.3525836810131673 -2.59360468826523 a25.238702940427316,25.238702940427316 0 0,0 0.26878728208226255,-0.3413325524686161 l 3.3074423183369337 2.650929634686894" fill="#ff3204" stroke="none" /><path d="M 83.6137871275137 86.86637796730984 l -5.366038123079129 -4.300903269715309 a27.876927662393026,27.876927662393026 0 0,0 0.30332952414924436,-0.37184613052031645 l 5.291210106853492 4.392633569843707" fill="#ff5708" stroke="none" /><path d="M 84.07557802195018 86.31012108654704 l -7.173586604183931 -6.166976240758535 a30.460018008535048,30.460018008535048 0 0,0 0.3452253391236549,-0.39465224085240924 l 7.066369401482432 6.289544037813887" fill="#ff7a0b" stroke="none" /><path d="M 84.31358615837235 86.03803664274999 l -7.399302769853775 -6.585877128126145 a30.90572859646078,30.90572859646078 0 0,0 0.357117694539322,-0.39433827784882103 l 7.284841434698408 6.7122681932445225" fill="#ff800b" stroke="none" /><path d="M 84.5562425177563 85.77008943001954 l -5.574574268588176 -5.136424435499449 a28.58015397321197,28.58015397321197 0 0,0 0.3364737145378052,-0.35892669871763355 l 5.485333232079915 5.231620551095133" fill="#ff6008" stroke="none" /><path d="M 84.80347519578584 85.50635884689758 l -5.0728457885991585 -4.838211856476162 a28.01013968213578,28.01013968213578 0 0,0 0.3357691969838549,-0.3460396724375381 l 4.988812327912185 4.924815724463824" fill="#ff5908" stroke="none" /><path d="M 85.05521093208273 85.24692304244772 l -3.8597753460832545 -3.810262055947839 a26.42364846364769,26.42364846364769 0 0,0 0.3223234650166912,-0.32093930562384965 l 3.79361608089925 3.8761372122217983" fill="#ff4306" stroke="none" /><path d="M 85.57189188830299 84.74124197986013 l -1.0798579361530847 -1.1420271331713443 a22.571724891694586,22.571724891694586 0 0,0 0.284610228593911,-0.26451418953479816 l 1.0600398237643174 1.16044590878079" fill="#ff0c01" stroke="none" /><path d="M 85.83668400450813 84.49514656593479 l -8.83620133344336 -9.673158929204062 a34.10146776795587,34.10146776795587 0 0,0 0.4368057207823935,-0.3921684889706587 l 8.668384625064995 9.823826426943999" fill="#ffaa0f" stroke="none" /><path d="M 86.10567301691215 84.25364557470407 l -2.551477370721787 -2.8915734483872586 a24.856323868754224,24.856323868754224 0 0,0 0.32325791387623815,-0.2803260774770932 l 2.501325658198775 2.9350645192840323" fill="#ff2d04" stroke="none" /><path d="M 86.65592168130627 83.78471172551755 l -6.307134716429135 -7.664224172726984 a30.925738284933683,30.925738284933683 0 0,0 0.41395809184659865,-0.33472532141764544 l 6.174273226018036 7.771655591408764" fill="#ff800b" stroke="none" /><path d="M 86.93701828274178 83.55741782278169 l -4.281044089686254 -5.388618063819456 a27.88219028620678,27.88219028620678 0 0,0 0.37835792963900133,-0.29531436549727386 l 4.187653604887827 5.461510818539952" fill="#ff5708" stroke="none" /><path d="M 87.80319425747018 82.90503203632743 l -16.809071822990852 -23.559491753739977 a49.941225738468766,49.941225738468766 0 0,0 0.7040972281992202,-0.49326510424313985 l 16.40104345520797 23.84534170074706" fill="#97ff23" stroke="none" /><path d="M 88.39885842347998 82.49532879139004 l -3.3798494621548643 -5.099769982064574 a27.11809089968394,27.11809089968394 0 0,0 0.39131789239920384,-0.25452404243177273 l 3.2915645439713734 5.157192948655881" fill="#ff4c07" stroke="none" /><path d="M 89.00827224532344 82.1063720568725 l -4.467784770736929 -7.273185817718631 a29.535826421424716,29.535826421424716 0 0,0 0.43549582217543403,-0.26238136006468943 l 4.341926882343846 7.34901378724194" fill="#ff6d0a" stroke="none" /><line stroke="#e1ed5e" stroke-width="0.3" x1="56.762969772571076" x2="54.21961505331055" y1="26.818313649435495" y2="22.513508569990535" /><path d="M 56.25429882871897 25.957352633546506 a86.0,86.0 0 0,1 42.265352541879196,-11.944610805530505" fill="none" id="id96" stroke="none" /><text fill="#e1ed5e" style="font-size:6.75px; font-family:Arial;" text-anchor="middle"><textPath startOffset="22.20632615414155" xlink:href="#id96">December</textPath></text><path d="M 89.3179101791058 81.91981866633112 l -1.938834164775527 -3.281611918904417 a24.811568536022452,24.811568536022452 0 0,0 0.36957808146326077,-0.21408347939805625 l 1.882059350846946 3.31449955569252" fill="#ff2c04" stroke="none" /><path d="M 89.94658935756843 81.56283822128135 l -11.981623248860195 -21.973351538882543 a46.02773408698716,46.02773408698716 0 0,0 0.6988652862244679,-0.3733096326635471 l 11.601612916107422 22.17633989804784" fill="#c3ff1e" stroke="none" /><path d="M 90.58718382345135 81.22770947309562 l -2.053728723593774 -4.095819098093446 a25.581870333654273,25.581870333654273 0 0,0 0.39533580794687584,-0.19398956403496795 l 1.982921648636472 4.130563822263243" fill="#ff3705" stroke="none" /><path d="M 90.91171255644093 81.06846463323043 l -2.9826415851079573 -6.213050038914291 a27.891889553037554,27.891889553037554 0 0,0 0.43461114237041487,-0.2040557588420912 l 2.875252231437934 6.26347078039639" fill="#ff5708" stroke="none" /><path d="M 91.23893434514133 80.91482961587045 l -3.4963849539960403 -7.6165509087944185 a29.380725236683695,29.380725236683695 0 0,0 0.4614423121653712,-0.20703571474805385 l 3.364760523363895 7.675606954059001" fill="#ff6b09" stroke="none" /><path d="M 91.90106846888425 80.62456947434976 l -2.3495974965785376 -5.621045551909668 a27.092352705857696,27.092352705857696 0 0,0 0.4318213076881646,-0.17615075379332287 l 2.2524923193019926 5.660657191886568" fill="#ff4c07" stroke="none" /><path d="M 92.23578459929587 80.48803036053334 l -3.065523223959095 -7.703855829340496 a29.29137065121902,29.29137065121902 0 0,0 0.47008023950929534,-0.18238382979490741 l 2.9324598194501235 7.755482363025955" fill="#ff6a09" stroke="none" /><path d="M 92.57280143429618 80.3572730644239 l -3.2149559808417045 -8.502600527361372 a30.090113183378726,30.090113183378726 0 0,0 0.48605229577647036,-0.17901716249853505 l 3.068121359292665 8.556680957666229" fill="#ff750a" stroke="none" /><path d="M 92.91201910852362 80.23233633223022 l -3.3004652612924525 -9.20466466139097 a30.77849285266692,30.77849285266692 0 0,0 0.5002501665916557,-0.17452746045432452 l 3.1415330906375116 9.260112975017504" fill="#ff7e0b" stroke="none" /><path d="M 93.25333710446033 80.11325718540243 l -1.9621087713815142 -5.78359303182718 a27.107357791101826,27.107357791101826 0 0,0 0.44316293206220553,-0.1461038511212979 l 1.8622630170768995 5.816510607207712" fill="#ff4c07" stroke="none" /><path d="M 93.59665428221793 80.00007090966166 l -1.9212601136136338 -6.00077955023758 a27.30084086727416,27.30084086727416 0 0,0 0.4487928383180836,-0.13944211947702234 l 1.8176819025848214 6.032961804597127" fill="#ff4f07" stroke="none" /><path d="M 94.28887869178378 79.79150937346287 l -1.8079915188286448 -6.397479179534172 a27.64805032958758,27.64805032958758 0 0,0 0.4590920718464735,-0.12548720553912668 l 1.697601557758449 6.4276529258995945" fill="#ff5407" stroke="none" /><path d="M 94.63758080256005 79.69619591428918 l -2.3323288885142266 -8.830930047103397 a30.13373327511985,30.13373327511985 0 0,0 0.5026466150957879,-0.12813581408165867 l 2.1799733847334393 8.869768857353918" fill="#ff750a" stroke="none" /><path d="M 94.98787191387505 79.60689891045804 l -1.807250421546954 -7.353251933595052 a28.57208479119859,28.57208479119859 0 0,0 0.47861822112579505,-0.11327346940594912 l 1.6804085134586249 7.383271315141872" fill="#ff6008" stroke="none" /><path d="M 95.33964822691252 79.52364482259891 l -1.355674081220526 -5.956473962367409 a27.108799741262928,27.108799741262928 0 0,0 0.4558890413377215,-0.0996396868022723 l 1.2529423157292836 5.978927147265549" fill="#ff4c07" stroke="none" /><path d="M 95.692805502759 79.44645832069477 l -1.5314030178797688 -7.307716374537436 a28.46645255886983,28.46645255886983 0 0,0 0.4804508090558884,-0.09637391245006707 l 1.405385799356744 7.3329942430647135" fill="#ff5f08" stroke="none" /><path d="M 96.04723909329186 79.375362276772 l -0.8200641758943541 -4.278914646447506 a25.356789621288623,25.356789621288623 0 0,0 0.4293808620237025,-0.07846660800143282 l 0.7462881927677583 4.292396735799675" fill="#ff3404" stroke="none" /><path d="M 97.11714578562143 79.19881850522333 l -4.6089481167965785 -33.255780260869344 a54.573640307576866,54.573640307576866 0 0,0 0.9316117267607719,-0.12094993956913742 l 4.035821661527949 33.33018852360262" fill="#66ff29" stroke="none" /><path d="M 97.83486435360386 79.11191278185805 l -0.6235076243932418 -6.015272835760058 a27.047501057983318,27.047501057983318 0 0,0 0.4635102859889736,-0.04401588670865038 l 0.5198722113140319 6.0251142669838895" fill="#ff4b07" stroke="none" /><path d="M 98.19473922651362 79.07773832637324 l -0.36041940166683367 -4.177118976203342 a25.192639393801468,25.192639393801468 0 0,0 0.43236544730395177,-0.03355988008677214 l 0.2884637650005477 4.1827041184785765" fill="#ff3104" stroke="none" /><path d="M 98.91598698831166 79.02799685794201 l -0.03905499148352155 -0.7555826316418319 a21.756591306848403,21.756591306848403 0 0,0 0.374171066972716,-0.01611259323359447 l 0.026043092121481422 0.7561429513996187" fill="#ff0000" stroke="none" /><path d="M 99.27714615592234 79.0124445844662 l -0.16551557803147157 -4.805628958786314 a25.808478459564597,25.808478459564597 0 0,0 0.4441188905444449,-0.011470280664407154 l 0.08277005229214761 4.80776603159308" fill="#ff3a05" stroke="none" /></svg>