<?xml version="1.0" encoding="utf-8" ?>
<svg baseProfile="full" height="200mm" version="1.1" viewBox="0,0,200,200" width="200mm" xmlns="http://www.w3.org/2000/svg" xmlns:ev="http://www.w3.org/2001/xml-events" xmlns:xlink="http://www.w3.org/1999/xlink"><defs /><rect fill="#1a1a1a" height="200" width="200" x="0" y="0" /><text alignment-baseline="middle" fill="#e1ed5e" style="dominant-baseline: central; font-size:9.0px; font-family:Arial;" text-anchor="middle" x="100.0" y="100.0">2019</text><line stroke="#e1ed5e" stroke-width="0.3" x1="100.0" x2="100.0" y1="15.0" y2="10.0" /><path d="M 100.0 14.0 a86.0,86.0 0 0,1 42.46469731375804,11.215312516191453" fill="none" id="id37" stroke="none" /><text fill="#e1ed5e" style="font-size:6.75px; font-family:Arial;" text-anchor="middle"><textPath startOffset="22.20632615414155" xlink:href="#id37">January</textPath></text><path d="M 100.36148047927253 79.00311137660856 l 0.23399231776489798 -13.591634725964484 a34.5936487717175,34.5936487717175 0 0,0 0.5952963455963086,0.01537474831145926 l -0.4679152985560744 13.585593185510664" fill="#ff9f0e" stroke="none" /><path d="M 101.80526077348638 79.07773832637324 l 5.388213800351253 -62.44727672594423 a83.67930454659617,83.67930454659617 0 0,0 1.434003766137288,0.13617593658230934 l -6.462342693578786 62.345275244846746" fill="#4dd5ff" stroke="none" /><path d="M 102.88285421437855 79.19881850522331 l 1.6548462652806009 -11.94051275238538 a33.05464063967031,33.05464063967031 0 0,0 0.5629221349299849,0.08296008979941061 l -1.8601373806392416 11.910258178425" fill="#ff8a0c" stroke="none" /><path d="M 103.2404852339499 79.25152402106235 l 2.9802239183018626 -19.082050963512447 a40.31337369744874,40.31337369744874 0 0,0 0.6846953809471062,0.1129806045526809 l -3.308248505387844 19.02792409602014" fill="#ffe915" stroke="none" /><path d="M 103.95276090670814 79.375362276772 l 3.943214365560315 -20.57482596953722 a41.94928168719645,41.94928168719645 0 0,0 0.7080111680318096,0.14202037968392758 l -4.29679194305925 20.503901633776085" fill="#fffe18" stroke="none" /><path d="M 104.307194497241 79.44645832069477 l 3.1569498367833266 -15.064678433111233 a36.39190919168291,36.39190919168291 0 0,0 0.6120032149041392,0.13376019848184473 l -3.415795775840994 15.008104736533516" fill="#ffb710" stroke="none" /><path d="M 105.01212808612495 79.60689891045804 l 0.7685352983736671 -3.1269787525986152 a24.22003767432145,24.22003767432145 0 0,0 0.40400304347755345,0.10298937128543083 l -0.8222472305362456 3.1132863851443164" fill="#ff0c01" stroke="none" /><path d="M 105.36241919743992 79.69619591428918 l 3.7697992003664678 -14.273644336356933 a35.763072466526,35.763072466526 0 0,0 0.5938408979487145,0.16231914987926324 l -4.014937987538893 14.206638645651376" fill="#ffae10" stroke="none" /><path d="M 105.71112130821622 79.79150937346287 l 4.142533180496905 -14.658127262636913 a36.23224461460547,36.23224461460547 0 0,0 0.5987115864336083,0.17478032983265904 l -4.394234984653941 14.584648603885551" fill="#ffb510" stroke="none" /><path d="M 106.40334571778207 80.00007090966166 l 10.423170431447387 -32.55527324513479 a55.1831581032003,55.1831581032003 0 0,0 0.9021583857019618,0.2974274356816663 l -10.982011639391766 32.37103208519389" fill="#68ff28" stroke="none" /><path d="M 106.74666289553966 80.11325718540242 l 3.6721530572196985 -10.824190352395703 a32.43012707105849,32.43012707105849 0 0,0 0.5270945704698601,0.18389294586374016 l -3.857929631752832 10.759376553359756" fill="#ff810b" stroke="none" /><path d="M 107.4271985657038 80.35727306442388 l 5.244920079266999 -13.871250647813973 a35.829726267614575,35.829726267614575 0 0,0 0.5750105212209409,0.223095148909292 l -5.482913765487607 13.778912795014135" fill="#ffaf10" stroke="none" /><path d="M 108.09893153111575 80.62456947434976 l 8.153839493796301 -19.506789262557042 a42.14237275767323,42.14237275767323 0 0,0 0.6668854739347504,0.28552555660617956 l -8.488408725521367 19.36354417798807" fill="#feff18" stroke="none" /><path d="M 108.76106565485865 80.91482961587045 l 14.150674968761917 -30.82593527643363 a54.91872473632257,54.91872473632257 0 0,0 0.8557430162554517,0.401782820393039 l -14.679196196316967 30.577787473400587" fill="#6aff28" stroke="none" /><path d="M 109.08828744355905 81.06846463323043 l 5.540760258556017 -11.541789302448235 a33.80284829812891,33.80284829812891 0 0,0 0.5223807395062074,0.25632996020105264 l -5.738612265072657 11.44470418211235" fill="#ff940d" stroke="none" /><path d="M 109.73455568895987 81.39251694778311 l 11.453162403813309 -21.892578576024878 a45.70748724082532,45.70748724082532 0 0,0 0.694002796070532,0.37071225882200926 l -11.828310246412151 21.692187590701113" fill="#d2ff1c" stroke="none" /><line stroke="#e1ed5e" stroke-width="0.3" x1="143.23703022742887" x2="145.7803849466894" y1="26.81831364943548" y2="22.513508569990506" /><path d="M 143.74570117128098 25.957352633546492 a86.0,86.0 0 0,1 28.547481713284135,27.462654790039103" fill="none" id="id38" stroke="none" /><text fill="#e1ed5e" style="font-size:6.75px; font-family:Arial;" text-anchor="middle"><textPath startOffset="19.985693538727396" xlink:href="#id38">February</textPath></text><path d="M 110.99172775467656 82.1063720568725 l 11.694175404704483 -19.03715489172538 a43.3420456710557,43.3420456710557 0 0,0 0.6323415566961011,0.39597222479197264 l -12.020136113772846 18.833038325610463" fill="#efff19" stroke="none" /><path d="M 111.2981086023043 82.29822771554956 l 4.6295272372739 -7.2535005480624735 a29.604986498618317,29.604986498618317 0 0,0 0.4272041481091685,0.27786546138668183 l -4.753698411167348 7.172736162516264" fill="#ff5a08" stroke="none" /><path d="M 111.60114157652 82.49532879139004 l 17.037364064941883 -25.707250812437305 a51.8404688455758,51.8404688455758 0 0,0 0.7395791002808775,0.49936710991961414 l -17.4773478596293 25.41017179021902" fill="#8cff24" stroke="none" /><path d="M 112.19680574252982 82.90503203632743 l 9.00492084386519 -12.621241707941914 a36.504332996119835,36.504332996119835 0 0,0 0.508374436099818,0.3693556479772594 l -9.220840596318796 12.46436682514798" fill="#ffb811" stroke="none" /><path d="M 112.77801427241765 83.33499621200491 l 13.219489058603408 -17.240772356353254 a42.725540785309114,42.725540785309114 0 0,0 0.579780389858147,0.45252779060843756 l -13.514302003620985 17.01066617652159" fill="#f6ff19" stroke="none" /><path d="M 113.06298171725822 83.55741782278167 l 13.513751325439792 -17.009973029164925 a42.72465551714788,42.72465551714788 0 0,0 0.5718931173034825,0.46243112835896555 l -13.804547841307766 16.774835803541833" fill="#f6ff19" stroke="none" /><path d="M 113.34407831869373 83.78471172551755 l 9.664596459544967 -11.74410205825329 a36.209482498774186,36.209482498774186 0 0,0 0.4778659602450482,0.40019899901591627 l -9.865319956749131 11.576001901843554" fill="#ffb410" stroke="none" /><path d="M 113.89432698308785 84.25364557470405 l 17.333399638638816 -19.643834094125104 a47.19784267740907,47.19784267740907 0 0,0 0.6045571947331476,0.5427774185973885 l -17.668967820967953 19.34255766675842" fill="#c1ff1e" stroke="none" /><path d="M 114.94478906791727 85.2469230424477 l 24.056825908114934 -23.748224371982975 a54.80397955264137,54.80397955264137 0 0,0 0.6569581021278063,0.6770530724902191 l -24.46204827394585 23.330607103942643" fill="#6cff28" stroke="none" /><path d="M 115.19652480421416 85.50635884689758 l 22.257826736514453 -21.228337249678916 a51.75797706967744,51.75797706967744 0 0,0 0.6093458704917964,0.6500076892284904 l -22.61993992897671 20.842060143572372" fill="#8dff24" stroke="none" /><path d="M 115.68641384162765 86.03803664274999 l 20.576914609911427 -18.31483796675324 a48.54709974955644,48.54709974955644 0 0,0 0.5502192733377257,0.6289957444437179 l -20.889125746827 17.957926666106577" fill="#b1ff20" stroke="none" /><path d="M 116.15771136456269 86.58626213691792 l 11.44760719624992 -9.503524269334806 a35.878329343628224,35.878329343628224 0 0,0 0.39039296937134654,0.4785756198649743 l -11.609498657697676 9.30506447986173" fill="#ffb010" stroke="none" /><path d="M 116.60985879189232 87.15038557335679 l 36.28325454165888 -28.069223034674078 a66.8732584618216,66.8732584618216 0 0,0 0.6965138372005608,0.916530565321655 l -36.76104431908355 27.44050769347139" fill="#37ff7a" stroke="none" /><path d="M 117.04232023915458 87.72973835380427 l 12.381550281542605 -8.914564414240393 a36.25687537046852,36.25687537046852 0 0,0 0.36030249215048565,0.5096223233397718 l -12.533165393496974 8.70011559056883" fill="#ffb510" stroke="none" /><path d="M 117.2510076193507 88.02491185347247 l 20.65072157320942 -14.335058947582116 a46.13854046130903,46.13854046130903 0 0,0 0.4472703822702738,0.656314095715265 l -20.894416421148428 13.977466828596445" fill="#cdff1d" stroke="none" /><path d="M 117.65298651832404 88.62581576622439 l 18.597310172272113 -11.98263149028761 a43.12336780591346,43.12336780591346 0 0,0 0.39667831509705104,0.6274498319801108 l -18.80081608361512 11.660734010593293" fill="#f2ff19" stroke="none" /><line stroke="#e1ed5e" stroke-width="0.3" x1="172.23445277983987" x2="176.4835382374775" y1="55.19839476539836" y2="52.563006222186495" /><path d="M 173.08426987136738 54.67131705675599 a86.0,86.0 0 0,1 12.851231095245387,41.99856678651699" fill="none" id="id39" stroke="none" /><text fill="#e1ed5e" style="font-size:6.75px; font-family:Arial;" text-anchor="middle"><textPath startOffset="22.20632615414155" xlink:href="#id39">March</textPath></text><path d="M 118.03404312379186 89.2402003453031 l 13.725147892476851 -8.188948010183362 a36.98244518788811,36.98244518788811 0 0,0 0.32146607540383143,0.5494897276245098 l -13.864073642351007 7.951478870204957" fill="#ffbf11" stroke="none" /><path d="M 119.196687751892 91.48605970444005 l 28.154992108789113 -12.487045939087396 a51.79983598870059,51.79983598870059 0 0,0 0.35448179334293917,0.8181928527488412 l -28.365764611974733 12.000553941751953" fill="#8cff24" stroke="none" /><path d="M 119.47837535516314 92.15188598940014 l 12.947237316305356 -5.2166257569178205 a34.95865818810921,34.95865818810921 0 0,0 0.2200838142832831,0.5600893016617847 l -13.03511468047034 4.992987450360251" fill="#ffa40f" stroke="none" /><path d="M 119.61058180528143 92.48833698450437 l 8.738437454219442 -3.347182561427326 a30.357559523766245,30.357559523766245 0 0,0 0.18271696324251618,0.4895906203311638 l -8.794759005963583 3.196268804066829" fill="#ff6509" stroke="none" /><path d="M 120.18372546131832 94.20196356495316 l 30.107849771089075 -8.648869619646984 a52.32547786604573,52.32547786604573 0 0,0 0.24122849970810356,0.8678272611402643 l -30.25226504136354 8.129331055087768" fill="#86ff25" stroke="none" /><path d="M 120.78858239683441 97.02765380044208 l 11.70182531802413 -1.6731239941216964 a32.82083159821069,32.82083159821069 0 0,0 0.07515032845195059,0.5599572361820656 l -11.728891645533917 1.4714484158749663" fill="#ff870c" stroke="none" /><path d="M 120.83666639777658 97.38593545837742 l 7.127283241322572 -0.8941535101425938 a28.183152295596823,28.183152295596823 0 0,0 0.056245045902597886,0.48187320502277814 l -7.141618640228759 0.771336566794963" fill="#ff4606" stroke="none" /><path d="M 120.98425023603335 99.18683210126433 l 62.95275070810006 -2.4395036962070047 a84.0,84.0 0 0,0 0.04355322217741975,1.4453194103000038 l -62.98541562473312 1.355514138482002" fill="#4dd2ff" stroke="none" /><line stroke="#e1ed5e" stroke-width="0.3" x1="184.98032266829074" x2="189.97916517819016" y1="98.17113171792111" y2="98.06355123074" /><path d="M 185.9800911702706 98.14961562048488 a86.0,86.0 0 0,1 -9.607161424134198,41.387399972396054" fill="none" id="id40" stroke="none" /><text fill="#e1ed5e" style="font-size:6.75px; font-family:Arial;" text-anchor="middle"><textPath startOffset="21.466115282336823" xlink:href="#id40">April</textPath></text><path d="M 120.81339534386255 102.79330883721812 l 4.435826805446445 0.5953201777660125 a25.47559667105656,25.47559667105656 0 0,0 -0.062070622837758126,0.43412179155897146 l -4.424922131592085 -0.6715874413053933" fill="#ff1f03" stroke="none" /><path d="M 120.32669344350535 105.2749913415812 l 8.716339484469882 2.2619820306067444 a30.005061727457313,30.005061727457313 0 0,0 -0.1340396457207851,0.49881138569917594 l -8.67611176240732 -2.4116843494814684" fill="#ff6008" stroke="none" /><line stroke="#e1ed5e" stroke-width="0.3" x1="174.80103733775053" x2="179.2010983576182" y1="140.37084112569926" y2="142.7455964860345" /><path d="M 175.68104954172406 140.8457921977663 a86.0,86.0 0 0,1 -30.038265399797805,32.042727171017184" fill="none" id="id41" stroke="none" /><text fill="#e1ed5e" style="font-size:6.75px; font-family:Arial;" text-anchor="middle"><textPath startOffset="22.206326154141568" xlink:href="#id41">May</textPath></text><path d="M 118.12598468904814 110.60418214915192 l 9.369384081495873 5.4813383730583 a31.854972520764374,31.854972520764374 0 0,0 -0.2809595292834768,0.4709043318410373 l -9.273643676514169 -5.641804798785441" fill="#ff7a0b" stroke="none" /><path d="M 117.35343817320211 111.8261652097733 l 9.529748720268538 6.4944123261728 a32.53228087300188,32.53228087300188 0 0,0 -0.31934166033843786,0.4600354793440002 l -9.416546152767964 -6.657489067703819" fill="#ff830c" stroke="none" /><path d="M 116.71984013943494 112.70617746262583 l 10.617184230673477 8.068487848167242 a34.335107691506806,34.335107691506806 0 0,0 -0.36165198816403665,0.4674839458806244 l -10.47672542529137 -8.25004978816112" fill="#ff9b0e" stroke="none" /><path d="M 116.27256486870786 113.27417163493432 l 9.830576531895536 8.019188198516655 a33.68651308723891,33.68651308723891 0 0,0 -0.3703976486419983,0.44616782868119753 l -9.691082883359995 -8.187217284311624" fill="#ff930d" stroke="none" /><path d="M 115.80600337817218 113.82643327865902 l 11.066437579187168 9.680458567557919 a35.70296972629174,35.70296972629174 0 0,0 -0.4086139435708417,0.45908209728850646 l -10.898164785967992 -9.869514834587292" fill="#ffae10" stroke="none" /><path d="M 115.32070863581623 114.36230785411682 l 10.628441187728361 9.963569438992673 a35.5683382047037,35.5683382047037 0 0,0 -0.4225746362100408,0.44306781663509587 l -10.455360000139356 -10.145044372210275" fill="#ffac0f" stroke="none" /><path d="M 114.81725581225074 114.88116024355365 l 14.203375734549248 14.264632600219848 a41.12996834264866,41.12996834264866 0 0,0 -0.5059966323859694,0.49522420296364694 l -13.955729149787484 -14.507006906106067" fill="#fff417" stroke="none" /><path d="M 114.0293411484842 115.62618273729858 l 10.756300869685935 11.980599886206074 a37.10070750099409,37.10070750099409 0 0,0 -0.47887764193906524,0.4225538408625259 l -10.548480874840283 -12.163976868840887" fill="#ffc011" stroke="none" /><path d="M 113.75828350139079 115.86535959552629 l 10.56394172219723 12.181805539324724 a37.12430621477718,37.12430621477718 0 0,0 -0.4863894427528801,0.4145116351076154 l -10.352686802867304 -12.361841564655288" fill="#ffc011" stroke="none" /><path d="M 113.20401910651253 116.32954008644616 l 10.143497486947705 12.544562946609311 a37.13247038705349,37.13247038705349 0 0,0 -0.5004794057119205,0.3976111085360611 l -9.926060588518434 -12.717307969150498" fill="#ffc011" stroke="none" /><path d="M 112.63410532772338 116.77436683061366 l 17.36447576099008 23.054904061705678 a49.8626682714621,49.8626682714621 0 0,0 -0.6900400387962035,0.5104751241739776 l -16.965050751775312 -23.350389134619423" fill="#a2ff22" stroke="none" /><path d="M 112.04921762599082 117.19931262002967 l 9.976591978489369 14.240802153858425 a38.38772076755885,38.38772076755885 0 0,0 -0.5444532545541223,0.37447991307215656 l -9.729981839312362 -14.410422856295677" fill="#ffd113" stroke="none" /><path d="M 111.7513745106137 117.40417183066458 l 6.431367706155005 9.525066924129817 a32.49301485602996,32.49301485602996 0 0,0 -0.46623654715904994,0.3089961603551606 l -6.266456460255991 -9.634361105576296" fill="#ff820c" stroke="none" /><path d="M 111.45004920935366 117.60387380957326 l 9.577817101774427 14.725411266623473 a38.56622661262925,38.56622661262925 0 0,0 -0.559611003583338,0.3571702195651249 l -9.322924296144159 -14.888095915012405" fill="#ffd313" stroke="none" /><line stroke="#e1ed5e" stroke-width="0.3" x1="143.8653032363475" x2="146.44561519142675" y1="172.8068346515853" y2="177.08958963109032" /><path d="M 144.38136562736335 173.6633856474863 a86.0,86.0 0 0,1 -40.68145358897372,12.25698825130547" fill="none" id="id42" stroke="none" /><text fill="#e1ed5e" style="font-size:6.75px; font-family:Arial;" text-anchor="middle"><textPath startOffset="21.466115282336833" xlink:href="#id42">June</textPath></text><path d="M 110.8373102113329 117.98757091392108 l 1.6725431143900171 2.7760567234866125 a24.240970749869348,24.240970749869348 0 0,0 -0.3592651873724073,0.21226020526054443 l -1.6245100559892278 -2.8044355010409063" fill="#ff0c01" stroke="none" /><path d="M 109.89434966115114 118.52300852407294 l 8.513119577551315 15.937236089460086 a39.06844484489123,39.06844484489123 0 0,0 -0.5959037289504998,0.31174866683736707 l -8.23752494607432 -16.08141417524217" fill="#ffda14" stroke="none" /><path d="M 109.57404056367764 118.69057910512821 l 6.915609455107783 13.50075182167536 a36.16891406416579,36.16891406416579 0 0,0 -0.5565639639615819,0.2790727256086996 l -6.682191583463441 -13.617792388193362" fill="#ffb410" stroke="none" /><path d="M 109.2508944713604 118.85261126421891 l 6.703234232232804 13.660675687580946 a36.21668194493934,36.21668194493934 0 0,0 -0.562026564424782,0.2698069052219693 l -6.467094999807789 -13.774036869302474" fill="#ffb410" stroke="none" /><path d="M 108.92500713936063 119.00905698771935 l 6.273575127157182 13.361865738228724 a35.76134143235417,35.76134143235417 0 0,0 -0.5594640559436638,0.25682250810460866 l -6.042643075446099 -13.467875316667406" fill="#ffae10" stroke="none" /><path d="M 108.2653958097858 119.30500536409082 l 8.634600686855672 20.167335771044076 a42.938043694082715,42.938043694082715 0 0,0 -0.6819553831105548,0.2850574054484311 l -8.286173844247655 -20.31297821951248" fill="#f4ff19" stroke="none" /><path d="M 107.93186726928326 119.44442032107085 l 3.2968415761484384 8.081977567484508 a29.728546601785645,29.728546601785645 0 0,0 -0.47548534492604744,0.18920543164523276 l -3.1572351551805244 -8.137529843535809" fill="#ff5c08" stroke="none" /><path d="M 107.59598834532513 119.57807347666477 l 6.941779002574864 17.891899406983917 a40.1913616012575,40.1913616012575 0 0,0 -0.6471379155036746,0.24469218625323488 l -6.632770866310915 -18.008739843343783" fill="#ffe815" stroke="none" /><path d="M 106.91757812671514 119.82793768551818 l 6.881804781027683 19.725400112960234 a41.8914012612976,41.8914012612976 0 0,0 -0.6828902181625617,0.23167343891139547 l -6.541244829927894 -19.84093653876975" fill="#fffd17" stroke="none" /><path d="M 106.57524785965236 119.94407469862006 l 3.3259330363342356 10.088236722800174 a31.622351469304405,31.622351469304405 0 0,0 -0.5184238394720784,0.16598294211369857 l -3.151787851771217 -10.143992511573579" fill="#ff760a" stroke="none" /><path d="M 105.88484417918355 120.15858648285463 l 7.03952114652821 24.113942784099457 a46.12045171901254,46.12045171901254 0 0,0 -0.763993698380039,0.21591225048898557 l -6.623396280043565 -24.231543827926963" fill="#cdff1d" stroke="none" /><path d="M 105.18746579009965 120.34920634021253 l 3.9001854685669803 15.299508869328523 a36.788806741862516,36.788806741862516 0 0,0 -0.6149804649975069,0.15114723589601092 l -3.636251718826262 -15.364377363538566" fill="#ffbc11" stroke="none" /><path d="M 104.48393922423573 120.51570834832081 l 4.438419009874134 20.307436247586736 a41.78681144997981,41.78681144997981 0 0,0 -0.7040252709830233,0.14753534064398535 l -4.088202277461733 -20.38082756895726" fill="#fffc17" stroke="none" /><path d="M 104.13013068566511 120.58985236759428 l 2.616178404233453 13.042378367690949 a34.3021811342648,34.3021811342648 0 0,0 -0.5799231044519767,0.11114364319684278 l -2.3912876852097718 -13.08547920923626" fill="#ff9b0e" stroke="none" /><path d="M 103.7750983002368 120.6578951692458 l 3.0215634399739764 16.534441178999927 a37.808259598292615,37.808259598292615 0 0,0 -0.6412119306087455,0.11148291323681384 l -2.736502537893181 -16.584002670757744" fill="#ffc912" stroke="none" /><path d="M 103.41894727170886 120.7198165907248 l 3.1839169567778773 19.295464405206523 a40.55638703340291,40.55638703340291 0 0,0 -0.6897755690449564,0.10772875793376696 l -2.8513055241244034 -19.347411470487398" fill="#ffec16" stroke="none" /><path d="M 102.70371172650421 120.8252237178851 l 2.4760359584769054 19.071560870684912 a40.23161948749794,40.23161948749794 0 0,0 -0.687524998109271,0.08324970254057576 l -2.147383537316254 -19.11135610195084" fill="#ffe815" stroke="none" /><path d="M 102.34483914955558 120.86867818915974 l 1.9801922664305178 17.62338161601975 a38.734281519021124,38.734281519021124 0 0,0 -0.6632183346734295,0.0687452921250649 l -1.6765413351514857 -17.654856276600576" fill="#ffd513" stroke="none" /><path d="M 101.98527174616119 120.90594882070398 l 1.6799903478149656 17.69117618210676 a38.77076481964389,38.77076481964389 0 0,0 -0.6649291073952894,0.05737288126183454 l -1.3752169226781346 -17.717473315647254" fill="#ffd614" stroke="none" /><path d="M 101.62511606390274 120.93702456842531 l 1.6063698618727702 20.69550969992822 a41.75775869098001,41.75775869098001 0 0,0 -0.7171144195416504,0.049456408949245426 l -1.2498926815521894 -20.720094453393752" fill="#fffc17" stroke="none" /><path d="M 100.90346689309514 120.98055641714683 l 1.339852554189837 31.1144241351607 a52.143259208529216,52.143259208529216 0 0,0 -0.8970618261616611,0.030896623097722405 l -0.8040703763535235 -31.13287755668452" fill="#88ff25" stroke="none" /><line stroke="#e1ed5e" stroke-width="0.3" x1="102.19456741930631" x2="102.32365962044197" y1="184.97166512339345" y2="189.96999836594603" /><path d="M 102.22038585953345 185.97133177190398 a86.0,86.0 0 0,1 -42.740103519485714,-10.115201625700543" fill="none" id="id43" stroke="none" /><text fill="#e1ed5e" style="font-size:6.75px; font-family:Arial;" text-anchor="middle"><textPath startOffset="22.20632615414155" xlink:href="#id43">July</textPath></text><path d="M 100.18074693466247 120.99922214144158 l 0.1812963261048432 21.06305057074634 a42.06383079365377,42.06383079365377 0 0,0 -0.7240865215345827,0.0 l 0.18129632610482868 -21.06305057074634" fill="#ffff18" stroke="none" /><path d="M 99.45781275523022 120.99299961872073 l -0.5693426058032032 22.044430631383037 a43.05178162563382,43.05178162563382 0 0,0 -0.740653929785193,-0.02550961889921683 l 0.9487168872630392 -22.031364214057724" fill="#f2ff19" stroke="none" /><path d="M 98.73552117531835 120.96189622390904 l -0.9259425579456154 15.349811661609678 a36.3777139935526,36.3777139935526 0 0,0 -0.6247218258956424,-0.04308447474917869 l 1.1900271446201878 -15.331598842344215" fill="#ffb710" stroke="none" /><path d="M 98.37488393609728 120.93702456842531 l -1.8570539265409753 23.92517343746261 a44.9971367729308,44.9971367729308 0 0,0 -0.7717130711491456,-0.06658665097800358 l 2.2686113154316625 -23.889662534205943" fill="#dbff1b" stroke="none" /><path d="M 97.65516085044442 120.86867818915974 l -2.150205705835115 19.136472932086903 a40.25689437209179,40.25689437209179 0 0,0 -0.6879569249171716,-0.0833020028618447 l 2.479290053803676 -19.09662540049971" fill="#ffe915" stroke="none" /><path d="M 97.2962882734958 120.8252237178851 l -1.8934564550909654 14.584267209702407 a35.706666086891566,35.706666086891566 0 0,0 -0.608835058559746,-0.08437899139868871 l 2.1442201048375424 -14.549513652811113" fill="#ffae10" stroke="none" /><path d="M 96.58105272829116 120.7198165907248 l -3.1726667482774555 19.227284863900127 a40.487285535271155,40.487285535271155 0 0,0 -0.6866470659853151,-0.11938239391285214 l 3.503162785734821 -19.16982389146627" fill="#ffec16" stroke="none" /><path d="M 96.22490169976321 120.6578951692458 l -3.387476213176198 18.536769889069703 a39.843747849489915,39.843747849489915 0 0,0 -0.6736105163527762,-0.12909905866554722 l 3.7060543441006693 -18.475713632055687" fill="#ffe315" stroke="none" /><path d="M 95.51606077576429 120.51570834832081 l -4.727602236655647 21.63055827114346 a43.141166952745834,43.141166952745834 0 0,0 -0.7241139086914963,-0.16480596810569645 l 5.099236294740006 -21.545975569460076" fill="#f1ff19" stroke="none" /><path d="M 94.81253420990036 120.34920634021253 l -3.7893940240567003 14.864900130438633 a36.340298659330955,36.340298659330955 0 0,0 -0.6048229377390949,-0.1597392350070334 l 4.044707404607284 -14.797469546128017" fill="#ffb610" stroke="none" /><path d="M 94.46302465271185 120.25689768951611 l -5.853112296228549 21.41347748785274 a43.19900767320553,43.19900767320553 0 0,0 -0.7155994446818014,-0.20223555099672905 l 6.220842909014964 -21.30955314351749" fill="#f1ff19" stroke="none" /><path d="M 93.76903079525671 120.05430185196036 l -10.744958811439211 34.58252485463227 a57.213328557049046,57.213328557049046 0 0,0 -0.9379679904043302,-0.3003077304745921 l 11.338648146934482 -34.39244427749797" fill="#52ff2b" stroke="none" /><path d="M 93.42475214034765 119.94407469862007 l -0.847802529007452 2.5715588718654976 a23.707708285554702,23.707708285554702 0 0,0 -0.3864698147066803,-0.1311115441797592 l 0.891942076651358 -2.5565843407876154" fill="#ff0400" stroke="none" /><path d="M 92.7421414339146 119.70592522655815 l -5.148773000965936 13.979514045598213 a35.8975392721937,35.8975392721937 0 0,0 -0.578001287112187,-0.21855062918170573 l 5.388644508838406 -13.888815166309875" fill="#ffb010" stroke="none" /><path d="M 90.42595943632237 118.69057910512821 l -8.298148746364536 16.19976482640576 a39.20141898445406,39.20141898445406 0 0,0 -0.5979319587900562,-0.3128097408293608 l 8.575771607681087 -16.054525666631683" fill="#ffdb14" stroke="none" /><line stroke="#e1ed5e" stroke-width="0.3" x1="58.666819895761336" x2="56.23545636021788" y1="174.27360380694188" y2="178.64263932499728" /><path d="M 58.180547188652646 175.14741091055294 a86.0,86.0 0 0,1 -31.652253787137756,-30.449443065178592" fill="none" id="id44" stroke="none" /><text fill="#e1ed5e" style="font-size:6.75px; font-family:Arial;" text-anchor="middle"><textPath startOffset="22.20632615414155" xlink:href="#id44">August</textPath></text><path d="M 89.7882731507175 118.34994917583269 l -10.818748999386944 19.44073683275127 a43.248316307352965,43.248316307352965 0 0,0 -0.6473886457046698,-0.3676041688368975 l 11.151786412012822 -19.251629498119737" fill="#f0ff19" stroke="none" /><path d="M 89.4739219176387 118.17145234162733 l -6.158874120056519 10.63223041621056 a33.28723134192951,33.28723134192951 0 0,0 -0.4933359941961661,-0.2914716011210594 l 6.340977985281067 -10.52464024279575" fill="#ff8d0d" stroke="none" /><path d="M 89.1626897886671 117.98757091392108 l -12.584704873152582 20.887864878120777 a45.38601435066792,45.38601435066792 0 0,0 -0.6657064977226881,-0.4089313028494814 l 12.942390570807579 -20.668145108442918" fill="#d6ff1c" stroke="none" /><path d="M 88.8546689885994 117.79835938074946 l -4.961865434412873 7.9237722154921295 a30.34913229728975,30.34913229728975 0 0,0 -0.4403777572890308,-0.28106992045430135 l 5.097524993748827 -7.837187866214024" fill="#ff6509" stroke="none" /><path d="M 88.24862548938628 117.40417183066458 l -10.673352688044664 15.80758608486504 a40.07354805571866,40.07354805571866 0 0,0 -0.5683633522442605,-0.39092549628734785 l 10.943872924911819 -15.621519799212594" fill="#ffe615" stroke="none" /><path d="M 87.95078237400918 117.19931262002967 l -8.740487072237514 12.476359401333255 a36.23337317113934,36.23337317113934 0 0,0 -0.507737692577129,-0.36225736238192485 l 8.953952092663528 -12.324057777107113" fill="#ffb510" stroke="none" /><path d="M 87.65650970185807 116.9893568818739 l -22.074394843540855 30.38279796799174 a58.55520363508027,58.55520363508027 0 0,0 -0.8103343922169449,-0.5994660110028176 l 22.594114206176364 -29.998322008249154" fill="#44ff2d" stroke="none" /><path d="M 87.07902340077011 116.55440617244103 l -13.564169114216735 17.378466959053775 a43.0453577336816,43.0453577336816 0 0,0 -0.5801745704675952,-0.46092576732485524 l 13.861301177401689 -17.14240727772379" fill="#f3ff19" stroke="none" /><path d="M 86.51685102203217 116.09983520530335 l -9.410520963569667 11.236828796974336 a35.656883236837764,35.656883236837764 0 0,0 -0.4671637893388047,-0.3981271161765026 l 9.602550229485528 -11.073177290574883" fill="#ffad10" stroke="none" /><path d="M 86.24171649860922 115.8653595955263 l -11.428383560110783 13.178636329047151 a38.44374977722083,38.44374977722083 0 0,0 -0.49621296952673194,-0.43785025191466426 l 11.653538882544101 -12.979962935360199" fill="#ffd213" stroke="none" /><path d="M 85.97065885151581 115.62618273729859 l -8.183665619158564 9.115143261003123 a33.249825289970815,33.249825289970815 0 0,0 -0.4225901595257859,-0.38602609121082887 l 8.339355328151207 -8.972924403205715" fill="#ff8d0d" stroke="none" /><path d="M 85.70375840098266 115.38237550388516 l -14.996918107390398 16.136284780242555 a43.029236011011854,43.029236011011854 0 0,0 -0.5382018273158639,-0.508903420591435 l 15.272455769097077 -15.87574672290519" fill="#f3ff19" stroke="none" /><path d="M 84.9287848128048 114.62390073753433 l -23.16209409790531 22.47464194187741 a53.27370653358265,53.27370653358265 0 0,0 -0.6329257506613761,-0.6636201191646469 l 23.545526399945643 -22.072614706130263" fill="#7cff26" stroke="none" /><path d="M 84.67929136418377 114.36230785411682 l -7.541879144069939 7.070090074844943 a31.33760681638541,31.33760681638541 0 0,0 -0.36553615973766956,-0.3967173071269038 l 7.66246171180334 -6.939221512916697" fill="#ff720a" stroke="none" /><path d="M 84.4343377721795 114.09645910891817 l -15.182586440984608 13.74954086761794 a41.483183471039496,41.483183471039496 0 0,0 -0.4747674302704221,-0.5334062408837812 l 15.417012720903363 -13.486160456993293" fill="#fff817" stroke="none" /><path d="M 84.19399662182784 113.82643327865904 l -8.99796085023327 7.871041297608739 a32.95477271097167,32.95477271097167 0 0,0 -0.3698113826063281,-0.4301741853335235 l 9.132114742410378 -7.714990013113686" fill="#ff890c" stroke="none" /><path d="M 83.95833913139862 113.55231037782056 l -16.77817013327188 14.17452787965615 a42.96415793132452,42.96415793132452 0 0,0 -0.47240932988327033,-0.5690474702944968 l 17.01967546304868 -13.883619152247892" fill="#f4ff19" stroke="none" /><path d="M 83.50135304334701 112.99209946851258 l -25.515956394393356 20.092910914522612 a53.47751683456611,53.47751683456611 0 0,0 -0.563279150281524,-0.7281142325324496 l 25.85804236189295 -19.65071868787691" fill="#7aff26" stroke="none" /><path d="M 83.28015986056508 112.70617746262583 l -10.180098265701554 7.736326069642978 a33.78613083599481,33.78613083599481 0 0,0 -0.3478985778690307,-0.4660669978286282 l 10.311758110265671 -7.559946192305044" fill="#ff940d" stroke="none" /><path d="M 83.06392112726016 112.41649034213515 l -8.98495484207956 6.587215722097858 a32.140952584212094,32.140952584212094 0 0,0 -0.3232770799087159,-0.44900358938076906 l 9.097011714363882 -6.431578527265949" fill="#ff7d0b" stroke="none" /><path d="M 82.85270091963577 112.12312394758628 l -16.21098085937782 11.46114786644356 a40.85330730230099,40.85330730230099 0 0,0 -0.401022081272519,-0.5777022177132143 l 16.405863847812473 -11.180404386543335" fill="#fff016" stroke="none" /><path d="M 82.6465618267979 111.8261652097733 l -10.019717256176909 6.828320154431942 a33.12520886521757,33.12520886521757 0 0,0 -0.31705067212046073,-0.4739477368199949 l 10.135771033708101 -6.654835503406123" fill="#ff8b0c" stroke="none" /><path d="M 82.44556493220864 111.52570212397912 l -18.461754241208265 12.121419985806831 a43.08540676861281,43.08540676861281 0 0,0 -0.40171014784362413,-0.6234630702656984 l 18.667669252428936 -11.801835315619686" fill="#f2ff19" stroke="none" /><path d="M 82.05923443525364 110.91462005526583 l -17.332767879065788 10.544732621547599 a41.28832739309736,41.28832739309736 0 0,0 -0.3641613258873428,-0.6103553287075174 l 17.511710080651362 -10.24481519895397" fill="#fff617" stroke="none" /><line stroke="#e1ed5e" stroke-width="0.3" x1="26.63291911575756" x2="22.317208475507996" y1="142.92168965132927" y2="145.44649492493687" /><path d="M 25.769776987707644 143.4266507060508 a86.0,86.0 0 0,1 -11.730757126820373,-40.83630448921669" fill="none" id="id45" stroke="none" /><text fill="#e1ed5e" style="font-size:6.75px; font-family:Arial;" text-anchor="middle"><textPath startOffset="21.46611528233685" xlink:href="#id45">September</textPath></text><path d="M 81.69416730710424 110.29060199501025 l -12.681114339757817 7.128673287520469 a35.54746176273439,35.54746176273439 0 0,0 -0.29525313883528836,-0.535970209057515 l 12.801943888044622 -6.909332560065131" fill="#ffac0f" stroke="none" /><path d="M 81.51974371655577 109.97397251340807 l -17.120260861660057 9.239969870415061 a40.454572089292206,40.454572089292206 0 0,0 -0.3254618326343547,-0.6156511338501748 l 17.2767752025193 -8.94390372147876" fill="#ffeb16" stroke="none" /><path d="M 81.35079622478065 109.6543875284942 l -10.122926017641142 5.240473098719977 a32.39895563010242,32.39895563010242 0 0,0 -0.252127639362241,-0.4974717518170527 l 10.21163232678965 -5.065447135200239" fill="#ff810b" stroke="none" /><path d="M 81.18737489456691 109.33194174019688 l -19.6918351345986 9.76807102697036 a42.98143722680911,42.98143722680911 0 0,0 -0.3230704710605097,-0.6656208606972936 l 19.857058862273828 -9.42766121030778" fill="#f3ff19" stroke="none" /><path d="M 80.87730276802145 108.67885076344099 l -35.34720746003024 16.04235713866658 a59.81729379782862,59.81729379782862 0 0,0 -0.417464652062862,-0.9412725829522673 l 35.61811319682438 -15.43153621922162" fill="#38ff2e" stroke="none" /><path d="M 80.73074385275274 108.34839909993369 l -17.810946325031278 7.716586833067769 a40.41070635874491,40.41070635874491 0 0,0 -0.2710384923788113,-0.6406549325071772 l 17.941135798602396 -7.408857374894432" fill="#ffeb16" stroke="none" /><path d="M 80.32549172779594 107.34259656027581 l -11.800339171227105 4.4039286070062245 a33.59534008002978,33.59534008002978 0 0,0 -0.19753378300773716,-0.5435281334532766 l 11.874397215240066 -4.20015267654683" fill="#ff910d" stroke="none" /><path d="M 80.20201598880116 107.00284435728193 l -14.06165982857012 4.973820320736659 a35.91540028686443,35.91540028686443 0 0,0 -0.20114192305140288,-0.5846125808345124 l 14.145192582564752 -4.73103503681285" fill="#ffb010" stroke="none" /><path d="M 80.0844068197444 106.66101706037122 l -12.86944947843742 4.304346938480545 a34.570192793208946,34.570192793208946 0 0,0 -0.18389325804112627,-0.5659652528706975 l 12.941634987494796 -4.082182785632043" fill="#ff9e0e" stroke="none" /><path d="M 79.76711848015287 105.62410040840567 l -23.273597471859663 6.469323161812503 a45.15600301072419,45.15600301072419 0 0,0 -0.20172245272155934,-0.7506842891712608 l 23.381508000922995 -6.067747939465703" fill="#d9ff1c" stroke="none" /><path d="M 79.67330655649465 105.27499134158121 l -14.352000886089451 3.724495605687261 a35.82740020877214,35.82740020877214 0 0,0 -0.14977335126442706,-0.5982700876183076 l 14.41398555164894 -3.4768976786715613" fill="#ffaf10" stroke="none" /><path d="M 79.58551787078972 104.9243191809786 l -22.45308152591406 5.416063916308225 a44.09706947547414,44.09706947547414 0 0,0 -0.17164140490696414,-0.7394266800662815 l 22.54298349675158 -5.028768578893369" fill="#e6ff1a" stroke="none" /><path d="M 79.50377843672027 104.57218783832718 l -11.810919195689573 2.634716888635922 a33.1012208198335,33.1012208198335 0 0,0 -0.11926836632034557,-0.557182100965005 l 11.854521600734358 -2.4310209682547534" fill="#ff8b0c" stroke="none" /><path d="M 79.4281124754447 104.21870165774334 l -22.886236166504624 4.693307910608257 a44.362511530501216,44.362511530501216 0 0,0 -0.14696680478784474,-0.7493805713445181 l 22.963632904268135 -4.298663612195784" fill="#e2ff1b" stroke="none" /><path d="M 79.29508885075956 103.50808413554451 l -31.074311379306938 5.264997178059177 a52.517186152686534,52.517186152686534 0 0,0 -0.14334252267397649,-0.8925940255219891 l 31.160335656342205 -4.7293239228439745" fill="#84ff25" stroke="none" /><path d="M 79.23777060512086 103.15116336523772 l -11.55310865504473 1.7534597107075132 a32.685415720133534,32.685415720133534 0 0,0 -0.0796371577732193,-0.5569820959834657 l 11.581579863834548 -1.554332142743647" fill="#ff850c" stroke="none" /><path d="M 79.18660465613746 102.79330883721812 l -17.559783558296854 2.3566505023646678 a38.71721762028474,38.71721762028474 0 0,0 -0.08296268376543581,-0.661294217323183 l 17.597747751309136 -2.054038530754076" fill="#ffd513" stroke="none" /><path d="M 79.1416061653843 102.43462659150553 l -20.266604691788203 2.365551973626709 a41.404193242398506,41.404193242398506 0 0,0 -0.07653407094645763,-0.708610444795775 l 20.304321064235715 -2.016345206946152" fill="#fff717" stroke="none" /><path d="M 79.10278846688536 102.07522291339032 l -14.915096660113532 1.4811617471283574 a35.9884605113963,35.9884605113963 0 0,0 -0.05591133588337314,-0.6169769324565549 l 14.93838259227398 -1.2242034261232364" fill="#ffb110" stroke="none" /><path d="M 79.07016306316243 101.71520430193888 l -21.697708590753656 1.7781315367811026 a42.77044578899019,42.77044578899019 0 0,0 -0.05381630310502893,-0.7342806986161887 l 21.72510145252302 -1.4043777016681533" fill="#f6ff19" stroke="none" /><path d="M 79.04373962182676 101.35467743843564 l -16.977770324539602 1.097495545414712 a38.013206096001504,38.013206096001504 0 0,0 -0.03658979093640562,-0.6533352968008145 l 16.994146466363542 -0.80508853227846" fill="#ffcc13" stroke="none" /><path d="M 79.0095281055655 100.63252640178507 l -20.078569239649234 0.6050471479640825 a41.0876834095584,41.0876834095584 0 0,0 -0.015217972665609734,-0.7071193918954938 l 20.08600927499985 -0.2593379402784599" fill="#fff316" stroke="none" /><line stroke="#e1ed5e" stroke-width="0.3" x1="15.007084014347285" x2="10.007500721073583" y1="101.09737516637583" y2="101.16192664675087" /><path d="M 14.007167355692545 101.11028546245083 a86.0,86.0 0 0,1 10.666146001902534,-42.60595125391555" fill="none" id="id46" stroke="none" /><text fill="#e1ed5e" style="font-size:6.75px; font-family:Arial;" text-anchor="middle"><textPath startOffset="22.20632615414155" xlink:href="#id46">October</textPath></text><path d="M 79.00019446554 99.90962569577889 l -20.103994403373672 -0.08651911101218261 a41.10418057338946,41.10418057338946 0 0,0 0.009134900865149682,-0.7075081390197814 l 20.09952649539081 0.432563508092436" fill="#fff316" stroke="none" /><path d="M 79.00486145842228 99.54816195383935 l -14.762863719101956 -0.3177127640937058 a35.766282084168814,35.766282084168814 0 0,0 0.018544486072286568,-0.6154012110775611 l 14.755207538574025 0.5717841225962612" fill="#ffae10" stroke="none" /><path d="M 79.01574976396665 99.18683210126434 l -21.649607078073725 -0.8389513705807568 a42.665856226726405,42.665856226726405 0 0,0 0.03475518341274268,-0.7336269909471635 l 21.631958286427484 1.2114894681509294" fill="#f7ff18" stroke="none" /><path d="M 79.03285615573316 98.82574320788736 l -10.70679658578761 -0.5996300071202756 a31.723574463529978,31.723574463529978 0 0,0 0.03522738131985759,-0.5449519970101458 l 10.694888613463338 0.7838410683834333" fill="#ff780b" stroke="none" /><path d="M 79.05617556472873 98.46500227214037 l -34.85189972977392 -2.5543370582642977 a55.94537955984221,55.94537955984221 0 0,0 0.07865791473421421,-0.9598257929495034 l 34.80276733122021 3.1538767684215796" fill="#5fff29" stroke="none" /><path d="M 79.12142395522702 97.74499172005258 l -20.465938041521653 -2.210440963097974 a41.584962209602054,41.584962209602054 0 0,0 0.08299100412207225,-0.7110162415657909 l 20.424856684395994 2.562400942988627" fill="#fff917" stroke="none" /><path d="M 79.21141760316559 97.0276538004421 l -21.85170102680546 -3.1243506296413526 a43.0739304298494,43.0739304298494 0 0,0 0.11126223201070636,-0.733079093732831 l 21.794682901355454 3.5000288357662757" fill="#f2ff19" stroke="none" /><path d="M 79.26566170972629 96.67025291283419 l -12.869997930774717 -2.066805196379451 a34.034896641628066,34.034896641628066 0 0,0 0.09787162150188247,-0.5776438502989591 l 12.832514447752612 2.288034834994238" fill="#ff970e" stroke="none" /><path d="M 79.3925641242962 95.95851677861259 l -35.673721932827746 -6.996248805798574 a57.353293301891554,57.353293301891554 0 0,0 0.19833507338939002,-0.9671522551142986 l 35.54800756352336 7.609276717076275" fill="#51ff2b" stroke="none" /><path d="M 79.46518482838121 95.60439243477599 l -14.180736598675232 -3.035476703960613 a35.50197949596174,35.50197949596174 0 0,0 0.13305738375575055,-0.5964701614459542 l 14.126384827917443 3.2791250349565266" fill="#ffab0f" stroke="none" /><path d="M 79.62865764111835 94.90015583598534 l -18.925722116357168 -4.7379417509414345 a40.5097680575881,40.5097680575881 0 0,0 0.17516359689105018,-0.6749767925493588 l 18.84136218759581 5.063014969039657" fill="#ffec16" stroke="none" /><path d="M 79.71946130924805 94.55025226153421 l -21.32213763595637 -5.729644223592419 a43.07855014025181,43.07855014025181 0 0,0 0.19859874087603477,-0.7144653370928586 l 21.220352124513973 6.09582086410422" fill="#f2ff19" stroke="none" /><path d="M 79.91906864156998 93.8553929516997 l -36.677251892630025 -11.222950592733861 a59.35590471364713,59.35590471364713 0 0,0 0.30736329255172123,-0.9744256319828308 l 36.4786331163101 11.852626391143106" fill="#3cff2e" stroke="none" /><path d="M 80.14247586403 93.16781622104843 l -13.669356628618615 -4.703081612152362 a35.45580462274326,35.45580462274326 0 0,0 0.20352800069909582,-0.575401065351678 l 13.58637554710971 4.937680303930652" fill="#ffaa0f" stroke="none" /><path d="M 80.2630227832202 92.82701384747504 l -18.845218562359474 -6.84889536550651 a41.05117528701883,41.05117528701883 0 0,0 0.24708000918545528,-0.6620515841650553 l 18.724533964672393 7.172270086700907" fill="#fff316" stroke="none" /><path d="M 80.52162464483688 92.15188598940014 l -20.494002513864825 -8.257324614072473 a43.09496659468995,43.09496659468995 0 0,0 0.2831509902109901,-0.6856725821309991 l 20.34882983676763 8.608871766656783" fill="#f2ff19" stroke="none" /><path d="M 80.803312248108 91.48605970444005 l -41.92156639122888 -18.592671713176014 a66.85962461826466,66.85962461826466 0 0,0 0.47565109555565693,-1.0480341391149324 l 41.59531297870987 19.311527861133015" fill="#37ff7a" stroke="none" /><path d="M 81.10775173730289 90.83032412892265 l -13.310040818509092 -6.460255997033636 a35.79500233651848,35.79500233651848 0 0,0 0.2738147005557566,-0.5519937279208942 l 13.196866104999923 6.6884093134534925" fill="#ffaf10" stroke="none" /><path d="M 81.26839172434947 90.50648371742162 l -18.187089266099886 -9.217544246046833 a41.3895399139097,41.3895399139097 0 0,0 0.3275500523587971,-0.6327224440695056 l 18.025729780580974 9.529239412376674" fill="#fff717" stroke="none" /><path d="M 81.6062741919709 89.86733742301443 l -19.34532193814275 -10.656874071526705 a43.086431261450215,43.086431261450215 0 0,0 0.3634491458068973,-0.6465354756449697 l 19.159015151043423 10.988293057106459" fill="#f2ff19" stroke="none" /><line stroke="#e1ed5e" stroke-width="0.3" x1="26.266209847984243" x2="21.928928074336255" y1="57.711370442889674" y2="55.22380399835377" /><path d="M 25.398753493254645 57.213857153982495 a86.0,86.0 0 0,1 29.58750427330803,-30.492523968695096" fill="none" id="id47" stroke="none" /><text fill="#e1ed5e" style="font-size:6.75px; font-family:Arial;" text-anchor="middle"><textPath startOffset="21.46611528233685" xlink:href="#id47">November</textPath></text><path d="M 81.96595687620814 89.24020034530311 l -39.31916246042011 -23.4593156820424 a66.78576229417428,66.78576229417428 0 0,0 0.5975233159279644,-0.9821712232082307 l 38.90952334620593 24.13265467845771" fill="#37ff79" stroke="none" /><path d="M 82.34701348167596 88.62581576622439 l -10.705131201605722 -6.89753738878191 a33.7348284665808,33.7348284665808 0 0,0 0.3187192130187163,-0.4854312274958428 l 10.584815353229084 7.080786680255419" fill="#ff930d" stroke="none" /><path d="M 82.54541684631803 88.32363383020206 l -20.747237912107565 -13.879010729773853 a45.961466700071355,45.961466700071355 0 0,0 0.4455538162912106,-0.6537952469541084 l 20.505259630147613 14.234083999998377" fill="#cfff1d" stroke="none" /><path d="M 82.95767976084542 87.72973835380427 l -17.61422782314983 -12.682028095516573 a42.70471972685428,42.70471972685428 0 0,0 0.4346473917978732,-0.5928585539457359 l 17.393317818838323 12.983349093133812" fill="#f7ff19" stroke="none" /><path d="M 83.39014120810768 87.1503855733568 l -21.78330547764097 -16.851863693272385 a48.54083708729375,48.54083708729375 0 0,0 0.5169504828155276,-0.6564746160322579 l 21.49000091423147 17.224330703257692" fill="#b1ff20" stroke="none" /><path d="M 83.84228863543731 86.58626213691792 l -11.377183214013204 -9.445059997032642 a35.78680006738341,35.78680006738341 0 0,0 0.3975562206180389,-0.47058116952476575 l 11.212916379908041 9.639500116186523" fill="#ffaf10" stroke="none" /><path d="M 84.07557802195018 86.31012108654704 l -15.548507559252668 -13.366713470949145 a41.504270685264345,41.504270685264345 0 0,0 0.4703978152076431,-0.5377460192667924 l 15.316117880467182 13.63237504641888" fill="#fff817" stroke="none" /><path d="M 84.5562425177563 85.77008943001954 l -11.529995929376605 -10.62376245780255 a36.678173837895024,36.678173837895024 0 0,0 0.4318115782464696,-0.4606264844817286 l 11.345417029159679 10.820658359162328" fill="#ffbb11" stroke="none" /><path d="M 85.31137513191541 84.99185889309783 l -43.95817474781882 -44.91438070901993 a83.84602391269124,83.84602391269124 0 0,0 1.0401568659871026,-1.0006300809643958 l 43.17853463821929 45.66439387674664" fill="#4dd3ff" stroke="none" /><path d="M 86.10567301691215 84.25364557470407 l -9.770244958678047 -11.072557895648075 a35.76682853239152,35.76682853239152 0 0,0 0.46514965118731644,-0.403373193848862 l 9.578201508843957 11.239096082916618" fill="#ffae10" stroke="none" /><path d="M 86.37877921826538 84.01681056812374 l -14.069003583625529 -16.508619381338345 a42.690352134393024,42.690352134393024 0 0,0 0.5633956827908849,-0.47182768194491487 l 13.782750363875532 16.748348220677073" fill="#f7ff19" stroke="none" /><path d="M 86.93701828274178 83.55741782278169 l -15.458136229039 -19.45740113199493 a45.850441333845275,45.850441333845275 0 0,0 0.6221849100818354,-0.4856251912523879 l 15.12091876379774 19.720604712470536" fill="#d1ff1d" stroke="none" /><path d="M 87.22198572758235 83.33499621200491 l -8.970380259653798 -11.699112070141904 a35.742352092950654,35.742352092950654 0 0,0 0.49146388764577914,-0.3701604110598797 l 8.767670218249627 11.851789070707639" fill="#ffae10" stroke="none" /><path d="M 87.51073957382395 83.11751280151077 l -7.606636894402253 -10.282350244226688 a33.790138833813735,33.790138833813735 0 0,0 0.47057544585737104,-0.3418930740504652 l 7.4285161321911 10.411762553093821" fill="#ff940d" stroke="none" /><path d="M 87.80319425747018 82.90503203632743 l -13.243488399480656 -18.561991942443818 a43.80213871237801,43.80213871237801 0 0,0 0.617545204398676,-0.4326298803954039 l 12.92201205549832 18.787206665603165" fill="#e9ff1a" stroke="none" /><path d="M 88.09926311788651 82.69761687909137 l -6.71410784131475 -9.761585970371742 a32.84769195927049,32.84769195927049 0 0,0 0.46861972907511895,-0.31641413294492055 l 6.545083417833091 9.87571201561533" fill="#ff870c" stroke="none" /><path d="M 88.39885842347998 82.49532879139004 l -6.78909102150813 -10.243888961527027 a33.289386394544586,33.289386394544586 0 0,0 0.4803705604264253,-0.3124463748777941 l 6.611753435297418 10.359234260564357" fill="#ff8d0d" stroke="none" /><path d="M 88.70189139769569 82.29822771554957 l -11.895875858920542 -18.63834850514306 a43.111080874756375,43.111080874756375 0 0,0 0.6289718809788892,-0.39386213416699095 l 11.573284825569411 18.84035498063298" fill="#f2ff19" stroke="none" /><line stroke="#e1ed5e" stroke-width="0.3" x1="56.76296977257108" x2="54.21961505331056" y1="26.818313649435495" y2="22.513508569990535" /><path d="M 56.25429882871898 25.957352633546506 a86.0,86.0 0 0,1 42.26535254187918,-11.944610805530505" fill="none" id="id48" stroke="none" /><text fill="#e1ed5e" style="font-size:6.75px; font-family:Arial;" text-anchor="middle"><textPath startOffset="22.20632615414155" xlink:href="#id48">December</textPath></text><path d="M 89.3179101791058 81.91981866633112 l -15.478561383603676 -26.198543664413066 a51.42941919659567,51.42941919659567 0 0,0 0.7660614462907521,-0.443752235536554 l 15.025303204847603 26.461100057339664" fill="#90ff24" stroke="none" /><path d="M 89.63071344664047 81.73862282372117 l -4.350648052823685 -7.661937457800883 a29.810983150976444,29.810983150976444 0 0,0 0.4484081646891707,-0.2495386581683062 l 4.218115799062469 7.735691513529375" fill="#ff5d08" stroke="none" /><path d="M 89.94658935756843 81.56283822128135 l -12.604957222257484 -23.116496857267517 a47.32978111430097,47.32978111430097 0 0,0 0.7186350073821871,-0.38386993303719946 l 12.20517716834699 23.330045516806464" fill="#bfff1e" stroke="none" /><path d="M 90.58718382345135 81.22770947309562 l -9.922267165849906 -19.788305479391102 a43.13658554195301,43.13658554195301 0 0,0 0.666621973877447,-0.3271085074742157 l 9.580173924962033 19.95616914700015" fill="#f1ff19" stroke="none" /><path d="M 91.56875222667455 80.76684994638697 l -12.574425196305425 -28.684462032253375 a52.31955509098535,52.31955509098535 0 0,0 0.8279351400913904,-0.3544786188153528 l 12.078806298423725 28.896660179031514" fill="#87ff25" stroke="none" /><path d="M 91.90106846888425 80.62456947434976 l -4.546750894579719 -10.877392374155667 a32.789427829996725,32.789427829996725 0 0,0 0.5226262096032176,-0.21319235325977676 l 4.35884081538812 10.95404561359902" fill="#ff860c" stroke="none" /><path d="M 92.23578459929587 80.48803036053334 l -8.357387892153056 -21.002650029795408 a43.60436331007736,43.60436331007736 0 0,0 0.6997811673793551,-0.2715042211904647 l 7.994623559774024 21.143396954876422" fill="#ecff1a" stroke="none" /><path d="M 92.57280143429618 80.3572730644239 l -4.1697485052907 -11.0277422307869 a32.78973711776708,32.78973711776708 0 0,0 0.5296599220770399,-0.19507821928493127 l 3.9793062574410913 11.097883717878153" fill="#ff860c" stroke="none" /><path d="M 92.91201910852362 80.23233633223022 l -7.460385622635426 -20.806262894623067 a43.103346562875814,43.103346562875814 0 0,0 0.7005689460479263,-0.2444147492442769 l 7.101134672524215 20.931598497039555" fill="#f2ff19" stroke="none" /><path d="M 93.59665428221793 80.00007090966166 l -3.5882148665936198 -11.207272893837615 a32.767678260633694,32.767678260633694 0 0,0 0.5386610398990199,-0.16736460716420856 l 3.394768453983871 11.26737763588435" fill="#ff860c" stroke="none" /><path d="M 93.94186890950719 79.89281104454417 l -8.255375368590038 -27.399934064641172 a49.616561799472116,49.616561799472116 0 0,0 0.8198777289212967,-0.23934479159977032 l 7.782507421945319 27.53797718515964" fill="#a5ff21" stroke="none" /><path d="M 94.63758080256005 79.69619591428918 l -6.63067016102387 -25.10580074953286 a46.96665203794161,46.96665203794161 0 0,0 0.7834286065293097,-0.19971339556989243 l 6.197532665809561 25.216217141271617" fill="#c3ff1e" stroke="none" /><path d="M 95.33964822691252 79.52364482259891 l -4.8144606302027455 -21.153468804852626 a42.694429553174366,42.694429553174366 0 0,0 0.7179927826104032,-0.1569254127619959 l 4.449625123438821 21.23320771571049" fill="#f7ff19" stroke="none" /><path d="M 96.04723909329186 79.375362276772 l -8.736931608546989 -45.587389040681614 a67.41706597232192,67.41706597232192 0 0,0 1.14161131336599,-0.208622170521762 l 7.950925174078106 45.73102669255411" fill="#38ff80" stroke="none" /><path d="M 96.75951476605007 79.25152402106235 l -2.275226366806247 -14.568027998937199 a35.74462935437946,35.74462935437946 0 0,0 0.6087327733431799,-0.08971138707607337 l 2.0241246130344184 14.60503387017424" fill="#ffae10" stroke="none" /><path d="M 97.11714578562143 79.19881850522333 l -2.8347034299976612 -20.453750396794838 a41.64924814201296,41.64924814201296 0 0,0 0.7109829536968151,-0.09230599273724986 l 2.4822057477929884 20.499514712696225" fill="#fffa17" stroke="none" /><path d="M 97.83486435360386 79.11191278185805 l -2.2825085801235963 -22.020439401631712 a43.13841902348206,43.13841902348206 0 0,0 0.7392587173144637,-0.07020152288587983 l 1.9031247357188963 22.056466469032774" fill="#f1ff19" stroke="none" /><path d="M 98.55514903715128 79.0497635885617 l -1.9896340957983845 -28.84955317263331 a49.918080193812315,49.918080193812315 0 0,0 0.857730370618792,-0.05174063831576069 l 1.4927416763399695 28.879527080329375" fill="#a1ff22" stroke="none" /><path d="M 99.63851952072746 79.00311137660856 l -0.041448817414235624 -2.4075883836643546 a23.407945146721698,23.407945146721698 0 0,0 0.40292929668677074,-0.003468139665901857 l 5.897764632910262e-16 2.4079451467216977" fill="#ff0000" stroke="none" /></svg>