<?xml version="1.0" encoding="utf-8" ?>
<svg baseProfile="full" height="200mm" version="1.1" viewBox="0,0,200,200" width="200mm" xmlns="http://www.w3.org/2000/svg" xmlns:ev="http://www.w3.org/2001/xml-events" xmlns:xlink="http://www.w3.org/1999/xlink"><defs /><rect fill="#1a1a1a" height="200" width="200" x="0" y="0" /><text alignment-baseline="middle" fill="#e1ed5e" style="dominant-baseline: central; font-size:9.0px; font-family:Arial;" text-anchor="middle" x="100.0" y="100.0">2018</text><line stroke="#e1ed5e" stroke-width="0.3" x1="100.0" x2="100.0" y1="15.0" y2="10.0" /><path d="M 100.0 14.0 a86.0,86.0 0 0,1 42.46469731375804,11.215312516191453" fill="none" id="id25" stroke="none" /><text fill="#e1ed5e" style="font-size:6.75px; font-family:Arial;" text-anchor="middle"><textPath startOffset="22.20632615414155" xlink:href="#id25">January</textPath></text><path d="M 100.36148047927253 79.00311137660856 l 0.18495046127814205 -10.742998471500442 a31.74459039851161,31.74459039851161 0 0,0 0.5462690212700396,0.01410851716880777 l -0.3698461177430495 10.738223162189275" fill="#ff880c" stroke="none" /><path d="M 102.16513564639614 79.11191278185805 l 4.4460079174944545 -42.892740372989365 a64.12254819821175,64.12254819821175 0 0,0 1.0969025889809587,0.12324978662172668 l -5.183677209985138 42.809854632897036" fill="#34ff5f" stroke="none" /><path d="M 103.2404852339499 79.25152402106235 l 2.0494042685351244 -13.122113562295798 a34.28118677670325,34.28118677670325 0 0,0 0.582242766768964,0.09607504536541471 l -2.2749762414429635 13.084892253990757" fill="#ffa90f" stroke="none" /><path d="M 103.95276090670814 79.375362276772 l 1.9344232065572093 -10.093395168662926 a31.277091960902908,31.277091960902908 0 0,0 0.5278881907204632,0.10588940494426417 l -2.107877806744798 10.058601807641454" fill="#ff810b" stroke="none" /><path d="M 104.307194497241 79.44645832069477 l 3.3560774629048464 -16.014897413380503 a37.36276856458342,37.36276856458342 0 0,0 0.6283301697309753,0.13732863842636983 l -3.6312503567893497 15.954755276858263" fill="#ffd113" stroke="none" /><path d="M 104.66035177308747 79.52364482259891 l 2.2838960721602413 -10.034836303964683 a31.29145863888091,31.29145863888091 0 0,0 0.5241711404547723,0.1240543736553222 l -2.4562908995775374 9.994036018168492" fill="#ff820b" stroke="none" /><path d="M 105.36241919743992 79.69619591428918 l 3.225014912852452 -12.210919839186166 a33.62961933342217,33.62961933342217 0 0,0 0.5584152021984482,0.15263596901730575 l -3.434728004274611 12.153597329342567" fill="#ffa10e" stroke="none" /><path d="M 106.0581310904928 79.89281104454417 l 4.532830337800541 -15.044652343065145 a36.712673706119546,36.712673706119546 0 0,0 0.6035119985833844,0.1875141157057341 l -4.791127709094644 14.964398092476891" fill="#ffc812" stroke="none" /><path d="M 106.74666289553966 80.11325718540242 l 6.804826271112777 -20.05818758798566 a42.18104222872068,42.18104222872068 0 0,0 0.6855785142871127,0.23918488194776888 l -7.149086789463163 19.938081852865686" fill="#f2ff19" stroke="none" /><path d="M 107.08798089147638 80.2323363322302 l 4.036735100245011 -11.258046967011953 a32.959885107349365,32.959885107349365 0 0,0 0.5324083604246737,0.19609049232339115 l -4.22992578644226 11.186893206882237" fill="#ff980e" stroke="none" /><path d="M 107.76421540070413 80.48803036053334 l 5.2591422431323185 -13.21656065445172 a35.22448778221206,35.22448778221206 0 0,0 0.5614382974377687,0.22902477840097965 l -5.485864410158475 13.124074989867161" fill="#ffb510" stroke="none" /><path d="M 108.43124777332544 80.76684994638697 l 5.878347468554074 -13.409538181011646 a35.64140304714904,35.64140304714904 0 0,0 0.5597700975182067,0.2511525258497243 l -6.108299684539062 13.30636532464539" fill="#ffbb11" stroke="none" /><path d="M 109.08828744355905 81.06846463323043 l 14.033852455889534 -29.233491540696143 a53.427550669355675,53.427550669355675 0 0,0 0.8256559678791406,0.405145797653795 l -14.534979690779107 28.98759058290752" fill="#73ff27" stroke="none" /><path d="M 110.05341064243156 81.56283822128135 l 5.83304328605723 -10.697341086755273 a33.184313698497746,33.184313698497746 0 0,0 0.4991488246682057,0.2777757805108906 l -6.016316199797472 10.595349908684202" fill="#ff9b0e" stroke="none" /><line stroke="#e1ed5e" stroke-width="0.3" x1="143.23703022742887" x2="145.7803849466894" y1="26.81831364943548" y2="22.513508569990506" /><path d="M 143.74570117128098 25.957352633546492 a86.0,86.0 0 0,1 28.547481713284135,27.462654790039103" fill="none" id="id26" stroke="none" /><text fill="#e1ed5e" style="font-size:6.75px; font-family:Arial;" text-anchor="middle"><textPath startOffset="19.985693538727396" xlink:href="#id26">February</textPath></text><path d="M 110.68208982089419 81.91981866633111 l 7.974442639069946 -13.497299813685377 a36.67701622325907,36.67701622325907 0 0,0 0.5407902628891489,0.3258200824471609 l -8.205594968176733 13.358033121779602" fill="#ffc812" stroke="none" /><path d="M 111.2981086023043 82.29822771554956 l 18.824838537019154 -29.494583279708966 a55.99006985972633,55.99006985972633 0 0,0 0.8079446379113715,0.5255096669397735 l -19.329750200714805 29.166174688609665" fill="#59ff2a" stroke="none" /><path d="M 112.19680574252982 82.90503203632743 l 7.341781810376932 -10.290196260733046 a33.64080295058767,33.64080295058767 0 0,0 0.46849573259612615,0.340382073920111 l -7.517822859326847 10.162294951996259" fill="#ffa10e" stroke="none" /><path d="M 112.77801427241765 83.33499621200491 l 9.032592863387206 -11.78024934662127 a35.844595262393796,35.844595262393796 0 0,0 0.48640679634613093,0.3796482198049152 l -9.234032214892766 11.62302273759313" fill="#ffbd11" stroke="none" /><path d="M 113.34407831869373 83.78471172551755 l 23.55170795237095 -28.61926651532875 a58.06407105741611,58.06407105741611 0 0,0 0.7662866508111013,0.6417430328299671 l -24.04085214014117 28.209622325104963" fill="#44ff2d" stroke="none" /><path d="M 114.68862486808459 84.99185889309783 l 10.156936179946063 -10.37787626625585 a35.52114555953537,35.52114555953537 0 0,0 0.4332974204475449,0.43143670362267633 l -10.334069400560931 10.201503711983055" fill="#ffb911" stroke="none" /><path d="M 115.19652480421416 85.50635884689758 l 15.17710803553625 -14.475122466679293 a41.97316806654881,41.97316806654881 0 0,0 0.49414946411793853,0.5271241947460156 l -15.424024821624652 14.211728855055224" fill="#f4ff19" stroke="none" /><path d="M 115.68641384162765 86.03803664274999 l 4.431663138641681 -3.944478258580132 a26.932836329008815,26.932836329008815 0 0,0 0.3052492468204865,0.3489526567835907 l -4.498904249040016 3.867610045593594" fill="#ff4606" stroke="none" /><path d="M 115.9244219780498 86.31012108654704 l 10.092084707624963 -8.675945527073745 a34.30872663084747,34.30872663084747 0 0,0 0.38113627560707664,0.45114513374905063 l -10.239931596719156 8.500941443695588" fill="#ffaa0f" stroke="none" /><path d="M 116.38621287248628 86.86637796730983 l 11.510492981176542 -9.225710992595452 a35.751447115066746,35.751447115066746 0 0,0 0.3807459647688273,0.4835087098983171 l -11.667593026539334 9.026209888744097" fill="#ffbc11" stroke="none" /><path d="M 117.04232023915458 87.72973835380427 l 26.530362627780793 -19.101535849761277 a53.6914180325856,53.6914180325856 0 0,0 0.5335581603921357,0.7546801791822362 l -26.85523340797681 18.64202917024725" fill="#70ff27" stroke="none" /><path d="M 117.45458315368197 88.32363383020206 l 10.131176867978807 -6.777322024820358 a33.189045842820676,33.189045842820676 0 0,0 0.31356277926074744,0.4775776251198706 l -10.246336282597479 6.601926335722814" fill="#ff9b0e" stroke="none" /><line stroke="#e1ed5e" stroke-width="0.3" x1="172.23445277983987" x2="176.4835382374775" y1="55.19839476539836" y2="52.563006222186495" /><path d="M 173.08426987136738 54.67131705675599 a86.0,86.0 0 0,1 12.851231095245387,41.99856678651699" fill="none" id="id27" stroke="none" /><text fill="#e1ed5e" style="font-size:6.75px; font-family:Arial;" text-anchor="middle"><textPath startOffset="22.20632615414155" xlink:href="#id27">March</textPath></text><path d="M 117.84615892207809 88.93136811851018 l 14.019084106127378 -8.694984840373694 a37.49658996729329,37.49658996729329 0 0,0 0.3354769939520802,0.5514359703209617 l -14.166676898365683 8.45238109684565" fill="#ffd213" stroke="none" /><path d="M 118.21658344932153 89.55222093294921 l 28.11146482327237 -16.12280231042219 a53.40677720556358,53.40677720556358 0 0,0 0.45050488024585983,0.8013979132719834 l -28.384827344810663 15.636520887215411" fill="#73ff27" stroke="none" /><path d="M 118.3937258080291 89.86733742301442 l 5.630234226690739 -3.10156105640924 a27.42800267844019,27.42800267844019 0 0,0 0.22424599592868735,0.41549377339143245 l -5.682788321837891 3.004186299685349" fill="#ff4d07" stroke="none" /><path d="M 118.56541770881063 90.18545643968196 l 7.194674744677072 -3.8034398035893653 a29.138150835492176,29.138150835492176 0 0,0 0.23059456209602258,0.4454352971945482 l -7.259078739933211 3.679031784134472" fill="#ff6409" stroke="none" /><path d="M 118.73160827565052 90.50648371742162 l 11.438229054683134 -5.797100397174757 a33.82339490627662,33.82339490627662 0 0,0 0.2587328437912399,0.5215896249910068 l -11.536321911427782 5.599351183684799" fill="#ffa30f" stroke="none" /><path d="M 119.04729006885535 91.15688171328212 l 12.083395487822584 -5.609978911316578 a34.32217361771524,34.32217361771524 0 0,0 0.24417396263182836,0.5380049601739739 l -12.178171767417759 5.40115194230054" fill="#ffaa0f" stroke="none" /><path d="M 119.34039704204932 91.81776055985345 l 51.409685172699966 -21.749623480377668 a76.8211595283932,76.8211595283932 0 0,0 0.5047454287225722,1.2222810916999858 l -51.77645228830874 20.86146781822438" fill="#44ffe8" stroke="none" /><path d="M 119.47837535516314 92.15188598940014 l 7.866956214862791 -3.169708364526132 a29.481512318137327,29.481512318137327 0 0,0 0.18560219465237413,0.4723373407911664 l -7.920351959396865 3.033822018839181" fill="#ff6909" stroke="none" /><path d="M 119.61058180528143 92.48833698450437 l 1.9734084932830114 -0.7558969815707735 a23.113225337750173,23.113225337750173 0 0,0 0.13911455369617118,0.37275784050111227 l -1.9861276354808077 0.721816004040328" fill="#ff0f01" stroke="none" /><path d="M 119.7369772167798 92.82701384747503 l 26.096526143307432 -9.484229454133763 a48.76651373663944,48.76651373663944 0 0,0 0.27993585669514226,0.7914163634450394 l -26.255915080812382 9.033615464262107" fill="#a6ff21" stroke="none" /><path d="M 120.08093135843002 93.85539295169968 l 14.158357278617531 -4.3323459641241 a35.806360200327575,35.806360200327575 0 0,0 0.17527060354704385,0.5909253434762939 l -14.230833779276278 4.087991233901276" fill="#ffbd11" stroke="none" /><path d="M 120.18372546131832 94.20196356495316 l 3.0558341119216617 -0.8778279091407916 a24.179418808155123,24.179418808155123 0 0,0 0.11147083907837702,0.40101991717998225 l -3.070491721566402 0.8250966885418574" fill="#ff1f03" stroke="none" /><path d="M 120.28053869075195 94.5502522615342 l 20.264387611784052 -5.445407651280676 a41.98327595417963,41.98327595417963 0 0,0 0.18153502174956326,0.6995284915969738 l -20.355118965403918 5.095782734134851" fill="#f4ff19" stroke="none" /><path d="M 120.45610955862082 95.25157060432595 l 14.952467436755063 -3.4708816801689903 a36.350026126523474,36.350026126523474 0 0,0 0.13623576613237998,0.6107182264222214 l -15.00999758988948 3.2129852841968054" fill="#ffc412" stroke="none" /><path d="M 120.6074358757038 95.95851677861258 l 14.910641504735622 -2.924240930554586 a36.19468377764655,36.19468377764655 0 0,0 0.11464110427532,0.6124173631194268 l -14.958768332920801 2.6671454899725964" fill="#ffc212" stroke="none" /><path d="M 120.78858239683441 97.02765380044208 l 42.51870004404873 -6.07931286865023 a63.95111056062143,63.95111056062143 0 0,0 0.14642977430711154,1.0910719008793046 l -42.617045817413675 5.34652262570626" fill="#34ff5d" stroke="none" /><path d="M 120.83666639777658 97.38593545837742 l 3.3102854895181375 -0.41529195484554415 a24.336234019051087,24.336234019051087 0 0,0 0.04856776080764199,0.41609891476819183 l -3.3169436033293684 0.3582493017524996" fill="#ff2103" stroke="none" /><path d="M 120.87857604477298 97.74499172005257 l 13.025556206333222 -1.4068362245209531 a34.10130919591513,34.10130919591513 0 0,0 0.05800937059414932,0.5841464453706924 l -13.0478427026096 1.1824142484458255" fill="#ffa70f" stroke="none" /><path d="M 120.94382443527127 98.46500227214037 l 31.732554754472428 -2.3257165661332424 a52.81766787166491,52.81766787166491 0 0,0 0.058651276156776025,0.9073092824760379 l -31.76788662163362 1.7791482194041692" fill="#7aff26" stroke="none" /><path d="M 120.98425023603335 99.18683210126433 l 5.788834033550287 -0.22432509878806267 a26.793178852576222,26.793178852576222 0 0,0 0.013892015135780911,0.4610083507055714 l -5.791837743141713 0.12464660065749224" fill="#ff4406" stroke="none" /><line stroke="#e1ed5e" stroke-width="0.3" x1="184.98032266829074" x2="189.97916517819016" y1="98.17113171792111" y2="98.06355123074" /><path d="M 185.9800911702706 98.14961562048488 a86.0,86.0 0 0,1 -9.607161424134198,41.387399972396054" fill="none" id="id28" stroke="none" /><text fill="#e1ed5e" style="font-size:6.75px; font-family:Arial;" text-anchor="middle"><textPath startOffset="21.466115282336823" xlink:href="#id28">April</textPath></text><path d="M 120.99513854157772 99.54816195383933 l 51.68461945342858 -1.1123088054002377 a72.69658711099117,72.69658711099117 0 0,0 0.016155926410160344,1.2512943049224956 l -51.69610838695645 0.2224782424172794" fill="#3fffbe" stroke="none" /><path d="M 120.99824983174949 100.27111621757518 l 12.161958586126191 0.1570275730880692 a33.16297226459711,33.16297226459711 0 0,0 -0.012282834259660603,0.5707350435759692 l -12.157453689181523 -0.3663524324541532" fill="#ff9a0e" stroke="none" /><path d="M 120.9764740272857 100.99374915477107 l 10.348752761537565 0.4902665860971392 a31.36035931060669,31.36035931060669 0 0,0 -0.030186061864076533,0.5389924124324619 l -10.33878034878596 -0.6683307148650244" fill="#ff830c" stroke="none" /><path d="M 120.95626037817324 101.35467743843564 l 4.997195739536379 0.32303417697784625 a26.007625818562754,26.007625818562754 0 0,0 -0.03272433214745951,0.44649751254914516 l -4.990894848724582 -0.40900482602376165" fill="#ff3905" stroke="none" /><path d="M 120.92983693683757 101.71520430193887 l 15.22725677777764 1.2478767231102161 a36.27830308942899,36.27830308942899 0 0,0 -0.05636163260358313,0.6219459192414442 l -15.203520548896982 -1.5098040309002307" fill="#ffc312" stroke="none" /><path d="M 120.89721153311464 102.0752229133903 l 5.204751061429191 0.5168641109869884 a26.230352007338958,26.230352007338958 0 0,0 -0.04848580455915058,0.4489183328425841 l -5.1950829553689895 -0.6063787657143639" fill="#ff3c05" stroke="none" /><path d="M 120.8583938346157 102.4346265915055 l 2.914874242531502 0.340228993566341 a23.934663118287475,23.934663118287475 0 0,0 -0.05128684366705068,0.4088066056020007 l -2.908585889617603 -0.39035335345573663" fill="#ff1b02" stroke="none" /><path d="M 120.81339534386255 102.79330883721812 l 16.75952763530017 2.249250344686785 a37.909786919753415,37.909786919753415 0 0,0 -0.09236620111941034,0.6460089954996004 l -16.71832738316416 -2.5374048121667947" fill="#ffd814" stroke="none" /><path d="M 120.70491114924044 103.5080841355445 l 17.01288685496218 2.882535358182198 a38.2553565373456,38.2553565373456 0 0,0 -0.11559230818463585,0.6483030512217474 l -16.960748104438355 -3.174957160137164" fill="#ffdc14" stroke="none" /><path d="M 120.5718875245553 104.21870165774334 l 54.15207564608279 11.105031126856238 a76.27901060174213,76.27901060174213 0 0,0 -0.27484403153948644,1.283979815063018 l -53.95289757581886 -12.035524761335424" fill="#43ffe2" stroke="none" /><path d="M 120.32669344350535 105.2749913415812 l 27.418609488410887 7.11541835623914 a49.32683047328593,49.32683047328593 0 0,0 -0.2203545168886665,0.8200211312350848 l -27.292066895180444 -7.586330420649773" fill="#9fff22" stroke="none" /><path d="M 120.13307415673323 105.97154293290107 l 16.18507497131181 4.800552032491666 a37.882000818731285,37.882000818731285 0 0,0 -0.19080483288202532,0.6235612337522045 l -16.10004336592365 -5.0784402387959275" fill="#ffd714" stroke="none" /><path d="M 119.9155931802556 106.66101706037122 l 43.91173302497882 14.686823544871004 a67.30273299812002,67.30273299812002 0 0,0 -0.3769246906265951,1.095519585497615 l -43.65241750340899 -15.44051583345792" fill="#38ff83" stroke="none" /><path d="M 119.79798401119884 107.00284435728193 l 43.37071786903608 15.340874440985793 a67.00393023524856,67.00393023524856 0 0,0 -0.3939695143500737,1.0840349003177714 l -43.10022409368078 -16.085157138309697" fill="#38ff80" stroke="none" /><path d="M 119.41010516605496 108.01547362559984 l 16.126808674842966 6.659624380828169 a38.44776647392758,38.44776647392758 0 0,0 -0.2578728658666638,0.6095352804956626 l -16.009784827783992 -6.936234186989995" fill="#ffde14" stroke="none" /><path d="M 119.12269723197855 108.67885076344098 l 13.835481093190305 6.279243675280646 a36.193730227089674,36.193730227089674 0 0,0 -0.2623621167530716,0.5651046586564913 l -13.725344359597402 -6.516468401215968" fill="#ffc212" stroke="none" /><path d="M 118.81262510543309 109.33194174019688 l 8.966889787792745 4.447996631064629 a31.009484826722307,31.009484826722307 0 0,0 -0.24131482188692693,0.47613703712599115 l -8.888996296119549 -4.601687879893315" fill="#ff7e0b" stroke="none" /><path d="M 118.64920377521936 109.65438752849418 l 13.021646235610053 6.741093106858832 a35.66306949314219,35.66306949314219 0 0,0 -0.286913625707986,0.542732453616571 l -12.903680101677173 -6.964240575561537" fill="#ffbb11" stroke="none" /><line stroke="#e1ed5e" stroke-width="0.3" x1="174.80103733775053" x2="179.2010983576182" y1="140.37084112569926" y2="142.7455964860345" /><path d="M 175.68104954172406 140.8457921977663 a86.0,86.0 0 0,1 -30.038265399797805,32.042727171017184" fill="none" id="id29" stroke="none" /><text fill="#e1ed5e" style="font-size:6.75px; font-family:Arial;" text-anchor="middle"><textPath startOffset="22.206326154141568" xlink:href="#id29">May</textPath></text><path d="M 118.30583269289576 110.29060199501025 l 8.06195094131369 4.532016097391401 a30.248471381107446,30.248471381107446 0 0,0 -0.25905367606352614,0.451681919916096 l -7.9827452690977845 -4.670117863165813" fill="#ff740a" stroke="none" /><path d="M 118.12598468904814 110.60418214915192 l 7.787932084416399 4.5561469793293075 a30.02276905659975,30.02276905659975 0 0,0 -0.2647995711322746,0.4438193124605663 l -7.708351637585897 -4.6895283856759775" fill="#ff700a" stroke="none" /><path d="M 117.75023020441432 111.22182372390056 l 40.481788533062755 25.592879062113433 a68.89332585573459,68.89332585573459 0 0,0 -0.6423322927777593,0.9969139827205059 l -40.035251376907944 -26.28591464475539" fill="#3aff95" stroke="none" /><path d="M 117.55443506779139 111.5257021239791 l 21.497500875865047 14.114597852243733 a46.71700636618465,46.71700636618465 0 0,0 -0.447141581148128,0.6684159948500383 l -21.251356189306197 -14.482550761299578" fill="#bdff1f" stroke="none" /><path d="M 116.93607887273984 112.41649034213515 l 12.410968652522444 9.098958121801497 a36.38906045852677,36.38906045852677 0 0,0 -0.37470115903369244,0.5019734353139079 l -12.25250622679366 -9.311244436624719" fill="#ffc412" stroke="none" /><path d="M 116.498646956653 112.99209946851258 l 9.876464209716808 7.777365364988452 a33.57107621909672,33.57107621909672 0 0,0 -0.36141995267519167,0.45092696182049014 l -9.741126344986762 -7.946220160387193" fill="#ffa00e" stroke="none" /><path d="M 116.27256486870786 113.27417163493432 l 13.175371874221495 10.747669406979602 a38.00302389887611,38.00302389887611 0 0,0 -0.4178595349710363,0.5033387282432732 l -12.988416339356917 -10.972869392336646" fill="#ffd914" stroke="none" /><path d="M 116.0416608686014 113.55231037782055 l 15.588432821522117 13.1694144160954 a41.4066830693763,41.4066830693763 0 0,0 -0.4646569056727306,0.5405009560512704 l -15.359433406278608 -13.435792471308197" fill="#fbff18" stroke="none" /><path d="M 115.80600337817218 113.82643327865902 l 3.1533113208667554 2.758385376850792 a25.189518131424034,25.189518131424034 0 0,0 -0.28828941735764246,0.3238962165364415 l -3.1053630538607746 -2.8122557631281" fill="#ff2d04" stroke="none" /><path d="M 115.56566222782051 114.09645910891815 l 21.07874398314718 19.089175152131862 a49.4378279039703,49.4378279039703 0 0,0 -0.5766654059984215,0.6258564054103839 l -20.747032169153037 -19.449182812343583" fill="#9eff22" stroke="none" /><path d="M 115.32070863581623 114.36230785411682 l 13.100164273200923 12.280671651921294 a38.956313658631416,38.956313658631416 0 0,0 -0.4628259542978429,0.4852711627275073 l -12.886831767524116 -12.504349931231308" fill="#ffe515" stroke="none" /><path d="M 115.07121518719521 114.62390073753431 l 11.38754598043238 11.049563024183906 a36.867231846855766,36.867231846855766 0 0,0 -0.4458466264647687,0.4516402787248773 l -11.195658728912075 -11.243943796889448" fill="#ffca12" stroke="none" /><path d="M 114.81725581225074 114.88116024355365 l 1.3917501523111295 1.39775254594772 a22.972480840505526,22.972480840505526 0 0,0 -0.28261626281860747,0.27659949600642897 l -1.3674839371167278 -1.4215021448767209" fill="#ff0d01" stroke="none" /><path d="M 114.55890576462653 115.13401014063108 l 15.278844885791337 15.882388221820252 a43.03845177576426,43.03845177576426 0 0,0 -0.5383170964186944,0.5090124147228967 l -15.003191954981835 -16.14303527328907" fill="#e8ff1a" stroke="none" /><path d="M 114.29624159901734 115.38237550388516 l 12.450656729112394 13.396575299227292 a39.2889880183147,39.2889880183147 0 0,0 -0.49934517157519887,0.4561399748741998 l -12.218212008070331 -13.608908040688076" fill="#ffe915" stroke="none" /><path d="M 114.0293411484842 115.62618273729858 l 4.040738192190014 4.500661343712833 a27.04843100883312,27.04843100883312 0 0,0 -0.34912781270584753,0.30806470231817645 l -3.9626680265775795 -4.5695491878032986" fill="#ff4706" stroke="none" /><path d="M 113.75828350139079 115.86535959552629 l 26.32434912585062 30.35591358163098 a61.18025443268273,61.18025443268273 0 0,0 -0.8015619117252931,0.6831084506865973 l -25.79792173754828 -30.804546422540522" fill="#31ff3c" stroke="none" /><path d="M 113.48314897796784 116.09983520530334 l 2.083968320369374 2.4884058305552124 a24.245779958321933,24.245779958321933 0 0,0 -0.3222724496714336,0.2652082858829212 l -2.0408257421532494 -2.523909235295312" fill="#ff2003" stroke="none" /><path d="M 113.20401910651253 116.32954008644616 l 10.478598979845795 12.95898625341961 a37.66542412591842,37.66542412591842 0 0,0 -0.5076626705935392,0.4033179285967702 l -10.253978816534904 -13.137438096021507" fill="#ffd513" stroke="none" /><path d="M 112.92097659922987 116.55440617244103 l 1.2618630897517462 1.6167039667115315 a23.050860837126358,23.050860837126358 0 0,0 -0.314887131317427,0.24144202481809435 l -1.2338472299408254 -1.6381853333569973" fill="#ff0f01" stroke="none" /><path d="M 112.34349029814194 116.9893568818739 l 9.097539104595471 12.521688344344712 a36.47765798667686,36.47765798667686 0 0,0 -0.5111608518835179,0.36469969565651666 l -8.880650924863069 -12.676432301845448" fill="#ffc512" stroke="none" /><path d="M 112.04921762599082 117.19931262002967 l 9.336422018801187 13.327009772610484 a37.2719994343784,37.2719994343784 0 0,0 -0.5286289727556854,0.3635958277576865 l -9.105636161422618 -13.485746389733265" fill="#ffd013" stroke="none" /><path d="M 111.7513745106137 117.40417183066458 l 12.761532905020616 18.900249609188887 a43.805178301771036,43.805178301771036 0 0,0 -0.6285527880252735,0.4165705139672055 l -12.434305418255377 -19.11711814424741" fill="#dfff1b" stroke="none" /><path d="M 111.1453310114006 117.79835938074945 l 8.871817909406992 14.167708733879197 a37.716253281932275,37.716253281932275 0 0,0 -0.5532090719741174,0.3398261956649343 l -8.626629637500567 -14.31832339637251" fill="#ffd513" stroke="none" /><line stroke="#e1ed5e" stroke-width="0.3" x1="143.8653032363475" x2="146.44561519142675" y1="172.8068346515853" y2="177.08958963109032" /><path d="M 144.38136562736335 173.6633856474863 a86.0,86.0 0 0,1 -40.68145358897372,12.25698825130547" fill="none" id="id30" stroke="none" /><text fill="#e1ed5e" style="font-size:6.75px; font-family:Arial;" text-anchor="middle"><textPath startOffset="21.466115282336833" xlink:href="#id30">June</textPath></text><path d="M 110.5260780823613 118.17145234162733 l 6.021480420097955 10.395043968295013 a33.013124720588294,33.013124720588294 0 0,0 -0.49417697446196074,0.28060658332629057 l -5.841654678714796 -10.497153717415932" fill="#ff990e" stroke="none" /><path d="M 110.21172684928248 118.3499491758327 l 8.191705718020152 14.72007485194433 a37.84590888665518,37.84590888665518 0 0,0 -0.5719727687962829,0.31188515835636454 l -7.937110137355222 -14.858900662060465" fill="#ffd714" stroke="none" /><path d="M 109.89434966115114 118.52300852407294 l 0.4972655570904221 0.9309206231996193 a22.05540809214579,22.05540809214579 0 0,0 -0.33640704097166874,0.17599226425772693 l -0.48116761359225774 -0.939342306402063" fill="#ff0000" stroke="none" /><path d="M 109.57404056367764 118.69057910512821 l 12.333965086350155 24.078543285152424 a48.05370476452834,48.05370476452834 0 0,0 -0.7394460436201736,0.3707735969192135 l -11.91766513504722 -24.28728472298094" fill="#aeff20" stroke="none" /><path d="M 108.92500713936063 119.00905698771935 l 6.932245278749261 14.764743993922817 a37.31115231400962,37.31115231400962 0 0,0 -0.5837098880927936,0.2679525804613034 l -6.677067394889048 -14.881883644718194" fill="#ffd013" stroke="none" /><path d="M 108.59647513512805 119.15986991738527 l 3.334621657831697 7.432222647474599 a29.146019585203227,29.146019585203227 0 0,0 -0.4595068809848085,0.20143431296128794 l -3.2061941021891345 -7.488521513730341" fill="#ff6409" stroke="none" /><path d="M 108.2653958097858 119.30500536409082 l 22.275936860568507 52.0286130852054 a77.59676618488058,77.59676618488058 0 0,0 -1.2324160082552373,0.5151499914025869 l -21.37704939281581 -52.40434811962796" fill="#45ffef" stroke="none" /><path d="M 107.93186726928326 119.44442032107085 l 2.09851623182907 5.144366424321338 a26.555922631114907,26.555922631114907 0 0,0 -0.4247416532406822,0.1690134694931808 l -2.009653502546522 -5.179726738220587" fill="#ff4106" stroke="none" /><path d="M 107.59598834532513 119.57807347666477 l 4.105704361214595 10.582135991137019 a32.35070087865124,32.35070087865124 0 0,0 -0.5208921593499394,0.19695684369583402 l -3.9229419811043815 -10.651241084939484" fill="#ff900d" stroke="none" /><path d="M 107.2578585660854 119.70592522655815 l 3.9088087549569313 10.612867741736972 a32.30980758397017,32.30980758397017 0 0,0 -0.5235426438400999,0.18772376532599738 l -3.7255465504870964 -10.678579048102929" fill="#ff8f0d" stroke="none" /><path d="M 106.91757812671514 119.82793768551818 l 5.837004048673872 16.730675162201724 a38.71965314692556,38.71965314692556 0 0,0 -0.6311861524935698,0.21413261261069644 l -5.548148163243075 -16.828670761710544" fill="#ffe215" stroke="none" /><path d="M 106.57524785965236 119.94407469862006 l 0.3551707814839026 1.0773057910332107 a22.134343004304068,22.134343004304068 0 0,0 -0.3628753255627409,0.11618122002009884 l -0.3365741108302214 -1.0832598577130161" fill="#ff0100" stroke="none" /><path d="M 106.2309692047433 120.05430185196036 l 6.239432986819497 20.08154243604733 a42.02852516482744,42.02852516482744 0 0,0 -0.6927202069959366,0.20871091589736923 l -5.892837805383315 -20.185968721050426" fill="#f4ff19" stroke="none" /><path d="M 105.88484417918355 120.15858648285463 l 6.754066027113294 23.136113713951076 a45.101808348824804,45.101808348824804 0 0,0 -0.7471196850797917,0.2111434857803725 l -6.3548151739288965 -23.248945993069967" fill="#cfff1d" stroke="none" /><path d="M 105.53697534728816 120.25689768951611 l 3.3544093361694203 12.272029848357809 a33.72221594666454,33.72221594666454 0 0,0 -0.5612493696635135,0.14823105964427463 l -3.1426695236944093 -12.327952257305666" fill="#ffa20f" stroke="none" /><path d="M 105.18746579009965 120.34920634021253 l 3.565631325556007 13.987131773541934 a35.43445814709415,35.43445814709415 0 0,0 -0.5923404828305506,0.14558287910740253 l -3.324337557982245 -14.046435910963366" fill="#ffb811" stroke="none" /><path d="M 104.48393922423573 120.51570834832081 l 3.0892049489645923 14.13427448315812 a35.46792667875954,35.46792667875954 0 0,0 -0.5975645383019946,0.12522545901236054 l -2.84544894923322 -14.18535592289702" fill="#ffb911" stroke="none" /><path d="M 103.7750983002368 120.6578951692458 l 2.183487077974136 11.948363611449018 a33.146234346952106,33.146234346952106 0 0,0 -0.5621459740235932,0.0977362832113868 l -1.9774921324784929 -11.98417847318141" fill="#ff9a0e" stroke="none" /><path d="M 103.41894727170886 120.7198165907248 l 4.572252800542597 27.709184115705686 a49.083881142572615,49.083881142572615 0 0,0 -0.8348096199537686,0.13038009390981795 l -4.094607316980312 -27.783782516962606" fill="#a2ff22" stroke="none" /><path d="M 102.34483914955558 120.86867818915974 l 1.3358176274254 11.888554569481224 a32.96336651972484,32.96336651972484 0 0,0 -0.5644072431731083,0.058503118476878765 l -1.1309777876466889 -11.90978705641386" fill="#ff980e" stroke="none" /><path d="M 101.98527174616119 120.90594882070398 l 1.1318996839352378 11.919495106036623 a32.97311824368755,32.97311824368755 0 0,0 -0.5654978998687671,0.048793538291744536 l -0.9265574663249291 -11.937212896607031" fill="#ff980e" stroke="none" /><path d="M 101.62511606390274 120.93702456842531 l 0.9547455039676501 12.300370734850313 a33.337368406273214,33.337368406273214 0 0,0 -0.5725093573778135,0.039483597225452714 l -0.7428733858109063 -12.31498267659205" fill="#ff9d0e" stroke="none" /><line stroke="#e1ed5e" stroke-width="0.3" x1="102.19456741930631" x2="102.32365962044197" y1="184.97166512339345" y2="189.96999836594603" /><path d="M 102.22038585953345 185.97133177190398 a86.0,86.0 0 0,1 -42.740103519485714,-10.115201625700543" fill="none" id="id31" stroke="none" /><text fill="#e1ed5e" style="font-size:6.75px; font-family:Arial;" text-anchor="middle"><textPath startOffset="22.20632615414155" xlink:href="#id31">July</textPath></text><path d="M 100.54218724476979 120.99299961872073 l 0.40258036040586337 15.587547353853893 a36.592745218697765,36.592745218697765 0 0,0 -0.6298139609297482,0.01084281850196517 l -0.13420670958344721 -15.592167649635018" fill="#ffc712" stroke="none" /><path d="M 100.18074693466247 120.99922214144158 l 0.08987323429812623 10.441493877174587 a31.441880653661848,31.441880653661848 0 0,0 -0.5412403379211561,0.0 l 0.08987323429811904 -10.441493877174587" fill="#ff840c" stroke="none" /><path d="M 99.81925306533755 120.99922214144158 l -0.06270488739856081 7.2850688300498545 a28.285338685433068,28.285338685433068 0 0,0 -0.4868315040930402,-0.008381245839846263 l 0.18809608138426892 -7.282910106930848" fill="#ff5908" stroke="none" /><path d="M 99.45781275523022 120.99299961872073 l -0.3666029247667642 14.194533593497667 a35.19926694028186,35.19926694028186 0 0,0 -0.6055608943569235,-0.020856741609126678 l 0.6108841707983308 -14.186120053462448" fill="#ffb510" stroke="none" /><path d="M 98.73552117531835 120.96189622390904 l -0.6162316870430963 10.21558006472265 a31.23414957633876,31.23414957633876 0 0,0 -0.5363903558394648,-0.03699261940902454 l 0.7919848036614912 -10.203459100797339" fill="#ff810b" stroke="none" /><path d="M 98.37488393609728 120.93702456842531 l -2.6666476945309436 34.355495915565115 a55.45883209760828,55.45883209760828 0 0,0 -0.9511339767319713,-0.08206784167548757 l 3.2576259890044565 -34.304503821610965" fill="#5eff2a" stroke="none" /><path d="M 98.01472825383883 120.90594882070398 l -1.2500289482494957 13.163457983540326 a34.222677431439266,34.222677431439266 0 0,0 -0.5859694886298562,-0.060738133381167875 l 1.4764310334849453 -13.139990481703398" fill="#ffa80f" stroke="none" /><path d="M 97.65516085044442 120.86867818915974 l -0.9456862023662505 8.416449814414898 a29.469412604892412,29.469412604892412 0 0,0 -0.5036078115561718,-0.06097989254857845 l 1.0904214369738117 -8.398924393140971" fill="#ff6909" stroke="none" /><path d="M 96.93821686468263 120.77559828337769 l -0.24157312241509515 1.6391840720087525 a22.65688925260579,22.65688925260579 0 0,0 -0.38534420396306746,-0.060182839655215176 l 0.26975318998667974 -1.6347829250064316" fill="#ff0901" stroke="none" /><path d="M 93.76903079525671 120.05430185196036 l -3.506397635134256 11.285299971383726 a32.817479419055005,32.817479419055005 0 0,0 -0.5380170319951431,-0.1722560636269571 l 3.7001360122203395 -11.223271061097062" fill="#ff960d" stroke="none" /><path d="M 93.42475214034765 119.94407469862007 l -4.019437055907924 12.191776584018784 a33.83726179997255,33.83726179997255 0 0,0 -0.5515961366027434,-0.1871313579521454 l 4.228702925447894 -12.120782239168516" fill="#ffa30f" stroke="none" /><path d="M 93.08242187328487 119.8279376855182 l -3.732876653058395 10.69958940958349 a32.33205990279877,32.33205990279877 0 0,0 -0.5239032166414458,-0.18785305390399337 l 3.9164994303295675 -10.633748814639539" fill="#ff8f0d" stroke="none" /><path d="M 92.7421414339146 119.70592522655815 l -3.059914138951633 8.308020702364214 a29.853602799350583,29.853602799350583 0 0,0 -0.4806853392406958,-0.18175406469135644 l 3.2024696989526116 -8.254118387566225" fill="#ff6e0a" stroke="none" /><path d="M 92.40401165467489 119.57807347666478 l -3.703059053549028 9.5443487987222 a31.237540737195694,31.237540737195694 0 0,0 -0.49962055094799585,-0.19880932821525 l 3.8668006805388817 -9.479192626100884" fill="#ff810b" stroke="none" /><path d="M 92.06813273071674 119.44442032107085 l -4.302722711342776 10.547825131714111 a32.391665275100245,32.391665275100245 0 0,0 -0.5144545163643294,-0.2150420295637871 l 4.4836486872045676 -10.472198059130351" fill="#ff900d" stroke="none" /><path d="M 91.40352486487194 119.15986991738527 l -8.755364271981671 19.514002878342836 a42.38814418950521,42.38814418950521 0 0,0 -0.6631362841084648,-0.3044133432533792 l 9.089968551857554 -19.36040246475538" fill="#efff19" stroke="none" /><path d="M 90.7491055286396 118.85261126421891 l -27.752683414081172 56.55783379265673 a84.0,84.0 0 0,0 -1.292584369268958,-0.6481286363627916 l 28.72212169103289 -56.07173731538464" fill="#4dd2ff" stroke="none" /><path d="M 90.10565033884886 118.52300852407294 l -4.176200845195459 7.818179719029282 a29.863666714089156,29.863666714089156 0 0,0 -0.45133555090522337,-0.24610412845732596 l 4.310159207969322 -7.745134938812191" fill="#ff6e0a" stroke="none" /><line stroke="#e1ed5e" stroke-width="0.3" x1="58.666819895761336" x2="56.23545636021788" y1="174.27360380694188" y2="178.64263932499728" /><path d="M 58.180547188652646 175.14741091055294 a86.0,86.0 0 0,1 -31.652253787137756,-30.449443065178592" fill="none" id="id32" stroke="none" /><text fill="#e1ed5e" style="font-size:6.75px; font-family:Arial;" text-anchor="middle"><textPath startOffset="22.20632615414155" xlink:href="#id32">August</textPath></text><path d="M 89.7882731507175 118.34994917583269 l -6.653867919892093 11.956659236464251 a34.6834081424291,34.6834081424291 0 0,0 -0.5191796246165538,-0.29480374061315423 l 6.858696311429854 -11.840352330056463" fill="#ffae10" stroke="none" /><path d="M 89.4739219176387 118.17145234162733 l -4.421172032715948 7.632388460167227 a29.82043738993501,29.82043738993501 0 0,0 -0.4419561055111576,-0.26111545724219537 l 4.551896009255487 -7.555154430631282" fill="#ff6e0a" stroke="none" /><path d="M 89.1626897886671 117.98757091392108 l -6.093317420538218 10.113577729679237 a32.807327033740464,32.807327033740464 0 0,0 -0.4812066248102445,-0.2955964117769919 l 6.266503245280772 -10.007192851073867" fill="#ff960d" stroke="none" /><path d="M 87.95078237400918 117.19931262002967 l -12.301753218214571 17.559787360644506 a42.44013209830814,42.44013209830814 0 0,0 -0.5947129085245411,-0.4243118696251966 l 12.602193454587999 -17.34543122917509" fill="#efff19" stroke="none" /><path d="M 87.65650970185807 116.9893568818739 l -7.609023052179958 10.472921761468884 a33.945243220212376,33.945243220212376 0 0,0 -0.46976180298052617,-0.3475185514264069 l 7.788169825579048 -10.34039326130271" fill="#ffa50f" stroke="none" /><path d="M 87.36589467227662 116.77436683061367 l -7.488694338814778 9.942778112350515 a33.44746478169884,33.44746478169884 0 0,0 -0.45691032145691757,-0.3503393508375451 l 7.658733388765182 -9.812399419685603" fill="#ff9e0e" stroke="none" /><path d="M 87.07902340077011 116.55440617244103 l -6.863853133102455 8.793995701542592 a32.15557440168591,32.15557440168591 0 0,0 -0.4333997334174628,-0.34431895993447253 l 7.014210359237276 -8.674542827602988" fill="#ff8d0d" stroke="none" /><path d="M 86.79598089348748 116.32954008644616 l -34.46121527727534 42.618523326762265 a75.80797285925192,75.80797285925192 0 0,0 -1.0076318914043194,-0.8292124473958349 l 35.18971729722435 -42.01901576050925" fill="#43ffde" stroke="none" /><path d="M 86.24171649860922 115.8653595955263 l -7.666615715678898 8.84075511292258 a32.70196340357298,32.70196340357298 0 0,0 -0.42210082169082713,-0.37245489832115114 l 7.817658890276312 -8.707477072829139" fill="#ff940d" stroke="none" /><path d="M 85.97065885151581 115.62618273729859 l -6.873137872493584 7.655449193053271 a31.288144952406416,31.288144952406416 0 0,0 -0.39765809448303,-0.3632512409278284 l 7.003895516443468 -7.536005185538867" fill="#ff820b" stroke="none" /><path d="M 85.70375840098266 115.38237550388516 l -9.595190027289867 10.324169118759997 a35.09454290328567,35.09454290328567 0 0,0 -0.43895613472034317,-0.4150604236385744 l 9.771481996401027 -10.157474058375492" fill="#ffb410" stroke="none" /><path d="M 85.44109423537348 115.13401014063109 l -7.249314030536483 7.535675676761468 a31.456527235113363,31.456527235113363 0 0,0 -0.38699025282303157,-0.37875141303865706 l 7.3779542357353085 -7.40977416080024" fill="#ff840c" stroke="none" /><path d="M 84.9287848128048 114.62390073753433 l -8.488633690666095 8.236690601767789 a32.827931941111316,32.827931941111316 0 0,0 -0.39001685481355886,-0.4089311130051787 l 8.629157096858611 -8.08935237218011" fill="#ff960d" stroke="none" /><path d="M 84.67929136418377 114.36230785411682 l -17.598310841023725 16.49743259396947 a45.121895171189585,45.121895171189585 0 0,0 -0.5263223952487172,-0.5712190101069543 l 17.87967964426817 -16.192062329061173" fill="#cfff1d" stroke="none" /><path d="M 83.72743513129214 113.27417163493432 l -11.818122441602462 9.640507624841145 a36.251472234159166,36.251472234159166 0 0,0 -0.3902765968468543,-0.4869300623365164 l 11.982316950504178 -9.43564972892637" fill="#ffc312" stroke="none" /><path d="M 83.50135304334701 112.99209946851258 l -11.338444740738716 8.92862319418919 a35.431931308130544,35.431931308130544 0 0,0 -0.37320484086457917,-0.4824175653362918 l 11.490456398821363 -8.732127634739644" fill="#ffb811" stroke="none" /><path d="M 83.28015986056508 112.70617746262583 l -16.721629737377636 12.707537460619672 a42.00224772225593,42.00224772225593 0 0,0 -0.43250061159142245,-0.5794052474665261 l 16.937891615664146 -12.41781933364384" fill="#f4ff19" stroke="none" /><path d="M 83.06392112726016 112.41649034213515 l -12.292781882467107 9.012310858288679 a36.24251401233863,36.24251401233863 0 0,0 -0.3645310159293391,-0.506301698342209 l 12.446092690772053 -8.799375554495331" fill="#ffc212" stroke="none" /><path d="M 82.85270091963577 112.12312394758628 l -11.909651673555148 8.420112271583509 a35.585543995733794,35.585543995733794 0 0,0 -0.3493129408296447,-0.5032113442553162 l 12.052825521546927 -8.21385966514118" fill="#ffba11" stroke="none" /><path d="M 82.6465618267979 111.8261652097733 l -6.247588057004259 4.257658210857329 a28.56042392796218,28.56042392796218 0 0,0 -0.27335983417492704,-0.4086358621421632 l 6.319950996589916 -4.149485434509344" fill="#ff5c08" stroke="none" /><path d="M 82.24976979558568 111.22182372390057 l -12.64627056793174 7.995063581924087 a35.96159085646795,35.96159085646795 0 0,0 -0.32628355580717444,-0.5260729829070631 l 12.78201876340687 -7.776194267651759" fill="#ffbf11" stroke="none" /><path d="M 82.05923443525364 110.91462005526583 l -10.53382657924418 6.408462026081671 a33.33004006243783,33.33004006243783 0 0,0 -0.29396956349083736,-0.4927098975083443 l 10.642577018433249 -6.226190034687216" fill="#ff9d0e" stroke="none" /><line stroke="#e1ed5e" stroke-width="0.3" x1="26.63291911575756" x2="22.317208475507996" y1="142.92168965132927" y2="145.44649492493687" /><path d="M 25.769776987707644 143.4266507060508 a86.0,86.0 0 0,1 -11.730757126820373,-40.83630448921669" fill="none" id="id33" stroke="none" /><text fill="#e1ed5e" style="font-size:6.75px; font-family:Arial;" text-anchor="middle"><textPath startOffset="21.46611528233685" xlink:href="#id33">September</textPath></text><path d="M 81.69416730710424 110.29060199501025 l -53.195494291065664 29.90378361152838 a82.024559704728,82.024559704728 0 0,0 -0.6812865817551006,-1.2367330389502325 l 53.70235728227228 -28.983680054180326" fill="#4be4ff" stroke="none" /><path d="M 81.35079622478065 109.6543875284942 l -9.091043083590781 4.706284194494514 a31.237000306098103,31.237000306098103 0 0,0 -0.24308534009092123,-0.47963043751158446 l 9.17070709346797 -4.549099545280245" fill="#ff810b" stroke="none" /><path d="M 81.18737489456691 109.33194174019688 l -12.794566527921875 6.346703278276557 a35.28221184340525,35.28221184340525 0 0,0 -0.2651991542338625,-0.5463888071165627 l 12.901918938770455 -6.12552551519471" fill="#ffb610" stroke="none" /><path d="M 80.87730276802145 108.67885076344099 l -9.906991126466323 4.496295499441911 a31.87957473425244,31.87957473425244 0 0,0 -0.22248742344191114,-0.501650404897102 l 9.982919634639515 -4.325096758052113" fill="#ff890c" stroke="none" /><path d="M 80.73074385275274 108.34839909993369 l -10.370022609233015 4.4928089987314035 a32.3014468814876,32.3014468814876 0 0,0 -0.21664890949173127,-0.5120940249851731 l 10.445822499917053 -4.313640448080071" fill="#ff8f0d" stroke="none" /><path d="M 80.58989483394504 108.01547362559985 l -28.856609423250344 11.916441965538823 a52.220273806039486,52.220273806039486 0 0,0 -0.3359439273313974,-0.8337852770755634 l 29.05745596483913 -11.417957320620454" fill="#80ff25" stroke="none" /><path d="M 80.32549172779594 107.34259656027581 l -8.252420985897757 3.079832903910877 a29.808395020916002,29.808395020916002 0 0,0 -0.17526731445027585,-0.48226037505086194 l 8.304212561353259 -2.9373247318538978" fill="#ff6e0a" stroke="none" /><path d="M 80.20201598880116 107.00284435728193 l -13.608605153963188 4.813568076375985 a35.43483882356777,35.43483882356777 0 0,0 -0.198450569033354,-0.576790246263172 l 13.68944655393977 -4.578605127023516" fill="#ffb811" stroke="none" /><path d="M 80.0844068197444 106.66101706037122 l -9.539178612350652 3.190496557330284 a31.058588215085877,31.058588215085877 0 0,0 -0.16521357029145192,-0.5084750854039503 l 9.592684433658352 -3.0258225719485305" fill="#ff7e0b" stroke="none" /><path d="M 79.97269907076064 106.31721596034903 l -8.378921457952503 2.6429650481463485 a29.785874404079546,29.785874404079546 0 0,0 -0.15002609854507307,-0.49029397049726886 l 8.423174329003707 -2.498344105097032" fill="#ff6d0a" stroke="none" /><path d="M 79.76711848015287 105.62410040840567 l -11.091191035802906 3.0829999163972657 a32.51170739191977,32.51170739191977 0 0,0 -0.14523741961187286,-0.5404824680220497 l 11.142616531756554 -2.8916265151996767" fill="#ff920d" stroke="none" /><path d="M 79.67330655649465 105.27499134158121 l -13.001134677848935 3.373931576574097 a34.431787565137036,34.431787565137036 0 0,0 -0.1439391131816727,-0.5749652066131724 l 13.057285105325665 -3.149638530563533" fill="#ffab0f" stroke="none" /><path d="M 79.58551787078972 104.9243191809786 l -26.619758630469537 6.421137072562747 a48.38325310932025,48.38325310932025 0 0,0 -0.18832474893307355,-0.8112980894870814 l 26.726343945333166 -5.961970325727091" fill="#aaff21" stroke="none" /><path d="M 79.50377843672027 104.57218783832718 l -15.303727165240822 3.4138738698721767 a36.67987882438911,36.67987882438911 0 0,0 -0.13216277574849675,-0.6174204890433923 l 15.36022397971376 -3.1499395614126207" fill="#ffc812" stroke="none" /><path d="M 79.35854240842038 103.8639653848113 l -11.49511998092893 2.151822152263182 a32.69479037652758,32.69479037652758 0 0,0 -0.09879051268405384,-0.5540696592244923 l 11.530456935952172 -1.953633742305476" fill="#ff940d" stroke="none" /><path d="M 79.29508885075956 103.50808413554451 l -13.210669423231579 2.2383162859050363 a34.39894945156722,34.39894945156722 0 0,0 -0.0938898778275463,-0.5846523588570275 l 13.247241055420416 -2.0105846973547954" fill="#ffab0f" stroke="none" /><path d="M 79.23777060512086 103.15116336523772 l -47.73853030520234 7.245460251255454 a69.28523552757349,69.28523552757349 0 0,0 -0.16881165839555937,-1.180668345640314 l 47.8561760146145 -6.42264643363474" fill="#3bff99" stroke="none" /><path d="M 79.1416061653843 102.43462659150553 l -10.814825917682011 1.2623245572243247 a31.888247008473776,31.888247008473776 0 0,0 -0.058944207525472345,-0.5457501554043842 l 10.834952426708535 -1.0759780799351584" fill="#ff8a0c" stroke="none" /><path d="M 79.10278846688536 102.07522291339032 l -17.706950545934284 1.7584101802751448 a38.794046869620686,38.794046869620686 0 0,0 -0.060270068627020786,-0.6650751850753658 l 17.734595210838382 -1.453353606651213" fill="#ffe315" stroke="none" /><path d="M 79.07016306316243 101.71520430193888 l -2.372902678568455 0.1944598467080973 a23.38085735690719,23.38085735690719 0 0,0 -0.029419176797513356,-0.4014012937572566 l 2.3758984140303037 -0.15358541645408008" fill="#ff1302" stroke="none" /><path d="M 79.04373962182676 101.35467743843564 l -12.898242750264252 0.8337822747921106 a33.92516378722149,33.92516378722149 0 0,0 -0.032654826517995894,-0.5830738637505247 l 12.91068392766978 -0.6116366947061483" fill="#ffa40f" stroke="none" /><path d="M 79.0235259727143 100.99374915477108 l -16.497677436216446 0.7815685794762429 a37.51618025555152,37.51618025555152 0 0,0 -0.025006976530838637,-0.6453189482585456 l 16.508686545598486 -0.49747238420370055" fill="#ffd313" stroke="none" /><line stroke="#e1ed5e" stroke-width="0.3" x1="15.007084014347285" x2="10.007500721073583" y1="101.09737516637583" y2="101.16192664675087" /><path d="M 14.007167355692545 101.11028546245083 a86.0,86.0 0 0,1 10.666146001902534,-42.60595125391555" fill="none" id="id34" stroke="none" /><text fill="#e1ed5e" style="font-size:6.75px; font-family:Arial;" text-anchor="middle"><textPath startOffset="22.20632615414155" xlink:href="#id34">October</textPath></text><path d="M 79.00175016825051 100.2711162175752 l -20.5721489915062 0.2656146710635657 a41.57386364497961,41.57386364497961 0 0,0 -0.003079836778967948,-0.7156456029577586 l 20.57367312557467 0.08854041009786824" fill="#f9ff18" stroke="none" /><path d="M 79.00486145842228 99.54816195383935 l -16.29098763576347 -0.3505996404259737 a37.29475984040468,37.29475984040468 0 0,0 0.019336987635507816,-0.6417004797596982 l 16.28253895367232 0.6309702676106663" fill="#ffd013" stroke="none" /><path d="M 79.01574976396665 99.18683210126434 l -8.727092495049927 -0.3381865630865118 a29.733642628858192,29.733642628858192 0 0,0 0.024220730450208987,-0.5112613387105394 l 8.719978156366219 0.4883590084200603" fill="#ff6d0a" stroke="none" /><path d="M 79.03285615573316 98.82574320788736 l -8.259235162083868 -0.4625552749944271 a29.2721776362109,29.2721776362109 0 0,0 0.032505232499536754,-0.5028415596113706 l 8.250049338579919 0.6046558988588094" fill="#ff6609" stroke="none" /><path d="M 79.05617556472873 98.46500227214037 l -27.604837582600005 -2.0231912799968232 a48.67887932914158,48.67887932914158 0 0,0 0.06844138282291995,-0.8351582261053175 l 27.56592171595759 2.4980634233099193" fill="#a7ff21" stroke="none" /><path d="M 79.16333360222342 97.38593545837743 l -19.867507233459712 -2.4924786526773124 a41.02324383074895,41.02324383074895 0 0,0 0.09393150928611638,-0.6998988482650699 l 19.82165972511576 2.834095843007042" fill="#fffe18" stroke="none" /><path d="M 79.21141760316559 97.0276538004421 l -3.424220036917293 -0.4895941059805497 a24.459043979170655,24.459043979170655 0 0,0 0.06317899942756793,-0.4162706680093547 l 3.4152851440504226 0.5484638863819964" fill="#ff2303" stroke="none" /><path d="M 79.26566170972629 96.67025291283419 l -11.542509132592194 -1.8536225089402776 a32.6903992011233,32.6903992011233 0 0,0 0.09400535018650592,-0.5548248981385356 l 11.508891920885464 2.052033195394641" fill="#ff940d" stroke="none" /><path d="M 79.32604984820605 96.31383870115002 l -2.8504467543519203 -0.5082341029739231 a23.89540128528346,23.89540128528346 0 0,0 0.07568501516066627,-0.40431237735667763 l 2.8412760152813923 0.5572245577931734" fill="#ff1b02" stroke="none" /><path d="M 79.3925641242962 95.95851677861259 l -9.608046738408643 -1.8843081651592613 a30.791076518377885,30.791076518377885 0 0,0 0.10647950744285141,-0.5192318937187159 l 9.574187935050796 2.0494157150413796" fill="#ff7b0b" stroke="none" /><path d="M 79.46518482838121 95.60439243477599 l -46.75300507941407 -10.007777577080983 a68.81212289773424,68.81212289773424 0 0,0 0.2579000149693952,-1.1561151979967506 l 46.57381067744264 10.811070944627692" fill="#3aff94" stroke="none" /><path d="M 79.62865764111835 94.90015583598534 l -6.7103076975473375 -1.679885544467286 a27.917387139539986,27.917387139539986 0 0,0 0.12071434080318755,-0.4651615975933915 l 6.680397024873842 1.7951435676095413" fill="#ff5407" stroke="none" /><path d="M 79.71946130924805 94.55025226153421 l -15.297556934103474 -4.1107303694895565 a36.84024470526832,36.84024470526832 0 0,0 0.16983919347821688,-0.6110019433392907 l 15.224530970058895 4.3734436162477905" fill="#ffca12" stroke="none" /><path d="M 79.81627453868168 94.20196356495316 l -39.550130685117914 -11.361287050928812 a62.149625522761546,62.149625522761546 0 0,0 0.3042197619264588,-1.0256778014712575 l 39.34870502607975 12.040394239146607" fill="#32ff47" stroke="none" /><path d="M 79.91906864156998 93.8553929516997 l -12.948935346832293 -3.962272365755019 a34.541585170018635,34.541585170018635 0 0,0 0.1788670461520505,-0.5670574161300835 l 12.878812816912038 4.184579948311518" fill="#ffad10" stroke="none" /><path d="M 80.02781315780177 93.51064311812611 l -3.5922338581293234 -1.16718753398094 a24.77709820245267,24.77709820245267 0 0,0 0.13528614916075127,-0.4044883664445599 l 3.5716104151968 1.228849003347822" fill="#ff2703" stroke="none" /><path d="M 80.14247586403 93.16781622104843 l -31.43486634363038 -10.815486485418848 a54.24342897413237,54.24342897413237 0 0,0 0.31137515472112237,-0.8802994926258976 l 31.244038108099446 11.354983604471357" fill="#6bff28" stroke="none" /><path d="M 80.2630227832202 92.82701384747504 l -3.3097826921171642 -1.2028703867702326 a24.521584676875896,24.521584676875896 0 0,0 0.14759122789647203,-0.39547111302065235 l 3.288586875719065 1.2596646368202264" fill="#ff2403" stroke="none" /><path d="M 80.38941819471856 92.48833698450439 l -3.1949520328222523 -1.2237986235966765 a24.421315764899838,24.421315764899838 0 0,0 0.1537454983093191,-0.3912655233740634 l 3.1734129846312418 1.2786131518665034" fill="#ff2203" stroke="none" /><path d="M 80.52162464483688 92.15188598940014 l -33.09712475441409 -13.335301520762439 a56.682627897324195,56.682627897324195 0 0,0 0.3724273038157156,-0.9018622568585033 l 32.862675763712176 13.903038348074254" fill="#52ff2b" stroke="none" /><path d="M 80.65960295795068 91.81776055985345 l -1.82538000355918 -0.7722538594168467 a22.982016190846565,22.982016190846565 0 0,0 0.15727282062717038,-0.36300735379183 l 1.811816473089329 0.803560357795276" fill="#ff0e01" stroke="none" /><path d="M 80.803312248108 91.48605970444005 l -3.168824106144204 -1.405408036820509 a24.46649938203374,24.46649938203374 0 0,0 0.17405896760444903,-0.38351586272593235 l 3.1441628215764035 1.4597459083885123" fill="#ff2303" stroke="none" /><path d="M 80.95270993114464 91.15688171328213 l -7.332416495914199 -3.4042336818755268 a29.084128810847243,29.084128810847243 0 0,0 0.2147264695891861,-0.45226870703189886 l 7.272731832483261 3.529944804547958" fill="#ff6409" stroke="none" /><path d="M 81.10775173730289 90.83032412892265 l -5.378908508712599 -2.610745258014784 a26.979017272708575,26.979017272708575 0 0,0 0.20637661834369325,-0.4160426693089319 l 5.333171877415493 2.7029475158226774" fill="#ff4606" stroke="none" /><path d="M 81.26839172434947 90.50648371742162 l -1.6283648426739323 -0.8252846162706917 a22.825559300244603,22.825559300244603 0 0,0 0.18063774469262295,-0.34893462690680027 l 1.6139176648211953 0.8531919654378275" fill="#ff0b01" stroke="none" /><path d="M 81.6062741919709 89.86733742301443 l -2.227051124850851 -1.2268290734202145 a23.542610132932012,23.542610132932012 0 0,0 0.1985901661466809,-0.35326974628872904 l 2.2056033174117395 1.2649823296437281" fill="#ff1602" stroke="none" /><line stroke="#e1ed5e" stroke-width="0.3" x1="26.266209847984243" x2="21.928928074336255" y1="57.711370442889674" y2="55.22380399835377" /><path d="M 25.398753493254645 57.213857153982495 a86.0,86.0 0 0,1 29.58750427330803,-30.492523968695096" fill="none" id="id35" stroke="none" /><text fill="#e1ed5e" style="font-size:6.75px; font-family:Arial;" text-anchor="middle"><textPath startOffset="21.46611528233685" xlink:href="#id35">November</textPath></text><path d="M 81.78341655067845 89.55222093294921 l -1.2067379830810163 -0.6921018902432273 a22.39112241959099,22.39112241959099 0 0,0 0.19463251311652113,-0.3326900559722251 l 1.1946457954941703 0.7127713585693443" fill="#ff0500" stroke="none" /><path d="M 81.96595687620814 89.24020034530311 l -2.480027002094479 -1.4796789326499296 a23.88790298916805,23.88790298916805 0 0,0 0.21372188493981578,-0.35130258445515006 l 2.4541893188684463 1.5221492903121543" fill="#ff1b02" stroke="none" /><path d="M 82.15384107792192 88.93136811851018 l -19.909343160812902 -12.348270090583407 a44.42779800418734,44.42779800418734 0 0,0 0.4086773587603662,-0.6464294374789106 l 19.69383820580657 12.689147175776533" fill="#d7ff1c" stroke="none" /><path d="M 82.34701348167596 88.62581576622439 l -17.299871993435897 -11.146665243856766 a41.57993481641456,41.57993481641456 0 0,0 0.3928380461511907,-0.5983192953574552 l 17.105437311926785 11.442802603191888" fill="#f9ff18" stroke="none" /><path d="M 82.54541684631803 88.32363383020206 l -1.3388858589581878 -0.8956571125826318 a22.610843569884445,22.610843569884445 0 0,0 0.21919116959141677,-0.3216359946056805 l 1.3232702236980307 0.9185711304587281" fill="#ff0801" stroke="none" /><path d="M 82.7489923806493 88.02491185347247 l -5.753807434182786 -3.994105893570845 a28.0042260014019,28.0042260014019 0 0,0 0.27829183612631797,-0.393624066396828 l 5.684202978252589 4.092556460299459" fill="#ff5507" stroke="none" /><path d="M 82.95767976084542 87.72973835380427 l -2.1929083573143746 -1.5788671338634264 a23.702159967502542,23.702159967502542 0 0,0 0.24123989282085417,-0.3290509426968035 l 2.165405851979887 1.6163805202317307" fill="#ff1802" stroke="none" /><path d="M 83.17141714833178 87.43820079747576 l -10.5821053935088 -7.899077674269456 a34.20516499947919,34.20516499947919 0 0,0 0.35626155019001454,-0.46879843954055084 l 10.444567903094676 8.080060889691033" fill="#ffa80f" stroke="none" /><path d="M 83.39014120810768 87.1503855733568 l -2.049031695698485 -1.5851590051173945 a23.590609959349685,23.590609959349685 0 0,0 0.25123541208132305,-0.3190434599877283 l 2.0214422030231907 1.6201948590581705" fill="#ff1602" stroke="none" /><path d="M 83.6137871275137 86.86637796730984 l -43.51451959669514 -34.877079759941395 a76.76669353935625,76.76669353935625 0 0,0 0.8353002491453504,-1.0239793384389833 l 42.90772085547339 35.62094326798846" fill="#44ffe7" stroke="none" /><path d="M 84.07557802195018 86.31012108654704 l -10.74259917298809 -9.235178651801665 a35.1665790409039,35.1665790409039 0 0,0 0.3985681877080001,-0.455632338028075 l 10.582039121702246 9.418726546032683" fill="#ffb510" stroke="none" /><path d="M 84.31358615837235 86.03803664274999 l -1.2282228857007371 -1.0932009761964954 a22.644268783172635,22.644268783172635 0 0,0 0.26165599161125774,-0.28892708117952903 l 1.2092232534734344 1.1141808446455803" fill="#ff0901" stroke="none" /><path d="M 84.5562425177563 85.77008943001954 l -2.2403462359525865 -2.064259725656225 a24.04636167779094,24.04636167779094 0 0,0 0.28309744735558356,-0.3019886184402435 l 2.204481466626547 2.1025177609745187" fill="#ff1d02" stroke="none" /><path d="M 84.80347519578584 85.50635884689758 l -2.04225758371438 -1.9477972063948403 a23.82218532266725,23.82218532266725 0 0,0 0.285566445828686,-0.29430132442572454 l 2.0084268741825757 1.9826627263706884" fill="#ff1a02" stroke="none" /><path d="M 85.05521093208273 85.24692304244772 l -1.0340612357141765 -1.020796273536091 a22.453033953929467,22.453033953929467 0 0,0 0.2738887369821185,-0.2727125717039634 l 1.0163366985647448 1.0384446958901636" fill="#ff0600" stroke="none" /><path d="M 85.57189188830299 84.74124197986013 l -29.742642396423772 -31.454975225660657 a64.29018645338076,64.29018645338076 0 0,0 0.8106445010578077,-0.7534057165039442 l 29.196790011571107 31.96228552823925" fill="#34ff61" stroke="none" /><path d="M 85.83668400450813 84.49514656593479 l -1.96135504654158 -2.1471329551971383 a23.908108241776382,23.908108241776382 0 0,0 0.30623897259066885,-0.27494437327811294 l 1.92410508635494 2.1805763372445304" fill="#ff1b02" stroke="none" /><path d="M 86.10567301691215 84.25364557470407 l -2.3712420885587795 -2.6873139231625824 a24.58391478193554,24.58391478193554 0 0,0 0.3197152181183738,-0.27725388662617695 l 2.3246330717936323 2.72773280320844" fill="#ff2503" stroke="none" /><path d="M 86.37877921826538 84.01681056812374 l -4.752150799493223 -5.57619083151443 a28.326448076018124,28.326448076018124 0 0,0 0.37383150423750156,-0.3130731339803846 l 4.655461758296611 5.657165122888627" fill="#ff5908" stroke="none" /><path d="M 87.51073957382395 83.11751280151077 l -26.66717398678304 -36.04762876976811 a65.83937676155158,65.83937676155158 0 0,0 0.916906385822083,-0.6661714834994369 l 26.042722284607176 36.501319488084214" fill="#36ff72" stroke="none" /><path d="M 88.09926311788651 82.69761687909137 l -5.489845518902246 -7.981641085218329 a30.6873628111399,30.6873628111399 0 0,0 0.4377995161552787,-0.29560418760297813 l 5.351641308340429 8.074957185119972" fill="#ff790b" stroke="none" /><path d="M 88.39885842347998 82.49532879139004 l -3.0099574309842043 -4.541649184587886 a26.44852466748613,26.44852466748613 0 0,0 0.3816559568383795,-0.24823965077879012 l 2.9313344483615373 4.592787759526211" fill="#ff3f05" stroke="none" /><path d="M 88.70189139769569 82.29822771554957 l -0.8311404108699787 -1.3022231249064289 a22.54485580221009,22.54485580221009 0 0,0 0.3289196204917476,-0.20596943617678928 l 0.8086016380059888 1.3163369024061484" fill="#ff0701" stroke="none" /><path d="M 89.00827224532344 82.1063720568725 l -0.9886664603229753 -1.6094676101617762 a22.888874627371393,22.888874627371393 0 0,0 0.3374887545820264,-0.2033331984482246 l 0.9608156395232998 1.6262474180686202" fill="#ff0c01" stroke="none" /><line stroke="#e1ed5e" stroke-width="0.3" x1="56.762969772571076" x2="54.21961505331055" y1="26.818313649435495" y2="22.513508569990535" /><path d="M 56.25429882871897 25.957352633546506 a86.0,86.0 0 0,1 42.265352541879196,-11.944610805530505" fill="none" id="id36" stroke="none" /><text fill="#e1ed5e" style="font-size:6.75px; font-family:Arial;" text-anchor="middle"><textPath startOffset="22.20632615414155" xlink:href="#id36">December</textPath></text><path d="M 89.63071344664047 81.73862282372117 l -0.5998080659868131 -1.0563235252487828 a22.21473828704658,22.21473828704658 0 0,0 0.33414765202128305,-0.18595280657585853 l 0.5815363248934845 1.066491729384826" fill="#ff0200" stroke="none" /><path d="M 89.94658935756843 81.56283822128135 l -2.335557475465004 -4.2832281053854375 a25.87861370923792,25.87861370923792 0 0,0 0.39292972238909607,-0.20988944968222323 l 2.261482706547602 4.322796281569411" fill="#ff3705" stroke="none" /><path d="M 90.26544431104013 81.39251694778311 l -1.1377305567833578 -2.1747579170300724 a23.4543844070405,23.4543844070405 0 0,0 0.35934296204890065,-0.18406942211781427 l 1.1001271071456933 2.1940198644603917" fill="#ff1402" stroke="none" /><path d="M 90.58718382345135 81.22770947309562 l -4.760119930615363 -9.493264566565054 a31.61983116083496,31.61983116083496 0 0,0 0.4886449401890486,-0.23977594998908983 l 4.596003723415889 9.573795676688974" fill="#ff860c" stroke="none" /><path d="M 90.91171255644093 81.06846463323043 l -13.73740228492007 -28.615965199122172 a52.74255323402795,52.74255323402795 0 0,0 0.8218339338030594,-0.3858620515104861 l 13.242790139817401 28.848192233272666" fill="#7aff26" stroke="none" /><path d="M 91.23893434514133 80.91482961587045 l -0.6983847992458783 -1.5213666250636844 a22.67400649212462,22.67400649212462 0 0,0 0.35610918033824507,-0.15977580888431803 l 0.6720935004408589 1.5331627644645314" fill="#ff0901" stroke="none" /><path d="M 91.90106846888425 80.62456947434976 l -16.81928080583099 -40.23750608247031 a64.61129558454128,64.61129558454128 0 0,0 1.0298306113780484,-0.4200937638878206 l 16.12416632486456 40.52106073254171" fill="#35ff64" stroke="none" /><path d="M 92.23578459929587 80.48803036053334 l -0.5766347147675824 -1.4491199003298139 a22.55963331581721,22.55963331581721 0 0,0 0.3620464866125987,-0.14046841207604244 l 0.5516050631553073 1.4588310162964078" fill="#ff0701" stroke="none" /><path d="M 92.57280143429618 80.3572730644239 l -0.6147184906437907 -1.6257472244949 a22.738083099478345,22.738083099478345 0 0,0 0.3672933173997662,-0.13527722851414825 l 0.586642847471455 1.6360877208153706" fill="#ff0a01" stroke="none" /><path d="M 92.91201910852362 80.23233633223022 l -1.9747806910711732 -5.507464130672877 a26.850805066696026,26.850805066696026 0 0,0 0.43641252260247965,-0.1522557599514985 l 1.8796861644054081 5.540640743796585" fill="#ff4506" stroke="none" /><path d="M 93.25333710446033 80.11325718540243 l -1.6189848393196289 -4.772186726799049 a26.039333097284185,26.039333097284185 0 0,0 0.4257023976023538,-0.14034738743118405 l 1.5365996194748657 4.799347838489466" fill="#ff3905" stroke="none" /><path d="M 93.59665428221793 80.00007090966166 l -2.1980474891618793 -6.865285095938955 a28.208574908616292,28.208574908616292 0 0,0 0.46371488921140297,-0.1440784733263984 l 2.0795472272397477 6.902103704147878" fill="#ff5808" stroke="none" /><path d="M 93.94186890950719 79.89281104454417 l -4.334844592794906 -14.387529424156591 a36.02637283494107,36.02637283494107 0 0,0 0.595309704460369,-0.17378722719892972 l 4.086544670611116 14.46001498027422" fill="#ffc011" stroke="none" /><path d="M 94.28887869178378 79.79150937346287 l -2.251996088407173 -7.968565083375671 a29.28067122099381,29.28067122099381 0 0,0 0.4862015171288926,-0.13289724100004022 l 2.114496682054558 8.006148865202007" fill="#ff6609" stroke="none" /><path d="M 94.63758080256005 79.69619591428918 l -8.830202714550135 -33.433922144492236 a55.580335885355666,55.580335885355666 0 0,0 0.9271094106924878,-0.2363408317376417 l 8.253384415172647 33.580965972398744" fill="#5dff2a" stroke="none" /><path d="M 94.98787191387505 79.60689891045804 l -1.2773159856785476 -5.197080675440101 a26.351745852925276,26.351745852925276 0 0,0 0.4414247618210661,-0.10447097926099427 l 1.1876675368949474 5.218297566841966" fill="#ff3e05" stroke="none" /><path d="M 95.33964822691252 79.52364482259891 l -3.8400801042126416 -16.872298047886737 a38.30377579095072,38.30377579095072 0 0,0 0.644155100617451,-0.14078735538207882 l 3.5490822794416697 16.935898901364684" fill="#ffdd14" stroke="none" /><path d="M 95.692805502759 79.44645832069477 l -6.320357871357817 -30.160174800624745 a51.81530573637514,51.81530573637514 0 0,0 0.8745278503191202,-0.17542205964314692 l 5.80026361157156 30.2645008163451" fill="#84ff25" stroke="none" /><path d="M 96.04723909329186 79.375362276772 l -1.0711237329110253 -5.588888240255181 a26.69060434517002,26.69060434517002 0 0,0 0.4519671012311797,-0.08259409884899155 l 0.9747615105769523 5.6064978204549085" fill="#ff4206" stroke="none" /><path d="M 96.40284397218896 79.31037775812273 l -5.973488077660055 -34.35747875199941 a55.8728964384669,55.8728964384669 0 0,0 0.9489633489537056,-0.1565870836090944 l 5.381195522567464 34.45521209854813" fill="#5aff2a" stroke="none" /><path d="M 96.75951476605007 79.25152402106235 l -5.056763982506562 -32.37791208642673 a53.77041429477439,53.77041429477439 0 0,0 0.9157127660482915,-0.13495225820402348 l 4.498682236029621 32.46015882879172" fill="#70ff27" stroke="none" /><path d="M 97.11714578562143 79.19881850522333 l -0.6916800319285984 -4.990804532778341 a26.038506837443965,26.038506837443965 0 0,0 0.44449624727957626,-0.057708370024606374 l 0.6056690561411644 5.001971225967084" fill="#ff3905" stroke="none" /><path d="M 97.47563105711357 79.15227682838746 l -2.642620419396283 -21.824313401760545 a42.983723482141855,42.983723482141855 0 0,0 0.7352945086626934,-0.08261890545905248 l 2.2665592072238714 21.866568260690197" fill="#e8ff1a" stroke="none" /><path d="M 97.83486435360386 79.11191278185805 l -1.9695240765945605 -19.000929922619054 a40.10273182067334,40.10273182067334 0 0,0 0.6872364532047216,-0.06526138206786923 l 1.6421624962996024 19.032016849202105" fill="#fff316" stroke="none" /><path d="M 98.19473922651362 79.07773832637324 l -0.4534609033073538 -5.255433351843777 a26.27496033222054,26.27496033222054 0 0,0 0.45094064180227555,-0.0350016726810679 l 0.36293007214274403 5.262460286713307" fill="#ff3d05" stroke="none" /><path d="M 98.55514903715128 79.0497635885617 l -2.0229706203349425 -29.332930412317328 a50.40260561080581,50.40260561080581 0 0,0 0.8660558543689376,-0.052242854231479355 l 1.517752717126382 29.363406535929112" fill="#94ff23" stroke="none" /><path d="M 98.91598698831166 79.02799685794201 l -0.2425813427203572 -4.693132487231297 a25.69939764762909,25.69939764762909 0 0,0 0.4419796696434993,-0.019032574303783488 l 0.16176084068753382 4.696612788059273" fill="#ff3405" stroke="none" /><path d="M 99.27714615592234 79.0124445844662 l -0.39883145550324167 -11.57979215634216 a32.586658401540205,32.586658401540205 0 0,0 0.56075954258665,-0.014482764583214153 l 0.19944527772171267 11.584941713067733" fill="#ff930d" stroke="none" /><path d="M 99.63851952072746 79.00311137660856 l -0.19719586218266075 -11.454282575854437 a32.4559799028972,32.4559799028972 0 0,0 0.5586763414551936,-0.004808703651320528 l 2.805905823835892e-15 11.455979902897198" fill="#ff910d" stroke="none" /></svg>