<?xml version="1.0" encoding="utf-8" ?>
<svg baseProfile="full" height="200mm" version="1.1" viewBox="0,0,200,200" width="200mm" xmlns="http://www.w3.org/2000/svg" xmlns:ev="http://www.w3.org/2001/xml-events" xmlns:xlink="http://www.w3.org/1999/xlink"><defs /><rect fill="#1a1a1a" height="200" width="200" x="0" y="0" /><text alignment-baseline="middle" fill="#e1ed5e" style="dominant-baseline: central; font-size:9.0px; font-family:Arial;" text-anchor="middle" x="100.0" y="100.0">2024</text><line stroke="#e1ed5e" stroke-width="0.3" x1="100.0" x2="100.0" y1="15.0" y2="10.0" /><path d="M 100.0 14.0 a86.0,86.0 0 0,1 42.35913384403234,11.155469271406648" fill="none" id="id97" stroke="none" /><text fill="#e1ed5e" style="font-size:6.75px; font-family:Arial;" text-anchor="middle"><textPath startOffset="22.145653131862478" xlink:href="#id97">January</textPath></text><path d="M 101.80034050326958 79.07731436759882 l 0.38943698977498986 -4.525848135890472 a25.542572235875646,25.542572235875646 0 0,0 0.4365352537012198,0.04134034238949753 l -0.4670718068612226 4.51849603799579" fill="#ff0f01" stroke="none" /><path d="M 102.15924093988457 79.11130261209362 l 0.8422560367906499 -8.148063122866578 a29.19147898036298,29.19147898036298 0 0,0 0.49801232846852567,0.055803320159210364 l -0.9820042668599722 8.132404042200395" fill="#ff4606" stroke="none" /><path d="M 102.51750503828377 79.15144685158666 l 0.9555965099803403 -7.913709932570843 a28.971196245655793,28.971196245655793 0 0,0 0.49323072305600846,0.06385859192268843 l -1.0913050549271404 7.8961397444477575" fill="#ff4206" stroke="none" /><path d="M 103.23170211078529 79.25015418208739 l 1.1947766922454843 -7.6713234391845475 a28.763806711460255,28.763806711460255 0 0,0 0.4872349116714043,0.0801743193009009 l -1.326289106969959 7.649683121387978" fill="#ff3f05" stroke="none" /><path d="M 103.58742460773223 79.30868818359171 l 1.3152627572977689 -7.5860860666171845 a28.6992608691262,28.6992608691262 0 0,0 0.48469671443030776,0.08832788746627236 l -1.4452942052791302 7.562390005219546" fill="#ff3e05" stroke="none" /><path d="M 103.94208987418118 79.37332000966035 l 0.6626207628173312 -3.4671118279429907 a24.529862703106,24.529862703106 0 0,0 0.4129234607138606,0.08259625673875497 l -0.7220407090621487 3.4552261745413766" fill="#ff0000" stroke="none" /><path d="M 104.29559338865022 79.4440306129975 l 2.039798951313779 -9.761176397568986 a30.97202809995232,30.97202809995232 0 0,0 0.5195005871586417,0.1132227350416585 l -2.207061955091555 9.724722204393608" fill="#ff5f08" stroke="none" /><path d="M 104.64783097203109 79.52079915486377 l 1.5567261590699863 -6.859222692115264 a28.033657105259095,28.033657105259095 0 0,0 0.4683861376817538,0.11053785314356136 l -1.6742444504916252 6.831488695325475" fill="#ff3505" stroke="none" /><path d="M 104.9986988182912 79.60360301121754 l 1.8253055540361223 -7.4478695475150065 a28.668278891798114,28.668278891798114 0 0,0 0.476978328434877,0.12124602587890185 l -1.9528891756963935 7.4154382898008375" fill="#ff3e05" stroke="none" /><path d="M 106.72888874123014 80.10723608172694 l 20.186666223690402 -59.67829175481916 a84.0,84.0 0 0,0 1.3619769118199267,0.4737662697256382 l -21.208148907555344 59.32296705252493" fill="#4dd2ff" stroke="none" /><path d="M 108.07796709384702 80.6158196554323 l 3.009456142310271 -7.221599187503946 a28.823574700700867,28.823574700700867 0 0,0 0.455089827569399,0.19425078607548094 l -3.1329810450501 7.1688737517690635" fill="#ff4006" stroke="none" /><path d="M 108.4095320186766 80.7573450057729 l 1.6803149702266083 -3.8448894875358297 a25.196025925864994,25.196025925864994 0 0,0 0.3948416396906759,0.176607643250735 l -1.7460700127729158 3.815478093375242" fill="#ff0a01" stroke="none" /><path d="M 108.73861861582097 80.90454125486305 l 2.0354149978545477 -4.44774910423449 a25.891358329514404,25.891358329514404 0 0,0 0.40256289084683183,0.1884197595082879 l -2.1114666025728845 4.412153113155669" fill="#ff1502" stroke="none" /><path d="M 109.06512990194946 81.05736502329252 l 4.433125335478372 -9.263526937203828 a31.269641257432568,31.269641257432568 0 0,0 0.4822072776415022,0.23587174320929083 l -4.591492862381941 9.186061443897318" fill="#ff6409" stroke="none" /><path d="M 109.3889696526874 81.21577127319529 l 2.282624730913026 -4.566778531514222 a26.10547175274479,26.10547175274479 0 0,0 0.3991312544824504,0.2037992624615217 l -2.360683207109055 4.526921317379867" fill="#ff1802" stroke="none" /><path d="M 109.71004243097381 81.37971332152246 l 3.912220876874626 -7.5021993770653985 a29.460996849230835,29.460996849230835 0 0,0 0.44641993788105633,0.23769347221866316 l -4.040429630542242 7.433935437124162" fill="#ff4906" stroke="none" /><path d="M 110.02825361518725 81.54914285379988 l 3.33314657553614 -6.132614278863656 a27.97988710419665,27.97988710419665 0 0,0 0.4200391440159131,0.23298863259145627 l -3.437929907708153 6.0744927308390535" fill="#ff3404" stroke="none" /><line stroke="#e1ed5e" stroke-width="0.3" x1="143.13028292997686" x2="145.6673583964461" y1="26.7553504044142" y2="22.446841604673864" /><path d="M 143.63769802327073 25.89364864446614 a86.0,86.0 0 0,1 29.32050498858742,28.57503671076993" fill="none" id="id98" stroke="none" /><text fill="#e1ed5e" style="font-size:6.75px; font-family:Arial;" text-anchor="middle"><textPath startOffset="20.669276256404974" xlink:href="#id98">February</textPath></text><line stroke="#e1ed5e" stroke-width="0.3" x1="172.87174338648825" x2="177.1583165268699" y1="56.24261187166439" y2="53.66864786411523" /><path d="M 173.72905801456457 55.72781907015455 a86.0,86.0 0 0,1 12.242430191666344,42.057860355516425" fill="none" id="id99" stroke="none" /><text fill="#e1ed5e" style="font-size:6.75px; font-family:Arial;" text-anchor="middle"><textPath startOffset="22.145653131862474" xlink:href="#id99">March</textPath></text><line stroke="#e1ed5e" stroke-width="0.3" x1="184.99686870605535" x2="189.99668451229388" y1="99.2704041080226" y2="99.22748670261217" /><path d="M 185.99683186730306 99.26182062694052 a86.0,86.0 0 0,1 -10.086455211305974,41.156179273409016" fill="none" id="id100" stroke="none" /><text fill="#e1ed5e" style="font-size:6.75px; font-family:Arial;" text-anchor="middle"><textPath startOffset="21.40746469413373" xlink:href="#id100">April</textPath></text><line stroke="#e1ed5e" stroke-width="0.3" x1="174.33088141563837" x2="178.70328620479359" y1="141.23008692659167" y2="143.65538615756765" /><path d="M 175.20536237346943 141.71514677278685 a86.0,86.0 0 0,1 -30.301960400862466,31.631185727798858" fill="none" id="id101" stroke="none" /><text fill="#e1ed5e" style="font-size:6.75px; font-family:Arial;" text-anchor="middle"><textPath startOffset="22.145653131862474" xlink:href="#id101">May</textPath></text><line stroke="#e1ed5e" stroke-width="0.3" x1="143.1302829299769" x2="145.66735839644613" y1="173.24464959558577" y2="177.55315839532614" /><path d="M 143.63769802327073 174.10635135553383 a86.0,86.0 0 0,1 -40.68552437913181,11.842963189579606" fill="none" id="id102" stroke="none" /><text fill="#e1ed5e" style="font-size:6.75px; font-family:Arial;" text-anchor="middle"><textPath startOffset="21.407464694133747" xlink:href="#id102">June</textPath></text><line stroke="#e1ed5e" stroke-width="0.3" x1="101.45913802915013" x2="101.54496967792366" y1="184.9874750549273" y2="189.98673829345242" /><path d="M 101.47630435890484 185.9873277026323 a86.0,86.0 0 0,1 -42.54439059252881,-10.42667462771756" fill="none" id="id103" stroke="none" /><text fill="#e1ed5e" style="font-size:6.75px; font-family:Arial;" text-anchor="middle"><textPath startOffset="22.145653131862474" xlink:href="#id103">July</textPath></text><line stroke="#e1ed5e" stroke-width="0.3" x1="58.13341422392154" x2="55.67067388415222" y1="173.97424548756322" y2="178.32567169271397" /><path d="M 57.64086615596768 174.84453072859336 a86.0,86.0 0 0,1 -31.369924170532247,-30.572349798747897" fill="none" id="id104" stroke="none" /><text fill="#e1ed5e" style="font-size:6.75px; font-family:Arial;" text-anchor="middle"><textPath startOffset="22.145653131862474" xlink:href="#id104">August</textPath></text><line stroke="#e1ed5e" stroke-width="0.3" x1="26.387840678322732" x2="22.057713659400548" y1="142.50000000000003" y2="145.00000000000006" /><path d="M 25.521815274538298 143.00000000000003 a86.0,86.0 0 0,1 -11.493303480769221,-40.785679425670985" fill="none" id="id105" stroke="none" /><text fill="#e1ed5e" style="font-size:6.75px; font-family:Arial;" text-anchor="middle"><textPath startOffset="21.40746469413373" xlink:href="#id105">September</textPath></text><line stroke="#e1ed5e" stroke-width="0.3" x1="15.003131293944662" x2="10.003315487706104" y1="100.72959589197737" y2="100.7725132973878" /><path d="M 14.003168132696942 100.73817937305945 a86.0,86.0 0 0,1 10.791469493833604,-42.45332614584628" fill="none" id="id106" stroke="none" /><text fill="#e1ed5e" style="font-size:6.75px; font-family:Arial;" text-anchor="middle"><textPath startOffset="22.145653131862435" xlink:href="#id106">October</textPath></text><line stroke="#e1ed5e" stroke-width="0.3" x1="26.387840678322718" x2="22.05771365940052" y1="57.49999999999999" y2="54.99999999999999" /><path d="M 25.521815274538284 56.99999999999999 a86.0,86.0 0 0,1 29.574782752854787,-30.34633250058573" fill="none" id="id107" stroke="none" /><text fill="#e1ed5e" style="font-size:6.75px; font-family:Arial;" text-anchor="middle"><textPath startOffset="21.40746469413373" xlink:href="#id107">November</textPath></text><line stroke="#e1ed5e" stroke-width="0.3" x1="56.869717070023135" x2="54.33264160355391" y1="26.7553504044142" y2="22.446841604673864" /><path d="M 56.362301976729285 25.89364864446614 a86.0,86.0 0 0,1 42.16139366436587,-11.88097634709845" fill="none" id="id108" stroke="none" /><text fill="#e1ed5e" style="font-size:6.75px; font-family:Arial;" text-anchor="middle"><textPath startOffset="22.145653131862474" xlink:href="#id108">December</textPath></text></svg>