<?xml version="1.0" encoding="utf-8" ?>
<svg baseProfile="full" height="200mm" version="1.1" viewBox="0,0,200,200" width="200mm" xmlns="http://www.w3.org/2000/svg" xmlns:ev="http://www.w3.org/2001/xml-events" xmlns:xlink="http://www.w3.org/1999/xlink"><defs /><rect fill="#1a1a1a" height="200" width="200" x="0" y="0" /><text alignment-baseline="middle" fill="#e1ed5e" style="dominant-baseline: central; font-size:9.0px; font-family:Arial;" text-anchor="middle" x="100.0" y="100.0">2020</text><line stroke="#e1ed5e" stroke-width="0.3" x1="100.0" x2="100.0" y1="15.0" y2="10.0" /><path d="M 100.0 14.0 a86.0,86.0 0 0,1 42.35913384403234,11.155469271406648" fill="none" id="id49" stroke="none" /><text fill="#e1ed5e" style="font-size:6.75px; font-family:Arial;" text-anchor="middle"><textPath startOffset="22.145653131862478" xlink:href="#id49">January</textPath></text><path d="M 101.44090949804482 79.04949213459386 l 0.26287176978936455 -3.8220978403142056 a24.831126918843424,24.831126918843424 0 0,0 0.4250036623477929,0.032897971376736064 l -0.32844442691239095 3.8170221019424155" fill="#ff2003" stroke="none" /><line stroke="#e1ed5e" stroke-width="0.3" x1="143.13028292997686" x2="145.6673583964461" y1="26.7553504044142" y2="22.446841604673864" /><path d="M 143.63769802327073 25.89364864446614 a86.0,86.0 0 0,1 29.32050498858742,28.57503671076993" fill="none" id="id50" stroke="none" /><text fill="#e1ed5e" style="font-size:6.75px; font-family:Arial;" text-anchor="middle"><textPath startOffset="20.669276256404974" xlink:href="#id50">February</textPath></text><line stroke="#e1ed5e" stroke-width="0.3" x1="172.87174338648825" x2="177.1583165268699" y1="56.24261187166439" y2="53.66864786411523" /><path d="M 173.72905801456457 55.72781907015455 a86.0,86.0 0 0,1 12.242430191666344,42.057860355516425" fill="none" id="id51" stroke="none" /><text fill="#e1ed5e" style="font-size:6.75px; font-family:Arial;" text-anchor="middle"><textPath startOffset="22.145653131862474" xlink:href="#id51">March</textPath></text><line stroke="#e1ed5e" stroke-width="0.3" x1="184.99686870605535" x2="189.99668451229388" y1="99.2704041080226" y2="99.22748670261217" /><path d="M 185.99683186730306 99.26182062694052 a86.0,86.0 0 0,1 -10.086455211305974,41.156179273409016" fill="none" id="id52" stroke="none" /><text fill="#e1ed5e" style="font-size:6.75px; font-family:Arial;" text-anchor="middle"><textPath startOffset="21.40746469413373" xlink:href="#id52">April</textPath></text><path d="M 119.31412917781788 108.2440532568976 l 23.968505520423 10.230729751230555 a47.060642511750586,47.060642511750586 0 0,0 -0.323522012819466,0.7402816782071706 l -23.78934962558657 -10.64067349921357" fill="#bdff1f" stroke="none" /><line stroke="#e1ed5e" stroke-width="0.3" x1="174.33088141563837" x2="178.70328620479359" y1="141.23008692659167" y2="143.65538615756765" /><path d="M 175.20536237346943 141.71514677278685 a86.0,86.0 0 0,1 -30.301960400862466,31.631185727798858" fill="none" id="id53" stroke="none" /><text fill="#e1ed5e" style="font-size:6.75px; font-family:Arial;" text-anchor="middle"><textPath startOffset="22.145653131862474" xlink:href="#id53">May</textPath></text><path d="M 118.18653347947321 110.5 l 13.493878746613655 7.79069452676956 a36.58138905353913,36.58138905353913 0 0,0 -0.3186522751363584,0.541141227222908 l -13.358152761347531 -8.021186922286017" fill="#ffc112" stroke="none" /><path d="M 118.00360718960297 110.81064883170644 l 13.703627958237174 8.228634851709595 a36.984362694225545,36.984362694225545 0 0,0 -0.3315067558692223,0.541491372012473 l -13.560353237912548 -8.462663339846625" fill="#ffc612" stroke="none" /><path d="M 117.81537515405839 111.11811171558189 l 13.206931540216551 8.242102061528579 a36.56776435782031,36.56776435782031 0 0,0 -0.3369150219062657,0.5296863745343616 l -13.063498826684397 -8.46760211074161" fill="#ffc112" stroke="none" /><path d="M 117.21940702142032 112.02048342749411 l 3.980051831625842 2.7783852848772383 a25.853888891770247,25.853888891770247 0 0,0 -0.25716604922737013,0.3617362540249658 l -3.931770683868511 -2.8462987656117082" fill="#ff2f04" stroke="none" /><path d="M 117.01052211995028 112.31430620078461 l 15.231178946001709 11.026198961878604 a39.80334745815379,39.80334745815379 0 0,0 -0.40542169690963165,0.5500323953492808 l -15.039655229508249 -11.286037666496762" fill="#ffea16" stroke="none" /><path d="M 116.1254893667686 113.45245675266167 l 16.990245564799533 14.173867129179039 a43.12615994129601,43.12615994129601 0 0,0 -0.4791222652079075,0.5644048236791153 l -16.74442873608451 -14.46343873530771" fill="#ebff1a" stroke="none" /><path d="M 115.89218393027572 113.72728997021213 l 1.2226823857909643 1.0561239238647637 a22.615657748127056,22.615657748127056 0 0,0 -0.25629887263588236,0.29162106892450973 l -1.2043724491964964 -1.0769572706005666" fill="#ff0000" stroke="none" /><path d="M 115.6541949942343 113.99807769240083 l 16.454789407914106 14.713974153823445 a43.07399215951176,43.07399215951176 0 0,0 -0.4976118824674473,0.5469626276031069 l -16.19977982460478 -14.994274356984224" fill="#ecff1a" stroke="none" /><path d="M 114.91283532996324 114.78537596483092 l 21.71410335984215 21.52851384802729 a51.57742947382286,51.57742947382286 0 0,0 -0.6287732706774071,0.623399172451316 l -21.341338169034778 -21.89809303070727" fill="#8aff24" stroke="none" /><path d="M 114.39649973595853 115.28858382429668 l 13.063840447294556 13.873345841616985 a40.05606601776664,40.05606601776664 0 0,0 -0.5046496450753973,0.4670961775000425 l -12.82376103090519 -14.095559765249407" fill="#ffed16" stroke="none" /><path d="M 114.13192950727249 115.5334660781643 l 8.535405676949331 9.381906021964912 a33.68358429920661,33.68358429920661 0 0,0 -0.4310455772923703,0.3854436131737672 l -8.373095072833584 -9.527045165022066" fill="#ff9b0e" stroke="none" /><path d="M 113.86319453409587 115.77377054828091 l 9.246898241330896 10.521272768936763 a35.007223413792566,35.007223413792566 0 0,0 -0.45479470970518243,0.3928408382656541 l -9.064924051862858 -10.678457739667135" fill="#ffad10" stroke="none" /><path d="M 113.31354834802062 116.24036423190432 l 12.366169988887604 15.084716675328504 a40.50566167472917,40.50566167472917 0 0,0 -0.541520633877666,0.436210690417483 l -12.105398584654685 -15.294775659539392" fill="#fff316" stroke="none" /><path d="M 113.03279911837588 116.46651593811092 l 10.156098707156 12.831898942922754 a37.36471727317273,37.36471727317273 0 0,0 -0.5063631884505324,0.39375107804950044 l -9.934325574070236 -13.004351072593048" fill="#ffcb13" stroke="none" /><path d="M 112.45986205192187 116.90419585922612 l 11.66112248924627 15.820552240082003 a40.65379482162081,40.65379482162081 0 0,0 -0.5653180994416059,0.40924670790703965 l -11.387823379430696 -16.01839971936212" fill="#fff517" stroke="none" /><path d="M 112.16784306229584 117.11559508785304 l 7.29893309850094 10.266863473475762 a33.59694049995408,33.59694049995408 0 0,0 -0.47292478730140897,0.33013823072630377 l -7.121613220025773 -10.39064652000719" fill="#ff9a0e" stroke="none" /><path d="M 111.8722381534696 117.32195027204791 l 11.179533735466462 16.311273824459004 a40.77472195301148,40.77472195301148 0 0,0 -0.5807557470456352,0.39075838491780085 l -10.897881700323824 -16.500781883433923" fill="#fff617" stroke="none" /><path d="M 111.5731344415666 117.5232005979908 l 6.830521710051801 10.342280452932041 a33.39430481304172,33.39430481304172 0 0,0 -0.48105985746352453,0.3118171876075472 l -6.651976220331267 -10.458011482243482" fill="#ff970e" stroke="none" /><path d="M 110.96478420261333 117.91015095944535 l 7.263690086145013 11.864691868215472 a34.91158175029927,34.91158175029927 0 0,0 -0.5138107778945095,0.30852860914290986 l -7.058946551693067 -11.987634477894305" fill="#ffac0f" stroke="none" /><line stroke="#e1ed5e" stroke-width="0.3" x1="143.1302829299769" x2="145.66735839644613" y1="173.24464959558577" y2="177.55315839532614" /><path d="M 143.63769802327073 174.10635135553383 a86.0,86.0 0 0,1 -40.68552437913181,11.842963189579606" fill="none" id="id54" stroke="none" /><text fill="#e1ed5e" style="font-size:6.75px; font-family:Arial;" text-anchor="middle"><textPath startOffset="21.407464694133747" xlink:href="#id54">June</textPath></text><path d="M 110.65571695917076 118.09573695890943 l 5.334543652838758 9.05922136515742 a31.51317495940056,31.51317495940056 0 0,0 -0.4685071706646635,0.27049274110051447 l -5.178244014313696 -9.149461003534105" fill="#ff7e0b" stroke="none" /><path d="M 110.34350942703117 118.27599006163325 l 8.839027975884886 15.617715494086127 a38.94551344522339,38.94551344522339 0 0,0 -0.5846571170881733,0.3242994472916913 l -8.569626670640618 -15.767147856810961" fill="#ffdf14" stroke="none" /><path d="M 110.02825361518725 118.45085714620011 l 5.14778942367021 9.471352731946768 a31.779900673169784,31.779900673169784 0 0,0 -0.4815580870188122,0.2564025574703994 l -4.984442520864844 -9.558325757139736" fill="#ff820b" stroke="none" /><path d="M 109.3889696526874 118.78422872680471 l 5.763201257588167 11.530263130646965 a33.890362935054334,33.890362935054334 0 0,0 -0.522621270728857,0.25564025239933386 l -5.564419737597241 -11.627497133143523" fill="#ff9e0e" stroke="none" /><path d="M 109.06512990194946 118.94263497670748 l 8.554219071984503 17.875027842297687 a40.81643974820959,40.81643974820959 0 0,0 -0.6346203922559089,0.2970343874378882 l -8.246109965857089 -18.01923846130611" fill="#fff717" stroke="none" /><path d="M 108.4095320186766 119.2426549942271 l 6.194990552186408 14.17535073574513 a36.469921668291306,36.469921668291306 0 0,0 -0.5758165160232034,0.24578183052376307 l -5.950738960992774 -14.279607215928298" fill="#ffc011" stroke="none" /><path d="M 107.74402155503746 119.51999308798841 l 6.896627494542483 17.384006496770237 a39.70206279206198,39.70206279206198 0 0,0 -0.6356635593768967,0.24588832037552943 l -6.597191672672057 -17.499834705283806" fill="#ffe915" stroke="none" /><path d="M 107.407793817531 119.65005319985036 l 6.0808939301563365 16.130293603399043 a38.23843504270815,38.23843504270815 0 0,0 -0.616204821058163,0.22627894561868947 l -5.803099957444047 -16.232303398026453" fill="#ffd614" stroke="none" /><path d="M 107.06938296918513 119.77432235084164 l 6.240567208346065 17.4559771578129 a39.53795613372655,39.53795613372655 0 0,0 -0.6410688499367151,0.2229970236910898 l -5.939992586364328 -17.56053261407258" fill="#ffe715" stroke="none" /><path d="M 106.72888874123015 119.89276391827305 l 5.322555794922655 15.735190451503287 a37.61101498208779,37.61101498208779 0 0,0 -0.6133770212074037,0.2016292100865854 l -5.051656036067517 -15.824240582991893" fill="#ffce13" stroke="none" /><path d="M 106.38641147887787 120.00534299687104 l 5.074362709302961 15.895368913494131 a37.68567978242541,37.68567978242541 0 0,0 -0.6179722304608875,0.1914493766673952 l -4.800749845970449 -15.98013487796817" fill="#ffcf13" stroke="none" /><path d="M 105.69591212413111 120.21278271476187 l 4.546807619414078 16.135016210605603 a37.76341873379256,37.76341873379256 0 0,0 -0.6254675904716295,0.1704739731138754 l -4.2691586280077525 -16.210690677863617" fill="#ffd013" stroke="none" /><path d="M 105.3480935250658 120.30758222061773 l 3.618634506853258 13.740544631440946 a35.209049315939815,35.209049315939815 0 0,0 -0.5858026410264436,0.14890874058551143 l -3.382226572601417 -13.800638603861728" fill="#ffaf10" stroke="none" /><path d="M 104.9986988182912 120.39639698878246 l 4.696301974084427 19.162514671242707 a40.729602650772804,40.729602650772804 0 0,0 -0.6805099029098649,0.16059848415432945 l -4.366659917434684 -19.24030929904326" fill="#fff617" stroke="none" /><path d="M 104.29559338865022 120.5559693870025 l 2.1588913270997208 10.331076527630051 a31.55423867372607,31.55423867372607 0 0,0 -0.5311682984551003,0.10624853592682094 l -1.9812265431136618 -10.366614460219735" fill="#ff7f0b" stroke="none" /><path d="M 103.94208987418118 120.62667999033965 l 5.2334591026252015 27.383669474253825 a48.879283492479345,48.879283492479345 0 0,0 -0.8255135287473143,0.15043606424026162 l -4.76261084032683 -27.469473712425447" fill="#a8ff21" stroke="none" /><path d="M 103.2317021107853 120.74984581791261 l 1.5417787688083933 9.899325693212273 a31.01866912080846,31.01866912080846 0 0,0 -0.5268371682311669,0.07742692109570848 l -1.3716164949695409 -9.924333687606865" fill="#ff770b" stroke="none" /><path d="M 102.875027216393 120.80226474461374 l 2.354861456333423 17.038604425106254 a38.200564328933375,38.200564328933375 0 0,0 -0.6503594744705624,0.0842020546204984 l -2.0620241599720854 -17.076518075927147" fill="#ffd614" stroke="none" /><path d="M 102.15924093988457 120.88869738790638 l 2.1388248818264146 20.691190546148622 a41.80144076962338,41.80144076962338 0 0,0 -0.714407397302536,0.06765512329112103 l -1.7833179211388632 -20.724857424944926" fill="#fbff18" stroke="none" /><path d="M 101.80034050326958 120.92268563240118 l 1.5319074738649288 17.803086935717502 a38.86887363403744,38.86887363403744 0 0,0 -0.6652703962969719,0.05149613613742884 l -1.226068082792721 -17.826760838849985" fill="#ffde14" stroke="none" /><path d="M 101.44090949804482 120.95050786540614 l 1.2663544650678453 18.412515995484743 a39.456012541044146,39.456012541044146 0 0,0 -0.6761175692965249,0.04067355402084592 l -0.9500925436388554 -18.431541527330282" fill="#ffe615" stroke="none" /><path d="M 100.72087961077811 120.9876233191556 l 1.0467912031184667 30.476183729405577 a51.494155940629206,51.494155940629206 0 0,0 -0.8837051525794132,0.02276111001246545 l -0.5234727364683096 -30.489662556768085" fill="#8bff24" stroke="none" /><line stroke="#e1ed5e" stroke-width="0.3" x1="101.45913802915013" x2="101.54496967792366" y1="184.9874750549273" y2="189.98673829345242" /><path d="M 101.47630435890484 185.9873277026323 a86.0,86.0 0 0,1 -42.54439059252881,-10.42667462771756" fill="none" id="id55" stroke="none" /><text fill="#e1ed5e" style="font-size:6.75px; font-family:Arial;" text-anchor="middle"><textPath startOffset="22.145653131862474" xlink:href="#id55">July</textPath></text><path d="M 100.0 121.0 l 2.4947848526180647e-15 20.371464281415925 a41.371464281415925,41.371464281415925 0 0,0 -0.7101961982898782,-0.006096180208263897 l 0.3497032734410236 -20.368462499402096" fill="#fffe18" stroke="none" /><path d="M 99.27912038922189 120.98762331915562 l -0.899229132134269 26.180075037043125 a47.195513775783965,47.195513775783965 0 0,0 -0.8094575370116965,-0.034761589520704884 l 1.3485124297468043 -26.160780879096592" fill="#bbff1f" stroke="none" /><path d="M 98.55909050195518 120.95050786540614 l -0.9847337372926415 14.317812420887053 a35.351635901634,35.351635901634 0 0,0 -0.6050701918316267,-0.04683625957910894 l 1.2303729238995043 -14.29879839431289" fill="#ffb110" stroke="none" /><path d="M 98.19965949673042 120.92268563240118 l -1.7264921218212703 20.06445549943541 a41.138598499784806,41.138598499784806 0 0,0 -0.7030790934905392,-0.06658232114213186 l 2.0706707786968246 -20.031861422788097" fill="#fffb17" stroke="none" /><path d="M 97.48249496171623 120.84855314841334 l -2.583560531331682 21.395587389303234 a42.5510079753214,42.5510079753214 0 0,0 -0.7244251929561476,-0.09379134472580015 l 2.9504635461786237 -21.348084448377037" fill="#f2ff19" stroke="none" /><path d="M 97.12497278360702 120.80226474461374 l -2.8764972852800543 20.81290143076664 a42.010737792829445,42.010737792829445 0 0,0 -0.713532165028604,-0.10486465642962843 l 3.233354555916343 -20.76045570103813" fill="#f9ff18" stroke="none" /><path d="M 96.41257539226777 120.69131181640829 l -4.414762218205654 25.463175297204703 a46.843053644247846,46.843053644247846 0 0,0 -0.7911240048580612,-0.14416914741232004 l 4.851220956614773 -25.383637975861017" fill="#bfff1e" stroke="none" /><path d="M 95.70440661134978 120.55596938700252 l -3.7739880574214144 18.059899053817272 a39.450011915758466,39.450011915758466 0 0,0 -0.661703660073954,-0.14421523292286656 l 4.083454134114505 -17.992452362760684" fill="#ffe615" stroke="none" /><path d="M 95.35216902796893 120.47920084513623 l -4.911872956186075 21.642618546338806 a43.193004156266014,43.193004156266014 0 0,0 -0.7216683972291965,-0.17031177674492146 l 5.28267350715516 -21.555110625947655" fill="#eaff1a" stroke="none" /><path d="M 94.30408787586889 120.21278271476187 l -4.951412942582565 17.570817765161383 a39.25513974376764,39.25513974376764 0 0,0 -0.6470368373745727,-0.18834299334383375 l 5.252309792338745 -17.483231077515033" fill="#ffe315" stroke="none" /><path d="M 93.95794788825049 120.11202640906438 l -5.527333600729754 18.398695889002703 a40.21102358412381,40.21102358412381 0 0,0 -0.6593829825244137,-0.20427853351150654 l 5.8423572161258015 -18.30110076768455" fill="#ffef16" stroke="none" /><path d="M 93.27111125876986 119.89276391827306 l -13.196185043446485 39.012176272532145 a62.183603499693916,62.183603499693916 0 0,0 -1.0082456221469887,-0.3507201650970015 l 13.863936437638495 -38.779897674866554" fill="#32ff46" stroke="none" /><path d="M 92.93061703081489 119.77432235084164 l -6.436770726608369 18.00479331806338 a40.12078972775712,40.12078972775712 0 0,0 -0.6465385946703334,-0.23741792745562204 l 6.744898472932821 -17.89164454159904" fill="#ffee16" stroke="none" /><path d="M 91.92203290615298 119.3841803445677 l -11.267232769733958 27.03725695529334 a50.29101906649758,50.29101906649758 0 0,0 -0.7940351407802707,-0.33892638535103187 l 11.72970298568466 -26.839855920282904" fill="#98ff23" stroke="none" /><path d="M 90.93487009805054 118.94263497670748 l -17.51631306676162 36.60235740141374 a61.57774994739889,61.57774994739889 0 0,0 -0.9495868187603941,-0.4644904974580236 l 18.14206013478408 -36.29627315385849" fill="#31ff3e" stroke="none" /><path d="M 90.28995756902619 118.62028667847754 l -9.461260367385783 18.143214268402836 a41.46195669354818,41.46195669354818 0 0,0 -0.6282694447266788,-0.3345180918997522 l 9.771318627899024 -17.97812570878051" fill="#ffff18" stroke="none" /><line stroke="#e1ed5e" stroke-width="0.3" x1="58.13341422392154" x2="55.67067388415222" y1="173.97424548756322" y2="178.32567169271397" /><path d="M 57.64086615596768 174.84453072859336 a86.0,86.0 0 0,1 -31.369924170532247,-30.572349798747897" fill="none" id="id56" stroke="none" /><text fill="#e1ed5e" style="font-size:6.75px; font-family:Arial;" text-anchor="middle"><textPath startOffset="22.145653131862474" xlink:href="#id56">August</textPath></text><path d="M 89.65649057296885 118.27599006163327 l -15.77704288420172 27.876523049333528 a53.03147857171073,53.03147857171073 0 0,0 -0.788420335742281,-0.4551946930753845 l 16.2532556878044 -27.601581458981972" fill="#7aff26" stroke="none" /><path d="M 89.03521579738668 117.91015095944536 l -7.413451730293511 12.10931625890755 a35.198408601517094,35.198408601517094 0 0,0 -0.5126159980886027,-0.31991029572257973 l 7.620231857171826 -11.980270166343422" fill="#ffaf10" stroke="none" /><path d="M 88.72937992617639 117.7192867562869 l -10.321487522799284 16.227092739350216 a40.23152733026615,40.23152733026615 0 0,0 -0.5795530977928715,-0.3756593160274598 l 10.598526252849165 -16.04751958161886" fill="#fff016" stroke="none" /><path d="M 88.4268655584334 117.5232005979908 l -6.634508268892188 10.045491120129874 a33.03862915014027,33.03862915014027 0 0,0 -0.47057031499968693,-0.3166207088176965 l 6.805974871988881 -9.930120737255056" fill="#ff930d" stroke="none" /><path d="M 88.1277618465304 117.32195027204791 l -10.895981622454782 15.897562817517406 a40.273165776638365,40.273165776638365 0 0,0 -0.5669021665498578,-0.3957417400927992 l 11.167278880178404 -15.708176261619478" fill="#fff016" stroke="none" /><path d="M 87.2517909369889 116.68781488649013 l -24.293916568970456 31.80151663398094 a61.01913095609978,61.01913095609978 0 0,0 -0.8269256122431756,-0.6430223576951423 l 24.83625212584886 -31.379793224665004" fill="#30ff37" stroke="none" /><path d="M 86.13680546590413 115.77377054828092 l -12.699269909644876 14.44943798435205 a40.236884215008615,40.236884215008615 0 0,0 -0.5149075238205462,-0.4604334828776831 l 12.945442460288794 -14.229308971590985" fill="#fff016" stroke="none" /><path d="M 85.86807049272751 115.53346607816431 l -12.12561238367709 13.32817210430381 a39.018619462132094,39.018619462132094 0 0,0 -0.4915792892433132,-0.45499845127095223 l 12.352621444234371 -13.118055906900482" fill="#ffe015" stroke="none" /><path d="M 85.60350026404147 115.28858382429668 l -13.733451616004155 14.584449698128148 a41.03281972879398,41.03281972879398 0 0,0 -0.5086653313301724,-0.4872898809389999 l 13.981789433199642 -14.346547686883566" fill="#fff917" stroke="none" /><path d="M 85.34317274990678 115.03919595460226 l -13.646446886282925 14.00245669168105 a40.55234783913544,40.55234783913544 0 0,0 -0.4943680335485204,-0.4901426911301525 l 13.884806839961408 -13.76613399032224" fill="#fff316" stroke="none" /><path d="M 84.83555147118756 114.52719865689866 l -12.694349668898553 12.160899824997912 a38.57936284595944,38.57936284595944 0 0,0 -0.45403164121672496,-0.48216586899153774 l 12.901237143851532 -11.941192496061884" fill="#ffdb14" stroke="none" /><path d="M 84.58840730492382 114.26474011684316 l -11.792999843310689 10.9154245957035 a37.069266921948085,37.069266921948085 0 0,0 -0.4282423515890789,-0.4707133614145901 l 11.978639895741647 -10.711373658731237" fill="#ffc812" stroke="none" /><path d="M 84.1078160697243 113.72728997021213 l -15.478474628799189 13.369937729031287 a41.45332275481308,41.45332275481308 0 0,0 -0.4605374075901059,-0.5425119081363039 l 15.705706599896407 -13.102259038445428" fill="#ffff18" stroke="none" /><path d="M 83.8745106332314 113.45245675266167 l -8.013038474434644 6.684761688962454 a31.435268297029552,31.435268297029552 0 0,0 -0.34212526463681725,-0.41733719406702235 l 8.126610558310091 -6.546222213196937" fill="#ff7d0b" stroke="none" /><path d="M 83.64595745247003 113.17365903436017 l -15.908163394499688 12.814490350808144 a41.42745274225484,41.42745274225484 0 0,0 -0.4413672319739382,-0.5576530792691676 l 16.12579705711519 -12.539517327624297" fill="#fffe18" stroke="none" /><path d="M 83.4222238831116 112.89097897827486 l -15.228234491834403 11.841567248003315 a40.29045983452131,40.29045983452131 0 0,0 -0.419880355536723,-0.5496368637380504 l 15.42926682472542 -11.578409471024395" fill="#fff016" stroke="none" /><path d="M 82.98947788004972 112.3143062007846 l -15.644420740497711 11.325354152795242 a40.31350685380445,40.31350685380445 0 0,0 -0.4009944241461285,-0.5640488754690591 l 15.8365302631738 -11.055128050616679" fill="#fff116" stroke="none" /><path d="M 82.37810715431573 111.42229804090323 l -33.94932204299359 22.005540384195918 a61.457388383079895,61.457388383079895 0 0,0 -0.5662341605239293,-0.8902141493378452 l 34.32207389514342 -21.4195125601794" fill="#31ff3d" stroke="none" /><line stroke="#e1ed5e" stroke-width="0.3" x1="26.387840678322732" x2="22.057713659400548" y1="142.50000000000003" y2="145.00000000000006" /><path d="M 25.521815274538298 143.00000000000003 a86.0,86.0 0 0,1 -11.493303480769221,-40.785679425670985" fill="none" id="id57" stroke="none" /><text fill="#e1ed5e" style="font-size:6.75px; font-family:Arial;" text-anchor="middle"><textPath startOffset="21.40746469413373" xlink:href="#id57">September</textPath></text><path d="M 81.81346652052679 110.50000000000001 l -17.23184861619889 9.94881243719732 a40.89762487439462,40.89762487439462 0 0,0 -0.3458120775030585,-0.6110168058746227 l 17.400094058723326 -9.651538861223576" fill="#fff817" stroke="none" /><path d="M 81.63589988554817 110.18625677009913 l -11.421675014538158 6.335410595543047 a34.06109059580571,34.06109059580571 0 0,0 -0.2792273877734055,-0.5137469434669362 l 11.528747751926893 -6.138408818601524" fill="#ffa00e" stroke="none" /><path d="M 81.4637452351635 109.86951160357371 l -17.6424157368576 9.393592666858424 a40.98735640906463,40.98735640906463 0 0,0 -0.32534578987804635,-0.6238934505415353 l 17.801069595710594 -9.089352973212385" fill="#fff917" stroke="none" /><path d="M 81.1358732173502 109.22738970284198 l -26.12355819831242 12.778341382989838 a50.08137378874744,50.08137378874744 0 0,0 -0.3711285976853282,-0.7755160302621442 l 26.339066053957662 -12.32801285066259" fill="#9bff22" stroke="none" /><path d="M 80.9802524753101 108.90220220490708 l -26.143742430581348 12.23659153245456 a49.86571392861639,49.86571392861639 0 0,0 -0.35622056001838437,-0.7784062112157573 l 26.34994745545479 -11.785996339024114" fill="#9dff22" stroke="none" /><path d="M 80.68587082218212 108.24405325689762 l -18.1826569163029 7.7610950299564365 a40.76976501124867,40.76976501124867 0 0,0 -0.2692244157800405,-0.646040590164851 l 18.31320717661943 -7.447821930350304" fill="#fff617" stroke="none" /><path d="M 80.5471966667186 107.91128576633889 l -9.239652997411662 3.7576864368577865 a30.97453732612813,30.97453732612813 0 0,0 -0.19608552544984337,-0.4942636166793328 l 9.30279719782763 -3.598521802964888" fill="#ff770a" stroke="none" /><path d="M 80.41425534168474 107.57618678355246 l -9.948773768108639 3.848399417506837 a31.667158832869863,31.667158832869863 0 0,0 -0.19176623496741452,-0.5086827214503412 l 10.01337068689049 -3.6770484158623504" fill="#ff800b" stroke="none" /><path d="M 80.16572619554312 106.89939002012753 l -12.02391971199521 4.182543433736067 a33.73060543790419,33.73060543790419 0 0,0 -0.18554174606039606,-0.548521203619858 l 12.093946879627975 -3.9755205556420474" fill="#ff9c0e" stroke="none" /><path d="M 80.05021161711548 106.5578916946017 l -21.365905004042126 7.023397355626359 a43.49066488694302,43.49066488694302 0 0,0 -0.22705292409124578,-0.711240050834605 l 21.48332264391063 -6.6555882711003616" fill="#e7ff1a" stroke="none" /><path d="M 79.83685265289637 105.86919833188381 l -19.227561399292256 5.596862897851616 a41.025583428726904,41.025583428726904 0 0,0 -0.1910258767229163,-0.6778834460488002 l 19.32080576808975 -5.26597152789982" fill="#fff917" stroke="none" /><path d="M 79.73907114497094 105.5222062557868 l -12.80241245581965 3.4893544446330744 a34.269414422995716,34.269414422995716 0 0,0 -0.14982346336633434,-0.5689040938849604 l 12.860425399990719 -3.269069846375311" fill="#ffa30f" stroke="none" /><path d="M 79.64726062577567 105.17358676015961 l -18.665648421985804 4.744734837418422 a40.259255948519744,40.259255948519744 0 0,0 -0.1645117301693382,-0.6712639988564718 l 18.744347678671435 -4.42361501395385" fill="#fff016" stroke="none" /><path d="M 79.48165901384964 104.47187691870673 l -41.56580798225607 9.05907438855372 a63.541547009895304,63.541547009895304 0 0,0 -0.22312853020337095,-1.0677507904603265 l 41.7151942232838 -8.344207146807985" fill="#33ff56" stroke="none" /><path d="M 79.407916724674 104.11899336999214 l -12.21205393589058 2.442752805695585 a33.45396734389625,33.45396734389625 0 0,0 -0.10780733371586203,-0.5640935250444249 l 12.252187561888599 -2.232756715617845" fill="#ff980e" stroke="none" /><path d="M 79.2786578344484 103.40968896794605 l -20.406103947936042 3.357816639199616 a41.68052250105052,41.68052250105052 0 0,0 -0.11011300929788802,-0.7070045094355387 l 20.4607384493722 -3.0070239478326273" fill="#fdff18" stroke="none" /><path d="M 79.22317932658666 103.0534771498775 l -13.10186154757209 1.9255224601116765 a34.242598414062954,34.242598414062954 0 0,0 -0.08047904757770426,-0.5823062976795755 l 13.132985111705008 -1.7003278542320153" fill="#ffa30f" stroke="none" /><path d="M 79.17382384314188 102.69636545807758 l -19.121979443442736 2.475723074319131 a40.281579358967534,40.281579358967534 0 0,0 -0.08289932486002217,-0.6865253312422079 l 19.16166085456242 -2.1471040661535237" fill="#fff016" stroke="none" /><path d="M 79.0935383218832 101.97986365728391 l -51.01346013753538 4.83102771351913 a72.24170122051669,72.24170122051669 0 0,0 -0.10632044166087466,-1.2356046942945498 l 51.088874201894 -3.9546019718489176" fill="#3effb8" stroke="none" /><path d="M 79.03789590574601 101.26102812881392 l -13.284783152454658 0.7991795654249544 a34.30879977253907,34.30879977253907 0 0,0 -0.030319847211001245,-0.5881969358811461 l 13.296544589122233 -0.5710108361670776" fill="#ffa40f" stroke="none" /><path d="M 79.01933749520258 100.90099992219065 l -20.974055306602427 0.9007161806711319 a41.993386712070546,41.993386712070546 0 0,0 -0.024746728791631974,-0.7204740077188261 l 20.986426722390906 -0.5405359083881859" fill="#f9ff18" stroke="none" /><path d="M 79.00696218219943 100.54070618675478 l -10.666629192084622 0.2747345308494965 a31.670166698973027,31.670166698973027 0 0,0 -0.009332999661821138,-0.5436004408770974 l 10.66977362334511 -0.09158717400334683" fill="#ff800b" stroke="none" /><line stroke="#e1ed5e" stroke-width="0.3" x1="15.003131293944662" x2="10.003315487706104" y1="100.72959589197737" y2="100.7725132973878" /><path d="M 14.003168132696942 100.73817937305945 a86.0,86.0 0 0,1 10.791469493833604,-42.45332614584628" fill="none" id="id58" stroke="none" /><text fill="#e1ed5e" style="font-size:6.75px; font-family:Arial;" text-anchor="middle"><textPath startOffset="22.145653131862435" xlink:href="#id58">October</textPath></text><path d="M 79.00077361379809 100.18025310272382 l -19.52264409221701 0.16757841961774653 a40.523363308561805,40.523363308561805 0 0,0 0.0,-0.6956630446831209 l 19.52264409221701 0.16757841961773934" fill="#fff316" stroke="none" /><path d="M 79.01933749520258 99.09900007780938 l -62.941987514392274 -2.7029997665718684 a84.0,84.0 0 0,0 0.07423364217371864,-1.440112826493152 l 62.886312282761985 3.7830843864417325" fill="#4dd2ff" stroke="none" /><path d="M 79.13060592940154 97.66154086499901 l -19.719107669156482 -2.2095671444515856 a40.84251481626323,40.84251481626323 0 0,0 0.084053727727023,-0.6960854430042309 l 19.67827185516979 2.547746264379253" fill="#fff717" stroke="none" /><path d="M 79.17382384314186 97.30363454192245 l -19.046569739981287 -2.4659597784511624 a40.205540255064676,40.205540255064676 0 0,0 0.0944935179260842,-0.6837080238198313 l 19.001431705499996 2.7925561104710606" fill="#ffef16" stroke="none" /><path d="M 79.22317932658666 96.9465228501225 l -9.734798468087648 -1.4306801386125945 a30.839367198824434,30.839367198824434 0 0,0 0.08147247979003981,-0.5231117646655646 l 9.70880449615934 1.5975800852096091" fill="#ff750a" stroke="none" /><path d="M 79.2786578344484 96.59031103205396 l -32.99050734407852 -5.428575429107725 a54.434159268765995,54.434159268765995 0 0,0 0.1596351253916066,-0.920732981875037 l 32.89245740119468 5.994101443903355" fill="#6bff28" stroke="none" /><path d="M 79.407916724674 95.88100663000787 l -18.964802040617677 -3.7934915483815117 a40.34048330749411,40.34048330749411 0 0,0 0.14165712312123974,-0.6778806145909638 l 18.89688720667207 4.118488614257885" fill="#fff116" stroke="none" /><path d="M 79.48165901384962 95.52812308129327 l -10.65364218980626 -2.321911729652625 a31.903731745999547,31.903731745999547 0 0,0 0.12121767948137048,-0.5341074619577876 l 10.612213648767227 2.504453525549421" fill="#ff830c" stroke="none" /><path d="M 79.56144815229197 95.17655741523228 l -17.55066524938565 -4.141909210871158 a39.03278299672827,39.03278299672827 0 0,0 0.15949998361437293,-0.6508143626495099 l 17.476977739254977 4.442579398128785" fill="#ffe115" stroke="none" /><path d="M 79.73907114497095 94.47779374421319 l -38.49510555936876 -10.492012200336756 a60.89931668636643,60.89931668636643 0 0,0 0.2835631912962132,-1.0062657299947697 l 38.30932387599796 11.151285854234539" fill="#30ff36" stroke="none" /><path d="M 79.83685265289637 94.1308016681162 l -14.918091671947455 -4.342439067106301 a36.53725317371636,36.53725317371636 0 0,0 0.1804656360065201,-0.6007114089985597 l 14.841349715937305 4.597888079695584" fill="#ffc111" stroke="none" /><path d="M 80.05021161711548 93.44210830539832 l -19.603339415665808 -6.444007037726019 a41.63531300824049,41.63531300824049 0 0,0 0.2290231252309299,-0.6770661750027753 l 19.489830868862512 6.779574887202956" fill="#fdff18" stroke="none" /><path d="M 80.16572619554312 93.10060997987247 l -9.839481296514347 -3.4226823593182414 a31.417780316230704,31.417780316230704 0 0,0 0.1815645941321193,-0.5078684840697087 l 9.779276532338283 3.5910857997688717" fill="#ff7d0b" stroke="none" /><path d="M 80.28708602549916 92.7611449362534 l -18.22028620429428 -6.690741471477851 a40.40991630081258,40.40991630081258 0 0,0 0.24470959157572447,-0.6491212649030365 l 18.102745928904117 7.002531016575031" fill="#fff216" stroke="none" /><path d="M 80.5471966667186 92.08871423366112 l -37.30186214129938 -15.17034259589241 a61.268700173773325,61.268700173773325 0 0,0 0.4045897739497965,-0.970868171743912 l 37.035946522813106 15.808443277077586" fill="#30ff3a" stroke="none" /><path d="M 80.68587082218212 91.75594674310238 l -13.633454267934162 -5.819310931678551 a35.82347648142654,35.82347648142654 0 0,0 0.24627124915617438,-0.563516813062255 l 13.531549136761011 6.052489814516673" fill="#ffb711" stroke="none" /><path d="M 80.9802524753101 91.09779779509293 l -21.003254953597363 -9.830583834797158 a44.1900215001795,44.1900215001795 0 0,0 0.3274706636488422,-0.6842877393015891 l 20.831405031988616 10.189684076163834" fill="#deff1b" stroke="none" /><path d="M 81.1358732173502 90.77261029715801 l -5.899482211068488 -2.8857323762571845 a27.567445599781735,27.567445599781735 0 0,0 0.21158682258587364,-0.42331538156513593 l 5.849075475270871 2.9865796139860907" fill="#ff4706" stroke="none" /><path d="M 81.63589988554816 89.8137432299009 l -11.426581608007375 -6.3381322002300235 a34.066701459513226,34.066701459513226 0 0,0 0.2880528353803515,-0.508961759427486 l 11.316095407605655 6.533350729756615" fill="#ffa00e" stroke="none" /><line stroke="#e1ed5e" stroke-width="0.3" x1="26.387840678322718" x2="22.05771365940052" y1="57.49999999999999" y2="54.99999999999999" /><path d="M 25.521815274538284 56.99999999999999 a86.0,86.0 0 0,1 29.574782752854787,-30.34633250058573" fill="none" id="id59" stroke="none" /><text fill="#e1ed5e" style="font-size:6.75px; font-family:Arial;" text-anchor="middle"><textPath startOffset="21.40746469413373" xlink:href="#id59">November</textPath></text><path d="M 81.81346652052679 89.5 l -18.869998680830278 -10.894598817985246 a42.78919763597049,42.78919763597049 0 0,0 0.37272710333674747,-0.6329721073937928 l 18.68019786736375 11.216922093672613" fill="#efff19" stroke="none" /><path d="M 82.18462484594161 88.88188828441811 l -16.174464149963654 -10.094061887773638 a40.06576449903501,40.06576449903501 0 0,0 0.36914364771651254,-0.5803551273405324 l 15.998802810621251 10.370230689792841" fill="#ffed16" stroke="none" /><path d="M 82.37810715431573 88.57770195909679 l -9.810502609596117 -6.359049264410294 a32.69117055730902,32.69117055730902 0 0,0 0.3092826977529292,-0.4682934240137241 l 9.699895472922458 6.526522566763079" fill="#ff8e0d" stroke="none" /><path d="M 82.576782715395 88.27688183743585 l -11.287719068228398 -7.594881144000496 a34.604955764527176,34.604955764527176 0 0,0 0.33584976866012967,-0.4900148494670644 l 11.155679562752955 7.787530728537595" fill="#ffa70f" stroke="none" /><path d="M 83.64595745247003 86.82634096563983 l -14.342412324451958 -11.55323212248044 a39.41689343403239,39.41689343403239 0 0,0 0.4289931604800032,-0.5233019024734232 l 14.141972344733324 11.797736306652356" fill="#ffe515" stroke="none" /><path d="M 83.8745106332314 86.54754324733833 l -4.024629796969934 -3.357489317551232 a26.241219278004774,26.241219278004774 0 0,0 0.2915342437028774,-0.34342660602956065 l 3.9664009897599417 3.4260827060303494" fill="#ff3505" stroke="none" /><path d="M 84.10781606972428 86.27271002978789 l -13.659800975979472 -11.799010743604168 a39.05011959049181,39.05011959049181 0 0,0 0.4425474482681366,-0.5035377588145524 l 13.455242463752741 12.03176078023002" fill="#ffe115" stroke="none" /><path d="M 84.58840730492382 85.73525988315684 l -44.64466423820163 -41.32243471274272 a81.83329397238525,81.83329397238525 0 0,0 0.9630772005437972,-1.0227546125678033 l 43.92873120392156 42.08273078525503" fill="#4ae6ff" stroke="none" /><path d="M 85.34317274990677 84.96080404539775 l -12.669257727091068 -12.999774528683844 a39.15225135216219,39.15225135216219 0 0,0 0.48535277463263393,-0.46495697897412636 l 12.444232466593133 13.215343637963539" fill="#ffe215" stroke="none" /><path d="M 86.13680546590413 84.22622945171909 l -10.282846076995536 -11.699991239601857 a36.57647965523477,36.57647965523477 0 0,0 0.47518162895165406,-0.4104505735495814 l 10.080484968281032 11.87478594561615" fill="#ffc112" stroke="none" /><path d="M 86.68645165197937 83.75963576809568 l -20.792292369550463 -25.363215911402584 a53.79652639151426,53.79652639151426 0 0,0 0.7192063496181587,-0.5793417253061617 l 20.35383524957706 25.71640593050214" fill="#72ff27" stroke="none" /><path d="M 87.83215693770416 82.88440491214696 l -9.045847768402979 -12.724117728810663 a36.6118715670401,36.6118715670401 0 0,0 0.5153642360253666,-0.3597642619493145 l 8.826088441203847 12.877526806565104" fill="#ffc212" stroke="none" /><path d="M 88.12776184653039 82.6780497279521 l -4.018106240819416 -5.8625370879153555 a28.10735667246938,28.10735667246938 0 0,0 0.40033403392940214,-0.2693626043679781 l 3.9168759187930253 5.930649366340443" fill="#ff4f07" stroke="none" /><line stroke="#e1ed5e" stroke-width="0.3" x1="56.869717070023135" x2="54.33264160355391" y1="26.7553504044142" y2="22.446841604673864" /><path d="M 56.362301976729285 25.89364864446614 a86.0,86.0 0 0,1 42.16139366436587,-11.88097634709845" fill="none" id="id60" stroke="none" /><text fill="#e1ed5e" style="font-size:6.75px; font-family:Arial;" text-anchor="middle"><textPath startOffset="22.145653131862474" xlink:href="#id60">December</textPath></text><path d="M 90.93487009805054 81.0573650232925 l -12.726790689896333 -26.59409772074215 a50.48249030941611,50.48249030941611 0 0,0 0.7849096589474216,-0.3673773527994533 l 12.268392317077389 26.808651305112146" fill="#96ff23" stroke="none" /><path d="M 91.92203290615298 80.6158196554323 l -4.859802500439109 -11.661756852073239 a33.63385345886802,33.63385345886802 0 0,0 0.5348512055030207,-0.21751932905042656 l 4.658896833745648 11.743463437702957" fill="#ff9b0e" stroke="none" /><path d="M 92.25597844496254 80.48000691201159 l -5.2408723624716425 -13.210421944645653 a35.21203683767019,35.21203683767019 0 0,0 0.5637744513773498,-0.21808006904737243 l 5.013325648600763 13.298441901831065" fill="#ffaf10" stroke="none" /><path d="M 93.27111125876988 80.10723608172694 l -8.890893149251651 -26.28434578758115 a48.747338871908866,48.747338871908866 0 0,0 0.7949931030384871,-0.26133002353821794 l 8.438377308565403 26.433096732521395" fill="#aaff21" stroke="none" /><path d="M 94.30408787586887 79.78721728523814 l -3.7273446369781067 -13.227031177515574 a34.742177841003894,34.742177841003894 0 0,0 0.5754274107207743,-0.15683529960398038 l 3.499735825322655 13.289066971263694" fill="#ffa90f" stroke="none" /><path d="M 95.70440661134978 79.44403061299748 l -11.330251053804455 -54.21935288950663 a76.39054808086925,76.39054808086925 0 0,0 1.2859203437524849,-0.2572200830501237 l 10.397834224520993 54.405862369219626" fill="#43ffe3" stroke="none" /><path d="M 96.41257539226777 79.30868818359171 l -2.5577513989387075 -14.752430373094445 a35.972517962312565,35.972517962312565 0 0,0 0.6093444719534292,-0.10026740097717145 l 2.3041294239322054 14.794163772567284" fill="#ffb911" stroke="none" /><path d="M 97.12497278360702 79.19773525538626 l -2.2987085701445036 -16.63231011317224 a37.79040799954508,37.79040799954508 0 0,0 0.643376618077758,-0.08329798405879892 l 2.0128541301759517 16.669319693431436" fill="#ffd113" stroke="none" /><path d="M 97.84075906011542 79.11130261209362 l -2.7448351749366258 -26.553790403768993 a47.69527870138957,47.69527870138957 0 0,0 0.8151360166858136,-0.07719422827386824 l 2.2885995948657967 26.596996387548046" fill="#b5ff1f" stroke="none" /><path d="M 98.1996594967304 79.07731436759882 l -1.3553489503375489 -15.751209262146483 a36.809413777781586,36.809413777781586 0 0,0 0.6300211712325241,-0.04876762318575818 l 1.0847587843298077 15.772154652327295" fill="#ffc412" stroke="none" /><path d="M 98.9189461498227 79.02784411241856 l -1.0053991667196684 -19.5044752398147 a40.53037075595303,40.53037075595303 0 0,0 0.6951426409329594,-0.02985241601635721 l 0.670430765185889 19.518860224256883" fill="#fff316" stroke="none" /></svg>