<?xml version="1.0" encoding="utf-8" ?>
<svg baseProfile="full" height="200mm" version="1.1" viewBox="0,0,200,200" width="200mm" xmlns="http://www.w3.org/2000/svg" xmlns:ev="http://www.w3.org/2001/xml-events" xmlns:xlink="http://www.w3.org/1999/xlink"><defs /><rect fill="#1a1a1a" height="200" width="200" x="0" y="0" /><text alignment-baseline="middle" fill="#e1ed5e" style="dominant-baseline: central; font-size:9.0px; font-family:Arial;" text-anchor="middle" x="100.0" y="100.0">2025</text><line stroke="#e1ed5e" stroke-width="0.3" x1="100.0" x2="100.0" y1="15.0" y2="10.0" /><path d="M 100.0 14.0 a86.0,86.0 0 0,1 42.46469731375804,11.215312516191453" fill="none" id="id109" stroke="none" /><text fill="#e1ed5e" style="font-size:6.75px; font-family:Arial;" text-anchor="middle"><textPath startOffset="22.20632615414155" xlink:href="#id109">January</textPath></text><path d="M 100.36148047927253 79.00311137660856 l 0.3385503824281058 -19.664975236159993 a40.66788924618572,40.66788924618572 0 0,0 0.6998234274484089,0.01807437445076897 l -0.6770004450713825 19.656234069566864" fill="#ffe815" stroke="none" /><path d="M 100.72285384407766 79.0124445844662 l 0.7133624012745434 -20.711978017093088 a41.72425919776385,41.72425919776385 0 0,0 0.717576129573151,0.030900337600905013 l -1.0697793632370258 20.69662995296799" fill="#fff517" stroke="none" /><path d="M 101.08401301168833 79.027996857942 l 1.053831791121709 -20.388098109803376 a41.41531547586142,41.41531547586142 0 0,0 0.7116294087129023,0.042927429309180906 l -1.4046232486742232 20.36693741111389" fill="#fff116" stroke="none" /><path d="M 101.44485096284872 79.0497635885617 l 1.407392759582467 -20.407095122714377 a41.45556857501737,41.45556857501737 0 0,0 0.7114758866665947,0.055224221986392395 l -1.7584588356114026 20.379845638539518" fill="#fff216" stroke="none" /><path d="M 101.80526077348638 79.07773832637324 l 1.120672635513827 -12.98815466167342 a34.03641318275616,34.03641318275616 0 0,0 0.5832785651642052,0.05538932796081437 l -1.3440763277682763 12.966939789197427" fill="#ff900d" stroke="none" /><path d="M 102.16513564639614 79.11191278185805 l 2.566287209723803 -24.758186006838955 a45.89083374240462,45.89083374240462 0 0,0 0.7850245468557686,0.08820665468815914 l -2.992078460089297 24.710343398680195" fill="#d5ff1c" stroke="none" /><path d="M 102.52436894288641 79.15227682838746 l 4.074289381181923 -33.64787757323612 a54.89364983511068,54.89364983511068 0 0,0 0.9370745221111848,0.12165916718889343 l -4.652878631800953 33.57276008288309" fill="#6eff28" stroke="none" /><path d="M 102.88285421437855 79.19881850522331 l 4.316018962138051 -31.14215533985448 a52.43981327700853,52.43981327700853 0 0,0 0.8930525661136893,0.13161273377462876 l -4.851440508680396 31.063248121918882" fill="#89ff24" stroke="none" /><path d="M 103.95276090670814 79.375362276772 l 3.854265279844104 -20.110709188379055 a41.47671811856005,41.47671811856005 0 0,0 0.7000353393467227,0.14042050348239973 l -4.199867028657953 20.041384728819448" fill="#fff216" stroke="none" /><path d="M 104.307194497241 79.44645832069477 l 2.503483818803088 -11.946397834180821 a33.20589416812751,33.20589416812751 0 0,0 0.5584239584029602,0.12204984825888071 l -2.7087505013595763 11.90153448782607" fill="#ff840c" stroke="none" /><path d="M 104.66035177308747 79.52364482259891 l 6.925629744167472 -30.429388461119668 a52.207563658046425,52.207563658046425 0 0,0 0.8745421074427104,0.20697586150943761 l -7.448395538572706 30.305666687469362" fill="#8cff24" stroke="none" /><path d="M 108.43124777332544 80.76684994638697 l 8.48613594218266 -19.35835956188285 a42.13671185772152,42.13671185772152 0 0,0 0.6617829066518769,0.29692269970598995 l -8.818100967301318 19.20941653166033" fill="#fffa17" stroke="none" /><path d="M 108.76106565485865 80.91482961587045 l 11.607702353780716 -25.28630487631483 a48.82329901776404,48.82329901776404 0 0,0 0.7607641540403491,0.3571889710555479 l -12.041244719120664 25.08275092261928" fill="#b2ff20" stroke="none" /><path d="M 109.08828744355905 81.06846463323043 l 8.88521837553998 -18.508528362757538 a41.530775137242955,41.530775137242955 0 0,0 0.6418061826363864,0.31493150648602647 l -9.202495825186798 18.35284169613668" fill="#fff316" stroke="none" /><path d="M 109.41281617654863 81.2277094730956 l 20.32838854386174 -40.541577412286394 a66.35265019672632,66.35265019672632 0 0,0 1.0165842534042184,0.5207339389402609 l -21.023233284854715 40.18565094803363" fill="#36ff71" stroke="none" /><path d="M 109.73455568895987 81.39251694778311 l 6.451174151277807 -12.331339767560335 a34.916881417657116,34.916881417657116 0 0,0 0.5301628857049303,0.2831946528401237 l -6.6624820835110485 12.218466388218458" fill="#ff9c0e" stroke="none" /><path d="M 110.05341064243156 81.56283822128135 l 13.937773042454994 -25.560775895716713 a50.11382458170066,50.11382458170066 0 0,0 0.7537976185632826,0.4194875586111016 l -14.375694750090313 25.317072939545433" fill="#a4ff21" stroke="none" /><path d="M 110.36928655335952 81.73862282372117 l 5.949551515041927 -10.47777045091704 a33.04910108067187,33.04910108067187 0 0,0 0.49227937176751474,0.2851599865625602 l -6.129027619274771 10.37380630696443" fill="#ff820c" stroke="none" /><line stroke="#e1ed5e" stroke-width="0.3" x1="143.23703022742887" x2="145.7803849466894" y1="26.81831364943548" y2="22.513508569990506" /><path d="M 143.74570117128098 25.957352633546492 a86.0,86.0 0 0,1 28.547481713284135,27.462654790039103" fill="none" id="id110" stroke="none" /><text fill="#e1ed5e" style="font-size:6.75px; font-family:Arial;" text-anchor="middle"><textPath startOffset="19.985693538727396" xlink:href="#id110">February</textPath></text><path d="M 110.99172775467656 82.1063720568725 l 21.95657985013991 -35.74350452546617 a62.94865330946383,62.94865330946383 0 0,0 0.9183934170465745,0.575097873500991 l -22.568592419558748 35.36026231064224" fill="#32ff48" stroke="none" /><path d="M 111.2981086023043 82.29822771554956 l 10.96134956875503 -17.17414133873579 a41.37405985785159,41.37405985785159 0 0,0 0.5970335435287615,0.388327224279554 l -11.255350138068072 16.98291519029671" fill="#fff116" stroke="none" /><path d="M 111.60114157652 82.49532879139004 l 13.77410431607809 -20.78340012107398 a45.93342476080771,45.93342476080771 0 0,0 0.6553065918175383,0.44246593602079565 l -14.12981560230217 20.543222272754516" fill="#d5ff1c" stroke="none" /><path d="M 111.90073688211348 82.69761687909136 l 14.71876175953225 -21.399486229425747 a46.97267715537332,46.97267715537332 0 0,0 0.662245095052212,0.46394501038003083 l -15.084937994168111 21.14295637628178" fill="#c8ff1d" stroke="none" /><path d="M 112.19680574252982 82.90503203632743 l 19.582938459282087 -27.44732618218793 a54.7171646680359,54.7171646680359 0 0,0 0.7620138610956233,0.5536354770155367 l -20.0524976367315 27.106171470355715" fill="#70ff27" stroke="none" /><path d="M 113.06298171725822 83.55741782278167 l 32.98568121132518 -41.51959986839653 a74.02765635219913,74.02765635219913 0 0,0 0.990901076801854,0.8012397582229136 l -33.695485686691526 40.94565401290949" fill="#40ffc8" stroke="none" /><path d="M 113.34407831869373 83.78471172551755 l 18.068910681476176 -21.95675029091802 a49.4356188002458,49.4356188002458 0 0,0 0.652414721726204,0.546378567002733 l -18.444182940161497 21.642470566521467" fill="#abff21" stroke="none" /><path d="M 113.6212207817346 84.01681056812373 l 16.82993977776655 -19.748311836764515 a46.946920690620345,46.946920690620345 0 0,0 0.6105473892879502,0.5294606795566306 l -17.167380965701266 19.45568616378821" fill="#c9ff1d" stroke="none" /><path d="M 114.16331599549186 84.49514656593476 l 19.828211971374852 -21.706323616136228 a50.399361811274176,50.399361811274176 0 0,0 0.6354930318760225,0.5906215145961654 l -20.198912887045722 21.361797515465422" fill="#a0ff22" stroke="none" /><path d="M 114.68862486808459 84.99185889309783 l 20.35753294429461 -20.800362849502367 a50.10471168469117,50.10471168469117 0 0,0 0.6111920655502818,0.60856741258461 l -20.712560810012214 20.44685958626764" fill="#a4ff21" stroke="none" /><path d="M 114.94478906791727 85.2469230424477 l 14.84696590476317 -14.65650867226671 a41.862541624582306,41.862541624582306 0 0,0 0.5018237018630225,0.5171734363185874 l -15.097053870329303 14.398771040398008" fill="#fff717" stroke="none" /><path d="M 115.19652480421416 85.50635884689758 l 20.583244997289057 -19.63120980622945 a49.443881118346425,49.443881118346425 0 0,0 0.5821020543363261,0.6209458856739828 l -20.918114373595845 19.27399450367741" fill="#abff21" stroke="none" /><path d="M 115.4437574822437 85.77008943001954 l 19.188246802719377 -17.680090891827554 a47.091654399546115,47.091654399546115 0 0,0 0.5441471149505576,0.6008608352011457 l -19.48973755828597 17.34717726935686" fill="#c7ff1e" stroke="none" /><path d="M 115.68641384162765 86.03803664274999 l 17.24540292429014 -15.349568495444421 a44.08707809614406,44.08707809614406 0 0,0 0.4996706332362436,0.571209910591741 l -17.507065421104233 15.050443028649733" fill="#ebff1a" stroke="none" /><path d="M 115.9244219780498 86.31012108654704 l 21.91661881387272 -18.84124008819858 a49.90208484337663,49.90208484337663 0 0,0 0.5543631789916743,0.6561911487784506 l -22.237692606351512 18.461189989791023" fill="#a6ff21" stroke="none" /><path d="M 116.82858285166822 87.43820079747576 l 23.567669388311433 -17.592231808045447 a50.409550496135736,50.409550496135736 0 0,0 0.5130669346384038,0.6998227222505645 l -23.866998935463464 17.183946642123388" fill="#a0ff22" stroke="none" /><path d="M 117.2510076193507 88.02491185347247 l 24.23818317836488 -16.82535805891233 a50.50562993055014,50.50562993055014 0 0,0 0.4896052666594742,0.7184353147060601 l -24.52421291069309 16.405644720935864" fill="#9fff22" stroke="none" /><path d="M 117.65298651832404 88.62581576622439 l 5.923576366828636 -3.816682738029117 a28.046688874671577,28.046688874671577 0 0,0 0.25799268129819625,0.40808246473731924 l -5.988396644372788 3.714152625577592" fill="#ff3b05" stroke="none" /><line stroke="#e1ed5e" stroke-width="0.3" x1="172.23445277983987" x2="176.4835382374775" y1="55.19839476539836" y2="52.563006222186495" /><path d="M 173.08426987136738 54.67131705675599 a86.0,86.0 0 0,1 12.851231095245387,41.99856678651699" fill="none" id="id111" stroke="none" /><text fill="#e1ed5e" style="font-size:6.75px; font-family:Arial;" text-anchor="middle"><textPath startOffset="22.20632615414155" xlink:href="#id111">March</textPath></text><path d="M 118.21658344932153 89.55222093294921 l 10.797676970640227 -6.192804690323696 a33.447516133542045,33.447516133542045 0 0,0 0.28214151908595425,0.5018982802571963 l -10.902676131018614 6.006022900131706" fill="#ff870c" stroke="none" /><path d="M 119.34039704204932 91.81776055985345 l 26.994005527159548 -11.420211084169914 a50.31036600943969,50.31036600943969 0 0,0 0.33055902067240384,0.8004748882645512 l -27.18658623471815 10.95386162545206" fill="#a1ff22" stroke="none" /><path d="M 119.47837535516314 92.15188598940014 l 18.679029344140176 -7.526046152575774 a41.13821014712952,41.13821014712952 0 0,0 0.25898746322726685,0.6590948448003842 l -18.805810357249143 7.2034023028796055" fill="#ffee16" stroke="none" /><path d="M 119.61058180528143 92.48833698450437 l 15.674738646819987 -6.004072481886677 a37.78530065306728,37.78530065306728 0 0,0 0.22742326783972605,0.6093812900754434 l -15.775766503161337 5.7333680547819" fill="#ffc212" stroke="none" /><path d="M 119.85752413597 93.16781622104841 l 14.269297650861416 -4.909497441861481 a36.090262442400515,36.090262442400515 0 0,0 0.1970574838158424,0.5891767946594056 l -14.351692428449029 4.663147544279761" fill="#ffac0f" stroke="none" /><path d="M 119.97218684219823 93.5106431181261 l 9.364517043755782 -3.042716033225003 a30.846435919744618,30.846435919744618 0 0,0 0.15973241674131697,0.5063954118890516 l -9.415504944265304 2.8810704549095325" fill="#ff6309" stroke="none" /><path d="M 120.6074358757038 95.95851677861258 l 22.875131053686736 -4.486218416407234 a44.31089394259806,44.31089394259806 0 0,0 0.1403479539761386,0.7497443821445916 l -22.948964731572737 4.0917959568000795" fill="#e9ff1a" stroke="none" /><path d="M 120.78858239683441 97.02765380044208 l 21.217993067961416 -3.0337432276000125 a42.433777730560415,42.433777730560415 0 0,0 0.09716122897027793,0.7239640113221291 l -21.26707029598953 2.6680608742132192" fill="#fffe18" stroke="none" /><path d="M 120.87857604477298 97.74499172005257 l 25.798712215003903 -2.7864117520303444 a46.94875030525448,46.94875030525448 0 0,0 0.0798640145967159,0.804219727983222 l -25.842853355282845 2.3419164933426875" fill="#c9ff1d" stroke="none" /><path d="M 120.91429891909075 98.10471618934814 l 13.271167383221673 -1.2026522518003966 a34.32554900003176,34.32554900003176 0 0,0 0.048260931066912545,0.5889055994721063 l -13.28990279810808 0.9740327351205216" fill="#ff940d" stroke="none" /><path d="M 120.96714384426684 98.82574320788733 l 62.90143153280055 -3.5227703763380056 a84.0,84.0 0 0,0 0.0684255670660141,1.444355573508001 l -62.95275070810006 2.4395036962070047" fill="#4dd2ff" stroke="none" /><line stroke="#e1ed5e" stroke-width="0.3" x1="184.98032266829074" x2="189.97916517819016" y1="98.17113171792111" y2="98.06355123074" /><path d="M 185.9800911702706 98.14961562048488 a86.0,86.0 0 0,1 -9.607161424134198,41.387399972396054" fill="none" id="id112" stroke="none" /><text fill="#e1ed5e" style="font-size:6.75px; font-family:Arial;" text-anchor="middle"><textPath startOffset="21.466115282336823" xlink:href="#id112">April</textPath></text><path d="M 120.99513854157772 99.54816195383933 l 23.368694816273038 -0.5029195395019415 a44.37410587550504,44.37410587550504 0 0,0 0.009861601727558025,0.7637919216657741 l -23.37388942511831 0.10059135977570456" fill="#e8ff1a" stroke="none" /><path d="M 120.99980553446 99.90962569577887 l 20.75847129942351 -0.08933570348073888 a41.75866353012414,41.75866353012414 0 0,0 -0.0030935269543117044,0.7188267175724445 l -20.756933475179693 -0.2680004922953904" fill="#fff617" stroke="none" /><path d="M 120.9904718944345 100.63252640178507 l 3.7927936245471847 0.11429195666078748 a24.794515269407032,24.794515269407032 0 0,0 -0.016527158607617783,0.4264925268842128 l -3.7902643330883636 -0.17956173055900645" fill="#ff0b01" stroke="none" /><path d="M 120.9764740272857 100.99374915477107 l 3.0883061002390115 0.14630683749779652 a24.091769761717728,24.091769761717728 0 0,0 -0.02318964668865686,0.4140667195494727 l -3.0853301026628253 -0.19944527338269255" fill="#ff0000" stroke="none" /><path d="M 120.95626037817324 101.35467743843564 l 43.62451273410368 2.820023329409982 a64.71556522414403,64.71556522414403 0 0,0 -0.08142894958116183,1.1110333214333017 l -43.56950722585818 -3.5705297873400537" fill="#34ff5e" stroke="none" /><path d="M 120.92983693683757 101.71520430193887 l 23.361053334546234 1.9144429695347347 a44.43936656104671,44.43936656104671 0 0,0 -0.0690405845354851,0.7618570972899582 l -23.324638153733673 -2.3162814553732636" fill="#e7ff1a" stroke="none" /><path d="M 120.89721153311464 102.0752229133903 l 20.669665556813932 2.0526261844860283 a41.771334778578336,41.771334778578336 0 0,0 -0.07721271806349903,0.7148938742477517 l -20.63127053724938 -2.4081163806185715" fill="#fff617" stroke="none" /><path d="M 120.8583938346157 102.4346265915055 l 20.6820161343211 2.41403949152597 a41.82242488393139,41.82242488393139 0 0,0 -0.08961647616257026,0.7143314894531071 l -20.63739814891168 -2.7696887352664716" fill="#fff617" stroke="none" /><line stroke="#e1ed5e" stroke-width="0.3" x1="174.80103733775053" x2="179.2010983576182" y1="140.37084112569926" y2="142.7455964860345" /><path d="M 175.68104954172406 140.8457921977663 a86.0,86.0 0 0,1 -30.038265399797805,32.042727171017184" fill="none" id="id113" stroke="none" /><text fill="#e1ed5e" style="font-size:6.75px; font-family:Arial;" text-anchor="middle"><textPath startOffset="22.206326154141568" xlink:href="#id113">May</textPath></text><line stroke="#e1ed5e" stroke-width="0.3" x1="143.8653032363475" x2="146.44561519142675" y1="172.8068346515853" y2="177.08958963109032" /><path d="M 144.38136562736335 173.6633856474863 a86.0,86.0 0 0,1 -40.68145358897372,12.25698825130547" fill="none" id="id114" stroke="none" /><text fill="#e1ed5e" style="font-size:6.75px; font-family:Arial;" text-anchor="middle"><textPath startOffset="21.466115282336833" xlink:href="#id114">June</textPath></text><line stroke="#e1ed5e" stroke-width="0.3" x1="102.19456741930631" x2="102.32365962044197" y1="184.97166512339345" y2="189.96999836594603" /><path d="M 102.22038585953345 185.97133177190398 a86.0,86.0 0 0,1 -42.740103519485714,-10.115201625700543" fill="none" id="id115" stroke="none" /><text fill="#e1ed5e" style="font-size:6.75px; font-family:Arial;" text-anchor="middle"><textPath startOffset="22.20632615414155" xlink:href="#id115">July</textPath></text><line stroke="#e1ed5e" stroke-width="0.3" x1="58.666819895761336" x2="56.23545636021788" y1="174.27360380694188" y2="178.64263932499728" /><path d="M 58.180547188652646 175.14741091055294 a86.0,86.0 0 0,1 -31.652253787137756,-30.449443065178592" fill="none" id="id116" stroke="none" /><text fill="#e1ed5e" style="font-size:6.75px; font-family:Arial;" text-anchor="middle"><textPath startOffset="22.20632615414155" xlink:href="#id116">August</textPath></text><line stroke="#e1ed5e" stroke-width="0.3" x1="26.63291911575756" x2="22.317208475507996" y1="142.92168965132927" y2="145.44649492493687" /><path d="M 25.769776987707644 143.4266507060508 a86.0,86.0 0 0,1 -11.730757126820373,-40.83630448921669" fill="none" id="id117" stroke="none" /><text fill="#e1ed5e" style="font-size:6.75px; font-family:Arial;" text-anchor="middle"><textPath startOffset="21.46611528233685" xlink:href="#id117">September</textPath></text><line stroke="#e1ed5e" stroke-width="0.3" x1="15.007084014347285" x2="10.007500721073583" y1="101.09737516637583" y2="101.16192664675087" /><path d="M 14.007167355692545 101.11028546245083 a86.0,86.0 0 0,1 10.666146001902534,-42.60595125391555" fill="none" id="id118" stroke="none" /><text fill="#e1ed5e" style="font-size:6.75px; font-family:Arial;" text-anchor="middle"><textPath startOffset="22.20632615414155" xlink:href="#id118">October</textPath></text><line stroke="#e1ed5e" stroke-width="0.3" x1="26.266209847984243" x2="21.928928074336255" y1="57.711370442889674" y2="55.22380399835377" /><path d="M 25.398753493254645 57.213857153982495 a86.0,86.0 0 0,1 29.58750427330803,-30.492523968695096" fill="none" id="id119" stroke="none" /><text fill="#e1ed5e" style="font-size:6.75px; font-family:Arial;" text-anchor="middle"><textPath startOffset="21.46611528233685" xlink:href="#id119">November</textPath></text><line stroke="#e1ed5e" stroke-width="0.3" x1="56.762969772571076" x2="54.21961505331055" y1="26.818313649435495" y2="22.513508569990535" /><path d="M 56.25429882871897 25.957352633546506 a86.0,86.0 0 0,1 42.265352541879196,-11.944610805530505" fill="none" id="id120" stroke="none" /><text fill="#e1ed5e" style="font-size:6.75px; font-family:Arial;" text-anchor="middle"><textPath startOffset="22.20632615414155" xlink:href="#id120">December</textPath></text></svg>