<?xml version="1.0" encoding="utf-8" ?>
<svg baseProfile="full" height="200mm" version="1.1" viewBox="0,0,200,200" width="200mm" xmlns="http://www.w3.org/2000/svg" xmlns:ev="http://www.w3.org/2001/xml-events" xmlns:xlink="http://www.w3.org/1999/xlink"><defs /><rect fill="#1a1a1a" height="200" width="200" x="0" y="0" /><text alignment-baseline="middle" fill="#e1ed5e" style="dominant-baseline: central; font-size:9.0px; font-family:Arial;" text-anchor="middle" x="100.0" y="100.0">2017</text><line stroke="#e1ed5e" stroke-width="0.3" x1="100.0" x2="100.0" y1="15.0" y2="10.0" /><path d="M 100.0 14.0 a86.0,86.0 0 0,1 42.46469731375804,11.215312516191453" fill="none" id="id13" stroke="none" /><text fill="#e1ed5e" style="font-size:6.75px; font-family:Arial;" text-anchor="middle"><textPath startOffset="22.20632615414155" xlink:href="#id13">January</textPath></text><line stroke="#e1ed5e" stroke-width="0.3" x1="143.23703022742887" x2="145.7803849466894" y1="26.81831364943548" y2="22.513508569990506" /><path d="M 143.74570117128098 25.957352633546492 a86.0,86.0 0 0,1 28.547481713284135,27.462654790039103" fill="none" id="id14" stroke="none" /><text fill="#e1ed5e" style="font-size:6.75px; font-family:Arial;" text-anchor="middle"><textPath startOffset="19.985693538727396" xlink:href="#id14">February</textPath></text><line stroke="#e1ed5e" stroke-width="0.3" x1="172.23445277983987" x2="176.4835382374775" y1="55.19839476539836" y2="52.563006222186495" /><path d="M 173.08426987136738 54.67131705675599 a86.0,86.0 0 0,1 12.851231095245387,41.99856678651699" fill="none" id="id15" stroke="none" /><text fill="#e1ed5e" style="font-size:6.75px; font-family:Arial;" text-anchor="middle"><textPath startOffset="22.20632615414155" xlink:href="#id15">March</textPath></text><path d="M 117.84615892207809 88.93136811851018 l 12.284633712616229 -7.61923554293078 a35.455620903711015,35.455620903711015 0 0,0 0.31721671570285787,0.5214208740961249 l -12.41396622660531 7.406646895627574" fill="#ff810b" stroke="none" /><path d="M 118.3937258080291 89.86733742301442 l 15.548549797725977 -8.56532332307808 a38.75168060892348,38.75168060892348 0 0,0 0.31682617629643,0.5870307871202555 l -15.693684073240872 8.296411552625365" fill="#ffb010" stroke="none" /><path d="M 118.89224826269711 90.83032412892265 l 7.843936278347665 -3.807188653552257 a29.719060831449433,29.719060831449433 0 0,0 0.2194141366016495,0.46214212926428383 l -7.908308608791071 3.671604108647433" fill="#ff2b04" stroke="none" /><path d="M 119.47837535516314 92.15188598940014 l 16.464322742692506 -6.633709415488397 a38.750493626507435,38.750493626507435 0 0,0 0.2439554858424924,0.6208401019722853 l -16.576071778416697 6.349320308620328" fill="#ffb010" stroke="none" /><path d="M 119.97218684219823 93.5106431181261 l 8.423304356987293 -2.7368974929496277 a29.856786334633746,29.856786334633746 0 0,0 0.15460770410456093,0.49014867237652127 l -8.46916754486006 2.591498654146687" fill="#ff2d04" stroke="none" /><path d="M 120.53481517161879 95.60439243477599 l 17.431334509570423 -3.7312878251817287 a38.82621473052791,38.82621473052791 0 0,0 0.13426605003268835,0.6547289435765081 l -17.492979855518108 3.430683225441809" fill="#ffb110" stroke="none" /><path d="M 120.73433829027371 96.67025291283417 l 26.515614013081155 -4.258167648681926 a47.85534915459092,47.85534915459092 0 0,0 0.12361288852576856,0.8144544887922675 l -26.584982795046226 3.8011140474975766" fill="#d4ff1c" stroke="none" /><path d="M 120.87857604477298 97.74499172005257 l 11.863493497430863 -1.2813266579310898 a32.93248825551105,32.93248825551105 0 0,0 0.056021101853481026,0.5641248504902925 l -11.883791724966573 1.0769262767363623" fill="#ff5c08" stroke="none" /><path d="M 120.96714384426684 98.82574320788733 l 11.905276711715986 -0.6667504236413131 a32.92393264447401,32.92393264447401 0 0,0 0.026819509062397467,0.5661174478196196 l -11.91498982901188 0.46172186919869374" fill="#ff5c08" stroke="none" /><line stroke="#e1ed5e" stroke-width="0.3" x1="184.98032266829074" x2="189.97916517819016" y1="98.17113171792111" y2="98.06355123074" /><path d="M 185.9800911702706 98.14961562048488 a86.0,86.0 0 0,1 -9.607161424134198,41.387399972396054" fill="none" id="id16" stroke="none" /><text fill="#e1ed5e" style="font-size:6.75px; font-family:Arial;" text-anchor="middle"><textPath startOffset="21.466115282336823" xlink:href="#id16">April</textPath></text><path d="M 120.99980553446 99.90962569577887 l 14.662461636755305 -0.06310104950335425 a35.66259741627552,35.66259741627552 0 0,0 -0.00264192378399346,0.6138900451724458 l -14.661375415681809 -0.1892984738727763" fill="#ff840c" stroke="none" /><path d="M 120.9764740272857 100.99374915477107 l 11.920376748263635 0.5647214256662398 a32.93374593784998,32.93374593784998 0 0,0 -0.03170053258795032,0.566034304571115 l -11.908889864788156 -0.7698274465727782" fill="#ff5c08" stroke="none" /><path d="M 120.8583938346157 102.4346265915055 l 27.45536295397022 3.2046358534203345 a48.64175547766942,48.64175547766942 0 0,0 -0.10422883733709438,0.8308063852444704 l -27.396132607386278 -3.6767599929521997" fill="#caff1d" stroke="none" /><path d="M 120.70491114924044 103.5080841355445 l 7.880430531127315 1.3352007708819564 a28.992743362230975,28.992743362230975 0 0,0 -0.08760441488954414,0.49133208225818814 l -7.856279673898582 -1.470651603873363" fill="#ff2003" stroke="none" /><path d="M 120.49622156327973 104.57218783832717 l 24.615004665810574 5.4909840150740745 a46.22001903551374,46.22001903551374 0 0,0 -0.17990467612580802,0.775024636207159 l -24.516839423754213 -5.913877308629798" fill="#e9ff1a" stroke="none" /><path d="M 120.23288151984713 105.62410040840565 l 19.935436966572258 5.541420240881806 a41.69127800147275,41.69127800147275 0 0,0 -0.19814745343693177,0.6897772799177133 l -19.837096876249227 -5.883754996304101" fill="#ffd914" stroke="none" /><path d="M 119.67450827220406 107.3425965602758 l 30.90051137808116 11.532180902127527 a53.982310407039684,53.982310407039684 0 0,0 -0.33239150173281923,0.8677693238721198 l -30.697425596754833 -12.062373792832789" fill="#89ff24" stroke="none" /><path d="M 118.81262510543309 109.33194174019688 l 5.3646629440565965 2.6611236746152507 a26.988421137072088,26.988421137072088 0 0,0 -0.21002303250422352,0.41439536802108934 l -5.318061241766103 -2.7530732543390344" fill="#ff0000" stroke="none" /><line stroke="#e1ed5e" stroke-width="0.3" x1="174.80103733775053" x2="179.2010983576182" y1="140.37084112569926" y2="142.7455964860345" /><path d="M 175.68104954172406 140.8457921977663 a86.0,86.0 0 0,1 -30.038265399797805,32.042727171017184" fill="none" id="id17" stroke="none" /><text fill="#e1ed5e" style="font-size:6.75px; font-family:Arial;" text-anchor="middle"><textPath startOffset="22.206326154141568" xlink:href="#id17">May</textPath></text><path d="M 118.12598468904814 110.60418214915192 l 17.7548015182573 10.387030142169154 a41.56996286158636,41.56996286158636 0 0,0 -0.36664533897524965,0.6145186775230136 l -17.57337530358382 -10.691110913578271" fill="#ffd714" stroke="none" /><path d="M 117.55443506779139 111.5257021239791 l 24.200400246611967 15.889238442955666 a49.95042781019508,49.95042781019508 0 0,0 -0.4780895653931032,0.714679032218633 l -23.923307575808145 -16.303454389380107" fill="#baff1f" stroke="none" /><path d="M 116.93607887273984 112.41649034213515 l 16.60786459227056 12.175863838549521 a41.59302859052286,41.59302859052286 0 0,0 -0.42828684841568976,0.5737602230893002 l -16.395816477159777 -12.459936941148136" fill="#ffd814" stroke="none" /><path d="M 116.27256486870786 113.27417163493432 l 19.136806598589423 15.610646347627123 a45.696348843148854,45.696348843148854 0 0,0 -0.5024509399115772,0.6052345248440015 l -18.865259658784304 -15.937742129584896" fill="#f0ff19" stroke="none" /><path d="M 115.32070863581623 114.36230785411682 l 15.19357071639653 14.243123162204533 a41.825732844917354,41.825732844917354 0 0,0 -0.4969164918371688,0.5210149550453175 l -14.946147673180398 -14.502545233832357" fill="#ffdb14" stroke="none" /><path d="M 114.29624159901734 115.38237550388516 l 19.86911164671132 21.37863536800745 a50.186086545265,50.186086545265 0 0,0 -0.6378423385441041,0.5826538531641605 l -19.498169758700353 -21.717481987758195" fill="#b7ff1f" stroke="none" /><path d="M 113.48314897796784 116.09983520530334 l 7.601601189602649 9.076850418920914 a32.83949129706311,32.83949129706311 0 0,0 -0.4364991897336648,0.359209116437267 l -7.444231871324292 -9.206354654215358" fill="#ff5a08" stroke="none" /><path d="M 112.63410532772338 116.77436683061366 l 12.4872123458348 16.57933626065041 a41.755839251008055,41.755839251008055 0 0,0 -0.5778511647204466,0.4274804771899136 l -12.19997621069579 -16.791826686580094" fill="#ffda14" stroke="none" /><path d="M 111.7513745106137 117.40417183066458 l 13.136673564676366 19.45584525422774 a44.47556403798049,44.47556403798049 0 0,0 -0.6381720348787852,0.42294562626021415 l -12.799826831057617 -19.67908890157927" fill="#fffe18" stroke="none" /><line stroke="#e1ed5e" stroke-width="0.3" x1="143.8653032363475" x2="146.44561519142675" y1="172.8068346515853" y2="177.08958963109032" /><path d="M 144.38136562736335 173.6633856474863 a86.0,86.0 0 0,1 -40.68145358897372,12.25698825130547" fill="none" id="id18" stroke="none" /><text fill="#e1ed5e" style="font-size:6.75px; font-family:Arial;" text-anchor="middle"><textPath startOffset="21.466115282336833" xlink:href="#id18">June</textPath></text><path d="M 110.8373102113329 117.98757091392108 l 10.737452911394774 17.821829578766568 a41.80650149734498,41.80650149734498 0 0,0 -0.6195964983749433,0.36606853251120447 l -10.429088541991447 -18.00401668357152" fill="#ffdb14" stroke="none" /><path d="M 109.89434966115114 118.52300852407294 l 18.986081971934766 35.54345361228921 a61.296506093382106,61.296506093382106 0 0,0 -0.9349442164309707,0.48911862584413085 l -18.3714468529773 -35.865001657078054" fill="#37ff2e" stroke="none" /><path d="M 108.92500713936063 119.00905698771935 l 5.0641131740320064 10.785875508479526 a32.91555087789998,32.91555087789998 0 0,0 -0.5149434238255218,0.23638526949828223 l -4.877701754439065 -10.871447848311883" fill="#ff5c08" stroke="none" /><path d="M 104.48393922423573 120.51570834832081 l 4.462479375104991 20.417521467556345 a41.89949533006387,41.89949533006387 0 0,0 -0.7059237718845952,0.14793318996668825 l -4.110364141791018 -20.491310638249573" fill="#ffdc14" stroke="none" /><path d="M 102.34483914955558 120.86867818915974 l 2.3240659576756326 20.683800238624574 a41.81395865487757,41.81395865487757 0 0,0 -0.715949359008334,0.07421107840152827 l -1.9676840020616961 -20.72074068548186" fill="#ffdb14" stroke="none" /><path d="M 101.26447882468166 120.96189622390904 l 1.2603529406780296 20.893499386707887 a41.9314788335043,41.9314788335043 0 0,0 -0.7208459127601278,0.03725949989427768 l -0.9005189595044222 -20.912098693364367" fill="#ffdc14" stroke="none" /><line stroke="#e1ed5e" stroke-width="0.3" x1="102.19456741930631" x2="102.32365962044197" y1="184.97166512339345" y2="189.96999836594603" /><path d="M 102.22038585953345 185.97133177190398 a86.0,86.0 0 0,1 -42.740103519485714,-10.115201625700543" fill="none" id="id19" stroke="none" /><text fill="#e1ed5e" style="font-size:6.75px; font-family:Arial;" text-anchor="middle"><textPath startOffset="22.20632615414155" xlink:href="#id19">July</textPath></text><path d="M 99.81925306533755 120.99922214144158 l -0.1801458087121149 20.929383184617173 a41.930158456183094,41.930158456183094 0 0,0 -0.7216785464405899,-0.012424350651525477 l 0.5403840450453727 -20.923181356686488" fill="#ffdc14" stroke="none" /><path d="M 98.73552117531835 120.96189622390904 l -1.250142045232609 20.724228279511866 a41.76190003141759,41.76190003141759 0 0,0 -0.7171855396169883,-0.049461313806036106 l 1.6066903456285273 -20.699638621189543" fill="#ffda14" stroke="none" /><path d="M 97.65516085044442 120.86867818915974 l -1.3817120414194393 12.297007216010629 a33.37438946518255,33.37438946518255 0 0,0 -0.5703406262598394,-0.06906030706303827 l 1.593180090730668 -12.271401380222242" fill="#ff6209" stroke="none" /><path d="M 96.58105272829116 120.7198165907248 l -3.3909869546710767 20.550368923124026 a41.828260978853976,41.828260978853976 0 0,0 -0.7093894366263982,-0.12333644656214132 l 3.744225362769525 -20.48895389804088" fill="#ffdb14" stroke="none" /><path d="M 92.40401165467489 119.57807347666478 l -2.657966612121138 6.850703722137178 a28.348260202228477,28.348260202228477 0 0,0 -0.45340872060999615,-0.18042068722027396 l 2.775496408772992 -6.8039361905108375" fill="#ff1502" stroke="none" /><path d="M 91.40352486487194 119.15986991738527 l -3.712465342501227 8.27436267970606 a30.06903945710819,30.06903945710819 0 0,0 -0.4704115141996333,-0.21594285394127619 l 3.8543448524682793 -8.20923275543071" fill="#ff3004" stroke="none" /><line stroke="#e1ed5e" stroke-width="0.3" x1="58.666819895761336" x2="56.23545636021788" y1="174.27360380694188" y2="178.64263932499728" /><path d="M 58.180547188652646 175.14741091055294 a86.0,86.0 0 0,1 -31.652253787137756,-30.449443065178592" fill="none" id="id20" stroke="none" /><text fill="#e1ed5e" style="font-size:6.75px; font-family:Arial;" text-anchor="middle"><textPath startOffset="22.20632615414155" xlink:href="#id20">August</textPath></text><path d="M 87.95078237400918 117.19931262002967 l -6.701405595725786 9.565730606930266 a32.67955645573869,32.67955645573869 0 0,0 -0.45793811442587534,-0.3267266856318155 l 6.865071038000549 -9.448959659454232" fill="#ff5808" stroke="none" /><path d="M 87.65650970185807 116.9893568818739 l -4.450266489017992 6.125266336763094 a28.5712455725303,28.5712455725303 0 0,0 -0.3953920655828265,-0.29250159762890493 l 4.555043525019384 -6.047754790394422" fill="#ff1902" stroke="none" /><path d="M 87.07902340077011 116.55440617244103 l -7.327874676666758 9.388501933013078 a32.909731979483176,32.909731979483176 0 0,0 -0.44356443111774574,-0.352394410541265 l 7.488396600501861 -9.260973608466683" fill="#ff5b08" stroke="none" /><path d="M 86.51685102203217 116.09983520530335 l -13.283865885714896 15.861877073288461 a41.68961665081724,41.68961665081724 0 0,0 -0.5462025147098957,-0.4654856326462747 l 13.554933877001849 -15.630867050419235" fill="#ffd914" stroke="none" /><path d="M 85.70375840098266 115.38237550388516 l -7.879211277848015 8.477821650596324 a32.5739116248694,32.5739116248694 0 0,0 -0.4074285389320757,-0.3852491139674589 l 8.023975651170907 -8.340937899882935" fill="#ff5608" stroke="none" /><path d="M 85.18274418774928 114.88116024355367 l -14.783998863077867 14.847759862530081 a41.95286604068396,41.95286604068396 0 0,0 -0.5073487446105258,-0.5139415997010335 l 15.037388232743927 -14.591077768848383" fill="#ffdd14" stroke="none" /><path d="M 84.67929136418377 114.36230785411682 l -18.95947180515094 17.77344490322386 a46.98763003542739,46.98763003542739 0 0,0 -0.5480851789021767,-0.5948382135608117 l 19.262603392048845 -17.444455434861705" fill="#dfff1b" stroke="none" /><path d="M 83.95833913139862 113.55231037782056 l -11.521891308958143 9.733920224192346 a36.083208619732936,36.083208619732936 0 0,0 -0.39675034318916014,-0.4779113468949722 l 11.68773765204084 -9.534147620183612" fill="#ff8a0c" stroke="none" /><path d="M 83.28015986056508 112.70617746262583 l -29.19394210398489 22.185822718003156 a57.66738312513571,57.66738312513571 0 0,0 -0.5938058038089796,-0.7954999125597184 l 29.571509174488956 -21.68000992593413" fill="#5fff29" stroke="none" /><path d="M 82.85270091963577 112.12312394758628 l -10.037322363141223 7.096377251014625 a33.29253473903299,33.29253473903299 0 0,0 -0.32680442425606687,-0.4707861473665844 l 10.157987694559425 -6.922549841461028" fill="#ff6109" stroke="none" /><path d="M 82.44556493220864 111.52570212397912 l -12.016977035814133 7.889977502016947 a35.37565588283254,35.37565588283254 0 0,0 -0.3298276846050388,-0.5118998910192647 l 12.151009583796217 -7.681956011076234" fill="#ff800b" stroke="none" /><path d="M 82.05923443525364 110.91462005526583 l -17.90215122306203 10.891128255729866 a41.95480119438356,41.95480119438356 0 0,0 -0.37003959702278566,-0.6202076492480437 l 18.086971695783046 -10.581358512595711" fill="#ffdd14" stroke="none" /><line stroke="#e1ed5e" stroke-width="0.3" x1="26.63291911575756" x2="22.317208475507996" y1="142.92168965132927" y2="145.44649492493687" /><path d="M 25.769776987707644 143.4266507060508 a86.0,86.0 0 0,1 -11.730757126820373,-40.83630448921669" fill="none" id="id21" stroke="none" /><text fill="#e1ed5e" style="font-size:6.75px; font-family:Arial;" text-anchor="middle"><textPath startOffset="21.46611528233685" xlink:href="#id21">September</textPath></text><path d="M 81.69416730710424 110.29060199501025 l -32.97576439408548 18.53728658803144 a58.828984012540516,58.828984012540516 0 0,0 -0.4886267914184117,-0.8869995576701661 l 33.28996759495541 -17.96691651196345" fill="#52ff2b" stroke="none" /><path d="M 81.18737489456691 109.33194174019688 l -14.177801460911066 7.032852485807002 a36.82627777944434,36.82627777944434 0 0,0 -0.2768051437374775,-0.570300583074549 l 14.296759861263261 -6.7877629467671685" fill="#ff950d" stroke="none" /><path d="M 80.87730276802145 108.67885076344099 l -20.428639013362186 9.271553439683608 a43.434147969628185,43.434147969628185 0 0,0 -0.3031267434309423,-0.6834707833136205 l 20.585206841524407 -8.918534319877292" fill="#fff116" stroke="none" /><path d="M 79.4281124754447 104.21870165774334 l -18.98400566595279 3.893072819787123 a40.37907343257393,40.37907343257393 0 0,0 -0.1337702307183169,-0.6820915244724114 l 19.048205829646772 -3.5657175682467566" fill="#ffc712" stroke="none" /><path d="M 79.23777060512086 103.15116336523772 l -29.164299424396308 4.426377831161431 a50.498291164405444,50.498291164405444 0 0,0 -0.1230377614031856,-0.8605258166873627 l 29.236171236816094 -3.923706542493668" fill="#b3ff20" stroke="none" /><path d="M 79.10278846688536 102.07522291339032 l -15.028289410614853 1.4924024903776556 a36.102210030405615,36.102210030405615 0 0,0 -0.056088056072943024,-0.6189270250226027 l 15.051752062964871 -1.2334940768064868" fill="#ff8b0c" stroke="none" /><path d="M 79.04373962182676 101.35467743843564 l -21.540227338608553 1.3924268675712663 a42.58518580833794,42.58518580833794 0 0,0 -0.04099057158661956,-0.731914191587614 l 21.561004261082704 -1.0214409596482148" fill="#ffe515" stroke="none" /><line stroke="#e1ed5e" stroke-width="0.3" x1="15.007084014347285" x2="10.007500721073583" y1="101.09737516637583" y2="101.16192664675087" /><path d="M 14.007167355692545 101.11028546245083 a86.0,86.0 0 0,1 10.666146001902534,-42.60595125391555" fill="none" id="id22" stroke="none" /><text fill="#e1ed5e" style="font-size:6.75px; font-family:Arial;" text-anchor="middle"><textPath startOffset="22.20632615414155" xlink:href="#id22">October</textPath></text><path d="M 79.00175016825051 100.2711162175752 l -31.23079324794136 0.4032323934184585 a52.23339628120454,52.23339628120454 0 0,0 -0.003869506484434911,-0.8991370322327062 l 31.233107051715297 0.13441411701792308" fill="#9eff22" stroke="none" /><path d="M 79.00486145842228 99.54816195383935 l -15.398428823736348 -0.3313908112529179 a36.40199435493525,36.40199435493525 0 0,0 0.01887409699811517,-0.6263393930335686 l 15.390443032282588 0.5964003517114809" fill="#ff8f0d" stroke="none" /><path d="M 79.03285615573316 98.82574320788736 l -20.214730548621812 -1.1321181761213859 a41.24640764970636,41.24640764970636 0 0,0 0.04580199283724779,-0.7085365567503241 l 20.19224796478015 1.4799137971247218" fill="#ffd313" stroke="none" /><path d="M 79.08570108090925 98.10471618934814 l -43.217904193750776 -3.916468558931725 a64.39499935330477,64.39499935330477 0 0,0 0.10954164136147962,-1.1030693794121957 l 43.144085426707065 4.659813469048351" fill="#33ff4e" stroke="none" /><path d="M 79.21141760316559 97.0276538004421 l -15.952307474718234 -2.2808568468756256 a37.114540692303045,37.114540692303045 0 0,0 0.0958688142983162,-0.6316557041232822 l 15.910682766980615 2.555111663391" fill="#ff990e" stroke="none" /><path d="M 79.32604984820605 96.31383870115002 l -21.7850405646774 -3.8842685037828955 a43.128613472473134,43.128613472473134 0 0,0 0.13660326209013998,-0.7297400883529878 l 21.714951578677397 4.258686669598456" fill="#ffed16" stroke="none" /><path d="M 79.54389044137918 95.25157060432595 l -12.48078176068223 -2.897135001334616 a33.81262286082504,33.81262286082504 0 0,0 0.1364857788452046,-0.5658216680773817 l 12.429063181576211 3.1115419010713943" fill="#ff6909" stroke="none" /><path d="M 79.71946130924805 94.55025226153421 l -17.166884620441987 -4.613052545759968 a38.775887639201315,38.775887639201315 0 0,0 0.1787628050717625,-0.6431049221252839 l 17.084935044803863 4.907868771304194" fill="#ffb110" stroke="none" /><path d="M 79.91906864156998 93.8553929516997 l -20.897758272996217 -6.394549659372368 a42.85421163489457,42.85421163489457 0 0,0 0.22191240536817236,-0.7035229680503388 l 20.784590383859843 6.753322793849121" fill="#ffe915" stroke="none" /><path d="M 80.14247586403 93.16781622104843 l -44.759089646346666 -15.399821455509516 a68.33424349064077,68.33424349064077 0 0,0 0.39226107276138433,-1.1089748751405846 l 44.48737549277547 16.16799395707671" fill="#38ff7f" stroke="none" /><path d="M 80.52162464483688 92.15188598940014 l -15.37503450784976 -6.194819718500152 a37.57611165087546,37.57611165087546 0 0,0 0.24688992852207678,-0.5978635450496713 l 15.266122892441484 6.458557834003134" fill="#ffa00e" stroke="none" /><path d="M 80.803312248108 91.48605970444005 l -20.204607815392006 -8.960963831820264 a43.10260278268129,43.10260278268129 0 0,0 0.3066394756467417,-0.6756394379848185 l 20.04736602278191 9.307425278647154" fill="#ffec16" stroke="none" /><path d="M 81.10775173730289 90.83032412892265 l -44.49061353421197 -21.5942803493441 a70.4542984628907,70.4542984628907 0 0,0 0.538941790116912,-1.0864737622018814 l 44.112311731141645 22.35691370004494" fill="#3bff99" stroke="none" /><path d="M 81.6062741919709 89.86733742301443 l -16.43167978809799 -9.051818462640812 a39.75994451322266,39.75994451322266 0 0,0 0.33538906443592104,-0.5966197219140212 l 16.27343308236964 9.333321694489618" fill="#ffbe11" stroke="none" /><line stroke="#e1ed5e" stroke-width="0.3" x1="26.266209847984243" x2="21.928928074336255" y1="57.711370442889674" y2="55.22380399835377" /><path d="M 25.398753493254645 57.213857153982495 a86.0,86.0 0 0,1 29.58750427330803,-30.492523968695096" fill="none" id="id23" stroke="none" /><text fill="#e1ed5e" style="font-size:6.75px; font-family:Arial;" text-anchor="middle"><textPath startOffset="21.46611528233685" xlink:href="#id23">November</textPath></text><path d="M 81.96595687620814 89.24020034530311 l -18.522455230234986 -11.051204991713272 a42.56873847782776,42.56873847782776 0 0,0 0.38085683080330807,-0.626028490279678 l 18.32948260114546 11.368401255200025" fill="#ffe515" stroke="none" /><path d="M 82.34701348167596 88.62581576622439 l -26.16606869084137 -16.859339106973547 a52.127166042827554,52.127166042827554 0 0,0 0.49248595867396916,-0.7500899025799641 l 25.871986096809483 17.30724707353118" fill="#9fff22" stroke="none" /><path d="M 82.95767976084542 87.72973835380427 l -14.297290348986229 -10.293873777271115 a38.617501203791775,38.617501203791775 0 0,0 0.39304780088333674,-0.5361167586888731 l 14.11797993558926 10.538452979631488" fill="#ffae10" stroke="none" /><path d="M 83.39014120810768 87.1503855733568 l -17.136797977958878 -13.257261803546223 a42.66621414703411,42.66621414703411 0 0,0 0.45438689002323635,-0.5770252066183699 l 16.90605700734167 13.55027940411764" fill="#ffe615" stroke="none" /><path d="M 84.07557802195018 86.31012108654704 l -27.739550794352752 -23.84708795155737 a57.58095518219541,57.58095518219541 0 0,0 0.6526064683962877,-0.7460420078119475 l 27.324952462378622 24.321045515572262" fill="#60ff29" stroke="none" /><path d="M 84.5562425177563 85.77008943001954 l -13.469106532531445 -12.410463038922101 a39.314923522229975,39.314923522229975 0 0,0 0.4628539918536968,-0.4937403669482178 l 13.253485218707294 12.64047282274837" fill="#ffb811" stroke="none" /><path d="M 86.65592168130627 83.78471172551755 l -13.735997831725081 -16.6915360701279 a42.61677618919012,42.61677618919012 0 0,0 0.5704490929008886,-0.46126349438390174 l 13.446645340259693 16.925505661775937" fill="#ffe615" stroke="none" /><path d="M 87.51073957382395 83.11751280151077 l -18.514176280715734 -25.02672963682106 a52.130562469508234,52.130562469508234 0 0,0 0.7259917693009262,-0.5274638953789813 l 18.080639195061025 25.34171276701671" fill="#9fff22" stroke="none" /><path d="M 88.39885842347998 82.49532879139004 l -8.914138318323126 -13.450319465640412 a37.13607621715955,37.13607621715955 0 0,0 0.5358788393708217,-0.3485505035664596 l 8.681292453168016 13.601768893366408" fill="#ff990e" stroke="none" /><path d="M 89.00827224532344 82.1063720568725 l -10.753206422812477 -17.505334849982134 a41.544298395944665,41.544298395944665 0 0,0 0.6125567007503685,-0.36905855825839634 l 10.450287655844459 17.687840017699152" fill="#ffd714" stroke="none" /><line stroke="#e1ed5e" stroke-width="0.3" x1="56.762969772571076" x2="54.21961505331055" y1="26.818313649435495" y2="22.513508569990535" /><path d="M 56.25429882871897 25.957352633546506 a86.0,86.0 0 0,1 42.265352541879196,-11.944610805530505" fill="none" id="id24" stroke="none" /><text fill="#e1ed5e" style="font-size:6.75px; font-family:Arial;" text-anchor="middle"><textPath startOffset="22.20632615414155" xlink:href="#id24">December</textPath></text><path d="M 89.63071344664047 81.73862282372117 l -17.68451413651766 -31.1442432576573 a56.81488417315942,56.81488417315942 0 0,0 0.8545930139268072,-0.4755800870020471 l 17.145797033518807 31.444038742219533" fill="#68ff28" stroke="none" /><path d="M 90.58718382345135 81.22770947309562 l -10.64709017208734 -21.233843966329072 a44.75366621637528,44.75366621637528 0 0,0 0.6916119330399321,-0.339370971905046 l 10.280006972036983 21.413970098368946" fill="#fcff18" stroke="none" /><path d="M 91.23893434514133 80.91482961587045 l -6.309265161763821 -13.74415001035141 a36.1231110023199,36.1231110023199 0 0,0 0.5673356164368907,-0.25454695365895413 l 6.0717474268601554 13.850717294526891" fill="#ff8b0c" stroke="none" /><path d="M 92.23578459929587 80.48803036053334 l -23.29264620211241 -58.53590891839998 a84.0,84.0 0 0,0 1.3480673400012946,-0.5230291844377941 l 22.28159569711144 58.92818080672833" fill="#4dd2ff" stroke="none" /><path d="M 92.91201910852362 80.23233633223022 l -6.008605170003097 -16.757393668467355 a38.80206669600408,38.80206669600408 0 0,0 0.6306592210896597,-0.22002461891977038 l 5.7192639448501525 16.858339140559334" fill="#ffb110" stroke="none" /><path d="M 93.59665428221793 80.00007090966166 l -7.03633017361444 -21.976964969687764 a44.075895033367615,44.075895033367615 0 0,0 0.7245544607802402,-0.22512259791480888 l 6.65699034012347 22.094827702485098" fill="#fff917" stroke="none" /><path d="M 94.28887869178378 79.79150937346287 l -8.507545970635354 -30.10348646509768 a52.28255481569229,52.28255481569229 0 0,0 0.8681446295718255,-0.23729672161535387 l 7.988103451839805 30.24546972753933" fill="#9dff22" stroke="none" /><path d="M 95.33964822691252 79.52364482259891 l -1.9422122247957072 -8.53356769642735 a29.75179786990389,29.75179786990389 0 0,0 0.5003363755843017,-0.10935415252079432 l 1.7950331250578846 8.565735347044011" fill="#ff2b04" stroke="none" /><path d="M 96.75951476605007 79.25152402106235 l -5.597227192009013 -35.83843947978639 a57.2728920350346,57.2728920350346 0 0,0 0.9753601320137784,-0.14374272944283958 l 4.979498079566587 35.92947669339019" fill="#63ff29" stroke="none" /><path d="M 97.83486435360386 79.11191278185805 l -2.0866201717673434 -20.130611313687623 a41.23846574234308,41.23846574234308 0 0,0 0.7066994103818742,-0.06710962437018837 l 1.7397956342952328 20.163546482572993" fill="#ffd313" stroke="none" /><path d="M 98.91598698831166 79.02799685794201 l -1.952537790972706 -37.77503428993859 a58.82546258053182,58.82546258053182 0 0,0 1.011683576185611,-0.043565222923491215 l 1.3020133823977706 37.803047239386274" fill="#52ff2b" stroke="none" /></svg>