<?xml version="1.0" encoding="utf-8" ?>
<svg baseProfile="full" height="200mm" version="1.1" viewBox="0,0,200,200" width="200mm" xmlns="http://www.w3.org/2000/svg" xmlns:ev="http://www.w3.org/2001/xml-events" xmlns:xlink="http://www.w3.org/1999/xlink"><defs /><rect fill="#1a1a1a" height="200" width="200" x="0" y="0" /><text alignment-baseline="middle" fill="#e1ed5e" style="dominant-baseline: central; font-size:9.0px; font-family:Arial;" text-anchor="middle" x="100.0" y="100.0">2019</text><line stroke="#e1ed5e" stroke-width="0.3" x1="100.0" x2="100.0" y1="15.0" y2="10.0" /><path d="M 100.0 14.0 a86.0,86.0 0 0,1 42.46469731375804,11.215312516191453" fill="none" id="id37" stroke="none" /><text fill="#e1ed5e" style="font-size:6.75px; font-family:Arial;" text-anchor="middle"><textPath startOffset="22.20632615414155" xlink:href="#id37">January</textPath></text><path d="M 100.36148047927253 79.00311137660856 l 0.29312095807913546 -17.026170050331498 a38.028693034959275,38.028693034959275 0 0,0 0.6544074648183204,0.016901414126175 l -0.5861550580923236 17.018601844062964" fill="#ffd714" stroke="none" /><path d="M 100.72285384407766 79.0124445844662 l 0.06554588150632851 -1.9030787919919914 a22.904207223784255,22.904207223784255 0 0,0 0.3939078293201991,0.01696249973765745 l -0.09829454321585913 1.901668565730139" fill="#ff0901" stroke="none" /><path d="M 101.08401301168833 79.027996857942 l 0.23156314292775115 -4.479967406942803 a25.48594799974681,25.48594799974681 0 0,0 0.43791891712423,0.026416464985622227 l -0.30864410889159305 4.475317672576876" fill="#ff2e04" stroke="none" /><path d="M 101.80526077348638 79.07773832637324 l 4.6881418882456245 -54.33371886740654 a75.53560011888283,75.53560011888283 0 0,0 1.2944459282354805,0.1229232382753362 l -5.622712943571349 54.24497008461603" fill="#42ffdb" stroke="none" /><path d="M 102.52436894288641 79.15227682838746 l 0.89826270863849 -7.418381666376243 a28.472567326010367,28.472567326010367 0 0,0 0.48604742990206934,0.06310290605593023 l -1.0258248670484056 7.401820437156176" fill="#ff5808" stroke="none" /><path d="M 102.88285421437855 79.19881850522331 l 2.2216401534183525 -16.030203614476033 a37.18342092676456,37.18342092676456 0 0,0 0.6332354636756794,0.09332244669547372 l -2.4972445975226876 15.989586683619589" fill="#ffcc13" stroke="none" /><path d="M 103.2404852339499 79.25152402106235 l 3.176992267794363 -20.341937393509824 a41.58853313840251,41.58853313840251 0 0,0 0.7063531014282725,0.11655431400258322 l -3.5266745753615107 20.284236816567613" fill="#fbff18" stroke="none" /><path d="M 103.95276090670814 79.375362276772 l 4.845741043785834 -25.284011830579274 a46.74417333130554,46.74417333130554 0 0,0 0.788938342395508,0.15825360953795647 l -5.280245795648467 25.19685426496411" fill="#beff1e" stroke="none" /><path d="M 104.307194497241 79.44645832069477 l 3.6401413451830646 -17.37042450827499 a38.74774004234318,38.74774004234318 0 0,0 0.6516212532648181,0.14241916716947786 l -3.938605322601411 17.30519184300964" fill="#ffe015" stroke="none" /><path d="M 105.01212808612495 79.60689891045804 l 1.6286819085401756 -6.626701120331248 a27.823911817821614,27.823911817821614 0 0,0 0.464117571037838,0.11831390286633808 l -1.7425083682630385 6.597684221296042" fill="#ff4f07" stroke="none" /><path d="M 105.36241919743992 79.69619591428918 l 3.2800022783729883 -12.419119283431657 a33.84495771586018,33.84495771586018 0 0,0 0.5619908664121286,0.15361333311840275 l -3.493291034008828 12.360819409486961" fill="#ffa10e" stroke="none" /><path d="M 105.71112130821622 79.79150937346287 l 3.604308226534901 -12.753647677960274 a34.25317195562665,34.25317195562665 0 0,0 0.5660088448859054,0.16523350280666574 l -3.8233072891442337 12.689715846234906" fill="#ffa60f" stroke="none" /><path d="M 106.40334571778207 80.00007090966166 l 9.06892408478784 -28.325479618839363 a50.74185904903944,50.74185904903944 0 0,0 0.829550087756632,0.2734896214249309 l -9.55515699478689 28.165176273155197" fill="#91ff23" stroke="none" /><path d="M 106.74666289553966 80.11325718540242 l 3.1950429595942573 -9.4178408796812 a30.945050344198727,30.945050344198727 0 0,0 0.5029572651258578,0.17547191397763198 l -3.356682228783389 9.361448112531361" fill="#ff7a0b" stroke="none" /><path d="M 107.4271985657038 80.35727306442388 l 4.5634658228500955 -12.069007209797734 a33.902951419984134,33.902951419984134 0 0,0 0.5440888278444332,0.21109801227653677 l -4.770537815694196 11.988666493630651" fill="#ffa20e" stroke="none" /><path d="M 108.09893153111575 80.62456947434976 l 17.25972872070091 -41.29120902364759 a65.75334823392261,65.75334823392261 0 0,0 1.0405193141810463,0.4454960678452144 l -17.96793179267227 40.987993427839584" fill="#36ff71" stroke="none" /><path d="M 108.76106565485865 80.91482961587045 l 25.95677519672428 -56.54443155294713 a83.21757724517408,83.21757724517408 0 0,0 1.296695451308559,0.6088159011771056 l -26.92624885933244 56.089250669130024" fill="#4cd9ff" stroke="none" /><path d="M 109.08828744355905 81.06846463323043 l 11.997038241217936 -24.990665752002354 a48.72115259670039,48.72115259670039 0 0,0 0.7529244724761233,0.3694567687289509 l -12.425433980704492 24.780453823138572" fill="#a8ff21" stroke="none" /><path d="M 109.73455568895987 81.39251694778311 l 9.965092776143521 -19.048151849000536 a42.49732920387392,42.49732920387392 0 0,0 0.6452611393320125,0.34467615382276195 l -10.291498962003844 18.87379696867602" fill="#f0ff19" stroke="none" /><line stroke="#e1ed5e" stroke-width="0.3" x1="143.23703022742887" x2="145.7803849466894" y1="26.81831364943548" y2="22.513508569990506" /><path d="M 143.74570117128098 25.957352633546492 a86.0,86.0 0 0,1 28.547481713284135,27.462654790039103" fill="none" id="id38" stroke="none" /><text fill="#e1ed5e" style="font-size:6.75px; font-family:Arial;" text-anchor="middle"><textPath startOffset="19.985693538727396" xlink:href="#id38">February</textPath></text><path d="M 110.99172775467656 82.1063720568725 l 16.401959780431174 -26.70104030954621 a52.33639797824398,52.33639797824398 0 0,0 0.7635652368741409,0.4781444812809776 l -16.859144169677577 26.41475148694229" fill="#80ff25" stroke="none" /><path d="M 111.2981086023043 82.29822771554956 l 4.028028836276492 -6.311078404789258 a28.48697047792178,28.48697047792178 0 0,0 0.4110710185866687,0.26737202517305464 l -4.136066880647441 6.240807455456675" fill="#ff5808" stroke="none" /><path d="M 111.60114157652 82.49532879139004 l 14.823758502852627 -22.36719696563768 a47.83347380140199,47.83347380140199 0 0,0 0.6824135333870336,0.4607686639712987 l -15.206576730646201 22.108716389367714" fill="#b2ff20" stroke="none" /><path d="M 112.19680574252982 82.90503203632743 l 7.834942742195658 -10.981407591662006 a34.48990883837605,34.48990883837605 0 0,0 0.4803207323006636,0.3489734390991082 l -8.02280879085011 10.844914917746223" fill="#ffa90f" stroke="none" /><path d="M 112.77801427241765 83.33499621200491 l 11.501926741066445 -15.000738661160367 a39.9028166985053,39.9028166985053 0 0,0 0.5414763674530796,0.4226308935529514 l -11.758435663678954 14.800529378384192" fill="#ffee16" stroke="none" /><path d="M 113.06298171725822 83.55741782278167 l 11.757956533201986 -14.799926289257094 a39.90204645016276,39.90204645016276 0 0,0 0.5341109355934553,0.4318805649907369 l -12.010970867359932 14.595339627002227" fill="#ffee16" stroke="none" /><path d="M 113.34407831869373 83.78471172551755 l 10.799537149615697 -13.12324492780282 a37.99557472052746,37.99557472052746 0 0,0 0.5014374839381369,0.4199394722281466 l -11.023832170512952 12.935404298180854" fill="#ffd614" stroke="none" /><path d="M 113.6212207817346 84.01681056812373 l 1.6676058637481723 -1.9567747153570803 a23.570968028480337,23.570968028480337 0 0,0 0.30654178764175405,0.2658300175299933 l -1.7010414500366906 1.9277797044074156" fill="#ff1202" stroke="none" /><path d="M 113.89432698308785 84.25364557470407 l 31.423049347786925 -35.61154655105536 a68.49305505093808,68.49305505093808 0 0,0 0.877327582604063,0.787673366058125 l -32.031387917986976 35.065374176227934" fill="#3aff90" stroke="none" /><path d="M 114.42810811169701 84.74124197986012 l 1.563118585247804 -1.653109892470461 a23.27510703663164,23.27510703663164 0 0,0 0.288740732845574,0.2777683562284594 l -1.5913425617057961 1.6259584494796997" fill="#ff0e01" stroke="none" /><path d="M 114.94478906791727 85.2469230424477 l 44.8343672037518 -44.25923087265689 a84.0,84.0 0 0,0 1.0069429451875638,1.0377432177995427 l -45.58957441264248 43.480923459307235" fill="#4dd2ff" stroke="none" /><path d="M 115.19652480421416 85.50635884689758 l 43.49984433904205 -41.48784950431907 a81.11221268605837,81.11221268605837 0 0,0 0.9549328363464572,1.0186557690478768 l -44.20754449735897 40.73292431839314" fill="#49edff" stroke="none" /><path d="M 115.68641384162765 86.03803664274999 l 37.24331576505527 -33.149055945105566 a70.85904611228892,70.85904611228892 0 0,0 0.8030966435160575,0.9180782928310384 l -37.808404272149176 32.503062096071574" fill="#3dffa9" stroke="none" /><path d="M 116.15771136456269 86.58626213691792 l 9.960259337412099 -8.268764355661418 a33.945239667073054,33.945239667073054 0 0,0 0.3693589738454235,0.45279042843781914 l -10.10111680333393 8.096089757615497" fill="#ffa20f" stroke="none" /><path d="M 116.60985879189232 87.15038557335679 l 31.569097248431472 -24.42228633741038 a60.91310525413157,60.91310525413157 0 0,0 0.6344362702256924,0.8348437638333367 l -31.984809458881276 23.87525779769601" fill="#30ff38" stroke="none" /><path d="M 117.04232023915458 87.72973835380427 l 10.77285844012635 -7.75632600976965 a34.27460252289426,34.27460252289426 0 0,0 0.3406036670364776,0.48175973221045004 l -10.90477472696671 7.569739777227406" fill="#ffa60f" stroke="none" /><path d="M 117.2510076193507 88.02491185347247 l 37.346742866167304 -25.924893645423175 a66.4629443969275,66.4629443969275 0 0,0 0.6442966389920847,0.9454258156913927 l -37.78746397082812 25.278189806461377" fill="#37ff79" stroke="none" /><path d="M 117.65298651832404 88.62581576622439 l 16.18102622832852 -10.425769782440025 a40.24895543551117,40.24895543551117 0 0,0 0.37023749857462385,0.5856268100174535 l -16.3580913231491 10.145695324708365" fill="#fff216" stroke="none" /><line stroke="#e1ed5e" stroke-width="0.3" x1="172.23445277983987" x2="176.4835382374775" y1="55.19839476539836" y2="52.563006222186495" /><path d="M 173.08426987136738 54.67131705675599 a86.0,86.0 0 0,1 12.851231095245387,41.99856678651699" fill="none" id="id39" stroke="none" /><text fill="#e1ed5e" style="font-size:6.75px; font-family:Arial;" text-anchor="middle"><textPath startOffset="22.20632615414155" xlink:href="#id39">March</textPath></text><path d="M 118.03404312379186 89.2402003453031 l 11.941887078217318 -7.124986425873374 a34.90590157299316,34.90590157299316 0 0,0 0.303415935049566,0.518636186720115 l -12.062762687737212 6.9183708267993635" fill="#ffaf10" stroke="none" /><path d="M 119.196687751892 91.48605970444005 l 24.496911733501477 -10.864647413149564 a47.798120230550126,47.798120230550126 0 0,0 0.32709685377078856,0.7549846365536135 l -24.680299297114946 10.441363632009349" fill="#b2ff20" stroke="none" /><path d="M 119.47837535516314 92.15188598940014 l 11.265047722432822 -4.538847683570607 a33.14505819184672,33.14505819184672 0 0,0 0.2086662134527867,0.5310327529254268 l -11.341507485767309 4.344265925749395" fill="#ff970e" stroke="none" /><path d="M 119.61058180528143 92.48833698450437 l 21.407173500126355 -8.199831858323067 a43.92388099273947,43.92388099273947 0 0,0 0.26437033393728315,0.7083810582913285 l -21.545148422565262 7.830127663002406" fill="#dfff1b" stroke="none" /><path d="M 119.85752413597 93.16781622104841 l 1.4390147377287457 -0.49510770232294876 a22.521806509481426,22.521806509481426 0 0,0 0.12297196588217645,0.3676705258204546 l -1.4473239973826924 0.47026407358018013" fill="#ff0300" stroke="none" /><path d="M 119.97218684219823 93.5106431181261 l 1.3277439991756916 -0.43141017688723005 a22.396072658592285,22.396072658592285 0 0,0 0.11597381365479631,0.3676686819881674 l -1.3349732965986942 0.4084913284726435" fill="#ff0100" stroke="none" /><path d="M 120.18372546131832 94.20196356495316 l 26.196041379732865 -7.5251520173900275 a48.25546728371219,48.25546728371219 0 0,0 0.22246512502692323,0.8003254191977871 l -26.32169327532615 7.073115294773288" fill="#adff20" stroke="none" /><path d="M 120.45610955862082 95.25157060432595 l 2.310947293177325 -0.5364348498100453 a23.37239114395884,23.37239114395884 0 0,0 0.0875970653434966,0.3926804678764653 l -2.3198387455228593 0.4965762123836161" fill="#ff1001" stroke="none" /><path d="M 120.53481517161879 95.60439243477599 l 1.6904206938541069 -0.3618452821813537 a22.72871458906527,22.72871458906527 0 0,0 0.07859882173357151,0.38327576857627754 l -1.6963988115026754 0.3326938574416644" fill="#ff0601" stroke="none" /><path d="M 120.78858239683441 97.02765380044208 l 11.623355941917772 -1.6619044627751562 a32.74156419715479,32.74156419715479 0 0,0 0.07496882874780512,0.558604852569183 l -11.650240769723412 1.461581268141309" fill="#ff920d" stroke="none" /><path d="M 120.83666639777658 97.38593545837742 l 6.2012600745087685 -0.7779792489206876 a27.249870256529146,27.249870256529146 0 0,0 0.05438249729281612,0.4659160259734353 l -6.213732924805173 0.6711194846223995" fill="#ff4706" stroke="none" /><path d="M 120.87857604477298 97.74499172005257 l 2.9322255177384466 -0.3166974992448643 a23.94927852074104,23.94927852074104 0 0,0 0.040739860314177735,0.4102448336135831 l -2.937242503734853 0.26617713492684625" fill="#ff1802" stroke="none" /><path d="M 120.91429891909075 98.10471618934814 l 2.771221247762682 -0.2511320502273576 a23.78257695503696,23.78257695503696 0 0,0 0.03343775527143119,0.4080253090397646 l -2.775133486853608 0.2033928239798242" fill="#ff1602" stroke="none" /><path d="M 120.98425023603335 99.18683210126433 l 54.773518369981666 -2.122547450506238 a75.81462872542666,75.81462872542666 0 0,0 0.039309182966394005,1.3044804104946117 l -54.8019392474037 1.1793968925866272" fill="#43ffdd" stroke="none" /><line stroke="#e1ed5e" stroke-width="0.3" x1="184.98032266829074" x2="189.97916517819016" y1="98.17113171792111" y2="98.06355123074" /><path d="M 185.9800911702706 98.14961562048488 a86.0,86.0 0 0,1 -9.607161424134198,41.387399972396054" fill="none" id="id40" stroke="none" /><text fill="#e1ed5e" style="font-size:6.75px; font-family:Arial;" text-anchor="middle"><textPath startOffset="21.466115282336823" xlink:href="#id40">April</textPath></text><path d="M 120.99513854157772 99.54816195383933 l 2.9661409628699875 -0.06383455553990278 a23.966827777626513,23.966827777626513 0 0,0 0.005326334030910483,0.41253044052006305 l -2.9668003040186135 0.012767856959377032" fill="#ff1802" stroke="none" /><path d="M 120.99824983174949 100.27111621757518 l 1.9388661162460308 0.025033421929598853 a22.9390277174245,22.9390277174245 0 0,0 -0.00849611045966687,0.3947808682357167 l -1.9381479431013564 -0.058404105955430385" fill="#ff0901" stroke="none" /><path d="M 120.9904718944345 100.63252640178507 l 1.5841875019198821 0.04773787008609117 a22.58490660465515,22.58490660465515 0 0,0 -0.015054310581902205,0.3884848637935756 l -1.5831310584867768 -0.07499998089367294" fill="#ff0400" stroke="none" /><path d="M 120.81339534386255 102.79330883721812 l 3.85949522906099 0.5179722939206188 a24.894097934106682,24.894097934106682 0 0,0 -0.060653816423058685,0.42421265079443876 l -3.85000736162133 -0.5843304166954669" fill="#ff2603" stroke="none" /><path d="M 120.41448212921028 104.9243191809786 l 1.5278722661366588 0.3685486929622662 a22.571693927173406,22.571693927173406 0 0,0 -0.09435901638098618,0.37691736561440836 l -1.5213019354606119 -0.39479389797407055" fill="#ff0400" stroke="none" /><path d="M 120.32669344350535 105.2749913415812 l 7.583855756920531 1.9680905585919903 a28.835065321271777,28.835065321271777 0 0,0 -0.12881299745709596,0.4793610831491095 l -7.548854683121658 -2.098342574916648" fill="#ff5d08" stroke="none" /><path d="M 120.23288151984713 105.62410040840565 l 4.51280645494933 1.254417300938556 a25.683907008548132,25.683907008548132 0 0,0 -0.12206871585646761,0.42493721380740584 l -4.490545102206763 -1.3319119902505439" fill="#ff3104" stroke="none" /><path d="M 118.97047184881838 109.00673069616215 l 3.1058960587613478 1.4746058819447505 a24.438175800463863,24.438175800463863 0 0,0 -0.18368983163715802,0.3784554603034759 l -3.0800529705094752 -1.5278502982135018" fill="#ff1f03" stroke="none" /><path d="M 118.81262510543309 109.33194174019688 l 8.666864905420292 4.299170260092055 a30.67457555730823,30.67457555730823 0 0,0 -0.2387085686341385,0.4709946522029294 l -8.591577666999884 -4.447719123997678" fill="#ff760a" stroke="none" /><line stroke="#e1ed5e" stroke-width="0.3" x1="174.80103733775053" x2="179.2010983576182" y1="140.37084112569926" y2="142.7455964860345" /><path d="M 175.68104954172406 140.8457921977663 a86.0,86.0 0 0,1 -30.038265399797805,32.042727171017184" fill="none" id="id41" stroke="none" /><text fill="#e1ed5e" style="font-size:6.75px; font-family:Arial;" text-anchor="middle"><textPath startOffset="22.206326154141568" xlink:href="#id41">May</textPath></text><path d="M 118.12598468904814 110.60418214915192 l 8.152052536716175 4.769167108533729 a30.444623627784253,30.444623627784253 0 0,0 -0.26852031085882194,0.45005548625880876 l -8.068751350159125 -4.908784688678642" fill="#ff730a" stroke="none" /><path d="M 117.75023020441432 111.22182372390056 l 1.106856052107224 0.6997623896387984 a22.30950285300926,22.30950285300926 0 0,0 -0.20800438852833494,0.3228274301676302 l -1.0946468002018386 -0.7187114197278817" fill="#ff0000" stroke="none" /><path d="M 117.35343817320211 111.8261652097733 l 10.997095513890724 7.49439200905803 a34.30796833957266,34.30796833957266 0 0,0 -0.3367720700299838,0.4851452845260567 l -10.866462536698604 -7.682578555771106" fill="#ffa70f" stroke="none" /><path d="M 117.14729908036423 112.12312394758627 l 1.31509464942005 0.9297706515181471 a22.61057362494166,22.61057362494166 0 0,0 -0.2274195264555665,0.31586583157289916 l -1.2988953305888806 -0.9522700885421774" fill="#ff0400" stroke="none" /><path d="M 116.93607887273984 112.41649034213515 l 2.1985620664824532 1.6118503503785258 a23.726121184428706,23.726121184428706 0 0,0 -0.2443098281504574,0.3272929393490568 l -2.170490971636904 -1.6494561692368974" fill="#ff1502" stroke="none" /><path d="M 116.71984013943494 112.70617746262583 l 11.929225837015528 9.065568762189317 a35.98302259400624,35.98302259400624 0 0,0 -0.3790094901753522,0.4899208570450674 l -11.771409529622108 -9.269567613347638" fill="#ffbd11" stroke="none" /><path d="M 116.27256486870786 113.27417163493432 l 10.623126843870857 8.665702681965541 a34.70931168633912,34.70931168633912 0 0,0 -0.3816437575865469,0.4597144913754609 l -10.472387086390768 -8.847278430454773" fill="#ffac0f" stroke="none" /><path d="M 116.0416608686014 113.55231037782055 l 1.1524067038505932 0.9735758323275172 a22.508605684853404,22.508605684853404 0 0,0 -0.25258673946445026,0.2938154421029208 l -1.135477454815364 -0.9932683735919661" fill="#ff0300" stroke="none" /><path d="M 115.80600337817218 113.82643327865902 l 10.767249017746561 9.418740878176095 a35.30546507948587,35.30546507948587 0 0,0 -0.40406457575733595,0.4539708343225246 l -10.603525592340887 -9.602685882239486" fill="#ffb410" stroke="none" /><path d="M 115.32070863581623 114.36230785411682 l 9.247524724370844 8.669037453625258 a33.675524600591785,33.675524600591785 0 0,0 -0.4000867984154364,0.41948940861264383 l -9.096931374576442 -8.826933978820408" fill="#ff9f0e" stroke="none" /><path d="M 115.07121518719521 114.62390073753431 l 2.5239071530764607 2.44899745766366 a24.516773502088753,24.516773502088753 0 0,0 -0.2964887844878794,0.3003415733492992 l -2.481377743533046 -2.4920795249936236" fill="#ff2003" stroke="none" /><path d="M 114.81725581225074 114.88116024355365 l 12.357980437096055 12.411278410883632 a38.514551443759984,38.514551443759984 0 0,0 -0.4738207714152531,0.46373335088276274 l -12.142509713305008 -12.622161864688968" fill="#ffdd14" stroke="none" /><path d="M 114.29624159901734 115.38237550388516 l 1.0417904677992593 1.1209388188541727 a22.530304288176566,22.530304288176566 0 0,0 -0.2863499221506177,0.2615738645934655 l -1.0223409961817775 -1.138705450034221" fill="#ff0300" stroke="none" /><path d="M 114.0293411484842 115.62618273729858 l 10.369898506057753 11.550216600186227 a36.522316146025254,36.522316146025254 0 0,0 -0.4714120514734927,0.41596632528597755 l -10.169544101677673 -11.727006067244494" fill="#ffc412" stroke="none" /><path d="M 113.75828350139079 115.86535959552629 l 9.191405450464854 10.59906583878462 a35.02933108917621,35.02933108917621 0 0,0 -0.45894182452596755,0.3911201793912799 l -9.00759814936184 -10.755710408398848" fill="#ffb010" stroke="none" /><path d="M 113.48314897796784 116.09983520530334 l 1.0994598628971972 1.312832976659594 a22.71240836681173,22.71240836681173 0 0,0 -0.30189102989850664,0.24843576496979597 l -1.0766987044539995 -1.3315638604865683" fill="#ff0601" stroke="none" /><path d="M 113.20401910651253 116.32954008644616 l 11.456107397116208 14.16788051174303 a39.220077795917575,39.220077795917575 0 0,0 -0.5286166264370027,0.4199650183991643 l -11.210533277961854 -14.36297944414732" fill="#ffe615" stroke="none" /><path d="M 112.63410532772338 116.77436683061366 l 15.108369711910195 20.05946041972585 a46.112641989291234,46.112641989291234 0 0,0 -0.6381441340855251,0.47208377452487627 l -14.760840607406106 -20.316554142990494" fill="#c6ff1e" stroke="none" /><path d="M 112.34349029814194 116.9893568818739 l 1.6850468556541445 2.319268027269163 a23.86677293974652,23.86677293974652 0 0,0 -0.33444471660014957,0.23861742523623303 l -1.6448748112051101 -2.347929714349615" fill="#ff1702" stroke="none" /><path d="M 112.04921762599082 117.19931262002967 l 10.587401137602015 15.11268429632176 a39.452270578137174,39.452270578137174 0 0,0 -0.5595517703663494,0.3848648099234239 l -10.325692482612782 -15.292689895610279" fill="#ffe915" stroke="none" /><path d="M 111.7513745106137 117.40417183066458 l 7.396278573375446 10.954131627940631 a34.217334695664704,34.217334695664704 0 0,0 -0.4909785088326974,0.3253937834145205 l -7.206625365802784 -11.079823432446469" fill="#ffa60f" stroke="none" /><path d="M 111.45004920935366 117.60387380957326 l 10.234604340926795 15.735188558089712 a39.770809385158515,39.770809385158515 0 0,0 -0.5770899698562156,0.36832612282914173 l -9.96223256902365 -15.909029109742663" fill="#ffed16" stroke="none" /><line stroke="#e1ed5e" stroke-width="0.3" x1="143.8653032363475" x2="146.44561519142675" y1="172.8068346515853" y2="177.08958963109032" /><path d="M 144.38136562736335 173.6633856474863 a86.0,86.0 0 0,1 -40.68145358897372,12.25698825130547" fill="none" id="id42" stroke="none" /><text fill="#e1ed5e" style="font-size:6.75px; font-family:Arial;" text-anchor="middle"><textPath startOffset="21.466115282336833" xlink:href="#id42">June</textPath></text><path d="M 110.8373102113329 117.98757091392108 l 1.4552353943263105 2.415373311407032 a23.81988267244533,23.81988267244533 0 0,0 -0.35302441885711006,0.20857304921926786 l -1.4134431044408184 -2.4400649329200492" fill="#ff1602" stroke="none" /><path d="M 109.89434966115114 118.52300852407294 l 7.407039506962486 13.866566335765489 a36.72087453680258,36.72087453680258 0 0,0 -0.5600966753010012,0.2930161087138173 l -7.16725192913499 -13.992011863424024" fill="#ffc612" stroke="none" /><path d="M 109.57404056367764 118.69057910512821 l 6.017088328441006 11.746646009829565 a34.19806972373255,34.19806972373255 0 0,0 -0.5262367902865082,0.26386605114621964 l -5.813997630471738 -11.848479901885087" fill="#ffa50f" stroke="none" /><path d="M 109.2508944713604 118.85261126421891 l 5.832306280943042 11.885791523066862 a34.23963128959926,34.23963128959926 0 0,0 -0.5313458137915835,0.25507828045188846 l -5.626847799151226 -11.98442408001831" fill="#ffa60f" stroke="none" /><path d="M 108.92500713936063 119.00905698771935 l 5.458471291685592 11.625804913015976 a33.84345158894844,33.84345158894844 0 0,0 -0.5294598562221687,0.24304905162553525 l -5.257543439696004 -11.718041034975586" fill="#ffa10e" stroke="none" /><path d="M 108.2653958097858 119.30500536409082 l 7.512736997496949 17.54706385191742 a40.08770984211638,40.08770984211638 0 0,0 -0.6366854931300162,0.2661345877650692 l -7.2095800448694725 -17.673783482702465" fill="#fff016" stroke="none" /><path d="M 107.93186726928326 119.44442032107085 l 3.4275302657435596 8.402351790277965 a30.074551191666476,30.074551191666476 0 0,0 -0.4810194234657497,0.19140755570654502 l -3.2823897662359434 -8.46010619039058" fill="#ff6e0a" stroke="none" /><path d="M 107.59598834532513 119.57807347666477 l 14.322560179574184 36.915293023353655 a60.59639616300437,60.59639616300437 0 0,0 -0.9756879074914095,0.3689216803177118 l -13.685002051322499 -37.156362953778" fill="#30ff34" stroke="none" /><path d="M 107.2578585660854 119.70592522655815 l 0.7270754901492409 1.974094026837979 a23.10373144559213,23.10373144559213 0 0,0 -0.3743689470189858,0.13423538499186152 l -0.6929869825005203 -1.9863169528698006" fill="#ff0c01" stroke="none" /><path d="M 106.91757812671514 119.82793768551818 l 5.9876757782999785 17.162547359561977 a39.17705402685617,39.17705402685617 0 0,0 -0.63864244608316,0.2166621922290446 l -5.691363599279592 -17.263072538689144" fill="#ffe515" stroke="none" /><path d="M 106.57524785965236 119.94407469862006 l 3.3257653404147516 10.087728066698345 a31.621815882755527,31.621815882755527 0 0,0 -0.5184150589474767,0.16598013086700095 l -3.1516289363763343 -10.143481044225052" fill="#ff830c" stroke="none" /><path d="M 106.2309692047433 120.05430185196036 l 0.8302074609000893 2.672013048622643 a23.798016826279614,23.798016826279614 0 0,0 -0.39224234201273767,0.11817940003544293 l -0.7840901444471058 -2.6859078177638116" fill="#ff1602" stroke="none" /><path d="M 105.88484417918355 120.15858648285463 l 6.1249006039957745 20.98090191772371 a42.85663864115364,42.85663864115364 0 0,0 -0.7099280391933872,0.20063275515556506 l -5.762841396697782 -21.083223466217795" fill="#ecff1a" stroke="none" /><path d="M 105.53697534728816 120.25689768951611 l 0.7957620971119352 2.911277434942199 a24.018074488544578,24.018074488544578 0 0,0 -0.39974031328627074,0.10557504992207441 l -0.7455313410141671 -2.9245438341678573" fill="#ff1902" stroke="none" /><path d="M 105.18746579009965 120.34920634021253 l 8.38285685612666 32.88397278905421 a54.93564432070751,54.93564432070751 0 0,0 -0.918332261395221,0.225703726938031 l -7.815571309988227 -33.023397774306275" fill="#65ff29" stroke="none" /><path d="M 104.83641907484287 120.43548508189849 l 0.7944181585208091 3.3566819119719726 a24.449407727240636,24.449407727240636 0 0,0 -0.41037731348241824,0.09340054047477367 l -0.7365206956455288 -3.369859186024431" fill="#ff1f03" stroke="none" /><path d="M 104.48393922423573 120.51570834832081 l 3.861750637367086 17.668961559948226 a39.08605320660462,39.08605320660462 0 0,0 -0.6585228268343978,0.1379998610606633 l -3.5570363491033103 -17.73281740173543" fill="#ffe415" stroke="none" /><path d="M 104.13013068566511 120.58985236759428 l 2.9527654728485286 14.720358697872607 a36.01358665115302,36.01358665115302 0 0,0 -0.6088566465041658,0.11668882539355528 l -2.6989412117726586 -14.769004721614632" fill="#ffbd11" stroke="none" /><path d="M 103.7750983002368 120.6578951692458 l 2.6289821925793104 14.386178641417255 a35.62442078414284,35.62442078414284 0 0,0 -0.6041749572849978,0.10504356068190174 l -2.380958263822263 -14.429300780620162" fill="#ffb811" stroke="none" /><path d="M 103.41894727170886 120.7198165907248 l 2.7702416806090424 16.788471705652082 a38.01549356264649,38.01549356264649 0 0,0 -0.6465605203713624,0.10097945609331552 l -2.480845296629163 -16.833669469092506" fill="#ffd714" stroke="none" /><path d="M 102.70371172650421 120.8252237178851 l 2.1543332027732944 16.593659180015372 a37.73292193644254,37.73292193644254 0 0,0 -0.6448243300539159,0.07807924630455801 l -1.8683814496679982 -16.62828395504528" fill="#ffd313" stroke="none" /><path d="M 102.34483914955558 120.86867818915974 l 1.7229127601484124 15.333636828073528 a36.43012789170378,36.43012789170378 0 0,0 -0.6237660233974162,0.06465589875053765 l -1.4587141401453936 -15.361022095279823" fill="#ffc212" stroke="none" /><path d="M 101.98527174616119 120.90594882070398 l 1.4617150345679013 15.392623081560215 a36.46187104374054,36.46187104374054 0 0,0 -0.6253309543894428,0.05395618600015183 l -1.196539762436917 -15.41550351983903" fill="#ffc312" stroke="none" /><path d="M 101.62511606390274 120.93702456842531 l 1.3976598027662037 18.006613975952888 a39.06077517171537,39.06077517171537 0 0,0 -0.6707985771315397,0.046262197285607 l -1.0874984648557338 -18.02800451775478" fill="#ffe415" stroke="none" /><path d="M 100.90346689309514 120.98055641714683 l 1.1657701635671516 27.071835031337923 a48.0969236637342,48.0969236637342 0 0,0 -0.8274495079411899,0.028499034106315452 l -0.6996003039513095 -27.08789086387033" fill="#afff20" stroke="none" /><line stroke="#e1ed5e" stroke-width="0.3" x1="102.19456741930631" x2="102.32365962044197" y1="184.97166512339345" y2="189.96999836594603" /><path d="M 102.22038585953345 185.97133177190398 a86.0,86.0 0 0,1 -42.740103519485714,-10.115201625700543" fill="none" id="id43" stroke="none" /><text fill="#e1ed5e" style="font-size:6.75px; font-family:Arial;" text-anchor="middle"><textPath startOffset="22.20632615414155" xlink:href="#id43">July</textPath></text><path d="M 100.18074693466247 120.99922214144158 l 0.1577411238844581 18.32640153746583 a39.3270803887197,39.3270803887197 0 0,0 -0.6769761170938146,0.0 l 0.1577411238844455 -18.32640153746583" fill="#ffe715" stroke="none" /><path d="M 99.45781275523022 120.99299961872073 l -0.5895520000428437 22.82692009357519 a43.834532018835446,43.834532018835446 0 0,0 -0.7541202053462605,-0.025973424657534078 l 0.9823925570637472 -22.813389870491562" fill="#e0ff1b" stroke="none" /><path d="M 98.73552117531835 120.96189622390904 l -1.1142967468416922 18.472253005751725 a39.50583119853106,39.50583119853106 0 0,0 -0.6784416141224693,-0.046789305865126564 l 1.4321011217430915 -18.450335355370314" fill="#ffe915" stroke="none" /><path d="M 98.37488393609728 120.93702456842531 l -1.9073069447158177 24.57260330387933 a45.646514011340074,45.646514011340074 0 0,0 -0.7828500664987839,-0.06754759779880286 l 2.3300013289561434 -24.536131453801865" fill="#cbff1d" stroke="none" /><path d="M 97.65516085044442 120.86867818915974 l -1.870836943629299 16.65013744264319 a37.75491294303127,37.75491294303127 0 0,0 -0.6452001381112422,-0.07812475142666271 l 2.157164504791931 -16.615467162491175" fill="#ffd313" stroke="none" /><path d="M 97.2962882734958 120.8252237178851 l -2.013192005692589 15.506525157478148 a36.63666411071387,36.63666411071387 0 0,0 -0.6246924729684848,-0.08657668454265065 l 2.279813069847905 -15.469573907442893" fill="#ffc512" stroke="none" /><path d="M 96.58105272829116 120.7198165907248 l -2.7604531726402457 16.729150495439708 a37.95537018225819,37.95537018225819 0 0,0 -0.6437068632652544,-0.11191668925937352 l 3.04800900737755 -16.67915522765933" fill="#ffd614" stroke="none" /><path d="M 96.22490169976321 120.6578951692458 l -2.947353189547106 16.128351733936903 a37.395445113735676,37.395445113735676 0 0,0 -0.6322187658515632,-0.12116623116879349 l 3.2245395699703643 -16.075228304419642" fill="#ffcf13" stroke="none" /><path d="M 95.51606077576429 120.51570834832081 l -4.113361291488509 18.82017493264184 a40.26444200099127,40.26444200099127 0 0,0 -0.6758287857756737,-0.15381643133291914 l 4.436710226657045 -18.746581767731236" fill="#fff316" stroke="none" /><path d="M 94.81253420990036 120.34920634021253 l -3.297051214651089 12.93355526492921 a34.34718691346646,34.34718691346646 0 0,0 -0.5716509566093654,-0.150978213295227 l 3.5191926140719434 -12.8748857023304" fill="#ffa70f" stroke="none" /><path d="M 94.46302465271185 120.25689768951611 l -5.092637736603135 18.631298701856036 a40.3147676774549,40.3147676774549 0 0,0 -0.6678214828614335,-0.18873302174513182 l 5.412590387569182 -18.54087688677238" fill="#fff316" stroke="none" /><path d="M 93.76903079525671 120.05430185196036 l -9.348903617762577 30.089337464992195 a52.508256504230715,52.508256504230715 0 0,0 -0.8608319962331634,-0.2756112210153952 l 9.86545695908668 -29.923953397317096" fill="#7eff26" stroke="none" /><path d="M 93.42475214034765 119.94407469862007 l -0.7376504898416079 2.2374451556648323 a23.355905148721313,23.355905148721313 0 0,0 -0.38073491652640906,-0.1291659553458687 l 0.7760551393052427 -2.2244162134208403" fill="#ff0f01" stroke="none" /><path d="M 92.7421414339146 119.70592522655815 l -4.479810800626169 12.163204320180213 a33.96195371631366,33.96195371631366 0 0,0 -0.5468356148879345,-0.20676643868705868 l 4.688516636274387 -12.08428963138652" fill="#ffa20f" stroke="none" /><path d="M 90.42595943632237 118.69057910512821 l -7.219999089529156 14.094985625375523 a36.8365718080759,36.8365718080759 0 0,0 -0.5618613842791775,-0.2939393210459021 l 7.461551376334829 -13.968616885384904" fill="#ffc812" stroke="none" /><line stroke="#e1ed5e" stroke-width="0.3" x1="58.666819895761336" x2="56.23545636021788" y1="174.27360380694188" y2="178.64263932499728" /><path d="M 58.180547188652646 175.14741091055294 a86.0,86.0 0 0,1 -31.652253787137756,-30.449443065178592" fill="none" id="id44" stroke="none" /><text fill="#e1ed5e" style="font-size:6.75px; font-family:Arial;" text-anchor="middle"><textPath startOffset="22.20632615414155" xlink:href="#id44">August</textPath></text><path d="M 89.7882731507175 118.34994917583269 l -9.41310650277741 16.914869391047436 a40.35766981195887,40.35766981195887 0 0,0 -0.6041182509321924,-0.3430341093971506 l 9.70287352063081 -16.750332115855652" fill="#fff417" stroke="none" /><path d="M 89.4739219176387 118.17145234162733 l -5.358672988214872 9.250821631551911 a31.690794032877655,31.690794032877655 0 0,0 -0.46967587122159793,-0.2774927834242984 l 5.517116730464852 -9.157210275833863" fill="#ff840c" stroke="none" /><path d="M 89.1626897886671 117.98757091392108 l -10.949617860967091 18.17397711366778 a42.21762417023475,42.21762417023475 0 0,0 -0.6192336368510861,-0.3803838760054018 l 11.260830697750485 -17.982804770834" fill="#f4ff19" stroke="none" /><path d="M 88.8546689885994 117.79835938074946 l -4.317187485283644 6.8942640015405185 a29.13443199652116,29.13443199652116 0 0,0 -0.42275198173173245,-0.2698203165589263 l 4.4352212690623 -6.818929256157787" fill="#ff6109" stroke="none" /><path d="M 88.24862548938628 117.40417183066458 l -9.286601029376241 13.753761306144419 a37.59538817699686,37.59538817699686 0 0,0 -0.5332155970689764,-0.36675054978343746 l 9.521973511068108 -13.59186996699588" fill="#ffd113" stroke="none" /><path d="M 87.95078237400918 117.19931262002967 l -7.60486593244589 10.855349340143956 a34.25415388272823,34.25415388272823 0 0,0 -0.4800029235878982,-0.3424693411119004 l 7.790596183882675 -10.722835737187836" fill="#ffa60f" stroke="none" /><path d="M 87.65650970185807 116.9893568818739 l -19.206345360113737 26.435266511985965 a53.67578641213841,53.67578641213841 0 0,0 -0.7428090598081156,-0.5495123843894748 l 19.658539390340415 -26.100744178856726" fill="#72ff27" stroke="none" /><path d="M 87.07902340077011 116.55440617244103 l -11.801823713725243 15.12054308218457 a40.181080941126524,40.181080941126524 0 0,0 -0.5415692330906299,-0.43025535248924585 l 12.06035043953323 -14.915153815690193" fill="#fff216" stroke="none" /><path d="M 86.51685102203217 116.09983520530335 l -8.18784464652247 9.776866643767157 a33.752565284114155,33.752565284114155 0 0,0 -0.4422140935117397,-0.37686444412058595 l 8.354924216611266 -9.63447780942362" fill="#ffa00e" stroke="none" /><path d="M 86.24171649860922 115.8653595955263 l -9.943533361575279 11.466381864827612 a36.17734393043816,36.17734393043816 0 0,0 -0.4669593201844623,-0.4120373076335979 l 10.13943503466633 -11.293521415421726" fill="#ffbf11" stroke="none" /><path d="M 85.97065885151581 115.62618273729859 l -7.120390357574853 7.93084434334859 a31.65824801938242,31.65824801938242 0 0,0 -0.4023619361649155,-0.3675480887772209 l 7.2558518432066235 -7.807103487984793" fill="#ff840c" stroke="none" /><path d="M 85.70375840098266 115.38237550388516 l -13.048420604479897 14.039753321218237 a40.16705385791134,40.16705385791134 0 0,0 -0.5024021755508286,-0.47505261534599585 l 13.288158614421542 -13.81306606912631" fill="#fff116" stroke="none" /><path d="M 84.9287848128048 114.62390073753433 l -20.15272362666788 19.554589742554175 a49.08049589256683,49.08049589256683 0 0,0 -0.5831077228698767,-0.6113861161951103 l 20.486337900916713 -19.204796509776564" fill="#a4ff21" stroke="none" /><path d="M 84.67929136418377 114.36230785411682 l -6.561988971019566 6.151497817586505 a29.994477453168358,29.994477453168358 0 0,0 -0.3498692853545099,-0.3797140092292468 l 6.666904664369804 -6.037632553555914" fill="#ff6d0a" stroke="none" /><path d="M 84.43433777217949 114.09645910891817 l -13.2099656960995 11.963110758786643 a38.82187455682264,38.82187455682264 0 0,0 -0.44430923760926955,-0.4991861385439074 l 13.413933783357109 -11.73395045050187" fill="#ffe115" stroke="none" /><path d="M 84.19399662182784 113.82643327865904 l -7.828887036372398 6.848384228744821 a31.401530597599596,31.401530597599596 0 0,0 -0.3523812331555583,-0.40989898372295075 l 7.945610779098736 -6.712608145860339" fill="#ff800b" stroke="none" /><path d="M 83.95833913139862 113.55231037782056 l -14.598240738846675 12.332880683834306 a40.11043114717761,40.11043114717761 0 0,0 -0.44103138085134286,-0.53125070932862 l 14.808368119591554 -12.079768717391925" fill="#fff116" stroke="none" /><path d="M 83.50135304334701 112.99209946851258 l -22.20075676718808 17.482308758613186 a49.257825828738675,49.257825828738675 0 0,0 -0.5188331081893687,-0.6706617317415712 l 22.498396692595513 -17.09756903275836" fill="#a2ff22" stroke="none" /><path d="M 83.28015986056508 112.70617746262583 l -8.857433441631601 6.731172082639989 a32.12487324777437,32.12487324777437 0 0,0 -0.33079247136569895,-0.44315057272743913 l 8.971987179692386 -6.577708630403242" fill="#ff8a0c" stroke="none" /><path d="M 83.06392112726016 112.41649034213515 l -7.817570853703425 5.731361653033137 a30.693447294463,30.693447294463 0 0,0 -0.3087179195354678,-0.4287821890024823 l 7.915068565614501 -5.595945858579516" fill="#ff770a" stroke="none" /><path d="M 82.85270091963577 112.12312394758628 l -14.104744398123712 9.972040715338414 a38.27383601186399,38.27383601186399 0 0,0 -0.37570161118623313,-0.5412261920640188 l 14.27430691647208 -9.727773261087382" fill="#ffda14" stroke="none" /><path d="M 82.6465618267979 111.8261652097733 l -8.717890179858541 5.9411402235481745 a31.54982257405005,31.54982257405005 0 0,0 -0.3019722077250713,-0.4514074784218062 l 8.818865492994343 -5.790195830920548" fill="#ff820c" stroke="none" /><path d="M 82.44556493220864 111.52570212397912 l -16.063082608760354 10.546525970586796 a40.215926543992644,40.215926543992644 0 0,0 -0.37495632533808265,-0.5819405436126212 l 16.24224379747548 -10.268463827052726" fill="#fff216" stroke="none" /><path d="M 82.05923443525364 110.91462005526583 l -15.080781524999882 9.174692121571855 a38.65233545257993,38.65233545257993 0 0,0 -0.34091198689262103,-0.5713880992528833 l 15.236474387590734 -8.913741928432861" fill="#ffdf14" stroke="none" /><line stroke="#e1ed5e" stroke-width="0.3" x1="26.63291911575756" x2="22.317208475507996" y1="142.92168965132927" y2="145.44649492493687" /><path d="M 25.769776987707644 143.4266507060508 a86.0,86.0 0 0,1 -11.730757126820373,-40.83630448921669" fill="none" id="id45" stroke="none" /><text fill="#e1ed5e" style="font-size:6.75px; font-family:Arial;" text-anchor="middle"><textPath startOffset="21.46611528233685" xlink:href="#id45">September</textPath></text><path d="M 81.69416730710424 110.29060199501025 l -11.033501180293793 6.202469516830178 a33.657360562248044,33.657360562248044 0 0,0 -0.27955417512629654,-0.5074720298534366 l 11.138631764871606 -6.011626968578919" fill="#ff9e0e" stroke="none" /><path d="M 81.51974371655577 109.97397251340807 l -14.895884806576978 8.039452664776674 a37.926907080739696,37.926907080739696 0 0,0 -0.30512646771803714,-0.5771842870108614 l 15.032063782519902 -7.781853362679687" fill="#ffd513" stroke="none" /><path d="M 81.35079622478065 109.6543875284942 l -12.463415959810641 6.452106430662673 a35.03447237269222,35.03447237269222 0 0,0 -0.27263714659436433,-0.537938955323488 l 12.572631776191272 -6.2366132636364995" fill="#ffb010" stroke="none" /><path d="M 81.18737489456691 109.33194174019688 l -17.133343362306896 8.498939471539325 a40.1254654037907,40.1254654037907 0 0,0 -0.30160352575272015,-0.6213925950640772 l 17.277100144674336 -8.202757920509963" fill="#fff116" stroke="none" /><path d="M 81.02952815118164 109.00673069616217 l -2.518053186423173 1.195512009899701 a23.787443419241065,23.787443419241065 0 0,0 -0.17243108042356733,-0.3714012070433079 l 2.538258883686567 -1.151990735577566" fill="#ff1602" stroke="none" /><path d="M 80.87730276802145 108.67885076344099 l -30.754667514320477 13.958029372011223 a54.77389758180609,54.77389758180609 0 0,0 -0.38226681022045106,-0.8619107415565013 l 30.990375409272207 -13.426570293962026" fill="#66ff29" stroke="none" /><path d="M 80.73074385275274 108.34839909993369 l -15.49683190563639 6.713997496541681 a37.88874067226796,37.88874067226796 0 0,0 -0.25412342607371846,-0.6006727123917481 l 15.610106312902413 -6.446250258483774" fill="#ffd513" stroke="none" /><path d="M 80.32549172779594 107.34259656027581 l -10.267162071506712 3.8317414527989153 a31.958871272338385,31.958871272338385 0 0,0 -0.1879116784662327,-0.5170522342845182 l 10.331598010978169 -3.65444142150828" fill="#ff880c" stroke="none" /><path d="M 80.20201598880116 107.00284435728193 l -46.33655242372774 16.389934676826282 a70.14983264699384,70.14983264699384 0 0,0 -0.39286969176593,-1.1418632224981 l 46.6118129464369 -15.589898751238886" fill="#3cffa2" stroke="none" /><path d="M 80.0844068197444 106.66101706037122 l -11.197366588272747 3.7450980847339363 a32.80706475701919,32.80706475701919 0 0,0 -0.17451444546527398,-0.5371002358077446 l 11.26017328475427 -3.551798948948388" fill="#ff930d" stroke="none" /><path d="M 79.76711848015287 105.62410040840567 l -20.249739754365336 5.628786463802472 a42.017497405129134,42.017497405129134 0 0,0 -0.18770201232760217,-0.6985090147335166 l 20.343629843034712 -5.279386515893417" fill="#f6ff19" stroke="none" /><path d="M 79.67330655649465 105.27499134158121 l -12.487295238698218 3.2405848224639735 a33.90092757789141,33.90092757789141 0 0,0 -0.14171989886864245,-0.5661005485796059 l 12.54122645186192 -3.0251564344869757" fill="#ffa10e" stroke="none" /><path d="M 79.58551787078972 104.9243191809786 l -19.53583059658279 4.712373535327233 a41.09614742767461,41.09614742767461 0 0,0 -0.1599607539605997,-0.6891067415003808 l 19.614051916473944 -4.375398136478277" fill="#fffd17" stroke="none" /><path d="M 79.50377843672027 104.57218783832718 l -10.27636747012284 2.292397270590308 a31.528951212120266,31.528951212120266 0 0,0 -0.11360325721310899,-0.5307165972279289 l 10.31430476606039 -2.1151668539462154" fill="#ff820c" stroke="none" /><path d="M 79.4281124754447 104.21870165774334 l -19.912706958561632 4.08352270816031 a41.32710151806228,41.32710151806228 0 0,0 -0.1369109153587157,-0.6981058077905561 l 19.980047806896017 -3.7401531733017994" fill="#feff18" stroke="none" /><path d="M 79.29508885075956 103.50808413554451 l -27.03693398658748 4.580934373900523 a48.42226757824875,48.42226757824875 0 0,0 -0.13216568702063658,-0.8229958592395176 l 27.111781427969408 -4.1148592849677925" fill="#abff21" stroke="none" /><path d="M 79.23777060512086 103.15116336523772 l -10.05205335794906 1.5256387782131184 a31.1671702254188,31.1671702254188 0 0,0 -0.0759379924624168,-0.531110142415417 l 10.076825401428076 -1.352383163817301" fill="#ff7d0b" stroke="none" /><path d="M 79.18660465613746 102.79330883721812 l -15.278301845188794 2.0504590844874535 a36.41528104608724,36.41528104608724 0 0,0 -0.07803012797265635,-0.6219768944697969 l 15.311333482408298 -1.7871644357302479" fill="#ffc212" stroke="none" /><path d="M 79.1416061653843 102.43462659150553 l -17.633435106434302 2.058204018492832 a38.753147254348164,38.753147254348164 0 0,0 -0.0716337136192679,-0.6632392219882566 l 17.666251121554623 -1.7543684746197932" fill="#ffe015" stroke="none" /><path d="M 79.10278846688536 102.07522291339032 l -12.97722993377738 1.2887195436689722 a34.041061874569955,34.041061874569955 0 0,0 -0.05288587556261445,-0.5835912299245247 l 12.99749040561707 -1.0651469251958814" fill="#ffa30f" stroke="none" /><path d="M 79.07016306316243 101.71520430193888 l -18.87860064435972 1.547105079581405 a39.94188735096073,39.94188735096073 0 0,0 -0.050257243678754136,-0.6857201604305515 l 18.902434446702813 -1.2219117826540928" fill="#ffef16" stroke="none" /><path d="M 79.04373962182676 101.35467743843564 l -14.771907570241353 0.954901759519319 a35.80273929494426,35.80273929494426 0 0,0 -0.03446209568443745,-0.615343868772096 l 14.786156016813322 -0.7004861744117854" fill="#ffba11" stroke="none" /><path d="M 79.0095281055655 100.63252640178507 l -17.469830447764217 0.5264354726512619 a38.47776044521996,38.47776044521996 0 0,0 -0.014251314703058116,-0.6622025947852495 l 17.476303825152282 -0.22564306207588353" fill="#ffdc14" stroke="none" /><line stroke="#e1ed5e" stroke-width="0.3" x1="15.007084014347285" x2="10.007500721073583" y1="101.09737516637583" y2="101.16192664675087" /><path d="M 14.007167355692545 101.11028546245083 a86.0,86.0 0 0,1 10.666146001902534,-42.60595125391555" fill="none" id="id46" stroke="none" /><text fill="#e1ed5e" style="font-size:6.75px; font-family:Arial;" text-anchor="middle"><textPath startOffset="22.20632615414155" xlink:href="#id46">October</textPath></text><path d="M 79.00019446554 99.90962569577889 l -17.491952208237837 -0.07527798329820262 a38.49211418982983,38.49211418982983 0 0,0 0.008554401092762669,-0.662547791915214 l 17.48806480002736 0.37636203327388856" fill="#ffdd14" stroke="none" /><path d="M 79.00486145842228 99.54816195383935 l -12.844776090264208 -0.27643344770040557 a33.84775031902592,33.84775031902592 0 0,0 0.01754974511726626,-0.5823906015604398 l 12.838114650691297 0.4974941966858397" fill="#ffa10e" stroke="none" /><path d="M 79.01574976396665 99.18683210126434 l -18.836748794221922 -0.7299493316995562 a39.85088674740447,39.85088674740447 0 0,0 0.03246213718778912,-0.6852244093196226 l 18.821393048800633 1.0540848476421878" fill="#ffed16" stroke="none" /><path d="M 79.03285615573316 98.82574320788736 l -9.315699677597046 -0.5217221621098868 a30.330297663934324,30.330297663934324 0 0,0 0.033680219818246475,-0.5210180933701123 l 9.305338866774386 0.6819993197330109" fill="#ff720a" stroke="none" /><path d="M 79.05617556472873 98.46500227214037 l -30.323713397831042 -2.222460912513588 a51.40504771812484,51.40504771812484 0 0,0 0.07227431276957237,-0.8819296799100205 l 30.280964601241973 2.744104509631387" fill="#8aff24" stroke="none" /><path d="M 79.12142395522702 97.74499172005258 l -17.806869766088823 -1.9232460430426994 a38.91042953724247,38.91042953724247 0 0,0 0.07765344601831234,-0.6652873033245791 l 17.771125967066922 2.22947708469214" fill="#ffe215" stroke="none" /><path d="M 79.21141760316559 97.0276538004421 l -19.012585377831215 -2.718414599553077 a40.205941286080844,40.205941286080844 0 0,0 0.10385406492834894,-0.6842685287027012 l 18.962975419463564 3.0452822406478703" fill="#fff216" stroke="none" /><path d="M 79.26566170972629 96.67025291283419 l -11.197843782101998 -1.798272372814638 a32.34131777595482,32.34131777595482 0 0,0 0.09300152268918249,-0.548900251425916 l 11.165230397892593 1.990758412556382" fill="#ff8d0d" stroke="none" /><path d="M 79.3925641242962 95.95851677861259 l -37.19442247921258 -7.294485121080037 a58.902962638081625,58.902962638081625 0 0,0 0.20369402949858365,-0.9932844282972512 l 37.063349153798995 7.933645205540691" fill="#3cff2e" stroke="none" /><path d="M 79.46518482838121 95.60439243477599 l -12.338282725546865 -2.6410877544806803 a33.61778764849036,33.61778764849036 0 0,0 0.12599564688141732,-0.5648137797057687 l 12.29099269166341 2.8530797037364084" fill="#ff9e0e" stroke="none" /><path d="M 79.62865764111835 94.90015583598534 l -16.46676874870976 -4.122357428580203 a37.97493162850604,37.97493162850604 0 0,0 0.1642030042306015,-0.6327411579215129 l 16.393369412608852 4.40519501205058" fill="#ffd614" stroke="none" /><path d="M 79.71946130924805 94.55025226153421 l -18.55182631979993 -4.985211441984192 a40.209960773549525,40.209960773549525 0 0,0 0.18537410275653735,-0.6668892774950006 l 18.46326544647703 5.303812022898135" fill="#fff216" stroke="none" /><path d="M 79.91906864156998 93.8553929516997 l -31.911903891483618 -9.764791586420856 a54.37245517946683,54.37245517946683 0 0,0 0.28155744451553044,-0.8926140416242109 l 31.73909096319988 10.31265579447148" fill="#6bff28" stroke="none" /><path d="M 80.14247586403 93.16781622104843 l -11.89334457957428 -4.092026546595442 a33.57761211623775,33.57761211623775 0 0,0 0.192746556875032,-0.54492047181621 l 11.821144941889438 4.296144644838264" fill="#ff9d0e" stroke="none" /><path d="M 80.2630227832202 92.82701384747504 l -16.39672474198816 -5.959042168881506 a38.445995696291874,38.445995696291874 0 0,0 0.23139987840464124,-0.6200366293430273 l 16.29172027508189 6.240401935253875" fill="#ffdc14" stroke="none" /><path d="M 80.52162464483688 92.15188598940014 l -17.83128791897558 -7.184479095011267 a40.224244295057694,40.224244295057694 0 0,0 0.2642892082909269,-0.6399972811084331 l 17.704977023798453 7.490350946573011" fill="#fff216" stroke="none" /><path d="M 80.803312248108 91.48605970444005 l -36.4748428146593 -16.176990428118824 a60.90124280853356,60.90124280853356 0 0,0 0.43326212236415507,-0.9546356555587786 l 36.19097837533179 16.802448092519672" fill="#30ff37" stroke="none" /><path d="M 81.10775173730289 90.83032412892265 l -11.580713425188103 -5.620897364263652 a33.8727390486997,33.8727390486997 0 0,0 0.2591103029531214,-0.522350559628486 l 11.482243109281569 5.8194075123911" fill="#ffa10e" stroke="none" /><path d="M 81.26839172434947 90.50648371742162 l -15.824103900277116 -8.019940723924607 a38.74039778195601,38.74039778195601 0 0,0 0.3065851746183777,-0.592224973261575 l 15.683709292498625 8.291138419446519" fill="#ffe015" stroke="none" /><path d="M 81.6062741919709 89.86733742301443 l -16.831851422430894 -9.272263422291466 a40.21681792803255,40.21681792803255 0 0,0 0.33924295178497843,-0.6034753574796878 l 16.669750829353482 9.560622289705938" fill="#fff216" stroke="none" /><line stroke="#e1ed5e" stroke-width="0.3" x1="26.266209847984243" x2="21.928928074336255" y1="57.711370442889674" y2="55.22380399835377" /><path d="M 25.398753493254645 57.213857153982495 a86.0,86.0 0 0,1 29.58750427330803,-30.492523968695096" fill="none" id="id47" stroke="none" /><text fill="#e1ed5e" style="font-size:6.75px; font-family:Arial;" text-anchor="middle"><textPath startOffset="21.46611528233685" xlink:href="#id47">November</textPath></text><path d="M 81.96595687620814 89.24020034530311 l -34.21056019147084 -20.411328242281492 a60.83697715977465,60.83697715977465 0 0,0 0.5443003280163768,-0.8946866251239788 l 33.85414406516824 20.997182640612543" fill="#30ff37" stroke="none" /><path d="M 82.34701348167596 88.62581576622439 l -9.314250670999972 -6.001364302949671 a32.0802364171051,32.0802364171051 0 0,0 0.3030869925555728,-0.4616222832654748 l 9.209567043086478 6.160804650192813" fill="#ff890c" stroke="none" /><path d="M 82.54541684631803 88.32363383020206 l -20.30594501934548 -13.583804745268143 a45.43053733519283,45.43053733519283 0 0,0 0.44040694823657717,-0.6462428531740942 l 20.06911360544016 13.931325621712654" fill="#cdff1d" stroke="none" /><path d="M 82.95767976084542 87.72973835380427 l -15.325672355730767 -11.034296214939218 a39.884700847888276,39.884700847888276 0 0,0 0.40594532190013866,-0.5537089628612654 l 15.133464421316994 11.296467621471985" fill="#ffee16" stroke="none" /><path d="M 83.17141714833178 87.43820079747576 l -3.450243281958282 -2.575455324422741 a25.305478931872237,25.305478931872237 0 0,0 0.263567480312018,-0.3468239090578461 l 3.405399861422155 2.6344640093616136" fill="#ff2b04" stroke="none" /><path d="M 83.39014120810768 87.1503855733568 l -18.953076224911797 -14.662359550447992 a44.96255174170585,44.96255174170585 0 0,0 0.4788424391959502,-0.6080812705678145 l 18.697879705121874 14.986433214968855" fill="#d3ff1c" stroke="none" /><path d="M 83.84228863543731 86.58626213691792 l -9.898985298687146 -8.21789614328133 a33.86560247191644,33.86560247191644 0 0,0 0.3762136011696341,-0.4453182399065626 l 9.756061084030389 8.387073332817009" fill="#ffa10e" stroke="none" /><path d="M 84.07557802195018 86.31012108654704 l -13.528343953887697 -11.630022796654549 a38.84022198251452,38.84022198251452 0 0,0 0.4402042310610074,-0.5032295330984136 l 13.326147859248847 11.861167885955906" fill="#ffe115" stroke="none" /><path d="M 84.5562425177563 85.77008943001954 l -10.031943588483484 -9.243453885580525 a34.64116314312561,34.64116314312561 0 0,0 0.4078298825682516,-0.43504448360757686 l 9.871346383944775 9.414767786066152" fill="#ffab0f" stroke="none" /><path d="M 85.31137513191541 84.99185889309783 l -38.24684171823992 -39.078811158688794 a75.6806582165628,75.6806582165628 0 0,0 0.9388609333264488,-0.9031834740014915 l 37.56849754130104 39.731377719452595" fill="#43ffdc" stroke="none" /><path d="M 85.57189188830299 84.74124197986013 l -2.9829789499095303 -3.1547139530330868 a25.34170283887152,25.34170283887152 0 0,0 0.3195372915688901,-0.296975088081208 l 2.928233774545784 3.2055936271889425" fill="#ff2c04" stroke="none" /><path d="M 85.83668400450813 84.49514656593479 l -3.8809028691731973 -4.248498741221786 a26.7542287610174,26.7542287610174 0 0,0 0.3426949320027395,-0.3076748935904368 l 3.8071969495744864 4.314672643581502" fill="#ff4006" stroke="none" /><path d="M 86.10567301691215 84.25364557470407 l -8.500830951847762 -9.633938890329224 a33.848225769128234,33.848225769128234 0 0,0 0.4401981124930002,-0.3817354653696963 l 8.333739040707988 9.7788393491186" fill="#ffa10e" stroke="none" /><path d="M 86.37877921826538 84.01681056812374 l -12.2410667932243 -14.363711780276898 a39.87219998683365,39.87219998683365 0 0,0 0.526203795771905,-0.44068054614793045 l 11.992005460493285 14.57229348381864" fill="#ffee16" stroke="none" /><path d="M 86.93701828274178 83.55741782278169 l -13.449714256854607 -16.92936855574602 a42.62170976790041,42.62170976790041 0 0,0 0.5783714155854823,-0.4514280638398454 l 13.156310286109699 17.158375008809088" fill="#efff19" stroke="none" /><path d="M 87.22198572758235 83.33499621200491 l -7.804889896171735 -10.179087056222004 a33.82692946848582,33.82692946848582 0 0,0 0.4651264757413782,-0.3503236184452959 l 7.628517266671967 10.311927264173155" fill="#ffa10e" stroke="none" /><path d="M 87.51073957382395 83.11751280151077 l -6.618332971679242 -8.946400175588671 a32.128360500351775,32.128360500351775 0 0,0 0.4474328336286683,-0.32507898205717567 l 6.463354821696791 9.058998392462515" fill="#ff8a0c" stroke="none" /><path d="M 87.80319425747018 82.90503203632743 l -11.522807930905195 -16.150296773482847 a40.83953599467745,40.83953599467745 0 0,0 0.5757768991369637,-0.4033685133230309 l 11.24309989218457 16.346250129569817" fill="#fffa17" stroke="none" /><path d="M 88.09926311788651 82.69761687909137 l -5.841767119748314 -8.493296995829535 a31.30836247620055,31.30836247620055 0 0,0 0.4466589725565778,-0.3015861321128966 l 5.6947034527851965 8.592595040241097" fill="#ff7f0b" stroke="none" /><path d="M 88.39885842347998 82.49532879139004 l -5.907007995668191 -8.91293603381906 a31.692669086988438,31.692669086988438 0 0,0 0.4573297035364041,-0.29745996063339375 l 5.752711266347499 9.013294918611988" fill="#ff840c" stroke="none" /><path d="M 88.70189139769569 82.29822771554957 l -10.350286009055488 -16.21673259308775 a40.238264902661165,40.238264902661165 0 0,0 0.5870587479975039,-0.36761613413916555 l 10.069608108685742 16.392493068549847" fill="#fff216" stroke="none" /><line stroke="#e1ed5e" stroke-width="0.3" x1="56.762969772571076" x2="54.21961505331055" y1="26.818313649435495" y2="22.513508569990535" /><path d="M 56.25429882871897 25.957352633546506 a86.0,86.0 0 0,1 42.265352541879196,-11.944610805530505" fill="none" id="id48" stroke="none" /><text fill="#e1ed5e" style="font-size:6.75px; font-family:Arial;" text-anchor="middle"><textPath startOffset="22.20632615414155" xlink:href="#id48">December</textPath></text><path d="M 89.3179101791058 81.91981866633112 l -13.467485641999406 -22.794657843042568 a47.47583040621846,47.47583040621846 0 0,0 0.7071711847613068,-0.409639194955332 l 13.073117724772779 23.023101195387948" fill="#b6ff1f" stroke="none" /><path d="M 89.63071344664047 81.73862282372117 l -3.785383456040171 -6.666448524869761 a28.666202700424822,28.666202700424822 0 0,0 0.431188709087718,-0.2399560497692067 l 3.6700706578804074 6.730619972199152" fill="#ff5b08" stroke="none" /><path d="M 89.94658935756843 81.56283822128135 l -10.967238892665545 -20.113050677200178 a43.90884406670093,43.90884406670093 0 0,0 0.6666929729468487,-0.35612429710840976 l 10.619400873190392 20.298853700810337" fill="#dfff1b" stroke="none" /><path d="M 90.58718382345135 81.22770947309562 l -8.63310144143737 -17.217279650129367 a40.26045583699687,40.26045583699687 0 0,0 0.6221749867792045,-0.30529856393625376 l 8.33545518764774 17.363333374200447" fill="#fff316" stroke="none" /><path d="M 91.56875222667455 80.76684994638697 l -10.940673786843373 -24.957589468040748 a48.250314034252526,48.250314034252526 0 0,0 0.7635410973952548,-0.32690845032082155 l 10.50944893165781 25.142217446324356" fill="#adff20" stroke="none" /><path d="M 91.90106846888425 80.62456947434976 l -3.9560073364029993 -9.464130547462387 a31.257668402960054,31.257668402960054 0 0,0 0.49821170540611126,-0.2032330639860844 l 3.7925117614085075 9.530824497632048" fill="#ff7e0b" stroke="none" /><path d="M 92.23578459929587 80.48803036053334 l -7.271541498773748 -18.27384862910011 a40.66745686375472,40.66745686375472 0 0,0 0.6526484571302288,-0.25321746186439054 l 6.955909876643843 18.396308794855052" fill="#fff817" stroke="none" /><path d="M 92.57280143429618 80.3572730644239 l -3.627987558665278 -9.594945969210992 a31.2579375060442,31.2579375060442 0 0,0 0.5049164219974611,-0.18596497938663598 l 3.4622888108952474 9.65597421640395" fill="#ff7e0b" stroke="none" /><path d="M 92.91201910852362 80.23233633223022 l -6.4910836198932085 -18.10297739257754 a40.23153548307101,40.23153548307101 0 0,0 0.6538927173589821,-0.22813032956647925 l 6.178508898470941 18.21202857531623" fill="#fff216" stroke="none" /><path d="M 93.59665428221793 80.00007090966166 l -3.122010566656916 -9.751150836511862 a31.238744679633506,31.238744679633506 0 0,0 0.5135272191221136,-0.15955540670365342 l 2.9536979748240735 9.80344637809804" fill="#ff7e0b" stroke="none" /><path d="M 93.94186890950719 79.89281104454417 l -7.182783108226911 -23.839955759594872 a45.89851127676654,45.89851127676654 0 0,0 0.7584396383318975,-0.22140932821335224 l 6.771353252171592 23.960063416726925" fill="#c8ff1d" stroke="none" /><path d="M 94.63758080256005 79.69619591428918 l -6.1522436193223236 -23.29432752924642 a45.09306532160862,45.09306532160862 0 0,0 0.7521761887669618,-0.19174645841816132 l 5.750358541870362 23.396776983833444" fill="#d1ff1c" stroke="none" /><path d="M 95.33964822691252 79.52364482259891 l -4.1889344755197975 -18.405072044331614 a39.87574764074884,39.87574764074884 0 0,0 0.6705909718642155,-0.14656521291434949 l 3.871500779502061 18.474450755341834" fill="#ffee16" stroke="none" /><path d="M 96.04723909329186 79.375362276772 l -7.601772417808703 -39.664377854389656 a61.386257742801,61.386257742801 0 0,0 1.0394882262178728,-0.18995982909978887 l 6.917889070487936 39.78935316484018" fill="#31ff3d" stroke="none" /><path d="M 96.75951476605007 79.25152402106235 l -1.979614104171204 -12.67525469878354 a33.82891085324346,33.82891085324346 0 0,0 0.5761079942587527,-0.08490334270441868 l 1.7611371294838027 12.707452525648927" fill="#ffa10e" stroke="none" /><path d="M 97.11714578562143 79.19881850522333 l -2.672418315138353 -19.282785139081724 a40.4670907526286,40.4670907526286 0 0,0 0.6908026673787249,-0.08968601239506631 l 2.3401009192517708 19.32592947464093" fill="#fff517" stroke="none" /><path d="M 97.83486435360386 79.11191278185805 l -1.9859501647948525 -19.159400161447603 a40.26205110063638,40.26205110063638 0 0,0 0.6899666915679965,-0.06552065109839161 l 1.6558583461366199 19.190746357061172" fill="#fff316" stroke="none" /><path d="M 98.55514903715128 79.0497635885617 l -1.7311278454069599 -25.101230889719847 a46.16085443295138,46.16085443295138 0 0,0 0.7931708636856468,-0.04784623255318768 l 1.2987949328816901 25.127310391653342" fill="#c5ff1e" stroke="none" /><path d="M 99.63851952072746 79.00311137660856 l -0.11956267762988926 -6.944895698825474 a27.94592481253912,27.94592481253912 0 0,0 0.4810431569024233,-0.004140490322203767 l 1.7012609177588422e-15 6.945924812539118" fill="#ff5107" stroke="none" /></svg>