<?xml version="1.0" encoding="utf-8" ?>
<svg baseProfile="full" height="200mm" version="1.1" viewBox="0,0,200,200" width="200mm" xmlns="http://www.w3.org/2000/svg" xmlns:ev="http://www.w3.org/2001/xml-events" xmlns:xlink="http://www.w3.org/1999/xlink"><defs /><rect fill="#1a1a1a" height="200" width="200" x="0" y="0" /><text alignment-baseline="middle" fill="#e1ed5e" style="dominant-baseline: central; font-size:9.0px; font-family:Arial;" text-anchor="middle" x="100.0" y="100.0">2018</text><line stroke="#e1ed5e" stroke-width="0.3" x1="100.0" x2="100.0" y1="15.0" y2="10.0" /><path d="M 100.0 14.0 a86.0,86.0 0 0,1 42.46469731375804,11.215312516191453" fill="none" id="id25" stroke="none" /><text fill="#e1ed5e" style="font-size:6.75px; font-family:Arial;" text-anchor="middle"><textPath startOffset="22.20632615414155" xlink:href="#id25">January</textPath></text><path d="M 100.36148047927253 79.00311137660856 l 0.2432881586804186 -14.131591231380085 a35.13368528937066,35.13368528937066 0 0,0 0.6045894319535453,0.01561476131479132 l -0.4865042258288316 14.125309677922935" fill="#ffa80f" stroke="none" /><path d="M 102.16513564639614 79.11191278185805 l 5.848382708811453 -56.42211300251083 a77.72440758594863,77.72440758594863 0 0,0 1.3295807216597162,0.14939388591758176 l -6.818730133980894 56.31308316312264" fill="#45fff0" stroke="none" /><path d="M 103.2404852339499 79.25152402106235 l 2.695834265229951 -17.26113481688075 a38.47038344032897,38.47038344032897 0 0,0 0.6533934381811431,0.10781551579090184 l -2.992556909549969 17.212173038150226" fill="#ffd413" stroke="none" /><path d="M 103.95276090670814 79.375362276772 l 2.544585489431238 -13.277087866923019 a34.51872692005495,34.51872692005495 0 0,0 0.5825998248999464,0.11686404406033706 l -2.7727517237983097 13.231319866785475" fill="#ffa00e" stroke="none" /><path d="M 104.307194497241 79.44645832069477 l 3.981126549449766 -18.997574991591065 a40.41023503628588,40.41023503628588 0 0,0 0.6795794534157326,0.14852974683688566 l -4.307548727019026 18.92623174665831" fill="#ffed16" stroke="none" /><path d="M 104.66035177308747 79.52364482259891 l 2.7937958494191246 -12.275201291930713 a33.589116808007184,33.589116808007184 0 0,0 0.5626597937574237,0.13316339437354552 l -3.0046793301390715 12.2252919854163" fill="#ff940d" stroke="none" /><path d="M 105.36241919743992 79.69619591428918 l 4.242259978388551 -16.062529300763032 a37.613296399634486,37.613296399634486 0 0,0 0.624563611800321,0.1707168281321466 l -4.518121479412583 15.98712593180459" fill="#ffc912" stroke="none" /><path d="M 106.0581310904928 79.89281104454417 l 5.434354460580814 -18.03684838733562 a39.837730971403275,39.837730971403275 0 0,0 0.6548841642544599,0.2034756976466261 l -5.744023997545993 17.940632554806474" fill="#ffe515" stroke="none" /><path d="M 106.74666289553966 80.11325718540242 l 8.951227491936091 -26.385008672179943 a48.86203790542614,48.86203790542614 0 0,0 0.7941663264411624,0.2770690374307335 l -9.404075822440527 26.227018781577" fill="#acff21" stroke="none" /><path d="M 107.08798089147638 80.2323363322302 l 5.310015681130337 -14.809098058009036 a36.7323123483351,36.7323123483351 0 0,0 0.5933452173236906,0.21853405098658926 l -5.564143224226604 14.715500739216122" fill="#ffbe11" stroke="none" /><path d="M 107.76421540070413 80.48803036053334 l 6.917998602046642 -17.385372728938613 a39.71122362599629,39.71122362599629 0 0,0 0.6329517669525563,0.25819691821234486 l -7.216234238587585 17.26371492454269" fill="#ffe415" stroke="none" /><path d="M 108.43124777332544 80.76684994638697 l 7.732515625129923 -17.639219876866832 a40.259643707954005,40.259643707954005 0 0,0 0.6323023999542672,0.28369565568691646 l -8.03500014355097 17.50350389066338" fill="#ffeb16" stroke="none" /><path d="M 109.08828744355905 81.06846463323043 l 17.485255701109715 -36.42300474740885 a61.402592017876245,61.402592017876245 0 0,0 0.9489002566588929,0.46562123491394986 l -18.10962722477904 36.11662835236007" fill="#30ff3a" stroke="none" /><path d="M 110.05341064243156 81.56283822128135 l 7.672921444807214 -14.071532440566312 a37.027530961570235,37.027530961570235 0 0,0 0.5569573843761609,0.30994618140036917 l -7.91400291825541 13.937370861605762" fill="#ffc112" stroke="none" /><line stroke="#e1ed5e" stroke-width="0.3" x1="143.23703022742887" x2="145.7803849466894" y1="26.81831364943548" y2="22.513508569990506" /><path d="M 143.74570117128098 25.957352633546492 a86.0,86.0 0 0,1 28.547481713284135,27.462654790039103" fill="none" id="id26" stroke="none" /><text fill="#e1ed5e" style="font-size:6.75px; font-family:Arial;" text-anchor="middle"><textPath startOffset="19.985693538727396" xlink:href="#id26">February</textPath></text><path d="M 110.68208982089419 81.91981866633111 l 10.489768193896522 -17.75466357929626 a41.621913479977366,41.621913479977366 0 0,0 0.6137011090480216,0.36974805145285583 l -10.79383136916218 17.571468918384788" fill="#fffc17" stroke="none" /><path d="M 111.2981086023043 82.29822771554956 l 23.277087200728957 -36.470325394868446 a64.26554544851973,64.26554544851973 0 0,0 0.9273609227076406,0.6031813403513328 l -23.901415149220878 36.06424513035759" fill="#34ff5c" stroke="none" /><path d="M 112.19680574252982 82.90503203632743 l 9.657551355840212 -13.535964622272282 a37.62800759099231,37.62800759099231 0 0,0 0.5240231931552807,0.3807251354884768 l -9.889119865349281 13.36772025196713" fill="#ffc912" stroke="none" /><path d="M 112.77801427241765 83.33499621200491 l 11.881683725776528 -15.496015270951926 a40.5269274960747,40.5269274960747 0 0,0 0.5499454750378778,0.4292411663576405 l -12.146661755973836 15.289195715371058" fill="#ffee16" stroke="none" /><path d="M 113.34407831869373 83.78471172551755 l 28.99291313482523 -35.23124139189265 a66.62706852360046,66.62706852360046 0 0,0 0.8792947559916331,0.7363840709795407 l -29.595065427775978 34.72695616351929" fill="#37ff78" stroke="none" /><path d="M 114.68862486808459 84.99185889309783 l 13.36067119798873 -13.651300950439923 a40.101454198574714,40.101454198574714 0 0,0 0.48916937747165473,0.48706872870727075 l -13.593676375627703 13.419296371082535" fill="#ffe915" stroke="none" /><path d="M 115.19652480421416 85.50635884689758 l 19.96432256801178 -19.040914346766 a48.58859537490997,48.58859537490997 0 0,0 0.5720327883920272,0.6102046948238693 l -20.28912267837427 18.69444023506408" fill="#afff20" stroke="none" /><path d="M 115.68641384162765 86.03803664274999 l 5.829513251500281 -5.188658875750084 a28.80419154546565,28.80419154546565 0 0,0 0.32645866432776094,0.37319868741294165 l -5.91796377940589 5.087544632134195" fill="#ff5207" stroke="none" /><path d="M 115.9244219780498 86.31012108654704 l 13.275364055850885 -11.41254148546879 a38.50661000802051,38.50661000802051 0 0,0 0.42777063930771125,0.506345511135102 l -13.469845308645713 11.182337024704582" fill="#ffd513" stroke="none" /><path d="M 116.38621287248628 86.86637796730983 l 15.141171444189732 -12.135715825713953 a40.404398246398436,40.404398246398436 0 0,0 0.43029899018397166,0.5464360199870321 l -15.347824514967668 11.873287411773884" fill="#ffed16" stroke="none" /><path d="M 117.04232023915458 87.72973835380427 l 34.89865896105983 -25.126606620719162 a64.00305521184198,64.00305521184198 0 0,0 0.6360299960336544,0.8996193236350887 l -35.32600157689737 24.522160796752278" fill="#34ff59" stroke="none" /><path d="M 117.45458315368197 88.32363383020206 l 13.326786797084408 -8.91504776364489 a37.033755734793175,37.033755734793175 0 0,0 0.34988674967217664,0.5329015241008438 l -13.478270182114509 8.684328175566373" fill="#ffc112" stroke="none" /><line stroke="#e1ed5e" stroke-width="0.3" x1="172.23445277983987" x2="176.4835382374775" y1="55.19839476539836" y2="52.563006222186495" /><path d="M 173.08426987136738 54.67131705675599 a86.0,86.0 0 0,1 12.851231095245387,41.99856678651699" fill="none" id="id27" stroke="none" /><text fill="#e1ed5e" style="font-size:6.75px; font-family:Arial;" text-anchor="middle"><textPath startOffset="22.20632615414155" xlink:href="#id27">March</textPath></text><path d="M 117.84615892207809 88.93136811851018 l 16.685040432621964 -10.348477298831604 a40.63368423507577,40.63368423507577 0 0,0 0.36354415834270754,0.597571008815179 l -16.860700389250898 10.059738516809343" fill="#fff016" stroke="none" /><path d="M 118.21658344932153 89.55222093294921 l 36.978477736143766 -21.208310916143596 a63.628632016501484,63.628632016501484 0 0,0 0.5367298074637495,0.9547824375566926 l -37.338065184899946 20.56864496865211" fill="#33ff54" stroke="none" /><path d="M 118.56541770881063 90.18545643968196 l 9.464043284026456 -5.003133596274127 a31.70511378099706,31.70511378099706 0 0,0 0.2509090871898528,0.4846764936923577 l -9.548761804376426 4.839484380321425" fill="#ff7a0b" stroke="none" /><path d="M 118.73160827565052 90.50648371742162 l 15.04611378661969 -7.625641328859181 a37.86819331630724,37.86819331630724 0 0,0 0.2896736230385444,0.5839643479216311 l -15.175147422611643 7.3655173924385995" fill="#ffcc13" stroke="none" /><path d="M 119.04729006885535 91.15688171328212 l 15.894780788995313 -7.379497353713763 a38.52429848877503,38.52429848877503 0 0,0 0.27406861594454396,0.6038738660620819 l -16.019451721903202 7.104801478809618" fill="#ffd513" stroke="none" /><path d="M 119.34039704204932 91.81776055985345 l 56.23831788451769 -23.792447571874725 a82.06413808398895,82.06413808398895 0 0,0 0.5391938733317599,1.3057007327472503 l -56.63953344473565 22.82087226867417" fill="#4be4ff" stroke="none" /><path d="M 119.7369772167798 92.82701384747503 l 16.318254524501484 -5.930523831081592 a38.3625039564413,38.3625039564413 0 0,0 0.220213412589071,0.6225729716463612 l -16.417921017900365 5.648753233008616" fill="#ffd313" stroke="none" /><path d="M 120.08093135843002 93.85539295169968 l 18.624234016233018 -5.698869119300004 a40.47663220195736,40.47663220195736 0 0,0 0.1981313854828471,0.668000535460358 l -18.719571298827567 5.377439197093116" fill="#ffee16" stroke="none" /><path d="M 120.28053869075195 94.5502522615342 l 26.656249001958436 -7.163016472567766 a48.60189152650027,48.60189152650027 0 0,0 0.2101538108879942,0.8098083604861658 l -26.775599144716733 6.70311168653275" fill="#afff20" stroke="none" /><path d="M 120.45610955862082 95.25157060432595 l 19.668825074982276 -4.565678869521738 a41.19178306563957,41.19178306563957 0 0,0 0.15438212079334523,0.6920647762247502 l -19.74450158277766 4.226435923747024" fill="#fff617" stroke="none" /><path d="M 120.6074358757038 95.95851677861258 l 19.613806266617154 -3.8466148535992772 a40.987442109892925,40.987442109892925 0 0,0 0.12982143051076558,0.6935112728751937 l -19.677113421037777 3.508425503261521" fill="#fff417" stroke="none" /><path d="M 120.78858239683441 97.02765380044208 l 55.93009161326254 -7.9968702085680246 a77.49889451131432,77.49889451131432 0 0,0 0.17745032936660435,1.3222110673175895 l -56.05945794168698 7.032940799185771" fill="#45ffed" stroke="none" /><path d="M 120.87857604477298 97.74499172005257 l 17.13412101449906 -1.8505852446287714 a38.233768267188,38.233768267188 0 0,0 0.06503905230969287,0.6549343809087532 l -17.16343719249098 1.5553753330155833" fill="#ffd113" stroke="none" /><path d="M 120.94382443527127 98.46500227214037 l 19.257785472979368 -1.4114259330234262 a40.30943874087764,40.30943874087764 0 0,0 0.04476153754195161,0.6924411738485311 l -19.279227601525733 1.07972569492186" fill="#ffeb16" stroke="none" /><line stroke="#e1ed5e" stroke-width="0.3" x1="184.98032266829074" x2="189.97916517819016" y1="98.17113171792111" y2="98.06355123074" /><path d="M 185.9800911702706 98.14961562048488 a86.0,86.0 0 0,1 -9.607161424134198,41.387399972396054" fill="none" id="id28" stroke="none" /><text fill="#e1ed5e" style="font-size:6.75px; font-family:Arial;" text-anchor="middle"><textPath startOffset="21.466115282336823" xlink:href="#id28">April</textPath></text><path d="M 120.99513854157772 99.54816195383933 l 32.81233819862957 -0.7061569397254239 a53.81993594882183,53.81993594882183 0 0,0 0.01196082180943602,0.9263788304289219 l -32.81963202755672 0.14124185123603938" fill="#75ff27" stroke="none" /><path d="M 120.99824983174949 100.27111621757518 l 15.998124524363293 0.20655773905423686 a36.99945794071154,36.99945794071154 0 0,0 -0.013703784026264642,0.6367609957151645 l -15.992198677652022 -0.4819085505595162" fill="#ffc111" stroke="none" /><path d="M 120.9764740272857 100.99374915477107 l 13.612991211776574 0.6449081238825992 a34.628258737643485,34.628258737643485 0 0,0 -0.03333159388088443,0.5951579996414544 l -13.59987326700816 -0.879137839859477" fill="#ffa20e" stroke="none" /><path d="M 120.95626037817324 101.35467743843564 l 6.573428050060888 0.42492670504668134 a27.58714801974186,27.58714801974186 0 0,0 -0.034711780348470576,0.4736146642169937 l -6.565139711048079 -0.5380145057604453" fill="#ff4006" stroke="none" /><path d="M 120.92983693683757 101.71520430193887 l 20.030289395429953 1.6414862019136722 a41.09743690662435,41.09743690662435 0 0,0 -0.06384859385981159,0.7045639128255061 l -19.99906620529307 -1.986031503287749" fill="#fff517" stroke="none" /><path d="M 120.81339534386255 102.79330883721812 l 22.0458742874606 2.958716463795142 a43.24352886148348,43.24352886148348 0 0,0 -0.10536172340899007,0.7368996481251294 l -21.991678513035005 -3.3377615839006807" fill="#eeff19" stroke="none" /><path d="M 120.70491114924044 103.5080841355445 l 21.271410337648653 3.604067489509609 a42.57457300206811,42.57457300206811 0 0,0 -0.12864324394624516,0.7214996298559901 l -21.206220651363218 -3.9696858700988176" fill="#f6ff19" stroke="none" /><path d="M 120.5718875245553 104.21870165774334 l 34.22855858849584 7.019291578718362 a55.940874020452874,55.940874020452874 0 0,0 -0.2015628574929712,0.9416345664767211 l -34.102661692278424 -7.6074399646112525" fill="#5eff29" stroke="none" /><path d="M 120.32669344350535 105.2749913415812 l 17.155084275990067 4.45192531050136 a38.72333364484809,38.72333364484809 0 0,0 -0.17298621046106563,0.6437460415754672 l -17.075909989187224 -4.7465622852523754" fill="#ffd714" stroke="none" /><path d="M 120.13307415673323 105.97154293290107 l 21.290225829462905 6.314758322651808 a43.20697837489445,43.20697837489445 0 0,0 -0.2176257882366817,0.7112136677013124 l -21.17837326872009 -6.680298962905177" fill="#efff19" stroke="none" /><path d="M 119.9155931802556 106.66101706037122 l 27.57479196343271 9.222731055116641 a50.076243222631184,50.076243222631184 0 0,0 -0.28044882642372976,0.8151155647730838 l -27.411952306065746 -9.696019322979026" fill="#9eff22" stroke="none" /><path d="M 119.79798401119884 107.00284435728193 l 27.174872585344897 9.612160664262216 a49.8247694295257,49.8247694295257 0 0,0 -0.2929595345502321,0.8060988179687109 l -27.005388789789436 -10.078507279237058" fill="#a1ff22" stroke="none" /><path d="M 119.41010516605496 108.01547362559984 l 21.213580981523243 8.760225532383618 a43.95119973852937,43.95119973852937 0 0,0 -0.29478492183774324,0.6967844771662419 l -21.05964507849319 -9.124084535216024" fill="#e6ff1a" stroke="none" /><path d="M 119.12269723197855 108.67885076344098 l 18.199515136963978 8.259863863584952 a40.98618778720788,40.98618778720788 0 0,0 -0.29710181619915926,0.6399308806746159 l -18.054638703924986 -8.571914811538399" fill="#fff417" stroke="none" /><path d="M 118.81262510543309 109.33194174019688 l 11.795256364792673 5.850998709113841 a34.16671024232074,34.16671024232074 0 0,0 -0.265884249372722,0.5246148484576543 l -11.692793445633681 -6.053167769274189" fill="#ff9c0e" stroke="none" /><path d="M 118.64920377521936 109.65438752849418 l 17.128977747641763 8.867391398362363 a40.288144257314066,40.288144257314066 0 0,0 -0.32412290097842333,0.6131183797467314 l -16.973802338438446 -9.160924793195228" fill="#ffeb16" stroke="none" /><line stroke="#e1ed5e" stroke-width="0.3" x1="174.80103733775053" x2="179.2010983576182" y1="140.37084112569926" y2="142.7455964860345" /><path d="M 175.68104954172406 140.8457921977663 a86.0,86.0 0 0,1 -30.038265399797805,32.042727171017184" fill="none" id="id29" stroke="none" /><text fill="#e1ed5e" style="font-size:6.75px; font-family:Arial;" text-anchor="middle"><textPath startOffset="22.206326154141568" xlink:href="#id29">May</textPath></text><path d="M 118.30583269289576 110.29060199501023 l 10.604878659558532 5.961519878483684 a33.1656553726265,33.1656553726265 0 0,0 -0.2840369959554718,0.49524244399801226 l -10.500689667450677 -6.143182168340011" fill="#ff8e0d" stroke="none" /><path d="M 118.12598468904814 110.60418214915192 l 10.244427851933896 5.993262204474311 a32.86876126076598,32.86876126076598 0 0,0 -0.2899011036953861,0.48589092487379654 l -10.139745872540283 -6.168715223234211" fill="#ff8a0c" stroke="none" /><path d="M 117.75023020441432 111.22182372390056 l 53.25069061324299 33.665471171701654 a84.0,84.0 0 0,0 -0.7831805464917987,1.2155136003141882 l -52.663305203374144 -34.5771063719373" fill="#4dd2ff" stroke="none" /><path d="M 117.55443506779139 111.5257021239791 l 10.687984508918676 7.0174018861775 a33.785810185319235,33.785810185319235 0 0,0 -0.3233734727824761,0.48339946592085226 l -10.565607930725479 -7.200338266304159" fill="#ff960d" stroke="none" /><path d="M 116.93607887273984 112.41649034213515 l 16.325678184558427 11.968982137515457 a41.243129738109445,41.243129738109445 0 0,0 -0.4246839110523222,0.5689334997074602 l -16.117233006811013 -12.248228516732231" fill="#fff717" stroke="none" /><path d="M 116.498646956653 112.99209946851258 l 10.509216079228215 8.275635026081147 a34.37646282411049,34.37646282411049 0 0,0 -0.3700905948306472,0.4617449210815993 l -10.365207572342715 -8.455307780740997" fill="#ff9e0e" stroke="none" /><path d="M 116.27256486870786 113.27417163493432 l 14.73737879346948 12.021859930006793 a40.018818309214346,40.018818309214346 0 0,0 -0.4400240584348142,0.5300373245865383 l -14.528258735141122 -12.2737585117071" fill="#ffe815" stroke="none" /><path d="M 116.0416608686014 113.55231037782055 l 20.505388803319104 17.323355465293247 a47.84342777202997,47.84342777202997 0 0,0 -0.5368886724899132,0.62452281937737 l -20.20415762125841 -17.673755383832145" fill="#b8ff1f" stroke="none" /><path d="M 115.56566222782051 114.09645910891815 l 13.258657255332057 12.007206446051665 a38.887565481430784,38.887565481430784 0 0,0 -0.4536023261418072,0.4922957374794905 l -13.050008521194526 -12.23365343833249" fill="#ffd914" stroke="none" /><path d="M 115.32070863581623 114.36230785411682 l 5.865265542189844 5.498358552824603 a29.039482984360312,29.039482984360312 0 0,0 -0.3450076550447588,0.36173914699200166 l -5.769751335766121 -5.598504816399112" fill="#ff5507" stroke="none" /><path d="M 115.07121518719521 114.62390073753431 l 14.979444086390151 14.534853407768397 a41.872127556207715,41.872127556207715 0 0,0 -0.5063723496080664,0.5129525167185046 l -14.72703111172655 -14.790546418467565" fill="#ffff18" stroke="none" /><path d="M 114.55890576462653 115.13401014063108 l 12.83246685296818 13.339373619272441 a39.50975672684729,39.50975672684729 0 0,0 -0.4941808230514057,0.4672788134068429 l -12.600950195525966 -13.558287069425205" fill="#ffe115" stroke="none" /><path d="M 114.29624159901734 115.38237550388516 l 16.37788480793426 17.62216819925158 a45.05776221564835,45.05776221564835 0 0,0 -0.5726636683510219,0.5231146833141344 l -16.072121590116378 -17.901475649152296" fill="#d8ff1c" stroke="none" /><path d="M 114.0293411484842 115.62618273729858 l 5.315281441818894 5.920275102798239 a28.956247488518507,28.956247488518507 0 0,0 -0.3737529672805884,0.3297935381127576 l -5.212586121631719 -6.010891782683286" fill="#ff5407" stroke="none" /><path d="M 113.75828350139079 115.86535959552629 l 16.68601306093777 19.241469868000983 a46.46874937155289,46.46874937155289 0 0,0 -0.6088170101144209,0.5188470640224724 l -16.352330574246302 -19.525841322246404" fill="#c8ff1d" stroke="none" /><path d="M 113.20401910651253 116.32954008644616 l 13.783793961580571 17.046553342832432 a42.92208833221271,42.92208833221271 0 0,0 -0.5785131190169912,0.4596058098090915 l -13.48832334984623 -17.28129306664665" fill="#f2ff19" stroke="none" /><path d="M 112.34349029814194 116.9893568818739 l 11.96711552912311 16.471321454474865 a41.359672996981644,41.359672996981644 0 0,0 -0.5795724520056248,0.41350955590299965 l -11.681815749268601 -16.674875272222085" fill="#fff917" stroke="none" /><path d="M 112.04921762599082 117.19931262002967 l 5.805189643455336 8.286452664028177 a31.117584916849513,31.117584916849513 0 0,0 -0.4413408778403065,0.30355828013954494 l -5.661691880992145 -8.385151733532815" fill="#ff720a" stroke="none" /><path d="M 111.7513745106137 117.40417183066458 l 7.90410623716722 11.706241086541779 a35.12483542504707,35.12483542504707 0 0,0 -0.5040000769600709,0.3340237687249362 l -7.701431461467185 -11.840562876358032" fill="#ffa80f" stroke="none" /><path d="M 111.1453310114006 117.79835938074945 l 11.670196594328116 18.636535139008654 a42.988950191807064,42.988950191807064 0 0,0 -0.6305471824833592,0.38733357977287153 l -11.34767021191245 -18.834657185609903" fill="#f1ff19" stroke="none" /><line stroke="#e1ed5e" stroke-width="0.3" x1="143.8653032363475" x2="146.44561519142675" y1="172.8068346515853" y2="177.08958963109032" /><path d="M 144.38136562736335 173.6633856474863 a86.0,86.0 0 0,1 -40.68145358897372,12.25698825130547" fill="none" id="id30" stroke="none" /><text fill="#e1ed5e" style="font-size:6.75px; font-family:Arial;" text-anchor="middle"><textPath startOffset="21.466115282336833" xlink:href="#id30">June</textPath></text><path d="M 110.5260780823613 118.17145234162733 l 7.920796054315961 13.673883746876427 a36.80234497969079,36.80234497969079 0 0,0 -0.5508982154551076,0.31281438429565495 l -7.6842490719396555 -13.808201296966711" fill="#ffbe11" stroke="none" /><path d="M 110.21172684928248 118.3499491758327 l 9.065385070868857 16.290031819788076 a39.64259486157547,39.64259486157547 0 0,0 -0.5991264422570063,0.32669150615693915 l -8.7836358167432 -16.443663977704787" fill="#ffe315" stroke="none" /><path d="M 109.57404056367764 118.69057910512821 l 7.747292955463096 15.124376262206225 a37.993154664704115,37.993154664704115 0 0,0 -0.584635212604935,0.29314823242803945 l -7.485803835175401 -15.255492335543565" fill="#ffce13" stroke="none" /><path d="M 108.92500713936063 119.00905698771935 l 9.118837432103513 19.42188927156666 a42.456070912218024,42.456070912218024 0 0,0 -0.6641989556491216,0.304901163636947 l -8.783170480686971 -19.575977505537683" fill="#f8ff18" stroke="none" /><path d="M 108.59647513512805 119.15986991738527 l 4.3864392520203825 9.77651934637643 a31.71546451824361,31.71546451824361 0 0,0 -0.5000159331245735,0.2191922909680554 l -4.217502644238055 -9.85057619063894" fill="#ff7a0b" stroke="none" /><path d="M 108.2653958097858 119.30500536409082 l 11.745212744266928 27.43261184927294 a50.8412167191782,50.8412167191782 0 0,0 -0.8074760385581325,0.3375250496055452 l -11.271265246211334 -27.63072194189846" fill="#96ff23" stroke="none" /><path d="M 107.59598834532513 119.57807347666477 l 3.8542932753297356 9.934143328624424 a31.65564546735228,31.65564546735228 0 0,0 -0.5097007815984207,0.1927252222383375 l -3.68272227297104 -9.999016800969393" fill="#ff790b" stroke="none" /><path d="M 107.2578585660854 119.70592522655815 l 4.638703973697265 12.594617657742438 a34.42169767579021,34.42169767579021 0 0,0 -0.557763352808968,0.19999409404772633 l -4.421221060258562 -12.672599292830125" fill="#ff9f0e" stroke="none" /><path d="M 106.91757812671514 119.82793768551818 l 7.678131524508089 22.00792107012344 a44.30884582162807,44.30884582162807 0 0,0 -0.7222980487314844,0.2450427146531174 l -7.298163742839378 -22.136826771674684" fill="#e1ff1b" stroke="none" /><path d="M 106.2309692047433 120.05430185196036 l 8.20749595368854 26.415730185075436 a48.66141339556819,48.66141339556819 0 0,0 -0.8020444264435621,0.2416494064166919 l -7.751576552804733 -26.553094960597853" fill="#aeff20" stroke="none" /><path d="M 105.88484417918355 120.15858648285463 l 6.512351002998643 22.308116732305162 a44.23925101478985,44.23925101478985 0 0,0 -0.7328312654496228,0.20710543566972078 l -6.127388569444414 -22.416910961313405" fill="#e2ff1b" stroke="none" /><path d="M 105.53697534728816 120.25689768951611 l 4.41246842650352 16.14291483484372 a37.73510014848755,37.73510014848755 0 0,0 -0.6280370544457943,0.16587029421909588 l -4.133940929246228 -16.2164764783664" fill="#ffcb12" stroke="none" /><path d="M 105.18746579009965 120.34920634021253 l 4.690314767169827 18.398999985665668 a39.987423550541465,39.987423550541465 0 0,0 -0.6684501756666449,0.16428878986688775 l -4.372911306759971 -18.477010033846586" fill="#ffe715" stroke="none" /><path d="M 104.48393922423573 120.51570834832081 l 4.063612378288533 18.592554944319883 a40.03144883918546,40.03144883918546 0 0,0 -0.6744508766979442,0.14133773877509748 l -3.7429700401612105 -18.65974866382152" fill="#ffe815" stroke="none" /><path d="M 103.7750983002368 120.6578951692458 l 2.872209926007878 15.717156703393925 a36.9774404927103,36.9774404927103 0 0,0 -0.6271215935147544,0.10903312752207274 l -2.601239361021074 -15.764268409437003" fill="#ffc111" stroke="none" /><path d="M 103.41894727170886 120.7198165907248 l 6.0144481780584735 36.44930829293069 a57.942193517976925,57.942193517976925 0 0,0 -0.985470167070305,0.15391017287877662 l -5.386142147379652 -36.54743677315657" fill="#4aff2c" stroke="none" /><path d="M 102.34483914955558 120.86867818915974 l 1.7571657224494792 15.638482491974125 a36.73689187952731,36.73689187952731 0 0,0 -0.6290185153286837,0.06520034101535731 l -1.487714610515193 -15.666412201445242" fill="#ffbe11" stroke="none" /><path d="M 101.98527174616119 120.90594882070398 l 1.4889272944359877 15.679182396776358 a36.749719525105775,36.749719525105775 0 0,0 -0.6302676337319741,0.054382143466288786 l -1.218815342962472 -15.70248879252131" fill="#ffbe11" stroke="none" /><path d="M 101.62511606390274 120.93702456842531 l 1.2558945463746691 16.180195099204695 a37.22886270075452,37.22886270075452 0 0,0 -0.6393387744638269,0.044092545102080376 l -0.9771930111319119 -16.19941598882306" fill="#ffc412" stroke="none" /><line stroke="#e1ed5e" stroke-width="0.3" x1="102.19456741930631" x2="102.32365962044197" y1="184.97166512339345" y2="189.96999836594603" /><path d="M 102.22038585953345 185.97133177190398 a86.0,86.0 0 0,1 -42.740103519485714,-10.115201625700543" fill="none" id="id31" stroke="none" /><text fill="#e1ed5e" style="font-size:6.75px; font-family:Arial;" text-anchor="middle"><textPath startOffset="22.20632615414155" xlink:href="#id31">July</textPath></text><path d="M 100.54218724476979 120.99299961872073 l 0.5295636135600004 20.50422403845676 a41.51106143133589,41.51106143133589 0 0,0 -0.7144652817441217,0.012300167758223176 l -0.17653864192321075 -20.51030168349414" fill="#fffa17" stroke="none" /><path d="M 100.18074693466247 120.99922214144158 l 0.11822135254998173 13.734985042456278 a34.7354938172858,34.7354938172858 0 0,0 -0.5979365744248649,0.0 l 0.11822135254997226 -13.734985042456278" fill="#ffa30f" stroke="none" /><path d="M 99.81925306533755 120.99922214144158 l -0.08248347416942484 9.582949776251269 a30.583304750328317,30.583304750328317 0 0,0 -0.5263828168126528,-0.009062157556538202 l 0.24742598087474554 -9.58011014141557" fill="#ff6b09" stroke="none" /><path d="M 99.45781275523022 120.99299961872073 l -0.48223805400101943 18.67182118619307 a39.67804754116166,39.67804754116166 0 0,0 -0.6826129077098895,-0.023510568743509923 l 0.803571313385552 -18.66075381902347" fill="#ffe315" stroke="none" /><path d="M 98.73552117531835 120.96189622390904 l -0.810605561214467 13.437812734411862 a34.462239503923314,34.462239503923314 0 0,0 -0.5918269958128666,-0.040815854673278494 l 1.0417953178062638 -13.421868535222298" fill="#ffa00e" stroke="none" /><path d="M 98.37488393609728 120.93702456842531 l -2.8521875716012532 36.74588085540424 a57.8564069570429,57.8564069570429 0 0,0 -0.9922530343160381,-0.08561576698381182 l 3.484284923658833 -36.69134083614176" fill="#4bff2c" stroke="none" /><path d="M 98.01472825383883 120.90594882070398 l -1.6443172891549938 17.31552023472063 a38.39341888032464,38.39341888032464 0 0,0 -0.6573819968681961,-0.0681403318482009 l 1.9421318826287832 -17.284650534416667" fill="#ffd313" stroke="none" /><path d="M 97.65516085044442 120.86867818915974 l -1.243977729350781 11.071194761151668 a32.14086325337821,32.14086325337821 0 0,0 -0.5492606867187021,-0.0665078199517344 l 1.4343658391208725 -11.048141412474585" fill="#ff800b" stroke="none" /><path d="M 96.93821686468263 120.77559828337769 l -0.3177709302960993 2.1562210327096434 a23.179510841000955,23.179510841000955 0 0,0 -0.39423285578586287,-0.06157106426557834 l 0.3548396496904793 -2.150431661096959" fill="#ff0000" stroke="none" /><path d="M 93.76903079525671 120.05430185196036 l -3.9821757552104105 12.816586312407862 a34.42097643425344,34.42097643425344 0 0,0 -0.5643051174972007,-0.18067267845433715 l 4.202202217798551 -12.74614078729382" fill="#ff9f0e" stroke="none" /><path d="M 93.42475214034765 119.94407469862007 l -5.287261429389309 16.037347815577018 a37.8864341523159,37.8864341523159 0 0,0 -0.6176034819723101,-0.20952463331099574 l 5.562534644298845 -15.943960195367898" fill="#ffcd13" stroke="none" /><path d="M 93.08242187328487 119.8279376855182 l -4.910313179148747 14.074489936953269 a35.90645640327441,35.90645640327441 0 0,0 -0.5818221314826563,-0.20862071610976493 l 5.15185487126113 -13.987881679803547" fill="#ffb310" stroke="none" /><path d="M 92.7421414339146 119.70592522655815 l -4.025082562330984 10.928564573392949 a32.64623601290994,32.64623601290994 0 0,0 -0.5256506940977589,-0.19875611436582785 l 4.212603477189026 -10.857660208920489" fill="#ff870c" stroke="none" /><path d="M 92.40401165467489 119.57807347666478 l -4.871090411977622 12.554859441808878 a34.466700316159034,34.466700316159034 0 0,0 -0.5512684864085355,-0.21936110762690847 l 5.086479974428016 -12.469151489775902" fill="#ffa00e" stroke="none" /><path d="M 92.06813273071674 119.44442032107085 l -5.659902000356438 13.874855659422169 a35.98486270285578,35.98486270285578 0 0,0 -0.571522797022271,-0.23889657550718144 l 5.897896256876171 -13.775374040895013" fill="#ffb410" stroke="none" /><path d="M 91.40352486487194 119.15986991738527 l -11.517010758374802 25.66917538862874 a49.13446466419264,49.13446466419264 0 0,0 -0.7686782930010532,-0.35286250302732347 l 11.957157047143275 -25.467125815267345" fill="#a9ff21" stroke="none" /><path d="M 90.7491055286396 118.85261126421891 l -16.90316265737208 34.44734514071648 a59.371037190376036,59.371037190376036 0 0,0 -0.9135961268995959,-0.4580960639719406 l 17.493612691954432 -34.151281235835235" fill="#3bff2e" stroke="none" /><path d="M 90.10565033884886 118.52300852407294 l -5.493472181068236 10.284216297329229 a32.659474321530226,32.659474321530226 0 0,0 -0.4935891488578858,-0.2691441590453659 l 5.669684141794762 -10.188131486524098" fill="#ff870c" stroke="none" /><line stroke="#e1ed5e" stroke-width="0.3" x1="58.666819895761336" x2="56.23545636021788" y1="174.27360380694188" y2="178.64263932499728" /><path d="M 58.180547188652646 175.14741091055294 a86.0,86.0 0 0,1 -31.652253787137756,-30.449443065178592" fill="none" id="id32" stroke="none" /><text fill="#e1ed5e" style="font-size:6.75px; font-family:Arial;" text-anchor="middle"><textPath startOffset="22.20632615414155" xlink:href="#id32">August</textPath></text><path d="M 89.7882731507175 118.34994917583269 l -8.420336491391634 15.130912620454824 a38.31607875230708,38.31607875230708 0 0,0 -0.573557457263422,-0.32568089316430177 l 8.679542715576263 -14.983728561495889" fill="#ffd213" stroke="none" /><path d="M 89.4739219176387 118.17145234162733 l -5.815713005609822 10.039822133859204 a32.6026094583567,32.6026094583567 0 0,0 -0.483189502464503,-0.28547687495961604 l 5.987670379102707 -9.938226686605839" fill="#ff860c" stroke="none" /><path d="M 89.1626897886671 117.98757091392108 l -7.065339005755563 11.72692152560335 a34.69086205225625,34.69086205225625 0 0,0 -0.5088336706844705,-0.31256719980726866 l 7.2661518763723425 -11.603565858967704" fill="#ffa30f" stroke="none" /><path d="M 87.95078237400918 117.19931262002967 l -16.182013650127846 23.098554630616515 a49.202850774283434,49.202850774283434 0 0,0 -0.6894787797524269,-0.4919248025563526 l 16.577219757729157 -22.81658556621594" fill="#a8ff21" stroke="none" /><path d="M 87.65650970185807 116.9893568818739 l -6.23868748346012 8.586816659704315 a31.61388910172221,31.61388910172221 0 0,0 -0.4374986341181537,-0.3236510304054531 l 6.385571087996838 -8.478155680559093" fill="#ff790b" stroke="none" /><path d="M 87.36589467227662 116.77436683061367 l -9.85080352879358 13.078962671436194 a37.37368604571718,37.37368604571718 0 0,0 -0.5105446112771486,-0.3914638371882528 l 10.074476868564217 -12.907459492420575" fill="#ffc612" stroke="none" /><path d="M 87.07902340077011 116.55440617244103 l -9.028872805534716 11.567827443556974 a35.67430325100426,35.67430325100426 0 0,0 -0.480825916082169,-0.38199718774511293 l 9.226656214334243 -11.41069634180673" fill="#ffb010" stroke="none" /><path d="M 86.79598089348748 116.32954008644616 l -18.65490453729339 23.070703623892086 a50.6692235994978,50.6692235994978 0 0,0 -0.6734901842889639,-0.5542365706915036 l 19.049264850127045 -22.7461719343434" fill="#97ff23" stroke="none" /><path d="M 86.24171649860922 115.8653595955263 l -10.08484546558042 11.629335865958303 a36.39303611208335,36.39303611208335 0 0,0 -0.4697433685298523,-0.41449390660265395 l 10.28353118701686 -11.45401881758336" fill="#ffb911" stroke="none" /><path d="M 85.97065885151581 115.62618273729859 l -9.041086168695236 10.070156760779811 a34.53326628336455,34.53326628336455 0 0,0 -0.4389021109243331,-0.40092667206076693 l 9.213087829086426 -9.913037322132467" fill="#ffa00e" stroke="none" /><path d="M 85.70375840098266 115.38237550388516 l -12.621737181922626 13.580653313597358 a39.54029109570966,39.54029109570966 0 0,0 -0.49456274136185147,-0.46763994100750766 l 12.853635757675292 -13.361378735843921" fill="#ffe215" stroke="none" /><path d="M 85.44109423537348 115.13401014063109 l -9.535917077454622 9.912603878586722 a34.75476027278786,34.75476027278786 0 0,0 -0.42756637960202853,-0.41846369323453214 l 9.705133409432444 -9.74699008242962" fill="#ffa30f" stroke="none" /><path d="M 84.9287848128048 114.62390073753433 l -9.638472005619393 9.352401655802584 a34.43009900687883,34.43009900687883 0 0,0 -0.40905162559952996,-0.4288889940742586 l 9.79803018259788 -9.185105545145825" fill="#ff9f0e" stroke="none" /><path d="M 84.67929136418377 114.36230785411682 l -22.37953812903398 20.979565885792162 a51.6754936655497,51.6754936655497 0 0,0 -0.602766561522392,-0.6541840546908381 l 22.7373510985521 -20.59123057629998" fill="#8cff24" stroke="none" /><path d="M 83.72743513129214 113.27417163493432 l -14.287996322132583 11.655280960902303 a39.438883186864814,39.438883186864814 0 0,0 -0.42459166938623033,-0.5297433915129958 l 14.486505903573676 -11.407609735811047" fill="#ffe015" stroke="none" /><path d="M 83.50135304334701 112.99209946851258 l -14.914855168301251 11.744919593354291 a39.98409968752166,39.98409968752166 0 0,0 -0.42115287002633106,-0.5443968564872315 l 15.114814855545651 -11.486444742753807" fill="#ffe715" stroke="none" /><path d="M 83.28015986056508 112.70617746262583 l -21.996022506936704 16.715791724937837 a48.62684743355938,48.62684743355938 0 0,0 -0.5007146616021063,-0.6707891148365774 l 22.280498435233895 -16.334689730591954" fill="#afff20" stroke="none" /><path d="M 83.06392112726016 112.41649034213515 l -16.170212545443814 11.855004302320825 a41.05035911830194,41.05035911830194 0 0,0 -0.4128888274296958,-0.5734664690224828 l 16.371881165249118 -11.574904227847203" fill="#fff517" stroke="none" /><path d="M 82.85270091963577 112.12312394758628 l -14.283377317287108 10.098334017274047 a38.492604652035844,38.492604652035844 0 0,0 -0.3778490763779664,-0.5443197758382372 l 14.45508730082721 -9.850972979248798" fill="#ffd413" stroke="none" /><path d="M 82.6465618267979 111.8261652097733 l -8.218223323576938 5.600623103352395 a30.94515830653231,30.94515830653231 0 0,0 -0.29618479629458744,-0.44275608357952384 l 8.313411225282255 -5.458330105567048" fill="#ff700a" stroke="none" /><path d="M 82.24976979558568 111.22182372390057 l -16.635199822613778 10.516893463996249 a40.68082623446832,40.68082623446832 0 0,0 -0.36910170881855686,-0.5951094791581368 l 16.81376617110029 -10.228987653472847" fill="#fff016" stroke="none" /><path d="M 82.05923443525364 110.91462005526583 l -13.8564416363856 8.42984070179799 a37.219222826025,37.219222826025 0 0,0 -0.3282719932870824,-0.5502027429189267 l 13.999494505370913 -8.190075864992954" fill="#ffc412" stroke="none" /><line stroke="#e1ed5e" stroke-width="0.3" x1="26.63291911575756" x2="22.317208475507996" y1="142.92168965132927" y2="145.44649492493687" /><path d="M 25.769776987707644 143.4266507060508 a86.0,86.0 0 0,1 -11.730757126820373,-40.83630448921669" fill="none" id="id33" stroke="none" /><text fill="#e1ed5e" style="font-size:6.75px; font-family:Arial;" text-anchor="middle"><textPath startOffset="21.46611528233685" xlink:href="#id33">September</textPath></text><path d="M 81.69416730710424 110.29060199501025 l -30.138593702182273 16.94237447056112 a55.57425173515607,55.57425173515607 0 0,0 -0.4615933585567242,-0.8379260246348275 l 30.425763470190514 -16.421077927528472" fill="#62ff29" stroke="none" /><path d="M 81.35079622478065 109.6543875284942 l -11.958570511294779 6.190756205703201 a34.465989420464496,34.465989420464496 0 0,0 -0.2682132303916555,-0.5292101489585045 l 12.063362411472701 -5.983991845042011" fill="#ffa00e" stroke="none" /><path d="M 81.18737489456691 109.33194174019688 l -16.830271793759 8.348601801759138 a39.78715520498342,39.78715520498342 0 0,0 -0.29906061322244604,-0.6161534420659006 l 16.971485663596162 -8.057659403727952" fill="#ffe515" stroke="none" /><path d="M 80.87730276802145 108.67885076344099 l -13.031887633935245 5.914532169223389 a35.31124683891284,35.31124683891284 0 0,0 -0.24643704921414702,-0.555650488496942 l 13.131765767880673 -5.689333344233751" fill="#ffab0f" stroke="none" /><path d="M 80.73074385275274 108.34839909993369 l -12.39799399857684 5.3714269584551815 a34.5115684788542,34.5115684788542 0 0,0 -0.23147240751243497,-0.5471323955155893 l 12.48861738728158 -5.157220037273434" fill="#ffa00e" stroke="none" /><path d="M 80.58989483394504 108.01547362559985 l -37.95865835546467 15.675166224419876 a62.067877718602425,62.067877718602425 0 0,0 -0.3992956199226341,-0.9910189826525166 l 38.22285658964469 -15.019447873924554" fill="#31ff42" stroke="none" /><path d="M 80.32549172779594 107.34259656027581 l -10.855427407100967 4.051284171219293 a32.586768644743486,32.586768644743486 0 0,0 -0.1916035876124516,-0.5272107826430279 l 10.923555255718643 -3.8638255915701474" fill="#ff860c" stroke="none" /><path d="M 80.20201598880116 107.00284435728193 l -17.90107722487654 6.3318799309356475 a39.98792430127051,39.98792430127051 0 0,0 -0.22394983568464316,-0.6509030510939579 l 18.00741789150441 -6.022804176752392" fill="#ffe715" stroke="none" /><path d="M 80.0844068197444 106.66101706037122 l -9.375633114978903 3.1357967380339087 a30.88613764262632,30.88613764262632 0 0,0 -0.16429623385047973,-0.5056518141415192 l 9.428221599845632 -2.973946023914586" fill="#ff6f0a" stroke="none" /><path d="M 79.97269907076064 106.31721596034903 l -11.021829084099874 3.4766179850356553 a32.55714449909593,32.55714449909593 0 0,0 -0.1639844881739838,-0.5359107954315682 l 11.080040344779988 -3.2863802170520393" fill="#ff860c" stroke="none" /><path d="M 79.76711848015287 105.62410040840567 l -12.771620150437478 3.5501060011456174 a34.25584904434381,34.25584904434381 0 0,0 -0.15302890930455929,-0.5694774996738321 l 12.83083713608381 -3.3297375682962467" fill="#ff9d0e" stroke="none" /><path d="M 79.67330655649465 105.27499134158121 l -15.197410873663342 3.9438884143077613 a36.700813771504066,36.700813771504066 0 0,0 -0.1534245812048606,-0.6128549362441565 l 15.263046769163264 -3.681705638666213" fill="#ffbd11" stroke="none" /><path d="M 79.58551787078972 104.9243191809786 l -16.679214939050695 4.023309409867918 a38.15759976193009,38.15759976193009 0 0,0 -0.1485228861899309,-0.6398327065011509 l 16.74599839117118 -3.7356080460181924" fill="#ffd013" stroke="none" /><path d="M 79.50377843672027 104.57218783832718 l -20.130880330056034 4.490689463701022 a41.62567901239696,41.62567901239696 0 0,0 -0.1499831912486137,-0.7006715375381406 l 20.205197560029088 -4.143504106746718" fill="#fffc17" stroke="none" /><path d="M 79.35854240842038 103.8639653848113 l -15.120949440428348 2.830557142782941 a36.38360054468881,36.38360054468881 0 0,0 -0.1099366140509684,-0.6165829149841705 l 15.167432496818504 -2.569855477065557" fill="#ffb911" stroke="none" /><path d="M 79.29508885075956 103.50808413554451 l -15.230076097580524 2.5804693367649585 a36.44713694948283,36.44713694948283 0 0,0 -0.09948028326181585,-0.6194638188326832 l 15.27223813520363 -2.317926288239062" fill="#ffba11" stroke="none" /><path d="M 79.23777060512086 103.15116336523772 l -28.742938673841223 4.362426290339628 a50.07210495899538,50.07210495899538 0 0,0 -0.12199936989635511,-0.8532633089071017 l 28.813772094754178 -3.8670175094521255" fill="#9eff22" stroke="none" /><path d="M 79.1416061653843 102.43462659150553 l -14.226074732548277 1.6604912205237934 a35.322654551076944,35.322654551076944 0 0,0 -0.0652925787879144,-0.6045281888785855 l 14.252549612837242 -1.4153667097604257" fill="#ffab0f" stroke="none" /><path d="M 79.10278846688536 102.07522291339032 l -23.292136523450257 2.3130538415942925 a44.406705062890836,44.406705062890836 0 0,0 -0.06898984193722171,-0.7612971569464436 l 23.328500961664552 -1.9117752960992827" fill="#e0ff1b" stroke="none" /><path d="M 79.04373962182676 101.35467743843564 l -15.395469325999713 0.9952107185966256 a36.427602540323875,36.427602540323875 0 0,0 -0.03506356075040801,-0.6260834315663786 l 15.410319237637653 -0.7300555706948094" fill="#ffba11" stroke="none" /><path d="M 79.0235259727143 100.99374915477108 l -17.577093281467143 0.8327053235481535 a38.59680670977728,38.59680670977728 0 0,0 -0.025727284413873407,-0.6639068941035424 l 17.588822698732216 -0.5300211824306142" fill="#ffd614" stroke="none" /><line stroke="#e1ed5e" stroke-width="0.3" x1="15.007084014347285" x2="10.007500721073583" y1="101.09737516637583" y2="101.16192664675087" /><path d="M 14.007167355692545 101.11028546245083 a86.0,86.0 0 0,1 10.666146001902534,-42.60595125391555" fill="none" id="id34" stroke="none" /><text fill="#e1ed5e" style="font-size:6.75px; font-family:Arial;" text-anchor="middle"><textPath startOffset="22.20632615414155" xlink:href="#id34">October</textPath></text><path d="M 79.00175016825051 100.2711162175752 l -27.061085512600844 0.3493957451902664 a48.063341007847725,48.063341007847725 0 0,0 -0.0035605842800690325,-0.8273543914381696 l 27.063090394170416 0.11646812445157853" fill="#b5ff20" stroke="none" /><path d="M 79.00486145842228 99.54816195383935 l -21.429545823245626 -0.4611869598150204 a42.4345078693794,42.4345078693794 0 0,0 0.022001899395530333,-0.7301359272636083 l 21.41843222939445 0.829993034503623" fill="#f8ff18" stroke="none" /><path d="M 79.01574976396665 99.18683210126434 l -11.479821402345006 -0.4448585078143861 a32.48843760141967,32.48843760141967 0 0,0 0.026464759118638725,-0.5586292371925737 l 11.47046303499287 0.6423988516299689" fill="#ff850c" stroke="none" /><path d="M 79.03285615573316 98.82574320788736 l -10.864390933689586 -0.608456017701257 a31.88141576659551,31.88141576659551 0 0,0 0.035402655886647184,-0.5476634169800213 l 10.852307686798525 0.7953784989342901" fill="#ff7d0b" stroke="none" /><path d="M 79.05617556472873 98.46500227214037 l -36.31204842491778 -2.6613530875625786 a57.40944466852321,57.40944466852321 0 0,0 0.080716356546389,-0.9849439968999533 l 36.2608575845519 3.2860110016703103" fill="#4fff2b" stroke="none" /><path d="M 79.16333360222342 97.38593545837743 l -18.049329438298386 -2.2643791086348997 a39.19081377838405,39.19081377838405 0 0,0 0.0897357679354322,-0.6686357017311727 l 18.00767767130512 2.5747331524307318" fill="#ffdd14" stroke="none" /><path d="M 79.26566170972629 96.67025291283419 l -13.141638713943733 -2.1104282478532834 a34.31001786163947,34.31001786163947 0 0,0 0.09866276713677648,-0.5823132366202902 l 13.103364085286735 2.3363272727894016" fill="#ff9e0e" stroke="none" /><path d="M 79.3925641242962 95.95851677861259 l -9.162946674140523 -1.7970161579232262 a30.337497460507286,30.337497460507286 0 0,0 0.10491097265519539,-0.5115831610403136 l 9.130656405570333 1.9544749751269423" fill="#ff6709" stroke="none" /><path d="M 79.46518482838121 95.60439243477599 l -61.49999540385667 -13.164464486247603 a83.89318373149881,83.89318373149881 0 0,0 0.31442211675896675,-1.4094926974489996 l 61.26427890009567 14.221135353246561" fill="#4dd3ff" stroke="none" /><path d="M 79.71946130924805 94.55025226153421 l -9.164503034588273 -2.462667804267209 a30.48961793673233,30.48961793673233 0 0,0 0.14056182745966045,-0.505675680497092 l 9.120754436562253 2.6200547881832437" fill="#ff6909" stroke="none" /><path d="M 79.81627453868168 94.20196356495316 l -22.25706573408064 -6.393630269632265 a44.15719074317834,44.15719074317834 0 0,0 0.2161475623101074,-0.7287421274006362 l 22.143712274658828 6.77580178377944" fill="#e3ff1b" stroke="none" /><path d="M 79.91906864156998 93.8553929516997 l -13.4804075314081 -4.124898673919213 a35.09738189462656,35.09738189462656 0 0,0 0.18174513405398887,-0.5761817412876704 l 13.407406913585907 4.356330581633298" fill="#ffa80f" stroke="none" /><path d="M 80.14247586403 93.16781622104843 l -37.97456312301055 -13.065535884800353 a61.159378385882896,61.159378385882896 0 0,0 0.3510749830478717,-0.9925362533419958 l 37.744035059152864 13.71726976456896" fill="#30ff37" stroke="none" /><path d="M 80.52162464483688 92.15188598940014 l -14.789216458716501 -5.958785308276799 a36.94453027884191,36.94453027884191 0 0,0 0.24274018888839227,-0.5878146213723191 l 14.684454582941907 6.21247450010243" fill="#ffc011" stroke="none" /><line stroke="#e1ed5e" stroke-width="0.3" x1="26.266209847984243" x2="21.928928074336255" y1="57.711370442889674" y2="55.22380399835377" /><path d="M 25.398753493254645 57.213857153982495 a86.0,86.0 0 0,1 29.58750427330803,-30.492523968695096" fill="none" id="id35" stroke="none" /><text fill="#e1ed5e" style="font-size:6.75px; font-family:Arial;" text-anchor="middle"><textPath startOffset="21.46611528233685" xlink:href="#id35">November</textPath></text><path d="M 82.15384107792192 88.93136811851018 l -8.88359558147634 -5.509827056047602 a31.453538379074338,31.453538379074338 0 0,0 0.2893312197740789,-0.4576525066398745 l 8.787436765456299 5.661927210401691" fill="#ff770a" stroke="none" /><path d="M 82.34701348167596 88.62581576622439 l -22.75665588289817 -14.662583936606952 a48.07132716862415,48.07132716862415 0 0,0 0.4541672882412025,-0.6917279386179915 l 22.500891959299047 15.05212993920261" fill="#b5ff20" stroke="none" /><path d="M 83.17141714833178 87.43820079747577 l -12.441537434699029 -9.287062161023547 a36.52550731286204,36.52550731286204 0 0,0 0.3804289164211041,-0.5005998606338417 l 12.279832578053817 9.499846797538414" fill="#ffbb11" stroke="none" /><path d="M 83.6137871275137 86.86637796730984 l -21.947807123650243 -17.59126440328428 a49.127545588678885,49.127545588678885 0 0,0 0.5345580117904236,-0.6553049156042658 l 21.641750619783426 17.96645348849663" fill="#a9ff21" stroke="none" /><path d="M 84.07557802195018 86.31012108654704 l -12.148744086666081 -10.444010823515876 a37.020903375434884,37.020903375434884 0 0,0 0.4195845819548561,-0.4796577097033231 l 11.967167641133381 10.651584089422142" fill="#ffc112" stroke="none" /><path d="M 85.57189188830299 84.74124197986013 l -39.12416683316088 -41.376609450465715 a77.94492286416212,77.94492286416212 0 0,0 0.9828190986975329,-0.9134232407445461 l 38.40613985066849 42.04393727728491" fill="#45fff2" stroke="none" /><path d="M 87.51073957382395 83.11751280151077 l -35.078623819693874 -47.417893243333175 a79.9827639969486,79.9827639969486 0 0,0 1.113873044851321,-0.80927613788331 l 34.25720545848878 48.014688616033155" fill="#48f8ff" stroke="none" /><line stroke="#e1ed5e" stroke-width="0.3" x1="56.76296977257108" x2="54.21961505331056" y1="26.818313649435495" y2="22.513508569990535" /><path d="M 56.25429882871898 25.957352633546506 a86.0,86.0 0 0,1 42.26535254187918,-11.944610805530505" fill="none" id="id36" stroke="none" /><text fill="#e1ed5e" style="font-size:6.75px; font-family:Arial;" text-anchor="middle"><textPath startOffset="22.20632615414155" xlink:href="#id36">December</textPath></text><path d="M 90.91171255644093 81.06846463323043 l -6.793977240437731 -14.152327510231709 a36.69861461086446,36.69861461086446 0 0,0 0.5718374436092092,-0.26848534727751583 l 6.549361585528914 14.267177840149232" fill="#ffbd11" stroke="none" /><path d="M 91.90106846888425 80.62456947434976 l -22.12447500428659 -52.92935576935095 a78.36731731895632,78.36731731895632 0 0,0 1.2490859620828836,-0.5095335266143198 l 21.210105172615325 53.30235018214884" fill="#46fff6" stroke="none" /><path d="M 94.63758080256005 79.69619591428918 l -4.007283331822896 -15.172833881414908 a36.69309426768723,36.69309426768723 0 0,0 0.6120602270768685,-0.15602777997133002 l 3.745514216061029 15.2395646575551" fill="#ffbd11" stroke="none" /><path d="M 95.33964822691252 79.52364482259891 l -3.7681592908753756 -16.556296983965808 a37.97969358565359,37.97969358565359 0 0,0 0.6387050059139722,-0.13959617577463776 l 3.4826115608078823 16.618706657836317" fill="#ffce13" stroke="none" /><path d="M 95.692805502759 79.44645832069477 l -3.2769617981120183 -15.63736463308768 a36.97703512215038,36.97703512215038 0 0,0 0.6240906345525506,-0.12518671015137753 l 3.0073047540923312 15.691455299316267" fill="#ffc111" stroke="none" /><path d="M 96.40284397218896 79.31037775812273 l -2.771965569645823 -15.943406418865239 a37.18258327203711,37.18258327203711 0 0,0 0.6315210234973555,-0.10420637995799502 l 2.497115340009582 15.988759061762861" fill="#ffc312" stroke="none" /><path d="M 96.75951476605007 79.25152402106235 l -2.8227849890063887 -18.07398655130239 a39.29308899423002,39.29308899423002 0 0,0 0.6691632132911581,-0.09861726306427841 l 2.5112527952865817 18.119898298527637" fill="#ffdf14" stroke="none" /><path d="M 97.47563105711357 79.15227682838746 l -2.0948008652078975 -17.300097381000587 a38.42646148984294,38.42646148984294 0 0,0 0.6573364015930073,-0.0738594037874417 l 1.7966977601051721 17.333592738258627" fill="#ffd313" stroke="none" /><path d="M 97.83486435360386 79.11191278185805 l -1.4991100735597436 -14.462623632026158 a35.54011049938376,35.54011049938376 0 0,0 0.609047273769747,-0.057836377342226415 l 1.2499376726997604 14.486285553883565" fill="#ffae10" stroke="none" /><path d="M 98.55514903715128 79.0497635885617 l -1.8328081961260985 -26.57558875827391 a47.638714378375724,47.638714378375724 0 0,0 0.8185645758194042,-0.049378050616315616 l 1.3750815714670712 26.60320007827053" fill="#baff1f" stroke="none" /><path d="M 99.27714615592234 79.0124445844662 l -0.5246322164468284 -15.232329198583004 a36.24136121796666,36.24136121796666 0 0,0 0.6236506023073538,-0.01610705510910043 l 0.2623549789445956 15.239103045834463" fill="#ffb711" stroke="none" /><path d="M 99.63851952072746 79.00311137660856 l -0.2593960451802722 -15.067230963506479 a36.0694636671616,36.0694636671616 0 0,0 0.6208765244528043,-0.005344080263679552 l 3.6909540889713575e-15 15.0694636671616" fill="#ffb510" stroke="none" /></svg>