<?xml version="1.0" encoding="utf-8" ?>
<svg baseProfile="full" height="200mm" version="1.1" viewBox="0,0,200,200" width="200mm" xmlns="http://www.w3.org/2000/svg" xmlns:ev="http://www.w3.org/2001/xml-events" xmlns:xlink="http://www.w3.org/1999/xlink"><defs /><rect fill="#1a1a1a" height="200" width="200" x="0" y="0" /><text alignment-baseline="middle" fill="#e1ed5e" style="dominant-baseline: central; font-size:9.0px; font-family:Arial;" text-anchor="middle" x="100.0" y="100.0">2026</text><line stroke="#e1ed5e" stroke-width="0.3" x1="100.0" x2="100.0" y1="15.0" y2="10.0" /><path d="M 100.0 14.0 a86.0,86.0 0 0,1 42.46469731375804,11.215312516191453" fill="none" id="id121" stroke="none" /><text fill="#e1ed5e" style="font-size:6.75px; font-family:Arial;" text-anchor="middle"><textPath startOffset="22.20632615414155" xlink:href="#id121">January</textPath></text><path d="M 100.0 79.0 l 0.0 -6.8782414594773655 a27.878241459477366,27.878241459477366 0 0,0 0.4798780992403404,0.004130462303084473 l -0.11839761996781205 6.87722237378284" fill="#ff2603" stroke="none" /><path d="M 100.36148047927253 79.00311137660856 l 0.14548258589726587 -8.45047472238432 a29.451726936931628,29.451726936931628 0 0,0 0.5068128410724253,0.013089480441373737 l -0.290922062164559 8.446718449800585" fill="#ff3e05" stroke="none" /><path d="M 100.72285384407766 79.0124445844662 l 0.7148428843803986 -20.754962807836705 a41.76726947636675,41.76726947636675 0 0,0 0.718315822735957,0.03093219034448134 l -1.071999539505687 20.739582890968027" fill="#ffea16" stroke="none" /><path d="M 101.08401301168833 79.027996857942 l 0.3289737206539225 -6.364534215749997 a27.373030636387472,27.373030636387472 0 0,0 0.47034420437545665,0.028372446862234744 l -0.43847997386899107 6.357928499507458" fill="#ff1f03" stroke="none" /><path d="M 101.44485096284872 79.0497635885617 l 0.5975894569111799 -8.665004710650635 a29.685586899836366,29.685586899836366 0 0,0 0.5094750834875138,0.039545071919260696 l -0.7466547297610349 8.65343437654291" fill="#ff4106" stroke="none" /><path d="M 101.80526077348638 79.07773832637324 l 0.9789871367524441 -11.346075509463699 a32.388232754926406,32.388232754926406 0 0,0 0.5550338641167014,0.05270715326263235 l -1.1741461279593897 11.32754281168589" fill="#ff6909" stroke="none" /><path d="M 102.16513564639614 79.11191278185805 l 1.4584584534463743 -14.070438233434604 a35.14582387637169,35.14582387637169 0 0,0 0.6012166747131242,0.06755369858380646 l -1.7004418316692238 14.043248581380196" fill="#ff900d" stroke="none" /><path d="M 103.2404852339499 79.25152402106235 l 1.8693802608142938 -11.969439339097814 a33.11453922573469,33.11453922573469 0 0,0 0.562428047332769,0.09280544687937496 l -2.075137514285938 11.935487629278814" fill="#ff730a" stroke="none" /><path d="M 103.59715602781102 79.31037775812273 l 2.0708006233764102 -11.910543302725106 a33.08922069398462,33.08922069398462 0 0,0 0.5603184913182756,0.10239462282275105 l -2.275514235797587 11.873133198551617" fill="#ff730a" stroke="none" /><path d="M 103.95276090670814 79.375362276772 l 2.356803854079962 -12.297284561941247 a33.521091486127105,33.521091486127105 0 0,0 0.5657619435242384,0.11348652345893384 l -2.5681322070713257 12.254894082405105" fill="#ff790b" stroke="none" /><path d="M 104.307194497241 79.44645832069477 l 3.2981639873058066 -15.738539557871364 a37.080407740534525,37.080407740534525 0 0,0 0.6235817040439814,0.13629080774622213 l -3.568588415503316 15.679435252029272" fill="#ffab0f" stroke="none" /><path d="M 104.66035177308747 79.52364482259891 l 3.5675239507082335 -15.674758274779652 a37.07561115826238,37.07561115826238 0 0,0 0.6210629427078411,0.14698553280004606 l -3.836810580378598 15.611026829838737" fill="#ffab0f" stroke="none" /><path d="M 105.01212808612495 79.60689891045804 l 3.034338556140354 -12.345967990436225 a33.71338413225038,33.71338413225038 0 0,0 0.5623570854226014,0.14335734247704726 l -3.2464045302479807 12.29190765179031" fill="#ff7c0b" stroke="none" /><path d="M 106.0581310904928 79.89281104454417 l 18.174393271478365 -60.321566866367476 a84.0,84.0 0 0,0 1.380858509157127,0.4290394604699177 l -19.21003715334621 59.99978727101504" fill="#4dd2ff" stroke="none" /><path d="M 106.40334571778207 80.00007090966166 l 1.3300460133449958 -4.154207366926436 a25.36193320043313,25.36193320043313 0 0,0 0.41462796804043023,0.1366963221210979 l -1.4013568036278437 4.130697320546102" fill="#ff0000" stroke="none" /><path d="M 106.74666289553966 80.11325718540242 l 4.107902151425417 -12.108622419379811 a33.78646147222886,33.78646147222886 0 0,0 0.5491393961664082,0.19158395268776646 l -4.315723551655099 12.036117613519838" fill="#ff7d0b" stroke="none" /><path d="M 107.08798089147638 80.2323363322302 l 4.666300687443004 -13.013841878860214 a34.82513806634881,34.82513806634881 0 0,0 0.5625382066436075,0.20718756896205662 l -4.889621219859189 12.931591042091833" fill="#ff8c0c" stroke="none" /><path d="M 108.09893153111575 80.62456947434976 l 7.324331494221397 -17.522320749088763 a39.99151274309632,39.99151274309632 0 0,0 0.6328490111936425,0.27095291955094336 l -7.624864263205355 17.393648301575027" fill="#ffd313" stroke="none" /><path d="M 108.43124777332544 80.76684994638697 l 3.8732197057522737 -8.835491233815628 a30.647162081765835,30.647162081765835 0 0,0 0.4813324796577728,0.21595985311742877 l -4.024734303876826 8.767511050181666" fill="#ff5007" stroke="none" /><path d="M 109.08828744355905 81.06846463323043 l 6.962093367126081 -14.502525104430887 a37.08707488815879,37.08707488815879 0 0,0 0.5731343535115906,0.2812345381729686 l -7.210698987648104 14.380535406123087" fill="#ffab0f" stroke="none" /><path d="M 109.41281617654863 81.2277094730956 l 6.330821039449796 -12.625765721685083 a35.1240665210986,35.1240665210986 0 0,0 0.5381333350665894,0.2756527954332383 l -6.547214862105141 12.514920400939344" fill="#ff900d" stroke="none" /><path d="M 109.73455568895987 81.39251694778311 l 7.433399759903645 -14.208851895482795 a37.035800702749476,37.035800702749476 0 0,0 0.5623356433267583,0.3003802257485486 l -7.676880449758715 14.078792943232493" fill="#ffab0f" stroke="none" /><path d="M 110.36928655335952 81.73862282372117 l 18.50252763931304 -32.5848489379966 a58.47153465439601,58.47153465439601 0 0,0 0.8709565284600886,0.504514237638105 l -19.06068090023846 32.261530542968444" fill="#4eff2b" stroke="none" /><line stroke="#e1ed5e" stroke-width="0.3" x1="143.23703022742887" x2="145.7803849466894" y1="26.81831364943548" y2="22.513508569990506" /><path d="M 143.74570117128098 25.957352633546492 a86.0,86.0 0 0,1 28.547481713284135,27.462654790039103" fill="none" id="id122" stroke="none" /><text fill="#e1ed5e" style="font-size:6.75px; font-family:Arial;" text-anchor="middle"><textPath startOffset="19.985693538727396" xlink:href="#id122">February</textPath></text><path d="M 110.68208982089419 81.91981866633111 l 5.9582886381494715 -10.084818684576804 a32.71344404504032,32.71344404504032 0 0,0 0.48234872481005786,0.29060970966134125 l -6.130999429177167 9.980762365456847" fill="#ff6e0a" stroke="none" /><path d="M 110.99172775467656 82.1063720568725 l 3.3358211526857273 -5.430442231029361 a27.37317860939521,27.37317860939521 0 0,0 0.3993627459339018,0.2500809148662006 l -3.4288030509918923 5.372216974840216" fill="#ff1f03" stroke="none" /><path d="M 111.2981086023043 82.29822771554956 l 7.143937527638397 -11.193055384757294 a34.27856664874054,34.27856664874054 0 0,0 0.49464457159141073,0.32173058879695626 l -7.335549125014087 11.06842587180081" fill="#ff840c" stroke="none" /><path d="M 111.90073688211348 82.69761687909136 l 7.5088679472158475 -10.917081128170144 a34.25012295066632,34.25012295066632 0 0,0 0.48287594624398184,0.33828545891271394 l -7.69567503304348 10.786210826493495" fill="#ff840c" stroke="none" /><path d="M 112.19680574252982 82.90503203632743 l 8.213363888606823 -11.511800344587275 a35.141460092236244,35.141460092236244 0 0,0 0.4893945044829005,0.3555659204789353 l -8.410303709443513 11.368715189291665" fill="#ff900d" stroke="none" /><path d="M 112.48926042617603 83.11751280151076 l 10.829869552661151 -14.639388390117103 a39.20982611021732,39.20982611021732 0 0,0 0.5391422904662015,0.40607079558727327 l -11.080257996885736 14.450801005023983" fill="#ffc812" stroke="none" /><path d="M 112.77801427241765 83.33499621200491 l 7.534889825531371 -9.826954705760231 a33.38319843465166,33.38319843465166 0 0,0 0.4530059408823042,0.35357832231980796 l -7.702928321573106 9.6957979942172" fill="#ff770b" stroke="none" /><line stroke="#e1ed5e" stroke-width="0.3" x1="172.23445277983987" x2="176.4835382374775" y1="55.19839476539836" y2="52.563006222186495" /><path d="M 173.08426987136738 54.67131705675599 a86.0,86.0 0 0,1 12.851231095245387,41.99856678651699" fill="none" id="id123" stroke="none" /><text fill="#e1ed5e" style="font-size:6.75px; font-family:Arial;" text-anchor="middle"><textPath startOffset="22.20632615414155" xlink:href="#id123">March</textPath></text><line stroke="#e1ed5e" stroke-width="0.3" x1="184.98032266829074" x2="189.97916517819016" y1="98.17113171792111" y2="98.06355123074" /><path d="M 185.9800911702706 98.14961562048488 a86.0,86.0 0 0,1 -9.607161424134198,41.387399972396054" fill="none" id="id124" stroke="none" /><text fill="#e1ed5e" style="font-size:6.75px; font-family:Arial;" text-anchor="middle"><textPath startOffset="21.466115282336823" xlink:href="#id124">April</textPath></text><line stroke="#e1ed5e" stroke-width="0.3" x1="174.80103733775053" x2="179.2010983576182" y1="140.37084112569926" y2="142.7455964860345" /><path d="M 175.68104954172406 140.8457921977663 a86.0,86.0 0 0,1 -30.038265399797805,32.042727171017184" fill="none" id="id125" stroke="none" /><text fill="#e1ed5e" style="font-size:6.75px; font-family:Arial;" text-anchor="middle"><textPath startOffset="22.206326154141568" xlink:href="#id125">May</textPath></text><line stroke="#e1ed5e" stroke-width="0.3" x1="143.8653032363475" x2="146.44561519142675" y1="172.8068346515853" y2="177.08958963109032" /><path d="M 144.38136562736335 173.6633856474863 a86.0,86.0 0 0,1 -40.68145358897372,12.25698825130547" fill="none" id="id126" stroke="none" /><text fill="#e1ed5e" style="font-size:6.75px; font-family:Arial;" text-anchor="middle"><textPath startOffset="21.466115282336833" xlink:href="#id126">June</textPath></text><line stroke="#e1ed5e" stroke-width="0.3" x1="102.19456741930631" x2="102.32365962044197" y1="184.97166512339345" y2="189.96999836594603" /><path d="M 102.22038585953345 185.97133177190398 a86.0,86.0 0 0,1 -42.740103519485714,-10.115201625700543" fill="none" id="id127" stroke="none" /><text fill="#e1ed5e" style="font-size:6.75px; font-family:Arial;" text-anchor="middle"><textPath startOffset="22.20632615414155" xlink:href="#id127">July</textPath></text><line stroke="#e1ed5e" stroke-width="0.3" x1="58.666819895761336" x2="56.23545636021788" y1="174.27360380694188" y2="178.64263932499728" /><path d="M 58.180547188652646 175.14741091055294 a86.0,86.0 0 0,1 -31.652253787137756,-30.449443065178592" fill="none" id="id128" stroke="none" /><text fill="#e1ed5e" style="font-size:6.75px; font-family:Arial;" text-anchor="middle"><textPath startOffset="22.20632615414155" xlink:href="#id128">August</textPath></text><line stroke="#e1ed5e" stroke-width="0.3" x1="26.63291911575756" x2="22.317208475507996" y1="142.92168965132927" y2="145.44649492493687" /><path d="M 25.769776987707644 143.4266507060508 a86.0,86.0 0 0,1 -11.730757126820373,-40.83630448921669" fill="none" id="id129" stroke="none" /><text fill="#e1ed5e" style="font-size:6.75px; font-family:Arial;" text-anchor="middle"><textPath startOffset="21.46611528233685" xlink:href="#id129">September</textPath></text><line stroke="#e1ed5e" stroke-width="0.3" x1="15.007084014347285" x2="10.007500721073583" y1="101.09737516637583" y2="101.16192664675087" /><path d="M 14.007167355692545 101.11028546245083 a86.0,86.0 0 0,1 10.666146001902534,-42.60595125391555" fill="none" id="id130" stroke="none" /><text fill="#e1ed5e" style="font-size:6.75px; font-family:Arial;" text-anchor="middle"><textPath startOffset="22.20632615414155" xlink:href="#id130">October</textPath></text><line stroke="#e1ed5e" stroke-width="0.3" x1="26.266209847984243" x2="21.928928074336255" y1="57.711370442889674" y2="55.22380399835377" /><path d="M 25.398753493254645 57.213857153982495 a86.0,86.0 0 0,1 29.58750427330803,-30.492523968695096" fill="none" id="id131" stroke="none" /><text fill="#e1ed5e" style="font-size:6.75px; font-family:Arial;" text-anchor="middle"><textPath startOffset="21.46611528233685" xlink:href="#id131">November</textPath></text><line stroke="#e1ed5e" stroke-width="0.3" x1="56.762969772571076" x2="54.21961505331055" y1="26.818313649435495" y2="22.513508569990535" /><path d="M 56.25429882871897 25.957352633546506 a86.0,86.0 0 0,1 42.265352541879196,-11.944610805530505" fill="none" id="id132" stroke="none" /><text fill="#e1ed5e" style="font-size:6.75px; font-family:Arial;" text-anchor="middle"><textPath startOffset="22.20632615414155" xlink:href="#id132">December</textPath></text></svg>