<?xml version="1.0" encoding="utf-8" ?>
<svg baseProfile="full" height="200mm" version="1.1" viewBox="0,0,200,200" width="200mm" xmlns="http://www.w3.org/2000/svg" xmlns:ev="http://www.w3.org/2001/xml-events" xmlns:xlink="http://www.w3.org/1999/xlink"><defs /><rect fill="#1a1a1a" height="200" width="200" x="0" y="0" /><text alignment-baseline="middle" fill="#e1ed5e" style="dominant-baseline: central; font-size:9.0px; font-family:Arial;" text-anchor="middle" x="100.0" y="100.0">2026</text><line stroke="#e1ed5e" stroke-width="0.3" x1="100.0" x2="100.0" y1="15.0" y2="10.0" /><path d="M 100.0 14.0 a86.0,86.0 0 0,1 42.46469731375804,11.215312516191453" fill="none" id="id121" stroke="none" /><text fill="#e1ed5e" style="font-size:6.75px; font-family:Arial;" text-anchor="middle"><textPath startOffset="22.20632615414155" xlink:href="#id121">January</textPath></text><path d="M 100.0 79.0 l 0.0 -20.86596952190584 a41.86596952190584,41.86596952190584 0 0,0 0.7206538441898852,0.006202895155480779 l -0.3591733649173568 20.86287800335892" fill="#ff2003" stroke="none" /><path d="M 100.36148047927253 79.00311137660856 l 0.4413388540057238 -25.635527487908938 a46.639326230761014,46.639326230761014 0 0,0 0.8025814405835415,0.02072831076438051 l -0.8825469297841331 25.6241323850022" fill="#ff7e0b" stroke="none" /><path d="M 100.72285384407766 79.0124445844662 l 2.1685615322329816 -62.9626662466014 a84.0,84.0 0 0,0 1.4446366704426739,0.062209093903220936 l -3.2520390350649873 62.916009426173986" fill="#4dd2ff" stroke="none" /><path d="M 101.08401301168833 79.027996857942 l 0.9979811946285316 -19.30757705284996 a40.33335196277589,40.33335196277589 0 0,0 0.693038289794232,0.041805962245863165 l -1.3301815332623754 19.287537821223793" fill="#ff0000" stroke="none" /><path d="M 101.44485096284872 79.0497635885617 l 1.812859212341232 -26.286329909294114 a47.34876844605874,47.34876844605874 0 0,0 0.812617174741447,0.06307473252274273 l -2.26506657644502 26.251229914582908" fill="#ff8b0c" stroke="none" /><path d="M 101.80526077348638 79.07773832637324 l 2.9698747678693045 -34.419679385855815 a55.54756844065779,55.54756844065779 0 0,0 0.9519130539536993,0.09039561452215958 l -3.561912948913248 34.36345822681847" fill="#e1ff1b" stroke="none" /><path d="M 102.16513564639614 79.11191278185805 l 4.424408450599862 -42.684360104016115 a63.91305148351795,63.91305148351795 0 0,0 1.0933188653893713,0.12284711351983826 l -5.158494019498959 42.60187703702567" fill="#5eff2a" stroke="none" /><path d="M 103.2404852339499 79.25152402106235 l 5.6709889841475976 -36.310728245776495 a57.750906135726154,57.750906135726154 0 0,0 0.9808600732204168,0.16185031641478304 l -6.29517826350689 36.207731666422085" fill="#bcff1f" stroke="none" /><path d="M 103.59715602781102 79.31037775812273 l 6.282021785347298 -36.13206006334149 a57.67409933635038,57.67409933635038 0 0,0 0.9766281480953402,0.17847255161440095 l -6.903045054545538 36.018572030376355" fill="#beff1f" stroke="none" /><path d="M 103.95276090670814 79.375362276772 l 7.149646850588952 -37.3052860070961 a58.98423112502577,58.98423112502577 0 0,0 0.9955234677363726,0.19969264222937752 l -7.79073672779245 37.176689408789514" fill="#a9ff21" stroke="none" /><path d="M 104.307194497241 79.44645832069477 l 10.005375595319618 -47.74474532023865 a69.7818434102061,69.7818434102061 0 0,0 1.17352217725207,0.25648649472645413 l -10.825740496725215 47.56544532741633" fill="#34ff5b" stroke="none" /><path d="M 104.66035177308747 79.52364482259891 l 10.822511315240064 -47.55125715659967 a69.76729240322422,69.76729240322422 0 0,0 1.1686895662958932,0.27659106149674934 l -11.63942456849848 47.357920182962054" fill="#34ff5b" stroke="none" /><path d="M 105.01212808612495 79.60689891045804 l 9.205029542010188 -37.45297302000236 a59.56757390485309,59.56757390485309 0 0,0 0.9936186505460901,0.25329551786632926 l -9.848357081241303 37.28897450596717" fill="#9fff22" stroke="none" /><line stroke="#e1ed5e" stroke-width="0.3" x1="143.23703022742887" x2="145.7803849466894" y1="26.81831364943548" y2="22.513508569990506" /><path d="M 143.74570117128098 25.957352633546492 a86.0,86.0 0 0,1 28.547481713284135,27.462654790039103" fill="none" id="id122" stroke="none" /><text fill="#e1ed5e" style="font-size:6.75px; font-family:Arial;" text-anchor="middle"><textPath startOffset="19.985693538727396" xlink:href="#id122">February</textPath></text><line stroke="#e1ed5e" stroke-width="0.3" x1="172.23445277983987" x2="176.4835382374775" y1="55.19839476539836" y2="52.563006222186495" /><path d="M 173.08426987136738 54.67131705675599 a86.0,86.0 0 0,1 12.851231095245387,41.99856678651699" fill="none" id="id123" stroke="none" /><text fill="#e1ed5e" style="font-size:6.75px; font-family:Arial;" text-anchor="middle"><textPath startOffset="22.20632615414155" xlink:href="#id123">March</textPath></text><line stroke="#e1ed5e" stroke-width="0.3" x1="184.98032266829074" x2="189.97916517819016" y1="98.17113171792111" y2="98.06355123074" /><path d="M 185.9800911702706 98.14961562048488 a86.0,86.0 0 0,1 -9.607161424134198,41.387399972396054" fill="none" id="id124" stroke="none" /><text fill="#e1ed5e" style="font-size:6.75px; font-family:Arial;" text-anchor="middle"><textPath startOffset="21.466115282336823" xlink:href="#id124">April</textPath></text><line stroke="#e1ed5e" stroke-width="0.3" x1="174.80103733775053" x2="179.2010983576182" y1="140.37084112569926" y2="142.7455964860345" /><path d="M 175.68104954172406 140.8457921977663 a86.0,86.0 0 0,1 -30.038265399797805,32.042727171017184" fill="none" id="id125" stroke="none" /><text fill="#e1ed5e" style="font-size:6.75px; font-family:Arial;" text-anchor="middle"><textPath startOffset="22.206326154141568" xlink:href="#id125">May</textPath></text><line stroke="#e1ed5e" stroke-width="0.3" x1="143.8653032363475" x2="146.44561519142675" y1="172.8068346515853" y2="177.08958963109032" /><path d="M 144.38136562736335 173.6633856474863 a86.0,86.0 0 0,1 -40.68145358897372,12.25698825130547" fill="none" id="id126" stroke="none" /><text fill="#e1ed5e" style="font-size:6.75px; font-family:Arial;" text-anchor="middle"><textPath startOffset="21.466115282336833" xlink:href="#id126">June</textPath></text><line stroke="#e1ed5e" stroke-width="0.3" x1="102.19456741930631" x2="102.32365962044197" y1="184.97166512339345" y2="189.96999836594603" /><path d="M 102.22038585953345 185.97133177190398 a86.0,86.0 0 0,1 -42.740103519485714,-10.115201625700543" fill="none" id="id127" stroke="none" /><text fill="#e1ed5e" style="font-size:6.75px; font-family:Arial;" text-anchor="middle"><textPath startOffset="22.20632615414155" xlink:href="#id127">July</textPath></text><line stroke="#e1ed5e" stroke-width="0.3" x1="58.666819895761336" x2="56.23545636021788" y1="174.27360380694188" y2="178.64263932499728" /><path d="M 58.180547188652646 175.14741091055294 a86.0,86.0 0 0,1 -31.652253787137756,-30.449443065178592" fill="none" id="id128" stroke="none" /><text fill="#e1ed5e" style="font-size:6.75px; font-family:Arial;" text-anchor="middle"><textPath startOffset="22.20632615414155" xlink:href="#id128">August</textPath></text><line stroke="#e1ed5e" stroke-width="0.3" x1="26.63291911575756" x2="22.317208475507996" y1="142.92168965132927" y2="145.44649492493687" /><path d="M 25.769776987707644 143.4266507060508 a86.0,86.0 0 0,1 -11.730757126820373,-40.83630448921669" fill="none" id="id129" stroke="none" /><text fill="#e1ed5e" style="font-size:6.75px; font-family:Arial;" text-anchor="middle"><textPath startOffset="21.46611528233685" xlink:href="#id129">September</textPath></text><line stroke="#e1ed5e" stroke-width="0.3" x1="15.007084014347285" x2="10.007500721073583" y1="101.09737516637583" y2="101.16192664675087" /><path d="M 14.007167355692545 101.11028546245083 a86.0,86.0 0 0,1 10.666146001902534,-42.60595125391555" fill="none" id="id130" stroke="none" /><text fill="#e1ed5e" style="font-size:6.75px; font-family:Arial;" text-anchor="middle"><textPath startOffset="22.20632615414155" xlink:href="#id130">October</textPath></text><line stroke="#e1ed5e" stroke-width="0.3" x1="26.266209847984243" x2="21.928928074336255" y1="57.711370442889674" y2="55.22380399835377" /><path d="M 25.398753493254645 57.213857153982495 a86.0,86.0 0 0,1 29.58750427330803,-30.492523968695096" fill="none" id="id131" stroke="none" /><text fill="#e1ed5e" style="font-size:6.75px; font-family:Arial;" text-anchor="middle"><textPath startOffset="21.46611528233685" xlink:href="#id131">November</textPath></text><line stroke="#e1ed5e" stroke-width="0.3" x1="56.762969772571076" x2="54.21961505331055" y1="26.818313649435495" y2="22.513508569990535" /><path d="M 56.25429882871897 25.957352633546506 a86.0,86.0 0 0,1 42.265352541879196,-11.944610805530505" fill="none" id="id132" stroke="none" /><text fill="#e1ed5e" style="font-size:6.75px; font-family:Arial;" text-anchor="middle"><textPath startOffset="22.20632615414155" xlink:href="#id132">December</textPath></text></svg>