<?xml version="1.0" encoding="utf-8" ?>
<svg baseProfile="full" height="200mm" version="1.1" viewBox="0,0,200,200" width="200mm" xmlns="http://www.w3.org/2000/svg" xmlns:ev="http://www.w3.org/2001/xml-events" xmlns:xlink="http://www.w3.org/1999/xlink"><defs /><rect fill="#1a1a1a" height="200" width="200" x="0" y="0" /><text alignment-baseline="middle" fill="#e1ed5e" style="dominant-baseline: central; font-size:9.0px; font-family:Arial;" text-anchor="middle" x="100.0" y="100.0">2021</text><line stroke="#e1ed5e" stroke-width="0.3" x1="100.0" x2="100.0" y1="15.0" y2="10.0" /><path d="M 100.0 14.0 a86.0,86.0 0 0,1 42.46469731375804,11.215312516191453" fill="none" id="id61" stroke="none" /><text fill="#e1ed5e" style="font-size:6.75px; font-family:Arial;" text-anchor="middle"><textPath startOffset="22.20632615414155" xlink:href="#id61">January</textPath></text><path d="M 100.0 79.0 l 0.0 -14.088672784397346 a35.088672784397346,35.088672784397346 0 0,0 0.603993821673375,0.005198765510797624 l -0.24251334240084665 14.086585395495108" fill="#ffab0f" stroke="none" /><path d="M 100.72285384407766 79.0124445844662 l 2.1685615322329816 -62.9626662466014 a84.0,84.0 0 0,0 1.4446366704426739,0.062209093903220936 l -3.2520390350649873 62.916009426173986" fill="#4dd2ff" stroke="none" /><path d="M 101.80526077348638 79.07773832637324 l 1.7332345287686357 -20.087505852481343 a41.1621425772458,41.1621425772458 0 0,0 0.705391468032361,0.066985419484094 l -2.078751123891241 20.05469488848207" fill="#fff917" stroke="none" /><path d="M 102.88285421437855 79.19881850522331 l 2.5754083889940573 -18.582811803469536 a39.7604270445336,39.7604270445336 0 0,0 0.6771220029775523,0.09979018177915734 l -2.894899372400266 18.53572713752941" fill="#ffe715" stroke="none" /><path d="M 103.2404852339499 79.25152402106235 l 2.476467377277135 -15.856552392749368 a37.04877392372151,37.04877392372151 0 0,0 0.6292483622359568,0.1038313713769522 l -2.749044945651967 15.81157475843279" fill="#ffc512" stroke="none" /><path d="M 104.66035177308747 79.52364482259891 l 4.220092228463093 -18.54197098390976 a40.016147516910095,40.016147516910095 0 0,0 0.6703206112124953,0.15864323148365686 l -4.538636526638112 18.466581840285233" fill="#ffea16" stroke="none" /><path d="M 105.01212808612495 79.60689891045804 l 3.801541090386456 -15.467524057677458 a36.92783774203917,36.92783774203917 0 0,0 0.6159758724341894,0.15702596515839518 l -4.06722585150567 15.399795096350195" fill="#ffc312" stroke="none" /><path d="M 105.71112130821622 79.79150937346287 l 5.482014232429198 -19.397807759959846 a41.157564980347075,41.157564980347075 0 0,0 0.6800989363268637,0.1985395290545813 l -5.815103386479489 19.300569901986563" fill="#fff917" stroke="none" /><path d="M 106.40334571778207 80.00007090966166 l 6.137024459967086 -19.168112957600425 a41.126589963964676,41.126589963964676 0 0,0 0.6723554665343653,0.2216650262827921 l -6.466062748743869 19.059634207058394" fill="#fff817" stroke="none" /><path d="M 107.08798089147638 80.2323363322302 l 6.14995974588884 -17.15161732070235 a39.2208666531499,39.2208666531499 0 0,0 0.633543388917401,0.23333937683087802 l -6.444285460578818 17.043214676065148" fill="#ffe015" stroke="none" /><path d="M 107.4271985657038 80.35727306442388 l 4.087362566390163 -10.809855973022524 a32.5567953562663,32.5567953562663 0 0,0 0.5224851489867812,0.20271612051305635 l -4.2728308803766115 10.73789714861892" fill="#ff890c" stroke="none" /><path d="M 108.09893153111575 80.62456947434976 l 7.611964654344897 -18.210438223527806 a40.73732672354386,40.73732672354386 0 0,0 0.6446512064017269,0.27600600360761124 l -7.924299618536939 18.076712691957404" fill="#fff316" stroke="none" /><path d="M 110.05341064243156 81.56283822128135 l 11.994578011868523 -21.997109551947464 a46.05479455759273,46.05479455759273 0 0,0 0.6927428658799919,0.3855106548454299 l -12.371444966820551 21.787383499541853" fill="#caff1d" stroke="none" /><line stroke="#e1ed5e" stroke-width="0.3" x1="143.23703022742887" x2="145.7803849466894" y1="26.81831364943548" y2="22.513508569990506" /><path d="M 143.74570117128098 25.957352633546492 a86.0,86.0 0 0,1 28.547481713284135,27.462654790039103" fill="none" id="id62" stroke="none" /><text fill="#e1ed5e" style="font-size:6.75px; font-family:Arial;" text-anchor="middle"><textPath startOffset="19.985693538727396" xlink:href="#id62">February</textPath></text><path d="M 110.68208982089419 81.91981866633111 l 10.25333226382379 -17.354479293151414 a41.15710232272464,41.15710232272464 0 0,0 0.6068476249370347,0.36561890396014335 l -10.550541954978462 17.175413779732654" fill="#fff917" stroke="none" /><path d="M 111.2981086023043 82.29822771554956 l 10.320709485623501 -16.17039236914518 a40.183290480487116,40.183290480487116 0 0,0 0.5798505727655349,0.37715094211972416 l -10.597527084173317 15.990342502865929" fill="#ffec16" stroke="none" /><path d="M 111.60114157652 82.49532879139004 l 8.757781893870828 -13.21439718304966 a36.85304502649262,36.85304502649262 0 0,0 0.5257618707981682,0.3549967621133428 l -8.983948459075537 13.061688508637648" fill="#ffc212" stroke="none" /><path d="M 111.90073688211348 82.69761687909136 l 7.842024079217433 -11.401454078523765 a34.83800913295378,34.83800913295378 0 0,0 0.491164269674666,0.3440919591477646 l -8.03711948847575 11.264777276612064" fill="#ffa80f" stroke="none" /><path d="M 112.19680574252982 82.90503203632743 l 19.011795153554687 -26.64681523529055 a53.73379167075574,53.73379167075574 0 0,0 0.7483190021039188,0.5436855795430269 l -19.467659472012393 26.31561042093085" fill="#74ff27" stroke="none" /><path d="M 112.77801427241765 83.33499621200491 l 12.438952002692885 -16.222800962981324 a41.44276884401438,41.44276884401438 0 0,0 0.5623733306951023,0.43894130482548405 l -12.716357888547417 16.00628126893261" fill="#fffc17" stroke="none" /><path d="M 113.06298171725822 83.55741782278167 l 8.5632928299108 -10.77875244036901 a34.76631716406253,34.76631716406253 0 0,0 0.46536636186890357,0.3762939005701395 l -8.747562590344195 10.629752442534743" fill="#ffa70f" stroke="none" /><path d="M 113.6212207817346 84.01681056812373 l 17.633441127811267 -20.691143209394067 a48.1856883914982,48.1856883914982 0 0,0 0.6266576341044184,0.5434313251084779 l -17.986992560562452 20.384546890865916" fill="#b2ff20" stroke="none" /><path d="M 113.89432698308785 84.25364557470405 l 9.407533177424265 -10.66149888798226 a35.21862296506892,35.21862296506892 0 0,0 0.4511153623620511,0.405015826468791 l -9.589659527382306 10.497984052744174" fill="#ffad10" stroke="none" /><path d="M 114.68862486808459 84.99185889309783 l 13.490773846009516 -13.784233673374404 a40.28745905831982,40.28745905831982 0 0,0 0.49143831966506396,0.48932792734183406 l -13.7260479658419 13.54996989538245" fill="#ffee16" stroke="none" /><path d="M 114.94478906791727 85.2469230424477 l 11.166068055265141 -11.022829468114438 a36.6902468208102,36.6902468208102 0 0,0 0.43982125230244373,0.4532744618772264 l -11.354153571270693 10.828990810687097" fill="#ffc011" stroke="none" /><path d="M 115.19652480421416 85.50635884689758 l 10.844449562267878 -10.342862100606233 a35.98588945444109,35.98588945444109 0 0,0 0.42366132481411184,0.45193236238007656 l -11.020878209052453 10.154660321348102" fill="#ffb710" stroke="none" /><path d="M 115.4437574822437 85.77008943001954 l 14.232976871739135 -13.114294773296567 a40.353613565233104,40.353613565233104 0 0,0 0.4662886169393725,0.5148875370669489 l -14.456609129294543 12.86735444896007" fill="#ffef16" stroke="none" /><path d="M 115.9244219780498 86.31012108654704 l 24.93485638547704 -21.435953224050667 a53.882322813147695,53.882322813147695 0 0,0 0.598579715855635,0.7085295818117218 l -25.300146714819792 21.00356469260984" fill="#73ff27" stroke="none" /><path d="M 116.15771136456269 86.58626213691792 l 11.458141706347142 -9.512269762664388 a35.89202093070081,35.89202093070081 0 0,0 0.39054194786143953,0.4787582498784134 l -11.62018214628499 9.313627343177874" fill="#ffb610" stroke="none" /><path d="M 116.60985879189232 87.15038557335679 l 13.267908164504048 -10.264235614405559 a37.77474052883515,37.77474052883515 0 0,0 0.39344021930702583,0.5177212100639282 l -13.442624324035187 10.034329628460597" fill="#ffce13" stroke="none" /><path d="M 116.82858285166822 87.43820079747576 l 13.715149976166236 -10.237758078127577 a38.114818998020375,38.114818998020375 0 0,0 0.38793151605489884,0.5291381519326755 l -13.88934410473476 10.000157482523408" fill="#ffd213" stroke="none" /><path d="M 117.2510076193507 88.02491185347247 l 15.908369183947919 -11.043072233739403 a40.36557911482045,40.36557911482045 0 0,0 0.39130687318526614,0.5741945516673315 l -16.09610052280192 10.767599658801664" fill="#ffef16" stroke="none" /><path d="M 117.45458315368197 88.32363383020206 l 11.353054714969387 -7.594705804805775 a34.65911445235888,34.65911445235888 0 0,0 0.3274516629934654,0.49873134790634216 l -11.482103013320778 7.398156392921759" fill="#ffa50f" stroke="none" /><path d="M 117.65298651832404 88.62581576622439 l 24.494946833199826 -15.782600739435917 a50.139198795809904,50.139198795809904 0 0,0 0.46121474065183254,0.7295309587516551 l -24.76298917009761 15.358622132970057" fill="#9cff22" stroke="none" /><line stroke="#e1ed5e" stroke-width="0.3" x1="172.23445277983987" x2="176.4835382374775" y1="55.19839476539836" y2="52.563006222186495" /><path d="M 173.08426987136738 54.67131705675599 a86.0,86.0 0 0,1 12.851231095245387,41.99856678651699" fill="none" id="id63" stroke="none" /><text fill="#e1ed5e" style="font-size:6.75px; font-family:Arial;" text-anchor="middle"><textPath startOffset="22.20632615414155" xlink:href="#id63">March</textPath></text><path d="M 118.21658344932153 89.55222093294921 l 16.74523145841864 -9.603912785890847 a40.30383167650948,40.30383167650948 0 0,0 0.3399769432442643,0.6047810463847876 l -16.908066042955337 9.314248229571266" fill="#ffee16" stroke="none" /><path d="M 118.56541770881063 90.18545643968196 l 17.105178486431644 -9.042593169472696 a40.348271816399475,40.348271816399475 0 0,0 0.3193096268655776,0.6168045648913512 l -17.25829754645734 8.746815882321" fill="#ffef16" stroke="none" /><path d="M 118.89224826269711 90.83032412892265 l 21.96879108524361 -10.66292855831539 a45.41978352047407,45.41978352047407 0 0,0 0.33533167963479704,0.7062940375512193 l -22.149080958720162 10.283192105123629" fill="#d2ff1c" stroke="none" /><path d="M 119.196687751892 91.48605970444005 l 17.0734248715928 -7.572250060854511 a39.67728052554854,39.67728052554854 0 0,0 0.2715235152237813,0.6267137090857989 l -17.20123909665926 7.277237207182109" fill="#ffe615" stroke="none" /><path d="M 119.34039704204932 91.81776055985345 l 12.77774509292792 -5.405813005192346 a34.87420570364121,34.87420570364121 0 0,0 0.2291373368653413,0.5548742362299517 l -12.86890411667946 5.1850641985090915" fill="#ffa80f" stroke="none" /><path d="M 119.47837535516314 92.15188598940014 l 18.926659959006717 -7.625820043495912 a41.40518533460679,41.40518533460679 0 0,0 0.26066821759898295,0.6633721813477585 l -19.0551217264874 7.298898857252369" fill="#fffc17" stroke="none" /><path d="M 119.7369772167798 92.82701384747503 l 17.093295774760577 -6.212196150742461 a39.187142201532026,39.187142201532026 0 0,0 0.22494710782202776,0.6359557655161855 l -17.197695963392412 5.917042758799661" fill="#ffe015" stroke="none" /><path d="M 119.85752413597 93.16781622104841 l 16.912092052834815 -5.818777819446916 a38.88510645525058,38.88510645525058 0 0,0 0.2123176922919926,0.6348028756470978 l -17.009747038898578 5.526801840877504" fill="#ffdc14" stroke="none" /><path d="M 120.08093135843002 93.85539295169968 l 17.94077606280556 -5.489736361317428 a39.761893589201165,39.761893589201165 0 0,0 0.19463277050675665,0.656204945015651 l -18.032614730424022 5.180102029555247" fill="#ffe715" stroke="none" /><path d="M 120.18372546131832 94.20196356495316 l 13.181779441109914 -3.786636794321257 a34.71487978241791,34.71487978241791 0 0,0 0.1600409343398261,0.5757523919707672 l -13.245007146016102 3.5591730989315375" fill="#ffa60f" stroke="none" /><path d="M 120.28053869075195 94.5502522615342 l 19.69851426354408 -5.293347242686346 a41.397327992232334,41.397327992232334 0 0,0 0.17900139202204254,0.689765382724225 l -19.786711987436426 4.95348543441327" fill="#fffc17" stroke="none" /><path d="M 120.45610955862082 95.25157060432595 l 40.206817263659694 -9.333115490711553 a62.27584280467551,62.27584280467551 0 0,0 0.23340278013841587,1.0462988976744918 l -40.36151443080015 8.639638423487096" fill="#32ff45" stroke="none" /><path d="M 120.53481517161879 95.60439243477599 l 13.965369004366178 -2.9893759030068643 a35.281733078222324,35.281733078222324 0 0,0 0.12200877607045947,0.5949581226544347 l -14.014757076351634 2.7485421241890173" fill="#ffad10" stroke="none" /><path d="M 120.73433829027371 96.67025291283417 l 22.755780787911863 -3.654372458574053 a44.0473425221539,44.0473425221539 0 0,0 0.11377660673749396,0.7496456816279886 l -22.815313288088657 3.262127664553981" fill="#e2ff1b" stroke="none" /><path d="M 120.78858239683441 97.02765380044208 l 16.8857162365123 -2.4143153931483754 a38.057442118840925,38.057442118840925 0 0,0 0.0871406706046996,0.6492992123388762 l -16.924772906174837 2.123297838744835" fill="#ffd213" stroke="none" /><path d="M 120.87857604477298 97.74499172005257 l 40.80471920161722 -4.407148239576085 a62.042028028941594,62.042028028941594 0 0,0 0.10553902712845363,1.0627636003205516 l -40.8745353544279 3.7041091085510978" fill="#31ff43" stroke="none" /><path d="M 120.91429891909075 98.10471618934814 l 17.083484849019435 -1.548129936801657 a38.15348830086458,38.15348830086458 0 0,0 0.05364292553189976,0.6545795640370344 l -17.10760225837083 1.253836455556854" fill="#ffd313" stroke="none" /><path d="M 120.96714384426684 98.82574320788733 l 20.045924369294138 -1.1226642512521754 a41.07733694593235,41.07733694593235 0 0,0 0.033461191358180396,0.7063128638419466 l -20.062279168885816 0.777440280787229" fill="#fff817" stroke="none" /><path d="M 120.98425023603335 99.18683210126433 l 13.701310096424162 -0.5309441803121149 a34.71159363753834,34.71159363753834 0 0,0 0.017997639878904965,0.5972540481759557 l -13.708419430758711 0.2950199847111601" fill="#ffa60f" stroke="none" /><line stroke="#e1ed5e" stroke-width="0.3" x1="184.98032266829074" x2="189.97916517819016" y1="98.17113171792111" y2="98.06355123074" /><path d="M 185.9800911702706 98.14961562048488 a86.0,86.0 0 0,1 -9.607161424134198,41.387399972396054" fill="none" id="id64" stroke="none" /><text fill="#e1ed5e" style="font-size:6.75px; font-family:Arial;" text-anchor="middle"><textPath startOffset="21.466115282336823" xlink:href="#id64">April</textPath></text><path d="M 120.99513854157772 99.54816195383933 l 18.192487583210738 -0.39152197200897504 a39.19670008325253,39.19670008325253 0 0,0 0.008710986680837038,0.6746755182749634 l -18.19653157700929 0.0783101956735489" fill="#ffe015" stroke="none" /><path d="M 120.99824983174949 100.27111621757518 l 27.115755364291626 0.35010160798950185 a48.11801541617725,48.11801541617725 0 0,0 -0.017821852744231977,0.8281114673987959 l -27.105711448862387 -0.8168028911784125" fill="#b2ff20" stroke="none" /><path d="M 120.9904718944345 100.63252640178507 l 1.8909618173512235 0.05698220031724304 a22.891820172699624,22.891820172699624 0 0,0 -0.01525888845579029,0.3937641096972794 l -1.88970079604423 -0.0895235570285286" fill="#ff0000" stroke="none" /><path d="M 120.9764740272857 100.99374915477107 l 13.377217834698802 0.633738487179892 a34.39222093108969,34.39222093108969 0 0,0 -0.03310439457617225,0.5911012034319586 l -13.3643270892351 -0.863911406947274" fill="#ffa20e" stroke="none" /><path d="M 120.95626037817324 101.35467743843564 l 18.766579661196026 1.2131297094450175 a39.80574901119215,39.80574901119215 0 0,0 -0.05008594637234925,0.6833829447810426 l -18.742917156159336 -1.5359857907228303" fill="#ffe815" stroke="none" /><path d="M 120.92983693683757 101.71520430193887 l 10.357285214449291 0.8487815843879906 a31.39200592722339,31.39200592722339 0 0,0 -0.048770327002290816,0.5381764945044766 l -10.341140291169925 -1.0269394674410377" fill="#ff790b" stroke="none" /><path d="M 120.81339534386255 102.79330883721812 l 57.036933859226956 7.654770822569538 a78.54830440949492,78.54830440949492 0 0,0 -0.1913808826737469,1.33851744767614 l -56.89671892553661 -8.635433742226088" fill="#46fff8" stroke="none" /><path d="M 120.70491114924044 103.5080841355445 l 8.359448427057282 1.416361953812967 a29.478588278058993,29.478588278058993 0 0,0 -0.08907244290767295,0.4995655630007972 l -8.33382954181042 -1.5600462675469826" fill="#ff5f08" stroke="none" /><path d="M 120.64145759157962 103.86396538481128 l 15.81467450495376 2.9604185938945826 a37.08937562333328,37.08937562333328 0 0,0 -0.12287192133362218,0.6265212797142031 l -15.761372650644475 -3.2322036006767307" fill="#ffc512" stroke="none" /><path d="M 120.41448212921028 104.9243191809786 l 6.3113232836943505 1.5223981733429945 a27.49234147203461,27.49234147203461 0 0,0 -0.11492935832291953,0.4590856563820454 l -6.28418261107637 -1.630811669122436" fill="#ff4306" stroke="none" /><path d="M 120.23288151984713 105.62410040840565 l 59.57359280012999 16.559572459747937 a82.83229252716853,82.83229252716853 0 0,0 -0.39367965227694973,1.3704505154943993 l -59.27972051096694 -17.582580450746917" fill="#4cddff" stroke="none" /><path d="M 120.02730092923936 106.31721596034902 l 10.810715849815665 3.410026490866108 a32.33577777895563,32.33577777895563 0 0,0 -0.17200747368219022,0.5293845700227863 l -10.750416125117228 -3.5956099608666894" fill="#ff860c" stroke="none" /><path d="M 119.79798401119884 107.00284435728193 l 17.03272117094331 6.024729349898796 a39.066846825792055,39.066846825792055 0 0,0 -0.22970513247668028,0.6320498701469945 l -16.926491777461404 -6.317027017051922" fill="#ffde14" stroke="none" /><path d="M 119.54520255179757 107.68017299344265 l 13.802700632140198 5.423690460643881 a35.830069553220675,35.830069553220675 0 0,0 -0.23050232036266644,0.5720878557824215 l -13.707295697520141 -5.660477684269116" fill="#ffb510" stroke="none" /><path d="M 119.26925614724726 108.34839909993367 l 18.623376161938328 8.06857180162934 a41.296107769400045,41.296107769400045 0 0,0 -0.28820536950017733,0.6498270242274042 l -18.48172970770688 -8.387947162349432" fill="#fffa17" stroke="none" /><path d="M 118.81262510543309 109.33194174019688 l 17.18953826814958 8.526814772539622 a40.18819418385635,40.18819418385635 0 0,0 -0.3127432453530253,0.6170720930408932 l -17.040216353010287 -8.82144107728321" fill="#ffed16" stroke="none" /><path d="M 118.64920377521936 109.65438752849418 l 15.171194646165718 7.853879133377491 a38.08357586787818,38.08357586787818 0 0,0 -0.30638688670023856,0.5795685247239003 l -15.033755251240587 -8.113862673187526" fill="#ffd213" stroke="none" /><line stroke="#e1ed5e" stroke-width="0.3" x1="174.80103733775053" x2="179.2010983576182" y1="140.37084112569926" y2="142.7455964860345" /><path d="M 175.68104954172406 140.8457921977663 a86.0,86.0 0 0,1 -30.038265399797805,32.042727171017184" fill="none" id="id65" stroke="none" /><text fill="#e1ed5e" style="font-size:6.75px; font-family:Arial;" text-anchor="middle"><textPath startOffset="22.206326154141568" xlink:href="#id65">May</textPath></text><path d="M 118.30583269289576 110.29060199501023 l 17.932695071758197 10.080843126735338 a41.571945719413804,41.571945719413804 0 0,0 -0.3560300692237193,0.6207684355554088 l -17.756513006382097 -10.388031408149061" fill="#fffe18" stroke="none" /><path d="M 118.12598468904814 110.60418214915192 l 17.534914892150745 10.258390629591103 a41.31521150724876,41.31521150724876 0 0,0 -0.364398442653102,0.6107527500458592 l -17.355735573799414 -10.558705473523066" fill="#fffb17" stroke="none" /><path d="M 117.94076556474637 110.91462005526583 l 7.319912693977056 4.453213861144746 a29.568094043632932,29.568094043632932 0 0,0 -0.26827464061596,0.4325441411781258 l -7.242173413693132 -4.578554333688145" fill="#ff6008" stroke="none" /><path d="M 117.75023020441432 111.22182372390056 l 27.830601551787282 17.59470728816808 a53.92591847300026,53.92591847300026 0 0,0 -0.50278250356853,0.780329610873404 l -27.5236141848417 -18.071158498962937" fill="#72ff27" stroke="none" /><path d="M 117.55443506779139 111.5257021239791 l 18.196190471593848 11.94705898292197 a42.76771843854884,42.76771843854884 0 0,0 -0.4093418378484268,0.6119105073535045 l -17.9878455283347 -12.258506404481281" fill="#f2ff19" stroke="none" /><path d="M 117.35343817320211 111.8261652097733 l 13.48033225661768 9.18668881395392 a37.31301961971582,37.31301961971582 0 0,0 -0.366270095973792,0.5276393909648469 l -13.320201253481752 -9.417369467105786" fill="#ffc812" stroke="none" /><path d="M 116.93607887273984 112.41649034213515 l 17.410595236404742 12.764376525879467 a42.58837961914563,42.58837961914563 0 0,0 -0.43853606011202895,0.5874907170587844 l -17.188297909597622 -13.062180122447565" fill="#f4ff19" stroke="none" /><path d="M 116.71984013943494 112.70617746262583 l 7.00865716155026 5.326201741565853 a29.802823422062314,29.802823422062314 0 0,0 -0.31391339850542194,0.40577538352021864 l -6.915936945826769 -5.4460551191993245" fill="#ff6309" stroke="none" /><path d="M 116.498646956653 112.99209946851258 l 12.839628781519462 10.110752397244969 a37.34268586510852,37.34268586510852 0 0,0 -0.40202439951730606,0.5015872524751434 l -12.663686469947303 -10.330267483298362" fill="#ffc812" stroke="none" /><path d="M 116.0416608686014 113.55231037782055 l 14.70876604615435 12.426254635665513 a40.25511887449417,40.25511887449417 0 0,0 -0.4517342995663419,0.5254690456892319 l -14.492689237017228 -12.677600780516272" fill="#ffed16" stroke="none" /><path d="M 115.80600337817218 113.82643327865902 l 14.792335447068886 12.939718801837447 a40.65323155741152,40.65323155741152 0 0,0 -0.4652687827629024,0.522734409714612 l -14.567407814657651 -13.192427381292926" fill="#fff216" stroke="none" /><path d="M 115.56566222782051 114.09645910891815 l 13.78848080288434 12.487021301577956 a39.60236285630327,39.60236285630327 0 0,0 -0.4619400492146759,0.5013446891547834 l -13.57149434567394 -12.722517245534075" fill="#ffe515" stroke="none" /><path d="M 115.32070863581623 114.36230785411682 l 13.646025691144827 12.79238621529778 a39.70452250779809,39.70452250779809 0 0,0 -0.4717151545867653,0.49459145369188795 l -13.423803985179097 -13.025384785572175" fill="#ffe615" stroke="none" /><path d="M 114.81725581225074 114.88116024355365 l 13.835088819254322 13.894757322938302 a40.60800764228746,40.60800764228746 0 0,0 -0.4995752718242418,0.4889395501367521 l -13.593863595054286 -14.130846975997626" fill="#fff216" stroke="none" /><path d="M 114.55890576462653 115.13401014063108 l 13.616967314679068 14.154863336343695 a40.64133281932784,40.64133281932784 0 0,0 -0.5083343702016302,0.48066187565725066 l -13.37129711008663 -14.387159848746867" fill="#fff216" stroke="none" /><path d="M 114.29624159901734 115.38237550388516 l 13.134947209091393 14.132853645103479 a40.29415430485442,40.29415430485442 0 0,0 -0.5121203779913023,0.46780982303808977 l -12.889727281633228 -14.35685623472815" fill="#ffee16" stroke="none" /><path d="M 113.75828350139079 115.86535959552629 l 7.275617544024365 8.389875714059663 a32.105162094462344,32.105162094462344 0 0,0 -0.4206304034417402,0.35847035519477105 l -7.130121664005578 -8.513870459477381" fill="#ff830c" stroke="none" /><path d="M 113.48314897796784 116.09983520530334 l 15.667376357123834 18.707957455735023 a45.401933408673884,45.401933408673884 0 0,0 -0.6034778969612207,0.49662122463303504 l -15.343028331617923 -18.974873799225236" fill="#d2ff1c" stroke="none" /><path d="M 112.92097659922987 116.55440617244103 l 11.411318029947608 14.620225660180491 a39.546406054414085,39.546406054414085 0 0,0 -0.5402251327782079,0.41422159543290216 l -11.157964168675907 -14.814486597440764" fill="#ffe415" stroke="none" /><path d="M 112.63410532772338 116.77436683061366 l 9.336996127782639 12.396777934070629 a36.51965205270042,36.51965205270042 0 0,0 -0.5053885600761558,0.37387437461027917 l -9.122222597287918 -12.555662257420678" fill="#ffbe11" stroke="none" /><path d="M 112.34349029814194 116.9893568818739 l 10.215809772989678 14.060855874515712 a38.380173682728675,38.380173682728675 0 0,0 -0.5378207746304992,0.3837208426716366 l -9.972261670510294 -14.234620979031568" fill="#ffd614" stroke="none" /><path d="M 111.7513745106137 117.40417183066458 l 11.611700192921656 17.197309576104683 a41.75039850284034,41.75039850284034 0 0,0 -0.5990691145997579,0.3970303429163463 l -11.313956379581935 -17.394637940112347" fill="#feff18" stroke="none" /><line stroke="#e1ed5e" stroke-width="0.3" x1="143.8653032363475" x2="146.44561519142675" y1="172.8068346515853" y2="177.08958963109032" /><path d="M 144.38136562736335 173.6633856474863 a86.0,86.0 0 0,1 -40.68145358897372,12.25698825130547" fill="none" id="id66" stroke="none" /><text fill="#e1ed5e" style="font-size:6.75px; font-family:Arial;" text-anchor="middle"><textPath startOffset="21.466115282336833" xlink:href="#id66">June</textPath></text><path d="M 110.8373102113329 117.98757091392108 l 9.837060522379732 16.327374623437674 a40.06176596790125,40.06176596790125 0 0,0 -0.5937385101215531,0.35079117726720765 l -9.554554141229797 -16.49428437299863" fill="#ffeb16" stroke="none" /><path d="M 110.5260780823613 118.17145234162733 l 9.34492637328976 16.13239830633651 a39.643549126614694,39.643549126614694 0 0,0 -0.5934285024557808,0.336964191226945 l -9.06584910391278 -16.29086566335808" fill="#ffe615" stroke="none" /><path d="M 110.21172684928248 118.3499491758327 l 8.718100039749817 15.665978438355378 a38.92841735162648,38.92841735162648 0 0,0 -0.5883329351172796,0.32080602547124376 l -8.447144292763888 -15.813725115586392" fill="#ffdd14" stroke="none" /><path d="M 109.57404056367764 118.69057910512821 l 11.41546340936297 22.28543115681531 a46.03903446013163,46.03903446013163 0 0,0 -0.7084444799928699,0.3552287693345796 l -11.03016502168734 -22.47862776705919" fill="#cbff1d" stroke="none" /><path d="M 109.2508944713604 118.85261126421891 l 7.558843927973818 15.404342425715283 a38.158959382671156,38.158959382671156 0 0,0 -0.5921676888145805,0.28427647660218525 l -7.292563571159005 -15.532173178817029" fill="#ffd313" stroke="none" /><path d="M 108.59647513512805 119.15986991738527 l 5.507351468965603 12.274814511300264 a34.453698059996185,34.453698059996185 0 0,0 -0.5431860528213807,0.2381168027902634 l -5.295244741486468 -12.36779586738498" fill="#ffa30f" stroke="none" /><path d="M 108.2653958097858 119.30500536409082 l 6.3379375790588375 14.803153022162945 a37.10288148604523,37.10288148604523 0 0,0 -0.589279519546635,0.24631888696247756 l -6.082186600014741 -14.910056952145396" fill="#ffc512" stroke="none" /><path d="M 107.93186726928326 119.44442032107085 l 5.41032025279466 13.263023383452023 a35.32408302502451,35.32408302502451 0 0,0 -0.5649816664882386,0.2248178649884067 l -5.181217510264555 -13.354188092846497" fill="#ffae10" stroke="none" /><path d="M 107.2578585660854 119.70592522655815 l 5.763029889374671 15.6472925235976 a37.67483963415718,37.67483963415718 0 0,0 -0.6104767135197755,0.2188952297470803 l -5.492833615225161 -15.74417529438464" fill="#ffcd13" stroke="none" /><path d="M 106.91757812671514 119.82793768551818 l 5.756779587641697 16.500726821169312 a38.47611217769972,38.47611217769972 0 0,0 -0.6272160836823408,0.21278574971860953 l -5.471893771022129 -16.597375557786044" fill="#ffd714" stroke="none" /><path d="M 106.57524785965236 119.94407469862006 l 2.528702554939493 7.670073238725184 a29.07615998471834,29.07615998471834 0 0,0 -0.4766810118790216,0.1526182069134501 l -2.396300197969531 -7.712464292298341" fill="#ff5908" stroke="none" /><path d="M 106.2309692047433 120.05430185196036 l 5.232024545159896 16.8392100936125 a38.63329457072548,38.63329457072548 0 0,0 -0.6367595271785652,0.19185042212085157 l -4.941390043541085 -16.926775884839078" fill="#ffd914" stroke="none" /><path d="M 105.88484417918355 120.15858648285463 l 4.027782259672169 13.797204232342779 a35.37309551072097,35.37309551072097 0 0,0 -0.5859617817066056,0.16559865252432354 l -3.7896893098609574 -13.864491678205622" fill="#ffaf10" stroke="none" /><path d="M 105.53697534728816 120.25689768951611 l 5.061601655567523 18.517753909114646 a40.197057617202034,40.197057617202034 0 0,0 -0.6690121813366194,0.1766921976480958 l -4.742099031419407 -18.602137456066327" fill="#ffed16" stroke="none" /><path d="M 104.83641907484287 120.43548508189849 l 6.515477973274279 27.530069430265552 a49.29056690940399,49.29056690940399 0 0,0 -0.8273300790746598,0.188297632441909 l -6.0406277448067565 -27.638143796285146" fill="#a5ff21" stroke="none" /><path d="M 103.41894727170886 120.7198165907248 l 3.1641860765626157 19.175889522429976 a40.43519520106635,40.43519520106635 0 0,0 -0.687714360657614,0.10740683957455557 l -2.8336358522964846 -19.22751466935164" fill="#fff016" stroke="none" /><path d="M 103.06178313531738 120.77559828337769 l 1.9980588612342107 13.557742796581879 a34.70418289980196,34.70418289980196 0 0,0 -0.5917416982210474,0.08201000741080303 l -1.7643885718263328 -13.590127369485284" fill="#ffa60f" stroke="none" /><path d="M 102.70371172650421 120.8252237178851 l 2.2955921129787953 17.681699882852342 a38.83009405181114,38.83009405181114 0 0,0 -0.6635740912157492,0.08034958126506424 l -1.9908905987116656 -17.718594992842757" fill="#ffdb14" stroke="none" /><path d="M 101.98527174616119 120.90594882070398 l 1.7880737765034682 18.829351161374596 a39.914060193109734,39.914060193109734 0 0,0 -0.6845369324073624,0.059064726909301014 l -1.4636925263545641 -18.85734014056256" fill="#ffe915" stroke="none" /><path d="M 101.26447882468166 120.96189622390904 l 1.1274239447288115 18.689869113233414 a39.72384288069477,39.72384288069477 0 0,0 -0.6828943451618602,0.035297837347699756 l -0.8055415311534716 -18.706506757343313" fill="#ffe715" stroke="none" /><path d="M 100.90346689309514 120.98055641714683 l 0.8308959372428338 19.295293741621993 a40.31317551916317,40.31317551916317 0 0,0 -0.6935395178305374,0.023886903289009935 l -0.49863606773764413 -19.306737443337095" fill="#ffee16" stroke="none" /><line stroke="#e1ed5e" stroke-width="0.3" x1="102.19456741930631" x2="102.32365962044197" y1="184.97166512339345" y2="189.96999836594603" /><path d="M 102.22038585953345 185.97133177190398 a86.0,86.0 0 0,1 -42.740103519485714,-10.115201625700543" fill="none" id="id67" stroke="none" /><text fill="#e1ed5e" style="font-size:6.75px; font-family:Arial;" text-anchor="middle"><textPath startOffset="22.20632615414155" xlink:href="#id67">July</textPath></text><path d="M 100.54218724476979 120.99299961872073 l 0.25386111350171187 9.829272655081013 a30.832550350385787,30.832550350385787 0 0,0 -0.5306726933353985,0.009136011671272827 l -0.08462873027364544 -9.832186144031445" fill="#ff720a" stroke="none" /><path d="M 97.65516085044442 120.86867818915974 l -1.5319456182487605 13.634061047038536 a34.71985706965073,34.71985706965073 0 0,0 -0.5933335513272855,-0.07184443008062573 l 1.7664065926274353 -13.605671088232562" fill="#ffa60f" stroke="none" /><path d="M 97.2962882734958 120.8252237178851 l -1.2875973554295088 9.917663455950962 a31.000897728464892,31.000897728464892 0 0,0 -0.5285969106716377,-0.07325871523306608 l 1.4581228572879776 -9.894030175225291" fill="#ff740a" stroke="none" /><path d="M 96.93821686468263 120.77559828337769 l -1.8079831372410826 12.267992115172536 a33.400501343191074,33.400501343191074 0 0,0 -0.5680695817754001,-0.08872078573230788 l 2.018888582625 -12.235053022093123" fill="#ff940d" stroke="none" /><path d="M 96.22490169976321 120.6578951692458 l -3.21119574584455 17.572137149759467 a38.86314032100982,38.86314032100982 0 0,0 -0.6570320673049076,-0.125921759448482 l 3.513195427721153 -17.514258191962515" fill="#ffdc14" stroke="none" /><path d="M 95.51606077576429 120.51570834832081 l -4.675534924839819 21.392330737210575 a42.89731584472401,42.89731584472401 0 0,0 -0.7200209276378813,-0.16387441894349591 l 5.0430760018705625 -21.308679584689393" fill="#f0ff19" stroke="none" /><path d="M 95.16358092515715 120.4354850818985 l -3.1617754876416138 13.359556897395622 a34.728604616966805,34.728604616966805 0 0,0 -0.5805410750589509,-0.1426828717553079 l 3.3912698474437755 -13.303152767326283" fill="#ffa60f" stroke="none" /><path d="M 94.81253420990036 120.34920634021253 l -4.8954454113344905 19.20367918235056 a40.81783741769016,40.81783741769016 0 0,0 -0.6793440133928339,-0.17942092839870266 l 5.225279867538814 -19.116566904648273" fill="#fff417" stroke="none" /><path d="M 94.46302465271185 120.25689768951611 l -5.22981806174663 19.13316978437898 a40.83504935604759,40.83504935604759 0 0,0 -0.6764400438037482,-0.19116871315590833 l 5.558389273654992 -19.04031227788455" fill="#fff517" stroke="none" /><path d="M 93.76903079525671 120.05430185196036 l -5.643632676847467 18.163966073998438 a40.020521899478645,40.020521899478645 0 0,0 -0.656105307062432,-0.21006420019868588 l 5.95545932900084 -18.064129027140044" fill="#ffea16" stroke="none" /><path d="M 93.08242187328487 119.8279376855182 l -6.004881618919981 17.211864668219913 a39.229286563504346,39.229286563504346 0 0,0 -0.6356647080005533,-0.22792674842196708 l 6.30026588755026 -17.10595037875799" fill="#ffe015" stroke="none" /><path d="M 92.7421414339146 119.70592522655815 l -6.650248719761227 18.056194236409816 a40.24193229220093,40.24193229220093 0 0,0 -0.6479521753400733,-0.24500006964991777 l 6.960071115861584 -17.939045916653264" fill="#ffed16" stroke="none" /><path d="M 92.06813273071674 119.44442032107085 l -4.992937614754456 12.239838908315892 a34.21904242093025,34.21904242093025 0 0,0 -0.5434774893355853,-0.22717363461960494 l 5.202886563587503 -12.152080230676315" fill="#ff9f0e" stroke="none" /><path d="M 91.40352486487194 119.15986991738527 l -3.377913483588241 7.528711701062619 a29.25177552895887,29.25177552895887 0 0,0 -0.45762592580430533,-0.21007361740249136 l 3.5070074051599653 -7.469451013326053" fill="#ff5c08" stroke="none" /><line stroke="#e1ed5e" stroke-width="0.3" x1="58.666819895761336" x2="56.23545636021788" y1="174.27360380694188" y2="178.64263932499728" /><path d="M 58.180547188652646 175.14741091055294 a86.0,86.0 0 0,1 -31.652253787137756,-30.449443065178592" fill="none" id="id68" stroke="none" /><text fill="#e1ed5e" style="font-size:6.75px; font-family:Arial;" text-anchor="middle"><textPath startOffset="22.20632615414155" xlink:href="#id68">August</textPath></text><path d="M 89.1626897886671 117.98757091392108 l -13.391848408287224 22.22754707719309 a46.95005689510873,46.95005689510873 0 0,0 -0.6886473375264294,-0.42302344036278094 l 13.772474945745962 -21.993735170001933" fill="#c0ff1e" stroke="none" /><path d="M 87.95078237400918 117.19931262002967 l -7.845631068943352 11.19902267887523 a34.67377182170051,34.67377182170051 0 0,0 -0.48588302321570753,-0.34666463607001147 l 8.037241420007945 -11.062313780960999" fill="#ffa50f" stroke="none" /><path d="M 87.65650970185807 116.9893568818739 l -8.031169455449382 11.053956438720851 a34.66344157858046,34.66344157858046 0 0,0 -0.47970081427397754,-0.3548711943730969 l 8.220255240141924 -10.914075295607987" fill="#ffa50f" stroke="none" /><path d="M 87.07902340077011 116.55440617244103 l -11.648737933792825 14.92440897724569 a39.93227611171662,39.93227611171662 0 0,0 -0.538215788198239,-0.4275911730527684 l 11.903911214708423 -14.72168389018779" fill="#ffe915" stroke="none" /><path d="M 85.97065885151581 115.62618273729859 l -14.775112715864003 16.456839192852637 a43.11631777638169,43.11631777638169 0 0,0 -0.5479887923736398,-0.500574769144455 l 15.0562010577045 -16.200071657121605" fill="#edff19" stroke="none" /><path d="M 84.9287848128048 114.62390073753433 l -10.67541630778767 10.358569397216328 a35.87496128739586,35.87496128739586 0 0,0 -0.42621751479708514,-0.4468873602695746 l 10.852140373963714 -10.173274920364253" fill="#ffb510" stroke="none" /><path d="M 84.67929136418377 114.36230785411682 l -13.91131457227969 13.041079710599028 a40.06815232651341,40.06815232651341 0 0,0 -0.4673732303501741,-0.5072413342110613 l 14.133734210625596 -12.799687121586626" fill="#ffeb16" stroke="none" /><path d="M 84.19399662182784 113.82643327865904 l -20.570945187404526 17.9946058663624 a48.33074507196841,48.33074507196841 0 0,0 -0.5423572425825911,-0.6308840018482168 l 20.8776449395579 -17.637844765352654" fill="#b0ff20" stroke="none" /><path d="M 83.72743513129214 113.27417163493432 l -16.145805713165743 13.17076920264776 a41.83641532309985,41.83641532309985 0 0,0 -0.45040305373268685,-0.5619470621669748 l 16.37012667895329 -12.890894306902526" fill="#fdff18" stroke="none" /><path d="M 83.50135304334701 112.99209946851258 l -12.418565142658997 9.779179711738001 a36.80674273963277,36.80674273963277 0 0,0 -0.3876857416388154,-0.5011360816320607 l 12.58505770151588 -9.563965635992687" fill="#ffc112" stroke="none" /><path d="M 83.06392112726016 112.41649034213515 l -14.385380206077377 10.546475116161654 a38.83724477180318,38.83724477180318 0 0,0 -0.39062909067902957,-0.5425496415674019 l 14.564789089132015 -10.29729186914311" fill="#ffdb14" stroke="none" /><path d="M 82.85270091963577 112.12312394758628 l -15.212702143816125 10.7553657752657 a39.630732660746986,39.630732660746986 0 0,0 -0.38902110853268457,-0.5604139214066407 l 15.395584159510944 -10.491910591672049" fill="#ffe615" stroke="none" /><path d="M 82.44556493220864 111.52570212397912 l -9.041330969559766 5.9362598202121575 a31.815953326183774,31.815953326183774 0 0,0 -0.29663852039474714,-0.4603895711302191 l 9.14217435333156 -5.77974864916049" fill="#ff7f0b" stroke="none" /><path d="M 82.05923443525364 110.91462005526583 l -15.923019524719026 9.687084289557442 a39.638190706653205,39.638190706653205 0 0,0 -0.34960718912346617,-0.5859617583388776 l 16.087407589540724 -9.411560437332453" fill="#ffe615" stroke="none" /><line stroke="#e1ed5e" stroke-width="0.3" x1="26.63291911575756" x2="22.317208475507996" y1="142.92168965132927" y2="145.44649492493687" /><path d="M 25.769776987707644 143.4266507060508 a86.0,86.0 0 0,1 -11.730757126820373,-40.83630448921669" fill="none" id="id69" stroke="none" /><text fill="#e1ed5e" style="font-size:6.75px; font-family:Arial;" text-anchor="middle"><textPath startOffset="21.46611528233685" xlink:href="#id69">September</textPath></text><path d="M 81.87401531095188 110.60418214915194 l -15.364754147047211 8.988788992559964 a38.800954961798304,38.800954961798304 0 0,0 -0.33229877606004476,-0.5793909256078859 l 15.517204919259633 -8.72297822109377" fill="#ffdb14" stroke="none" /><path d="M 81.69416730710424 110.29060199501025 l -16.231971566606607 9.124783438619335 a39.62091763960163,39.62091763960163 0 0,0 -0.3290867959773838,-0.5973881244204587 l 16.386634772035507 -8.844024795801053" fill="#ffe515" stroke="none" /><path d="M 81.35079622478065 109.6543875284942 l -12.236935686508145 6.334861300394592 a34.77944348262925,34.77944348262925 0 0,0 -0.2706525199059347,-0.5340230985856335 l 12.344166876200347 -6.123283990106274" fill="#ffa70f" stroke="none" /><path d="M 81.02952815118164 109.00673069616217 l -12.922976393980802 6.1355230961583 a35.30552209962562,35.30552209962562 0 0,0 -0.2559236490135941,-0.5512367719386253 l 13.026674659834223 -5.912166256940848" fill="#ffae10" stroke="none" /><path d="M 80.87730276802145 108.67885076344099 l -18.57928729917434 8.432223749847305 a41.40324273032965,41.40324273032965 0 0,0 -0.28895306396022075,-0.6515128778492443 l 18.72168144786584 -8.111162535505365" fill="#fffc17" stroke="none" /><path d="M 80.58989483394504 108.01547362559985 l -17.584337972178847 7.2615164129108365 a40.024682981190104,40.024682981190104 0 0,0 -0.25748714456836214,-0.6390619764516358 l 17.706727731004598 -6.957755068616395" fill="#ffea16" stroke="none" /><path d="M 80.45479744820244 107.68017299344265 l -16.580706223417337 6.5152915050033435 a38.81484892617502,38.81484892617502 0 0,0 -0.2389991429937224,-0.6239513454479998 l 16.69039964600457 -6.228916592722186" fill="#ffdb14" stroke="none" /><path d="M 80.32549172779594 107.34259656027581 l -4.106933044377237 1.5327220394895875 a25.383621320476347,25.383621320476347 0 0,0 -0.14925054290044565,-0.41067339350449206 l 4.132707848282907 -1.4618008489789782" fill="#ff2503" stroke="none" /><path d="M 80.20201598880116 107.00284435728193 l -12.910651920803767 4.566691532900023 a34.694510015944886,34.694510015944886 0 0,0 -0.1943044044670055,-0.5647395512567502 l 12.987347156214001 -4.343779278553976" fill="#ffa60f" stroke="none" /><path d="M 80.0844068197444 106.66101706037122 l -13.068685857007047 4.370984015502914 a34.780277620313676,34.780277620313676 0 0,0 -0.18501078676167437,-0.569404652616249 l 13.14198889478497 -4.145380462908861" fill="#ffa70f" stroke="none" /><path d="M 79.86692584326677 105.97154293290107 l -16.948333435846617 5.026937265784291 a38.678125028598686,38.678125028598686 0 0,0 -0.18382674615685787,-0.6399250191754856 l 17.03235281888958 -4.734454771104209" fill="#ffd914" stroke="none" /><path d="M 79.76711848015287 105.62410040840567 l -16.946616327314594 4.710622741207274 a38.589137885501515,38.589137885501515 0 0,0 -0.17238672654054668,-0.6415151388937091 l 17.025191130196912 -4.418216669138026" fill="#ffd814" stroke="none" /><path d="M 79.67330655649465 105.27499134158121 l -15.809971252735243 4.102854293572911 a37.33366475615942,37.33366475615942 0 0,0 -0.15607016007104965,-0.6234227087264699 l 15.878252727101353 -3.8301037454490494" fill="#ffc812" stroke="none" /><path d="M 79.50377843672027 104.57218783832718 l -20.979700373741537 4.680039713876898 a42.49536227876692,42.49536227876692 0 0,0 -0.1531167826940971,-0.7153106335451307 l 21.057151195160074 -4.318215260915604" fill="#f5ff19" stroke="none" /><path d="M 79.4281124754447 104.21870165774334 l -17.45732334837695 3.5799942451392255 a38.82062000282305,38.82062000282305 0 0,0 -0.12860729216774205,-0.6557658120339357 l 17.51636057352036 -3.278964706037335" fill="#ffdb14" stroke="none" /><path d="M 79.35854240842038 103.8639653848113 l -16.776159680912418 3.1404032399124695 a38.06756181030917,38.06756181030917 0 0,0 -0.11502486801604528,-0.6451205454092112 l 16.82773099126765 -2.8511639437700445" fill="#ffd213" stroke="none" /><path d="M 79.23777060512086 103.15116336523772 l -18.483410508789625 2.8052982631197274 a39.69508390945324,39.69508390945324 0 0,0 -0.09671603039061456,-0.6764316912912278 l 18.52896059019684 -2.486721099848099" fill="#ffe615" stroke="none" /><path d="M 79.1416061653843 102.43462659150553 l -18.49839280162075 2.1591633263822763 a39.62397708635426,39.62397708635426 0 0,0 -0.07324340932701563,-0.678143005066135 l 18.532818512448817 -1.8404239994313591" fill="#ffe515" stroke="none" /><path d="M 79.10278846688536 102.07522291339032 l -14.006497955881354 1.3909322518145235 a35.075392623910936,35.075392623910936 0 0,0 -0.054492802147389906,-0.6013235308844895 l 14.02836535430582 -1.1496273323814679" fill="#ffab0f" stroke="none" /><path d="M 79.07016306316243 101.71520430193888 l -18.267191217463168 1.4969999553788744 a39.328428297095414,39.328428297095414 0 0,0 -0.0494853532348664,-0.6751883285935169 l 18.29025312936237 -1.182338490288597" fill="#ffe215" stroke="none" /><path d="M 79.0235259727143 100.99374915477108 l -18.7961043630482 0.890455316726321 a39.81718496209478,39.81718496209478 0 0,0 -0.02654074596850312,-0.6848987222933697 l 18.808647241867906 -0.5667793474189544" fill="#ffe815" stroke="none" /><line stroke="#e1ed5e" stroke-width="0.3" x1="15.007084014347285" x2="10.007500721073583" y1="101.09737516637583" y2="101.16192664675087" /><path d="M 14.007167355692545 101.11028546245083 a86.0,86.0 0 0,1 10.666146001902534,-42.60595125391555" fill="none" id="id70" stroke="none" /><text fill="#e1ed5e" style="font-size:6.75px; font-family:Arial;" text-anchor="middle"><textPath startOffset="22.20632615414155" xlink:href="#id70">October</textPath></text><path d="M 79.00175016825051 100.2711162175752 l -17.81650222916761 0.23003549026684159 a38.81798720419107,38.81798720419107 0 0,0 -0.00287567847188559,-0.6682064023583848 l 17.817822204928998 0.07668039029521864" fill="#ffdb14" stroke="none" /><path d="M 79.00019446554 99.90962569577889 l -15.719316161862993 -0.06764930554375773 a36.719461728225546,36.719461728225546 0 0,0 0.008160450786997373,-0.6320359065852236 l 15.715822703958281 0.33822147018945325" fill="#ffc011" stroke="none" /><path d="M 79.00486145842228 99.54816195383935 l -18.957368384771144 -0.40798303256535495 a39.96175799420459,39.96175799420459 0 0,0 0.020719801482403242,-0.6875893392706665 l 18.947536888833096 0.7342425192610158" fill="#ffea16" stroke="none" /><path d="M 79.03285615573316 98.82574320788736 l -28.29578150477263 -1.5846943134889544 a49.34012185988333,49.34012185988333 0 0,0 0.054789641978224446,-0.8475715109335591 l 28.264311271789992 2.0715248886755253" fill="#a5ff21" stroke="none" /><path d="M 79.08570108090925 98.10471618934814 l -30.28931328610064 -2.744861079445851 a51.41343061361229,51.41343061361229 0 0,0 0.0874588342883585,-0.8806985258164894 l 30.237577326130054 3.2658351359667708" fill="#8dff24" stroke="none" /><path d="M 79.12142395522702 97.74499172005258 l -11.133906930504788 -1.2025270431571373 a32.19865861729282,32.19865861729282 0 0,0 0.06425878173374724,-0.550529999718054 l 11.111557795767451 1.3940007812000532" fill="#ff840c" stroke="none" /><path d="M 79.21141760316559 97.0276538004421 l -32.483385666774275 -4.644466183038659 a53.81373813666749,53.81373813666749 0 0,0 0.13900372123404178,-0.9158608464544994 l 32.39862605210094 5.202926141885251" fill="#73ff27" stroke="none" /><path d="M 79.32604984820605 96.31383870115002 l -17.653196276639694 -3.1475614692969227 a38.93160567223605,38.93160567223605 0 0,0 0.12330988420550029,-0.658726332139425 l 17.596400668524332 3.4509658788989204" fill="#ffdd14" stroke="none" /><path d="M 79.46518482838121 95.60439243477599 l -17.756355947232326 -3.800860727509139 a39.158599031718666,39.158599031718666 0 0,0 0.1467619781396588,-0.6579051708681035 l 17.68829958209063 4.105944067927202" fill="#ffe014" stroke="none" /><path d="M 79.54389044137918 95.25157060432595 l -17.307849842146535 -4.0176311497963075 a38.76803383084649,38.76803383084649 0 0,0 0.15648846034451688,-0.6487456965565518 l 17.236128581541205 4.314962078012256" fill="#ffdb14" stroke="none" /><path d="M 79.62865764111835 94.90015583598534 l -13.11043978852338 -3.2821204742070327 a34.51502668349959,34.51502668349959 0 0,0 0.1492424299264754,-0.5750919623253739 l 13.052001026726597 3.5073088620812705" fill="#ffa30f" stroke="none" /><path d="M 79.71946130924805 94.55025226153421 l -2.935803670093887 -0.7889035718252168 a24.03995263696251,24.03995263696251 0 0,0 0.11082787858171772,-0.39870684618085844 l 2.9217890209458086 0.8393217214250178" fill="#ff1101" stroke="none" /><path d="M 79.91906864156998 93.8553929516997 l -17.68859262193361 -5.4125702119696735 a39.498168159150936,39.498168159150936 0 0,0 0.20453377088138108,-0.6484279475870848 l 17.592803367284024 5.716248325983172" fill="#ffe415" stroke="none" /><path d="M 80.14247586403 93.16781622104843 l -17.986197064766525 -6.188334607552096 a40.02100865011219,40.02100865011219 0 0,0 0.22973377598357084,-0.6494883209885413 l 17.877010207973143 6.497020554967248" fill="#ffea16" stroke="none" /><path d="M 80.2630227832202 92.82701384747504 l -17.829786548838406 -6.479858116701015 a39.970763020756834,39.970763020756834 0 0,0 0.2405771923767851,-0.64462726811493 l 17.715604767959995 6.785808521845287" fill="#ffea16" stroke="none" /><path d="M 80.52162464483688 92.15188598940014 l -20.338361417422227 -8.194614606315461 a42.927167023848014,42.927167023848014 0 0,0 0.2820484806049906,-0.6830027676697937 l 20.194291249931034 8.543491944438566" fill="#f0ff19" stroke="none" /><path d="M 80.65960295795067 91.81776055985345 l -14.222507908502267 -6.0170411648597915 a36.44294387696293,36.44294387696293 0 0,0 0.24938998075245009,-0.5756264598938646 l 14.11682721790714 6.260966769340256" fill="#ffbd11" stroke="none" /><path d="M 80.803312248108 91.48605970444005 l -17.472755229726673 -7.749357428088801 a40.11412346580967,40.11412346580967 0 0,0 0.2853789096589529,-0.6287945990255415 l 17.336774003104367 8.048974035956414" fill="#ffec16" stroke="none" /><path d="M 81.10775173730289 90.83032412892265 l -17.410845412016766 -8.450651656153676 a40.35332145588447,40.35332145588447 0 0,0 0.30868366837905004,-0.6222874393193958 l 17.262801730684302 8.749098683972033" fill="#ffef16" stroke="none" /><path d="M 81.43458229118936 90.18545643968196 l -13.4744039536517 -7.123196828998702 a36.24137444493907,36.24137444493907 0 0,0 0.2963024031136519,-0.5490033524335081 l 13.349793451319576 7.354081164764682" fill="#ffba11" stroke="none" /><path d="M 81.6062741919709 89.86733742301443 l -30.903029965971925 -17.02373833989533 a56.281793153735556,56.281793153735556 0 0,0 0.47475664721639255,-0.8445391006276962 l 30.605415677463103 17.553160950457812" fill="#59ff2a" stroke="none" /><line stroke="#e1ed5e" stroke-width="0.3" x1="26.266209847984243" x2="21.928928074336255" y1="57.711370442889674" y2="55.22380399835377" /><path d="M 25.398753493254645 57.213857153982495 a86.0,86.0 0 0,1 29.58750427330803,-30.492523968695096" fill="none" id="id71" stroke="none" /><text fill="#e1ed5e" style="font-size:6.75px; font-family:Arial;" text-anchor="middle"><textPath startOffset="21.46611528233685" xlink:href="#id71">November</textPath></text><path d="M 81.96595687620814 89.24020034530311 l -16.31215959899387 -9.732458108024682 a39.994928049547944,39.994928049547944 0 0,0 0.3578292918661625,-0.5881772709507014 l 16.142214508841487 10.011803152182457" fill="#ffea16" stroke="none" /><path d="M 82.34701348167596 88.62581576622439 l -16.301969591830517 -10.503696092353426 a40.39282971032045,40.39282971032045 0 0,0 0.3816225391401019,-0.5812373087278593 l 16.118750417332496 10.782751465058952" fill="#ffef16" stroke="none" /><path d="M 82.7489923806493 88.02491185347247 l -15.64574091615525 -10.860764236086007 a40.04587642003642,40.04587642003642 0 0,0 0.3979556684645261,-0.5628800709610929 l 15.456472627886845 11.128470807378887" fill="#ffeb16" stroke="none" /><path d="M 82.95767976084542 87.72973835380427 l -13.301877242184933 -9.57718854338829 a37.3909267145505,37.3909267145505 0 0,0 0.38056376150772464,-0.5190885430103795 l 13.135050868163574 9.804739530070172" fill="#ffc912" stroke="none" /><path d="M 83.39014120810768 87.1503855733568 l -15.427522045633257 -11.934942513881566 a40.50516058068115,40.50516058068115 0 0,0 0.43137208946453703,-0.5477987470984111 l 15.21979587557475 12.198733654933026" fill="#fff016" stroke="none" /><path d="M 83.84228863543731 86.58626213691792 l -17.226854308358906 -14.301314256957985 a43.38955334162996,43.38955334162996 0 0,0 0.4820153466731692,-0.5705541349943429 l 16.97812834819861 14.595727341581444" fill="#eaff1a" stroke="none" /><path d="M 84.5562425177563 85.77008943001954 l -31.265602071393747 -28.80819139409925 a63.51411253085021,63.51411253085021 0 0,0 0.7477506730319892,-0.7976482825825842 l 30.7650840763913 29.342109093559888" fill="#33ff54" stroke="none" /><path d="M 85.05521093208273 85.24692304244772 l -15.246210621643153 -15.050631868402737 a42.42354914475388,42.42354914475388 0 0,0 0.5174949771775449,-0.5152726892861823 l 14.984879844298293 15.31084040833903" fill="#f6ff19" stroke="none" /><path d="M 85.57189188830299 84.74124197986013 l -10.237804868366025 -10.82721212888341 a35.90104597021897,35.90104597021897 0 0,0 0.4526816160205921,-0.42071822706638395 l 10.049915368550577 11.001834942024445" fill="#ffb610" stroke="none" /><path d="M 85.83668400450813 84.49514656593479 l -14.218689087453713 -15.565471418958913 a42.08210188430229,42.08210188430229 0 0,0 0.5390296678925802,-0.4839461580062478 l 13.948648431965163 15.80791658573444" fill="#faff18" stroke="none" /><path d="M 86.37877921826538 84.01681056812374 l -15.730795902630874 -18.45857246239522 a45.25235735098185,45.25235735098185 0 0,0 0.5972071321265533,-0.5001437983983092 l 15.41073123354521 18.726617418187345" fill="#d4ff1c" stroke="none" /><path d="M 86.65592168130627 83.78471172551755 l -11.987326209263184 -14.566607410506368 a39.86483610051005,39.86483610051005 0 0,0 0.5336128545065041,-0.4314778180576412 l 11.73480995619218 14.770791325828146" fill="#ffe815" stroke="none" /><path d="M 87.22198572758235 83.33499621200491 l -19.522643184949942 -25.461305308693376 a53.08444584139439,53.08444584139439 0 0,0 0.7299208529670034,-0.5497612536084866 l 19.08147617822455 25.793583151807717" fill="#7bff26" stroke="none" /><path d="M 87.80319425747018 82.90503203632743 l -11.060460575860752 -15.502273562371663 a40.043483760929284,40.043483760929284 0 0,0 0.5645537430570733,-0.39550597526441233 l 10.791975693220019 15.690364380400018" fill="#ffeb16" stroke="none" /><path d="M 88.09926311788651 82.69761687909137 l -11.065595280781091 -16.088177640222792 a40.52631195851919,40.52631195851919 0 0,0 0.5781663245613556,-0.3903804832226939 l 10.787024261813196 16.27627003574415" fill="#fff116" stroke="none" /><path d="M 88.39885842347998 82.49532879139004 l -10.34764563829093 -15.613302663945555 a39.73096341173114,39.73096341173114 0 0,0 0.5733234291005977,-0.3729055063157314 l 10.077355183406045 15.789107094420823" fill="#ffe715" stroke="none" /><path d="M 89.00827224532344 82.1063720568725 l -7.6748318970508205 -12.493994534521281 a35.66297869045155,35.66297869045155 0 0,0 0.5258386206778815,-0.31681188530994037 l 7.458631210155292 12.624253029289841" fill="#ffb310" stroke="none" /><line stroke="#e1ed5e" stroke-width="0.3" x1="56.76296977257108" x2="54.21961505331056" y1="26.818313649435495" y2="22.513508569990535" /><path d="M 56.25429882871898 25.957352633546506 a86.0,86.0 0 0,1 42.26535254187918,-11.944610805530505" fill="none" id="id72" stroke="none" /><text fill="#e1ed5e" style="font-size:6.75px; font-family:Arial;" text-anchor="middle"><textPath startOffset="22.20632615414155" xlink:href="#id72">December</textPath></text><path d="M 89.3179101791058 81.91981866633112 l -7.474578779438995 -12.651245401504932 a35.6943301357748,35.6943301357748 0 0,0 0.5316810999491365,-0.30798401073093074 l 7.255700947024536 12.77803356962591" fill="#ffb310" stroke="none" /><path d="M 89.63071344664047 81.73862282372117 l -9.627341049571562 -16.95473504432555 a40.49740331705857,40.49740331705857 0 0,0 0.6091501982377447,-0.3389914258063811 l 9.334066762261774 17.117941867692114" fill="#fff016" stroke="none" /><path d="M 90.26544431104013 81.39251694778311 l -12.370906726811004 -23.64683552231929 a47.687303413104125,47.687303413104125 0 0,0 0.730613797539943,-0.37424876429381154 l 11.962032441682297 23.856276811925607" fill="#b7ff1f" stroke="none" /><path d="M 90.58718382345135 81.22770947309562 l -11.430266400543731 -22.795758213733333 a46.50093297364607,46.50093297364607 0 0,0 0.718613755274784,-0.3526206488080614 l 11.03618137825852 22.98913402267622" fill="#c5ff1e" stroke="none" /><path d="M 91.23893434514133 80.91482961587045 l -6.121398564104004 -13.334900021015248 a35.67280065124198,35.67280065124198 0 0,0 0.5602632161499858,-0.25137377380574 l 5.890953229487244 13.438294125337517" fill="#ffb310" stroke="none" /><path d="M 91.90106846888425 80.62456947434976 l -9.55068730233418 -22.84852978292711 a45.76430780757408,45.76430780757408 0 0,0 0.7294310485865458,-0.2975532396413416 l 9.155972384159256 23.00954390875203" fill="#ceff1d" stroke="none" /><path d="M 92.23578459929587 80.48803036053334 l -4.495403051072842 -11.297235241792015 a33.15878993567956,33.15878993567956 0 0,0 0.5321462112649177,-0.20646446258336446 l 4.300273674808247 11.372942408265931" fill="#ff910d" stroke="none" /><path d="M 92.57280143429618 80.3572730644239 l -5.604918802462975 -14.82333999271818 a36.84760307812892,36.84760307812892 0 0,0 0.5952075341437355,-0.21921995798814878 l 5.348928942546671 14.91762321851265" fill="#ffc212" stroke="none" /><path d="M 93.25333710446033 80.11325718540243 l -5.949909195401443 -17.538198628151985 a39.51998462618246,39.51998462618246 0 0,0 0.6460899803278255,-0.21300570843666314 l 5.647136392831209 17.638018060847884" fill="#ffe415" stroke="none" /><path d="M 93.59665428221793 80.00007090966166 l -5.764877612969034 -18.005765822338738 a39.90612114478836,39.90612114478836 0 0,0 0.65600841607422,-0.20382500815960033 l 5.454083824184085 18.102330965380865" fill="#ffe915" stroke="none" /><path d="M 94.28887869178378 79.79150937346287 l -6.1603493811442585 -21.798059611507405 a43.65182790250259,43.65182790250259 0 0,0 0.7248325966116885,-0.19812412936393978 l 5.784218895308848 21.900870281697642" fill="#e7ff1a" stroke="none" /><path d="M 94.98787191387505 79.60689891045804 l -1.9161331359707432 -7.796268585203565 a29.02828562318239,29.02828562318239 0 0,0 0.4862601566819801,-0.1150820686510628 l 1.781649292326229 7.828096565995499" fill="#ff5908" stroke="none" /><path d="M 95.33964822691252 79.52364482259891 l -3.873366583987364 -17.018550051095723 a38.45376791800556,38.45376791800556 0 0,0 0.6466775201883608,-0.14133865860115133 l 3.5798463396454823 17.082702207792742" fill="#ffd714" stroke="none" /><path d="M 96.04723909329186 79.375362276772 l -3.421911146790801 -17.854780339449217 a39.17973203505798,39.17973203505798 0 0,0 0.6634525650260897,-0.12124171557644685 l 3.114063460661818 17.911037536376398" fill="#ffe015" stroke="none" /><path d="M 96.75951476605007 79.25152402106235 l -2.9219173460147876 -18.708720296290664 a39.93551731803967,39.93551731803967 0 0,0 0.6801037988361848,-0.10022962097837326 l 2.599444566749954 18.756244401430006" fill="#ffe915" stroke="none" /><path d="M 97.11714578562143 79.19881850522333 l -1.179043788350041 -8.507368742211964 a29.588682504948707,29.588682504948707 0 0,0 0.505100327661016,-0.06557651900687071 l 1.0324287321811672 8.526403584382972" fill="#ff6008" stroke="none" /><path d="M 97.83486435360386 79.11191278185805 l -3.5121834551094326 -33.8836942888788 a55.06523405591898,55.06523405591898 0 0,0 0.9436473384581063,-0.0896106852383413 l 2.92841098956109 33.939130518632325" fill="#66ff29" stroke="none" /><path d="M 98.55514903715128 79.0497635885617 l -1.2078452897342167 -17.513670973013422 a38.55527160698193,38.55527160698193 0 0,0 0.6624859625283437,-0.039962962430395065 l 0.90619727836625 17.53186720482412" fill="#ffd814" stroke="none" /><path d="M 98.91598698831166 79.02799685794201 l -0.9540917238097226 -18.458463518242194 a39.48310489262343,39.48310489262343 0 0,0 0.6790326332240421,-0.029240573569717872 l 0.6362182581963565 18.4721518183361" fill="#ffe415" stroke="none" /><path d="M 99.63851952072746 79.00311137660856 l -0.3348006434041185 -19.447168584989956 a40.45005031982807,40.45005031982807 0 0,0 0.6962811226766494,-0.005993111446673441 l 4.763888373486481e-15 19.450050319828073" fill="#fff016" stroke="none" /></svg>