<?xml version="1.0" encoding="utf-8" ?>
<svg baseProfile="full" height="200mm" version="1.1" viewBox="0,0,200,200" width="200mm" xmlns="http://www.w3.org/2000/svg" xmlns:ev="http://www.w3.org/2001/xml-events" xmlns:xlink="http://www.w3.org/1999/xlink"><defs /><rect fill="#1a1a1a" height="200" width="200" x="0" y="0" /><text alignment-baseline="middle" fill="#e1ed5e" style="dominant-baseline: central; font-size:9.0px; font-family:Arial;" text-anchor="middle" x="100.0" y="100.0">2024</text><line stroke="#e1ed5e" stroke-width="0.3" x1="100.0" x2="100.0" y1="15.0" y2="10.0" /><path d="M 100.0 14.0 a86.0,86.0 0 0,1 42.35913384403234,11.155469271406648" fill="none" id="id97" stroke="none" /><text fill="#e1ed5e" style="font-size:6.75px; font-family:Arial;" text-anchor="middle"><textPath startOffset="22.145653131862478" xlink:href="#id97">January</textPath></text><path d="M 101.80034050326958 79.07731436759882 l 0.38943698977498986 -4.525848135890472 a25.542572235875646,25.542572235875646 0 0,0 0.4365352537012198,0.04134034238949753 l -0.4670718068612226 4.51849603799579" fill="#ff2803" stroke="none" /><path d="M 102.15924093988457 79.11130261209362 l 0.8422560367906499 -8.148063122866578 a29.19147898036298,29.19147898036298 0 0,0 0.49801232846852567,0.055803320159210364 l -0.9820042668599722 8.132404042200395" fill="#ff5b08" stroke="none" /><path d="M 102.51750503828377 79.15144685158666 l 0.9555965099803403 -7.913709932570843 a28.971196245655793,28.971196245655793 0 0,0 0.49323072305600846,0.06385859192268843 l -1.0913050549271404 7.8961397444477575" fill="#ff5808" stroke="none" /><path d="M 103.23170211078529 79.25015418208739 l 1.1947766922454843 -7.6713234391845475 a28.763806711460255,28.763806711460255 0 0,0 0.4872349116714043,0.0801743193009009 l -1.326289106969959 7.649683121387978" fill="#ff5507" stroke="none" /><path d="M 103.58742460773223 79.30868818359171 l 1.3152627572977689 -7.5860860666171845 a28.6992608691262,28.6992608691262 0 0,0 0.48469671443030776,0.08832788746627236 l -1.4452942052791302 7.562390005219546" fill="#ff5407" stroke="none" /><path d="M 103.94208987418118 79.37332000966035 l 0.6626207628173312 -3.4671118279429907 a24.529862703106,24.529862703106 0 0,0 0.4129234607138606,0.08259625673875497 l -0.7220407090621487 3.4552261745413766" fill="#ff1902" stroke="none" /><path d="M 104.29559338865022 79.4440306129975 l 2.039798951313779 -9.761176397568986 a30.97202809995232,30.97202809995232 0 0,0 0.5195005871586417,0.1132227350416585 l -2.207061955091555 9.724722204393608" fill="#ff740a" stroke="none" /><path d="M 104.64783097203109 79.52079915486377 l 1.5567261590699863 -6.859222692115264 a28.033657105259095,28.033657105259095 0 0,0 0.4683861376817538,0.11053785314356136 l -1.6742444504916252 6.831488695325475" fill="#ff4b07" stroke="none" /><path d="M 104.9986988182912 79.60360301121754 l 1.8253055540361223 -7.4478695475150065 a28.668278891798114,28.668278891798114 0 0,0 0.476978328434877,0.12124602587890185 l -1.9528891756963935 7.4154382898008375" fill="#ff5407" stroke="none" /><path d="M 106.72888874123014 80.10723608172694 l 20.186666223690402 -59.67829175481916 a84.0,84.0 0 0,0 1.3619769118199267,0.4737662697256382 l -21.208148907555344 59.32296705252493" fill="#4dd2ff" stroke="none" /><path d="M 108.07796709384702 80.6158196554323 l 3.009456142310271 -7.221599187503946 a28.823574700700867,28.823574700700867 0 0,0 0.455089827569399,0.19425078607548094 l -3.1329810450501 7.1688737517690635" fill="#ff5608" stroke="none" /><path d="M 108.4095320186766 80.7573450057729 l 1.6803149702266083 -3.8448894875358297 a25.196025925864994,25.196025925864994 0 0,0 0.3948416396906759,0.176607643250735 l -1.7460700127729158 3.815478093375242" fill="#ff2203" stroke="none" /><path d="M 108.73861861582097 80.90454125486305 l 2.0354149978545477 -4.44774910423449 a25.891358329514404,25.891358329514404 0 0,0 0.40256289084683183,0.1884197595082879 l -2.1114666025728845 4.412153113155669" fill="#ff2d04" stroke="none" /><path d="M 109.06512990194946 81.05736502329252 l 4.433125335478372 -9.263526937203828 a31.269641257432568,31.269641257432568 0 0,0 0.4822072776415022,0.23587174320929083 l -4.591492862381941 9.186061443897318" fill="#ff780b" stroke="none" /><path d="M 109.3889696526874 81.21577127319529 l 2.282624730913026 -4.566778531514222 a26.10547175274479,26.10547175274479 0 0,0 0.3991312544824504,0.2037992624615217 l -2.360683207109055 4.526921317379867" fill="#ff3004" stroke="none" /><path d="M 109.71004243097381 81.37971332152246 l 3.912220876874626 -7.5021993770653985 a29.460996849230835,29.460996849230835 0 0,0 0.44641993788105633,0.23769347221866316 l -4.040429630542242 7.433935437124162" fill="#ff5f08" stroke="none" /><path d="M 110.02825361518725 81.54914285379988 l 3.33314657553614 -6.132614278863656 a27.97988710419665,27.97988710419665 0 0,0 0.4200391440159131,0.23298863259145627 l -3.437929907708153 6.0744927308390535" fill="#ff4a06" stroke="none" /><path d="M 110.34350942703115 81.72400993836675 l 3.097669619024711 -5.47328540384656 a27.28907069292344,27.28907069292344 0 0,0 0.40570730549622774,0.23423522204044483 l -3.191169392381336 5.419303284529944" fill="#ff4106" stroke="none" /><line stroke="#e1ed5e" stroke-width="0.3" x1="143.13028292997686" x2="145.6673583964461" y1="26.7553504044142" y2="22.446841604673864" /><path d="M 143.63769802327073 25.89364864446614 a86.0,86.0 0 0,1 29.32050498858742,28.57503671076993" fill="none" id="id98" stroke="none" /><text fill="#e1ed5e" style="font-size:6.75px; font-family:Arial;" text-anchor="middle"><textPath startOffset="20.669276256404974" xlink:href="#id98">February</textPath></text><path d="M 110.65571695917076 81.90426304109057 l 2.132819750770603 -3.621994215743051 a25.20330372304373,25.20330372304373 0 0,0 0.37092931463461337,0.22273239577322917 l -2.194681821962651 3.5848478194339006" fill="#ff2303" stroke="none" /><path d="M 111.27062007382361 82.28071324371311 l 5.149099564789526 -8.095239758554353 a30.594067598083456,30.594067598083456 0 0,0 0.44072119124383785,0.2856701515218828 l -5.2873063882903715 8.005655765328576" fill="#ff6f0a" stroke="none" /><path d="M 112.16784306229584 82.88440491214696 l 3.7343761802591304 -5.252867766275975 a27.445012430218263,27.445012430218263 0 0,0 0.38164118095934424,0.2762787836859294 l -3.8239983715924426 5.187988211216971" fill="#ff4306" stroke="none" /><path d="M 112.7482090630111 83.31218511350987 l 5.343526549124769 -6.994847782310948 a29.80233897773209,29.80233897773209 0 0,0 0.4038785380796447,0.3140583940482299 l -5.46281503183964 6.902088336641927" fill="#ff6409" stroke="none" /><path d="M 113.03279911837588 83.53348406188908 l 4.808602831600585 -6.075512593066323 a28.74819427096305,28.74819427096305 0 0,0 0.3843349235833437,0.3095930087969933 l -4.912188525539189 5.992071290475922" fill="#ff5507" stroke="none" /><path d="M 113.31354834802062 83.75963576809568 l 5.4185805912698095 -6.609787272469139 a29.54694702284862,29.54694702284862 0 0,0 0.3894930134801596,0.32492892464420614 l -5.531247938911862 6.515796163913063" fill="#ff6008" stroke="none" /><path d="M 113.59037401385872 83.9905735841838 l 2.884953275937493 -3.3984677049425387 a25.45786250863347,25.45786250863347 0 0,0 0.33073463303480755,0.2856806988126619 l -2.942867388735161 3.3484428736651566" fill="#ff2603" stroke="none" /><path d="M 114.13192950727249 84.46653392183569 l 5.78678451036255 -6.3606898723281375 a29.599142435226298,29.599142435226298 0 0,0 0.3729072325237308,0.34515736724224194 l -5.8951215142002455 6.260414758953521" fill="#ff6109" stroke="none" /><path d="M 114.65682725009322 84.96080404539774 l 1.4481278198835916 -1.4859067162984945 a23.074847693750502,23.074847693750502 0 0,0 0.28130225958907756,0.2788979812191902 l -1.4734219996026316 1.4608287248506449" fill="#ff0300" stroke="none" /><path d="M 114.91283532996326 85.21462403516908 l 3.141748284285886 -3.114895896201369 a25.42415627278077,25.42415627278077 0 0,0 0.3046215851350487,0.31256858204550336 l -3.1947566705717465 3.0605046220881236" fill="#ff2603" stroke="none" /><path d="M 115.16444852881244 85.47280134310134 l 1.3315028477837938 -1.275549608363916 a22.843888998029353,22.843888998029353 0 0,0 0.26884447145901846,0.2855035121720381 l -1.3532031529790722 1.252504636247383" fill="#ff0000" stroke="none" /><path d="M 115.6541949942343 86.00192230759917 l 6.766010005276766 -6.0502078680065745 a30.07655808319398,30.07655808319398 0 0,0 0.3408518122860476,0.38782679307734746 l -6.868872881521404 5.933168797117929" fill="#ff6809" stroke="none" /><path d="M 115.8921839302757 86.27271002978787 l 6.388224591713041 -5.517996252121373 a29.44142737175371,29.44142737175371 0 0,0 0.32708786018765024,0.38530867685032866 l -6.482007015407804 5.407520792821492" fill="#ff5f08" stroke="none" /><path d="M 116.1254893667686 86.54754324733833 l 6.452957296710603 -5.3832864842952395 a29.403596328070883,29.403596328070883 0 0,0 0.32001359364781007,0.39036455076784127 l -6.544417709597041 5.271719651828903" fill="#ff5e08" stroke="none" /><path d="M 116.35404254752997 86.82634096563983 l 4.341728929203042 -3.4973894905010643 a26.57515410934495,26.57515410934495 0 0,0 0.28313114691116087,0.35772695495741424 l -4.401126506755762 3.4223425916289716" fill="#ff3605" stroke="none" /><path d="M 116.57777611688842 87.10902102172516 l 6.640309822311153 -5.163545081384047 a29.41165336564503,29.41165336564503 0 0,0 0.3065086753243792,0.4012296950602728 l -6.7279704749898395 5.048794473082892" fill="#ff5e08" stroke="none" /><path d="M 116.7966241395341 87.39550010848427 l 5.784958715073529 -4.341140868000027 a28.232651752360624,28.232651752360624 0 0,0 0.28756700912490957,0.3901398767211473 l -5.8586277437822645 4.241194682010004" fill="#ff4e07" stroke="none" /><path d="M 117.01052211995028 87.68569379921539 l 3.609520195331686 -2.6130142631600877 a25.456060993746085,25.456060993746085 0 0,0 0.2532088948806649,0.35617002086830923 l -3.653844188742312 2.5506670155822744" fill="#ff2603" stroke="none" /><path d="M 117.21940702142032 87.97951657250589 l 6.303998130349437 -4.400680288151346 a28.68806734010395,28.68806734010395 0 0,0 0.27842488356410783,0.4062302259484902 l -6.37861275072887 4.291815327132807" fill="#ff5407" stroke="none" /><path d="M 117.42321728460499 88.27688183743584 l 2.9081881802442506 -1.9567587959831105 a24.505205197612494,24.505205197612494 0 0,0 0.2318373996189735,0.3510313718510534 l -2.9413500187839485 1.9065475457929983" fill="#ff1802" stroke="none" /><path d="M 117.62189284568427 88.57770195909679 l 6.450377650669446 -4.181056861912075 a28.68691149414366,28.68691149414366 0 0,0 0.26430523123860505,0.4155317234391299 l -6.521200573533942 4.069711463794273" fill="#ff5407" stroke="none" /><line stroke="#e1ed5e" stroke-width="0.3" x1="172.87174338648825" x2="177.1583165268699" y1="56.24261187166439" y2="53.66864786411523" /><path d="M 173.72905801456457 55.72781907015455 a86.0,86.0 0 0,1 12.242430191666344,42.057860355516425" fill="none" id="id99" stroke="none" /><text fill="#e1ed5e" style="font-size:6.75px; font-family:Arial;" text-anchor="middle"><textPath startOffset="22.145653131862474" xlink:href="#id99">March</textPath></text><path d="M 118.00360718960297 89.18935116829356 l 4.206553876960988 -2.5259147390052212 a25.906662897377334,25.906662897377334 0 0,0 0.22566712984457324,0.38323212202299695 l -4.249294716935329 2.4533314486886675" fill="#ff2d04" stroke="none" /><path d="M 118.18653347947321 89.5 l 6.863461092350155 -3.962621109240886 a28.92524221848177,28.92524221848177 0 0,0 0.24457894888940176,0.43214756758532485 l -6.930473406260933 3.844216771556443" fill="#ff5808" stroke="none" /><path d="M 118.36410011445183 89.81374322990088 l 5.242453511963353 -2.9079005911181084 a26.99493158200508,26.99493158200508 0 0,0 0.2213001432694222,0.4071673380611376 l -5.291599004848116 2.8174784195823674" fill="#ff3c05" stroke="none" /><path d="M 118.53625476483649 90.13048839642627 l 6.781609763273452 -3.6108252232541314 a28.682987034624883,28.682987034624883 0 0,0 0.22767726173182143,0.43660116974299107 l -6.842595093980218 3.493877810406642" fill="#ff5407" stroke="none" /><path d="M 118.70294669586156 90.45014215332178 l 6.415673517549616 -3.27588861154451 a28.203631922789675,28.203631922789675 0 0,0 0.21646970671711738,0.4330844207420372 l -6.470963137478471 3.1652723346387224" fill="#ff4e07" stroke="none" /><path d="M 119.0197475246899 91.09779779509293 l 6.952371536595627 -3.254060924945105 a28.676221888801784,28.676221888801784 0 0,0 0.20485137012304228,0.4476372135050316 l -7.00720737157372 3.134234729225389" fill="#ff5407" stroke="none" /><path d="M 119.16976305983485 91.42560881287824 l 6.361039999731778 -2.8452122827176485 a27.968361558638804,27.968361558638804 0 0,0 0.19227065640792768,0.43995288900197344 l -6.408944538156676 2.7355973239398255" fill="#ff4a06" stroke="none" /><path d="M 119.31412917781788 91.75594674310238 l 4.858662429077802 -2.0738740770465505 a26.282760101232867,26.282760101232867 0 0,0 0.17355902668041348,0.4164784820878175 l -4.893547300294699 1.9901630855174552" fill="#ff3204" stroke="none" /><path d="M 119.4528033332814 92.08871423366111 l 9.198676707865467 -3.7410217366245972 a30.930301949574563,30.930301949574563 0 0,0 0.19580549166068129,0.493557748599034 l -9.261540874492272 3.582562970811998" fill="#ff730a" stroke="none" /><path d="M 119.58574465831526 92.42381321644754 l 5.1886634761822785 -2.0070864977739835 a26.563328579062592,26.563328579062592 0 0,0 0.16085906338151032,0.4266977768258507 l -5.222353223378229 1.9177204407539752" fill="#ff3605" stroke="none" /><path d="M 119.71291397450082 92.76114493625339 l 7.22580733433124 -2.653416541026913 a28.69759124486812,28.69759124486812 0 0,0 0.16584451398217231,0.463896622081037 l -7.270292018357355 2.528984962564959" fill="#ff5407" stroke="none" /><path d="M 119.83427380445688 93.10060997987247 l 5.331452001270499 -1.8545557600444675 a26.64479915576855,26.64479915576855 0 0,0 0.14656489246512425,0.43329306169843956 l -5.362502315307989 1.7627610238718663" fill="#ff3705" stroke="none" /><path d="M 119.94978838288452 93.4421083053983 l 5.339168763078718 -1.7550908217908676 a26.620237261305796,26.620237261305796 0 0,0 0.13897701324857667,0.43534351457213305 l -5.368510492104552 1.6631782735273475" fill="#ff3705" stroke="none" /><path d="M 120.05942366710727 93.78553927170692 l 7.387209917574699 -2.2885765157701234 a28.733592492163556,28.733592492163556 0 0,0 0.14192161680015947,0.4724109048234279 l -7.425407854378486 2.161428007355972" fill="#ff5507" stroke="none" /><path d="M 120.26092885502905 94.47779374421319 l 11.774720518024635 -3.209252437043994 a33.20423469465673,33.20423469465673 0 0,0 0.14516657270466776,0.5512211215208788 l -11.828076571534032 3.0066508111503167" fill="#ff920d" stroke="none" /><path d="M 120.43855184770803 95.1765574152323 l 6.150155278068597 -1.4514198996195784 a27.319100384498313,27.319100384498313 0 0,0 0.10379845155708309,0.4573551296601311 l -6.174164591183347 1.345630436020421" fill="#ff4106" stroke="none" /><path d="M 120.51834098615036 95.52812308129327 l 4.734023351279314 -1.0317583556825638 a25.845152463543187,25.845152463543187 0 0,0 0.09075622413118715,0.4343013865907091 l -4.751037286234868 0.9503405178064501" fill="#ff2c04" stroke="none" /><path d="M 120.592083275326 95.88100663000786 l 6.214426688961524 -1.2430593829622838 a27.337530725925347,27.337530725925347 0 0,0 0.08809676495589651,0.46095950039871986 l -6.234849746199577 1.1361973175302493" fill="#ff4106" stroke="none" /><path d="M 120.77682067341334 96.94652285012252 l 25.567446374913825 -3.7575341537417017 a46.842085385096716,46.842085385096716 0 0,0 0.1100911318925458,0.7965645885384729 l -25.628182023361582 3.318081257003143" fill="#c1ff1e" stroke="none" /><path d="M 120.86939407059847 97.66154086499901 l 7.535490810575477 -0.8443674628547021 a28.58264981181349,28.58264981181349 0 0,0 0.050451925955156365,0.48807661731842567 l -7.548875129012299 0.714886323253345" fill="#ff5307" stroke="none" /><path d="M 120.9064616781168 98.02013634271609 l 4.892285128706057 -0.46330448817813424 a25.914173870481633,25.914173870481633 0 0,0 0.03813872548178343,0.44322980137736095 l -4.899517476885581 0.37925363942511126" fill="#ff2d04" stroke="none" /><line stroke="#e1ed5e" stroke-width="0.3" x1="184.99686870605535" x2="189.99668451229388" y1="99.2704041080226" y2="99.22748670261217" /><path d="M 185.99683186730306 99.26182062694052 a86.0,86.0 0 0,1 -10.086455211305974,41.156179273409016" fill="none" id="id100" stroke="none" /><text fill="#e1ed5e" style="font-size:6.75px; font-family:Arial;" text-anchor="middle"><textPath startOffset="21.40746469413373" xlink:href="#id100">April</textPath></text><line stroke="#e1ed5e" stroke-width="0.3" x1="174.33088141563837" x2="178.70328620479359" y1="141.23008692659167" y2="143.65538615756765" /><path d="M 175.20536237346943 141.71514677278685 a86.0,86.0 0 0,1 -30.301960400862466,31.631185727798858" fill="none" id="id101" stroke="none" /><text fill="#e1ed5e" style="font-size:6.75px; font-family:Arial;" text-anchor="middle"><textPath startOffset="22.145653131862474" xlink:href="#id101">May</textPath></text><line stroke="#e1ed5e" stroke-width="0.3" x1="143.1302829299769" x2="145.66735839644613" y1="173.24464959558577" y2="177.55315839532614" /><path d="M 143.63769802327073 174.10635135553383 a86.0,86.0 0 0,1 -40.68552437913181,11.842963189579606" fill="none" id="id102" stroke="none" /><text fill="#e1ed5e" style="font-size:6.75px; font-family:Arial;" text-anchor="middle"><textPath startOffset="21.407464694133747" xlink:href="#id102">June</textPath></text><line stroke="#e1ed5e" stroke-width="0.3" x1="101.45913802915013" x2="101.54496967792366" y1="184.9874750549273" y2="189.98673829345242" /><path d="M 101.47630435890484 185.9873277026323 a86.0,86.0 0 0,1 -42.54439059252881,-10.42667462771756" fill="none" id="id103" stroke="none" /><text fill="#e1ed5e" style="font-size:6.75px; font-family:Arial;" text-anchor="middle"><textPath startOffset="22.145653131862474" xlink:href="#id103">July</textPath></text><line stroke="#e1ed5e" stroke-width="0.3" x1="58.13341422392154" x2="55.67067388415222" y1="173.97424548756322" y2="178.32567169271397" /><path d="M 57.64086615596768 174.84453072859336 a86.0,86.0 0 0,1 -31.369924170532247,-30.572349798747897" fill="none" id="id104" stroke="none" /><text fill="#e1ed5e" style="font-size:6.75px; font-family:Arial;" text-anchor="middle"><textPath startOffset="22.145653131862474" xlink:href="#id104">August</textPath></text><line stroke="#e1ed5e" stroke-width="0.3" x1="26.387840678322732" x2="22.057713659400548" y1="142.50000000000003" y2="145.00000000000006" /><path d="M 25.521815274538298 143.00000000000003 a86.0,86.0 0 0,1 -11.493303480769221,-40.785679425670985" fill="none" id="id105" stroke="none" /><text fill="#e1ed5e" style="font-size:6.75px; font-family:Arial;" text-anchor="middle"><textPath startOffset="21.40746469413373" xlink:href="#id105">September</textPath></text><line stroke="#e1ed5e" stroke-width="0.3" x1="15.003131293944662" x2="10.003315487706104" y1="100.72959589197737" y2="100.7725132973878" /><path d="M 14.003168132696942 100.73817937305945 a86.0,86.0 0 0,1 10.791469493833604,-42.45332614584628" fill="none" id="id106" stroke="none" /><text fill="#e1ed5e" style="font-size:6.75px; font-family:Arial;" text-anchor="middle"><textPath startOffset="22.145653131862435" xlink:href="#id106">October</textPath></text><line stroke="#e1ed5e" stroke-width="0.3" x1="26.387840678322718" x2="22.05771365940052" y1="57.49999999999999" y2="54.99999999999999" /><path d="M 25.521815274538284 56.99999999999999 a86.0,86.0 0 0,1 29.574782752854787,-30.34633250058573" fill="none" id="id107" stroke="none" /><text fill="#e1ed5e" style="font-size:6.75px; font-family:Arial;" text-anchor="middle"><textPath startOffset="21.40746469413373" xlink:href="#id107">November</textPath></text><line stroke="#e1ed5e" stroke-width="0.3" x1="56.869717070023135" x2="54.33264160355391" y1="26.7553504044142" y2="22.446841604673864" /><path d="M 56.362301976729285 25.89364864446614 a86.0,86.0 0 0,1 42.16139366436587,-11.88097634709845" fill="none" id="id108" stroke="none" /><text fill="#e1ed5e" style="font-size:6.75px; font-family:Arial;" text-anchor="middle"><textPath startOffset="22.145653131862474" xlink:href="#id108">December</textPath></text></svg>