<?xml version="1.0" encoding="utf-8" ?>
<svg baseProfile="full" height="200mm" version="1.1" viewBox="0,0,200,200" width="200mm" xmlns="http://www.w3.org/2000/svg" xmlns:ev="http://www.w3.org/2001/xml-events" xmlns:xlink="http://www.w3.org/1999/xlink"><defs /><rect fill="#1a1a1a" height="200" width="200" x="0" y="0" /><text alignment-baseline="middle" fill="#e1ed5e" style="dominant-baseline: central; font-size:9.0px; font-family:Arial;" text-anchor="middle" x="100.0" y="100.0">2026</text><line stroke="#e1ed5e" stroke-width="0.3" x1="100.0" x2="100.0" y1="15.0" y2="10.0" /><path d="M 100.0 14.0 a86.0,86.0 0 0,1 42.46469731375804,11.215312516191453" fill="none" id="id121" stroke="none" /><text fill="#e1ed5e" style="font-size:6.75px; font-family:Arial;" text-anchor="middle"><textPath startOffset="22.20632615414155" xlink:href="#id121">January</textPath></text><path d="M 100.0 79.0 l 0.0 -6.8782414594773655 a27.878241459477366,27.878241459477366 0 0,0 0.4798780992403404,0.004130462303084473 l -0.11839761996781205 6.87722237378284" fill="#ff2803" stroke="none" /><path d="M 100.36148047927253 79.00311137660856 l 0.14548258589726587 -8.45047472238432 a29.451726936931628,29.451726936931628 0 0,0 0.5068128410724253,0.013089480441373737 l -0.290922062164559 8.446718449800585" fill="#ff3f05" stroke="none" /><path d="M 100.72285384407766 79.0124445844662 l 0.7148428843803986 -20.754962807836705 a41.76726947636675,41.76726947636675 0 0,0 0.718315822735957,0.03093219034448134 l -1.071999539505687 20.739582890968027" fill="#ffeb16" stroke="none" /><path d="M 101.08401301168833 79.027996857942 l 0.3289737206539225 -6.364534215749997 a27.373030636387472,27.373030636387472 0 0,0 0.47034420437545665,0.028372446862234744 l -0.43847997386899107 6.357928499507458" fill="#ff2003" stroke="none" /><path d="M 101.44485096284872 79.0497635885617 l 0.5975894569111799 -8.665004710650635 a29.685586899836366,29.685586899836366 0 0,0 0.5094750834875138,0.039545071919260696 l -0.7466547297610349 8.65343437654291" fill="#ff4306" stroke="none" /><path d="M 101.80526077348638 79.07773832637324 l 0.9789871367524441 -11.346075509463699 a32.388232754926406,32.388232754926406 0 0,0 0.5550338641167014,0.05270715326263235 l -1.1741461279593897 11.32754281168589" fill="#ff6a09" stroke="none" /><path d="M 102.16513564639614 79.11191278185805 l 1.4584584534463743 -14.070438233434604 a35.14582387637169,35.14582387637169 0 0,0 0.6012166747131242,0.06755369858380646 l -1.7004418316692238 14.043248581380196" fill="#ff910d" stroke="none" /><path d="M 103.2404852339499 79.25152402106235 l 1.8693802608142938 -11.969439339097814 a33.11453922573469,33.11453922573469 0 0,0 0.562428047332769,0.09280544687937496 l -2.075137514285938 11.935487629278814" fill="#ff750a" stroke="none" /><path d="M 103.59715602781102 79.31037775812273 l 2.0708006233764102 -11.910543302725106 a33.08922069398462,33.08922069398462 0 0,0 0.5603184913182756,0.10239462282275105 l -2.275514235797587 11.873133198551617" fill="#ff740a" stroke="none" /><path d="M 103.95276090670814 79.375362276772 l 2.356803854079962 -12.297284561941247 a33.521091486127105,33.521091486127105 0 0,0 0.5657619435242384,0.11348652345893384 l -2.5681322070713257 12.254894082405105" fill="#ff7a0b" stroke="none" /><path d="M 104.307194497241 79.44645832069477 l 3.2981639873058066 -15.738539557871364 a37.080407740534525,37.080407740534525 0 0,0 0.6235817040439814,0.13629080774622213 l -3.568588415503316 15.679435252029272" fill="#ffac0f" stroke="none" /><path d="M 104.66035177308747 79.52364482259891 l 3.5675239507082335 -15.674758274779652 a37.07561115826238,37.07561115826238 0 0,0 0.6210629427078411,0.14698553280004606 l -3.836810580378598 15.611026829838737" fill="#ffac0f" stroke="none" /><path d="M 105.01212808612495 79.60689891045804 l 3.034338556140354 -12.345967990436225 a33.71338413225038,33.71338413225038 0 0,0 0.5623570854226014,0.14335734247704726 l -3.2464045302479807 12.29190765179031" fill="#ff7d0b" stroke="none" /><path d="M 106.0581310904928 79.89281104454417 l 18.174393271478365 -60.321566866367476 a84.0,84.0 0 0,0 1.380858509157127,0.4290394604699177 l -19.21003715334621 59.99978727101504" fill="#4dd2ff" stroke="none" /><path d="M 106.40334571778207 80.00007090966166 l 1.3300460133449958 -4.154207366926436 a25.36193320043313,25.36193320043313 0 0,0 0.41462796804043023,0.1366963221210979 l -1.4013568036278437 4.130697320546102" fill="#ff0100" stroke="none" /><path d="M 106.74666289553966 80.11325718540242 l 4.107902151425417 -12.108622419379811 a33.78646147222886,33.78646147222886 0 0,0 0.5491393961664082,0.19158395268776646 l -4.315723551655099 12.036117613519838" fill="#ff7e0b" stroke="none" /><path d="M 107.08798089147638 80.2323363322302 l 4.666300687443004 -13.013841878860214 a34.82513806634881,34.82513806634881 0 0,0 0.5625382066436075,0.20718756896205662 l -4.889621219859189 12.931591042091833" fill="#ff8d0d" stroke="none" /><path d="M 108.09893153111575 80.62456947434976 l 7.324331494221397 -17.522320749088763 a39.99151274309632,39.99151274309632 0 0,0 0.6328490111936425,0.27095291955094336 l -7.624864263205355 17.393648301575027" fill="#ffd413" stroke="none" /><path d="M 108.43124777332544 80.76684994638697 l 3.8732197057522737 -8.835491233815628 a30.647162081765835,30.647162081765835 0 0,0 0.4813324796577728,0.21595985311742877 l -4.024734303876826 8.767511050181666" fill="#ff5107" stroke="none" /><path d="M 109.08828744355905 81.06846463323043 l 6.962093367126081 -14.502525104430887 a37.08707488815879,37.08707488815879 0 0,0 0.5731343535115906,0.2812345381729686 l -7.210698987648104 14.380535406123087" fill="#ffac0f" stroke="none" /><path d="M 109.41281617654863 81.2277094730956 l 6.330821039449796 -12.625765721685083 a35.1240665210986,35.1240665210986 0 0,0 0.5381333350665894,0.2756527954332383 l -6.547214862105141 12.514920400939344" fill="#ff910d" stroke="none" /><path d="M 109.73455568895987 81.39251694778311 l 7.433399759903645 -14.208851895482795 a37.035800702749476,37.035800702749476 0 0,0 0.5623356433267583,0.3003802257485486 l -7.676880449758715 14.078792943232493" fill="#ffac0f" stroke="none" /><path d="M 110.36928655335952 81.73862282372117 l 18.50252763931304 -32.5848489379966 a58.47153465439601,58.47153465439601 0 0,0 0.8709565284600886,0.504514237638105 l -19.06068090023846 32.261530542968444" fill="#4eff2c" stroke="none" /><line stroke="#e1ed5e" stroke-width="0.3" x1="143.23703022742887" x2="145.7803849466894" y1="26.81831364943548" y2="22.513508569990506" /><path d="M 143.74570117128098 25.957352633546492 a86.0,86.0 0 0,1 28.547481713284135,27.462654790039103" fill="none" id="id122" stroke="none" /><text fill="#e1ed5e" style="font-size:6.75px; font-family:Arial;" text-anchor="middle"><textPath startOffset="19.985693538727396" xlink:href="#id122">February</textPath></text><path d="M 110.68208982089419 81.91981866633111 l 5.9582886381494715 -10.084818684576804 a32.71344404504032,32.71344404504032 0 0,0 0.48234872481005786,0.29060970966134125 l -6.130999429177167 9.980762365456847" fill="#ff6f0a" stroke="none" /><path d="M 110.99172775467656 82.1063720568725 l 3.3358211526857273 -5.430442231029361 a27.37317860939521,27.37317860939521 0 0,0 0.3993627459339018,0.2500809148662006 l -3.4288030509918923 5.372216974840216" fill="#ff2003" stroke="none" /><path d="M 111.2981086023043 82.29822771554956 l 7.143937527638397 -11.193055384757294 a34.27856664874054,34.27856664874054 0 0,0 0.49464457159141073,0.32173058879695626 l -7.335549125014087 11.06842587180081" fill="#ff850c" stroke="none" /><path d="M 111.90073688211348 82.69761687909136 l 7.5088679472158475 -10.917081128170144 a34.25012295066632,34.25012295066632 0 0,0 0.48287594624398184,0.33828545891271394 l -7.69567503304348 10.786210826493495" fill="#ff850c" stroke="none" /><path d="M 112.19680574252982 82.90503203632743 l 8.213363888606823 -11.511800344587275 a35.141460092236244,35.141460092236244 0 0,0 0.4893945044829005,0.3555659204789353 l -8.410303709443513 11.368715189291665" fill="#ff910d" stroke="none" /><path d="M 112.48926042617603 83.11751280151076 l 10.829869552661151 -14.639388390117103 a39.20982611021732,39.20982611021732 0 0,0 0.5391422904662015,0.40607079558727327 l -11.080257996885736 14.450801005023983" fill="#ffc912" stroke="none" /><path d="M 112.77801427241765 83.33499621200491 l 7.534889825531371 -9.826954705760231 a33.38319843465166,33.38319843465166 0 0,0 0.4530059408823042,0.35357832231980796 l -7.702928321573106 9.6957979942172" fill="#ff780b" stroke="none" /><path d="M 113.06298171725822 83.55741782278167 l 9.091574753096348 -11.443709272027231 a35.61558118563271,35.61558118563271 0 0,0 0.4767342299729432,0.38548592599469983 l -9.287212381633783 11.285517248768402" fill="#ff980e" stroke="none" /><path d="M 113.34407831869373 83.78471172551755 l 10.241607572397829 -12.445267122563628 a37.11754321908149,37.11754321908149 0 0,0 0.4898498737982217,0.41023518197779535 l -10.454314983155168 12.267130783192014" fill="#ffad10" stroke="none" /><path d="M 113.6212207817346 84.01681056812373 l 3.4951218333258494 -4.101188523751376 a26.388471391511793,26.388471391511793 0 0,0 0.34318358005972965,0.29760541884064345 l -3.565199212032343 4.040418111491062" fill="#ff1101" stroke="none" /><path d="M 113.89432698308785 84.25364557470407 l 9.404014471817039 -10.657511160784166 a35.21330476449384,35.21330476449384 0 0,0 0.45104724152774367,0.40495466691114684 l -9.586072700940772 10.49405748510372" fill="#ff920d" stroke="none" /><path d="M 114.16331599549186 84.49514656593476 l 16.19772108450045 -17.73195567062021 a45.016419804710914,45.016419804710914 0 0,0 0.5676187173366177,0.5275397364418135 l -16.500547685631915 17.450511348103756" fill="#eaff1a" stroke="none" /><path d="M 114.42810811169701 84.74124197986012 l 7.644927020214901 -8.085058039488711 a32.127132274144714,32.127132274144714 0 0,0 0.3985550615283321,0.38340965341549404 l -7.782965325355651 7.952265299310914" fill="#ff6609" stroke="none" /><path d="M 114.68862486808459 84.99185889309783 l 17.316461376715207 -17.69313997382064 a45.75695935983414,45.75695935983414 0 0,0 0.5581568991042026,0.5557599959977707 l -17.61845407598673 17.39244412717275" fill="#e0ff1b" stroke="none" /><path d="M 114.94478906791727 85.2469230424477 l 7.934443965962678 -7.832660729653724 a32.14925895092858,32.14925895092858 0 0,0 0.3853865415910199,0.397174707542945 l -8.068094771256806 7.694921826560664" fill="#ff6709" stroke="none" /><path d="M 115.19652480421416 85.50635884689758 l 8.06006449126497 -7.687262970469543 a32.13816194802817,32.13816194802817 0 0,0 0.378362087874189,0.40361029481052285 l -8.191193901109623 7.547383258780966" fill="#ff6709" stroke="none" /><path d="M 115.4437574822437 85.77008943001954 l 7.115876149092412 -6.55658322432625 a30.675974211764863,30.675974211764863 0 0,0 0.3544628677515827,0.3914067518015994 l -7.22768265746003 6.433123685255102" fill="#ff5107" stroke="none" /><path d="M 115.9244219780498 86.31012108654704 l 8.324583417986435 -7.156463145366182 a31.977871097530667,31.977871097530667 0 0,0 0.3552427585871893,0.42049537683319776 l -8.446536790060742 7.012108818903878" fill="#ff6409" stroke="none" /><path d="M 116.38621287248628 86.86637796730983 l 9.294236293116779 -7.449371462839166 a32.91116969334463,32.91116969334463 0 0,0 0.35049756213314887,0.4450963103243869 l -9.421087935843891 7.288282758561741" fill="#ff720a" stroke="none" /><path d="M 116.60985879189232 87.15038557335679 l 13.020456702990487 -10.072803772052348 a37.46188532898714,37.46188532898714 0 0,0 0.3901816974292756,0.5134333772324502 l -13.191914340643875 9.847185618938864" fill="#ffb110" stroke="none" /><path d="M 117.2510076193507 88.02491185347247 l 9.411787218247982 -6.533356430058944 a32.45715867411151,32.45715867411151 0 0,0 0.3146420676169979,0.46169840943603163 l -9.522853751533713 6.370379997352506" fill="#ff6b09" stroke="none" /><path d="M 117.45458315368197 88.32363383020206 l 8.256178977658251 -5.523028998042277 a30.933193878322417,30.933193878322417 0 0,0 0.29224998783737177,0.4451167815954967 l -8.350025600853549 5.380094152469107" fill="#ff5507" stroke="none" /><line stroke="#e1ed5e" stroke-width="0.3" x1="172.23445277983987" x2="176.4835382374775" y1="55.19839476539836" y2="52.563006222186495" /><path d="M 173.08426987136738 54.67131705675599 a86.0,86.0 0 0,1 12.851231095245387,41.99856678651699" fill="none" id="id123" stroke="none" /><text fill="#e1ed5e" style="font-size:6.75px; font-family:Arial;" text-anchor="middle"><textPath startOffset="22.20632615414155" xlink:href="#id123">March</textPath></text><path d="M 118.03404312379186 89.2402003453031 l 14.706627445196464 -8.774536237956442 a38.12534312073824,38.12534312073824 0 0,0 0.3314005973423822,0.566471045940101 l -14.855487717009174 8.520085779662445" fill="#ffba11" stroke="none" /><path d="M 118.21658344932153 89.55222093294921 l 11.011726011600425 -6.31556849483664 a33.69427095848874,33.69427095848874 0 0,0 0.28422298250088424,0.5056009714164276 l -11.118806635393742 6.125084013485418" fill="#ff7d0b" stroke="none" /><path d="M 118.3937258080291 89.86733742301442 l 11.660289766677009 -6.423374089008233 a34.31247881238558,34.31247881238558 0 0,0 0.2805321289440301,0.5197834294867593 l -11.769129994839505 6.221709676189015" fill="#ff860c" stroke="none" /><path d="M 118.56541770881063 90.18545643968196 l 12.722806436765483 -6.725867413361267 a35.3912159350597,35.3912159350597 0 0,0 0.2800802970190616,0.5410259860727866 l -12.83669616694466 6.505868705028136" fill="#ff950d" stroke="none" /><path d="M 118.89224826269711 90.83032412892265 l 28.286048249333223 -13.72911738790645 a52.44183820667173,52.44183820667173 0 0,0 0.38717511018194206,0.8154895240066827 l -28.51818155335692 13.240185448259227" fill="#90ff24" stroke="none" /><path d="M 119.04729006885535 91.15688171328212 l 13.211251531007825 -6.133610586175408 a35.56565638199665,35.56565638199665 0 0,0 0.2530203171022881,0.5574967296209108 l -13.31487416507346 5.9052918477124345" fill="#ff970e" stroke="none" /><path d="M 119.196687751892 91.48605970444005 l 6.18020830782894 -2.7409897596419035 a27.760769156732067,27.760769156732067 0 0,0 0.1899752585588175,0.4384890893438991 l -6.226474276230438 2.6342015257114015" fill="#ff2603" stroke="none" /><path d="M 119.34039704204932 91.81776055985345 l 3.999937200066223 -1.6922322662422065 a25.343172532537114,25.343172532537114 0 0,0 0.1665146759519775,0.40322849564333396 l -4.028473562904398 1.6231292001455695" fill="#ff0100" stroke="none" /><path d="M 119.47837535516314 92.15188598940014 l 13.18353281253378 -5.311832567587498 a35.21341277263269,35.21341277263269 0 0,0 0.22168763329619792,0.5641708461127506 l -13.273013995711677 5.084112716578963" fill="#ff920d" stroke="none" /><path d="M 119.85752413597 93.16781622104841 l 57.39475142832434 -19.747249809217013 a81.69688102816124,81.69688102816124 0 0,0 0.44607549852831924,1.3337089630385424 l -57.726164220624426 18.756367743256156" fill="#4ae8ff" stroke="none" /><path d="M 120.08093135843002 93.85539295169968 l 9.555161374614782 -2.9238042241231605 a30.99248417741708,30.99248417741708 0 0,0 0.15170688606177857,0.5114802022674241 l -9.604074157788263 2.7588946351092063" fill="#ff5608" stroke="none" /><path d="M 120.18372546131832 94.20196356495316 l 9.616084926106758 -2.7623448837987756 a31.0049806877948,31.0049806877948 0 0,0 0.1429377289958552,0.5142230624415532 l -9.662209425668976 2.5964105179382706" fill="#ff5608" stroke="none" /><path d="M 120.28053869075195 94.5502522615342 l 10.479233287905592 -2.8159596144091146 a31.850988842143916,31.850988842143916 0 0,0 0.13772317240117754,0.5307035640795161 l -10.526152792177072 2.6351596247807483" fill="#ff6209" stroke="none" /><path d="M 120.45610955862082 95.25157060432595 l 10.575658462285146 -2.454903136738459 a31.856845827480086,31.856845827480086 0 0,0 0.11939583709682863,0.5352281265341009 l -10.616348686384013 2.2724968406543944" fill="#ff6309" stroke="none" /><path d="M 120.53481517161879 95.60439243477599 l 9.467381455511374 -2.026553109970203 a30.681850501411937,30.681850501411937 0 0,0 0.10610178981158762,0.5173900084049903 l -9.500862541237959 1.8632874454018007" fill="#ff5107" stroke="none" /><path d="M 120.6074358757038 95.95851677861258 l 12.70008614671821 -2.4907118664215484 a33.942018147707756,33.942018147707756 0 0,0 0.10750613172062858,0.5743020544306716 l -12.741078002348697 2.271731734528314" fill="#ff800b" stroke="none" /><path d="M 120.67395015179393 96.31383870115 l 6.250722846776445 -1.1145026701936511 a27.349303293203263,27.349303293203263 0 0,0 0.0786463578378752,0.4641752558741952 l -6.268981066134543 1.0067416260036182" fill="#ff2003" stroke="none" /><path d="M 120.73433829027371 96.67025291283417 l 6.975067923318367 -1.1201327853007916 a28.064436990419726,28.064436990419726 0 0,0 0.07249191955592293,0.47763117574249964 l -6.99331573631359 0.9999024971662099" fill="#ff2b04" stroke="none" /><path d="M 120.78858239683441 97.02765380044208 l 9.792561703586342 -1.4001379703516235 a30.89215098219625,30.89215098219625 0 0,0 0.07073420080635195,0.5270519557661895 l -9.81521190345053 1.2313676725207696" fill="#ff5507" stroke="none" /><path d="M 120.87857604477298 97.74499172005257 l 10.17320144059645 -1.0987652334585996 a31.23236593311689,31.23236593311689 0 0,0 0.053129042041684636,0.5350022028635885 l -10.190607608320365 0.9234874998905761" fill="#ff5908" stroke="none" /><path d="M 120.94382443527127 98.46500227214037 l 38.870283387981445 -2.8488491615375198 a59.974541334147595,59.974541334147595 0 0,0 0.06659861231874167,1.030251055327401 l -38.913562591304604 2.1793390419570837" fill="#3eff2e" stroke="none" /><path d="M 120.96714384426684 98.82574320788733 l 11.30707954056597 -0.63324862213402 a32.32479808005954,32.32479808005954 0 0,0 0.026331459987172356,0.5558155032077943 l -11.316304608786638 0.4385220123032259" fill="#ff6909" stroke="none" /><path d="M 120.98425023603335 99.18683210126433 l 12.734790707782208 -0.4934902550344002 a33.74434882615938,33.74434882615938 0 0,0 0.017496132400691342,0.5806114565045511 l -12.741398534638545 0.27420865110484993" fill="#ff7e0b" stroke="none" /><line stroke="#e1ed5e" stroke-width="0.3" x1="184.98032266829074" x2="189.97916517819016" y1="98.17113171792111" y2="98.06355123074" /><path d="M 185.9800911702706 98.14961562048488 a86.0,86.0 0 0,1 -9.607161424134198,41.387399972396054" fill="none" id="id124" stroke="none" /><text fill="#e1ed5e" style="font-size:6.75px; font-family:Arial;" text-anchor="middle"><textPath startOffset="21.466115282336823" xlink:href="#id124">April</textPath></text><path d="M 120.99513854157772 99.54816195383933 l 11.395323223507928 -0.24523965728935757 a32.397961829104645,32.397961829104645 0 0,0 0.007200050345569268,0.5576518339982124 l -11.397856280971213 0.04905156523068244" fill="#ff6a09" stroke="none" /><path d="M 120.9904718944345 100.63252640178507 l 15.431177116756656 0.4650027396267435 a36.43818171795418,36.43818171795418 0 0,0 -0.02428842032531615,0.6267762054268247 l -15.420886563580137 -0.7305561920675744" fill="#ffa30f" stroke="none" /><path d="M 120.9764740272857 100.99374915477107 l 14.885973738911341 0.7052149852136786 a35.90266896669613,35.90266896669613 0 0,0 -0.03455828346161841,0.6170613661489093 l -14.871629104562192 -0.9613480676980113" fill="#ff9c0e" stroke="none" /><path d="M 120.95626037817324 101.35467743843564 l 15.053841852584348 0.9731268628783797 a36.08526202668935,36.08526202668935 0 0,0 -0.04540460972591568,0.6195098255797385 l -15.034860684194093 -1.2321098249548885" fill="#ff9e0e" stroke="none" /><path d="M 120.92983693683757 101.71520430193887 l 4.252261865848296 0.3484737060916457 a25.2665167173685,25.2665167173685 0 0,0 -0.03925382421791297,0.4331626792762541 l -4.245633445353308 -0.4216177739164704" fill="#ff0000" stroke="none" /><path d="M 120.89721153311464 102.0752229133903 l 8.787969638310088 0.8726999737118135 a29.83119559334842,29.83119559334842 0 0,0 -0.05514182649551184,0.5105448294677916 l -8.771645510313524 -1.0238411250643966" fill="#ff4506" stroke="none" /><path d="M 120.8583938346157 102.4346265915055 l 7.1987684303287764 0.8402522833509303 a28.247640361743585,28.247640361743585 0 0,0 -0.06052862779125135,0.48247271814439113 l -7.183238293290676 -0.9640427557827163" fill="#ff2d04" stroke="none" /><path d="M 120.81339534386255 102.79330883721812 l 10.695460025614395 1.4354084239538318 a31.791351282535153,31.791351282535153 0 0,0 -0.07745879323026186,0.5417466194436489 l -10.669167181367532 -1.61930051537789" fill="#ff6209" stroke="none" /><path d="M 120.76222939487914 103.15116336523771 l 25.970876308486766 3.941699729346415 a47.26829672793896,47.26829672793896 0 0,0 -0.1290159925131196,0.8033827085345778 l -25.899178561612356 -4.388161667574198" fill="#ceff1d" stroke="none" /><path d="M 120.70491114924044 103.5080841355445 l 8.195892928498987 1.3886503425127428 a29.312701767126043,29.312701767126043 0 0,0 -0.08857120056069034,0.496754329727115 l -8.170775285599108 -1.529523422973076" fill="#ff3d05" stroke="none" /><path d="M 120.64145759157962 103.86396538481128 l 16.564921314381106 3.100860599447279 a37.85265423038288,37.85265423038288 0 0,0 -0.12540055675508324,0.6394147372510386 l -16.50909082465036 -3.3855390637662626" fill="#ffb711" stroke="none" /><path d="M 120.5718875245553 104.21870165774334 l 16.870920737996535 3.4597399582360877 a38.22201402642493,38.22201402642493 0 0,0 -0.13771930634272675,0.6433787501153602 l -16.808867392929365 -3.749632527767617" fill="#ffbc11" stroke="none" /><path d="M 120.49622156327973 104.57218783832717 l 8.362014987212397 1.8653537243634364 a29.567545690765897,29.567545690765897 0 0,0 -0.11508735483741551,0.495793312523669 l -8.32866706644443 -2.00901569423567" fill="#ff4106" stroke="none" /><path d="M 120.41448212921028 104.9243191809786 l 13.749725485109918 3.316666889268589 a35.14408817033646,35.14408817033646 0 0,0 -0.14691682432249223,0.5868596824333479 l -13.690597346492366 -3.5528544110993328" fill="#ff910d" stroke="none" /><path d="M 120.23288151984713 105.62410040840565 l 5.3196425950594 1.4786922002235774 a26.521333893378696,26.521333893378696 0 0,0 -0.12604878105530698,0.4387923429000661 l -5.293401177117993 -1.5700420186282253" fill="#ff1302" stroke="none" /><path d="M 120.13307415673323 105.97154293290107 l 24.157472320692424 7.165194047881622 a46.19768788339158,46.19768788339158 0 0,0 -0.23268945477050737,0.7604426015117675 l -24.030556093415786 -7.5799636219454465" fill="#dbff1b" stroke="none" /><path d="M 120.02730092923936 106.31721596034902 l 16.823281703161122 5.306571467426064 a38.64036586930147,38.64036586930147 0 0,0 -0.2055442043413479,0.6326000138631572 l -16.729445247803525 -5.595370381267016" fill="#ffc112" stroke="none" /><path d="M 119.9155931802556 106.66101706037122 l 10.164526265148744 3.399651833110914 a31.717986134590447,31.717986134590447 0 0,0 -0.1776345711163481,0.5162892125637192 l -10.104500863089166 -3.5741137487639336" fill="#ff6108" stroke="none" /><path d="M 119.79798401119884 107.00284435728193 l 18.444302835430108 6.524026989921257 a40.5641313441276,40.5641313441276 0 0,0 -0.23850886163796195,0.656273951747619 l -18.329269712786918 -6.840548738675007" fill="#ffdb14" stroke="none" /><path d="M 119.41010516605496 108.01547362559984 l 13.414178857629015 5.539434017618853 a35.51294331484879,35.51294331484879 0 0,0 -0.2381887248033145,0.5630077856231753 l -13.316839151633392 -5.7695163289081925" fill="#ff970d" stroke="none" /><path d="M 119.26925614724726 108.34839909993367 l 14.293868483086197 6.192813976154145 a36.57772836953498,36.57772836953498 0 0,0 -0.2552758187063425,0.5755795803348307 l -14.185151579648581 -6.437941892981664" fill="#ffa50f" stroke="none" /><path d="M 119.12269723197855 108.67885076344098 l 16.39486915969495 7.4408239066394275 a39.00437711150079,39.00437711150079 0 0,0 -0.282736011939139,0.6089882163404761 l -16.264358530915977 -7.721932190258734" fill="#ffc612" stroke="none" /><path d="M 118.97047184881838 109.00673069616215 l 8.94468743340085 4.2467257280690855 a30.9016217202377,30.9016217202377 0 0,0 -0.23227239780302528,0.47854993628593445 l -8.87026177898311 -4.400064620320295" fill="#ff5507" stroke="none" /><path d="M 118.64920377521936 109.65438752849418 l 14.258826928092137 7.381561300137092 a37.056201063544485,37.056201063544485 0 0,0 -0.2981215344952329,0.5639335932313351 l -14.12965288537201 -7.6259099084545605" fill="#ffac0f" stroke="none" /><line stroke="#e1ed5e" stroke-width="0.3" x1="174.80103733775053" x2="179.2010983576182" y1="140.37084112569926" y2="142.7455964860345" /><path d="M 175.68104954172406 140.8457921977663 a86.0,86.0 0 0,1 -30.038265399797805,32.042727171017184" fill="none" id="id125" stroke="none" /><text fill="#e1ed5e" style="font-size:6.75px; font-family:Arial;" text-anchor="middle"><textPath startOffset="22.206326154141568" xlink:href="#id125">May</textPath></text><path d="M 118.48025628344425 109.97397251340804 l 25.21539473422795 13.608991679364895 a49.653460281996544,49.653460281996544 0 0,0 -0.41241594407346177,0.748654732802083 l -24.977402380702976 -14.041016930564782" fill="#b1ff20" stroke="none" /><path d="M 118.30583269289576 110.29060199501025 l 4.961876616072573 2.789313016291635 a26.692142536513096,26.692142536513096 0 0,0 -0.22859659779085909,0.39857743671293333 l -4.913128022129334 -2.8743102988628833" fill="#ff1602" stroke="none" /><path d="M 118.12598468904814 110.60418214915192 l 11.05587960800621 6.467983019605479 a33.80887497981897,33.80887497981897 0 0,0 -0.2981928674947707,0.4997883979429278 l -10.942905864813211 -6.657333511434511" fill="#ff7f0b" stroke="none" /><path d="M 117.75023020441432 111.22182372390056 l 15.607191499368179 9.866979177966535 a39.46460680860482,39.46460680860482 0 0,0 -0.3679513372315129,0.5710686465108461 l -15.435035298759615 -10.134169424398833" fill="#ffcc13" stroke="none" /><path d="M 117.55443506779139 111.5257021239791 l 12.601870263685962 8.274000405217738 a36.07535130099182,36.07535130099182 0 0,0 -0.3452873134626981,0.5161576844288362 l -12.457579844812543 -8.48969500385238" fill="#ff9e0e" stroke="none" /><path d="M 117.35343817320211 111.8261652097733 l 18.675691685788703 12.727265518137532 a43.60010503320305,43.60010503320305 0 0,0 -0.4279850523419074,0.6165443885320644 l -18.45384572628466 -13.046851168856616" fill="#fbff18" stroke="none" /><path d="M 116.93607887273984 112.41649034213515 l 10.737502606683703 7.872075845674829 a34.31403546444865,34.31403546444865 0 0,0 -0.3533344554005745,0.4733492441005417 l -10.600406884588036 -8.055737969284687" fill="#ff860c" stroke="none" /><path d="M 116.71984013943494 112.70617746262583 l 13.855370383298913 10.529334816149492 a38.40224641041996,38.40224641041996 0 0,0 -0.4044911956903237,0.5228593963916389 l -13.67207237039052 -10.766272206654381" fill="#ffbe11" stroke="none" /><path d="M 116.498646956653 112.99209946851258 l 27.432300950665457 21.60196430274543 a55.916700834772016,55.916700834772016 0 0,0 -0.6019887845585404,0.7510735687438572 l -27.056394254052062 -22.070965705067536" fill="#69ff28" stroke="none" /><path d="M 116.27256486870786 113.27417163493432 l 9.89948520133926 8.075399712356733 a33.775440805149,33.775440805149 0 0,0 -0.37137544701274977,0.44734564980820973 l -9.759013754432967 -8.244606619278713" fill="#ff7e0b" stroke="none" /><path d="M 115.56566222782051 114.09645910891815 l 10.46755664071193 9.479550692829147 a35.122026177727825,35.122026177727825 0 0,0 -0.4096793557477483,0.4446260280087435 l -10.30283087696846 -9.658327975639224" fill="#ff910d" stroke="none" /><path d="M 115.32070863581623 114.36230785411682 l 18.087495596005965 16.9560159542829 a45.79241767108306,45.79241767108306 0 0,0 -0.5440432478787314,0.5704271703446081 l -17.79294579674827 -17.264850241210016" fill="#e0ff1b" stroke="none" /><path d="M 115.07121518719521 114.62390073753431 l 7.896692261416262 7.662318024887683 a32.00312983591624,32.00312983591624 0 0,0 -0.38702356425694423,0.39205282726954593 l -7.763628072103781 -7.797111346137894" fill="#ff6509" stroke="none" /><path d="M 114.81725581225074 114.88116024355365 l 11.350979562061493 11.399934503707625 a37.08736285744688,37.08736285744688 0 0,0 -0.4562629504989334,0.4465493276846985 l -11.153066659186766 -11.593633934314896" fill="#ffac0f" stroke="none" /><path d="M 114.29624159901734 115.38237550388516 l 8.771364527452226 9.437754804871403 a33.88441117903028,33.88441117903028 0 0,0 -0.4306554576063435,0.3933935497810492 l -8.607609520379018 -9.587341121239035" fill="#ff800b" stroke="none" /><line stroke="#e1ed5e" stroke-width="0.3" x1="143.8653032363475" x2="146.44561519142675" y1="172.8068346515853" y2="177.08958963109032" /><path d="M 144.38136562736335 173.6633856474863 a86.0,86.0 0 0,1 -40.68145358897372,12.25698825130547" fill="none" id="id126" stroke="none" /><text fill="#e1ed5e" style="font-size:6.75px; font-family:Arial;" text-anchor="middle"><textPath startOffset="21.466115282336833" xlink:href="#id126">June</textPath></text><line stroke="#e1ed5e" stroke-width="0.3" x1="102.19456741930631" x2="102.32365962044197" y1="184.97166512339345" y2="189.96999836594603" /><path d="M 102.22038585953345 185.97133177190398 a86.0,86.0 0 0,1 -42.740103519485714,-10.115201625700543" fill="none" id="id127" stroke="none" /><text fill="#e1ed5e" style="font-size:6.75px; font-family:Arial;" text-anchor="middle"><textPath startOffset="22.20632615414155" xlink:href="#id127">July</textPath></text><line stroke="#e1ed5e" stroke-width="0.3" x1="58.666819895761336" x2="56.23545636021788" y1="174.27360380694188" y2="178.64263932499728" /><path d="M 58.180547188652646 175.14741091055294 a86.0,86.0 0 0,1 -31.652253787137756,-30.449443065178592" fill="none" id="id128" stroke="none" /><text fill="#e1ed5e" style="font-size:6.75px; font-family:Arial;" text-anchor="middle"><textPath startOffset="22.20632615414155" xlink:href="#id128">August</textPath></text><line stroke="#e1ed5e" stroke-width="0.3" x1="26.63291911575756" x2="22.317208475507996" y1="142.92168965132927" y2="145.44649492493687" /><path d="M 25.769776987707644 143.4266507060508 a86.0,86.0 0 0,1 -11.730757126820373,-40.83630448921669" fill="none" id="id129" stroke="none" /><text fill="#e1ed5e" style="font-size:6.75px; font-family:Arial;" text-anchor="middle"><textPath startOffset="21.46611528233685" xlink:href="#id129">September</textPath></text><line stroke="#e1ed5e" stroke-width="0.3" x1="15.007084014347285" x2="10.007500721073583" y1="101.09737516637583" y2="101.16192664675087" /><path d="M 14.007167355692545 101.11028546245083 a86.0,86.0 0 0,1 10.666146001902534,-42.60595125391555" fill="none" id="id130" stroke="none" /><text fill="#e1ed5e" style="font-size:6.75px; font-family:Arial;" text-anchor="middle"><textPath startOffset="22.20632615414155" xlink:href="#id130">October</textPath></text><line stroke="#e1ed5e" stroke-width="0.3" x1="26.266209847984243" x2="21.928928074336255" y1="57.711370442889674" y2="55.22380399835377" /><path d="M 25.398753493254645 57.213857153982495 a86.0,86.0 0 0,1 29.58750427330803,-30.492523968695096" fill="none" id="id131" stroke="none" /><text fill="#e1ed5e" style="font-size:6.75px; font-family:Arial;" text-anchor="middle"><textPath startOffset="21.46611528233685" xlink:href="#id131">November</textPath></text><line stroke="#e1ed5e" stroke-width="0.3" x1="56.762969772571076" x2="54.21961505331055" y1="26.818313649435495" y2="22.513508569990535" /><path d="M 56.25429882871897 25.957352633546506 a86.0,86.0 0 0,1 42.265352541879196,-11.944610805530505" fill="none" id="id132" stroke="none" /><text fill="#e1ed5e" style="font-size:6.75px; font-family:Arial;" text-anchor="middle"><textPath startOffset="22.20632615414155" xlink:href="#id132">December</textPath></text></svg>