<?xml version="1.0" encoding="utf-8" ?>
<svg baseProfile="full" height="200mm" version="1.1" viewBox="0,0,200,200" width="200mm" xmlns="http://www.w3.org/2000/svg" xmlns:ev="http://www.w3.org/2001/xml-events" xmlns:xlink="http://www.w3.org/1999/xlink"><defs /><rect fill="#1a1a1a" height="200" width="200" x="0" y="0" /><text alignment-baseline="middle" fill="#e1ed5e" style="dominant-baseline: central; font-size:9.0px; font-family:Arial;" text-anchor="middle" x="100.0" y="100.0">2025</text><line stroke="#e1ed5e" stroke-width="0.3" x1="100.0" x2="100.0" y1="15.0" y2="10.0" /><path d="M 100.0 14.0 a86.0,86.0 0 0,1 42.46469731375804,11.215312516191453" fill="none" id="id109" stroke="none" /><text fill="#e1ed5e" style="font-size:6.75px; font-family:Arial;" text-anchor="middle"><textPath startOffset="22.20632615414155" xlink:href="#id109">January</textPath></text><path d="M 100.36148047927253 79.00311137660856 l 0.4022179285335534 -23.363156607367216 a44.36661862406284,44.36661862406284 0 0,0 0.7634721074858872,0.019718232074239825 l -0.8043166712143085 23.352771583150616" fill="#ffa00e" stroke="none" /><path d="M 100.72285384407766 79.0124445844662 l 0.847516831251254 -24.607057992725156 a45.621648763569695,45.621648763569695 0 0,0 0.7846036520227196,0.03378668371372227 l -1.270961315663305 24.588823582487237" fill="#ffb510" stroke="none" /><path d="M 101.08401301168833 79.027996857942 l 1.2520146543854245 -24.22226945853594 a45.25460530325569,45.25460530325569 0 0,0 0.7775990027713722,0.04690689537793471 l -1.6687757059964086 24.197129293777703" fill="#ffaf10" stroke="none" /><path d="M 101.44485096284872 79.0497635885617 l 1.672066049172439 -24.244839036294458 a45.3024283718443,45.3024283718443 0 0,0 0.7774971252820241,0.06034874075848621 l -2.0891533638168043 24.21246503334751" fill="#ffaf10" stroke="none" /><path d="M 101.80526077348638 79.07773832637324 l 1.3314255408242854 -15.430697865482625 a36.48803184999854,36.48803184999854 0 0,0 0.6252917059402546,0.05937898191364451 l -1.5968423738547843 15.405493339053802" fill="#ff1602" stroke="none" /><path d="M 102.16513564639614 79.11191278185805 l 3.0489013721213536 -29.414193002821026 a50.57178637796724,50.57178637796724 0 0,0 0.8650985490456735,0.0972039018302431 l -3.5547666246767524 29.357353147520183" fill="#fbff18" stroke="none" /><path d="M 102.52436894288641 79.15227682838746 l 4.840497368196741 -39.975673694392185 a61.26766571446672,61.26766571446672 0 0,0 1.0458836084448158,0.13578570943668627 l -5.527895705149403 39.88642966179136" fill="#62ff29" stroke="none" /><path d="M 102.88285421437855 79.19881850522331 l 5.127686443631045 -36.99872710534127 a58.352362384188126,58.352362384188126 0 0,0 0.9937435644692264,0.14645196951831937 l -5.763798988528928 36.90498065166198" fill="#89ff24" stroke="none" /><path d="M 103.95276090670814 79.375362276772 l 4.579095689566686 -23.892714972219153 a45.3275552836267,45.3275552836267 0 0,0 0.7650289604406278,0.15345761244559483 l -4.989691059474439 23.81035340369635" fill="#ffb010" stroke="none" /><path d="M 104.307194497241 79.44645832069477 l 2.9742872198057024 -14.193028983868704 a35.501326015328274,35.501326015328274 0 0,0 0.5970262659290868,0.13048681752767888 l -3.218156209888317 14.139728668245155" fill="#ff0300" stroke="none" /><path d="M 104.66035177308747 79.52364482259891 l 8.228058788505294 -36.15191779017848 a58.07643606571325,58.07643606571325 0 0,0 0.9728530739787302,0.23024289098857695 l -8.849135549446547 36.004928987049034" fill="#8dff24" stroke="none" /><path d="M 108.43124777332544 80.76684994638697 l 10.082032681335651 -22.99887900567271 a46.111666979814245,46.111666979814245 0 0,0 0.7242120151070313,0.3249328209049853 l -10.476426814909463 22.821925854251194" fill="#ffbd11" stroke="none" /><path d="M 108.76106565485865 80.91482961587045 l 13.790638670340892 -30.041629534354648 a54.05572900444507,54.05572900444507 0 0,0 0.8422958254447008,0.3954691840002484 l -14.30571270708519 29.799795367714395" fill="#c6ff1e" stroke="none" /><path d="M 109.08828744355905 81.06846463323043 l 10.556166275596757 -21.98922915071217 a45.3917782271112,45.3917782271112 0 0,0 0.701473156008946,0.34420983118912113 l -10.933110698616135 21.804264159388218" fill="#ffb110" stroke="none" /><path d="M 109.41281617654863 81.2277094730956 l 24.151330953742544 -48.16579786234734 a74.88163760089058,74.88163760089058 0 0,0 1.147256265250764,0.5876692187365372 l -24.976847706582063 47.742936118298296" fill="#3fffba" stroke="none" /><path d="M 109.73455568895987 81.39251694778311 l 7.664377411498531 -14.650362825700908 a37.53408032007127,37.53408032007127 0 0,0 0.5699013063837598,0.3044215409380946 l -7.915423764410602 14.516262558261058" fill="#ff2904" stroke="none" /><path d="M 110.05341064243156 81.56283822128135 l 16.558900809091657 -30.367717380052948 a55.588949895596805,55.588949895596805 0 0,0 0.8361528659905066,0.46531816464021725 l -17.0791777641542 30.07818381785255" fill="#b0ff20" stroke="none" /><path d="M 110.36928655335952 81.73862282372117 l 7.068419976137546 -12.448212570880445 a35.31504653044782,35.31504653044782 0 0,0 0.5260315213268119,0.30471141013781433 l -7.281648229929687 12.324697003352581" fill="#ff0000" stroke="none" /><line stroke="#e1ed5e" stroke-width="0.3" x1="143.23703022742887" x2="145.7803849466894" y1="26.81831364943548" y2="22.513508569990506" /><path d="M 143.74570117128098 25.957352633546492 a86.0,86.0 0 0,1 28.547481713284135,27.462654790039103" fill="none" id="id110" stroke="none" /><text fill="#e1ed5e" style="font-size:6.75px; font-family:Arial;" text-anchor="middle"><textPath startOffset="19.985693538727396" xlink:href="#id110">February</textPath></text><path d="M 110.99172775467656 82.1063720568725 l 26.085718768550638 -42.465402773000015 a70.83748746019438,70.83748746019438 0 0,0 1.0334880691368347,0.6471701340811082 l -26.812825990059736 42.01008829759596" fill="#38ff82" stroke="none" /><path d="M 111.2981086023043 82.29822771554956 l 13.022733236501558 -20.403898244231634 a45.205591182824705,45.205591182824705 0 0,0 0.6523230832052995,0.42428907886377637 l -13.372023345491138 20.17671024120833" fill="#ffae10" stroke="none" /><path d="M 111.60114157652 82.49532879139004 l 16.364452657484488 -24.691911687199422 a50.62238703324745,50.62238703324745 0 0,0 0.7222014053855278,0.4876336127539155 l -16.787058757276558 24.406566162146834" fill="#faff18" stroke="none" /><path d="M 111.90073688211348 82.69761687909136 l 17.486761713391765 -25.423858514499692 a51.85708050004476,51.85708050004476 0 0,0 0.73110793943653,0.5121878336057158 l -17.921800792411943 25.11908583813004" fill="#e7ff1a" stroke="none" /><path d="M 112.19680574252982 82.90503203632743 l 23.265692052098522 -32.60905098262234 a61.05799087136477,61.05799087136477 0 0,0 0.8503188287789639,0.6177927914716224 l -23.823556197231273 32.20373895633404" fill="#65ff29" stroke="none" /><path d="M 113.06298171725822 83.55741782278167 l 39.188945151774654 -49.32774653165496 a84.0,84.0 0 0,0 1.1243864057420354,0.9091756109434814 l -40.032234956081176 48.64586482344735" fill="#4dd2ff" stroke="none" /><path d="M 113.34407831869373 83.78471172551755 l 21.466937278396053 -26.08592126230124 a54.78320121328898,54.78320121328898 0 0,0 0.7229881579769133,0.6054817902793278 l -21.91278297333208 25.712538314628095" fill="#bcff1f" stroke="none" /><path d="M 113.6212207817346 84.01681056812373 l 19.99496638050686 -23.462165430295656 a51.826480292699,51.826480292699 0 0,0 0.6740063410593982,0.5844916571979355 l -20.39586652021302 23.114508779678047" fill="#e7ff1a" stroke="none" /><path d="M 114.16331599549186 84.49514656593476 l 23.55709152785913 -25.788399523711366 a55.92818505514549,55.92818505514549 0 0,0 0.7052067845840665,0.655412850059054 l -23.997506196238042 25.37908208757767" fill="#abff21" stroke="none" /><path d="M 114.68862486808459 84.99185889309783 l 24.18595622956232 -24.71206441437052 a55.57812323360396,55.57812323360396 0 0,0 0.6779583555399095,0.6750469869067652 l -24.60775038526955 24.292081576813636" fill="#b0ff20" stroke="none" /><path d="M 114.94478906791727 85.2469230424477 l 17.6390758397394 -17.412801354448494 a45.78593648603098,45.78593648603098 0 0,0 0.5488550682549377,0.5656433935592771 l -17.93619517169745 17.106593765339102" fill="#ffb711" stroke="none" /><path d="M 115.19652480421416 85.50635884689758 l 24.454115532025256 -23.323041274502124 a54.793017337103365,54.793017337103365 0 0,0 0.6450773530271866,0.6881235434916725 l -24.851960207022906 22.898648314132398" fill="#bbff1f" stroke="none" /><path d="M 115.4437574822437 85.77008943001954 l 22.79677496101876 -21.004996313380214 a51.99843252082996,51.99843252082996 0 0,0 0.6008452537703493,0.6634683362051821 l -23.154963855405143 20.60947518990548" fill="#e5ff1a" stroke="none" /><line stroke="#e1ed5e" stroke-width="0.3" x1="172.23445277983987" x2="176.4835382374775" y1="55.19839476539836" y2="52.563006222186495" /><path d="M 173.08426987136738 54.67131705675599 a86.0,86.0 0 0,1 12.851231095245387,41.99856678651699" fill="none" id="id111" stroke="none" /><text fill="#e1ed5e" style="font-size:6.75px; font-family:Arial;" text-anchor="middle"><textPath startOffset="22.20632615414155" xlink:href="#id111">March</textPath></text><line stroke="#e1ed5e" stroke-width="0.3" x1="184.98032266829074" x2="189.97916517819016" y1="98.17113171792111" y2="98.06355123074" /><path d="M 185.9800911702706 98.14961562048488 a86.0,86.0 0 0,1 -9.607161424134198,41.387399972396054" fill="none" id="id112" stroke="none" /><text fill="#e1ed5e" style="font-size:6.75px; font-family:Arial;" text-anchor="middle"><textPath startOffset="21.466115282336823" xlink:href="#id112">April</textPath></text><line stroke="#e1ed5e" stroke-width="0.3" x1="174.80103733775053" x2="179.2010983576182" y1="140.37084112569926" y2="142.7455964860345" /><path d="M 175.68104954172406 140.8457921977663 a86.0,86.0 0 0,1 -30.038265399797805,32.042727171017184" fill="none" id="id113" stroke="none" /><text fill="#e1ed5e" style="font-size:6.75px; font-family:Arial;" text-anchor="middle"><textPath startOffset="22.206326154141568" xlink:href="#id113">May</textPath></text><line stroke="#e1ed5e" stroke-width="0.3" x1="143.8653032363475" x2="146.44561519142675" y1="172.8068346515853" y2="177.08958963109032" /><path d="M 144.38136562736335 173.6633856474863 a86.0,86.0 0 0,1 -40.68145358897372,12.25698825130547" fill="none" id="id114" stroke="none" /><text fill="#e1ed5e" style="font-size:6.75px; font-family:Arial;" text-anchor="middle"><textPath startOffset="21.466115282336833" xlink:href="#id114">June</textPath></text><line stroke="#e1ed5e" stroke-width="0.3" x1="102.19456741930631" x2="102.32365962044197" y1="184.97166512339345" y2="189.96999836594603" /><path d="M 102.22038585953345 185.97133177190398 a86.0,86.0 0 0,1 -42.740103519485714,-10.115201625700543" fill="none" id="id115" stroke="none" /><text fill="#e1ed5e" style="font-size:6.75px; font-family:Arial;" text-anchor="middle"><textPath startOffset="22.20632615414155" xlink:href="#id115">July</textPath></text><line stroke="#e1ed5e" stroke-width="0.3" x1="58.666819895761336" x2="56.23545636021788" y1="174.27360380694188" y2="178.64263932499728" /><path d="M 58.180547188652646 175.14741091055294 a86.0,86.0 0 0,1 -31.652253787137756,-30.449443065178592" fill="none" id="id116" stroke="none" /><text fill="#e1ed5e" style="font-size:6.75px; font-family:Arial;" text-anchor="middle"><textPath startOffset="22.20632615414155" xlink:href="#id116">August</textPath></text><line stroke="#e1ed5e" stroke-width="0.3" x1="26.63291911575756" x2="22.317208475507996" y1="142.92168965132927" y2="145.44649492493687" /><path d="M 25.769776987707644 143.4266507060508 a86.0,86.0 0 0,1 -11.730757126820373,-40.83630448921669" fill="none" id="id117" stroke="none" /><text fill="#e1ed5e" style="font-size:6.75px; font-family:Arial;" text-anchor="middle"><textPath startOffset="21.46611528233685" xlink:href="#id117">September</textPath></text><line stroke="#e1ed5e" stroke-width="0.3" x1="15.007084014347285" x2="10.007500721073583" y1="101.09737516637583" y2="101.16192664675087" /><path d="M 14.007167355692545 101.11028546245083 a86.0,86.0 0 0,1 10.666146001902534,-42.60595125391555" fill="none" id="id118" stroke="none" /><text fill="#e1ed5e" style="font-size:6.75px; font-family:Arial;" text-anchor="middle"><textPath startOffset="22.20632615414155" xlink:href="#id118">October</textPath></text><line stroke="#e1ed5e" stroke-width="0.3" x1="26.266209847984243" x2="21.928928074336255" y1="57.711370442889674" y2="55.22380399835377" /><path d="M 25.398753493254645 57.213857153982495 a86.0,86.0 0 0,1 29.58750427330803,-30.492523968695096" fill="none" id="id119" stroke="none" /><text fill="#e1ed5e" style="font-size:6.75px; font-family:Arial;" text-anchor="middle"><textPath startOffset="21.46611528233685" xlink:href="#id119">November</textPath></text><line stroke="#e1ed5e" stroke-width="0.3" x1="56.762969772571076" x2="54.21961505331055" y1="26.818313649435495" y2="22.513508569990535" /><path d="M 56.25429882871897 25.957352633546506 a86.0,86.0 0 0,1 42.265352541879196,-11.944610805530505" fill="none" id="id120" stroke="none" /><text fill="#e1ed5e" style="font-size:6.75px; font-family:Arial;" text-anchor="middle"><textPath startOffset="22.20632615414155" xlink:href="#id120">December</textPath></text></svg>