<?xml version="1.0" encoding="utf-8" ?>
<svg baseProfile="full" height="200mm" version="1.1" viewBox="0,0,200,200" width="200mm" xmlns="http://www.w3.org/2000/svg" xmlns:ev="http://www.w3.org/2001/xml-events" xmlns:xlink="http://www.w3.org/1999/xlink"><defs /><rect fill="#1a1a1a" height="200" width="200" x="0" y="0" /><text alignment-baseline="middle" fill="#e1ed5e" style="dominant-baseline: central; font-size:9.0px; font-family:Arial;" text-anchor="middle" x="100.0" y="100.0">2022</text><line stroke="#e1ed5e" stroke-width="0.3" x1="100.0" x2="100.0" y1="15.0" y2="10.0" /><path d="M 100.0 14.0 a86.0,86.0 0 0,1 42.46469731375804,11.215312516191453" fill="none" id="id73" stroke="none" /><text fill="#e1ed5e" style="font-size:6.75px; font-family:Arial;" text-anchor="middle"><textPath startOffset="22.20632615414155" xlink:href="#id73">January</textPath></text><path d="M 100.0 79.0 l 0.0 -18.281169114033034 a39.281169114033034,39.281169114033034 0 0,0 0.6761607541774238,0.00581992908277369 l -0.3146802749048954 18.27846056155882" fill="#ffa60f" stroke="none" /><path d="M 100.36148047927253 79.00311137660856 l 0.18643282069969794 -10.829102528175598 a31.830707214322302,31.830707214322302 0 0,0 0.5477509414365069,0.014146790794617264 l -0.37281039733107274 10.82428894523862" fill="#ff3505" stroke="none" /><path d="M 100.72285384407766 79.0124445844662 l 0.700466073367474 -20.337542162841153 a41.349601321531594,41.349601321531594 0 0,0 0.7111327425865404,0.030622871803236994 l -1.0504396483433458 20.32247156451372" fill="#ffc412" stroke="none" /><path d="M 101.44485096284872 79.0497635885617 l 1.4020378983546744 -20.329450014978484 a41.377739035033585,41.377739035033585 0 0,0 0.7101401471538532,0.05512054289234293 l -1.7517682348708687 20.302304209897677" fill="#ffc512" stroke="none" /><path d="M 101.80526077348638 79.07773832637324 l 1.0941635768310145 -12.680925107567386 a33.728042092819955,33.728042092819955 0 0,0 0.5779940410308798,0.05488749871863195 l -1.3122827449521384 12.660212064333576" fill="#ff5307" stroke="none" /><path d="M 102.16513564639614 79.11191278185805 l 0.775600077462207 -7.482580637104406 a28.522670301889427,28.522670301889427 0 0,0 0.48791870844061896,0.05482335196229414 l -0.9042854894125513 7.468121331671511" fill="#ff0000" stroke="none" /><path d="M 102.52436894288641 79.15227682838746 l 3.406828685816833 -28.13559465432463 a49.341103864298674,49.341103864298674 0 0,0 0.8422885245007463,0.10935322432271213 l -3.8906319388254254 28.072783106837782" fill="#cdff1d" stroke="none" /><path d="M 102.88285421437855 79.19881850522331 l 3.317013835607228 -23.9338522465052 a45.162612941135976,45.162612941135976 0 0,0 0.7691214910783069,0.11334851484290813 l -3.7285043071141906 23.873209247501322" fill="#fff917" stroke="none" /><path d="M 103.2404852339499 79.25152402106235 l 2.8214261731310315 -18.065286200424687 a39.2842831730884,39.2842831730884 0 0,0 0.6672169745528889,0.11009651773687008 l -3.1319723538227953 18.014043419748194" fill="#ffa60f" stroke="none" /><path d="M 104.307194497241 79.44645832069477 l 3.0959050675979896 -14.773378328470477 a36.094281547119095,36.094281547119095 0 0,0 0.6069980068960078,0.1326662538745187 l -3.3497457986475254 14.717898576500087" fill="#ff770b" stroke="none" /><path d="M 105.36241919743992 79.69619591428918 l 5.400752863162959 -20.448947389520264 a42.15012011380386,42.15012011380386 0 0,0 0.6998969453884536,0.1913082739349459 l -5.751947697775123 20.352952574759023" fill="#ffd013" stroke="none" /><path d="M 105.71112130821622 79.79150937346287 l 9.708855235008906 -34.35425364346952 a56.699812511751354,56.699812511751354 0 0,0 0.9369233140393018,0.2735136074969817 l -10.298768766771635 34.182041707053834" fill="#72ff27" stroke="none" /><path d="M 106.0581310904928 79.89281104454417 l 3.1667123960724837 -10.510450098271852 a31.977141188292237,31.977141188292237 0 0,0 0.5256655655758593,0.16332685003327718 l -3.347163334359061 10.454383113356053" fill="#ff3705" stroke="none" /><path d="M 106.40334571778207 80.00007090966166 l 4.115453729315869 -12.854027626888024 a34.49677686082646,34.49677686082646 0 0,0 0.5639683844567627,0.18593150942557635 l -4.336104936015048 12.781282393203213" fill="#ff5f08" stroke="none" /><path d="M 106.74666289553966 80.11325718540242 l 6.225563082936848 -18.350727437155477 a40.37799868852294,40.37799868852294 0 0,0 0.6562732186810675,0.22896083973538275 l -6.540518305681188 18.240845744247885" fill="#ffb610" stroke="none" /><path d="M 108.43124777332544 80.76684994638697 l 7.951614442129253 -18.139022579528376 a40.80536069797566,40.80536069797566 0 0,0 0.6408732200288209,0.28754113282096017 l -8.262669780624854 17.999461116190886" fill="#ffbc11" stroke="none" /><path d="M 108.76106565485865 80.91482961587045 l 7.466117703058691 -16.264246164143152 a38.8960503140713,38.8960503140713 0 0,0 0.6060778646262498,0.2845616840589364 l -7.744973778984538 16.133319497444212" fill="#ffa10e" stroke="none" /><path d="M 109.41281617654863 81.2277094730956 l 14.643931063704596 -29.20487590830865 a53.67062126465059,53.67062126465059 0 0,0 0.822283786499869,0.4212056931207749 l -15.14447533779322 28.948477689875375" fill="#97ff23" stroke="none" /><path d="M 110.05341064243156 81.56283822128135 l 9.737373974582333 -17.85757546911835 a41.33984890691499,41.33984890691499 0 0,0 0.6218220205283884,0.34604328119163247 l -10.043320084182758 17.687316790366538" fill="#ffc412" stroke="none" /><path d="M 110.36928655335952 81.73862282372117 l 13.893540651504821 -24.467950118409227 a49.13736048089762,49.13736048089762 0 0,0 0.7319203293549467,0.4239754969507203 l -14.312657713325095 24.225170464068455" fill="#d0ff1d" stroke="none" /><line stroke="#e1ed5e" stroke-width="0.3" x1="143.23703022742887" x2="145.7803849466894" y1="26.81831364943548" y2="22.513508569990506" /><path d="M 143.74570117128098 25.957352633546492 a86.0,86.0 0 0,1 28.547481713284135,27.462654790039103" fill="none" id="id74" stroke="none" /><text fill="#e1ed5e" style="font-size:6.75px; font-family:Arial;" text-anchor="middle"><textPath startOffset="19.985693538727396" xlink:href="#id74">February</textPath></text><path d="M 111.2981086023043 82.29822771554956 l 11.70012863195424 -18.331653556542296 a42.74724194286175,42.74724194286175 0 0,0 0.616848755498303,0.40121558934052376 l -12.013944413236823 18.127539043042244" fill="#ffd814" stroke="none" /><path d="M 111.60114157652 82.49532879139004 l 8.602315492155329 -12.979817833417087 a36.57162492533351,36.57162492533351 0 0,0 0.5217470069311726,0.3522859081083813 l -8.824467193493042 12.829820013010035" fill="#ff7e0b" stroke="none" /><path d="M 111.90073688211348 82.69761687909136 l 12.205270972550249 -17.745142721285486 a42.53737982467155,42.53737982467155 0 0,0 0.5997139795137096,0.4201379678449735 l -12.50891609164761 17.532419910676577" fill="#ffd513" stroke="none" /><path d="M 112.19680574252982 82.90503203632743 l 6.636268930428069 -9.301353744480705 a32.42607748953814,32.42607748953814 0 0,0 0.4515789635281147,0.32809132175575517 l -6.795393210309973 9.185743187908274" fill="#ff3f05" stroke="none" /><path d="M 112.77801427241765 83.33499621200491 l 10.685816721155174 -13.936373237606274 a38.56158244623724,38.56158244623724 0 0,0 0.5232759818434852,0.40842520389492587 l -10.92412525815809 13.750369644488122" fill="#ff9c0e" stroke="none" /><path d="M 113.34407831869373 83.78471172551755 l 12.625509597435764 -15.342107026445179 a40.869165573970164,40.869165573970164 0 0,0 0.5393610099807495,0.4516993346666113 l -12.88772814437563 15.122506534384748" fill="#ffbd11" stroke="none" /><path d="M 113.6212207817346 84.01681056812373 l 10.008476613448472 -11.743982437444876 a36.4301888391866,36.4301888391866 0 0,0 0.4737766899262524,0.4108544768310139 l -10.20914710202149 11.569962967194188" fill="#ff7c0b" stroke="none" /><path d="M 113.89432698308785 84.25364557470405 l 22.310232569104954 -25.284047926287844 a54.71986887320845,54.71986887320845 0 0,0 0.7009068327181556,0.629281074899716 l -22.742150389419102 24.896267842618833" fill="#8aff24" stroke="none" /><path d="M 114.42810811169701 84.74124197986012 l 13.667148055942125 -14.45398824271199 a40.892428511961505,40.892428511961505 0 0,0 0.5072934684165326,0.4880159146886204 l -13.913924767971078 14.216589241261067" fill="#ffbe11" stroke="none" /><path d="M 114.68862486808459 84.99185889309783 l 13.96393321057391 -14.267685499070092 a40.96392446914544,40.96392446914544 0 0,0 0.4996900444592845,0.49754421660739856 l -14.207459055200514 14.025205431812575" fill="#ffbf11" stroke="none" /><path d="M 114.94478906791727 85.2469230424477 l 9.93965244128903 -9.812146342865429 a34.96692186945393,34.96692186945393 0 0,0 0.4191630391829925,0.43198435734943236 l -10.107079744175133 9.639597789965881" fill="#ff6609" stroke="none" /><path d="M 115.19652480421416 85.50635884689758 l 14.432719839071819 -13.765164398162952 a40.94450182034112,40.94450182034112 0 0,0 0.48203899217277096,0.514205587653148 l -14.667526153215054 13.514689393631748" fill="#ffbe11" stroke="none" /><path d="M 116.82858285166822 87.43820079747576 l 15.949678957486094 -11.905735983514814 a40.90323612270211,40.90323612270211 0 0,0 0.41631194421926737,0.5678490240543077 l -16.152253514218987 11.629424515789013" fill="#ffbe11" stroke="none" /><path d="M 117.04232023915458 87.72973835380427 l 12.669090040713941 -9.121589515823125 a36.61118950480365,36.61118950480365 0 0,0 0.36382348683909765,0.5146025206261341 l -12.824226147356923 8.902160494865198" fill="#ff7f0b" stroke="none" /><path d="M 117.45458315368197 88.32363383020206 l 22.673334293475428 -15.167486451546095 a48.27879640382844,48.27879640382844 0 0,0 0.45612741178044175,0.6947133412445994 l -22.931058340613795 14.774955046323822" fill="#dbff1b" stroke="none" /><path d="M 117.65298651832404 88.62581576622439 l 10.88870977834464 -7.015820861724885 a33.95321361673744,33.95321361673744 0 0,0 0.3123249471199867,0.4940230613455319 l -11.007862321710583 6.827350152665147" fill="#ff5608" stroke="none" /><line stroke="#e1ed5e" stroke-width="0.3" x1="172.23445277983987" x2="176.4835382374775" y1="55.19839476539836" y2="52.563006222186495" /><path d="M 173.08426987136738 54.67131705675599 a86.0,86.0 0 0,1 12.851231095245387,41.99856678651699" fill="none" id="id75" stroke="none" /><text fill="#e1ed5e" style="font-size:6.75px; font-family:Arial;" text-anchor="middle"><textPath startOffset="22.20632615414155" xlink:href="#id75">March</textPath></text><path d="M 117.84615892207809 88.93136811851018 l 11.735064626210793 -7.27837911901185 a34.808929878213284,34.808929878213284 0 0,0 0.31143085727042435,0.5119104441222458 l -11.858611281767441 7.075300901682523" fill="#ff6309" stroke="none" /><path d="M 118.56541770881063 90.18545643968196 l 13.785157650245957 -7.287475690890769 a36.592878931982334,36.592878931982334 0 0,0 0.2895900615242562,0.5593958241995747 l -13.90855714493033 7.04910714443085" fill="#ff7f0b" stroke="none" /><path d="M 118.73160827565052 90.50648371742162 l 15.741035014113926 -7.977839917001863 a38.64726928045438,38.64726928045438 0 0,0 0.29563318269515904,0.5959784565321067 l -15.876028209762493 7.705701871970806" fill="#ff9d0e" stroke="none" /><path d="M 118.89224826269711 90.83032412892265 l 11.665310873787762 -5.661958183092225 a33.96677478208039,33.96677478208039 0 0,0 0.25077476721828723,0.5281956153008563 l -11.761043834847806 5.460320152150828" fill="#ff5708" stroke="none" /><path d="M 119.04729006885535 91.15688171328212 l 21.63856092796434 -10.046172087924726 a44.85692546522755,44.85692546522755 0 0,0 0.3191200348882302,0.7031386959126154 l -21.808283279815914 9.672211383170048" fill="#fff517" stroke="none" /><path d="M 119.196687751892 91.48605970444005 l 11.86877544395164 -5.2639312998802525 a33.98371300009394,33.98371300009394 0 0,0 0.23256072724540777,0.5367822224883119 l -11.957626881039728 5.058849932805338" fill="#ff5708" stroke="none" /><path d="M 119.34039704204932 91.81776055985345 l 18.21740641000217 -7.707141735560969 a40.78064533930109,40.78064533930109 0 0,0 0.2679449834099533,0.6488500305326418 l -18.347373080298322 7.392417134575024" fill="#ffbc11" stroke="none" /><path d="M 119.61058180528143 92.48833698450437 l 7.147255885110264 -2.7376942829920194 a28.653642052929474,28.653642052929474 0 0,0 0.17246137515272172,0.46211074300812044 l -7.193321848764611 2.614260402954566" fill="#ff0200" stroke="none" /><path d="M 119.85752413597 93.16781622104841 l 14.87754391653771 -5.118770775309627 a36.733503336468715,36.733503336468715 0 0,0 0.20056966199062937,0.5996777603635426 l -14.963450872300111 4.86191991202377" fill="#ff810b" stroke="none" /><path d="M 119.97218684219823 93.5106431181261 l 14.26142124114613 -4.633816657522718 a35.99534569901438,35.99534569901438 0 0,0 0.18639506926835708,0.5909233066266055 l -14.339071794182692 4.387643184469694" fill="#ff760a" stroke="none" /><path d="M 120.18372546131832 94.20196356495316 l 17.96752495766398 -5.161404149684908 a39.69417144194047,39.69417144194047 0 0,0 0.1829962346184143,0.6583348206370528 l -18.05370796284876 4.851358025628903" fill="#ffac10" stroke="none" /><path d="M 120.37134235888165 94.90015583598534 l 19.782231253486085 -4.952363709370091 a41.39270898326869,41.39270898326869 0 0,0 0.16708304905383384,0.6926671065878565 l -19.86454710280074 4.611111371122829" fill="#ffc512" stroke="none" /><path d="M 120.45610955862082 95.25157060432595 l 19.00999951059227 -4.412747215161652 a40.51544053762649,40.51544053762649 0 0,0 0.15184726587601852,0.6807015186654749 l -19.083141163470327 4.084867526946213" fill="#ffb811" stroke="none" /><path d="M 120.53481517161879 95.60439243477599 l 19.51573816789637 -4.177467662348282 a40.95783736550263,40.95783736550263 0 0,0 0.14163747558484996,0.6906746324773482 l -19.584754939396216 3.8409173737075224" fill="#ffbf11" stroke="none" /><path d="M 120.6074358757038 95.95851677861258 l 17.61963515619734 -3.4555225735141417 a38.95528276841028,38.95528276841028 0 0,0 0.12338487777274011,0.6591269507743353 l -17.67650575787994 3.151717545277244" fill="#ffa20e" stroke="none" /><path d="M 120.87857604477298 97.74499172005257 l 20.022003726721838 -2.162493461626633 a41.13844609706621,41.13844609706621 0 0,0 0.06998016855018602,0.7046907471386358 l -20.056261020954253 1.8175271837835623" fill="#ffc112" stroke="none" /><path d="M 120.96714384426684 98.82574320788733 l 19.770741970874514 -1.1072527673221668 a40.801723328277305,40.801723328277305 0 0,0 0.03323667923819037,0.701573767832485 l -19.7868722583462 0.7667678928666819" fill="#ffbc11" stroke="none" /><path d="M 120.98425023603335 99.18683210126433 l 12.944391276388137 -0.5016125587636233 a33.95410671082119,33.95410671082119 0 0,0 0.01760488992157398,0.5842205891493748 l -12.951107860765356 0.2787218221892494" fill="#ff5608" stroke="none" /><line stroke="#e1ed5e" stroke-width="0.3" x1="184.98032266829074" x2="189.97916517819016" y1="98.17113171792111" y2="98.06355123074" /><path d="M 185.9800911702706 98.14961562048488 a86.0,86.0 0 0,1 -9.607161424134198,41.387399972396054" fill="none" id="id76" stroke="none" /><text fill="#e1ed5e" style="font-size:6.75px; font-family:Arial;" text-anchor="middle"><textPath startOffset="21.466115282336823" xlink:href="#id76">April</textPath></text><path d="M 120.99513854157772 99.54816195383933 l 19.815227219925948 -0.4264450807766952 a40.81981546796571,40.81981546796571 0 0,0 0.009071704202150505,0.7026134878253472 l -19.819631931245816 0.08529533489088535" fill="#ffbd11" stroke="none" /><path d="M 120.9904718944345 100.63252640178507 l 23.34185221799882 0.7033828428775979 a44.35244767450622,44.35244767450622 0 0,0 -0.029563793822461902,0.7629101547929703 l -23.326286291325157 -1.1050702446845744" fill="#ffee16" stroke="none" /><path d="M 120.92983693683757 101.71520430193887 l 18.16797790930324 1.488869405032055 a39.22888239630096,39.22888239630096 0 0,0 -0.0609456250370691,0.6725298937670332 l -18.139657687989097 -1.8013806873476588" fill="#ffa60f" stroke="none" /><path d="M 120.89721153311464 102.0752229133903 l 12.954329985288668 1.2864454365353906 a34.01804928662247,34.01804928662247 0 0,0 -0.06288106574906992,0.582200573138884 l -12.930266618038546 -1.509242331559066" fill="#ff5708" stroke="none" /><path d="M 120.8583938346157 102.4346265915055 l 19.57649758263155 2.2850015183873436 a40.70940104472511,40.70940104472511 0 0,0 -0.08723150507035306,0.6953209232541464 l -19.53426456831435 -2.621640195928885" fill="#ffbb11" stroke="none" /><path d="M 120.81339534386255 102.79330883721812 l 19.667465387517097 2.639516713395481 a40.84379608969708,40.84379608969708 0 0,0 -0.09951483747684658,0.6960065415336644 l -19.61911649902365 -2.9776687269095548" fill="#ffbd11" stroke="none" /><path d="M 120.70491114924044 103.5080841355445 l 17.190368973732298 2.912606591075323 a38.435368152334306,38.435368152334306 0 0,0 -0.11613623091755498,0.6513536587657812 l -17.137686300475554 -3.208079000574323" fill="#ff9a0e" stroke="none" /><path d="M 120.5718875245553 104.21870165774334 l 17.500732851591316 3.5888962840480807 a38.864932882057566,38.864932882057566 0 0,0 -0.140035833639566,0.6542007944345463 l -17.436362979227308 -3.889610897898796" fill="#ffa00e" stroke="none" /><path d="M 120.41448212921028 104.9243191809786 l 19.115059646265948 4.610876448684066 a40.6633081373744,40.6633081373744 0 0,0 -0.1699894465616693,0.6790233391325016 l -19.03285888540922 -4.939227627213964" fill="#ffba11" stroke="none" /><path d="M 120.23288151984713 105.62410040840565 l 17.183869652837153 4.776571653311457 a38.835386539262785,38.835386539262785 0 0,0 -0.18457416790442324,0.642526892331278 l -17.09910284804663 -5.071656021147318" fill="#ffa00e" stroke="none" /><path d="M 120.13307415673323 105.97154293290107 l 19.04235044528052 5.648030317779915 a40.862309960108774,40.862309960108774 0 0,0 -0.20581611463502406,0.6726189710679538 l -18.942307558139362 -5.9749762613999255" fill="#ffbd11" stroke="none" /><path d="M 119.9155931802556 106.66101706037122 l 18.01526736142157 6.025429529286953 a39.996201175916845,39.996201175916845 0 0,0 -0.2239961897965217,0.651037777840962 l -17.90888034068182 -6.334640010217215" fill="#ffb110" stroke="none" /><path d="M 119.79798401119884 107.00284435728193 l 16.83358947027664 5.954293475944117 a38.85562503110656,38.85562503110656 0 0,0 -0.22846319118189012,0.6286325810962938 l -16.72860201808952 -6.243173854046542" fill="#ffa00e" stroke="none" /><path d="M 119.67450827220406 107.3425965602758 l 12.192816782338777 4.550402649328541 a34.01425930887726,34.01425930887726 0 0,0 -0.20943991923941155,0.5467815397287294 l -12.112682583505858 -4.759607755890414" fill="#ff5708" stroke="none" /><path d="M 119.54520255179757 107.68017299344265 l 17.790175985340344 6.990545571943274 a40.11434249412718,40.11434249412718 0 0,0 -0.2580639429400127,0.6404935427071777 l -17.667209428142943 -7.295738482493265" fill="#ffb210" stroke="none" /><path d="M 119.41010516605496 108.01547362559984 l 14.346412618743662 5.924403344739038 a36.521536973457316,36.521536973457316 0 0,0 -0.2449534594314376,0.5789976200137631 l -14.242308178119913 -6.170475490418965" fill="#ff7d0b" stroke="none" /><path d="M 118.97047184881838 109.00673069616215 l 17.524035188164962 8.319996830216018 a40.39881843130783,40.39881843130783 0 0,0 -0.3036581869521618,0.6256258057054711 l -17.37822374459809 -8.620411591886764" fill="#ffb710" stroke="none" /><path d="M 118.81262510543309 109.33194174019688 l 17.367883823390223 8.615282507467699 a40.38727627043723,40.38727627043723 0 0,0 -0.3142924958011573,0.6201289111524858 l -17.217012657802798 -8.912965630322878" fill="#ffb610" stroke="none" /><path d="M 118.64920377521936 109.65438752849418 l 14.989949915141121 7.7600517028930724 a37.87948461565142,37.87948461565142 0 0,0 -0.30474494835943133,0.5764625961637126 l -14.854152458556797 -8.016929314142919" fill="#ff920d" stroke="none" /><line stroke="#e1ed5e" stroke-width="0.3" x1="174.80103733775053" x2="179.2010983576182" y1="140.37084112569926" y2="142.7455964860345" /><path d="M 175.68104954172406 140.8457921977663 a86.0,86.0 0 0,1 -30.038265399797805,32.042727171017184" fill="none" id="id77" stroke="none" /><text fill="#e1ed5e" style="font-size:6.75px; font-family:Arial;" text-anchor="middle"><textPath startOffset="22.206326154141568" xlink:href="#id77">May</textPath></text><path d="M 118.30583269289576 110.29060199501023 l 18.739669809263813 10.534483012066582 a42.497687245184146,42.497687245184146 0 0,0 -0.36395829615175,0.6345919674766671 l -18.555559516959683 -10.855494825401562" fill="#ffd413" stroke="none" /><path d="M 118.12598468904814 110.60418214915192 l 9.44266444833544 5.524209332691901 a31.939872057536064,31.939872057536064 0 0,0 -0.2817083396574996,0.47215938109939176 l -9.346175232979714 -5.685930807677397" fill="#ff3705" stroke="none" /><path d="M 117.94076556474637 110.91462005526583 l 14.301633699900563 8.700682110842077 a37.740328422108654,37.740328422108654 0 0,0 -0.34242224166456636,0.5520936831786294 l -14.149746818568033 -8.94557212538598" fill="#ff900d" stroke="none" /><path d="M 117.75023020441432 111.22182372390056 l 15.027024442402823 9.50019337470071 a38.77822088256525,38.77822088256525 0 0,0 -0.3615517645569897,0.5611363676041158 l -14.861267814468784 -9.757451342226279" fill="#ff9f0e" stroke="none" /><path d="M 117.35343817320211 111.8261652097733 l 14.760419240689682 10.059053126168054 a38.86209746799052,38.86209746799052 0 0,0 -0.38147607227753383,0.5495447339456899 l -14.585082261250014 -10.311639122300763" fill="#ffa00e" stroke="none" /><path d="M 116.93607887273984 112.41649034213515 l 15.293554103246136 11.212292304892708 a39.96334084066605,39.96334084066605 0 0,0 -0.41150581914371054,0.5512792920628733 l -15.098287017407333 -11.473884476464896" fill="#ffb010" stroke="none" /><path d="M 116.498646956653 112.99209946851258 l 10.613776915285893 8.357972976953196 a34.50955116541388,34.50955116541388 0 0,0 -0.3715233991203152,0.463532564736691 l -10.468335604110724 -8.539433375268137" fill="#ff5f08" stroke="none" /><path d="M 115.32070863581623 114.36230785411682 l 13.045828269251432 12.22973468582948 a38.881835636102366,38.881835636102366 0 0,0 -0.46194110769368824,0.48434340460062125 l -12.833380610178779 -12.452485207012609" fill="#ffa10e" stroke="none" /><path d="M 115.07121518719521 114.62390073753431 l 10.494000543144844 10.1825380618921 a35.62217934445497,35.62217934445497 0 0,0 -0.4307898285941617,0.4363878219755551 l -10.317170089495146 -10.36166637784832" fill="#ff700a" stroke="none" /><path d="M 114.55890576462653 115.13401014063108 l 13.479661975447474 14.012134175932301 a40.443281388095336,40.443281388095336 0 0,0 -0.5058571790619925,0.47831953681624817 l -13.236468961994673 -14.242088349494471" fill="#ffb711" stroke="none" /><path d="M 114.0293411484842 115.62618273729858 l 13.309007919958084 14.823860052179926 a40.921759928784475,40.921759928784475 0 0,0 -0.5281979029151335,0.4660732368054913 l -13.051867664136363 -15.050756430757707" fill="#ffbe11" stroke="none" /><path d="M 113.48314897796784 116.09983520530334 l 9.580337004962182 11.439601182424047 a35.92137166421256,35.92137166421256 0 0,0 -0.4774632311966679,0.3929197337435746 l -9.382003645220822 -11.602816035024802" fill="#ff740a" stroke="none" /><path d="M 112.63410532772338 116.77436683061366 l 8.827095186053969 11.719779822849933 a35.672111249569284,35.672111249569284 0 0,0 -0.49365960314408774,0.36519757267169345 l -8.624050612491317 -11.869987344261395" fill="#ff710a" stroke="none" /><path d="M 112.04921762599082 117.19931262002967 l 13.891286549311712 19.828721454964892 a45.21045304271842,45.21045304271842 0 0,0 -0.6412201038978143,0.4410370344179892 l -13.547909560791014 -20.064899278747976" fill="#fffa17" stroke="none" /><path d="M 111.7513745106137 117.40417183066458 l 19.08776197148603 28.269602752811814 a55.110307780521325,55.110307780521325 0 0,0 -0.7907680997380422,0.5240779772398391 l -18.598319173008026 -28.593978751142973" fill="#85ff25" stroke="none" /><path d="M 111.45004920935366 117.60387380957326 l 7.985193184490442 12.276832229681666 a35.645269536249,35.645269536249 0 0,0 -0.517226776125583,0.33011860026127016 l -7.772684606317929 -12.412465258766746" fill="#ff700a" stroke="none" /><path d="M 111.1453310114006 117.79835938074945 l 8.422703811693175 13.450503107066051 a36.87003381636927,36.87003381636927 0 0,0 -0.5407970149828998,0.332201696499275 l -8.189927596777967 -13.593493270393704" fill="#ff830c" stroke="none" /><line stroke="#e1ed5e" stroke-width="0.3" x1="143.8653032363475" x2="146.44561519142675" y1="172.8068346515853" y2="177.08958963109032" /><path d="M 144.38136562736335 173.6633856474863 a86.0,86.0 0 0,1 -40.68145358897372,12.25698825130547" fill="none" id="id78" stroke="none" /><text fill="#e1ed5e" style="font-size:6.75px; font-family:Arial;" text-anchor="middle"><textPath startOffset="21.466115282336833" xlink:href="#id78">June</textPath></text><path d="M 110.8373102113329 117.98757091392108 l 9.57783173572121 15.897111385418176 a39.559445335412924,39.559445335412924 0 0,0 -0.5862938282227097,0.34639272797824283 l -9.302770036470118 -16.05962268569017" fill="#ffaa0f" stroke="none" /><path d="M 110.5260780823613 118.17145234162733 l 8.44154876370686 14.572873186858544 a37.841270096115124,37.841270096115124 0 0,0 -0.5664499959991328,0.32164509116509266 l -8.189450000786529 -14.716021443818265" fill="#ff910d" stroke="none" /><path d="M 109.89434966115114 118.52300852407294 l 8.930791454020447 16.719151020006738 a39.954921440749814,39.954921440749814 0 0,0 -0.6094249917291116,0.31882235246879237 l -8.64167555976484 -16.870402791420247" fill="#ffb010" stroke="none" /><path d="M 109.57404056367764 118.69057910512821 l 8.62750312862985 16.842735168384948 a39.92383518705627,39.92383518705627 0 0,0 -0.61434434909594,0.3080450102161859 l -8.33630487185115 -16.988748019510435" fill="#ffb010" stroke="none" /><path d="M 107.93186726928326 119.44442032107085 l 5.640703731455239 13.827792439970985 a35.934034362789305,35.934034362789305 0 0,0 -0.5747373712022987,0.22869986122893074 l -5.401845284211073 -13.922839145605984" fill="#ff750a" stroke="none" /><path d="M 107.59598834532513 119.57807347666477 l 4.676718746549646 12.053881481531619 a33.929337067504264,33.929337067504264 0 0,0 -0.546310440589783,0.2065678627048749 l -4.468538085199588 -12.132597594343123" fill="#ff5608" stroke="none" /><path d="M 107.2578585660854 119.70592522655815 l 8.384485282945661 22.764847033664314 a45.259799132022245,45.259799132022245 0 0,0 -0.7333821111644989,0.26296473257788155 l -7.991383611151427 -22.905799307282155" fill="#fffb17" stroke="none" /><path d="M 106.91757812671514 119.82793768551818 l 6.505979054668185 18.64816629696728 a40.75049036604224,40.75049036604224 0 0,0 -0.6642917261879143,0.2253638206451885 l -6.184017595543044 -18.75739310451059" fill="#ffbc11" stroke="none" /><path d="M 105.53697534728816 120.25689768951611 l 5.311853402271929 19.433294201721626 a41.1461835119681,41.1461835119681 0 0,0 -0.6848087799649921,0.18086422291889978 l -4.976554179495439 -19.52184977394411" fill="#ffc112" stroke="none" /><path d="M 104.83641907484287 120.43548508189849 l 3.4322825357436373 14.502539476136835 a35.90316123049328,35.90316123049328 0 0,0 -0.6026257574689647,0.13715566041891497 l -3.1821366288818105 -14.559471870133434" fill="#ff740a" stroke="none" /><path d="M 104.48393922423573 120.51570834832081 l 3.569894493257819 16.333609934340103 a37.71917941108852,37.71917941108852 0 0,0 -0.6354937020723963,0.1331738840587999 l -3.288209329756045 -16.392639799125444" fill="#ff8f0d" stroke="none" /><path d="M 104.13013068566511 120.58985236759428 l 2.849611057252067 14.206105191181312 a35.489089270224056,35.489089270224056 0 0,0 -0.5999893342993037,0.11498938390511254 l -2.6046541083810593 -14.253051773434892" fill="#ff6e0a" stroke="none" /><path d="M 103.41894727170886 120.7198165907248 l 4.336016942624785 26.27752598844738 a47.63286343974783,47.63286343974783 0 0,0 -0.810130977824332,0.12652579755110932 l -3.883050101191936 -26.348270093345594" fill="#e3ff1b" stroke="none" /><path d="M 103.06178313531738 120.77559828337769 l 2.659268368907782 18.044351581548 a39.23925251364176,39.23925251364176 0 0,0 -0.6690692584921624,0.09272690265404566 l -2.348270519228789 -18.08745304969465" fill="#ffa60f" stroke="none" /><path d="M 102.70371172650421 120.8252237178851 l 2.507954737720295 19.317413900070118 a40.47953584542188,40.47953584542188 0 0,0 -0.6917616829776463,0.08376270607647679 l -2.175065631691268 -19.357722134871945" fill="#ffb811" stroke="none" /><path d="M 102.34483914955558 120.86867818915974 l 2.2379056229681322 19.916987599036098 a41.04232063902457,41.04232063902457 0 0,0 -0.7027371743549689,0.07284158144084318 l -1.8947358520075608 -19.9525585489327" fill="#ffc011" stroke="none" /><path d="M 101.98527174616119 120.90594882070398 l 1.2298112162075494 12.950554701076795 a34.0088163448137,34.0088163448137 0 0,0 -0.5832604025461423,0.05032616176346186 l -1.0067064959198655 -12.96980511511892" fill="#ff5708" stroke="none" /><path d="M 101.62511606390274 120.93702456842531 l 1.5605009694969953 20.104562291352526 a41.16503380117859,41.16503380117859 0 0,0 -0.7069354353570981,0.04875440660373286 l -1.2142027733609668 -20.128445042472546" fill="#ffc212" stroke="none" /><path d="M 101.26447882468166 120.96189622390904 l 1.2152969433656062 20.14658364443319 a41.18320537483322,41.18320537483322 0 0,0 -0.7079823105377576,0.0365945985926816 l -0.8683265644143691 -20.16451804978807" fill="#ffc212" stroke="none" /><path d="M 100.90346689309514 120.98055641714683 l 0.44046227259562587 10.228535910329219 a31.23801513392486,31.23801513392486 0 0,0 -0.5374123391412506,0.018509567575245713 l -0.26432958177972293 -10.234602276330559" fill="#ff2c04" stroke="none" /><line stroke="#e1ed5e" stroke-width="0.3" x1="102.19456741930631" x2="102.32365962044197" y1="184.97166512339345" y2="189.96999836594603" /><path d="M 102.22038585953345 185.97133177190398 a86.0,86.0 0 0,1 -42.740103519485714,-10.115201625700543" fill="none" id="id79" stroke="none" /><text fill="#e1ed5e" style="font-size:6.75px; font-family:Arial;" text-anchor="middle"><textPath startOffset="22.20632615414155" xlink:href="#id79">July</textPath></text><path d="M 100.54218724476979 120.99299961872073 l 0.518558871185513 20.078130369340986 a41.08482567589617,41.08482567589617 0 0,0 -0.7071291491905519,0.01217386958333469 l -0.1728700321022932 -20.08408171620348" fill="#ffc011" stroke="none" /><path d="M 100.18074693466247 120.99922214144158 l 0.07470689090080776 8.679464470322253 a29.679785977265478,29.679785977265478 0 0,0 -0.5109076511265205,0.0 l 0.07470689090080178 -8.679464470322253" fill="#ff1302" stroke="none" /><path d="M 99.81925306533755 120.99922214144158 l -0.15319055402505036 17.797715241756052 a38.79837450927691,38.79837450927691 0 0,0 -0.6677760244901645,-0.011496369853126107 l 0.45952626840788274 -17.792441394623765" fill="#ff9f0e" stroke="none" /><path d="M 99.45781275523022 120.99299961872073 l -0.4607003294893142 17.837899977562785 a38.84384825095545,38.84384825095545 0 0,0 -0.6682615159861295,-0.023016277794898243 l 0.7676821971500867 -17.827326901341795" fill="#ffa00e" stroke="none" /><path d="M 98.73552117531835 120.96189622390904 l -1.0079449410410979 16.709206070601464 a37.7395794604881,37.7395794604881 0 0,0 -0.6481094164759346,-0.04469741992578766 l 1.2954171182959624 -16.68938030615939" fill="#ff900d" stroke="none" /><path d="M 98.37488393609728 120.93702456842531 l -1.6059939026116898 20.690666065396197 a41.752900487521345,41.752900487521345 0 0,0 -0.7160735410167984,-0.06178583819925165 l 1.96191176137003 -20.659955974918283" fill="#ffca12" stroke="none" /><path d="M 98.01472825383883 120.90594882070398 l -1.903330216939622 20.043061702349274 a41.13323094584909,41.13323094584909 0 0,0 -0.7042937640200673,-0.07300292832413532 l 2.2480565775652828 -20.007329405569376" fill="#ffc112" stroke="none" /><path d="M 97.65516085044442 120.86867818915974 l -1.6770859102451292 14.9257854907075 a36.019710039310255,36.019710039310255 0 0,0 -0.6155469601309054,-0.07453416453449907 l 1.9337602934274238 -14.894705797447653" fill="#ff760a" stroke="none" /><path d="M 97.2962882734958 120.8252237178851 l -2.100460429172003 16.17870644982907 a37.31448670367101,37.31448670367101 0 0,0 -0.6362500391963685,-0.08817845790905193 l 2.3786390595552023 -16.14015342642741" fill="#ff890c" stroke="none" /><path d="M 96.93821686468263 120.77559828337769 l -2.7713316782406503 18.80475236570233 a40.00786655062076,40.00786655062076 0 0,0 -0.6804464335913409,-0.1062717388392731 l 3.0946139754405086 -18.754262319515952" fill="#ffb110" stroke="none" /><path d="M 96.58105272829116 120.7198165907248 l -2.8045213491681036 16.996216484640684 a38.22604756729504,38.22604756729504 0 0,0 -0.6482974360785939,-0.11271481918526394 l 3.0966677567187477 -16.945423086934415" fill="#ff970d" stroke="none" /><path d="M 96.22490169976321 120.6578951692458 l -3.522388722816157 19.275031057258975 a40.594234983099504,40.594234983099504 0 0,0 -0.6862984800327125,-0.13153073710241503 l 3.8536548174205647 -19.21154312180809" fill="#ffb911" stroke="none" /><path d="M 95.86986931433489 120.58985236759428 l -3.7086146700973863 18.488477570608115 a39.85676604431791,39.85676604431791 0 0,0 -0.6715078164900458,-0.1407209918936974 l 4.026313948016819 -18.421900597987875" fill="#ffaf10" stroke="none" /><path d="M 95.16358092515715 120.4354850818985 l -5.948304948479561 25.13357406712875 a46.827870162829015,46.827870162829015 0 0,0 -0.7827985715777402,-0.19239284349918423 l 6.380056804800512 -25.027459965315536" fill="#eeff19" stroke="none" /><path d="M 94.46302465271185 120.25689768951611 l -4.762842774863694 17.424751376023043 a39.06395947222779,39.06395947222779 0 0,0 -0.6471016167053613,-0.18287738060427677 l 5.062075559673669 -17.340185202080246" fill="#ffa30f" stroke="none" /><path d="M 94.11515582081647 120.15858648285463 l -4.465119176062887 15.29530575937941 a36.93372735832233,36.93372735832233 0 0,0 -0.6087470155198241,-0.18341048214820996 l 4.727741166022958 -15.216179908125474" fill="#ff840c" stroke="none" /><path d="M 93.76903079525671 120.05430185196036 l -5.773610873080074 18.582299385522067 a40.45858250148048,40.45858250148048 0 0,0 -0.6632869696731865,-0.2123635417772191 l 6.092619187844201 -18.48016299708514" fill="#ffb711" stroke="none" /><path d="M 93.42475214034765 119.94407469862007 l -6.942261640144924 21.05730273348746 a43.172167126601906,43.172167126601906 0 0,0 -0.7037685477203977,-0.2387565018675518 l 7.303699920802548 -20.934683244721786" fill="#ffde14" stroke="none" /><path d="M 93.08242187328487 119.8279376855182 l -4.446233462094152 12.744292642131972 a34.49762893799296,34.49762893799296 0 0,0 -0.5589937301072809,-0.20043526357217287 l 4.66494675283116 -12.665869837519843" fill="#ff5f08" stroke="none" /><path d="M 92.7421414339146 119.70592522655815 l -6.095500344701182 16.54998825306781 a38.63681478127314,38.63681478127314 0 0,0 -0.6221075072627487,-0.23522782762341285 l 6.379478072724214 -16.44261217533776" fill="#ff9d0e" stroke="none" /><path d="M 92.40401165467489 119.57807347666478 l -6.340719091710585 16.342713894341518 a38.52966103586394,38.52966103586394 0 0,0 -0.6162524328189489,-0.2452195610194208 l 6.621092600571392 -16.23114748891603" fill="#ff9b0e" stroke="none" /><path d="M 92.06813273071674 119.44442032107085 l -6.501241090314084 15.937339856685087 a38.21234839938674,38.21234839938674 0 0,0 -0.6069004186105688,-0.25368442420029996 l 6.774612968422115 -15.823070389464814" fill="#ff970d" stroke="none" /><path d="M 91.7346041902142 119.30500536409082 l -7.6697965963974735 17.913898843130657 a40.48675323372337,40.48675323372337 0 0,0 -0.6383012831390268,-0.27981252458255823 l 7.9770185541942435 -17.77922176525365" fill="#ffb811" stroke="none" /><path d="M 91.07499286063937 119.00905698771935 l -9.530478751995474 20.298629557164546 a43.424637948944266,43.424637948944266 0 0,0 -0.6738828287731852,-0.3235047096031974 l 9.878474248768901 -20.131570571061786" fill="#ffe115" stroke="none" /><path d="M 90.7491055286396 118.85261126421891 l -6.7297387626430885 13.714689881571895 a36.27684857426791,36.27684857426791 0 0,0 -0.5582248503980427,-0.2799055285473779 l 6.9648175207238925 -13.596816512115215" fill="#ff7a0b" stroke="none" /><path d="M 90.10565033884886 118.52300852407294 l -10.9423086633578 20.484871020904748 a44.22421278810755,44.22421278810755 0 0,0 -0.6683693477148801,-0.364448259121301 l 11.29330082294132 -20.29348211002368" fill="#ffec16" stroke="none" /><line stroke="#e1ed5e" stroke-width="0.3" x1="58.666819895761336" x2="56.23545636021788" y1="174.27360380694188" y2="178.64263932499728" /><path d="M 58.180547188652646 175.14741091055294 a86.0,86.0 0 0,1 -31.652253787137756,-30.449443065178592" fill="none" id="id80" stroke="none" /><text fill="#e1ed5e" style="font-size:6.75px; font-family:Arial;" text-anchor="middle"><textPath startOffset="22.20632615414155" xlink:href="#id80">August</textPath></text><path d="M 89.7882731507175 118.34994917583269 l -8.427090869256721 15.143049890905555 a38.329968855054666,38.329968855054666 0 0,0 -0.5737653796884836,-0.32579895694369376 l 8.686505015866413 -14.995747768167227" fill="#ff980e" stroke="none" /><path d="M 89.1626897886671 117.98757091392108 l -11.492392887271828 19.074865257088476 a43.26938658453567,43.26938658453567 0 0,0 -0.6346605273431859,-0.3898603321455048 l 11.819032614547321 -18.874216458114592" fill="#ffdf14" stroke="none" /><path d="M 88.24862548938628 117.40417183066458 l -21.54804672452651 31.91336532336104 a59.50689813403152,59.50689813403152 0 0,0 -0.8439866631746727,-0.5805017228128178 l 22.094190272324074 -31.537722811183123" fill="#52ff2b" stroke="none" /><path d="M 87.65650970185807 116.9893568818739 l -10.670461474429679 14.686630256489195 a39.15367335742582,39.15367335742582 0 0,0 -0.541840282904294,-0.4008404877209198 l 10.921686727752538 -14.500779820028507" fill="#ffa50f" stroke="none" /><path d="M 87.36589467227662 116.77436683061367 l -12.241595328928051 16.253229280016498 a41.34758261381481,41.34758261381481 0 0,0 -0.5648301713402692,-0.43308768978962053 l 12.519554228761807 -16.04010224839951" fill="#ffc412" stroke="none" /><path d="M 87.07902340077011 116.55440617244103 l -9.579982146017244 12.273910903867367 a36.5700015027001,36.5700015027001 0 0,0 -0.49289832936448663,-0.39158824298755535 l 9.78983796809909 -12.107188746874682" fill="#ff7e0b" stroke="none" /><path d="M 86.79598089348748 116.32954008644616 l -11.780939523740033 14.569603592441482 a39.736698879549294,39.736698879549294 0 0,0 -0.5281761738241431,-0.43465303300642244 l 12.029985826108865 -14.364655440577879" fill="#ffad10" stroke="none" /><path d="M 86.51685102203217 116.09983520530335 l -13.212445470849756 15.77659603756735 a41.57837937867713,41.57837937867713 0 0,0 -0.5447451235738414,-0.4642436123027037 l 13.482056071000654 -15.546828035041695" fill="#ffc712" stroke="none" /><path d="M 86.24171649860922 115.8653595955263 l -11.31739246325449 13.050646986237858 a38.274338161756845,38.274338161756845 0 0,0 -0.4940262879134957,-0.43592075963209487 l 11.540361104074574 -12.853903084833474" fill="#ff980e" stroke="none" /><path d="M 85.97065885151581 115.62618273729859 l -12.99549042203826 14.474657501469638 a40.45246722382895,40.45246722382895 0 0,0 -0.5141324632008166,-0.4696478151708979 l 13.242722434705934 -14.248816919712162" fill="#ffb711" stroke="none" /><path d="M 85.70375840098266 115.38237550388516 l -13.992342646775523 15.055388318739793 a41.553597499533254,41.553597499533254 0 0,0 -0.5197448102511826,-0.4914511589278598 l 14.24942329141752 -14.812302523066004" fill="#ffc712" stroke="none" /><path d="M 85.44109423537348 115.13401014063109 l -8.045704231076503 8.363524799884154 a32.605253278246,32.605253278246 0 0,0 -0.4011223208206736,-0.3925826159803833 l 8.18847650427297 -8.2237920809812" fill="#ff4106" stroke="none" /><path d="M 85.18274418774928 114.88116024355367 l -13.173975676253638 13.230792905722918 a39.6710341447026,39.6710341447026 0 0,0 -0.47975385879948906,-0.4859881260639227 l 13.39977016010866 -13.002064285678332" fill="#ffac0f" stroke="none" /><path d="M 84.67929136418377 114.36230785411682 l -14.943283649483485 14.008493029071822 a41.48266591961296,41.48266591961296 0 0,0 -0.4838727629962979,-0.5251483182011547 l 15.182202820475515 -13.749193456069326" fill="#ffc612" stroke="none" /><path d="M 84.4343377721795 114.09645910891817 l -10.391761797087577 9.410909930991998 a35.01976957644642,35.01976957644642 0 0,0 -0.40079484309778196,-0.450297255017309 l 10.552215489833692 -9.230638506233822" fill="#ff6709" stroke="none" /><path d="M 83.95833913139862 113.55231037782056 l -16.154655428725015 13.647770402960356 a42.147920204898526,42.147920204898526 0 0,0 -0.46343444626090996,-0.5582366448123801 l 16.387185874879464 -13.367672501034214" fill="#ffd013" stroke="none" /><path d="M 83.72743513129214 113.27417163493432 l -15.563686311128862 12.695911494781301 a41.08518111132035,41.08518111132035 0 0,0 -0.44231540615483306,-0.5518564782809381 l 15.779919629338556 -12.426127182922103" fill="#ffc011" stroke="none" /><path d="M 83.50135304334701 112.99209946851258 l -12.074954831874846 9.508598775747124 a36.36938466139609,36.36938466139609 0 0,0 -0.38307904519402686,-0.49518130548824146 l 12.236840694286942 -9.29933947614563" fill="#ff7b0b" stroke="none" /><path d="M 83.28015986056508 112.70617746262583 l -14.833693992366657 11.27280803652872 a39.631013887805494,39.631013887805494 0 0,0 -0.40808382108040725,-0.5466949664421472 l 15.02553908014215 -11.015800190577268" fill="#ffab0f" stroke="none" /><path d="M 83.06392112726016 112.41649034213515 l -16.476618181910297 12.079642050795506 a41.43028875928591,41.43028875928591 0 0,0 -0.416710199698805,-0.5787740208776118 l 16.682108173984712 -11.794234424466755" fill="#ffc512" stroke="none" /><path d="M 82.6465618267979 111.8261652097733 l -14.628718181990362 9.969300394580527 a38.70272142935879,38.70272142935879 0 0,0 -0.3704346104502236,-0.5537494813951217 l 14.798155897851315 -9.716013998979582" fill="#ff9e0e" stroke="none" /><path d="M 82.44556493220864 111.52570212397912 l -11.197541973230551 7.3519616442118 a34.39538302028805,34.39538302028805 0 0,0 -0.320688034174102,-0.49771495058543413 l 11.3224348707817 -7.158125093704917" fill="#ff5d08" stroke="none" /><path d="M 82.24976979558568 111.22182372390057 l -14.67094921105148 9.275080041935151 a38.356954241385665,38.356954241385665 0 0,0 -0.34801695702962593,-0.5611141457432556 l 14.828430807749061 -9.021169564826632" fill="#ff990e" stroke="none" /><path d="M 82.05923443525364 110.91462005526583 l -7.985746782575504 4.858287216050883 a30.347465236579296,30.347465236579296 0 0,0 -0.26766337789988415,-0.44861921732893856 l 8.06819103617362 -4.720105904835833" fill="#ff1e03" stroke="none" /><line stroke="#e1ed5e" stroke-width="0.3" x1="26.63291911575756" x2="22.317208475507996" y1="142.92168965132927" y2="145.44649492493687" /><path d="M 25.769776987707644 143.4266507060508 a86.0,86.0 0 0,1 -11.730757126820373,-40.83630448921669" fill="none" id="id81" stroke="none" /><text fill="#e1ed5e" style="font-size:6.75px; font-family:Arial;" text-anchor="middle"><textPath startOffset="21.46611528233685" xlink:href="#id81">September</textPath></text><path d="M 81.87401531095188 110.60418214915194 l -17.728181633860316 10.371456803242898 a41.53912218826977,41.53912218826977 0 0,0 -0.35574896224489594,-0.6202783018432503 l 17.90408259225759 -10.064758655541342" fill="#ffc712" stroke="none" /><path d="M 81.69416730710424 110.29060199501025 l -12.91722913438577 7.261404937449335 a35.818326834559905,35.818326834559905 0 0,0 -0.297502913043954,-0.5400542027373364 l 13.04030845688124 -7.0379802163141765" fill="#ff730a" stroke="none" /><path d="M 81.51974371655577 109.97397251340807 l -10.054078860524397 5.426283308221419 a32.42493117155311,32.42493117155311 0 0,0 -0.26086241868640975,-0.493453387585438 l 10.145993787435694 -5.252414905549855" fill="#ff3f05" stroke="none" /><path d="M 81.35079622478065 109.6543875284942 l -19.4714548048598 10.08005342723892 a42.92589859763309,42.92589859763309 0 0,0 -0.3340479737830966,-0.6591083434135434 l 19.642081448429163 -9.743390872122692" fill="#ffda14" stroke="none" /><path d="M 81.18737489456691 109.33194174019688 l -12.18265755341846 6.043167813748518 a34.59915520497468,34.59915520497468 0 0,0 -0.26006495109462613,-0.5358108279489985 l 12.284875761127806 -5.832568029834235" fill="#ff6008" stroke="none" /><path d="M 81.02952815118164 109.00673069616217 l -16.883614715025345 8.01594035867199 a39.68988351165429,39.68988351165429 0 0,0 -0.2877051297687723,-0.6196912540720189 l 17.019094461633944 -7.724129037321145" fill="#ffac0f" stroke="none" /><path d="M 80.73074385275274 108.34839909993369 l -18.865219514863533 8.173350357400135 a41.5596732320531,41.5596732320531 0 0,0 -0.27874472365252567,-0.6588701868543201 l 19.003115219708363 -7.847405644879657" fill="#ffc712" stroke="none" /><path d="M 80.58989483394504 108.01547362559985 l -14.524341336105035 5.9978796566418335 a36.7140399523244,36.7140399523244 0 0,0 -0.23618908655280216,-0.5862019430980414 l 14.625433036915226 -5.746978345700986" fill="#ff800b" stroke="none" /><path d="M 80.45479744820244 107.68017299344265 l -13.072892084242945 5.136916461495507 a35.04593956197468,35.04593956197468 0 0,0 -0.21579240297064173,-0.5633658702053397 l 13.159378766807096 -4.911127024457009" fill="#ff6709" stroke="none" /><path d="M 80.32549172779594 107.34259656027581 l -30.30484746716348 11.309877009045577 a53.346516009730976,53.346516009730976 0 0,0 -0.3136666898618171,-0.8630760160168829 l 30.49503841803052 -10.786553196022577" fill="#9bff22" stroke="none" /><path d="M 80.20201598880116 107.00284435728193 l -10.82174213787821 3.827812762316277 a32.47877403915942,32.47877403915942 0 0,0 -0.1818953155584849,-0.5286729303228278 l 10.886028284379924 -3.6409671289041525" fill="#ff3f05" stroke="none" /><path d="M 80.0844068197444 106.66101706037122 l -18.04746432246981 6.036198202099926 a40.030151265974084,40.030151265974084 0 0,0 -0.21293705187623824,-0.6553528590141341 l 18.1486936253623 -5.7246464431079875" fill="#ffb110" stroke="none" /><path d="M 79.97269907076064 106.31721596034903 l -15.773510102525893 4.97544177932257 a37.539608273895574,37.539608273895574 0 0,0 -0.18908026314216703,-0.6179252400594133 l 15.85681713817419 -4.703189566711108" fill="#ff8d0d" stroke="none" /><path d="M 79.86692584326677 105.97154293290107 l -8.846683892003899 2.6239585799786056 a30.22762019778039,30.22762019778039 0 0,0 -0.1436637650070858,-0.500112412905004 l 8.89054029389709 -2.4712886915690055" fill="#ff1c02" stroke="none" /><path d="M 79.76711848015287 105.62410040840567 l -11.709451883213944 3.2548568553614357 a33.153409256426606,33.153409256426606 0 0,0 -0.1481040522939935,-0.5511502746457401 l 11.76374401184971 -3.052815647540157" fill="#ff4a06" stroke="none" /><path d="M 79.67330655649465 105.27499134158121 l -21.355894519567123 5.542079876175438 a43.06329259391684,43.06329259391684 0 0,0 -0.1800223742355809,-0.7190998979319577 l 21.448128208097764 -5.173652138846088" fill="#ffdc14" stroke="none" /><path d="M 79.58551787078972 104.9243191809786 l -15.794680393657112 3.8099446818012987 a37.247695443236324,37.247695443236324 0 0,0 -0.14498121647243697,-0.6245752860522953 l 15.857922176060104 -3.5375007384004293" fill="#ff880c" stroke="none" /><path d="M 79.50377843672027 104.57218783832718 l -13.117238740573008 2.9261236885499935 a34.439648507973814,34.439648507973814 0 0,0 -0.12409091001658183,-0.5797114196063561 l 13.16566368931403 -2.6998984495274736" fill="#ff5e08" stroke="none" /><path d="M 79.4281124754447 104.21870165774334 l -18.000979093839963 3.6914823811641226 a39.37558952815687,39.37558952815687 0 0,0 -0.13044582869507237,-0.6651404701771636 l 18.061854855510703 -3.381078183919004" fill="#ffa80f" stroke="none" /><path d="M 79.29508885075956 103.50808413554451 l -19.036490349670057 3.2253994866610944 a40.30780066920194,40.30780066920194 0 0,0 -0.11001773428159264,-0.6850805363916168 l 19.08918983831294 -2.897239720576264" fill="#ffb510" stroke="none" /><path d="M 79.23777060512086 103.15116336523772 l -19.718315456233995 2.9927245339660216 a40.944131080790626,40.944131080790626 0 0,0 -0.09975930104997219,-0.6977163191947114 l 19.766908808300567 -2.6528627427909095" fill="#ffbe11" stroke="none" /><path d="M 79.1416061653843 102.43462659150553 l -27.515602587366143 3.211667124116045 a48.70240407369003,48.70240407369003 0 0,0 -0.09002453511935439,-0.833515388435132 l 27.566809423986548 -2.7375554137961307" fill="#d5ff1c" stroke="none" /><path d="M 79.10278846688536 102.07522291339032 l -11.966545200444326 1.188352271533027 a33.02540582082513,33.02540582082513 0 0,0 -0.051307961810373615,-0.5661790831539791 l 11.985227758531776 -0.9821917998304817" fill="#ff4806" stroke="none" /><path d="M 79.07016306316243 101.71520430193888 l -18.123133989105376 1.485194436848064 a39.183888145891984,39.183888145891984 0 0,0 -0.049303484272677264,-0.6727068711000095 l 18.146014032042387 -1.173014429251294" fill="#ffa50f" stroke="none" /><path d="M 79.04373962182676 101.35467743843564 l -11.931854342697115 0.7713119413990176 a32.9567583469051,32.9567583469051 0 0,0 -0.031722683290892985,-0.5664298202521999 l 11.943363376875539 -0.5658104048113801" fill="#ff4706" stroke="none" /><path d="M 79.0235259727143 100.99374915477108 l -19.11161416360447 0.9054024235287771 a40.13304861978401,40.13304861978401 0 0,0 -0.026751289659811103,-0.6903319194361666 l 19.124367586115486 -0.5762932570786137" fill="#ffb310" stroke="none" /><line stroke="#e1ed5e" stroke-width="0.3" x1="15.007084014347285" x2="10.007500721073583" y1="101.09737516637583" y2="101.16192664675087" /><path d="M 14.007167355692545 101.11028546245083 a86.0,86.0 0 0,1 10.666146001902534,-42.60595125391555" fill="none" id="id82" stroke="none" /><text fill="#e1ed5e" style="font-size:6.75px; font-family:Arial;" text-anchor="middle"><textPath startOffset="22.20632615414155" xlink:href="#id82">October</textPath></text><path d="M 79.00175016825051 100.2711162175752 l -18.214683344234917 0.23517655481707372 a39.21620150697407,39.21620150697407 0 0,0 -0.002905178618085504,-0.6750611974107557 l 18.216032820142505 0.07839412079735733" fill="#ffa50f" stroke="none" /><path d="M 79.00019446554 99.90962569577889 l -26.337613683024934 -0.1133459787302379 a47.3378575785343,47.3378575785343 0 0,0 0.010520259256267357,-0.8148056731303549 l 26.33176041665095 0.5666879099210648" fill="#e7ff1a" stroke="none" /><path d="M 79.00486145842228 99.54816195383935 l -14.622833349529277 -0.31469915937442405 a35.62621929033667,35.62621929033667 0 0,0 0.018471864810637027,-0.6129912649515319 l 14.615249790262993 0.5663605717509503" fill="#ff700a" stroke="none" /><path d="M 79.01574976396665 99.18683210126434 l -21.499156925259463 -0.8331212249595255 a42.51529315329935,42.51529315329935 0 0,0 0.03463253622609451,-0.7310381026820582 l 21.481630780799872 1.2030704342645928" fill="#ffd513" stroke="none" /><path d="M 79.03285615573316 98.82574320788736 l -14.891361537482869 -0.8339849508866519 a35.91469675649926,35.91469675649926 0 0,0 0.03988140488653722,-0.6169476816670888 l 14.87479954159192 1.0901916968067524" fill="#ff740a" stroke="none" /><path d="M 79.05617556472873 98.46500227214037 l -31.27072380823379 -2.2918684284484305 a52.354598201606066,52.354598201606066 0 0,0 0.0736093588726309,-0.8982206239151115 l 31.22663996554166 2.8298029695713205" fill="#a7ff21" stroke="none" /><path d="M 79.16333360222342 97.38593545837743 l -23.842242568564416 -2.991129180716682 a45.02913615746517,45.02913615746517 0 0,0 0.10310385835335631,-0.7682435027568005 l 23.787222711153223 3.4010910255381424" fill="#fff817" stroke="none" /><path d="M 79.21141760316559 97.0276538004421 l -11.976122235834668 -1.712342897346605 a33.09791808559419,33.09791808559419 0 0,0 0.08549366645581988,-0.5632964429411996 l 11.944872675939546 1.9182384526798968" fill="#ff4906" stroke="none" /><path d="M 79.26566170972629 96.67025291283419 l -20.39253982364462 -3.2748573466434503 a41.653822191056946,41.653822191056946 0 0,0 0.11978079917550258,-0.7069530571361063 l 20.333147162948894 3.6253961920953848" fill="#ffc912" stroke="none" /><path d="M 79.32604984820605 96.31383870115002 l -10.253590870195152 -1.8282132617348499 a31.415300738035967,31.415300738035967 0 0,0 0.0995031422259263,-0.5315497645395428 l 10.220602004059364 2.004441103736965" fill="#ff2f04" stroke="none" /><path d="M 79.3925641242962 95.95851677861259 l -21.312646128323436 -4.179787444227327 a42.71864425027631,42.71864425027631 0 0,0 0.14772657252437785,-0.7203672316532447 l 21.237540259884064 4.5460303320439746" fill="#ffd814" stroke="none" /><path d="M 79.54389044137918 95.25157060432595 l -36.2008720722349 -8.40322469940982 a58.16338687658981,58.16338687658981 0 0,0 0.23477844918454255,-0.9733082440543661 l 36.05086082278954 9.025118175123584" fill="#61ff29" stroke="none" /><path d="M 79.62865764111835 94.90015583598534 l -12.42567913932118 -3.110694726258804 a33.809134387355606,33.809134387355606 0 0,0 0.14619016279341038,-0.56333033196355 l 12.370292644657463 3.3241214837712176" fill="#ff5407" stroke="none" /><path d="M 79.81627453868168 94.20196356495316 l -22.465649169163825 -6.453548561658049 a44.37420975412067,44.37420975412067 0 0,0 0.21720986109770368,-0.7323236708153953 l 22.351233410954414 6.839301619219983" fill="#ffef16" stroke="none" /><path d="M 79.91906864156998 93.8553929516997 l -13.042028825660887 -3.9907582380460394 a34.638939372396294,34.638939372396294 0 0,0 0.17937117642065484,-0.5686556468475782 l 12.971402165472028 4.214664051320032" fill="#ff6108" stroke="none" /><path d="M 80.02781315780177 93.51064311812611 l -21.093307597815212 -6.8536310972293695 a43.178816123340724,43.178816123340724 0 0,0 0.2357619004015845,-0.7048980738596432 l 20.972208403641858 7.215702274011335" fill="#ffde14" stroke="none" /><path d="M 80.14247586403 93.16781622104843 l -14.640753493653571 -5.037300614419335 a36.48308949602626,36.48308949602626 0 0,0 0.20942495434695063,-0.5920725474064821 l 14.551875458496813 5.288570788252429" fill="#ff7d0b" stroke="none" /><path d="M 80.38941819471856 92.48833698450439 l -40.23683830268969 -15.412371399271393 a64.08763568294128,64.08763568294128 0 0,0 0.4034666100055776,-1.0267785142573036 l 39.96557814280242 16.102698918424462" fill="#31ff43" stroke="none" /><path d="M 80.52162464483688 92.15188598940014 l -12.666601797462112 -5.103553721537736 a34.656099797676205,34.656099797676205 0 0,0 0.2277042947231808,-0.5514040110148322 l 12.57687581585273 5.320832303005879" fill="#ff6109" stroke="none" /><path d="M 80.65960295795067 91.81776055985345 l -18.948619498931944 -8.016492188004344 a41.574603955256066,41.574603955256066 0 0,0 0.2845074677610297,-0.6566824616872281 l 18.807821321328237 8.341473794278171" fill="#ffc712" stroke="none" /><path d="M 80.95270993114464 91.15688171328213 l -17.241352924069044 -8.004672726641271 a40.00891990916209,40.00891990916209 0 0,0 0.29538358119796176,-0.6221531542079709 l 17.101011149029333 8.300268296489774" fill="#ffb110" stroke="none" /><path d="M 81.10775173730289 90.83032412892265 l -14.736614358793775 -7.152667868229232 a37.38073442776623,37.38073442776623 0 0,0 0.28594479496515635,-0.57644725806185 l 14.611309550875205 7.4052747147900435" fill="#ff8a0c" stroke="none" /><path d="M 81.43458229118936 90.18545643968196 l -33.72003141594372 -17.82597743707185 a59.14191906917147,59.14191906917147 0 0,0 0.4835327857549218,-0.895912816100729 l 33.40819053097033 18.40377123650505" fill="#56ff2a" stroke="none" /><line stroke="#e1ed5e" stroke-width="0.3" x1="26.266209847984243" x2="21.928928074336255" y1="57.711370442889674" y2="55.22380399835377" /><path d="M 25.398753493254645 57.213857153982495 a86.0,86.0 0 0,1 29.58750427330803,-30.492523968695096" fill="none" id="id83" stroke="none" /><text fill="#e1ed5e" style="font-size:6.75px; font-family:Arial;" text-anchor="middle"><textPath startOffset="21.46611528233685" xlink:href="#id83">November</textPath></text><path d="M 81.96595687620814 89.24020034530311 l -17.207281272801247 -10.266521923367229 a41.03726531251898,41.03726531251898 0 0,0 0.36715494446472635,-0.6035061918074914 l 17.0280105300503 10.561195888381794" fill="#ffc011" stroke="none" /><path d="M 82.15384107792192 88.93136811851018 l -17.148443689135345 -10.635891530735854 a41.17898187751366,41.17898187751366 0 0,0 0.37879251968682165,-0.5991587989241899 l 16.962823573202563 10.929497977374261" fill="#ffc212" stroke="none" /><path d="M 82.34701348167596 88.62581576622439 l -20.40431565842094 -13.14692248940922 a45.272982273116256,45.272982273116256 0 0,0 0.4277291433508332,-0.6514608301330967 l 20.17498987971219 13.496201383519985" fill="#fffb17" stroke="none" /><path d="M 82.7489923806493 88.02491185347247 l -36.706101745312274 -25.48018142560338 a65.68307902124562,65.68307902124562 0 0,0 0.6527252230551711,-0.9232335382707098 l 36.26206390245323 26.108241464205875" fill="#34ff58" stroke="none" /><path d="M 82.95767976084542 87.72973835380427 l -9.897647903167393 -7.1261851525804385 a33.19614483531299,33.19614483531299 0 0,0 0.3378693938913734,-0.4608534735625717 l 9.773515896762387 7.295501069814513" fill="#ff4b06" stroke="none" /><path d="M 83.17141714833178 87.43820079747577 l -14.419587367113648 -10.763589702443705 a38.99387015403789,38.99387015403789 0 0,0 0.40613798030786297,-0.5344299751262217 l 14.232173446581676 11.01020445345095" fill="#ffa20f" stroke="none" /><path d="M 83.6137871275137 86.86637796730984 l -16.206712764633263 -12.989751902983299 a41.76995891032009,41.76995891032009 0 0,0 0.45449993318644116,-0.5571631774095522 l 15.980714339370431 13.266799250000933" fill="#ffca12" stroke="none" /><path d="M 84.31358615837235 86.03803664274999 l -23.588001765713358 -20.994908055381647 a52.57815687390931,52.57815687390931 0 0,0 0.6075440061972048,-0.6708652659460967 l 23.223114118900106 21.397826108597297" fill="#a4ff21" stroke="none" /><path d="M 84.80347519578584 85.50635884689758 l -14.785650014103389 -14.10177052192558 a41.43221422637803,41.43221422637803 0 0,0 0.49666518831845713,-0.5118571346647617 l 14.540720562081818 14.354191852140465" fill="#ffc512" stroke="none" /><path d="M 86.10567301691215 84.25364557470407 l -17.478252690736714 -19.807995157895636 a47.41677477090006,47.41677477090006 0 0,0 0.6166578684810486,-0.534759626899221 l 17.13470102360889 20.105919778214535" fill="#e6ff1a" stroke="none" /><path d="M 86.37877921826538 84.01681056812374 l -13.025282730077288 -15.283913579738622 a41.081235134108866,41.081235134108866 0 0,0 0.5421597471347077,-0.45404319654568187 l 12.76026544598347 15.505857933678117" fill="#ffc011" stroke="none" /><path d="M 86.93701828274178 83.55741782278169 l -12.490306408231321 -15.721746687025556 a41.079369339262215,41.079369339262215 0 0,0 0.5574420436319898,-0.4350923570539521 l 12.217831809439906 15.934417433302729" fill="#ffc011" stroke="none" /><path d="M 88.09926311788651 82.69761687909137 l -35.70221064634046 -51.907149362725875 a84.0,84.0 0 0,0 1.198381222373842,-0.8091523508053382 l 34.80342472956008 52.51401362582988" fill="#4dd2ff" stroke="none" /><line stroke="#e1ed5e" stroke-width="0.3" x1="56.76296977257108" x2="54.21961505331056" y1="26.818313649435495" y2="22.513508569990535" /><path d="M 56.25429882871898 25.957352633546506 a86.0,86.0 0 0,1 42.26535254187918,-11.944610805530505" fill="none" id="id84" stroke="none" /><text fill="#e1ed5e" style="font-size:6.75px; font-family:Arial;" text-anchor="middle"><textPath startOffset="22.20632615414155" xlink:href="#id84">December</textPath></text><path d="M 90.26544431104013 81.39251694778311 l -9.790854983522154 -18.71509845890746 a42.12145240353894,42.12145240353894 0 0,0 0.6453397884937007,-0.3305681047998457 l 9.46725470743969 18.880859089019808" fill="#ffcf13" stroke="none" /><path d="M 90.58718382345135 81.22770947309562 l -4.672177671576873 -9.317878411635581 a31.42363191449151,31.42363191449151 0 0,0 0.4856129262447939,-0.23828815391453603 l 4.511093478321653 9.396921725684948" fill="#ff2f04" stroke="none" /><path d="M 90.91171255644093 81.06846463323043 l -8.952349547163047 -18.64836726614689 a41.68589287673339,41.68589287673339 0 0,0 0.6495491633665529,-0.3049720417039866 l 8.630022172496886 18.799704290490883" fill="#ffc912" stroke="none" /><path d="M 91.56875222667455 80.76684994638697 l -8.481879875123413 -19.34865072890939 a42.126111124514836,42.126111124514836 0 0,0 0.6666281403717458,-0.285415379804195 l 8.14756797696136 19.491785636676372" fill="#ffcf13" stroke="none" /><path d="M 91.90106846888425 80.62456947434976 l -7.698517978827247 -18.417503552926956 a40.96175383558277,40.96175383558277 0 0,0 0.6528837970818847,-0.2663276937655685 l 7.380350312156982 18.547292132876102" fill="#ffbf11" stroke="none" /><path d="M 92.57280143429618 80.3572730644239 l -8.6829361283103 -22.963778584703213 a45.55052966222094,45.55052966222094 0 0,0 0.7357878443736299,-0.2709968726518603 l 8.286365958164103 23.109838725161396" fill="#ffff18" stroke="none" /><path d="M 92.91201910852362 80.23233633223022 l -6.746504223024805 -18.81531968777137 a40.98828592411887,40.98828592411887 0 0,0 0.6661923623095859,-0.23242143417988556 l 6.421629856651934 18.928661975123468" fill="#ffbf11" stroke="none" /><path d="M 93.25333710446033 80.11325718540243 l -5.322268113953334 -15.688137796613132 a37.566357638368366,37.566357638368366 0 0,0 0.6141512325255685,-0.2024760054396475 l 5.051434059185357 15.777427526312014" fill="#ff8d0d" stroke="none" /><path d="M 94.98787191387505 79.60689891045804 l -7.51491763942195 -30.57632855085287 a52.486280421431104,52.486280421431104 0 0,0 0.8792109624619795,-0.20808082864784327 l 6.987482989997436 30.701155291641587" fill="#a5ff21" stroke="none" /><path d="M 95.33964822691252 79.52364482259891 l -4.195344779105108 -18.433237225716805 a39.9046330944326,39.9046330944326 0 0,0 0.6710767389182414,-0.14667138277748104 l 3.877425316033346 18.502722106590152" fill="#ffaf10" stroke="none" /><path d="M 95.692805502759 79.44645832069477 l -2.7916971826554025 -13.321725878982562 a34.611096706525885,34.611096706525885 0 0,0 0.5841588227606733,-0.11717676436490827 l 2.5619719504275924 13.36780659942468" fill="#ff6008" stroke="none" /></svg>