<?xml version="1.0" encoding="utf-8" ?>
<svg baseProfile="full" height="200mm" version="1.1" viewBox="0,0,200,200" width="200mm" xmlns="http://www.w3.org/2000/svg" xmlns:ev="http://www.w3.org/2001/xml-events" xmlns:xlink="http://www.w3.org/1999/xlink"><defs /><rect fill="#1a1a1a" height="200" width="200" x="0" y="0" /><text alignment-baseline="middle" fill="#e1ed5e" style="dominant-baseline: central; font-size:9.0px; font-family:Arial;" text-anchor="middle" x="100.0" y="100.0">2025</text><line stroke="#e1ed5e" stroke-width="0.3" x1="100.0" x2="100.0" y1="15.0" y2="10.0" /><path d="M 100.0 14.0 a86.0,86.0 0 0,1 42.46469731375804,11.215312516191453" fill="none" id="id109" stroke="none" /><text fill="#e1ed5e" style="font-size:6.75px; font-family:Arial;" text-anchor="middle"><textPath startOffset="22.20632615414155" xlink:href="#id109">January</textPath></text><path d="M 100.36148047927253 79.00311137660856 l 0.09871996373313772 -5.734229653511096 a26.73507936740595,26.73507936740595 0 0,0 0.4600640756824645,0.01188209775364342 l -0.19741067461047002 5.731680763615093" fill="#ff4806" stroke="none" /><path d="M 100.72285384407766 79.0124445844662 l 0.20801367842897636 -6.0395315581224684 a27.043112702239696,27.043112702239696 0 0,0 0.465088955863923,0.020027708780107335 l -0.31194346668223094 6.035056122818166" fill="#ff4c07" stroke="none" /><path d="M 101.08401301168833 79.027996857942 l 0.3072932171992312 -5.945089447402591 a26.953025924599547,26.953025924599547 0 0,0 0.46312736439072977,0.027937107366020897 l -0.4095826304295729 5.938919070656266" fill="#ff4b07" stroke="none" /><path d="M 101.44485096284872 79.0497635885617 l 0.4103902089484905 -5.9506289018618075 a26.964763570442155,26.964763570442155 0 0,0 0.46277930153868085,0.03592058052538869 l -0.5127596998495125 5.942683059147955" fill="#ff4b07" stroke="none" /><path d="M 101.80526077348638 79.07773832637324 l 0.32678374527649134 -3.78729496025032 a24.801366955729794,24.801366955729794 0 0,0 0.4250185133895941,0.04036062909482466 l -0.3919273857563296 3.7811087866403166" fill="#ff2d04" stroke="none" /><path d="M 102.16513564639614 79.11191278185805 l 0.7483192854657279 -7.219389938844484 a28.258069498295598,28.258069498295598 0 0,0 0.48339235515828627,0.054314763431438054 l -0.8724783441337395 7.205439221942446" fill="#ff5d08" stroke="none" /><path d="M 102.52436894288641 79.15227682838746 l 1.1880468043305228 -9.811589134542846 a30.88325536219515,30.88325536219515 0 0,0 0.5271996277656212,0.06844564241460614 l -1.3567611606039902 9.789685168964102" fill="#ff800b" stroke="none" /><path d="M 102.88285421437855 79.19881850522331 l 1.2585342020822687 -9.080930358644748 a30.16772624571473,30.16772624571473 0 0,0 0.5137578426382933,0.07571455111767002 l -1.4146610251492178 9.05792132336611" fill="#ff770a" stroke="none" /><path d="M 103.95276090670814 79.375362276772 l 1.1238886393073353 -5.864203925825018 a26.970930694391424,26.970930694391424 0 0,0 0.45520970504887953,0.09131078444223918 l -1.2246647538233402 5.8439891853055705" fill="#ff4b07" stroke="none" /><path d="M 104.307194497241 79.44645832069477 l 0.7300060629859755 -3.4835227550877463 a24.559190868330948,24.559190868330948 0 0,0 0.41301223543111,0.09026847774868121 l -0.7898610225706134 3.4704407792431944" fill="#ff2904" stroke="none" /><path d="M 104.66035177308747 79.52364482259891 l 2.0194864713187615 -8.873090332252737 a30.100003167700354,30.100003167700354 0 0,0 0.5042127684166663,0.11933087182304082 l -2.171922926697951 8.837013548288827" fill="#ff760a" stroke="none" /><path d="M 108.43124777332544 80.76684994638697 l 2.4745239584086214 -5.644821725427958 a27.16338228025828,27.16338228025828 0 0,0 0.42661758090246604,0.19141087294693962 l -2.5713236577778673 5.601390521964487" fill="#ff4e07" stroke="none" /><path d="M 108.76106565485865 80.91482961587045 l 3.384760481355045 -7.3733873299197 a29.113164871562958,29.113164871562958 0 0,0 0.4536410420953591,0.21299055192604915 l -3.511179734750002 7.314031795353647" fill="#ff6809" stroke="none" /><path d="M 109.08828744355905 81.06846463323043 l 2.590894830788105 -5.397014280771603 a26.9866935090296,26.9866935090296 0 0,0 0.4170455929553895,0.20464246125408514 l -2.6834116907539265 5.351616659382685" fill="#ff4b07" stroke="none" /><path d="M 109.41281617654863 81.2277094730956 l 5.927678372152861 -11.821764970757412 a34.22465492583893,34.22465492583893 0 0,0 0.5243535137277386,0.2685942357323144 l -6.130292373469355 11.717978209712596" fill="#ffac0f" stroke="none" /><path d="M 109.73455568895987 81.39251694778311 l 1.8811370812305708 -3.595770313132256 a25.05810803986093,25.05810803986093 0 0,0 0.3804715177684957,0.20323470822884512 l -1.9427536455273777 3.5628568784016568" fill="#ff3004" stroke="none" /><path d="M 110.05341064243156 81.56283822128135 l 4.064199955715762 -7.453422002711436 a29.48947706461022,29.48947706461022 0 0,0 0.44357216336062294,0.24684742866479523 l -4.19189620814842 7.382359176486461" fill="#ff6e0a" stroke="none" /><path d="M 110.36928655335952 81.73862282372117 l 1.7348658878508296 -3.0552767700338634 a24.513470618965954,24.513470618965954 0 0,0 0.3651377956298915,0.2115113792427524 l -1.7872004159460493 3.0249612334010614" fill="#ff2903" stroke="none" /><line stroke="#e1ed5e" stroke-width="0.3" x1="143.23703022742887" x2="145.7803849466894" y1="26.81831364943548" y2="22.513508569990506" /><path d="M 143.74570117128098 25.957352633546492 a86.0,86.0 0 0,1 28.547481713284135,27.462654790039103" fill="none" id="id110" stroke="none" /><text fill="#e1ed5e" style="font-size:6.75px; font-family:Arial;" text-anchor="middle"><textPath startOffset="19.985693538727396" xlink:href="#id110">February</textPath></text><path d="M 110.99172775467656 82.1063720568725 l 6.4024525713535505 -10.422665734836656 a33.23206278387132,33.23206278387132 0 0,0 0.4848413125781267,0.30360758545699545 l -6.580913036303941 10.310913808056716" fill="#ff9f0e" stroke="none" /><path d="M 111.2981086023043 82.29822771554956 l 3.1962865442148356 -5.007912257986647 a26.940995948190988,26.940995948190988 0 0,0 0.388762387167332,0.25286187074296385 l -3.282015957166448 4.952151463084156" fill="#ff4b06" stroke="none" /><path d="M 111.60114157652 82.49532879139004 l 4.0164747970073424 -6.060357963528272 a28.270488872221435,28.270488872221435 0 0,0 0.40331932156903044,0.2723230063020667 l -4.120198812982914 5.990323044927535" fill="#ff5d08" stroke="none" /><path d="M 111.90073688211348 82.69761687909136 l 4.291933202604733 -6.240006256455224 a28.573530794564796,28.573530794564796 0 0,0 0.4028444143056312,0.2822182563116279 l -4.398708756494016 6.16520315737966" fill="#ff6109" stroke="none" /><path d="M 112.19680574252982 82.90503203632743 l 5.710308051118899 -8.003532667261425 a30.831792979644867,30.831792979644867 0 0,0 0.4293762981955961,0.3119601411566102 l -5.847229665668284 7.904053291288139" fill="#ff800b" stroke="none" /><path d="M 113.06298171725822 83.55741782278167 l 9.618495272520859 -12.106952483188866 a36.46265661966595,36.46265661966595 0 0,0 0.48807280262371705,0.39465426320008534 l -9.825471473709067 11.939592122724653" fill="#ffc912" stroke="none" /><path d="M 113.34407831869373 83.78471172551755 l 5.2688234890753085 -6.402502271215985 a29.291714918637613,29.291714918637613 0 0,0 0.386570381868695,0.32374157764599926 l -5.378251407903121 6.310859536176166" fill="#ff6b09" stroke="none" /><path d="M 113.6212207817346 84.01681056812373 l 4.9075444327546425 -5.7585302794041064 a28.566020310458796,28.566020310458796 0 0,0 0.37150272832232306,0.3221635051524435 l -5.00594095972373 5.673201780831992" fill="#ff6109" stroke="none" /><path d="M 114.16331599549186 84.49514656593476 l 5.781828845290914 -6.329478835014376 a29.57273860088671,29.57273860088671 0 0,0 0.3728870493386006,0.34655787366150814 l -5.889923778424361 6.229016375278228" fill="#ff6f0a" stroke="none" /><path d="M 114.68862486808459 84.99185889309783 l 5.936176765015756 -6.0653042286107555 a29.486819779582717,29.486819779582717 0 0,0 0.35968893306891303,0.3581443144815486 l -6.039701498251992 5.962224063479089" fill="#ff6e0a" stroke="none" /><path d="M 114.94478906791727 85.2469230424477 l 4.329317028541844 -4.273780446512559 a27.083435315561058,27.083435315561058 0 0,0 0.32466040621961817,0.3345910870647155 l -4.402241698464572 4.198625163897729" fill="#ff4d07" stroke="none" /><path d="M 115.19652480421416 85.50635884689758 l 6.001993514434068 -5.724383786570199 a29.294124178191232,29.294124178191232 0 0,0 0.34487927481447767,0.3678931643600499 l -6.099640111219009 5.620221205332094" fill="#ff6b09" stroke="none" /><path d="M 115.4437574822437 85.77008943001954 l 5.59521751203225 -5.155445163351548 a28.608224092340947,28.608224092340947 0 0,0 0.33056988127086057,0.36502351936718536 l -5.683131033919146 5.058368856714813" fill="#ff6209" stroke="none" /><path d="M 115.68641384162765 86.03803664274999 l 5.0286918568488215 -4.47587397279451 a27.732101426113317,27.732101426113317 0 0,0 0.3143078942618728,0.3593082567546419 l -5.104991614688542 4.388650159836921" fill="#ff5607" stroke="none" /><path d="M 115.9244219780498 86.31012108654704 l 6.390800089903842 -5.494031715026326 a29.427734587350866,29.427734587350866 0 0,0 0.32691324515938214,0.38696216852318754 l -6.484423948550342 5.383210596874031" fill="#ff6d0a" stroke="none" /><path d="M 116.82858285166822 87.43820079747576 l 6.8722399620468835 -5.129825799100972 a29.57570958143267,29.57570958143267 0 0,0 0.301020709475768,0.41059190943107005 l -6.959523284036278 5.010771445998408" fill="#ff6f0a" stroke="none" /><path d="M 117.2510076193507 88.02491185347247 l 7.067759153494565 -4.906208421506096 a29.603725967687694,29.603725967687694 0 0,0 0.28698068247944836,0.42110873998232706 l -7.151164301642747 4.783821658253363" fill="#ff6f0a" stroke="none" /><path d="M 117.65298651832404 88.62581576622439 l 1.7272916365054665 -1.1129297175115147 a23.054786838984032,23.054786838984032 0 0,0 0.21207374246303098,0.3354497309571015 l -1.7461929752144532 1.083032338840207" fill="#ff1402" stroke="none" /><line stroke="#e1ed5e" stroke-width="0.3" x1="172.23445277983987" x2="176.4835382374775" y1="55.19839476539836" y2="52.563006222186495" /><path d="M 173.08426987136738 54.67131705675599 a86.0,86.0 0 0,1 12.851231095245387,41.99856678651699" fill="none" id="id111" stroke="none" /><text fill="#e1ed5e" style="font-size:6.75px; font-family:Arial;" text-anchor="middle"><textPath startOffset="22.20632615414155" xlink:href="#id111">March</textPath></text><path d="M 118.21658344932153 89.55222093294921 l 3.1485602565228326 -1.805797559732448 a24.629646885812832,24.629646885812832 0 0,0 0.207759702070827,0.3695813275334654 l -3.1791775998860925 1.7513327222641888" fill="#ff2a04" stroke="none" /><path d="M 119.34039704204932 91.81776055985345 l 7.871346142163089 -3.330088762470812 a29.546787774110232,29.546787774110232 0 0,0 0.1941340921430122,0.4701111027023654 l -7.927501921192299 3.194103089315144" fill="#ff6e0a" stroke="none" /><path d="M 119.47837535516314 92.15188598940014 l 5.446731698243827 -2.1945655411982226 a26.872223097538846,26.872223097538846 0 0,0 0.16917529631012318,0.430532676277592 l -5.48370054443565 2.100483860024846" fill="#ff4a06" stroke="none" /><path d="M 119.61058180528143 92.48833698450437 l 4.5706923136295305 -1.750763987953411 a25.89452783906544,25.89452783906544 0 0,0 0.15585473817975223,0.4176132122210134 l -4.600151640310908 1.6718276387030644" fill="#ff3c05" stroke="none" /><path d="M 119.85752413597 93.16781622104841 l 4.160871231299019 -1.431590199167537 a25.400261344716284,25.400261344716284 0 0,0 0.138688700223308,0.4146615610367322 l -4.1848972252940975 1.3597555352084907" fill="#ff3505" stroke="none" /><path d="M 119.97218684219823 93.5106431181261 l 2.730656442647025 -0.8872440618613 a23.871182096816195,23.871182096816195 0 0,0 0.12361238804758737,0.39188505024200126 l -2.7455243144628185 0.8401088451928796" fill="#ff1f03" stroke="none" /><path d="M 120.6074358757038 95.95851677861258 l 6.670298499781734 -1.3081636954307854 a27.797365249141286,27.797365249141286 0 0,0 0.08804388698856508,0.47033396484762996 l -6.6918281106801585 1.1931516531205928" fill="#ff5708" stroke="none" /><path d="M 120.78858239683441 97.02765380044208 l 6.1870835623821305 -0.8846276269320856 a27.25000552369601,27.25000552369601 0 0,0 0.0623947281559699,0.46491319798937436 l -6.201394289595937 0.7779960868780469" fill="#ff4f07" stroke="none" /><path d="M 120.87857604477298 97.74499172005257 l 7.522803300237557 -0.8125067386814687 a28.56655381891042,28.56655381891042 0 0,0 0.04859425770308512,0.4893375434338451 l -7.5356746836228705 0.6828936645431886" fill="#ff6109" stroke="none" /><path d="M 120.91429891909075 98.10471618934814 l 3.869820359887677 -0.3506886798644334 a24.885677826066676,24.885677826066676 0 0,0 0.03498868968173202,0.42695063721824056 l -3.8752835333889033 0.28402412543842415" fill="#ff2e04" stroke="none" /><path d="M 120.96714384426684 98.82574320788733 l 18.341810737724348 -1.0272260255565104 a39.37055291617759,39.37055291617759 0 0,0 0.03207086201180913,0.6769652087687236 l -18.356775207969655 0.7113497101647872" fill="#ffed16" stroke="none" /><line stroke="#e1ed5e" stroke-width="0.3" x1="184.98032266829074" x2="189.97916517819016" y1="98.17113171792111" y2="98.06355123074" /><path d="M 185.9800911702706 98.14961562048488 a86.0,86.0 0 0,1 -9.607161424134198,41.387399972396054" fill="none" id="id112" stroke="none" /><text fill="#e1ed5e" style="font-size:6.75px; font-family:Arial;" text-anchor="middle"><textPath startOffset="21.466115282336823" xlink:href="#id112">April</textPath></text><path d="M 120.99513854157772 99.54816195383933 l 6.814219757211885 -0.14664936528571557 a27.81579760086195,27.81579760086195 0 0,0 0.006181720448489884,0.4787810612304935 l -6.81573448477809 0.02933204599475934" fill="#ff5708" stroke="none" /><path d="M 120.99980553446 99.90962569577887 l 6.053088816904975 -0.026049940763442293 a27.053144870623356,27.053144870623356 0 0,0 -0.0020041262286998288,0.46568835502442607 l -6.052640393386772 -0.0781478924646685" fill="#ff4c07" stroke="none" /><path d="M 120.9904718944345 100.63252640178507 l 1.1059637457124607 0.03332708631318208 a22.10646577060136,22.10646577060136 0 0,0 -0.014735398618395327,0.38025516306891727 l -1.1052262142428622 -0.052359496396105536" fill="#ff0601" stroke="none" /><path d="M 120.9764740272857 100.99374915477107 l 0.9005379465999185 0.042662500003997926 a21.90154793670275,21.90154793670275 0 0,0 -0.021081438333926956,0.37642324316150355 l -0.8996701573784622 -0.05815745950092481" fill="#ff0300" stroke="none" /><path d="M 120.95626037817324 101.35467743843564 l 12.720736819433561 0.8223077428219262 a33.74728736842461,33.74728736842461 0 0,0 -0.04246283181034789,0.5793716031752518 l -12.704697428958875 -1.0411524824939482" fill="#ffa60f" stroke="none" /><path d="M 120.92983693683757 101.71520430193887 l 6.811991531109973 0.5582440615371743 a27.834827360815744,27.834827360815744 0 0,0 -0.04324392762878682,0.47719313792529244 l -6.801373007204111 -0.6754185880110374" fill="#ff5708" stroke="none" /><path d="M 120.89721153311464 102.0752229133903 l 6.027193410653076 0.5985377450671793 a27.0568397569764,27.0568397569764 0 0,0 -0.05001353562003155,0.46306322508719644 l -6.015997573531992 -0.7021972920391671" fill="#ff4c07" stroke="none" /><path d="M 120.8583938346157 102.4346265915055 l 6.030794790615624 0.7039244479495279 a27.071737431323722,27.071737431323722 0 0,0 -0.05800892030834172,0.46238817034329444 l -6.017784361060434 -0.8076303725802173" fill="#ff4c07" stroke="none" /><path d="M 120.70491114924044 103.5080841355445 l 5.915521899933867 1.0022814578166084 a26.999830620049217,26.999830620049217 0 0,0 -0.08158263376578244,0.4575587357645057 l -5.897392823828896 -1.1039589443143323" fill="#ff4b07" stroke="none" /><path d="M 120.64145759157962 103.86396538481128 l 6.417502004684987 1.2013204732777865 a27.528974104685375,27.528974104685375 0 0,0 -0.09119964636067468,0.4650250319780546 l -6.3958724253486485 -1.311609232323786" fill="#ff5307" stroke="none" /><path d="M 120.5718875245553 104.21870165774334 l 6.695394042858467 1.3730324898061328 a27.834728934435358,27.834728934435358 0 0,0 -0.10029245341279092,0.46853295326760963 l -6.670767550721234 -1.4880792624899115" fill="#ff5708" stroke="none" /><path d="M 120.49622156327973 104.57218783832717 l 5.159319922491622 1.1509135833073305 a26.286131301704515,26.286131301704515 0 0,0 -0.10231492840364323,0.44077003373243456 l -5.138744428157425 -1.23955227438833" fill="#ff4206" stroke="none" /><path d="M 120.41448212921028 104.9243191809786 l 5.59372192077648 1.3493005589461724 a26.7541582290851,26.7541582290851 0 0,0 -0.11184344705111252,0.4467589748236767 l -5.569667159430306 -1.445387373167245" fill="#ff4806" stroke="none" /><path d="M 120.32669344350535 105.2749913415812 l 5.18591950345827 1.3458008089171036 a26.357699218286783,26.357699218286783 0 0,0 -0.11774602223201514,0.4381767513207467 l -5.1619854048844775 -1.4348684934133986" fill="#ff4306" stroke="none" /><path d="M 120.02730092923936 106.31721596034902 l 17.49623724294787 5.518841982138283 a39.34600595457573,39.34600595457573 0 0,0 -0.20929779793747605,0.6441523870792074 l -17.398647193994147 -5.819193269195286" fill="#ffed16" stroke="none" /><path d="M 119.79798401119884 107.00284435728193 l 4.28632974481113 1.516139221545047 a25.54657022604511,25.54657022604511 0 0,0 -0.1502086494020377,0.41330969110649546 l -4.259596834403866 -1.5896967096576737" fill="#ff3705" stroke="none" /><path d="M 119.67450827220406 107.3425965602758 l 5.009300368695132 1.8694887388130217 a26.3467820535681,26.3467820535681 0 0,0 -0.1622280778014043,0.42352631957466935 l -4.976378011300221 -1.955438625220835" fill="#ff4206" stroke="none" /><path d="M 119.54520255179757 107.68017299344265 l 4.521201838984258 1.7765798113193054 a25.85772600038557,25.85772600038557 0 0,0 -0.16634815161432104,0.4128624701941237 l -4.489951073112544 -1.8541416493562428" fill="#ff3c05" stroke="none" /><path d="M 119.26925614724726 108.34839909993367 l 8.818906882657462 3.820788603305479 a30.611011609405754,30.611011609405754 0 0,0 -0.2136341265120438,0.4816885575223705 l -8.751831671414145 -3.972025497320537" fill="#ff7d0b" stroke="none" /><path d="M 119.12269723197855 108.67885076344098 l 7.808920542828174 3.5440845604897 a29.575533535361245,29.575533535361245 0 0,0 -0.2143879487898468,0.4617725688460445 l -7.746757977198496 -3.677977196614575" fill="#ff6f0a" stroke="none" /><path d="M 118.97047184881838 109.00673069616215 l 7.709543346301007 3.660308571336199 a29.534337551672735,29.534337551672735 0 0,0 -0.22199519050349018,0.457375845240641 l -7.6453948991828025 -3.792473372542115" fill="#ff6e0a" stroke="none" /><path d="M 118.81262510543309 109.33194174019688 l 5.542925301190967 2.749550139392231 a27.1874103519659,27.1874103519659 0 0,0 -0.2115715602278489,0.41745076012866544 l -5.494775071176849 -2.844555111223591" fill="#ff4e07" stroke="none" /><path d="M 118.64920377521936 109.65438752849418 l 6.099543983613028 3.1576340778228587 a27.86841246413304,27.86841246413304 0 0,0 -0.2242046850271145,0.42411077032968303 l -6.044286790361021 -3.262159863238676" fill="#ff5708" stroke="none" /><line stroke="#e1ed5e" stroke-width="0.3" x1="174.80103733775053" x2="179.2010983576182" y1="140.37084112569926" y2="142.7455964860345" /><path d="M 175.68104954172406 140.8457921977663 a86.0,86.0 0 0,1 -30.038265399797805,32.042727171017184" fill="none" id="id113" stroke="none" /><text fill="#e1ed5e" style="font-size:6.75px; font-family:Arial;" text-anchor="middle"><textPath startOffset="22.206326154141568" xlink:href="#id113">May</textPath></text><path d="M 118.48025628344425 109.97397251340804 l 7.958819677651666 4.295451723533902 a30.043987846662873,30.043987846662873 0 0,0 -0.24954191593381655,0.4529910617691196 l -7.88370135226634 -4.431813303700826" fill="#ff750a" stroke="none" /><path d="M 118.30583269289576 110.29060199501025 l 2.1407515056711137 1.2034209033074872 a23.455817354680626,23.455817354680626 0 0,0 -0.20088009189779446,0.3502513724571409 l -2.1197194176209395 -1.240092121622943" fill="#ff1a02" stroke="none" /><path d="M 118.12598468904814 110.60418214915192 l 4.718476499885906 2.7604339918434824 a26.46662750727544,26.46662750727544 0 0,0 -0.2334345509580366,0.3912497345359537 l -4.670261073229642 -2.84124582026554" fill="#ff4406" stroke="none" /><path d="M 117.75023020441432 111.22182372390056 l 4.477157484818693 2.8304912950527594 a26.296850018193595,26.296850018193595 0 0,0 -0.24518073057454437,0.38052593860162764 l -4.427771890867098 -2.90713883357584" fill="#ff4206" stroke="none" /><path d="M 117.35343817320211 111.8261652097733 l 4.37745275533653 2.9831828693480547 a26.297308057605775,26.297308057605775 0 0,0 -0.25813824890822384,0.37186740041265387 l -4.3254535992661705 -3.058091531947728" fill="#ff4206" stroke="none" /><path d="M 117.14729908036423 112.12312394758627 l 7.001738436134945 4.950222336008834 a29.57490771402061,29.57490771402061 0 0,0 -0.2974675308489438,0.4131563831037026 l -6.915491112910398 -5.070012324563669" fill="#ff6f0a" stroke="none" /><path d="M 116.71984013943494 112.70617746262583 l 4.269199938782213 3.2443618834403156 a26.362084683033125,26.362084683033125 0 0,0 -0.2776720674193764,0.35892857771091086 l -4.212721054144768 -3.3173684552644795" fill="#ff4306" stroke="none" /><path d="M 116.498646956653 112.99209946851258 l 4.665267350832258 3.6737326174965816 a26.93809993176266,26.93809993176266 0 0,0 -0.2900105656118047,0.36183277176370865 l -4.6013388731655995 -3.7534932228385407" fill="#ff4b06" stroke="none" /><path d="M 116.27256486870786 113.27417163493432 l 5.894874402371998 4.808681066249165 a28.607427805549246,28.607427805549246 0 0,0 -0.3145509291932378,0.3788968574782874 l -5.811227473285217 -4.909439180841223" fill="#ff6209" stroke="none" /><path d="M 116.0416608686014 113.55231037782055 l 5.209574564498844 4.401150978866387 a27.81980916755373,27.81980916755373 0 0,0 -0.3121879244116931,0.36314508522774025 l -5.133044130516372 -4.490173163255656" fill="#ff5708" stroke="none" /><path d="M 115.80600337817218 113.82643327865902 l 6.447782504096997 5.6402515205910015 a29.56658254122777,29.56658254122777 0 0,0 -0.3383841171393352,0.3801781427914395 l -6.349739537309323 -5.750403833123308" fill="#ff6f0a" stroke="none" /><path d="M 115.56566222782051 114.09645910891815 l 2.9019195359223815 2.6280147594612377 a24.91504770966001,24.91504770966001 0 0,0 -0.290620496735199,0.3154111509608567 l -2.8562526311914604 -2.6775771652234295" fill="#ff2e04" stroke="none" /><path d="M 115.32070863581623 114.36230785411682 l 2.4737436318208217 2.318996362173088 a24.390745004235217,24.390745004235217 0 0,0 -0.2897776707401399,0.3038307292551762 l -2.4334594097017175 -2.361234208010771" fill="#ff2703" stroke="none" /><path d="M 115.07121518719521 114.62390073753431 l 6.520250144201275 6.326728781213723 a30.08521650892233,30.08521650892233 0 0,0 -0.3638296561749903,0.3685575208366719 l -6.410379862970749 -6.4380267960310595" fill="#ff760a" stroke="none" /><path d="M 114.55890576462653 115.13401014063108 l 5.794378243500235 6.023267168117023 a29.357904438749305,29.357904438749305 0 0,0 -0.3672033082589758,0.3472136476337379 l -5.689839100850452 -6.122115452496683" fill="#ff6c09" stroke="none" /><path d="M 114.29624159901734 115.38237550388516 l 5.821151175865556 6.263403750689371 a29.550791048577356,29.550791048577356 0 0,0 -0.37557711640361235,0.3430807909872197 l -5.71247450999508 -6.362677308263174" fill="#ff6e0a" stroke="none" /><path d="M 114.0293411484842 115.62618273729858 l 3.954625060915767 4.404746680926423 a26.919531459123718,26.919531459123718 0 0,0 -0.3474640408651032,0.30659661711215447 l -3.8782186671440764 -4.4721664398108665" fill="#ff4a06" stroke="none" /><path d="M 113.20401910651253 116.32954008644616 l 4.941159461608431 6.110780426094731 a28.858542755561302,28.858542755561302 0 0,0 -0.3889616332408378,0.3090146455694665 l -4.8352403356502425 -6.194928985669324" fill="#ff6509" stroke="none" /><path d="M 112.92097659922987 116.55440617244103 l 5.515152740917841 7.066035440513614 a29.96358001036684,29.96358001036684 0 0,0 -0.4093185855457557,0.31384803715659554 l -5.392705426878592 -7.159922819497581" fill="#ff740a" stroke="none" /><path d="M 112.63410532772338 116.77436683061366 l 4.748127768764907 6.304113737053815 a28.892183938443594,28.892183938443594 0 0,0 -0.3998334709496698,0.2957872431402862 l -4.638909327396673 -6.384910928933871" fill="#ff6509" stroke="none" /><path d="M 112.34349029814194 116.9893568818739 l 5.0349159354113775 6.929967264592424 a29.56591062088451,29.56591062088451 0 0,0 -0.4143066439518442,0.29559678993598304 l -4.914881963610648 -7.015608316372627" fill="#ff6f0a" stroke="none" /><line stroke="#e1ed5e" stroke-width="0.3" x1="143.8653032363475" x2="146.44561519142675" y1="172.8068346515853" y2="177.08958963109032" /><path d="M 144.38136562736335 173.6633856474863 a86.0,86.0 0 0,1 -40.68145358897372,12.25698825130547" fill="none" id="id114" stroke="none" /><text fill="#e1ed5e" style="font-size:6.75px; font-family:Arial;" text-anchor="middle"><textPath startOffset="21.466115282336833" xlink:href="#id114">June</textPath></text><path d="M 110.8373102113329 117.98757091392108 l 1.4971673601443545 2.4849712276799676 a23.901136347481604,23.901136347481604 0 0,0 -0.35422864525083897,0.20928452739888925 l -1.4541708438651333 -2.5103743273726065" fill="#ff2003" stroke="none" /><path d="M 110.5260780823613 118.17145234162733 l 2.4134156784209604 4.166344543315862 a25.814873008757964,25.814873008757964 0 0,0 -0.3864255791464629,0.21942252892747577 l -2.3413413323532986 -4.2072702380379665" fill="#ff3b05" stroke="none" /><path d="M 110.21172684928248 118.3499491758327 l 4.172430886338136 7.497644211797439 a29.580434034940662,29.580434034940662 0 0,0 -0.4470549989387804,0.2437700302261873 l -4.042753075530707 -7.568354893783398" fill="#ff6f0a" stroke="none" /><path d="M 109.89434966115114 118.52300852407294 l 4.0387282823826665 7.560820161300524 a29.571891719477453,29.571891719477453 0 0,0 -0.4510545689166677,0.23597043230175024 l -3.9079828109395027 -7.62922001254699" fill="#ff6f0a" stroke="none" /><path d="M 109.57404056367764 118.69057910512821 l 3.92074440201393 7.6541333734104064 a29.59988339245821,29.59988339245821 0 0,0 -0.45548031672946787,0.2283872864244236 l -3.7884101776017016 -7.720488500744132" fill="#ff6f0a" stroke="none" /><path d="M 109.2508944713604 118.85261126421891 l 2.6883356561153264 5.478621254343207 a27.102658391920865,27.102658391920865 0 0,0 -0.4205910968306759,0.20190928575758715 l -2.5936318912844176 -5.524084816600355" fill="#ff4d07" stroke="none" /><path d="M 108.92500713936063 119.00905698771935 l 2.501464522687383 5.32778079860775 a26.885794168697803,26.885794168697803 0 0,0 -0.42061161160128174,0.1930821611893512 l -2.409384915318682 -5.370050030131176" fill="#ff4a06" stroke="none" /><path d="M 108.59647513512805 119.15986991738527 l 2.4335715939613793 5.423957429296913 a26.94487887999082,26.94487887999082 0 0,0 -0.42480439623885236,0.18622176346068026 l -2.3398465230647734 -5.465043746052048" fill="#ff4b06" stroke="none" /><path d="M 108.2653958097858 119.30500536409082 l 1.5017945277001448 3.507654331410037 a24.815629137126628,24.815629137126628 0 0,0 -0.3941295508456249,0.16474618421832424 l -1.441193517357059 -3.5329855586483343" fill="#ff2d04" stroke="none" /><path d="M 107.59598834532513 119.57807347666477 l 3.575260833065923 9.214958752679644 a30.88422757923159,30.88422757923159 0 0,0 -0.49727985968357197,0.18802869238618145 l -3.416110752622076 -9.275135695172455" fill="#ff800b" stroke="none" /><path d="M 107.2578585660854 119.70592522655815 l 2.8224281460870375 7.6632187714457904 a29.16645716200504,29.16645716200504 0 0,0 -0.4726083265695759,0.1694605313089953 l -2.6901002588877265 -7.710666843794746" fill="#ff6909" stroke="none" /><path d="M 106.91757812671514 119.82793768551818 l 2.825279302091664 8.098132167053539 a29.576826203782772,29.576826203782772 0 0,0 -0.4821448958671514,0.16356972630193609 l -2.6854646732872856 -8.145564880253598" fill="#ff6f0a" stroke="none" /><path d="M 106.2309692047433 120.05430185196036 l 1.7913483241723114 5.765433728609612 a27.037313549709364,27.037313549709364 0 0,0 -0.4456328973076305,0.13426553637639074 l -1.6918404524244348 -5.795414634091728" fill="#ff4c07" stroke="none" /><path d="M 105.88484417918355 120.15858648285463 l 2.404775542727808 8.237580176108887 a29.58141436878117,29.58141436878117 0 0,0 -0.4900215267753113,0.13848497815943564 l -2.262622847847891 -8.277753947606842" fill="#ff6f0a" stroke="none" /><path d="M 105.53697534728816 120.25689768951611 l 2.6127796417957705 9.55879457094376 a30.909448577296637,30.909448577296637 0 0,0 -0.5144356040567495,0.13586711866383375 l -2.4478535949275235 -9.602353038911177" fill="#ff810b" stroke="none" /><path d="M 105.18746579009965 120.34920634021253 l 1.6846883244251318 6.608635453192131 a27.81998807210411,27.81998807210411 0 0,0 -0.46505311577119973,0.1142987411704685 l -1.5706819239107208 -6.63665545267663" fill="#ff5708" stroke="none" /><path d="M 104.83641907484287 120.43548508189849 l 1.4011301551628472 5.920242630041063 a27.083784883628134,27.083784883628134 0 0,0 -0.4545946880789098,0.10346427097352301 l -1.2990153176910753 -5.94348363459227" fill="#ff4d07" stroke="none" /><path d="M 104.48393922423573 120.51570834832081 l 1.142573523247476 5.2277035876760705 a26.3511082082712,26.3511082082712 0 0,0 -0.443964146899274,0.0930370035652885 l -1.052417914918824 -5.2465965719679" fill="#ff4206" stroke="none" /><path d="M 104.13013068566511 120.58985236759428 l 1.162343157551656 5.794604538189798 a26.91003243391413,26.91003243391413 0 0,0 -0.4549491908078732,0.08719209520652897 l -1.0624263521720785 -5.813753831744795" fill="#ff4a06" stroke="none" /><path d="M 103.7750983002368 120.6578951692458 l 0.7874655934846226 4.309127971203511 a25.380489234449797,25.380489234449797 0 0,0 -0.4304422545424695,0.07483790339187767 l -0.7131743674701032 -4.322044453116394" fill="#ff3505" stroke="none" /><path d="M 103.41894727170886 120.7198165907248 l 1.2401653050523838 7.515763075814349 a28.61739486935199,28.61739486935199 0 0,0 -0.4867193868707693,0.07601555833946215 l -1.1106100545730972 -7.535996941500917" fill="#ff6209" stroke="none" /><path d="M 103.06178313531738 120.77559828337769 l 0.8767212267883706 5.948954321474893 a27.013210259794356,27.013210259794356 0 0,0 -0.46060277401385386,0.06383534745628482 l -0.7741898615876863 -5.96316423442378" fill="#ff4c07" stroke="none" /><path d="M 102.34483914955558 120.86867818915974 l 1.1005090275890188 9.794347192374826 a30.855980775376217,30.855980775376217 0 0,0 -0.5283240422185461,0.05476294716263091 l -0.93175238876487 -9.811839507993216" fill="#ff800b" stroke="none" /><path d="M 101.98527174616119 120.90594882070398 l 0.21849280425407877 2.3008433944926496 a23.31119437336873,23.31119437336873 0 0,0 -0.39979329113334044,0.034495847401421316 l -0.17885519537919667 -2.3042634941727345" fill="#ff1702" stroke="none" /><path d="M 101.62511606390274 120.93702456842531 l 1.251570284585518 16.124483893506355 a37.172983924100194,37.172983924100194 0 0,0 -0.6383791569522237,0.044026364260090003 l -0.9738283668543638 -16.14363860228273" fill="#ffd213" stroke="none" /><path d="M 100.90346689309514 120.98055641714683 l 0.32706050151263183 7.595088825333961 a28.602127520396017,28.602127520396017 0 0,0 -0.4920650748535916,0.01694771610375514 l -0.19627507498438798 -7.59959333986381" fill="#ff6209" stroke="none" /><line stroke="#e1ed5e" stroke-width="0.3" x1="102.19456741930631" x2="102.32365962044197" y1="184.97166512339345" y2="189.96999836594603" /><path d="M 102.22038585953345 185.97133177190398 a86.0,86.0 0 0,1 -42.740103519485714,-10.115201625700543" fill="none" id="id115" stroke="none" /><text fill="#e1ed5e" style="font-size:6.75px; font-family:Arial;" text-anchor="middle"><textPath startOffset="22.20632615414155" xlink:href="#id115">July</textPath></text><path d="M 100.54218724476979 120.99299961872073 l 0.20420462820258117 7.906618466869212 a28.909255028813813,28.909255028813813 0 0,0 -0.4975700048850673,0.00856611886949342 l -0.06807493342484593 -7.908962063017865" fill="#ff6609" stroke="none" /><path d="M 100.18074693466247 120.99922214144158 l 0.06352214102751237 7.380017552318349 a28.38029092481642,28.38029092481642 0 0,0 -0.48853815137993056,0.0 l 0.06352214102750729 -7.380017552318349" fill="#ff5f08" stroke="none" /><path d="M 99.81925306533755 120.99922214144158 l -0.06557107846601848 7.618063594457683 a28.618345784718144,28.618345784718144 0 0,0 -0.492563036913685,-0.008479919375155905 l 0.19669380527237143 -7.615806197803368" fill="#ff6209" stroke="none" /><path d="M 99.09653310690486 120.98055641714683 l -0.2525967455041367 5.865871024539199 a26.871307179186577,26.871307179186577 0 0,0 -0.4619458337625061,-0.02387732307218348 l 0.3535306476801317 -5.8606538947048135" fill="#ff4a06" stroke="none" /><path d="M 96.58105272829116 120.7198165907248 l -0.945653081504039 5.730933193779307 a26.80842965199025,26.80842965199025 0 0,0 -0.45465951398931054,-0.07904838436527828 l 1.0441615669653996 -5.713806230893022" fill="#ff4906" stroke="none" /><path d="M 96.22490169976321 120.6578951692458 l -0.621205299448309 3.399327099317698 a24.455621615891754,24.455621615891754 0 0,0 -0.41345417521057465,-0.07923947670833514 l 0.6796270892305788 -3.3881304242608947" fill="#ff2803" stroke="none" /><path d="M 95.86986931433489 120.58985236759428 l -1.0449420235508047 5.209327170271262 a26.313096404123385,26.313096404123385 0 0,0 -0.44332372304812157,-0.09290279652055734 l 1.134457208028313 -5.190568393024164" fill="#ff4206" stroke="none" /><path d="M 95.51606077576429 120.51570834832081 l -1.4622017288564344 6.690122839642691 a27.848049175157808,27.848049175157808 0 0,0 -0.46742267680761135,-0.10638387944382693 l 1.5771445550569083 -6.6639622266211775" fill="#ff5708" stroke="none" /><path d="M 95.16358092515715 120.4354850818985 l -1.4048820443551957 5.936095614332288 a27.10007579469687,27.10007579469687 0 0,0 -0.4530186948065888,-0.11134097329337432 l 1.506854023904995 -5.9110333827248835" fill="#ff4d07" stroke="none" /><path d="M 94.11515582081647 120.15858648285463 l -1.8265866672896447 6.256989000870389 a27.518153895861413,27.518153895861413 0 0,0 -0.45355817716963237,-0.13665335818674987 l 1.9340198188995228 -6.224620273577914" fill="#ff5307" stroke="none" /><path d="M 93.76903079525671 120.05430185196036 l -1.4581094870397182 4.692908410467148 a25.914211292285724,25.914211292285724 0 0,0 -0.42484332413034726,-0.13602141627654962 l 1.538674156261006 -4.667114147530892" fill="#ff3c05" stroke="none" /><path d="M 93.08242187328487 119.8279376855182 l -1.3978864480913986 4.00677879981507 a25.2436261466351,25.2436261466351 0 0,0 -0.4090434379274244,-0.1466684237723316 l 1.4666494466485496 -3.9821228350027806" fill="#ff3304" stroke="none" /><path d="M 92.7421414339146 119.70592522655815 l -1.7399104534052419 4.724058065270812 a26.034283761362587,26.034283761362587 0 0,0 -0.41918888670922294,-0.15850136838622236 l 1.8209695608747476 -4.693408446777957" fill="#ff3e05" stroke="none" /><path d="M 92.40401165467489 119.57807347666478 l -1.9314620877376103 4.978194403680434 a26.339753301155675,26.339753301155675 0 0,0 -0.42128419029119446,-0.16763767363167528 l 2.016867354070663 -4.944209885642692" fill="#ff4206" stroke="none" /><path d="M 92.06813273071674 119.44442032107085 l -1.2683906560674099 3.109371376321852 a24.358125252620688,24.358125252620688 0 0,0 -0.38686333166117076,-0.16170890400991514 l 1.321725447226043 -3.087077429291963" fill="#ff2603" stroke="none" /><path d="M 91.7346041902142 119.30500536409082 l -4.643467852671411 10.845478409838915 a32.79771993382937,32.79771993382937 0 0,0 -0.5170784280217386,-0.22667198731046548 l 4.829466955350893 -10.763941869233996" fill="#ff9a0e" stroke="none" /><path d="M 91.40352486487194 119.15986991738527 l -2.150614777860443 4.793301758977137 a26.253654506661533,26.253654506661533 0 0,0 -0.4107221777858683,-0.1885424071707932 l 2.2328049514137307 -4.755572281472269" fill="#ff4106" stroke="none" /><path d="M 90.7491055286396 118.85261126421891 l -3.023291778393445 6.161236063476465 a27.863025790945592,27.863025790945592 0 0,0 -0.42875370973707283,-0.2149860108431769 l 3.1288993958132787 -6.108282211723986" fill="#ff5708" stroke="none" /><path d="M 90.42595943632237 118.69057910512821 l -1.7238133426005178 3.365253095394689 a24.781066097834195,24.781066097834195 0 0,0 -0.3779809960108823,-0.19774179262778363 l 1.7814852411378956 -3.3350818838221885" fill="#ff2c04" stroke="none" /><path d="M 90.10565033884886 118.52300852407294 l -3.227146262662875 6.041474152307245 a27.849370988172236,27.849370988172236 0 0,0 -0.4208930978787221,-0.22950447581493205 l 3.3306621724102374 -5.9850290247325475" fill="#ff5708" stroke="none" /><line stroke="#e1ed5e" stroke-width="0.3" x1="58.666819895761336" x2="56.23545636021788" y1="174.27360380694188" y2="178.64263932499728" /><path d="M 58.180547188652646 175.14741091055294 a86.0,86.0 0 0,1 -31.652253787137756,-30.449443065178592" fill="none" id="id116" stroke="none" /><text fill="#e1ed5e" style="font-size:6.75px; font-family:Arial;" text-anchor="middle"><textPath startOffset="22.20632615414155" xlink:href="#id116">August</textPath></text><path d="M 89.4739219176387 118.17145234162733 l -4.327337141623747 7.470398758198267 a29.633232554713594,29.633232554713594 0 0,0 -0.4391816217292651,-0.25947624331962266 l 4.455286634381395 -7.394803942584895" fill="#ff700a" stroke="none" /><path d="M 89.1626897886671 117.98757091392108 l -3.9874456918998655 6.618290032286192 a28.72667367612413,28.72667367612413 0 0,0 -0.42135300042872575,-0.2588294271038246 l 4.1007778922609 -6.548672138353989" fill="#ff6309" stroke="none" /><path d="M 88.8546689885994 117.79835938074946 l -4.544129822565342 7.256675963420807 a29.562036082756077,29.562036082756077 0 0,0 -0.42895668395053604,-0.2737804510802917 l 4.668368308562801 -7.1773810835167104" fill="#ff6f0a" stroke="none" /><path d="M 88.54995079064634 117.60387380957326 l -3.734810501216458 5.742082987064721 a27.8498413492821,27.8498413492821 0 0,0 -0.39961246831508085,-0.26484135379735535 l 3.833097668271501 -5.676943612176047" fill="#ff5708" stroke="none" /><path d="M 88.24862548938628 117.40417183066458 l -1.8997020508949096 2.813521166479633 a24.39481505187002,24.39481505187002 0 0,0 -0.3459917959093988,-0.23797631214811626 l 1.9478507314271987 -2.7804040649664157" fill="#ff2703" stroke="none" /><path d="M 87.95078237400918 117.19931262002967 l -3.4856958436143244 4.9755572829344565 a27.075051093608373,27.075051093608373 0 0,0 -0.3794022682830501,-0.27069344466495354 l 3.5708254397462618 -4.914819576425284" fill="#ff4d07" stroke="none" /><path d="M 87.65650970185807 116.9893568818739 l -5.038487027723474 6.934882451487133 a29.571986126008483,29.571986126008483 0 0,0 -0.40924112489484576,-0.30274680062368914 l 5.1571131230368845 -6.8471257021236775" fill="#ff6f0a" stroke="none" /><path d="M 87.36589467227662 116.77436683061367 l -3.799536921971614 5.044664775412112 a27.3154670070953,27.3154670070953 0 0,0 -0.37314394057712574,-0.2861108619606443 l 3.8858095910422263 -4.9785145716241015" fill="#ff5007" stroke="none" /><path d="M 87.07902340077011 116.55440617244103 l -3.3211210235427986 4.255033352110355 a26.39769892459643,26.39769892459643 0 0,0 -0.3557938519100035,-0.2826641541164272 l 3.39387236817016 -4.197235283988797" fill="#ff4306" stroke="none" /><path d="M 86.79598089348748 116.32954008644616 l -2.8652802287093215 3.5435201945847865 a25.55701285476163,25.55701285476163 0 0,0 -0.3397012244253024,-0.2795509809604059 l 2.925851581679313 -3.4936740947672" fill="#ff3705" stroke="none" /><path d="M 86.51685102203217 116.09983520530335 l -5.50514589054485 6.573534251068069 a29.57426287363222,29.57426287363222 0 0,0 -0.3874714629200786,-0.3302115867143639 l 5.617482830041985 -6.477798274130754" fill="#ff6f0a" stroke="none" /><path d="M 86.24171649860922 115.8653595955263 l -5.619212581855647 6.479792936803027 a29.57690308584207,29.57690308584207 0 0,0 -0.3817640837503922,-0.33686241696081914 l 5.729919018512628 -6.382107378069919" fill="#ff6f0a" stroke="none" /><path d="M 85.97065885151581 115.62618273729859 l -5.727916782348697 6.379877244248974 a29.57390601285072,29.57390601285072 0 0,0 -0.3758708970883216,-0.34334915267722665 l 5.836887228903874 -6.280335324985171" fill="#ff6f0a" stroke="none" /><path d="M 85.44109423537348 115.13401014063109 l -13.860205088273299 14.407709463083796 a40.99218289886403,40.99218289886403 0 0,0 -0.5043015430543655,-0.4935652012836652 l 14.106156583703457 -14.16699415887756" fill="#fdff18" stroke="none" /><path d="M 84.9287848128048 114.62390073753433 l -5.119550632756382 4.967602104030706 a28.133503300996402,28.133503300996402 0 0,0 -0.3342440362074798,-0.3504535356734952 l 5.204301220342819 -4.878741451774711" fill="#ff5b08" stroke="none" /><path d="M 84.67929136418377 114.36230785411682 l -6.26083573798371 5.8691834973459835 a29.581688590454238,29.581688590454238 0 0,0 -0.3450543275135013,-0.374488323458555 l 6.36093647349294 -5.760543919086084" fill="#ff6f0a" stroke="none" /><path d="M 84.43433777217949 114.09645910891817 l -6.851532362225513 6.204833714361336 a30.243563010738804,30.243563010738804 0 0,0 -0.3461320345111395,-0.38888301009377313 l 6.957323246384991 -6.085976534526699" fill="#ff780b" stroke="none" /><path d="M 83.72743513129214 113.27417163493432 l -27.087444733961973 22.096294803645225 a55.95677196574425,55.95677196574425 0 0,0 -0.6024201828897849,-0.751611804492609 l 27.46378282890662 -21.62675516557436" fill="#57ff2a" stroke="none" /><path d="M 83.28015986056508 112.70617746262583 l -2.7026544521149702 2.053871735755077 a24.39451472149856,24.39451472149856 0 0,0 -0.25119233156975945,-0.3365131774018435 l 2.737608050379815 -2.0070456788439257" fill="#ff2703" stroke="none" /><path d="M 83.06392112726016 112.41649034213515 l -2.7366057826155235 2.006310877824807 a24.393271953133564,24.393271953133564 0 0,0 -0.24535009364662583,-0.3407698211495555 l 2.770735668637757 -1.9589074512241136" fill="#ff2703" stroke="none" /><path d="M 82.85270091963577 112.12312394758628 l -2.7759380983084507 1.9625855639945757 a24.399643278586776,24.399643278586776 0 0,0 -0.23951049195311505,-0.34503272719506056 l 2.8093094974236994 -1.9145115746125028" fill="#ff2703" stroke="none" /><path d="M 82.6465618267979 111.8261652097733 l -5.640699289498032 3.844070611855327 a27.82600669084593,27.82600669084593 0 0,0 -0.2663305206514414,-0.39812799217433537 l 5.706032915560204 -3.746405705475171" fill="#ff5708" stroke="none" /><path d="M 82.44556493220864 111.52570212397912 l -5.72000843120207 3.7555815991849437 a27.842725305107557,27.842725305107557 0 0,0 -0.2595938192889963,-0.4028953723591757 l 5.783807113868112 -3.6565646269043195" fill="#ff5708" stroke="none" /><path d="M 82.24976979558568 111.22182372390057 l -5.022938009023963 3.175537683974889 a26.942553813373692,26.942553813373692 0 0,0 -0.24445281900460217,-0.3941357797074852 l 5.076855467696521 -3.0886055729021398" fill="#ff4b06" stroke="none" /><path d="M 82.05923443525364 110.91462005526583 l -5.063887498817046 3.0807162521985623 a26.927374564445536,26.927374564445536 0 0,0 -0.23749832078915747,-0.39806084652051726 l 5.116166695304435 -2.993093311791934" fill="#ff4a06" stroke="none" /><line stroke="#e1ed5e" stroke-width="0.3" x1="26.63291911575756" x2="22.317208475507996" y1="142.92168965132927" y2="145.44649492493687" /><path d="M 25.769776987707644 143.4266507060508 a86.0,86.0 0 0,1 -11.730757126820373,-40.83630448921669" fill="none" id="id117" stroke="none" /><text fill="#e1ed5e" style="font-size:6.75px; font-family:Arial;" text-anchor="middle"><textPath startOffset="21.46611528233685" xlink:href="#id117">September</textPath></text><path d="M 81.87401531095188 110.60418214915194 l -6.13411843207382 3.5886220966237055 a28.106730436078443,28.106730436078443 0 0,0 -0.24071139826723487,-0.4197006125030711 l 6.194981826493432 -3.4825016382623275" fill="#ff5b08" stroke="none" /><path d="M 81.69416730710424 110.29060199501025 l -2.95867385432081 1.663214975174239 a24.394117710080987,24.394117710080987 0 0,0 -0.20261474282165118,-0.3678046116516876 l 2.986865006593978 -1.612039845124729" fill="#ff2703" stroke="none" /><path d="M 81.51974371655577 109.97397251340807 l -2.9727602832670685 1.6044273899393617 a24.378089837668284,24.378089837668284 0 0,0 -0.1961246253496405,-0.37099387966667996 l 2.999937416841595 -1.5530184951865555" fill="#ff2703" stroke="none" /><path d="M 81.35079622478065 109.6543875284942 l -6.051343132550021 3.132681286219833 a27.814135730148926,27.814135730148926 0 0,0 -0.21644871713172692,-0.4270738533960184 l 6.104370519468015 -3.0280532211211293" fill="#ff5708" stroke="none" /><path d="M 81.18737489456691 109.33194174019688 l -6.841897470839223 3.3939010761359754 a28.637416154438167,28.637416154438167 0 0,0 -0.21525347042605253,-0.4434859050495932 l 6.899304197879994 -3.2756262151210973" fill="#ff6209" stroke="none" /><path d="M 81.02952815118164 109.00673069616217 l -13.125642060134705 6.231743954076508 a35.52986965529789,35.52986965529789 0 0,0 -0.2575499058051779,-0.5547395843891006 l 13.23096658277971 -6.0048843024085805" fill="#ffbd11" stroke="none" /><path d="M 80.87730276802145 108.67885076344099 l -3.5436079614888776 1.608269183411701 a24.891489066031035,24.891489066031035 0 0,0 -0.17371760175908169,-0.3916873318592299 l 3.570766647979239 -1.5470335150597754" fill="#ff2e04" stroke="none" /><path d="M 80.58989483394504 108.01547362559985 l -3.1387142074497016 1.296143464081084 a24.395808409720242,24.395808409720242 0 0,0 -0.15694333043956374,-0.38952047532214296 l 3.1605601521466533 -1.2419236209161357" fill="#ff2703" stroke="none" /><path d="M 80.45479744820244 107.68017299344265 l -6.385424843230924 2.509115334193844 a27.860707703206526,27.860707703206526 0 0,0 -0.17154994669513288,-0.4478627777120201 l 6.427669069519566 -2.3988289896486665" fill="#ff5708" stroke="none" /><path d="M 80.32549172779594 107.34259656027581 l -5.0321698829381445 1.8780237229810004 a26.371192310356157,26.371192310356157 0 0,0 -0.15505725993783667,-0.42665098490565945 l 5.063751403881206 -1.7911249410692238" fill="#ff4306" stroke="none" /><path d="M 80.20201598880116 107.00284435728193 l -5.025535844456588 1.777607523612695 a26.330656529164344,26.330656529164344 0 0,0 -0.14746317310067975,-0.42859700701182873 l 5.0553898485004956 -1.6908378135115691" fill="#ff4206" stroke="none" /><path d="M 80.0844068197444 106.66101706037122 l -11.59500235087433 3.878092295578168 a33.226351842221945,33.226351842221945 0 0,0 -0.1767448081541291,-0.5439645863371639 l 11.660039410044707 -3.6779288092632005" fill="#ff9f0e" stroke="none" /><path d="M 79.97269907076064 106.31721596034903 l -5.106072793529013 1.610609670267262 a26.354067881786296,26.354067881786296 0 0,0 -0.13274070559281262,-0.43380430620313853 l 5.133040271627956 -1.5224783915120756" fill="#ff4306" stroke="none" /><path d="M 79.86692584326677 105.97154293290107 l -8.21506026588489 2.436616717953878 a29.56879899416091,29.56879899416091 0 0,0 -0.14053256466914374,-0.48921229375373476 l 8.255785467440138 -2.294846948695547" fill="#ff6f0a" stroke="none" /><path d="M 79.67330655649465 105.27499134158121 l -8.310493790669769 2.1566607924642174 a29.58577269781312,29.58577269781312 0 0,0 -0.12368076670029306,-0.494043182620942 l 8.34638587166512 -2.0132897704458834" fill="#ff6f0a" stroke="none" /><path d="M 79.58551787078972 104.9243191809786 l -2.7966349511446014 0.6745957622119341 a23.87684662301588,23.87684662301588 0 0,0 -0.09293713953944062,-0.40037076474498773 l 2.8078326566145972 -0.626356340118372" fill="#ff2003" stroke="none" /><path d="M 79.50377843672027 104.57218783832718 l -4.199313446781354 0.9367604566246289 a25.302528742195022,25.302528742195022 0 0,0 -0.09116857904669778,-0.4259092497233931 l 4.214816064552493 -0.864337387485072" fill="#ff3404" stroke="none" /><path d="M 79.4281124754447 104.21870165774334 l -8.770557223079962 1.7985886930489678 a29.95307742008767,29.95307742008767 0 0,0 -0.09923036208097862,-0.5059734784212809 l 8.800217518136607 -1.6473514875597322" fill="#ff740a" stroke="none" /><path d="M 79.35854240842038 103.8639653848113 l -6.700188510838397 1.2542378057715782 a27.816570879422994,27.816570879422994 0 0,0 -0.08405049448683387,-0.47139980928034114 l 6.72078544766442 -1.1387192457580233" fill="#ff5708" stroke="none" /><path d="M 79.29508885075956 103.50808413554451 l -8.462499018682157 1.4338220695812518 a29.583107558944764,29.583107558944764 0 0,0 -0.08074532503904534,-0.5028012160955752 l 8.485926098082494 -1.287941623792463" fill="#ff6f0a" stroke="none" /><path d="M 79.1416061653843 102.43462659150553 l -8.566430443734685 0.9998880794928311 a29.624587336148686,29.624587336148686 0 0,0 -0.054759919017636965,-0.507008840536064 l 8.582372664253374 -0.852282917071985" fill="#ff6f0a" stroke="none" /><path d="M 79.07016306316243 101.71520430193888 l -17.794875638972723 1.4582935997324187 a38.85452937575016,38.85452937575016 0 0,0 -0.0488890655992854,-0.6670524575587468 l 17.817341263236344 -1.1517680056769113" fill="#ffe715" stroke="none" /><path d="M 79.04373962182676 101.35467743843564 l -7.152735542638341 0.46237493177938477 a28.167664635043955,28.167664635043955 0 0,0 -0.027112918535736327,-0.484119373884067 l 7.15963481206161 -0.3391838415598802" fill="#ff5c08" stroke="none" /><path d="M 79.0235259727143 100.99374915477108 l -8.551490150500534 0.40512223827698907 a29.56108099611575,29.56108099611575 0 0,0 -0.0197043849789771,-0.5084826218409121 l 8.557196668330713 -0.25786236942208024" fill="#ff6f0a" stroke="none" /><path d="M 79.0095281055655 100.63252640178507 l -4.177447564172407 0.12588310971285993 a25.17934381317462,25.17934381317462 0 0,0 -0.009325874181500835,-0.43333672789538663 l 4.178995501038916 -0.05395656602734448" fill="#ff3204" stroke="none" /><line stroke="#e1ed5e" stroke-width="0.3" x1="15.007084014347285" x2="10.007500721073583" y1="101.09737516637583" y2="101.16192664675087" /><path d="M 14.007167355692545 101.11028546245083 a86.0,86.0 0 0,1 10.666146001902534,-42.60595125391555" fill="none" id="id118" stroke="none" /><text fill="#e1ed5e" style="font-size:6.75px; font-family:Arial;" text-anchor="middle"><textPath startOffset="22.20632615414155" xlink:href="#id118">October</textPath></text><path d="M 79.00019446554 99.90962569577889 l -5.028035851128166 -0.021638545218854145 a26.028082412497763,26.028082412497763 0 0,0 0.005784422636125719,-0.4480099078253266 l 5.026918421374325 0.10818471110465276" fill="#ff3e05" stroke="none" /><path d="M 79.03285615573316 98.82574320788736 l -0.6837330842459476 -0.03829220728065287 a21.684804514902538,21.684804514902538 0 0,0 0.02407984883201714,-0.3725046034379265 l 0.6829726444095173 0.050055874971591155" fill="#ff0000" stroke="none" /><path d="M 79.05617556472873 98.46500227214037 l -1.557826717822717 -0.1141749674061345 a22.562005123533368,22.562005123533368 0 0,0 0.03172165939711782,-0.38708459266170814 l 1.555630574606102 0.14097347727562104" fill="#ff0d01" stroke="none" /><path d="M 79.08570108090925 98.10471618934814 l -21.94545165969053 -1.9887283532171376 a43.03537812270766,43.03537812270766 0 0,0 0.07320701923310721,-0.7371846931488183 l 21.907967514775194 2.3661885770703863" fill="#e5ff1a" stroke="none" /><path d="M 79.32604984820605 96.31383870115002 l -15.230725495193335 -2.71563539921362 a36.47092998922154,36.47092998922154 0 0,0 0.11551607174129472,-0.6170914743094338 l 15.181723699542179 2.9774049509856266" fill="#ffc912" stroke="none" /><path d="M 79.3925641242962 95.95851677861259 l -4.4770184932726425 -0.8780226337491673 a25.562304059845317,25.562304059845317 0 0,0 0.08839773899337904,-0.43105876914972935 l 4.4612414583642686 0.9549570590622991" fill="#ff3705" stroke="none" /><path d="M 79.46518482838121 95.60439243477599 l -6.940646888546796 -1.4856895334032725 a28.097876627637195,28.097876627637195 0 0,0 0.10530764780568126,-0.4720735363582083 l 6.914044853739077 1.60494123931144" fill="#ff5b08" stroke="none" /><path d="M 79.54389044137918 95.25157060432595 l -6.680358732139127 -1.5506962204340051 a27.857977220590325,27.857977220590325 0 0,0 0.11244965330416438,-0.46617641006721666 l 6.652676278574148 1.6654578621606186" fill="#ff5708" stroke="none" /><path d="M 79.62865764111835 94.90015583598534 l -6.921548179651277 -1.7327683403519536 a28.135146482347785,28.135146482347785 0 0,0 0.1216559287601618,-0.4687899200895143 l 6.890695919020808 1.8516546859903318" fill="#ff5b08" stroke="none" /><path d="M 79.71946130924805 94.55025226153421 l -2.796764981682434 -0.7515413602348958 a23.895981488012115,23.895981488012115 0 0,0 0.11016414944480538,-0.3963190593326103 l 2.783414061671268 0.7995717229864487" fill="#ff2003" stroke="none" /><path d="M 79.81627453868168 94.20196356495316 l -5.721526896786928 -1.6435826713580537 a26.952918110325786,26.952918110325786 0 0,0 0.13193338273202695,-0.4448137789745675 l 5.692387616943194 1.7418258370791604" fill="#ff4b07" stroke="none" /><path d="M 79.91906864156998 93.8553929516997 l -6.741261465333545 -2.0627729847268528 a28.0497970559804,28.0497970559804 0 0,0 0.14525055291679279,-0.4604839460391472 l 6.704755428648548 2.1785070971924143" fill="#ff5a08" stroke="none" /><path d="M 80.02781315780177 93.51064311812611 l -7.2544867494459675 -2.357125630955626 a28.627818773279493,28.627818773279493 0 0,0 0.156311579712166,-0.46735172762597627 l 7.212837875962029 2.4816504615039245" fill="#ff6209" stroke="none" /><path d="M 80.14247586403 93.16781622104843 l -8.109722178145823 -2.790232656294095 a29.576304103922634,29.576304103922634 0 0,0 0.16977773051238382,-0.47998450667358084 l 8.060491366823628 2.9294147893942872" fill="#ff6f0a" stroke="none" /><path d="M 80.38941819471856 92.48833698450439 l -7.185322470937492 -2.7522753580322012 a28.69440567281129,28.69440567281129 0 0,0 0.1806469291550974,-0.45972673059723856 l 7.136881991900704 2.8755510935252033" fill="#ff6309" stroke="none" /><path d="M 80.65960295795068 91.81776055985345 l -10.757348952445303 -4.551054700622136 a32.68043900599335,32.68043900599335 0 0,0 0.2236420329324225,-0.516196646360641 l 10.6774162096702 4.735550491569376" fill="#ff980e" stroke="none" /><path d="M 80.803312248108 91.48605970444005 l -17.8383843003023 -7.911517906887815 a40.51409926274534,40.51409926274534 0 0,0 0.2882244076271875,-0.6350642766134974 l 17.69955757571176 8.217404192343384" fill="#fffb17" stroke="none" /><path d="M 80.95270993114464 91.15688171328213 l -4.189926485150934 -1.945264412254966 a25.619473734588706,25.619473734588706 0 0,0 0.18914711812544954,-0.3983920693013391 l 4.155821173183734 2.017098897196837" fill="#ff3805" stroke="none" /><path d="M 81.10775173730289 90.83032412892265 l -6.161390181755875 -2.990536123405456 a27.848798089973936,27.848798089973936 0 0,0 0.21303002687792552,-0.4294555349174521 l 6.109000141924537 3.0961512468218695" fill="#ff5708" stroke="none" /><path d="M 81.26839172434947 90.50648371742162 l -6.3624442829343435 -3.2246013000150264 a28.1329342347664,28.1329342347664 0 0,0 0.22263944225452675,-0.4300685377245747 l 6.305995407519703 3.3336425599999364" fill="#ff5b08" stroke="none" /><path d="M 81.6062741919709 89.86733742301443 l -6.272257414685623 -3.455236238830026 a28.160996476902014,28.160996476902014 0 0,0 0.23754787330828442,-0.42257116031144093 l 6.211851900084909 3.5626909090762515" fill="#ff5c08" stroke="none" /><line stroke="#e1ed5e" stroke-width="0.3" x1="26.266209847984243" x2="21.928928074336255" y1="57.711370442889674" y2="55.22380399835377" /><path d="M 25.398753493254645 57.213857153982495 a86.0,86.0 0 0,1 29.58750427330803,-30.492523968695096" fill="none" id="id119" stroke="none" /><text fill="#e1ed5e" style="font-size:6.75px; font-family:Arial;" text-anchor="middle"><textPath startOffset="21.46611528233685" xlink:href="#id119">November</textPath></text><path d="M 81.78341655067845 89.55222093294921 l -6.084832463503365 -3.4898412984828524 a28.01456901010325,28.01456901010325 0 0,0 0.24351374031799017,-0.41624391834213653 l 6.02385904871505 3.594064629178881" fill="#ff5908" stroke="none" /><path d="M 81.96595687620814 89.24020034530311 l -10.649521673872934 -6.353911812379647 a33.40098815424751,33.40098815424751 0 0,0 0.298834190276777,-0.49120483565525647 l 10.538571685309941 6.536284421241978" fill="#ffa20e" stroke="none" /><path d="M 82.15384107792192 88.93136811851018 l -6.429308369278647 -3.9876170498564827 a28.565520196495584,28.565520196495584 0 0,0 0.26276524765912157,-0.41563151858601477 l 6.359715525373563 4.097696216156713" fill="#ff6109" stroke="none" /><path d="M 82.34701348167596 88.62581576622439 l -7.211160577687854 -4.646299869136723 a29.57839957982486,29.57839957982486 0 0,0 0.2794501903507205,-0.42562181187969705 l 7.130113751979213 4.769739744994088" fill="#ff6f0a" stroke="none" /><path d="M 82.54541684631803 88.32363383020206 l -2.536664702174726 -1.6969196944898413 a24.0519181281297,24.0519181281297 0 0,0 0.23316105164884351,-0.3421350727320488 l 2.507079184857142 1.7403327904923058" fill="#ff2203" stroke="none" /><path d="M 82.7489923806493 88.02491185347247 l -4.771464835629081 -3.3121956268004533 a26.80840051544665,26.80840051544665 0 0,0 0.26640832718175816,-0.3768156857453112 l 4.713743888643445 3.3938378128775506" fill="#ff4906" stroke="none" /><path d="M 83.17141714833178 87.43820079747576 l -50.48574855500465 -37.6853976075727 a84.0,84.0 0 0,0 0.8748962391035646,-1.1512608964758937 l 49.82957637567698 38.54884327992962" fill="#4dd2ff" stroke="none" /><path d="M 83.84228863543731 86.58626213691792 l -4.244843331659732 -3.523965395595287 a26.51697625694448,26.51697625694448 0 0,0 0.2945775772932891,-0.34868693696440206 l 4.183555140879319 3.5965112821888052" fill="#ff4506" stroke="none" /><path d="M 84.07557802195018 86.31012108654704 l -2.163075857941043 -1.8595492267564697 a23.852511260966022,23.852511260966022 0 0,0 0.2703377025814773,-0.3090427266477607 l 2.130746291781722 1.8965075096071735" fill="#ff1f03" stroke="none" /><path d="M 84.31358615837235 86.03803664274999 l -9.444694829825092 -8.40641363065963 a33.64397289455592,33.64397289455592 0 0,0 0.38875828465740014,-0.4292766077273746 l 9.298592904551647 8.567743025656561" fill="#ffa50f" stroke="none" /><path d="M 84.80347519578584 85.50635884689758 l -15.377494750141338 -14.666240710537908 a42.25008144384543,42.25008144384543 0 0,0 0.5064693028985545,-0.5219611365455634 l 15.122761183539666 14.928766042633596" fill="#eeff19" stroke="none" /><path d="M 85.31137513191541 84.99185889309783 l -5.314384114096819 -5.4299859515062305 a28.597856667884678,28.597856667884678 0 0,0 0.35477242184542984,-0.3412907887294784 l 5.220128448638961 5.520659826998023" fill="#ff6109" stroke="none" /><path d="M 85.57189188830299 84.74124197986013 l -4.164764246390407 -4.404536572267673 a27.061782216844755,27.061782216844755 0 0,0 0.3412260276895739,-0.31713240458153114 l 4.088330334905976 4.4755735629238504" fill="#ff4c07" stroke="none" /><path d="M 85.83668400450813 84.49514656593479 l -5.787639794966712 -6.335840192980578 a29.581354517048606,29.581354517048606 0 0,0 0.37890758748163594,-0.34018697322926716 l 5.677721219889105 6.4345261749791245" fill="#ff6f0a" stroke="none" /><path d="M 86.10567301691215 84.25364557470407 l -4.532922527103186 -5.13713293065975 a27.85109636364782,27.85109636364782 0 0,0 0.36220510149516744,-0.31410069478826863 l 4.443823626961246 5.2143986188677" fill="#ff5708" stroke="none" /><path d="M 86.37877921826538 84.01681056812374 l -1.861811901793638 -2.184656778546098 a23.870377814453676,23.870377814453676 0 0,0 0.3150235857721095,-0.26382319349081507 l 1.8239307790624182 2.2163811294307254" fill="#ff1f03" stroke="none" /><path d="M 86.93701828274178 83.55741782278169 l -11.252149513203008 -14.16325897453831 a39.08891299794752,39.08891299794752 0 0,0 0.5304317932676486,-0.41401042821508716 l 11.006685164775933 14.354847791976619" fill="#ffea16" stroke="none" /><path d="M 87.22198572758235 83.33499621200491 l -2.066647617032231 -2.6953084909786096 a24.396427569450935,24.396427569450935 0 0,0 0.33545534739208627,-0.2526580129370281 l 2.019946115881755 2.730483093421492" fill="#ff2703" stroke="none" /><path d="M 87.51073957382395 83.11751280151077 l -4.0546677145188275 -5.4809390987654005 a27.81769929518284,27.81769929518284 0 0,0 0.3874007831970632,-0.2814631443752519 l 3.959721614967982 5.54992147795732" fill="#ff5708" stroke="none" /><path d="M 87.80319425747018 82.90503203632743 l -3.9591392672777443 -5.549105263013958 a27.816696630899,27.816696630899 0 0,0 0.3921741748598716,-0.2747430716897916 l 3.8630339528342126 5.616433177467693" fill="#ff5708" stroke="none" /><path d="M 88.09926311788651 82.69761687909137 l -2.1443010927832895 -3.11758165913929 a24.78382644658992,24.78382644658992 0 0,0 0.3535770503829236,-0.23873680275249698 l 2.0903193479938262 3.154030374190453" fill="#ff2c04" stroke="none" /><path d="M 89.00827224532344 82.1063720568725 l -14.676926220320011 -23.892827678833534 a49.04067363254939,49.04067363254939 0 0,0 0.723088231184629,-0.43565256859930385 l 14.263475922917733 24.141926856891455" fill="#a0ff22" stroke="none" /><line stroke="#e1ed5e" stroke-width="0.3" x1="56.762969772571076" x2="54.21961505331055" y1="26.818313649435495" y2="22.513508569990535" /><path d="M 56.25429882871897 25.957352633546506 a86.0,86.0 0 0,1 42.265352541879196,-11.944610805530505" fill="none" id="id120" stroke="none" /><text fill="#e1ed5e" style="font-size:6.75px; font-family:Arial;" text-anchor="middle"><textPath startOffset="22.20632615414155" xlink:href="#id120">December</textPath></text><path d="M 89.63071344664047 81.73862282372117 l -1.6755333945930322 -2.95078616379841 a24.393309761996477,24.393309761996477 0 0,0 0.36691709245801907,-0.20418896470018186 l 1.6244922130629675 2.9791905260587765" fill="#ff2703" stroke="none" /><path d="M 89.94658935756843 81.56283822128135 l -3.7850790065232696 -6.941536208016897 a28.906437125079336,28.906437125079336 0 0,0 0.43890288878807804,-0.23444672302098193 l 3.665031071206886 7.005661657539629" fill="#ff6609" stroke="none" /><path d="M 90.26544431104013 81.39251694778311 l -3.535187841655304 -6.757467926821517 a28.626331087607525,28.626331087607525 0 0,0 0.4385819907737838,-0.2246587302912725 l 3.4183453632927567 6.817319182425295" fill="#ff6209" stroke="none" /><path d="M 91.23893434514133 80.91482961587045 l -16.537927523812932 -36.02634394336667 a60.64089434799172,60.64089434799172 0 0,0 0.9524024432445135,-0.4273152144189478 l 15.915342962101644 36.30567948830215" fill="#30ff37" stroke="none" /><path d="M 91.90106846888425 80.62456947434976 l -1.308893053405193 -3.1313224867163103 a24.393874119802852,24.393874119802852 0 0,0 0.38881062624421725,-0.15860561689844085 l 1.2547985575725955 3.1533889897983283" fill="#ff2703" stroke="none" /><path d="M 92.23578459929587 80.48803036053334 l -2.5080361300566376 -6.302855124281134 a27.783526217782786,27.783526217782786 0 0,0 0.4458817176697937,-0.17299517926777383 l 2.3991712473871676 6.345093007439459" fill="#ff5608" stroke="none" /><path d="M 93.25333710446033 80.11325718540243 l -1.3722147754617737 -4.044797072051754 a25.271224267592846,25.271224267592846 0 0,0 0.41314501876329107,-0.13620741705992878 l 1.3023869344560732 4.067818213370916" fill="#ff3304" stroke="none" /><path d="M 93.59665428221793 80.00007090966166 l -1.8200282767202773 -5.684596472080572 a26.968847458132288,26.968847458132288 0 0,0 0.4433352677943023,-0.1377464257491915 l 1.7219076362152463 5.715083032712289" fill="#ff4b07" stroke="none" /><path d="M 94.28887869178378 79.79150937346287 l -2.3338858683497574 -8.25832759428542 a29.581782909222227,29.581782909222227 0 0,0 0.49120143528435245,-0.13426390750492995 l 2.1913865438416824 8.297278042616647" fill="#ff6f0a" stroke="none" /><path d="M 94.63758080256005 79.69619591428918 l -1.5435816814363097 -5.844485277304897 a27.04488648064622,27.04488648064622 0 0,0 0.45112301622350476,-0.1150013015083298 l 1.4427497765278057 5.870189574982089" fill="#ff4c07" stroke="none" /><path d="M 94.98787191387505 79.60689891045804 l -1.2685564092725534 -5.161440140306228 a26.315044655077777,26.315044655077777 0 0,0 0.4408099707704541,-0.10432547808241661 l 1.1795227515395652 5.182511530529515" fill="#ff4206" stroke="none" /><path d="M 95.33964822691252 79.52364482259891 l -0.7528362702354879 -3.307763793452676 a24.39235372021529,24.39235372021529 0 0,0 0.41020653291976,-0.08965525985103112 l 0.695787013162207 3.3202325513995756" fill="#ff2703" stroke="none" /><path d="M 95.692805502759 79.44645832069477 l -2.1351501985599657 -10.188743189050268 a31.410060237233445,31.410060237233445 0 0,0 0.5301324013683895,-0.10633957248780038 l 1.9594513877244397 10.223986717615277" fill="#ff870c" stroke="none" /><path d="M 96.04723909329186 79.375362276772 l -1.7887620975587313 -9.333367513471591 a30.50323202827278,30.50323202827278 0 0,0 0.5165284824468709,-0.09439227860019588 l 1.6278384940089672 9.362775273422523" fill="#ff7b0b" stroke="none" /><path d="M 96.40284397218896 79.31037775812273 l -0.5906898176721732 -3.397447621196883 a24.448414824158768,24.448414824158768 0 0,0 0.4152397868561211,-0.06851812274304597 l 0.5321208246771665 3.407112006879556" fill="#ff2803" stroke="none" /><path d="M 98.19473922651362 79.07773832637324 l -3.3050271989233275 -38.30396411970186 a59.44628554319689,59.44628554319689 0 0,0 1.020239262654105,-0.07919020247336873 l 2.6451977469068884 38.35517958436369" fill="#35ff2f" stroke="none" /><path d="M 98.91598698831166 79.02799685794201 l -0.2729549111076616 -5.28075880240066 a26.287808422459143,26.287808422459143 0 0,0 0.45209919086496475,-0.019468342174558194 l 0.1820148878533728 5.284674871099411" fill="#ff4206" stroke="none" /></svg>