<?xml version="1.0" encoding="utf-8" ?>
<svg baseProfile="full" height="200mm" version="1.1" viewBox="0,0,200,200" width="200mm" xmlns="http://www.w3.org/2000/svg" xmlns:ev="http://www.w3.org/2001/xml-events" xmlns:xlink="http://www.w3.org/1999/xlink"><defs /><rect fill="#1a1a1a" height="200" width="200" x="0" y="0" /><text alignment-baseline="middle" fill="#e1ed5e" style="dominant-baseline: central; font-size:9.0px; font-family:Arial;" text-anchor="middle" x="100.0" y="100.0">2021</text><line stroke="#e1ed5e" stroke-width="0.3" x1="100.0" x2="100.0" y1="15.0" y2="10.0" /><path d="M 100.0 14.0 a86.0,86.0 0 0,1 42.46469731375804,11.215312516191453" fill="none" id="id61" stroke="none" /><text fill="#e1ed5e" style="font-size:6.75px; font-family:Arial;" text-anchor="middle"><textPath startOffset="22.20632615414155" xlink:href="#id61">January</textPath></text><path d="M 100.0 79.0 l 0.0 -9.688501958699625 a30.688501958699625,30.688501958699625 0 0,0 0.528252114104127,0.0045468327212386216 l -0.1667716348315986 9.687066502586946" fill="#ff770a" stroke="none" /><path d="M 100.72285384407766 79.0124445844662 l 1.4912769267995059 -43.29818177981358 a64.32385546451499,64.32385546451499 0 0,0 1.1062452427177707,0.04763724720010981 l -2.236363001906608 43.26609680608928" fill="#34ff60" stroke="none" /><path d="M 101.80526077348638 79.07773832637324 l 1.1919111461980811 -13.813780955484136 a34.865107156691124,34.865107156691124 0 0,0 0.5974798098571065,0.05673790726189916 l -1.4295160831454319 13.79121750370706" fill="#ffae10" stroke="none" /><path d="M 102.88285421437855 79.19881850522331 l 1.7710574731250466 -12.779032582504717 a33.9011750750786,33.9011750750786 0 0,0 0.5773386574650953,0.08508471047053903 l -1.9907651110187976 12.74665338787321" fill="#ffa20e" stroke="none" /><path d="M 103.2404852339499 79.25152402106235 l 1.7030176939006523 -10.904237841729886 a32.03642479133314,32.03642479133314 0 0,0 0.5441170029903338,0.08978396766779097 l -1.8904639030298613 10.87330761112247" fill="#ff890c" stroke="none" /><path d="M 104.66035177308747 79.52364482259891 l 2.902074059569174 -12.750947157684713 a34.07702899229378,34.07702899229378 0 0,0 0.5708329341990619,0.13509771265250442 l -3.1211306807307593 12.69910353289134" fill="#ffa40f" stroke="none" /><path d="M 105.01212808612495 79.60689891045804 l 2.6142447101955155 -10.636710740773434 a31.953259368227805,31.953259368227805 0 0,0 0.532997273058674,0.13587287258199035 l -2.7969508719392144 10.590134872022576" fill="#ff880c" stroke="none" /><path d="M 105.71112130821622 79.79150937346287 l 3.7698728930186767 -13.339489201919802 a34.86195923373215,34.86195923373215 0 0,0 0.5760686134967692,0.16817022512119534 l -3.998931724238873 13.272620647879904" fill="#ffae10" stroke="none" /><path d="M 106.40334571778207 80.00007090966166 l 4.220310487076302 -13.181532623850433 a34.84065832686291,34.84065832686291 0 0,0 0.5695903089521329,0.1877849695416211 l -4.446583618270853 13.106933930049577" fill="#ffae10" stroke="none" /><path d="M 107.08798089147638 80.2323363322302 l 4.229205827674181 -11.794828409282228 a33.53013005268678,33.53013005268678 0 0,0 0.5416196539531165,0.19948308946722057 l -4.431607807399875 11.720282052008683" fill="#ff9d0e" stroke="none" /><path d="M 107.4271985657038 80.35727306442388 l 2.810798492973912 -7.433724409007171 a28.947379867426335,28.947379867426335 0 0,0 0.464559730689161,0.1802419581389471 l -2.93834138866274 7.384239746977677" fill="#ff5f08" stroke="none" /><path d="M 108.09893153111575 80.62456947434976 l 5.234597721997383 -12.522958627644407 a34.572969686138464,34.572969686138464 0 0,0 0.5471028270536609,0.2342408784129478 l -5.449384306841359 12.430998221268668" fill="#ffaa0f" stroke="none" /><path d="M 110.05341064243156 81.56283822128135 l 8.248434351492724 -15.126977696280544 a38.22968727152801,38.22968727152801 0 0,0 0.5750398710183398,0.32000906563924764 l -8.507598311583099 14.982753233081116" fill="#ffd914" stroke="none" /><line stroke="#e1ed5e" stroke-width="0.3" x1="143.23703022742887" x2="145.7803849466894" y1="26.81831364943548" y2="22.513508569990506" /><path d="M 143.74570117128098 25.957352633546492 a86.0,86.0 0 0,1 28.547481713284135,27.462654790039103" fill="none" id="id62" stroke="none" /><text fill="#e1ed5e" style="font-size:6.75px; font-family:Arial;" text-anchor="middle"><textPath startOffset="19.985693538727396" xlink:href="#id62">February</textPath></text><path d="M 110.68208982089419 81.91981866633111 l 7.051014048056351 -11.934332580292223 a34.86164107322479,34.86164107322479 0 0,0 0.5140231671512222,0.3096932067641384 l -7.255399281425211 11.811192764069471" fill="#ffae10" stroke="none" /><path d="M 111.2981086023043 82.29822771554956 l 7.097348032482558 -11.12005939373558 a34.19196990651476,34.19196990651476 0 0,0 0.493394968336455,0.3209178120799572 l -7.2877100266032935 10.996242657496095" fill="#ffa50f" stroke="none" /><path d="M 111.60114157652 82.49532879139004 l 6.022553602536604 -9.087279898557737 a31.9018258952415,31.9018258952415 0 0,0 0.45512558467019876,0.3073028264061509 l -6.178083881613344 8.982265159852917" fill="#ff870c" stroke="none" /><path d="M 111.90073688211348 82.69761687909136 l 5.392805043766067 -7.840554739416959 a30.516125517344886,30.516125517344886 0 0,0 0.4302321193448843,0.3014050939245508 l -5.526968302694603 7.746564802728472" fill="#ff740a" stroke="none" /><path d="M 112.19680574252982 82.90503203632743 l 13.07403595799317 -18.324488441958152 a43.51038189125978,43.51038189125978 0 0,0 0.6059435700635343,0.4402437732225511 l -13.387524844410493 18.096725433918927" fill="#e4ff1a" stroke="none" /><path d="M 112.77801427241765 83.33499621200491 l 8.554021566582636 -11.156099748409487 a35.05808829670745,35.05808829670745 0 0,0 0.47573399251941917,0.3713179271289575 l -8.744788114261484 11.007203432057306" fill="#ffb110" stroke="none" /><path d="M 113.06298171725822 83.55741782278167 l 5.888807315291636 -7.412335124037066 a30.466824366579633,30.466824366579633 0 0,0 0.4078152755227659,0.32975825782134266 l -6.015525989378893 7.309870768951593" fill="#ff740a" stroke="none" /><path d="M 113.6212207817346 84.01681056812373 l 12.126169123227452 -14.228890441259832 a39.695060866295414,39.695060866295414 0 0,0 0.516236537413306,0.4476752381655059 l -12.369299459287523 14.018050209674653" fill="#ffec16" stroke="none" /><path d="M 113.89432698308785 84.25364557470407 l 6.4693747247041 -7.331702172349693 a30.77786613084253,30.77786613084253 0 0,0 0.39423370544943614,0.3539469132649685 l -6.594619417749526 7.219256250315427" fill="#ff780b" stroke="none" /><path d="M 114.68862486808459 84.99185889309783 l 9.277338669983735 -9.479145196101161 a34.26360457968886,34.26360457968886 0 0,0 0.4179575643113933,0.4161627217037636 l -9.439132034462451 9.318046623747279" fill="#ffa60f" stroke="none" /><path d="M 114.94478906791727 85.2469230424477 l 7.678684421162619 -7.5801820743902635 a31.789872785195985,31.789872785195985 0 0,0 0.38107843011265746,0.3927348199708023 l -7.808027114978385 7.446883058869346" fill="#ff850c" stroke="none" /><path d="M 115.19652480421416 85.50635884689758 l 7.4575137369510545 -7.112581948191656 a31.305500138593736,31.305500138593736 0 0,0 0.36855917315802733,0.39315322887978393 l -7.578840232079545 6.983159302433818" fill="#ff7f0b" stroke="none" /><path d="M 115.4437574822437 85.77008943001954 l 9.787737028904935 -9.018441448846742 a34.309097727241834,34.309097727241834 0 0,0 0.39644384515434045,0.4377631955862428 l -9.941524514675312 8.848625465990951" fill="#ffa70f" stroke="none" /><path d="M 115.9244219780498 86.31012108654704 l 17.147208159886443 -14.741081574966273 a43.6125238237196,43.6125238237196 0 0,0 0.48449232986257285,0.573486101809883 l -17.398411103236135 14.443736523527283" fill="#e3ff1b" stroke="none" /><path d="M 116.15771136456269 86.58626213691792 l 7.879537701233566 -6.541400005351559 a31.24094860914625,31.24094860914625 0 0,0 0.33993351743587313,0.4167182981848404 l -7.990969710745849 6.4047975375586175" fill="#ff7e0b" stroke="none" /><path d="M 116.60985879189232 87.15038557335679 l 9.12407834341955 -7.05851206686085 a32.535657684539615,32.535657684539615 0 0,0 0.33887291124957253,0.4459170289682734 l -9.244227194893236 6.900410262011543" fill="#ff8f0d" stroke="none" /><path d="M 116.82858285166822 87.43820079747576 l 9.43163770224718 -7.04030398821381 a32.76952292970746,32.76952292970746 0 0,0 0.3335272485795471,0.45493079223704136 l -9.551427563340354 6.876910752305275" fill="#ff930d" stroke="none" /><path d="M 117.2510076193507 88.02491185347247 l 10.939871225420697 -7.5941026244242 a34.317326199319226,34.317326199319226 0 0,0 0.33267466751651364,0.4881590246826147 l -11.068970358605943 7.404665576471178" fill="#ffa70f" stroke="none" /><path d="M 117.45458315368197 88.32363383020206 l 7.807271453207367 -5.222729152109815 a30.393103179480377,30.393103179480377 0 0,0 0.2871473301296503,0.4373450838334139 l -7.896015418694942 5.087566004298727" fill="#ff730a" stroke="none" /><path d="M 117.65298651832404 88.62581576622439 l 16.84469105099251 -10.85338275062649 a41.03845138065773,41.03845138065773 0 0,0 0.3774998237878635,0.5971140644536264 l -17.02901847102633 10.561821038458659" fill="#fffc17" stroke="none" /><line stroke="#e1ed5e" stroke-width="0.3" x1="172.23445277983987" x2="176.4835382374775" y1="55.19839476539836" y2="52.563006222186495" /><path d="M 173.08426987136738 54.67131705675599 a86.0,86.0 0 0,1 12.851231095245387,41.99856678651699" fill="none" id="id63" stroke="none" /><text fill="#e1ed5e" style="font-size:6.75px; font-family:Arial;" text-anchor="middle"><textPath startOffset="22.20632615414155" xlink:href="#id63">March</textPath></text><path d="M 118.21658344932153 89.55222093294921 l 11.51536487975204 -6.604421102059406 a34.27486370578449,34.27486370578449 0 0,0 0.28912048577252597,0.5143130832585777 l -11.627343006817 6.405224508866034" fill="#ffa60f" stroke="none" /><path d="M 118.56541770881063 90.18545643968196 l 11.762893340331676 -6.21841269045469 a34.30542431209269,34.30542431209269 0 0,0 0.2714875196242576,0.5244274751721381 l -11.868190293116049 6.015012493022207" fill="#ffa70f" stroke="none" /><path d="M 118.89224826269711 90.83032412892265 l 15.107503646146341 -7.3326853283953195 a37.79300272564704,37.79300272564704 0 0,0 0.2790235906060833,0.5876948417037035 l -15.231485430594182 7.071548071051076" fill="#ffd413" stroke="none" /><path d="M 119.196687751892 91.48605970444005 l 11.741057006684793 -5.207286780597234 a33.843996856493106,33.843996856493106 0 0,0 0.231604607825389,0.5345753670431947 l -11.828952324352864 5.004412268967436" fill="#ffa10e" stroke="none" /><path d="M 119.34039704204932 91.81776055985345 l 8.78700288203849 -3.717470814367438 a30.541017183960335,30.541017183960335 0 0,0 0.2006665729439288,0.4859300231135142 l -8.849691141868615 3.5656662208006207" fill="#ff750a" stroke="none" /><path d="M 119.47837535516314 92.15188598940014 l 13.015490166508416 -5.244125799409814 a35.03224285973247,35.03224285973247 0 0,0 0.22054706991273224,0.5612682367090258 l -13.103830786302849 5.0193085578050045" fill="#ffb010" stroke="none" /><path d="M 119.7369772167798 92.82701384747503 l 11.75472183425288 -4.272004573840993 a33.506938413519904,33.506938413519904 0 0,0 0.19234086653548915,0.5437735305954681 l -11.826515781598179 4.069033416818911" fill="#ff9c0e" stroke="none" /><path d="M 119.85752413597 93.16781622104841 l 11.630111614279178 -4.001458559203872 a33.29923439737683,33.29923439737683 0 0,0 0.1818181110157804,0.5436130096912022 l -11.697267019066729 3.8006724465903554" fill="#ff9a0e" stroke="none" /><path d="M 120.08093135843002 93.85539295169968 l 13.414967075606022 -4.104874409168341 a35.02894634513365,35.02894634513365 0 0,0 0.1714651959366823,0.5780954007836128 l -13.483638168654405 3.8733496216381984" fill="#ffb010" stroke="none" /><path d="M 120.18372546131832 94.20196356495316 l 9.064849321773984 -2.603995320218865 a30.431451895344004,30.431451895344004 0 0,0 0.14029367306393448,0.5047109864618204 l -9.108329765404282 2.4475730303380927" fill="#ff730a" stroke="none" /><path d="M 120.28053869075195 94.5502522615342 l 13.546279124118575 -3.6401303312005093 a35.026839520599665,35.026839520599665 0 0,0 0.15145550054574752,0.5836198261897435 l -13.606930956534626 3.4064140794619155" fill="#ffb010" stroke="none" /><path d="M 120.45610955862082 95.25157060432595 l 27.649433965380293 -6.418199151638303 a49.38458171183814,49.38458171183814 0 0,0 0.18508779887038976,0.8297123102657196 l -27.75581615125272 5.94130867182262" fill="#a0ff22" stroke="none" /><path d="M 120.53481517161879 95.60439243477599 l 9.603708384980601 -2.055734754777355 a30.821265708947408,30.821265708947408 0 0,0 0.10658390555117728,0.5197409759711494 l -9.637671586446775 1.8901181226427937" fill="#ff780b" stroke="none" /><path d="M 120.73433829027371 96.67025291283417 l 16.76347404413702 -2.6920622248856145 a37.97825848110199,37.97825848110199 0 0,0 0.09809984285898614,0.646355394807085 l -16.807329780435303 2.403107717686447" fill="#ffd614" stroke="none" /><path d="M 120.78858239683441 97.02765380044208 l 11.611973486436082 -1.6602770021986337 a32.73006598334912,32.73006598334912 0 0,0 0.07494250112287823,0.5584086811832026 l -11.638831986616795 1.4601499789507666" fill="#ff920d" stroke="none" /><path d="M 120.87857604477298 97.74499172005257 l 28.06059931684101 -3.030708783207714 a49.22379190946728,49.22379190946728 0 0,0 0.08373406342028708,0.8431905914927831 l -28.108610505943528 2.547242661010496" fill="#a2ff22" stroke="none" /><path d="M 120.91429891909075 98.10471618934814 l 11.747975054430945 -1.0646183749568843 a32.79611504537946,32.79611504537946 0 0,0 0.04611058216333633,0.5626658962144345 l -11.764560120413776 0.8622385615346811" fill="#ff930d" stroke="none" /><path d="M 120.96714384426684 98.82574320788733 l 13.785186190919013 -0.7720340278797965 a34.80678799933238,34.80678799933238 0 0,0 0.028353264364295864,0.598492598127942 l -13.796433063516806 0.5346303231288548" fill="#ffad10" stroke="none" /><path d="M 120.98425023603335 99.18683210126433 l 9.422120290348893 -0.3651198242471023 a30.429192078426578,30.429192078426578 0 0,0 0.01577725432465588,0.5235702613178219 l -9.427009239129193 0.20287941550428126" fill="#ff730a" stroke="none" /><line stroke="#e1ed5e" stroke-width="0.3" x1="184.98032266829074" x2="189.97916517819016" y1="98.17113171792111" y2="98.06355123074" /><path d="M 185.9800911702706 98.14961562048488 a86.0,86.0 0 0,1 -9.607161424134198,41.387399972396054" fill="none" id="id64" stroke="none" /><text fill="#e1ed5e" style="font-size:6.75px; font-family:Arial;" text-anchor="middle"><textPath startOffset="21.466115282336823" xlink:href="#id64">April</textPath></text><path d="M 120.99513854157772 99.54816195383933 l 12.510614326904847 -0.2692419258174399 a33.51351117996762,33.51351117996762 0 0,0 0.007447967530346152,0.5768532931735054 l -12.513395301552908 0.05385237458347172" fill="#ff9c0e" stroke="none" /><path d="M 120.99824983174949 100.27111621757518 l 18.64696930497964 0.2407579597211343 a39.648523498015116,39.648523498015116 0 0,0 -0.014684939542836692,0.6823514371936954 l -18.640062302751794 -0.5616992127049446" fill="#ffeb16" stroke="none" /><path d="M 120.9904718944345 100.63252640178507 l 1.3003770867276359 0.0391855335014965 a22.300967360744323,22.300967360744323 0 0,0 -0.014865046590731084,0.38360080115708844 l -1.2995099072857015 -0.061563581672591114" fill="#ff0000" stroke="none" /><path d="M 120.9764740272857 100.99374915477107 l 9.19924844425116 0.43580943842669884 a30.209565777260032,30.209565777260032 0 0,0 -0.02907836011722083,0.5192136536304094 l -9.19038373324641 -0.5940948083925315" fill="#ff700a" stroke="none" /><path d="M 120.95626037817324 101.35467743843564 l 12.905406108015283 0.8342453363762694 a33.93234209623546,33.93234209623546 0 0,0 -0.04269567860769061,0.5825486127273514 l -12.889133870743255 -1.056267085600391" fill="#ffa20f" stroke="none" /><path d="M 120.92983693683757 101.71520430193887 l 7.122500438659669 0.5836903283010687 a28.146377186943003,28.146377186943003 0 0,0 -0.04372794852674914,0.48253426820149575 l -7.111397893855845 -0.706205985051135" fill="#ff5407" stroke="none" /><path d="M 120.81339534386255 102.79330883721812 l 39.223172677083326 5.2640346782696685 a60.57483210261695,60.57483210261695 0 0,0 -0.14758898900192563,1.0322370453308543 l -39.1267496370648 -5.938417195580932" fill="#30ff33" stroke="none" /><path d="M 120.70491114924044 103.5080841355445 l 5.748627546299948 0.9740041360703335 a26.830557668281884,26.830557668281884 0 0,0 -0.08107115895600224,0.4546901134053612 l -5.731009945004757 -1.0728130002089131" fill="#ff4106" stroke="none" /><path d="M 120.64145759157962 103.86396538481128 l 10.875439245570902 2.035821385338914 a32.0643457780886,32.0643457780886 0 0,0 -0.10622469927967168,0.5416374531106584 l -10.838784613315566 -2.2227225655175173" fill="#ff890c" stroke="none" /><path d="M 120.41448212921028 104.9243191809786 l 4.340172344961939 1.046923149545294 a25.46465497715403,25.46465497715403 0 0,0 -0.10645279011305188,0.42522597999230755 l -4.321508240553825 -1.1214769689349975" fill="#ff2e04" stroke="none" /><path d="M 120.23288151984713 105.62410040840565 l 40.967582920233376 11.38769085397274 a63.52084610296286,63.52084610296286 0 0,0 -0.30189753106193384,1.0509449108618263 l -40.76549275228534 -12.091193240339148" fill="#33ff57" stroke="none" /><path d="M 120.02730092923936 106.31721596034902 l 7.434315729291354 2.3450078542928656 a28.795390445608486,28.795390445608486 0 0,0 -0.1531746784660568,0.47142318622709917 l -7.392848799809051 -2.47262994049776" fill="#ff5d08" stroke="none" /><path d="M 119.79798401119884 107.00284435728193 l 11.713065875830674 4.143087358219631 a33.42421366000232,33.42421366000232 0 0,0 -0.1965275943803801,0.5407595344915979 l -11.640014020445067 -4.344094689717361" fill="#ff9b0e" stroke="none" /><path d="M 119.54520255179757 107.68017299344265 l 9.491844558838281 3.7297647873207027 a31.198345870673602,31.198345870673602 0 0,0 -0.20070547460103233,0.49813452822359083 l -9.426236469979855 -3.892598683387107" fill="#ff7e0b" stroke="none" /><path d="M 119.26925614724726 108.34839909993367 l 12.806927890493805 5.548597437124614 a34.95723237291598,34.95723237291598 0 0,0 -0.24396638368435228,0.5500797899638932 l -12.709520422078178 -5.768225563581194" fill="#ffaf10" stroke="none" /><path d="M 119.12269723197855 108.67885076344098 l 2.9204586917995843 1.3254524107894488 a24.207164333765157,24.207164333765157 0 0,0 -0.1754735650442176,0.37795444824405766 l -2.897210509915535 -1.3755269263123369" fill="#ff1c02" stroke="none" /><path d="M 118.81262510543309 109.33194174019688 l 11.820905895731139 5.86372207584441 a34.195342086451426,34.195342086451426 0 0,0 -0.2661070614705462,0.5250544778648507 l -11.718220164474324 -6.066330765411955" fill="#ffa50f" stroke="none" /><path d="M 118.64920377521936 109.65438752849418 l 10.432930858325513 5.4009575303209 a32.74803764630207,32.74803764630207 0 0,0 -0.2634618486142625,0.49837052938819776 l -10.338416501486357 -5.579743074795232" fill="#ff920d" stroke="none" /><line stroke="#e1ed5e" stroke-width="0.3" x1="174.80103733775053" x2="179.2010983576182" y1="140.37084112569926" y2="142.7455964860345" /><path d="M 175.68104954172406 140.8457921977663 a86.0,86.0 0 0,1 -30.038265399797805,32.042727171017184" fill="none" id="id65" stroke="none" /><text fill="#e1ed5e" style="font-size:6.75px; font-family:Arial;" text-anchor="middle"><textPath startOffset="22.206326154141568" xlink:href="#id65">May</textPath></text><path d="M 118.30583269289576 110.29060199501025 l 12.33196014885829 6.932396675922716 a35.14692068209097,35.14692068209097 0 0,0 -0.3010049298126051,0.5248274669093171 l -12.210803222893306 -7.143643988690348" fill="#ffb210" stroke="none" /><path d="M 118.12598468904814 110.60418214915192 l 12.058414577303335 7.054492586268886 a34.970369636049156,34.970369636049156 0 0,0 -0.3084372019284919,0.5169584917068601 l -11.935196499676616 -7.261013171861849" fill="#ffb010" stroke="none" /><path d="M 117.94076556474637 110.91462005526583 l 5.033759358202068 3.062387201155707 a26.892109015122614,26.892109015122614 0 0,0 -0.24399512768022907,0.393397835560508 l -4.980299590853876 -3.1485813680814885" fill="#ff4206" stroke="none" /><path d="M 117.75023020441432 111.22182372390056 l 19.138554906668872 12.09953262687369 a43.64250369778837,43.64250369778837 0 0,0 -0.4069042844798124,0.6315244856717145 l -18.92744575881201 -12.427178712466858" fill="#e2ff1b" stroke="none" /><path d="M 117.55443506779139 111.5257021239791 l 12.513160730097086 8.215756454002328 a35.96922995911028,35.96922995911028 0 0,0 -0.3442715963118487,0.5146393251026292 l -12.369886028374516 -8.429932693310764" fill="#ffbd11" stroke="none" /><path d="M 117.35343817320211 111.8261652097733 l 9.270158195227676 6.31750441862248 a32.2181413364185,32.2181413364185 0 0,0 -0.31625802038149475,0.455593265997288 l -9.160039267684045 -6.476138946806788" fill="#ff8b0c" stroke="none" /><path d="M 116.93607887273984 112.41649034213515 l 11.972922405923367 8.777809582569045 a35.84590219576105,35.84590219576105 0 0,0 -0.36910821357061846,0.4944807708800353 l -11.820052925657656 -8.982603232958395" fill="#ffbb11" stroke="none" /><path d="M 116.71984013943494 112.70617746262583 l 4.819715077259384 3.6627237210547134 a27.0535277716996,27.0535277716996 0 0,0 -0.2849550434905529,0.3683428060379607 l -4.755953216550763 -3.7451445212059267" fill="#ff4406" stroke="none" /><path d="M 116.498646956653 112.99209946851258 l 8.829559072199613 6.952964690408559 a32.238542227332275,32.238542227332275 0 0,0 -0.3470741399553829,0.4330283546829845 l -8.708567020189376 -7.103920878669794" fill="#ff8c0c" stroke="none" /><path d="M 116.0416608686014 113.55231037782055 l 10.114927845158045 8.545289838108447 a34.24136487413715,34.24136487413715 0 0,0 -0.38424924357668794,0.44696867942700175 l -9.966336092010579 -8.718135616696976" fill="#ffa60f" stroke="none" /><path d="M 115.80600337817218 113.82643327865902 l 10.172396871292602 8.898389001940835 a34.515139101649865,34.515139101649865 0 0,0 -0.3950194398208642,0.44380852821107086 l -10.0177185818234 -9.072171699892772" fill="#ffaa0f" stroke="none" /><path d="M 115.56566222782051 114.09645910891815 l 9.48206586316509 8.587077873839412 a33.792477455316586,33.792477455316586 0 0,0 -0.3941708921620658,0.4277946537452427 l -9.332848563007301 -8.74902378238599" fill="#ffa00e" stroke="none" /><path d="M 115.32070863581623 114.36230785411682 l 9.384102296955822 8.79707129266373 a33.86273062953352,33.86273062953352 0 0,0 -0.40231092592797557,0.42182139741759656 l -9.231284819648883 -8.957299806663835" fill="#ffa10e" stroke="none" /><path d="M 114.81725581225074 114.88116024355365 l 10.290790181582649 10.3351726976534 a35.58479198520425,35.58479198520425 0 0,0 -0.437777747813094,0.4284576662371704 l -10.11136248139376 -10.510780466813141" fill="#ffb811" stroke="none" /><path d="M 114.55890576462653 115.13401014063108 l 9.364119425494934 9.73401989370979 a34.50695657452372,34.50695657452372 0 0,0 -0.43160671220761465,0.40811108592496653 l -9.195176878896511 -9.893765616380678" fill="#ffaa0f" stroke="none" /><path d="M 114.29624159901734 115.38237550388516 l 9.032643720963653 9.718884263835031 a34.26820876846925,34.26820876846925 0 0,0 -0.4355333504413336,0.39784938923208985 l -8.864010821055455 -9.872926419653703" fill="#ffa60f" stroke="none" /><path d="M 113.75828350139079 115.86535959552629 l 5.003298458609543 5.76955179049469 a28.63680059508726,28.63680059508726 0 0,0 -0.3751891659089268,0.31974434674271257 l -4.9032438161235685 -5.854820527460349" fill="#ff5a08" stroke="none" /><path d="M 113.48314897796784 116.09983520530334 l 20.39875652038937 24.357560604575795 a52.77105642221723,52.77105642221723 0 0,0 -0.7014275331283022,0.5772271068212639 l -19.976458858716374 -24.705082830254238" fill="#7bff26" stroke="none" /><path d="M 112.92097659922987 116.55440617244103 l 8.426789137199513 10.796435473385907 a34.69575825187526,34.69575825187526 0 0,0 -0.4739626802665625,0.3634143724228996 l -8.239697728439458 -10.93988918763618" fill="#ffac0f" stroke="none" /><path d="M 112.63410532772338 116.77436683061366 l 6.420867789091924 8.525019292720076 a31.672558133186612,31.672558133186612 0 0,0 -0.4383105437521795,0.3242516617426874 l -6.273172274921181 -8.634280903202532" fill="#ff840c" stroke="none" /><path d="M 112.34349029814194 116.9893568818739 l 7.025210572348959 9.66937281928405 a32.952002104423876,32.952002104423876 0 0,0 -0.46175589104752346,0.3294505678831026 l -6.857727353452551 -9.788867649011372" fill="#ff950d" stroke="none" /><path d="M 111.7513745106137 117.40417183066458 l 7.985136838974897 11.826250070693312 a35.26963913600227,35.26963913600227 0 0,0 -0.5060778399042207,0.33540079670736833 l -7.780384300330713 -11.961948888492" fill="#ffb310" stroke="none" /><line stroke="#e1ed5e" stroke-width="0.3" x1="143.8653032363475" x2="146.44561519142675" y1="172.8068346515853" y2="177.08958963109032" /><path d="M 144.38136562736335 173.6633856474863 a86.0,86.0 0 0,1 -40.68145358897372,12.25698825130547" fill="none" id="id66" stroke="none" /><text fill="#e1ed5e" style="font-size:6.75px; font-family:Arial;" text-anchor="middle"><textPath startOffset="21.466115282336833" xlink:href="#id66">June</textPath></text><path d="M 110.8373102113329 117.98757091392108 l 7.249820279575097 12.033120197636302 a35.0483406769946,35.0483406769946 0 0,0 -0.5194366517058849,0.3068923296390867 l -7.04161575684083 -12.156131099569139" fill="#ffb110" stroke="none" /><path d="M 110.5260780823613 118.17145234162733 l 6.426321262268886 11.093931627296975 a33.82080043979428,33.82080043979428 0 0,0 -0.5062671581886374,0.28747170518071036 l -6.23440533715905 -11.202906498272313" fill="#ffa10e" stroke="none" /><path d="M 110.21172684928248 118.3499491758327 l 5.995265175354021 10.77318389799232 a33.32901844522806,33.32901844522806 0 0,0 -0.5037081027297344,0.27466181950560736 l -5.808934260755637 -10.874786369257698" fill="#ff9a0e" stroke="none" /><path d="M 109.57404056367764 118.69057910512821 l 7.850188679487313 15.325250768289925 a38.21884936383734,38.21884936383734 0 0,0 -0.588108182132631,0.294889651446891 l -7.585226589671921 -15.458108260646117" fill="#ffd914" stroke="none" /><path d="M 109.2508944713604 118.85261126421891 l 5.198067647847055 10.593261980596592 a32.799877400259184,32.799877400259184 0 0,0 -0.5090030731376156,0.24435240717187034 l -5.014951906709207 -10.681168664268021" fill="#ff930d" stroke="none" /><path d="M 108.59647513512805 119.15986991738527 l 3.787296810059524 8.44114745621117 a30.251842384357147,30.251842384357147 0 0,0 -0.47694093176061586,0.20907688848187753 l -3.641435203641154 -8.5050888979875" fill="#ff710a" stroke="none" /><path d="M 108.2653958097858 119.30500536409082 l 4.35847447013116 10.17983590398866 a32.073633493073615,32.073633493073615 0 0,0 -0.50940343655039,0.212930677791905 l -4.182599574083309 -10.253351624800539" fill="#ff890c" stroke="none" /><path d="M 107.93186726928326 119.44442032107085 l 3.7205703595049857 9.120719175986636 a30.850388930759912,30.850388930759912 0 0,0 -0.4934283541787409,0.1963453253283878 l -3.5630209292843786 -9.183411345721092" fill="#ff790b" stroke="none" /><path d="M 107.2578585660854 119.70592522655815 l 3.9631218089674287 10.760333963544893 a32.466957812764946,32.466957812764946 0 0,0 -0.5260890795020724,0.18863682655653946 l -3.7773131688356214 -10.826958331141393" fill="#ff8f0d" stroke="none" /><path d="M 106.91757812671514 119.82793768551818 l 3.9588235999374444 11.347223870790236 a33.01797711219544,33.01797711219544 0 0,0 -0.5382406153662092,0.1826004400226912 l -3.7629132516340085 -11.41368729771105" fill="#ff960d" stroke="none" /><path d="M 106.57524785965236 119.94407469862006 l 1.7389387936975926 5.274557847567844 a26.55381568073392,26.55381568073392 0 0,0 -0.43532914025076996,0.1393786434671498 l -1.6478883083558824 -5.3037093376947" fill="#ff3d05" stroke="none" /><path d="M 106.2309692047433 120.05430185196036 l 3.597959923512732 11.579992130670952 a33.126068338814726,33.126068338814726 0 0,0 -0.5459886309745909,0.1645018956996097 l -3.398096318097895 -11.640209395476287" fill="#ff970e" stroke="none" /><path d="M 105.88484417918355 120.15858648285463 l 2.769826293024994 9.488064793276397 a30.884093848954677,30.884093848954677 0 0,0 -0.5116006500658854,0.1445834539493884 l -2.606094474854503 -9.534337040564305" fill="#ff790b" stroke="none" /><path d="M 105.53697534728816 120.25689768951611 l 3.480763468964399 12.734293553745083 a34.201437294470274,34.201437294470274 0 0,0 -0.5692252001905068,0.15033754897764917 l -3.2610478259623945 -12.792322452026315" fill="#ffa60f" stroke="none" /><path d="M 104.83641907484287 120.43548508189849 l 4.480565492005808 18.93188490356964 a40.45486399670173,40.45486399670173 0 0,0 -0.6790249722804529,0.15454387297552122 l -4.154020370332494 -19.006205510122847" fill="#fff517" stroke="none" /><path d="M 103.41894727170886 120.7198165907248 l 2.1759482578385634 13.186880413861326 a34.36519980659736,34.36519980659736 0 0,0 -0.584476995754481,0.09128328636032924 l -1.9486353984755653 -13.222382007568761" fill="#ffa80f" stroke="none" /><path d="M 103.06178313531738 120.77559828337769 l 1.3740256081540372 9.323391894352104 a30.424095860480918,30.424095860480918 0 0,0 -0.5187618507918724,0.07189566555100366 l -1.2133351661753342 -9.34566212539571" fill="#ff730a" stroke="none" /><path d="M 102.70371172650421 120.8252237178851 l 1.5786333477487917 12.159355715740102 a33.26140345427578,33.26140345427578 0 0,0 -0.5684097890744605,0.06882650956944478 l -1.369096135622951 -12.184727754034897" fill="#ff990e" stroke="none" /><path d="M 101.98527174616119 120.90594882070398 l 1.2296230135416784 12.948572828666517 a34.006825556403534,34.006825556403534 0 0,0 -0.5832262599862329,0.050323215799728475 l -1.0065524358139037 -12.96782029674491" fill="#ffa30f" stroke="none" /><path d="M 101.26447882468166 120.96189622390904 l 0.8294274229009911 13.74983212430779 a34.774826071370434,34.774826071370434 0 0,0 -0.59781557764813,0.03090023687155199 l -0.5926237768393815 -13.762072167941543" fill="#ffad10" stroke="none" /><path d="M 100.90346689309514 120.98055641714683 l 0.5713907220819243 13.26899233662526 a34.28128928179419,34.28128928179419 0 0,0 -0.5897681969460055,0.02031280917841694 l -0.34290217346126645 -13.27686194422977" fill="#ffa70f" stroke="none" /><line stroke="#e1ed5e" stroke-width="0.3" x1="102.19456741930631" x2="102.32365962044197" y1="184.97166512339345" y2="189.96999836594603" /><path d="M 102.22038585953345 185.97133177190398 a86.0,86.0 0 0,1 -42.740103519485714,-10.115201625700543" fill="none" id="id67" stroke="none" /><text fill="#e1ed5e" style="font-size:6.75px; font-family:Arial;" text-anchor="middle"><textPath startOffset="22.20632615414155" xlink:href="#id67">July</textPath></text><path d="M 100.54218724476979 120.99299961872073 l 0.17457527284776192 6.759396632222846 a27.761650638534604,27.761650638534604 0 0,0 -0.47781807694682665,0.00822607151744349 l -0.058197506008267286 -6.761400181019449" fill="#ff4e07" stroke="none" /><path d="M 97.65516085044442 120.86867818915974 l -1.156091683185916 10.289023576795667 a31.353770044954096,31.353770044954096 0 0,0 -0.5358099168136587,-0.06487911903668969 l 1.333029023050964 -10.26759892903363" fill="#ff800b" stroke="none" /><path d="M 97.2962882734958 120.8252237178851 l -0.8854552654463453 6.820181239862246 a27.877419804816018,27.877419804816018 0 0,0 -0.47533842778983854,-0.0658775747980503 l 1.0027222844230148 -6.803929099571591" fill="#ff5007" stroke="none" /><path d="M 96.93821686468263 120.77559828337769 l -1.2433142876208416 8.436455829167372 a29.527579807618,29.527579807618 0 0,0 -0.5021996448437367,-0.0784332562672549 l 1.3883497960730955 -8.413804265553011" fill="#ff6709" stroke="none" /><path d="M 96.22490169976321 120.6578951692458 l -2.439305799107579 13.3482414167962 a34.56929481228237,34.56929481228237 0 0,0 -0.5844390095132828,-0.11200912714978377 l 2.6687124231925567 -13.304275091297947" fill="#ffaa0f" stroke="none" /><path d="M 95.51606077576429 120.51570834832081 l -3.2152730048103533 14.711083252508134 a36.058351535200906,36.058351535200906 0 0,0 -0.6052305886793932,-0.1377485115218024 l 3.4680237428826093 -14.653558007408645" fill="#ffbe11" stroke="none" /><path d="M 95.16358092515715 120.4354850818985 l -2.174290543457646 9.187103366551305 a30.440890192935605,30.440890192935605 0 0,0 -0.5088654529391743,-0.12506674769748904 l 2.332109281140031 -9.148315360539787" fill="#ff730a" stroke="none" /><path d="M 94.81253420990036 120.34920634021253 l -3.3665011021441043 13.205990814017 a34.62833530005183,34.62833530005183 0 0,0 -0.5763301969950662,-0.15221404321004467 l 3.59332174195066 -13.146085421503372" fill="#ffab0f" stroke="none" /><path d="M 94.46302465271185 120.25689768951611 l -3.596442568457475 13.157502893912067 a34.64017161004646,34.64017161004646 0 0,0 -0.5738207635544085,-0.16216747952116012 l 3.822394500116497 -13.093646621052384" fill="#ffab0f" stroke="none" /><path d="M 93.76903079525671 120.05430185196036 l -4.207017672922169 13.540237407221936 a35.1787526512106,35.1787526512106 0 0,0 -0.5767282687684429,-0.18465017918120213 l 4.439467286781553 -13.465814381381026" fill="#ffb210" stroke="none" /><path d="M 93.42475214034765 119.94407469862007 l -1.4688492154637385 4.455320787826114 a25.6912046789928,25.6912046789928 0 0,0 -0.41880366471066666,-0.1420809416384376 l 1.5453226131116309 -4.429376859289553" fill="#ff3104" stroke="none" /><path d="M 93.08242187328487 119.8279376855182 l -4.129438465708125 11.836259320011926 a33.53592025870614,33.53592025870614 0 0,0 -0.5434103657294751,-0.19484762353583956 l 4.332568392067326 -11.763424155436129" fill="#ff9d0e" stroke="none" /><path d="M 92.7421414339146 119.70592522655815 l -4.573244672031923 12.416888084721068 a34.23229672198883,34.23229672198883 0 0,0 -0.5511885206416464,-0.20841233517977312 l 4.786303413433853 -12.33632749943466" fill="#ffa60f" stroke="none" /><path d="M 92.06813273071674 119.44442032107085 l -3.4335445645232094 8.417095424965469 a30.09047433688372,30.09047433688372 0 0,0 -0.4779062851718997,-0.19976486596120213 l 3.5779223091925716 -8.356745515984294" fill="#ff6e0a" stroke="none" /><path d="M 91.40352486487194 119.15986991738527 l -2.3229243735652902 5.17734631064825 a26.67458302130533,26.67458302130533 0 0,0 -0.4173073439075145,-0.1915653339552388 l 2.4116997132402243 -5.136593906358937" fill="#ff3f05" stroke="none" /><line stroke="#e1ed5e" stroke-width="0.3" x1="58.666819895761336" x2="56.23545636021788" y1="174.27360380694188" y2="178.64263932499728" /><path d="M 58.180547188652646 175.14741091055294 a86.0,86.0 0 0,1 -31.652253787137756,-30.449443065178592" fill="none" id="id68" stroke="none" /><text fill="#e1ed5e" style="font-size:6.75px; font-family:Arial;" text-anchor="middle"><textPath startOffset="22.20632615414155" xlink:href="#id68">August</textPath></text><path d="M 89.1626897886671 117.98757091392108 l -9.20930960068779 15.285445030206606 a38.845341495549704,38.845341495549704 0 0,0 -0.5697701507791384,-0.3499993629022944 l 9.471058951399238 -15.124657200475934" fill="#ffe115" stroke="none" /><path d="M 87.95078237400918 117.19931262002967 l -5.395285499346189 7.701346664816121 a30.40318276282715,30.40318276282715 0 0,0 -0.4260393254055146,-0.3039677466311659 l 5.52705215260059 -7.607334656340736" fill="#ff730a" stroke="none" /><path d="M 87.65650970185807 116.9893568818739 l -5.522876582522485 7.601587477177572 a30.39607885870261,30.39607885870261 0 0,0 -0.42064558841340527,-0.3111835500925032 l 5.652907141354454 -7.505393978345302" fill="#ff730a" stroke="none" /><path d="M 87.07902340077011 116.55440617244103 l -8.010606961708785 10.263221228944483 a34.01935228378255,34.01935228378255 0 0,0 -0.4585201317396802,-0.3642761236254668 l 8.186084586165823 -10.123811191313886" fill="#ffa30f" stroke="none" /><path d="M 85.97065885151581 115.62618273729859 l -10.160553139269991 11.317043215776398 a36.20895483732133,36.20895483732133 0 0,0 -0.46019935044835125,-0.4203811954132824 l 10.353852039185197 -11.140469253776539" fill="#ffc011" stroke="none" /><path d="M 84.9287848128048 114.62390073753433 l -7.341272907017767 7.123383545780133 a31.2292170294507,31.2292170294507 0 0,0 -0.37102309782917353,-0.38901623474309044 l 7.462802556225898 -6.995960194454542" fill="#ff7e0b" stroke="none" /><path d="M 84.67929136418377 114.36230785411682 l -9.566536219854704 8.968092896558908 a34.11279167252734,34.11279167252734 0 0,0 -0.3979071834989979,-0.43184966006497855 l 9.71948981134943 -8.802091981692586" fill="#ffa40f" stroke="none" /><path d="M 84.19399662182784 113.82643327865904 l -14.146232635993234 12.374534979288859 a39.79481347992801,39.79481347992801 0 0,0 -0.44656885127518,-0.519460462354462 l 14.357143996839193 -12.129197417772867" fill="#ffed16" stroke="none" /><path d="M 83.72743513129214 113.27417163493432 l -11.103151636116397 9.057277798285664 a35.32879120407275,35.32879120407275 0 0,0 -0.3803431847616491,-0.47453660342829174 l 11.257412732932906 -8.864813361279113" fill="#ffb410" stroke="none" /><path d="M 83.50135304334701 112.99209946851258 l -8.540001925670193 6.724948704648483 a31.86998472724796,31.86998472724796 0 0,0 -0.33568682652531073,-0.43392047432355896 l 8.654495569413573 -6.576950236211671" fill="#ff870c" stroke="none" /><path d="M 83.06392112726016 112.41649034213515 l -9.892541791272878 7.252602596709391 a33.26632086315519,33.26632086315519 0 0,0 -0.3345961523626333,-0.46472479102521036 l 10.015917736011119 -7.0812442002330425" fill="#ff990e" stroke="none" /><path d="M 82.85270091963577 112.12312394758628 l -10.461474744498528 7.396252576438134 a33.81198680940034,33.81198680940034 0 0,0 -0.3319034422826515,-0.4781316631366145 l 10.587239093943312 -7.215079651114507" fill="#ffa00e" stroke="none" /><path d="M 82.44556493220864 111.52570212397912 l -6.217544700508737 4.082248610328242 a28.437917438325808,28.437917438325808 0 0,0 -0.26514313952901414,-0.41150804060592344 l 6.2868927034147974 -3.9746189698008703" fill="#ff5808" stroke="none" /><path d="M 82.05923443525364 110.91462005526583 l -10.94994597535837 6.661616502116833 a33.81711556023984,33.81711556023984 0 0,0 -0.29826554907044384,-0.49991021644439365 l 11.062992400127046 -6.472144191786328" fill="#ffa00e" stroke="none" /><line stroke="#e1ed5e" stroke-width="0.3" x1="26.63291911575756" x2="22.317208475507996" y1="142.92168965132927" y2="145.44649492493687" /><path d="M 25.769776987707644 143.4266507060508 a86.0,86.0 0 0,1 -11.730757126820373,-40.83630448921669" fill="none" id="id69" stroke="none" /><text fill="#e1ed5e" style="font-size:6.75px; font-family:Arial;" text-anchor="middle"><textPath startOffset="21.46611528233685" xlink:href="#id69">September</textPath></text><path d="M 81.87401531095188 110.60418214915194 l -10.566037903404451 6.1814126208681115 a33.24136507770302,33.24136507770302 0 0,0 -0.2846853883045222,-0.49637297071173364 l 10.670875287861351 -5.998619804298071" fill="#ff990e" stroke="none" /><path d="M 81.69416730710424 110.29060199501025 l -11.162406191361606 6.27493331491657 a33.80523721324981,33.80523721324981 0 0,0 -0.28078242162277334,-0.5097016540128536 l 11.268765022435895 -6.081861142505893" fill="#ffa00e" stroke="none" /><path d="M 81.35079622478065 109.6543875284942 l -8.415098936680067 4.356358974064201 a30.47585107655369,30.47585107655369 0 0,0 -0.23716210106314473,-0.46794332497194907 l 8.488839707529479 -4.210861437389568" fill="#ff740a" stroke="none" /><path d="M 81.02952815118164 109.00673069616217 l -8.886875578796245 4.219278028843742 a30.837624949025482,30.837624949025482 0 0,0 -0.22353663207691066,-0.48147801874129703 l 8.958186827712982 -4.065679942823618" fill="#ff790b" stroke="none" /><path d="M 80.87730276802145 108.67885076344099 l -12.776608850525841 5.798673698140241 a35.030906969146315,35.030906969146315 0 0,0 -0.24448055839416818,-0.5512391181963816 l 12.874530493651289 -5.577886243451163" fill="#ffb010" stroke="none" /><path d="M 80.58989483394504 108.01547362559985 l -12.092401853108871 4.993601389304006 a34.08289866246505,34.08289866246505 0 0,0 -0.21926240513473344,-0.5441913079654349 l 12.176566872500992 -4.784710713495765" fill="#ffa40f" stroke="none" /><path d="M 80.45479744820244 107.68017299344265 l -11.402224125760586 4.480437261459479 a33.250919682536136,33.250919682536136 0 0,0 -0.2047397201775573,-0.5345108031403665 l 11.477658125531653 -4.283502891485955" fill="#ff990e" stroke="none" /><path d="M 80.32549172779594 107.34259656027581 l -6.139641809786775 2.2913361904732215 a27.55327575264876,27.55327575264876 0 0,0 -0.16200767072786368,-0.4457755303171596 l 6.1781737415198625 -2.1853128631499446" fill="#ff4b07" stroke="none" /><path d="M 80.20201598880116 107.00284435728193 l -8.878400282056594 3.1404235543235726 a30.417444009335703,30.417444009335703 0 0,0 -0.17035096736994504,-0.4951196506973278 l 8.931142080369769 -2.987131200536948" fill="#ff730a" stroke="none" /><path d="M 80.0844068197444 106.66101706037122 l -8.987077098097215 3.005839360719898 a30.476424696561274,30.476424696561274 0 0,0 -0.1621167999964594,-0.49894420644863835 l 9.037486149109922 -2.850696254293456" fill="#ff740a" stroke="none" /><path d="M 79.86692584326677 105.97154293290107 l -11.655034097444851 3.456925452889251 a33.156897359089434,33.156897359089434 0 0,0 -0.15758583306899124,-0.5485769582322394 l 11.712812567399947 -3.2557910191524155" fill="#ff980e" stroke="none" /><path d="M 79.76711848015287 105.62410040840567 l -11.653853275828048 3.2394022029828773 a33.09570265868083,33.09570265868083 0 0,0 -0.1478462633919754,-0.550190946241519 l 11.707887615561798 -3.038320323565819" fill="#ff970d" stroke="none" /><path d="M 79.67330655649465 105.27499134158121 l -10.87220491193077 2.8214518477256756 a32.232338588915766,32.232338588915766 0 0,0 -0.13474450675798014,-0.5382373244880911 l 10.91916073298381 -2.6338866838401924" fill="#ff8b0c" stroke="none" /><path d="M 79.50377843672027 104.57218783832718 l -14.427325502869992 3.218370859241156 a35.7819360082966,35.7819360082966 0 0,0 -0.1289273611603957,-0.602305709212762 l 14.48058690275483 -2.9695513306122305" fill="#ffba11" stroke="none" /><path d="M 79.4281124754447 104.21870165774334 l -12.005056405434695 2.461891321273131 a33.25488833794207,33.25488833794207 0 0,0 -0.11016880050273133,-0.5617483402749002 l 12.045655138913093 -2.2548792539302758" fill="#ff990e" stroke="none" /><path d="M 79.35854240842038 103.8639653848113 l -11.536633607388467 2.1595932708930543 a32.73702509526207,32.73702509526207 0 0,0 -0.09891812902503037,-0.5547853994371429 l 11.572098178752686 -1.9606891207226975" fill="#ff920d" stroke="none" /><path d="M 79.23777060512086 103.15116336523772 l -12.710676275779349 1.9291481981945076 a33.85623989190685,33.85623989190685 0 0,0 -0.0824898401466234,-0.5769337498588886 l 12.742000166942573 -1.7100689763552184" fill="#ffa10e" stroke="none" /><path d="M 79.1416061653843 102.43462659150553 l -12.72097930259114 1.4848139662931295 a33.807341134343666,33.807341134343666 0 0,0 -0.062491579771620905,-0.5785944167132865 l 12.744653183863813 -1.2656232276950607" fill="#ffa00e" stroke="none" /><path d="M 79.10278846688536 102.07522291339032 l -9.631991952454419 0.9565166323578537 a30.679369454676472,30.679369454676472 0 0,0 -0.04766318163921823,-0.5259592376799122 l 9.647029730370713 -0.7905760061293753" fill="#ff760a" stroke="none" /><path d="M 79.07016306316243 101.71520430193888 l -12.561986540444947 1.0294572967812654 a33.60409807039822,33.60409807039822 0 0,0 -0.04228266257148044,-0.5769133370559967 l 12.577845761680763 -0.8130708232285082" fill="#ff9e0e" stroke="none" /><path d="M 79.0235259727143 100.99374915477108 l -12.92570966223238 0.6123485307850801 a33.94020637375935,33.94020637375935 0 0,0 -0.02262335713441472,-0.5838083230115451 l 12.934335152217995 -0.38976296075953826" fill="#ffa20f" stroke="none" /><line stroke="#e1ed5e" stroke-width="0.3" x1="15.007084014347285" x2="10.007500721073583" y1="101.09737516637583" y2="101.16192664675087" /><path d="M 14.007167355692545 101.11028546245083 a86.0,86.0 0 0,1 10.666146001902534,-42.60595125391555" fill="none" id="id70" stroke="none" /><text fill="#e1ed5e" style="font-size:6.75px; font-family:Arial;" text-anchor="middle"><textPath startOffset="22.20632615414155" xlink:href="#id70">October</textPath></text><path d="M 79.00175016825051 100.2711162175752 l -12.252056626343915 0.15819086241316652 a33.25307781433256,33.25307781433256 0 0,0 -0.002463423966101161,-0.5724129738303269 l 12.25296434759952 0.052731589620835725" fill="#ff990e" stroke="none" /><path d="M 79.00019446554 99.90962569577889 l -10.809863196786775 -0.04652109104210432 a31.80996329989871,31.80996329989871 0 0,0 0.007069374871731276,-0.5475308745400211 l 10.807460814797329 0.23258822364259743" fill="#ff860c" stroke="none" /><path d="M 79.00486145842228 99.54816195383935 l -13.036607744276049 -0.28056187198152305 a34.03962639196875,34.03962639196875 0 0,0 0.017649231084354476,-0.5856920564723018 l 13.029846818736049 0.5049240758788194" fill="#ffa30f" stroke="none" /><path d="M 79.03285615573316 98.82574320788736 l -23.04208376041563 -1.290463000638732 a44.07819141046428,44.07819141046428 0 0,0 0.04894654158506564,-0.7571813340688448 l 23.01645662782615 1.6869033989605888" fill="#ddff1b" stroke="none" /><path d="M 79.08570108090925 98.10471618934814 l -20.82936239565774 -1.8875867408902323 a41.914715429907844,41.914715429907844 0 0,0 0.07130067196989279,-0.7179880363665917 l 20.793784598005615 2.245850307961254" fill="#f7ff18" stroke="none" /><path d="M 79.12142395522702 97.74499172005258 l -7.656567850992873 -0.8269540922207997 a28.701096306857767,28.701096306857767 0 0,0 0.05727870545859081,-0.4907289688532603 l 7.641198792530694 0.9586267993989218" fill="#ff5b08" stroke="none" /><path d="M 79.21141760316559 97.0276538004421 l -22.338182628975023 -3.193907644822134 a43.56535949656231,43.56535949656231 0 0,0 0.11253161918507776,-0.7414427691918557 l 22.279895116350644 3.5779495264060817" fill="#e3ff1b" stroke="none" /><path d="M 79.32604984820605 96.31383870115002 l -25.978435095445114 -4.631949934599533 a47.38814222723705,47.38814222723705 0 0,0 0.15009466550005668,-0.8018117048409005 l 25.894854706035197 5.078439716903007" fill="#b7ff1f" stroke="none" /><path d="M 79.46518482838121 95.60439243477599 l -12.210695216418642 -2.6137768380850357 a33.48730983949621,33.48730983949621 0 0,0 0.1255066308842975,-0.5626216168770817 l 12.163894198532308 2.8235766245120764" fill="#ff9c0e" stroke="none" /><path d="M 79.54389044137918 95.25157060432595 l -11.902266427979121 -2.762845575293783 a33.21872586628898,33.21872586628898 0 0,0 0.13408849383756935,-0.5558833740415212 l 11.852945133880738 2.9673141809947006" fill="#ff990e" stroke="none" /><path d="M 79.62865764111835 94.90015583598534 l -9.01579045197164 -2.2570494133598547 a30.294016867222215,30.294016867222215 0 0,0 0.13099085018697892,-0.5047611803011459 l 8.975603269914354 2.4119070192098646" fill="#ff710a" stroke="none" /><path d="M 79.71946130924805 94.55025226153421 l -2.018894188497464 -0.5425134019237351 a23.09051537559897,23.09051537559897 0 0,0 0.10645082679994464,-0.38296026207391576 l 2.0092565911311584 0.5771849674165934" fill="#ff0c01" stroke="none" /><path d="M 79.91906864156998 93.8553929516997 l -12.164095716243459 -3.7221176119827524 a33.720824820402356,33.720824820402356 0 0,0 0.1746168943824666,-0.5535832735617974 l 12.098223338092788 3.930951051970964" fill="#ff9f0e" stroke="none" /><path d="M 80.14247586403 93.16781622104843 l -12.36875241254331 -4.255595461962589 a34.08037189756746,34.08037189756746 0 0,0 0.19563256367179535,-0.5530796016645149 l 12.293666768061707 4.4678726900537145" fill="#ffa40f" stroke="none" /><path d="M 80.2630227832202 92.82701384747504 l -12.261191990556007 -4.456070420293953 a34.045818970838646,34.045818970838646 0 0,0 0.20491596660086878,-0.5490729126814556 l 12.18267143545351 4.66646647000475" fill="#ffa30f" stroke="none" /><path d="M 80.52162464483688 92.15188598940014 l -13.98628937195982 -5.6352745839907055 a36.07887960138842,36.07887960138842 0 0,0 0.23705252125883206,-0.5740414830655797 l 13.887215163814789 5.875190637509596" fill="#ffbe11" stroke="none" /><path d="M 80.65960295795068 91.81776055985345 l -9.780537729696407 -4.137800345244802 a31.61980743606601,31.61980743606601 0 0,0 0.2163838134070558,-0.49944367497857645 l 9.70786320644667 4.305543164809978" fill="#ff830c" stroke="none" /><path d="M 80.803312248108 91.48605970444005 l -12.015668605389308 -5.329080018371186 a34.14440511688305,34.14440511688305 0 0,0 0.24290928633938133,-0.5352184136027656 l 11.922157002086575 5.535120440816022" fill="#ffa50f" stroke="none" /><path d="M 80.95270993114464 91.15688171328213 l -1.409209374011779 -0.6542560721283065 a22.5536801690565,22.5536801690565 0 0,0 0.16651253852028525,-0.35071787211538685 l 1.3977386416497424 0.6784163598842256" fill="#ff0400" stroke="none" /><path d="M 81.10775173730289 90.83032412892265 l -11.973094446749652 -5.811346205272476 a34.30889684941326,34.30889684941326 0 0,0 0.26244670216535443,-0.5290765368505083 l 11.871287731630884 6.0165823306219455" fill="#ffa70f" stroke="none" /><path d="M 81.43458229118936 90.18545643968196 l -9.266081418388817 -4.898481743886209 a31.481192119572896,31.481192119572896 0 0,0 0.25738408161323506,-0.4768936133619066 l 9.18038923755711 5.057256340580588" fill="#ff810b" stroke="none" /><path d="M 81.6062741919709 89.86733742301443 l -21.251403232719735 -11.706888560370599 a45.262592176529424,45.262592176529424 0 0,0 0.3818058256842475,-0.679189960853392 l 21.046739765743055 12.070962031158775" fill="#cfff1d" stroke="none" /><line stroke="#e1ed5e" stroke-width="0.3" x1="26.266209847984243" x2="21.928928074336255" y1="57.711370442889674" y2="55.22380399835377" /><path d="M 25.398753493254645 57.213857153982495 a86.0,86.0 0 0,1 29.58750427330803,-30.492523968695096" fill="none" id="id71" stroke="none" /><text fill="#e1ed5e" style="font-size:6.75px; font-family:Arial;" text-anchor="middle"><textPath startOffset="21.46611528233685" xlink:href="#id71">November</textPath></text><path d="M 81.96595687620814 89.24020034530311 l -11.21754991715732 -6.692819180738226 a34.06243678376947,34.06243678376947 0 0,0 0.30475208302593937,-0.5009322953297516 l 11.100682035845164 6.884919249275052" fill="#ffa40f" stroke="none" /><path d="M 82.34701348167596 88.62581576622439 l -11.2105424505299 -7.223184307116043 a34.33606589552183,34.33606589552183 0 0,0 0.3243995715354141,-0.4940828032237708 l 11.084546243636565 7.415085174317481" fill="#ffa70f" stroke="none" /><path d="M 82.7489923806493 88.02491185347247 l -10.759266953758068 -7.468733015847044 a34.09747297169321,34.09747297169321 0 0,0 0.3388434431319393,-0.4792700203284293 l 10.62911089082225 7.652829536507259" fill="#ffa40f" stroke="none" /><path d="M 82.95767976084542 87.72973835380427 l -9.147438207097476 -6.586043368415285 a32.271716506518146,32.271716506518146 0 0,0 0.3284605893239925,-0.448019874706495 l 9.03271500525985 6.742525686793281" fill="#ff8c0c" stroke="none" /><path d="M 83.39014120810768 87.1503855733568 l -10.609202147311649 -8.207424197598415 a34.413313616025164,34.413313616025164 0 0,0 0.3664951030220935,-0.46541156267763306 l 10.466352963695584 8.388828154229095" fill="#ffa80f" stroke="none" /><path d="M 83.84228863543731 86.58626213691792 l -11.846567399422202 -9.834731298746913 a36.39685353790199,36.39685353790199 0 0,0 0.40433331585029275,-0.4786031126738802 l 11.675523470084784 10.037193361049908" fill="#ffc212" stroke="none" /><path d="M 84.5562425177563 85.77008943001954 l -46.331272446731106 -42.68973170994139 a84.0,84.0 0 0,0 0.9889307121181763,-1.0549223324877994 l 45.58957441264248 43.480923459307235" fill="#4dd2ff" stroke="none" /><path d="M 85.05521093208273 85.24692304244772 l -10.484517862755895 -10.350022217719102 a35.73255153467065,35.73255153467065 0 0,0 0.43587621294567386,-0.43400442196628086 l 10.304805849642907 10.528962490335493" fill="#ffb911" stroke="none" /><path d="M 85.57189188830299 84.74124197986013 l -7.040336164936468 -7.445659894529975 a31.247154950537464,31.247154950537464 0 0,0 0.39400001355918346,-0.3661800729305783 l 6.911128267582429 7.5657445535352" fill="#ff7e0b" stroke="none" /><path d="M 85.83668400450813 84.49514656593479 l -9.777911601900332 -10.704067206222454 a35.49774499878875,35.49774499878875 0 0,0 0.45469063665686815,-0.4082257430315647 l 9.592209977647492 10.870791958023299" fill="#ffb610" stroke="none" /><path d="M 86.37877921826538 84.01681056812374 l -10.817757587735942 -12.693595641937886 a37.67786705631278,37.67786705631278 0 0,0 0.4972446132435103,-0.4164280636019048 l 10.597655437533321 12.877924862933604" fill="#ffd213" stroke="none" /><path d="M 86.65592168130627 83.78471172551755 l -8.243447430096996 -10.017168159700176 a33.97297512032162,33.97297512032162 0 0,0 0.4547470403321518,-0.36770714774506513 l 8.069796991200343 10.157581404709376" fill="#ffa30f" stroke="none" /><path d="M 87.22198572758235 83.33499621200491 l -13.425336057620154 -17.509236684630473 a43.06383959193062,43.06383959193062 0 0,0 0.5921356817191283,-0.44598431921075665 l 13.121954222142636 17.73773759334708" fill="#e9ff1a" stroke="none" /><path d="M 87.80319425747018 82.90503203632743 l -7.606060243802496 -10.660607288691452 a34.09582758729108,34.09582758729108 0 0,0 0.48070061041529855,-0.3367614971481659 l 7.421428493803536 10.78995362860356" fill="#ffa40f" stroke="none" /><path d="M 88.09926311788651 82.69761687909137 l -7.609591278942526 -11.063521948769113 a34.42785900072882,34.42785900072882 0 0,0 0.4911630922977105,-0.3316355124242196 l 7.418023492238277 11.192869373491996" fill="#ffa80f" stroke="none" /><path d="M 88.39885842347998 82.49532879139004 l -7.115871492560878 -10.736959808515941 a33.880913516840614,33.880913516840614 0 0,0 0.4889063805787409,-0.3179983097441446 l 6.92999808619785 10.85785704241962" fill="#ffa10e" stroke="none" /><path d="M 89.00827224532344 82.1063720568725 l -5.277830282893318 -8.591873228381589 a31.083440785148987,31.083440785148987 0 0,0 0.4583148752171231,-0.27612958419818007 l 5.1291533414585455 8.681449422038389" fill="#ff7c0b" stroke="none" /><line stroke="#e1ed5e" stroke-width="0.3" x1="56.762969772571076" x2="54.21961505331055" y1="26.818313649435495" y2="22.513508569990535" /><path d="M 56.25429882871897 25.957352633546506 a86.0,86.0 0 0,1 42.265352541879196,-11.944610805530505" fill="none" id="id72" stroke="none" /><text fill="#e1ed5e" style="font-size:6.75px; font-family:Arial;" text-anchor="middle"><textPath startOffset="22.20632615414155" xlink:href="#id72">December</textPath></text><path d="M 89.3179101791058 81.91981866633112 l -5.14012016981819 -8.70001154318904 a31.105000554764672,31.105000554764672 0 0,0 0.4633212290570676,-0.26838556118588736 l 4.9896022082958025 8.787201261764976" fill="#ff7c0b" stroke="none" /><path d="M 89.63071344664047 81.73862282372117 l -6.620532256178261 -11.659436357135034 a34.407979099073025,34.407979099073025 0 0,0 0.517554844814748,-0.28801871079466806 l 6.418853322291467 11.771670465489887" fill="#ffa80f" stroke="none" /><path d="M 90.26544431104013 81.39251694778311 l -8.507228174561206 -16.26146165654158 a39.35233136201556,39.35233136201556 0 0,0 0.6029142811742995,-0.3088361121352042 l 8.226053405798144 16.40549029398929" fill="#ffe715" stroke="none" /><path d="M 90.58718382345135 81.22770947309562 l -7.8603684040961666 -15.676192604060525 a38.536487846992486,38.536487846992486 0 0,0 0.5955332178501233,-0.2922255636266858 l 7.589363919235617 15.80917332782204" fill="#ffdd14" stroke="none" /><path d="M 91.23893434514133 80.91482961587045 l -4.209564867173515 -9.170147319749562 a31.09019515355633,31.09019515355633 0 0,0 0.48829058580954793,-0.2190817525238038 l 4.051092162897192 9.241249402789895" fill="#ff7c0b" stroke="none" /><path d="M 91.90106846888425 80.62456947434976 l -6.567818988461978 -15.71248256971746 a38.02992527196983,38.02992527196983 0 0,0 0.6061537822322285,-0.24726534738759767 l 6.296381336641369 15.823208803288635" fill="#ffd714" stroke="none" /><path d="M 92.23578459929587 80.48803036053334 l -3.0913998736415786 -7.768885504190828 a29.361359647567944,29.361359647567944 0 0,0 0.4712034523680746,-0.18281961893395499 l 2.9572132562738274 7.820947827015335" fill="#ff6409" stroke="none" /><path d="M 92.57280143429618 80.3572730644239 l -4.6045455754790545 -12.177650913925637 a34.01910218632981,34.01910218632981 0 0,0 0.5495181296643855,-0.20239216472965907 l 4.3942451200420996 12.255106346461618" fill="#ffa30f" stroke="none" /><path d="M 93.25333710446033 80.11325718540243 l -4.091635016008901 -12.060672737682722 a33.73582757380585,33.73582757380585 0 0,0 0.551528052950273,-0.1818301277196062 l 3.8834241408162185 12.129316589661562" fill="#ff9f0e" stroke="none" /><path d="M 93.59665428221793 80.00007090966166 l -3.9643924519823592 -12.382209460554087 a34.0013660297051,34.0013660297051 0 0,0 0.5589413762509875,-0.1736658063883837 l 3.750665703020643 12.448615401824995" fill="#ffa30f" stroke="none" /><path d="M 94.28887869178378 79.79150937346287 l -4.236350574596954 -14.990094984378224 a36.577214572303006,36.577214572303006 0 0,0 0.607359615603756,-0.16601432608690547 l 3.9776930697694755 15.060795851291426" fill="#ffc412" stroke="none" /><path d="M 94.98787191387505 79.60689891045804 l -1.3176869052946716 -5.361339894411079 a26.52089342804123,26.52089342804123 0 0,0 0.44425819564647173,-0.10514156150289247 l 1.2252050226856657 5.383227368054842" fill="#ff3d05" stroke="none" /><path d="M 95.33964822691252 79.52364482259891 l -2.663637683265885 -11.703320676655322 a33.00261140620415,33.00261140620415 0 0,0 0.555005349525476,-0.12130267276887134 l 2.4617896095868876 11.747436847520062" fill="#ff960d" stroke="none" /><path d="M 96.04723909329186 79.375362276772 l -2.3531806973964673 -12.278379726618445 a33.50184258842008,33.50184258842008 0 0,0 0.5673056512611931,-0.10367148164151833 l 2.141479925032381 12.3170666896107" fill="#ff9c0e" stroke="none" /><path d="M 96.75951476605007 79.25152402106235 l -2.0093448377460934 -12.865617365754519 a34.0215811973424,34.0215811973424 0 0,0 0.5793891795730988,-0.08538690412692432 l 1.7875866777443459 12.898298754042413" fill="#ffa30f" stroke="none" /><path d="M 97.11714578562143 79.19881850522333 l -0.8108051217906567 -5.850349424935298 a26.906267293254068,26.906267293254068 0 0,0 0.4593095493077301,-0.05963156177247567 l 0.7099808439750689 5.86343930987191" fill="#ff4206" stroke="none" /><path d="M 97.83486435360386 79.11191278185805 l -2.4152591805400303 -23.301147205955505 a44.42598851751599,44.42598851751599 0 0,0 0.7613236653157947,-0.07229685556956907 l 2.0138103881339995 23.339269606040258" fill="#d9ff1c" stroke="none" /><path d="M 98.55514903715128 79.0497635885617 l -0.8306113453323878 -12.043805553776268 a33.07241348795538,33.07241348795538 0 0,0 0.5682753296629828,-0.03427991977787836 l 0.623173966829782 12.056318742934454" fill="#ff970d" stroke="none" /><path d="M 98.91598698831166 79.02799685794201 l -0.6561100308289267 -12.693520723195995 a33.710466109579166,33.710466109579166 0 0,0 0.5797544704715958,-0.024965447044434187 l 0.43751472796800683 12.702933896764621" fill="#ff9f0e" stroke="none" /><path d="M 99.63851952072746 79.00311137660856 l -0.23023578863915325 -13.373433666193039 a34.37541537831389,34.37541537831389 0 0,0 0.5917162679116857,-0.005093088729408603 l 3.2760319260636777e-15 13.375415378313889" fill="#ffa80f" stroke="none" /></svg>