<?xml version="1.0" encoding="utf-8" ?>
<svg baseProfile="full" height="200mm" version="1.1" viewBox="0,0,200,200" width="200mm" xmlns="http://www.w3.org/2000/svg" xmlns:ev="http://www.w3.org/2001/xml-events" xmlns:xlink="http://www.w3.org/1999/xlink"><defs /><rect fill="#1a1a1a" height="200" width="200" x="0" y="0" /><text alignment-baseline="middle" fill="#e1ed5e" style="dominant-baseline: central; font-size:9.0px; font-family:Arial;" text-anchor="middle" x="100.0" y="100.0">2016</text><line stroke="#e1ed5e" stroke-width="0.3" x1="100.0" x2="100.0" y1="15.0" y2="10.0" /><path d="M 100.0 14.0 a86.0,86.0 0 0,1 42.35913384403234,11.155469271406648" fill="none" id="id1" stroke="none" /><text fill="#e1ed5e" style="font-size:6.75px; font-family:Arial;" text-anchor="middle"><textPath startOffset="22.145653131862478" xlink:href="#id1">January</textPath></text><line stroke="#e1ed5e" stroke-width="0.3" x1="143.13028292997686" x2="145.6673583964461" y1="26.7553504044142" y2="22.446841604673864" /><path d="M 143.63769802327073 25.89364864446614 a86.0,86.0 0 0,1 29.32050498858742,28.57503671076993" fill="none" id="id2" stroke="none" /><text fill="#e1ed5e" style="font-size:6.75px; font-family:Arial;" text-anchor="middle"><textPath startOffset="20.669276256404974" xlink:href="#id2">February</textPath></text><line stroke="#e1ed5e" stroke-width="0.3" x1="172.87174338648825" x2="177.1583165268699" y1="56.24261187166439" y2="53.66864786411523" /><path d="M 173.72905801456457 55.72781907015455 a86.0,86.0 0 0,1 12.242430191666344,42.057860355516425" fill="none" id="id3" stroke="none" /><text fill="#e1ed5e" style="font-size:6.75px; font-family:Arial;" text-anchor="middle"><textPath startOffset="22.145653131862474" xlink:href="#id3">March</textPath></text><line stroke="#e1ed5e" stroke-width="0.3" x1="184.99686870605535" x2="189.99668451229388" y1="99.2704041080226" y2="99.22748670261217" /><path d="M 185.99683186730306 99.26182062694052 a86.0,86.0 0 0,1 -10.086455211305974,41.156179273409016" fill="none" id="id4" stroke="none" /><text fill="#e1ed5e" style="font-size:6.75px; font-family:Arial;" text-anchor="middle"><textPath startOffset="21.40746469413373" xlink:href="#id4">April</textPath></text><line stroke="#e1ed5e" stroke-width="0.3" x1="174.33088141563837" x2="178.70328620479359" y1="141.23008692659167" y2="143.65538615756765" /><path d="M 175.20536237346943 141.71514677278685 a86.0,86.0 0 0,1 -30.301960400862466,31.631185727798858" fill="none" id="id5" stroke="none" /><text fill="#e1ed5e" style="font-size:6.75px; font-family:Arial;" text-anchor="middle"><textPath startOffset="22.145653131862474" xlink:href="#id5">May</textPath></text><line stroke="#e1ed5e" stroke-width="0.3" x1="143.1302829299769" x2="145.66735839644613" y1="173.24464959558577" y2="177.55315839532614" /><path d="M 143.63769802327073 174.10635135553383 a86.0,86.0 0 0,1 -40.68552437913181,11.842963189579606" fill="none" id="id6" stroke="none" /><text fill="#e1ed5e" style="font-size:6.75px; font-family:Arial;" text-anchor="middle"><textPath startOffset="21.407464694133747" xlink:href="#id6">June</textPath></text><line stroke="#e1ed5e" stroke-width="0.3" x1="101.45913802915013" x2="101.54496967792366" y1="184.9874750549273" y2="189.98673829345242" /><path d="M 101.47630435890484 185.9873277026323 a86.0,86.0 0 0,1 -42.54439059252881,-10.42667462771756" fill="none" id="id7" stroke="none" /><text fill="#e1ed5e" style="font-size:6.75px; font-family:Arial;" text-anchor="middle"><textPath startOffset="22.145653131862474" xlink:href="#id7">July</textPath></text><path d="M 99.63950707515114 120.99690560180557 l -0.9962713427391476 58.02781107576213 a79.03636286702248,79.03636286702248 0 0,0 -1.3563644229308738,-0.034935136178853236 l 1.9922490797407653 -58.00215822223323" fill="#46fff7" stroke="none" /><path d="M 98.55909050195518 120.95050786540614 l -2.544714215371659 36.99958620350242 a58.08699165028516,58.08699165028516 0 0,0 -0.9942031333021172,-0.07695761029764794 l 3.179486343449012 -36.95045082620972" fill="#67ff28" stroke="none" /><path d="M 97.48249496171623 120.84855314841334 l -7.552515114851309 62.54565944524002 a84.0,84.0 0 0,0 -1.4300887124368238,-0.1851536151984119 l 8.625081649178927 -62.40679423384121" fill="#4dd2ff" stroke="none" /><path d="M 96.41257539226777 120.69131181640829 l -5.9468465132118915 34.299830375242884 a55.81154043161742,55.81154043161742 0 0,0 -0.9425911837193114,-0.17177151303803972 l 6.53477243048226 -34.19269068827347" fill="#82ff25" stroke="none" /><path d="M 93.27111125876986 119.89276391827306 l -4.066612295391765 12.022216661675104 a33.69137616735435,33.69137616735435 0 0,0 -0.5462723388973367,-0.19002187629441356 l 4.272390406334124 -11.9506363528121" fill="#ff4606" stroke="none" /><path d="M 92.25597844496254 119.51999308798841 l -7.798653194423509 19.65770050726947 a42.148148403120175,42.148148403120175 0 0,0 -0.670246958490725,-0.27258360308242446 l 8.134954614104675 -19.520929647607755" fill="#ffc712" stroke="none" /><path d="M 89.97174638481275 118.45085714620012 l -12.433924363669059 22.877020367063306 a47.037675317824984,47.037675317824984 0 0,0 -0.7061381199795509,-0.39168291179191483 l 12.824806671804712 -22.660204539838244" fill="#f3ff19" stroke="none" /><line stroke="#e1ed5e" stroke-width="0.3" x1="58.13341422392154" x2="55.67067388415222" y1="173.97424548756322" y2="178.32567169271397" /><path d="M 57.64086615596768 174.84453072859336 a86.0,86.0 0 0,1 -31.369924170532247,-30.572349798747897" fill="none" id="id8" stroke="none" /><text fill="#e1ed5e" style="font-size:6.75px; font-family:Arial;" text-anchor="middle"><textPath startOffset="22.145653131862474" xlink:href="#id8">August</textPath></text><path d="M 89.03521579738668 117.91015095944536 l -10.750208734990498 17.559658059055906 a41.58904026410248,41.58904026410248 0 0,0 -0.605686683903405,-0.3779932871491766 l 11.050059547683615 -17.372528975065183" fill="#ffbe11" stroke="none" /><path d="M 88.1277618465304 117.32195027204791 l -19.1422783652295 27.929156208789603 a54.85948297813929,54.85948297813929 0 0,0 -0.7722253554289158,-0.5390732721328249 l 19.61889881183218 -27.59643812085165" fill="#8dff24" stroke="none" /><path d="M 87.2517909369889 116.68781488649013 l -6.962887581434401 9.11464335579174 a32.469896554676154,32.469896554676154 0 0,0 -0.4400290313420807,-0.34216923626340306 l 7.11832655741171 -8.993773067907544" fill="#ff3304" stroke="none" /><path d="M 86.40962598614128 116.0094264158162 l -21.498014040617583 25.324606483860116 a54.21897501809712,54.21897501809712 0 0,0 -0.7043832843410293,-0.6084295045125345 l 21.929576804721474 -24.95183284688286" fill="#95ff23" stroke="none" /><path d="M 85.60350026404147 115.28858382429668 l -10.097438647859196 10.723129928096364 a35.72901159963276,35.72901159963276 0 0,0 -0.4429164177248449,-0.4243039090056927 l 10.280027551449354 -10.548213888785089" fill="#ff6609" stroke="none" /><path d="M 83.64595745247003 113.17365903436017 l -20.37633568513473 16.413733662822906 a47.16497102439406,47.16497102439406 0 0,0 -0.5024946340940478,-0.6348855549732466 l 20.65509674987034 -16.06152816393498" fill="#f1ff19" stroke="none" /><path d="M 82.98947788004972 112.3143062007846 l -30.51798344301848 22.092666532971933 a58.67536632821834,58.67536632821834 0 0,0 -0.5836380054375406,-0.8209599456377571 l 30.892736546985983 -21.565529360624673" fill="#60ff29" stroke="none" /><path d="M 82.37810715431573 111.42229804090323 l -19.44313684013822 12.602806394462576 a44.170375465249734,44.170375465249734 0 0,0 -0.4069612479413178,-0.6398106762303649 l 19.65661577970543 -12.26718204355354" fill="#ffe315" stroke="none" /><line stroke="#e1ed5e" stroke-width="0.3" x1="26.387840678322732" x2="22.057713659400548" y1="142.50000000000003" y2="145.00000000000006" /><path d="M 25.521815274538298 143.00000000000003 a86.0,86.0 0 0,1 -11.493303480769221,-40.785679425670985" fill="none" id="id9" stroke="none" /><text fill="#e1ed5e" style="font-size:6.75px; font-family:Arial;" text-anchor="middle"><textPath startOffset="21.40746469413373" xlink:href="#id9">September</textPath></text><path d="M 81.81346652052679 110.50000000000001 l -22.139566922018734 12.782284922169264 a46.56456984433851,46.56456984433851 0 0,0 -0.39372923697553286,-0.6956818353289432 l 22.355729524015644 -12.4003463167412" fill="#f9ff18" stroke="none" /><path d="M 81.29705330413844 109.54985784667822 l -47.19052801673066 24.095819851167253 a73.98636115829947,73.98636115829947 0 0,0 -0.5678632434591657,-1.1361068834245263 l 47.59721117340156 -23.282181111578975" fill="#3fffbd" stroke="none" /><path d="M 80.41425534168474 107.57618678355246 l -36.30504418577141 14.043571012233814 a59.92657344419707,59.92657344419707 0 0,0 -0.3628962555353582,-0.9626254324763277 l 36.5407711251212 -13.418277299563343" fill="#51ff2b" stroke="none" /><path d="M 80.05021161711548 106.5578916946017 l -24.145106303433533 7.936976024688406 a46.41617097087176,46.41617097087176 0 0,0 -0.24232619509157421,-0.7590833547081934 l 24.277797214302364 -7.5213236362888205" fill="#fbff18" stroke="none" /><path d="M 79.48165901384964 104.47187691870673 l -38.21685353716774 8.329185354401325 a60.113977334826274,60.113977334826274 0 0,0 -0.2110924904820104,-1.0101539832981896 l 38.35420373847411 -7.671914919817725" fill="#4fff2b" stroke="none" /><path d="M 79.00696218219943 100.54070618675478 l -12.464169320612177 0.3210327882465597 a33.468302968087485,33.468302968087485 0 0,0 -0.00986289915212277,-0.5744644296252025 l 12.467843651362966 -0.1070214426523048" fill="#ff4306" stroke="none" /><line stroke="#e1ed5e" stroke-width="0.3" x1="15.003131293944662" x2="10.003315487706104" y1="100.72959589197737" y2="100.7725132973878" /><path d="M 14.003168132696942 100.73817937305945 a86.0,86.0 0 0,1 10.791469493833604,-42.45332614584628" fill="none" id="id10" stroke="none" /><text fill="#e1ed5e" style="font-size:6.75px; font-family:Arial;" text-anchor="middle"><textPath startOffset="22.145653131862435" xlink:href="#id10">October</textPath></text><path d="M 79.73907114497095 94.47779374421319 l -35.351659726160634 -9.63525206021316 a57.641205324853736,57.641205324853736 0 0,0 0.26839257025251567,-0.9524305478287471 l 35.181048663833536 10.24069053194492" fill="#6cff28" stroke="none" /><path d="M 80.28708602549916 92.7611449362534 l -7.835580028670555 -2.877333520620198 a29.347176922444227,29.347176922444227 0 0,0 0.1777171629144761,-0.471415888699753 l 7.785032181941642 3.011417689514096" fill="#ff0000" stroke="none" /><path d="M 81.46374523516351 90.13048839642627 l -48.69586181077089 -25.92780360891126 a76.16826948052628,76.16826948052628 0 0,0 0.6244153239439887,-1.1488538666933021 l 48.243601137211556 26.75991230907918" fill="#42ffd7" stroke="none" /><line stroke="#e1ed5e" stroke-width="0.3" x1="26.387840678322718" x2="22.05771365940052" y1="57.49999999999999" y2="54.99999999999999" /><path d="M 25.521815274538284 56.99999999999999 a86.0,86.0 0 0,1 29.574782752854787,-30.34633250058573" fill="none" id="id11" stroke="none" /><text fill="#e1ed5e" style="font-size:6.75px; font-family:Arial;" text-anchor="middle"><textPath startOffset="21.40746469413373" xlink:href="#id11">November</textPath></text><path d="M 82.78059297857968 87.97951657250589 l -35.251749540422374 -24.60845896805271 a63.991418893111714,63.991418893111714 0 0,0 0.6365162490673766,-0.8953398174269943 l 34.824118192825026 25.209976012189223" fill="#31ff3e" stroke="none" /><path d="M 84.10781606972428 86.27271002978789 l -25.954860103168627 -22.41918998267622 a55.296863449219146,55.296863449219146 0 0,0 0.6266686523193646,-0.7130338903616011 l 25.56618038689067 22.86143615084912" fill="#88ff25" stroke="none" /><path d="M 85.86807049272753 84.46653392183569 l -18.634394843238255 -20.482464198225944 a48.69064843598488,48.69064843598488 0 0,0 0.6230895286379072,-0.5571704986687124 l 18.280040287776956 20.799330226778057" fill="#ddff1b" stroke="none" /><line stroke="#e1ed5e" stroke-width="0.3" x1="56.869717070023135" x2="54.33264160355391" y1="26.7553504044142" y2="22.446841604673864" /><path d="M 56.362301976729285 25.89364864446614 a86.0,86.0 0 0,1 42.16139366436587,-11.88097634709845" fill="none" id="id12" stroke="none" /><text fill="#e1ed5e" style="font-size:6.75px; font-family:Arial;" text-anchor="middle"><textPath startOffset="22.145653131862474" xlink:href="#id12">December</textPath></text></svg>