<?xml version="1.0" encoding="utf-8" ?>
<svg baseProfile="full" height="200mm" version="1.1" viewBox="0,0,200,200" width="200mm" xmlns="http://www.w3.org/2000/svg" xmlns:ev="http://www.w3.org/2001/xml-events" xmlns:xlink="http://www.w3.org/1999/xlink"><defs /><rect fill="#1a1a1a" height="200" width="200" x="0" y="0" /><text alignment-baseline="middle" fill="#e1ed5e" style="dominant-baseline: central; font-size:9.0px; font-family:Arial;" text-anchor="middle" x="100.0" y="100.0">2025</text><line stroke="#e1ed5e" stroke-width="0.3" x1="100.0" x2="100.0" y1="15.0" y2="10.0" /><path d="M 100.0 14.0 a86.0,86.0 0 0,1 42.46469731375804,11.215312516191453" fill="none" id="id109" stroke="none" /><text fill="#e1ed5e" style="font-size:6.75px; font-family:Arial;" text-anchor="middle"><textPath startOffset="22.20632615414155" xlink:href="#id109">January</textPath></text><path d="M 100.36148047927253 79.00311137660856 l 0.3385503824281058 -19.664975236159993 a40.66788924618572,40.66788924618572 0 0,0 0.6998234274484089,0.01807437445076897 l -0.6770004450713825 19.656234069566864" fill="#ffe815" stroke="none" /><path d="M 100.72285384407766 79.0124445844662 l 0.7133624012745434 -20.711978017093088 a41.72425919776385,41.72425919776385 0 0,0 0.717576129573151,0.030900337600905013 l -1.0697793632370258 20.69662995296799" fill="#fff517" stroke="none" /><path d="M 101.08401301168833 79.027996857942 l 1.053831791121709 -20.388098109803376 a41.41531547586142,41.41531547586142 0 0,0 0.7116294087129023,0.042927429309180906 l -1.4046232486742232 20.36693741111389" fill="#fff116" stroke="none" /><path d="M 101.44485096284872 79.0497635885617 l 1.407392759582467 -20.407095122714377 a41.45556857501737,41.45556857501737 0 0,0 0.7114758866665947,0.055224221986392395 l -1.7584588356114026 20.379845638539518" fill="#fff216" stroke="none" /><path d="M 101.80526077348638 79.07773832637324 l 1.120672635513827 -12.98815466167342 a34.03641318275616,34.03641318275616 0 0,0 0.5832785651642052,0.05538932796081437 l -1.3440763277682763 12.966939789197427" fill="#ff900d" stroke="none" /><path d="M 102.16513564639614 79.11191278185805 l 2.566287209723803 -24.758186006838955 a45.89083374240462,45.89083374240462 0 0,0 0.7850245468557686,0.08820665468815914 l -2.992078460089297 24.710343398680195" fill="#d5ff1c" stroke="none" /><path d="M 102.52436894288641 79.15227682838746 l 4.074289381181923 -33.64787757323612 a54.89364983511068,54.89364983511068 0 0,0 0.9370745221111848,0.12165916718889343 l -4.652878631800953 33.57276008288309" fill="#6eff28" stroke="none" /><path d="M 102.88285421437855 79.19881850522331 l 4.316018962138051 -31.14215533985448 a52.43981327700853,52.43981327700853 0 0,0 0.8930525661136893,0.13161273377462876 l -4.851440508680396 31.063248121918882" fill="#89ff24" stroke="none" /><path d="M 103.95276090670814 79.375362276772 l 3.854265279844104 -20.110709188379055 a41.47671811856005,41.47671811856005 0 0,0 0.7000353393467227,0.14042050348239973 l -4.199867028657953 20.041384728819448" fill="#fff216" stroke="none" /><path d="M 104.307194497241 79.44645832069477 l 2.503483818803088 -11.946397834180821 a33.20589416812751,33.20589416812751 0 0,0 0.5584239584029602,0.12204984825888071 l -2.7087505013595763 11.90153448782607" fill="#ff840c" stroke="none" /><path d="M 104.66035177308747 79.52364482259891 l 6.925629744167472 -30.429388461119668 a52.207563658046425,52.207563658046425 0 0,0 0.8745421074427104,0.20697586150943761 l -7.448395538572706 30.305666687469362" fill="#8cff24" stroke="none" /><path d="M 108.43124777332544 80.76684994638697 l 8.48613594218266 -19.35835956188285 a42.13671185772152,42.13671185772152 0 0,0 0.6617829066518769,0.29692269970598995 l -8.818100967301318 19.20941653166033" fill="#fffa17" stroke="none" /><path d="M 108.76106565485865 80.91482961587045 l 11.607702353780716 -25.28630487631483 a48.82329901776404,48.82329901776404 0 0,0 0.7607641540403491,0.3571889710555479 l -12.041244719120664 25.08275092261928" fill="#b2ff20" stroke="none" /><path d="M 109.08828744355905 81.06846463323043 l 8.88521837553998 -18.508528362757538 a41.530775137242955,41.530775137242955 0 0,0 0.6418061826363864,0.31493150648602647 l -9.202495825186798 18.35284169613668" fill="#fff316" stroke="none" /><path d="M 109.41281617654863 81.2277094730956 l 20.32838854386174 -40.541577412286394 a66.35265019672632,66.35265019672632 0 0,0 1.0165842534042184,0.5207339389402609 l -21.023233284854715 40.18565094803363" fill="#36ff71" stroke="none" /><path d="M 109.73455568895987 81.39251694778311 l 6.451174151277807 -12.331339767560335 a34.916881417657116,34.916881417657116 0 0,0 0.5301628857049303,0.2831946528401237 l -6.6624820835110485 12.218466388218458" fill="#ff9c0e" stroke="none" /><path d="M 110.05341064243156 81.56283822128135 l 13.937773042454994 -25.560775895716713 a50.11382458170066,50.11382458170066 0 0,0 0.7537976185632826,0.4194875586111016 l -14.375694750090313 25.317072939545433" fill="#a4ff21" stroke="none" /><path d="M 110.36928655335952 81.73862282372117 l 5.949551515041927 -10.47777045091704 a33.04910108067187,33.04910108067187 0 0,0 0.49227937176751474,0.2851599865625602 l -6.129027619274771 10.37380630696443" fill="#ff820c" stroke="none" /><line stroke="#e1ed5e" stroke-width="0.3" x1="143.23703022742887" x2="145.7803849466894" y1="26.81831364943548" y2="22.513508569990506" /><path d="M 143.74570117128098 25.957352633546492 a86.0,86.0 0 0,1 28.547481713284135,27.462654790039103" fill="none" id="id110" stroke="none" /><text fill="#e1ed5e" style="font-size:6.75px; font-family:Arial;" text-anchor="middle"><textPath startOffset="19.985693538727396" xlink:href="#id110">February</textPath></text><path d="M 110.99172775467656 82.1063720568725 l 21.95657985013991 -35.74350452546617 a62.94865330946383,62.94865330946383 0 0,0 0.9183934170465745,0.575097873500991 l -22.568592419558748 35.36026231064224" fill="#32ff48" stroke="none" /><path d="M 111.2981086023043 82.29822771554956 l 10.96134956875503 -17.17414133873579 a41.37405985785159,41.37405985785159 0 0,0 0.5970335435287615,0.388327224279554 l -11.255350138068072 16.98291519029671" fill="#fff116" stroke="none" /><path d="M 111.60114157652 82.49532879139004 l 13.77410431607809 -20.78340012107398 a45.93342476080771,45.93342476080771 0 0,0 0.6553065918175383,0.44246593602079565 l -14.12981560230217 20.543222272754516" fill="#d5ff1c" stroke="none" /><path d="M 111.90073688211348 82.69761687909136 l 14.71876175953225 -21.399486229425747 a46.97267715537332,46.97267715537332 0 0,0 0.662245095052212,0.46394501038003083 l -15.084937994168111 21.14295637628178" fill="#c8ff1d" stroke="none" /><path d="M 112.19680574252982 82.90503203632743 l 19.582938459282087 -27.44732618218793 a54.7171646680359,54.7171646680359 0 0,0 0.7620138610956233,0.5536354770155367 l -20.0524976367315 27.106171470355715" fill="#70ff27" stroke="none" /><path d="M 113.06298171725822 83.55741782278167 l 32.98568121132518 -41.51959986839653 a74.02765635219913,74.02765635219913 0 0,0 0.990901076801854,0.8012397582229136 l -33.695485686691526 40.94565401290949" fill="#40ffc8" stroke="none" /><path d="M 113.34407831869373 83.78471172551755 l 18.068910681476176 -21.95675029091802 a49.4356188002458,49.4356188002458 0 0,0 0.652414721726204,0.546378567002733 l -18.444182940161497 21.642470566521467" fill="#abff21" stroke="none" /><path d="M 113.6212207817346 84.01681056812373 l 16.82993977776655 -19.748311836764515 a46.946920690620345,46.946920690620345 0 0,0 0.6105473892879502,0.5294606795566306 l -17.167380965701266 19.45568616378821" fill="#c9ff1d" stroke="none" /><path d="M 114.16331599549186 84.49514656593476 l 19.828211971374852 -21.706323616136228 a50.399361811274176,50.399361811274176 0 0,0 0.6354930318760225,0.5906215145961654 l -20.198912887045722 21.361797515465422" fill="#a0ff22" stroke="none" /><path d="M 114.68862486808459 84.99185889309783 l 20.35753294429461 -20.800362849502367 a50.10471168469117,50.10471168469117 0 0,0 0.6111920655502818,0.60856741258461 l -20.712560810012214 20.44685958626764" fill="#a4ff21" stroke="none" /><path d="M 114.94478906791727 85.2469230424477 l 14.84696590476317 -14.65650867226671 a41.862541624582306,41.862541624582306 0 0,0 0.5018237018630225,0.5171734363185874 l -15.097053870329303 14.398771040398008" fill="#fff717" stroke="none" /><path d="M 115.19652480421416 85.50635884689758 l 20.583244997289057 -19.63120980622945 a49.443881118346425,49.443881118346425 0 0,0 0.5821020543363261,0.6209458856739828 l -20.918114373595845 19.27399450367741" fill="#abff21" stroke="none" /><path d="M 115.4437574822437 85.77008943001954 l 19.188246802719377 -17.680090891827554 a47.091654399546115,47.091654399546115 0 0,0 0.5441471149505576,0.6008608352011457 l -19.48973755828597 17.34717726935686" fill="#c7ff1e" stroke="none" /><path d="M 115.68641384162765 86.03803664274999 l 17.24540292429014 -15.349568495444421 a44.08707809614406,44.08707809614406 0 0,0 0.4996706332362436,0.571209910591741 l -17.507065421104233 15.050443028649733" fill="#ebff1a" stroke="none" /><path d="M 115.9244219780498 86.31012108654704 l 21.91661881387272 -18.84124008819858 a49.90208484337663,49.90208484337663 0 0,0 0.5543631789916743,0.6561911487784506 l -22.237692606351512 18.461189989791023" fill="#a6ff21" stroke="none" /><path d="M 116.82858285166822 87.43820079747576 l 23.567669388311433 -17.592231808045447 a50.409550496135736,50.409550496135736 0 0,0 0.5130669346384038,0.6998227222505645 l -23.866998935463464 17.183946642123388" fill="#a0ff22" stroke="none" /><path d="M 117.2510076193507 88.02491185347247 l 24.23818317836488 -16.82535805891233 a50.50562993055014,50.50562993055014 0 0,0 0.4896052666594742,0.7184353147060601 l -24.52421291069309 16.405644720935864" fill="#9fff22" stroke="none" /><path d="M 117.65298651832404 88.62581576622439 l 5.923576366828636 -3.816682738029117 a28.046688874671577,28.046688874671577 0 0,0 0.25799268129819625,0.40808246473731924 l -5.988396644372788 3.714152625577592" fill="#ff3b05" stroke="none" /><line stroke="#e1ed5e" stroke-width="0.3" x1="172.23445277983987" x2="176.4835382374775" y1="55.19839476539836" y2="52.563006222186495" /><path d="M 173.08426987136738 54.67131705675599 a86.0,86.0 0 0,1 12.851231095245387,41.99856678651699" fill="none" id="id111" stroke="none" /><text fill="#e1ed5e" style="font-size:6.75px; font-family:Arial;" text-anchor="middle"><textPath startOffset="22.20632615414155" xlink:href="#id111">March</textPath></text><path d="M 118.21658344932153 89.55222093294921 l 10.797676970640227 -6.192804690323696 a33.447516133542045,33.447516133542045 0 0,0 0.28214151908595425,0.5018982802571963 l -10.902676131018614 6.006022900131706" fill="#ff870c" stroke="none" /><path d="M 119.34039704204932 91.81776055985345 l 26.994005527159548 -11.420211084169914 a50.31036600943969,50.31036600943969 0 0,0 0.33055902067240384,0.8004748882645512 l -27.18658623471815 10.95386162545206" fill="#a1ff22" stroke="none" /><path d="M 119.47837535516314 92.15188598940014 l 18.679029344140176 -7.526046152575774 a41.13821014712952,41.13821014712952 0 0,0 0.25898746322726685,0.6590948448003842 l -18.805810357249143 7.2034023028796055" fill="#ffee16" stroke="none" /><path d="M 119.61058180528143 92.48833698450437 l 15.674738646819987 -6.004072481886677 a37.78530065306728,37.78530065306728 0 0,0 0.22742326783972605,0.6093812900754434 l -15.775766503161337 5.7333680547819" fill="#ffc212" stroke="none" /><path d="M 119.85752413597 93.16781622104841 l 14.269297650861416 -4.909497441861481 a36.090262442400515,36.090262442400515 0 0,0 0.1970574838158424,0.5891767946594056 l -14.351692428449029 4.663147544279761" fill="#ffac0f" stroke="none" /><path d="M 119.97218684219823 93.5106431181261 l 9.364517043755782 -3.042716033225003 a30.846435919744618,30.846435919744618 0 0,0 0.15973241674131697,0.5063954118890516 l -9.415504944265304 2.8810704549095325" fill="#ff6309" stroke="none" /><path d="M 120.6074358757038 95.95851677861258 l 22.875131053686736 -4.486218416407234 a44.31089394259806,44.31089394259806 0 0,0 0.1403479539761386,0.7497443821445916 l -22.948964731572737 4.0917959568000795" fill="#e9ff1a" stroke="none" /><path d="M 120.78858239683441 97.02765380044208 l 21.217993067961416 -3.0337432276000125 a42.433777730560415,42.433777730560415 0 0,0 0.09716122897027793,0.7239640113221291 l -21.26707029598953 2.6680608742132192" fill="#fffe18" stroke="none" /><path d="M 120.87857604477298 97.74499172005257 l 25.798712215003903 -2.7864117520303444 a46.94875030525448,46.94875030525448 0 0,0 0.0798640145967159,0.804219727983222 l -25.842853355282845 2.3419164933426875" fill="#c9ff1d" stroke="none" /><path d="M 120.91429891909075 98.10471618934814 l 13.271167383221673 -1.2026522518003966 a34.32554900003176,34.32554900003176 0 0,0 0.048260931066912545,0.5889055994721063 l -13.28990279810808 0.9740327351205216" fill="#ff940d" stroke="none" /><path d="M 120.96714384426684 98.82574320788733 l 62.90143153280055 -3.5227703763380056 a84.0,84.0 0 0,0 0.0684255670660141,1.444355573508001 l -62.95275070810006 2.4395036962070047" fill="#4dd2ff" stroke="none" /><line stroke="#e1ed5e" stroke-width="0.3" x1="184.98032266829074" x2="189.97916517819016" y1="98.17113171792111" y2="98.06355123074" /><path d="M 185.9800911702706 98.14961562048488 a86.0,86.0 0 0,1 -9.607161424134198,41.387399972396054" fill="none" id="id112" stroke="none" /><text fill="#e1ed5e" style="font-size:6.75px; font-family:Arial;" text-anchor="middle"><textPath startOffset="21.466115282336823" xlink:href="#id112">April</textPath></text><path d="M 120.99513854157772 99.54816195383933 l 23.368694816273038 -0.5029195395019415 a44.37410587550504,44.37410587550504 0 0,0 0.009861601727558025,0.7637919216657741 l -23.37388942511831 0.10059135977570456" fill="#e8ff1a" stroke="none" /><path d="M 120.99980553446 99.90962569577887 l 20.75847129942351 -0.08933570348073888 a41.75866353012414,41.75866353012414 0 0,0 -0.0030935269543117044,0.7188267175724445 l -20.756933475179693 -0.2680004922953904" fill="#fff617" stroke="none" /><path d="M 120.9904718944345 100.63252640178507 l 3.7927936245471847 0.11429195666078748 a24.794515269407032,24.794515269407032 0 0,0 -0.016527158607617783,0.4264925268842128 l -3.7902643330883636 -0.17956173055900645" fill="#ff0b01" stroke="none" /><path d="M 120.9764740272857 100.99374915477107 l 3.0883061002390115 0.14630683749779652 a24.091769761717728,24.091769761717728 0 0,0 -0.02318964668865686,0.4140667195494727 l -3.0853301026628253 -0.19944527338269255" fill="#ff0000" stroke="none" /><path d="M 120.95626037817324 101.35467743843564 l 43.62451273410368 2.820023329409982 a64.71556522414403,64.71556522414403 0 0,0 -0.08142894958116183,1.1110333214333017 l -43.56950722585818 -3.5705297873400537" fill="#34ff5e" stroke="none" /><path d="M 120.92983693683757 101.71520430193887 l 23.361053334546234 1.9144429695347347 a44.43936656104671,44.43936656104671 0 0,0 -0.0690405845354851,0.7618570972899582 l -23.324638153733673 -2.3162814553732636" fill="#e7ff1a" stroke="none" /><path d="M 120.89721153311464 102.0752229133903 l 20.669665556813932 2.0526261844860283 a41.771334778578336,41.771334778578336 0 0,0 -0.07721271806349903,0.7148938742477517 l -20.63127053724938 -2.4081163806185715" fill="#fff617" stroke="none" /><path d="M 120.8583938346157 102.4346265915055 l 20.6820161343211 2.41403949152597 a41.82242488393139,41.82242488393139 0 0,0 -0.08961647616257026,0.7143314894531071 l -20.63739814891168 -2.7696887352664716" fill="#fff617" stroke="none" /><path d="M 120.70491114924044 103.5080841355445 l 20.28669912094174 3.437225440658365 a41.57582756424459,41.57582756424459 0 0,0 -0.12562543674494006,0.7045741644220791 l -20.22452724185761 -3.7859183558136627" fill="#fff316" stroke="none" /><path d="M 120.64145759157962 103.86396538481128 l 22.008190397966462 4.119810120132638 a43.39047297443916,43.39047297443916 0 0,0 -0.14374657681187464,0.7329606982719814 l -21.934013888178924 -4.498034545472565" fill="#f4ff19" stroke="none" /><path d="M 120.5718875245553 104.21870165774334 l 22.96119374439877 4.7086795510445025 a44.43902901747941,44.43902901747941 0 0,0 -0.16012008803618796,0.748027744582992 l -22.87673961763814 -5.103221115043664" fill="#e7ff1a" stroke="none" /><path d="M 120.49622156327973 104.57218783832717 l 17.6933789962705 3.9469446607951477 a39.128266118441815,39.128266118441815 0 0,0 -0.15230106326857895,0.6561089944718844 l -17.62281736707137 -4.2509223126155975" fill="#ffd413" stroke="none" /><path d="M 120.41448212921028 104.9243191809786 l 19.183117819964014 4.627293233985919 a40.73331832125334,40.73331832125334 0 0,0 -0.17028211808684518,0.680192416391788 l -19.10062438758211 -4.9568134897751035" fill="#ffe815" stroke="none" /><path d="M 120.32669344350535 105.2749913415812 l 17.78459963663691 4.615291186315533 a39.37370123219455,39.37370123219455 0 0,0 -0.17589155495887177,0.6545579092664859 l -17.702520005336257 -4.920740028757566" fill="#ffd714" stroke="none" /><path d="M 120.02730092923936 106.31721596034902 l 60.00162060092567 18.926324453115924 a83.91581861536923,83.91581861536923 0 0,0 -0.44638320007865784,1.3738262261537024 l -59.66694514983077 -19.956349579247423" fill="#4dd3ff" stroke="none" /><path d="M 119.79798401119884 107.00284435728193 l 14.69954525349632 5.199449978080051 a36.59201432574197,36.59201432574197 0 0,0 -0.21515361953230094,0.5920103561501926 l -14.607867372958793 -5.451708131236375" fill="#ffb210" stroke="none" /><path d="M 119.67450827220406 107.3425965602758 l 17.178901727551168 6.411227309413326 a39.3362618921586,39.3362618921586 0 0,0 -0.2422096991459074,0.6323330944605824 l -17.065997748811753 -6.705983970707052" fill="#ffd614" stroke="none" /><path d="M 119.54520255179757 107.68017299344265 l 15.505015943487164 6.09260530283509 a37.65909237575461,37.65909237575461 0 0,0 -0.24226880616208626,0.6012913085741144 l -15.397844523067684 -6.3585959792520175" fill="#ffc011" stroke="none" /><path d="M 119.26925614724726 108.34839909993367 l 30.243571662894922 13.103017808259326 a53.96001672651611,53.96001672651611 0 0,0 -0.37658673901526535,0.8491036804837926 l -30.013543839148383 -13.621669825235806" fill="#78ff26" stroke="none" /><path d="M 119.12269723197855 108.67885076344098 l 26.779923089029094 12.154088574777044 a50.40894676349086,50.40894676349086 0 0,0 -0.36540577313204475,0.7870515273027806 l -26.56674269905722 -12.613260169358654" fill="#a0ff22" stroke="none" /><path d="M 118.97047184881838 109.00673069616215 l 26.439118791533065 12.55266736098665 a50.26766919910734,50.26766919910734 0 0,0 -0.37783751812609173,0.7784571991158983 l -26.219128016792258 -13.005913516067823" fill="#a2ff22" stroke="none" /><path d="M 118.81262510543309 109.33194174019688 l 19.008915821336682 9.429311113938603 a42.21911376061946,42.21911376061946 0 0,0 -0.3285477967240602,0.6482559722741222 l -18.843789354826352 -9.75512129791542" fill="#fffb17" stroke="none" /><path d="M 118.64920377521936 109.65438752849418 l 20.91778471344875 10.828794746164466 a44.55454336158418,44.55454336158418 0 0,0 -0.3584465880059471,0.6780458603836216 l -20.72828561721791 -11.187255621634222" fill="#e6ff1a" stroke="none" /><line stroke="#e1ed5e" stroke-width="0.3" x1="174.80103733775053" x2="179.2010983576182" y1="140.37084112569926" y2="142.7455964860345" /><path d="M 175.68104954172406 140.8457921977663 a86.0,86.0 0 0,1 -30.038265399797805,32.042727171017184" fill="none" id="id113" stroke="none" /><text fill="#e1ed5e" style="font-size:6.75px; font-family:Arial;" text-anchor="middle"><textPath startOffset="22.206326154141568" xlink:href="#id113">May</textPath></text><path d="M 118.48025628344425 109.97397251340804 l 27.293987392753117 14.730828180153827 a52.01546463732214,52.01546463732214 0 0,0 -0.43203448124236954,0.7842680763529816 l -27.036376502059237 -15.198466774904613" fill="#8eff24" stroke="none" /><path d="M 118.30583269289576 110.29060199501025 l 7.341496223475805 4.1270133378297285 a29.421983489056124,29.421983489056124 0 0,0 -0.25197547617830435,0.439340481792968 l -7.269368751145121 -4.252773665481011" fill="#ff4f07" stroke="none" /><path d="M 118.12598468904814 110.60418214915192 l 16.181549942954284 9.466636212837777 a39.74726005960699,39.74726005960699 0 0,0 -0.35056917626834455,0.5875741041270894 l -16.01619989098771 -9.743772410850971" fill="#ffdc14" stroke="none" /><path d="M 117.75023020441432 111.22182372390056 l 15.353970173384797 9.70689082696525 a39.165024899840134,39.165024899840134 0 0,0 -0.3651581619574012,0.5667335764571371 l -15.184607148050345 -9.96974600334384" fill="#ffd413" stroke="none" /><path d="M 117.35343817320211 111.8261652097733 l 15.012042633912381 10.23053152654007 a39.16659570084426,39.16659570084426 0 0,0 -0.38446507177711486,0.5538506106549532 l -14.833716654973129 -10.487423399382042" fill="#ffd413" stroke="none" /><path d="M 117.14729908036423 112.12312394758627 l 24.011771637425728 16.976299439192218 a50.406800570905375,50.406800570905375 0 0,0 -0.5069968991556294,0.7041743497252558 l -23.715994945894494 -17.387107394368606" fill="#a0ff22" stroke="none" /><path d="M 116.71984013943494 112.70617746262583 l 14.640800272616005 11.126219204689514 a39.38874075116169,39.38874075116169 0 0,0 -0.41488194916770593,0.5362908459488198 l -14.44711150623023 -11.376588044751585" fill="#ffd714" stroke="none" /><path d="M 116.498646956653 112.99209946851258 l 15.99907441237688 12.59870380376347 a41.36412825504045,41.36412825504045 0 0,0 -0.44531849913954075,0.5556032985260175 l -15.779838001182485 -12.872234935867738" fill="#fff116" stroke="none" /><path d="M 116.27256486870786 113.27417163493432 l 20.21589056377239 16.490897609669357 a47.088923612503066,47.088923612503066 0 0,0 -0.5177628963254446,0.6236787627355854 l -19.929031667553403 -16.836437629518713" fill="#c7ff1e" stroke="none" /><path d="M 116.0416608686014 113.55231037782055 l 17.865722336228814 15.093313355005723 a44.38786314795816,44.38786314795816 0 0,0 -0.49811106833159674,0.5794157051494953 l -17.603268758326436 -15.398606159316746" fill="#e8ff1a" stroke="none" /><path d="M 115.80600337817218 113.82643327865902 l 22.11203438522482 19.34268649498923 a50.378250211624305,50.378250211624305 0 0,0 -0.5765698385031253,0.6477823257331534 l -21.775805697073356 -19.720442990463248" fill="#a0ff22" stroke="none" /><path d="M 115.56566222782051 114.09645910891815 l 9.951846936632652 9.012517511122768 a34.426270120121195,34.426270120121195 0 0,0 -0.4015637392968207,0.4358181292049772 l -9.795236789340109 -9.18248689512908" fill="#ff950d" stroke="none" /><path d="M 115.32070863581623 114.36230785411682 l 8.483459889085312 7.952769384978494 a32.628225684960306,32.628225684960306 0 0,0 -0.38764421659648546,0.40644341132026035 l -8.345309121109862 -8.097619912881262" fill="#ff7c0b" stroke="none" /><path d="M 115.07121518719521 114.62390073753431 l 22.360555012088973 21.696892577765656 a52.156854269642814,52.156854269642814 0 0,0 -0.6307486718756194,0.638945074520513 l -21.98376571515782 -22.078578146266832" fill="#8cff24" stroke="none" /><path d="M 114.55890576462653 115.13401014063108 l 19.871248895238526 20.656200895140447 a49.66260923358024,49.66260923358024 0 0,0 -0.6211708483958918,0.5873558086877863 l -19.512742212451826 -20.995191340574156" fill="#a9ff21" stroke="none" /><path d="M 114.29624159901734 115.38237550388516 l 19.96306402713529 21.479725629049536 a50.3240948445259,50.3240948445259 0 0,0 -0.6395963612702967,0.5842561113370601 l -19.59036811639813 -21.82017450697318" fill="#a1ff22" stroke="none" /><path d="M 114.0293411484842 115.62618273729858 l 13.561996744164023 15.105644460706012 a41.300449508864915,41.300449508864915 0 0,0 -0.5330858413225333,0.47038627413916795 l -13.299968549934903 -15.33685387661747" fill="#fff016" stroke="none" /><path d="M 113.20401910651253 116.32954008644616 l 16.945219204980948 20.9563189850941 a47.950097575145634,47.950097575145634 0 0,0 -0.6462817067674707,0.5134452745140619 l -16.581980005496128 -21.244898173613286" fill="#bdff1f" stroke="none" /><path d="M 112.92097659922987 116.55440617244103 l 18.91367256408742 24.232271874644457 a51.739713890473965,51.739713890473965 0 0,0 -0.7067922624353862,0.541938167667245 l -18.49375157315854 -24.554249384139073" fill="#91ff24" stroke="none" /><path d="M 112.63410532772338 116.77436683061366 l 16.28323604613804 21.619336513526584 a48.065466695022145,48.065466695022145 0 0,0 -0.6651689059723511,0.49207605469570165 l -15.908682169747124 -21.896422516962055" fill="#bbff1f" stroke="none" /><path d="M 112.34349029814194 116.9893568818739 l 17.266747788063714 23.76563948082652 a50.37594592705439,50.37594592705439 0 0,0 -0.7059173438140187,0.5036532815433523 l -16.855103116400812 -24.059337024214088" fill="#a1ff22" stroke="none" /><line stroke="#e1ed5e" stroke-width="0.3" x1="143.8653032363475" x2="146.44561519142675" y1="172.8068346515853" y2="177.08958963109032" /><path d="M 144.38136562736335 173.6633856474863 a86.0,86.0 0 0,1 -40.68145358897372,12.25698825130547" fill="none" id="id114" stroke="none" /><text fill="#e1ed5e" style="font-size:6.75px; font-family:Arial;" text-anchor="middle"><textPath startOffset="21.466115282336833" xlink:href="#id114">June</textPath></text><path d="M 110.8373102113329 117.98757091392108 l 5.134387849917806 8.521963822110827 a30.94916106909268,30.94916106909268 0 0,0 -0.4586844423532966,0.27099885350930797 l -4.986935536536127 -8.609081247913885" fill="#ff6409" stroke="none" /><path d="M 110.5260780823613 118.17145234162733 l 8.276571120873866 14.288067834787544 a37.512132266015,37.512132266015 0 0,0 -0.5615230968208043,0.318847469227469 l -8.029399257131862 -14.42841846980964" fill="#ffbe11" stroke="none" /><path d="M 110.21172684928248 118.3499491758327 l 14.30894034810561 25.71243160173332 a50.425752543638694,50.425752543638694 0 0,0 -0.7620944548432088,0.41555466046310513 l -13.864223081393751 -25.954926913956196" fill="#a0ff22" stroke="none" /><path d="M 109.89434966115114 118.52300852407294 l 13.85042045011294 25.92908729178548 a50.396457514978536,50.396457514978536 0 0,0 -0.7686878010706945,0.402141127091088 l -13.40204174651575 -26.163657837821283" fill="#a0ff22" stroke="none" /><path d="M 109.57404056367764 118.69057910512821 l 13.445806364889377 26.249095752594837 a50.49245219765545,50.49245219765545 0 0,0 -0.776973267580351,0.38959052606523653 l -12.991979189626266 -26.476654119569375" fill="#9fff22" stroke="none" /><path d="M 109.2508944713604 118.85261126421891 l 9.219382078920345 18.788391432664564 a41.92846526967854,41.92846526967854 0 0,0 -0.6506645562657354,0.3123585278275204 l -8.894604854654377 -18.944304236991645" fill="#fff817" stroke="none" /><path d="M 108.92500713936063 119.00905698771935 l 8.578525951199067 18.27109896168155 a41.18475079764317,41.18475079764317 0 0,0 -0.6443099392080515,0.29577109168350635 l -8.262748016223597 -18.41605712369913" fill="#ffee16" stroke="none" /><path d="M 108.59647513512805 119.15986991738527 l 8.34569384596768 18.60092723419269 a41.3873759896254,41.3873759896254 0 0,0 -0.6525002152538598,0.28603691915355467 l -8.024272956056068 -18.7418287066407" fill="#fff116" stroke="none" /><path d="M 108.2653958097858 119.30500536409082 l 5.150256264839499 12.029154695949826 a34.08532392769129,34.08532392769129 0 0,0 -0.5413537305790068,0.22628590328711237 l -4.942431074763031 -12.116025642256911" fill="#ff900d" stroke="none" /><path d="M 107.59598834532513 119.57807347666477 l 12.261004527784227 31.60179250280359 a54.8969839575824,54.8969839575824 0 0,0 -0.8839192888811463,0.3342226410878629 l -11.715215018142805 -31.808163393998086" fill="#6eff28" stroke="none" /><path d="M 107.2578585660854 119.70592522655815 l 9.679239052565295 26.280253229391576 a49.00605967353586,49.00605967353586 0 0,0 -0.7940858817864865,0.2847309449862171 l -9.225433610149075 -26.44297171541775" fill="#b0ff20" stroke="none" /><path d="M 106.91757812671514 119.82793768551818 l 9.689016810976327 27.771745839783247 a50.413379842393155,50.413379842393155 0 0,0 -0.8218107516658794,0.278802826441234 l -9.20953632637322 -27.934411653122606" fill="#a0ff22" stroke="none" /><path d="M 106.2309692047433 120.05430185196036 l 6.143252461577932 19.77198653517622 a41.704371575922636,41.704371575922636 0 0,0 -0.6873774608414146,0.20710119030822674 l -5.802000026296271 -19.874803094590174" fill="#fff517" stroke="none" /><path d="M 105.88484417918355 120.15858648285463 l 8.246940627379612 28.249969038103565 a50.4291145018897,50.4291145018897 0 0,0 -0.8353674835853074,0.236083195121465 l -7.759441975689699 -28.38774102656355" fill="#a0ff22" stroke="none" /><path d="M 105.53697534728816 120.25689768951611 l 8.960270177180021 32.78094354139664 a54.98347688380775,54.98347688380775 0 0,0 -0.915107174206853,0.2416881219877083 l -8.394672560161672 -32.93032301268793" fill="#6dff28" stroke="none" /><path d="M 105.18746579009965 120.34920634021253 l 5.777472508479465 22.663663715013215 a44.388476683474764,44.388476683474764 0 0,0 -0.7420204254755418,0.1823705673146297 l -5.386498798260712 -22.759755540641876" fill="#e8ff1a" stroke="none" /><path d="M 104.83641907484287 120.43548508189849 l 4.805037724124537 20.302888399408765 a41.86374043380302,41.86374043380302 0 0,0 -0.7026726178077566,0.15992600010741165 l -4.454844956923918 -20.38259113309386" fill="#fff717" stroke="none" /><path d="M 104.48393922423573 120.51570834832081 l 3.9183432470996378 17.927894033802456 a39.35109801318006,39.35109801318006 0 0,0 -0.6629883085329782,0.13893564616766615 l -3.6091634771372814 -17.99268566069666" fill="#ffd714" stroke="none" /><path d="M 104.13013068566511 120.58985236759428 l 3.986141258778782 19.872024950565095 a41.26787353845539,41.26787353845539 0 0,0 -0.6976872182814788,0.13371341589322003 l -3.6434864259255986 -19.937695564806784" fill="#ffef16" stroke="none" /><path d="M 103.7750983002368 120.6578951692458 l 2.7005356134840715 14.777729523140984 a36.02245593965276,36.02245593965276 0 0,0 -0.6109254634766711,0.10621722271179633 l -2.4457611785353506 -14.822025324373787" fill="#ffab0f" stroke="none" /><path d="M 103.41894727170886 120.7198165907248 l 4.25302464083683 25.774568459468284 a47.12310467512203,47.12310467512203 0 0,0 -0.8014610945416861,0.12517174008751525 l -3.808727682686627 -25.843958506902904" fill="#c7ff1e" stroke="none" /><path d="M 103.06178313531738 120.77559828337769 l 3.0066290078306444 20.401352314381008 a41.621711719598544,41.621711719598544 0 0,0 -0.7096926167929648,0.09835692995365301 l -2.6550077998508494 -20.450083809827262" fill="#fff417" stroke="none" /><path d="M 102.34483914955558 120.86867818915974 l 3.7740872065452398 33.588748032522695 a54.800114328725364,54.800114328725364 0 0,0 -0.9383016578521851,0.09725880332039226 l -3.1953529520874517 -33.64873620429884" fill="#6fff27" stroke="none" /><line stroke="#e1ed5e" stroke-width="0.3" x1="102.19456741930631" x2="102.32365962044197" y1="184.97166512339345" y2="189.96999836594603" /><path d="M 102.22038585953345 185.97133177190398 a86.0,86.0 0 0,1 -42.740103519485714,-10.115201625700543" fill="none" id="id115" stroke="none" /><text fill="#e1ed5e" style="font-size:6.75px; font-family:Arial;" text-anchor="middle"><textPath startOffset="22.20632615414155" xlink:href="#id115">July</textPath></text><line stroke="#e1ed5e" stroke-width="0.3" x1="58.666819895761336" x2="56.23545636021788" y1="174.27360380694188" y2="178.64263932499728" /><path d="M 58.180547188652646 175.14741091055294 a86.0,86.0 0 0,1 -31.652253787137756,-30.449443065178592" fill="none" id="id116" stroke="none" /><text fill="#e1ed5e" style="font-size:6.75px; font-family:Arial;" text-anchor="middle"><textPath startOffset="22.20632615414155" xlink:href="#id116">August</textPath></text><line stroke="#e1ed5e" stroke-width="0.3" x1="26.63291911575756" x2="22.317208475507996" y1="142.92168965132927" y2="145.44649492493687" /><path d="M 25.769776987707644 143.4266507060508 a86.0,86.0 0 0,1 -11.730757126820373,-40.83630448921669" fill="none" id="id117" stroke="none" /><text fill="#e1ed5e" style="font-size:6.75px; font-family:Arial;" text-anchor="middle"><textPath startOffset="21.46611528233685" xlink:href="#id117">September</textPath></text><line stroke="#e1ed5e" stroke-width="0.3" x1="15.007084014347285" x2="10.007500721073583" y1="101.09737516637583" y2="101.16192664675087" /><path d="M 14.007167355692545 101.11028546245083 a86.0,86.0 0 0,1 10.666146001902534,-42.60595125391555" fill="none" id="id118" stroke="none" /><text fill="#e1ed5e" style="font-size:6.75px; font-family:Arial;" text-anchor="middle"><textPath startOffset="22.20632615414155" xlink:href="#id118">October</textPath></text><line stroke="#e1ed5e" stroke-width="0.3" x1="26.266209847984243" x2="21.928928074336255" y1="57.711370442889674" y2="55.22380399835377" /><path d="M 25.398753493254645 57.213857153982495 a86.0,86.0 0 0,1 29.58750427330803,-30.492523968695096" fill="none" id="id119" stroke="none" /><text fill="#e1ed5e" style="font-size:6.75px; font-family:Arial;" text-anchor="middle"><textPath startOffset="21.46611528233685" xlink:href="#id119">November</textPath></text><line stroke="#e1ed5e" stroke-width="0.3" x1="56.762969772571076" x2="54.21961505331055" y1="26.818313649435495" y2="22.513508569990535" /><path d="M 56.25429882871897 25.957352633546506 a86.0,86.0 0 0,1 42.265352541879196,-11.944610805530505" fill="none" id="id120" stroke="none" /><text fill="#e1ed5e" style="font-size:6.75px; font-family:Arial;" text-anchor="middle"><textPath startOffset="22.20632615414155" xlink:href="#id120">December</textPath></text></svg>