<?xml version="1.0" encoding="utf-8" ?>
<svg baseProfile="full" height="200mm" version="1.1" viewBox="0,0,200,200" width="200mm" xmlns="http://www.w3.org/2000/svg" xmlns:ev="http://www.w3.org/2001/xml-events" xmlns:xlink="http://www.w3.org/1999/xlink"><defs /><rect fill="#1a1a1a" height="200" width="200" x="0" y="0" /><text alignment-baseline="middle" fill="#e1ed5e" style="dominant-baseline: central; font-size:9.0px; font-family:Arial;" text-anchor="middle" x="100.0" y="100.0">2025</text><line stroke="#e1ed5e" stroke-width="0.3" x1="100.0" x2="100.0" y1="15.0" y2="10.0" /><path d="M 100.0 14.0 a86.0,86.0 0 0,1 42.46469731375804,11.215312516191453" fill="none" id="id109" stroke="none" /><text fill="#e1ed5e" style="font-size:6.75px; font-family:Arial;" text-anchor="middle"><textPath startOffset="22.20632615414155" xlink:href="#id109">January</textPath></text><path d="M 100.36148047927253 79.00311137660856 l 0.28224420205335937 -16.39438480063661 a37.39681416559136,37.39681416559136 0 0,0 0.6435339318100943,0.01662058284861969 l -0.5644047690583215 16.38709742564563" fill="#ffc812" stroke="none" /><path d="M 100.72285384407766 79.0124445844662 l 0.5947191678785321 -17.26725477742615 a38.277493407239035,38.277493407239035 0 0,0 0.6582984598657762,0.02834771644941492 l -0.8918584601336398 17.25445933445254" fill="#ffd413" stroke="none" /><path d="M 101.08401301168833 79.027996857942 l 0.8785632166484791 -16.997241122919316 a38.01993181879138,38.01993181879138 0 0,0 0.6532873476547776,0.03940807686089702 l -1.1710126131428684 16.979599776678114" fill="#ffd013" stroke="none" /><path d="M 101.44485096284872 79.0497635885617 l 1.1733215114249167 -17.013078637891248 a38.0534902031298,38.0534902031298 0 0,0 0.6530881522958103,0.05069221005935191 l -1.4659998530830682 16.99036116564343" fill="#ffd113" stroke="none" /><path d="M 101.80526077348638 79.07773832637324 l 0.9342873917467964 -10.828023062145284 a31.868255442559636,31.868255442559636 0 0,0 0.5461230655831801,0.05186096557146114 l -1.1205355844202207 10.810336552058645" fill="#ff7f0b" stroke="none" /><path d="M 102.16513564639614 79.11191278185805 l 2.1394738371091715 -20.640515611506782 a41.75110197094433,41.75110197094433 0 0,0 0.7142088568154257,0.08024968679089937 l -2.4944493974343227 20.60062997124528" fill="#ffff18" stroke="none" /><path d="M 102.52436894288641 79.15227682838746 l 3.3966718545071157 -28.05171356870026 a49.2566100908726,49.2566100908726 0 0,0 0.8408461543433158,0.10916596327997694 l -3.8790327373582776 27.98908928225615" fill="#a6ff21" stroke="none" /><path d="M 102.88285421437855 79.19881850522331 l 3.5981980563100153 -25.962731812850823 a47.21088461762497,47.21088461762497 0 0,0 0.8040036571745861,0.11848923938042381 l -4.044570693913258 25.89694808930943" fill="#bdff1f" stroke="none" /><path d="M 103.95276090670814 79.375362276772 l 3.213241174354841 -16.765986282135085 a38.07112224949816,38.07112224949816 0 0,0 0.6425564073574116,0.12889077045906155 l -3.5013639911793777 16.708191555598816" fill="#ffd113" stroke="none" /><path d="M 104.307194497241 79.44645832069477 l 2.0871156243387974 -9.959526555361016 a31.175864623524646,31.175864623524646 0 0,0 0.5242849248858268,0.11458837781555083 l -2.2582432733781523 9.922124679449595" fill="#ff750a" stroke="none" /><path d="M 104.66035177308747 79.52364482259891 l 5.7737900835916545 -25.36850912287559 a47.01726171307817,47.01726171307817 0 0,0 0.7875980464068926,0.1863990113122087 l -6.20961181696107 25.26536419942251" fill="#c0ff1e" stroke="none" /><path d="M 108.43124777332544 80.76684994638697 l 7.074759893459322 -16.13876406938022 a38.62134879165663,38.62134879165663 0 0,0 0.6065719733533222,0.2721511632950054 l -7.351513985279425 16.014592575568685" fill="#ffd814" stroke="none" /><path d="M 108.76106565485865 80.91482961587045 l 9.67716138737924 -21.080800120522795 a44.19585278102139,44.19585278102139 0 0,0 0.6886593333402597,0.3233347909167665 l -10.038598932019097 20.911100346966027" fill="#e1ff1b" stroke="none" /><path d="M 109.08828744355905 81.06846463323043 l 7.407468727366397 -15.430272981711425 a38.11618874741234,38.11618874741234 0 0,0 0.5890380209804268,0.289038398731057 l -7.671978015357255 15.300479422845536" fill="#ffd213" stroke="none" /><path d="M 109.41281617654863 81.2277094730956 l 16.947462184040905 -33.79888418570968 a58.80980093412967,58.80980093412967 0 0,0 0.9010207941690108,0.46153784661087893 l -17.52674346579867 33.50215381378631" fill="#40ff2d" stroke="none" /><path d="M 109.73455568895987 81.39251694778311 l 5.37824381581175 -10.280446673791692 a32.602288151696285,32.602288151696285 0 0,0 0.49501909865141486,0.2644220589025564 l -5.554407960991476 10.186345888387383" fill="#ff890c" stroke="none" /><path d="M 110.05341064243156 81.56283822128135 l 11.619705175208072 -21.309622351654983 a45.27174392434361,45.27174392434361 0 0,0 0.6809644453047428,0.3789559765475277 l -11.984793709584851 21.106450977547276" fill="#d4ff1c" stroke="none" /><path d="M 110.36928655335952 81.73862282372117 l 4.960048805424 -8.735154688077644 a31.0451486587722,31.0451486587722 0 0,0 0.46242971150302736,0.2678691366751144 l -5.109675249392355 8.648481394012482" fill="#ff740a" stroke="none" /><line stroke="#e1ed5e" stroke-width="0.3" x1="143.23703022742887" x2="145.7803849466894" y1="26.81831364943548" y2="22.513508569990506" /><path d="M 143.74570117128098 25.957352633546492 a86.0,86.0 0 0,1 28.547481713284135,27.462654790039103" fill="none" id="id110" stroke="none" /><text fill="#e1ed5e" style="font-size:6.75px; font-family:Arial;" text-anchor="middle"><textPath startOffset="19.985693538727396" xlink:href="#id110">February</textPath></text><path d="M 110.99172775467656 82.1063720568725 l 18.30486001869935 -29.798805250273798 a55.971941533862875,55.971941533862875 0 0,0 0.8166062328816682,0.5113587481149009 l -18.815085403953283 29.479302160835953" fill="#5dff2a" stroke="none" /><path d="M 111.2981086023043 82.29822771554956 l 9.138307097077908 -14.317815219518957 a37.98553765003608,37.98553765003608 0 0,0 0.5481366881558876,0.3565233493905174 l -9.383410811018075 14.158392945968913" fill="#ffd013" stroke="none" /><path d="M 111.60114157652 82.49532879139004 l 11.483257096945598 -17.32679827757664 a41.78660944229203,41.78660944229203 0 0,0 0.5961462869322841,0.40252063407636146 l -11.779808078284423 17.12656573120161" fill="#feff18" stroke="none" /><path d="M 111.90073688211348 82.69761687909136 l 12.270803353515273 -17.840419709048014 a42.65301804219519,42.65301804219519 0 0,0 0.6013443069081289,0.4212801163721242 l -12.576078800007053 17.626554749911953" fill="#f4ff19" stroke="none" /><path d="M 112.19680574252982 82.90503203632743 l 16.32599201235243 -22.882410060295896 a49.10947714481588,49.10947714481588 0 0,0 0.6839188858294272,0.4968961562611188 l -16.717456214535645 22.597994669218103" fill="#a8ff21" stroke="none" /><path d="M 113.06298171725822 83.55741782278167 l 27.499650734123843 -34.61424633575451 a65.20833450709371,65.20833450709371 0 0,0 0.8728495816768505,0.7057836590963551 l -28.091403714365185 34.13575657939402" fill="#35ff68" stroke="none" /><path d="M 113.34407831869373 83.78471172551755 l 15.063770540414803 -18.305002112532087 a44.706334285040214,44.706334285040214 0 0,0 0.5900011236802429,0.49410897355823075 l -15.376629201054163 18.042991981580037" fill="#dbff1b" stroke="none" /><path d="M 113.6212207817346 84.01681056812373 l 14.030859717579997 -16.463861231798102 a42.63154527707888,42.63154527707888 0 0,0 0.5544256851638807,0.48079249077269326 l -14.312179201390641 16.219903747605738" fill="#f4ff19" stroke="none" /><path d="M 114.16331599549186 84.49514656593476 l 16.530472734568566 -18.096225278520766 a45.50979188323085,45.50979188323085 0 0,0 0.5738397190865143,0.533321479579079 l -16.839520337449926 17.808999212867047" fill="#d1ff1c" stroke="none" /><path d="M 114.68862486808459 84.99185889309783 l 16.97175941857806 -17.34093984113236 a45.264146643470994,45.264146643470994 0 0,0 0.5521454240968439,0.549774336174534 l -17.267740642842227 17.04622965430771" fill="#d4ff1c" stroke="none" /><path d="M 114.94478906791727 85.2469230424477 l 12.377685160622134 -12.218903920365612 a38.39277732136566,38.39277732136566 0 0,0 0.46023019368936,0.47430766997303936 l -12.586179618014604 12.004032054842458" fill="#ffd513" stroke="none" /><path d="M 115.19652480421416 85.50635884689758 l 17.159932055791877 -16.366235085491162 a44.713222451471154,44.713222451471154 0 0,0 0.526408082381316,0.5615354395422733 l -17.439107460143656 16.068430229070835" fill="#dbff1b" stroke="none" /><path d="M 115.4437574822437 85.77008943001954 l 15.996943700946911 -14.739617513367978 a42.752207525022584,42.752207525022584 0 0,0 0.4940045254118907,0.5454921354477911 l -16.24829186697484 14.462072590650637" fill="#f2ff19" stroke="none" /><path d="M 115.68641384162765 86.03803664274999 l 14.377224897947295 -12.796697143829407 a40.247338869491735,40.247338869491735 0 0,0 0.4561521009656458,0.5214607052674828 l -14.59536886249079 12.547320882358976" fill="#ffed16" stroke="none" /><path d="M 115.9244219780498 86.31012108654704 l 18.271545122660633 -15.707649586007081 a45.0952197891244,45.0952197891244 0 0,0 0.5009636266318306,0.5929829218702434 l -18.539219362779583 15.390807714507732" fill="#d6ff1c" stroke="none" /><path d="M 116.82858285166822 87.43820079747576 l 19.648000374579166 -14.666370758136539 a45.51828603174752,45.51828603174752 0 0,0 0.4632837875849146,0.6319185656170312 l -19.897546774677707 14.325989748848015" fill="#d1ff1c" stroke="none" /><path d="M 117.2510076193507 88.02491185347247 l 20.206997319973553 -14.027040009645342 a45.59838596578258,45.59838596578258 0 0,0 0.44203408512511994,0.6486304757798824 l -20.445455870767407 13.677131510595053" fill="#d0ff1d" stroke="none" /><path d="M 117.65298651832404 88.62581576622439 l 4.93839372729915 -3.181909192244436 a26.874715202758107,26.874715202758107 0 0,0 0.2472120636153401,0.39103011653397735 l -4.992433387160446 3.0964314279962526" fill="#ff3905" stroke="none" /><line stroke="#e1ed5e" stroke-width="0.3" x1="172.23445277983987" x2="176.4835382374775" y1="55.19839476539836" y2="52.563006222186495" /><path d="M 173.08426987136738 54.67131705675599 a86.0,86.0 0 0,1 12.851231095245387,41.99856678651699" fill="none" id="id111" stroke="none" /><text fill="#e1ed5e" style="font-size:6.75px; font-family:Arial;" text-anchor="middle"><textPath startOffset="22.20632615414155" xlink:href="#id111">March</textPath></text><path d="M 118.21658344932153 89.55222093294921 l 9.001855791007614 -5.162845204181365 a31.377301107919912,31.377301107919912 0 0,0 0.26467852991116614,0.47083357108794405 l -9.089391962211213 5.007128123158627" fill="#ff780b" stroke="none" /><path d="M 119.34039704204932 91.81776055985345 l 22.50448366235434 -9.520852824370866 a45.43559746379253,45.43559746379253 0 0,0 0.29852986158913625,0.7229137390143091 l -22.665035210829675 9.132064514903254" fill="#d2ff1c" stroke="none" /><path d="M 119.47837535516314 92.15188598940014 l 15.572417004986539 -6.274347929297037 a37.78891340483558,37.78891340483558 0 0,0 0.23790181405148272,0.6054341675697126 l -15.678112368919722 6.00536475683154" fill="#ffcd13" stroke="none" /><path d="M 119.61058180528143 92.48833698450437 l 13.067786454815655 -5.005502089723691 a34.9936447717845,34.9936447717845 0 0,0 0.21062076813131678,0.5643589445341832 l -13.152011811448597 4.779820008160174" fill="#ffa90f" stroke="none" /><path d="M 119.85752413597 93.16781622104841 l 11.89609209844717 -4.0929718584957255 a33.580517709902686,33.580517709902686 0 0,0 0.1833539541505926,0.5482049851784867 l -11.964783346369531 3.887593770394925" fill="#ff960d" stroke="none" /><path d="M 119.97218684219823 93.5106431181261 l 7.807052591917294 -2.5366651566400917 a29.20882088304249,29.20882088304249 0 0,0 0.1512523379346463,0.4795112446814015 l -7.849560413620147 2.401903745532271" fill="#ff5a08" stroke="none" /><path d="M 120.6074358757038 95.95851677861258 l 19.070641908032417 -3.7400907011080875 a40.43393066872776,40.43393066872776 0 0,0 0.1280682679956841,0.6841458086170378 l -19.132195899937958 3.411266815028487" fill="#ffef16" stroke="none" /><path d="M 120.78858239683441 97.02765380044208 l 17.689111675755452 -2.5291846677815593 a38.869008001595645,38.869008001595645 0 0,0 0.08899892463665227,0.6631453632911197 l -17.730026599449943 2.224320962425775" fill="#ffdb14" stroke="none" /><path d="M 120.87857604477298 97.74499172005257 l 21.507986170047612 -2.322988253338975 a42.633070598417376,42.633070598417376 0 0,0 0.07252265822704457,0.7302932712121928 l -21.544785953956886 1.9524194514223474" fill="#f4ff19" stroke="none" /><path d="M 120.91429891909075 98.10471618934814 l 11.06396637785339 -1.0026325261326863 a32.109303488190854,32.109303488190854 0 0,0 0.0451449409373968,0.5508826273784385 l -11.07958580261028 0.8120359815464789" fill="#ff820c" stroke="none" /><path d="M 120.96714384426684 98.82574320788733 l 52.43994770781107 -2.9368790156303466 a73.52212270986779,73.52212270986779 0 0,0 0.059890392122854484,1.2641915203825798 l -52.48273170816742 2.033776388624767" fill="#40ffc5" stroke="none" /><line stroke="#e1ed5e" stroke-width="0.3" x1="184.98032266829074" x2="189.97916517819016" y1="98.17113171792111" y2="98.06355123074" /><path d="M 185.9800911702706 98.14961562048488 a86.0,86.0 0 0,1 -9.607161424134198,41.387399972396054" fill="none" id="id112" stroke="none" /><text fill="#e1ed5e" style="font-size:6.75px; font-family:Arial;" text-anchor="middle"><textPath startOffset="21.466115282336823" xlink:href="#id112">April</textPath></text><path d="M 120.99513854157772 99.54816195383933 l 19.482118360472132 -0.4192762185223997 a40.48662947661457,40.48662947661457 0 0,0 0.008997657695002282,0.6968785042446034 l -19.48644902528485 0.08386145621733358" fill="#fff016" stroke="none" /><path d="M 120.99980553446 99.90962569577887 l 17.30601550567604 -0.07447779016805924 a38.30617576542917,38.30617576542917 0 0,0 -0.0028377629270024828,0.6593961650222074 l -17.304733445459533 -0.22342785305783294" fill="#ffd413" stroke="none" /><path d="M 120.9904718944345 100.63252640178507 l 3.161993208915419 0.09528343130934555 a24.163428517527986,24.163428517527986 0 0,0 -0.016106498202276425,0.41563715098484433 l -3.1598845778619395 -0.14969782930819606" fill="#ff1202" stroke="none" /><path d="M 120.9764740272857 100.99374915477107 l 2.5746728882918504 0.12197374083098338 a23.577560489136463,23.577560489136463 0 0,0 -0.022694692126450356,0.40522897334960767 l -2.5721918452778705 -0.16627443051601434" fill="#ff0901" stroke="none" /><path d="M 120.95626037817324 101.35467743843564 l 36.36907953934577 2.3510097039993805 a57.44498858783685,57.44498858783685 0 0,0 -0.07228068028469041,0.986212455216745 l -36.32322230039674 -2.976695295712896" fill="#4eff2c" stroke="none" /><path d="M 120.92983693683757 101.71520430193887 l 19.475747775695293 1.596041405824556 a40.54103629779154,40.54103629779154 0 0,0 -0.06298417507434248,0.69502512355871 l -19.445389004343877 -1.9310479179318365" fill="#fff016" stroke="none" /><path d="M 120.89721153311464 102.0752229133903 l 17.231979535665232 1.7112426085565546 a38.31673958870216,38.31673958870216 0 0,0 -0.07082703070556903,0.6557703400743896 l -17.19997020345861 -2.0076092705157356" fill="#ffd413" stroke="none" /><path d="M 120.8583938346157 102.4346265915055 l 17.2422760205441 2.012547276196728 a38.359332616997605,38.359332616997605 0 0,0 -0.08219581305062114,0.6551815031953087 l -17.20507869824663 -2.3090465336794312" fill="#ffd513" stroke="none" /><path d="M 120.70491114924044 103.5080841355445 l 16.912706358861413 2.8655615297736197 a38.153748256925944,38.153748256925944 0 0,0 -0.11528528880937755,0.646581123518338 l -16.86087462771285 -3.156261404025176" fill="#ffd213" stroke="none" /><path d="M 120.64145759157962 103.86396538481128 l 18.34788693181157 3.4346217884279624 a39.66658998564242,39.66658998564242 0 0,0 -0.13140987256799969,0.670056109115751 l -18.286047126267903 -3.749941624611658" fill="#ffe515" stroke="none" /><path d="M 120.5718875245553 104.21870165774334 l 19.142391038227956 3.925553098117533 a40.54075489295565,40.54075489295565 0 0,0 -0.14607405665772508,0.6824093621474356 l -19.071982942845786 -4.254476279681138" fill="#fff016" stroke="none" /><path d="M 120.49622156327973 104.57218783832717 l 14.750695599909788 3.2905065365609563 a36.11325424745936,36.11325424745936 0 0,0 -0.14056556974254225,0.6055527955081192 l -14.691869464236692 -3.5439279894176408" fill="#ffb811" stroke="none" /><path d="M 120.41448212921028 104.9243191809786 l 15.992667747587326 3.8577025880944356 a37.451361370503975,37.451361370503975 0 0,0 -0.15656218059891772,0.625388086157311 l -15.923894252693348 -4.132418513649142" fill="#ffc912" stroke="none" /><path d="M 120.32669344350535 105.2749913415812 l 14.826744832719266 3.8476966671338997 a36.317869694472556,36.317869694472556 0 0,0 -0.1622404390098639,0.6037570284804453 l -14.758316317367624 -4.1023446287898935" fill="#ffba11" stroke="none" /><path d="M 120.02730092923936 106.31721596034902 l 50.02242031734523 15.778583101163907 a73.45194199536837,73.45194199536837 0 0,0 -0.390721480894657,1.2025170693702298 l -49.74340658543433 -16.637299070511933" fill="#40ffc4" stroke="none" /><path d="M 119.79798401119884 107.00284435728193 l 12.254782850529978 4.334700790040316 a33.998820471597405,33.998820471597405 0 0,0 -0.19990616584195786,0.5500559121151556 l -12.178352423682792 -4.545004499161602" fill="#ff9c0e" stroke="none" /><path d="M 119.67450827220406 107.3425965602758 l 14.321783881828607 5.344940753426385 a36.286657097463916,36.286657097463916 0 0,0 -0.22343201605385538,0.5833104892624121 l -14.227657586181245 -5.59067480952194" fill="#ffba11" stroke="none" /><path d="M 119.54520255179757 107.68017299344265 l 12.926291269877614 5.079310529179301 a34.88842688880011,34.88842688880011 0 0,0 -0.22444453644519,0.5570529328944981 l -12.836944119175032 -5.301062829916613" fill="#ffa80f" stroke="none" /><path d="M 119.26925614724726 108.34839909993367 l 25.213596540686463 10.92378268563459 a48.4782546512599,48.4782546512599 0 0,0 -0.33832954360998935,0.7628438044495207 l -25.021825912345204 -11.3561748265768" fill="#afff20" stroke="none" /><path d="M 119.12269723197855 108.67885076344098 l 22.326006454647747 10.132675103984795 a45.51778270920693,45.51778270920693 0 0,0 -0.32995056731001543,0.7106841682053131 l -22.1482812704979 -10.515479339468937" fill="#d1ff1c" stroke="none" /><path d="M 118.97047184881838 109.00673069616215 l 22.041883198566204 10.464964055077667 a45.4000017953545,45.4000017953545 0 0,0 -0.34124963967061106,0.7030753325259812 l -21.858480302280878 -10.842828343568923" fill="#d3ff1c" stroke="none" /><path d="M 118.81262510543309 109.33194174019688 l 15.847438243647495 7.8610704031079885 a38.69004597983967,38.69004597983967 0 0,0 -0.3010847038121815,0.5940686845346859 l -15.709774870049044 -8.13269329934537" fill="#ffd914" stroke="none" /><path d="M 118.64920377521936 109.65438752849418 l 17.438832627592888 9.027798197746376 a40.6370574097147,40.6370574097147 0 0,0 -0.3269299486901106,0.6184282561536936 l -17.280850170677883 -9.326641468986203" fill="#fff216" stroke="none" /><line stroke="#e1ed5e" stroke-width="0.3" x1="174.80103733775053" x2="179.2010983576182" y1="140.37084112569926" y2="142.7455964860345" /><path d="M 175.68104954172406 140.8457921977663 a86.0,86.0 0 0,1 -30.038265399797805,32.042727171017184" fill="none" id="id113" stroke="none" /><text fill="#e1ed5e" style="font-size:6.75px; font-family:Arial;" text-anchor="middle"><textPath startOffset="22.206326154141568" xlink:href="#id113">May</textPath></text><path d="M 118.48025628344425 109.97397251340804 l 22.75457389021847 12.28086294120663 a46.85711173944442,46.85711173944442 0 0,0 -0.3891897939202723,0.7064925237826862 l -22.539807686846686 -12.670725983387122" fill="#c1ff1e" stroke="none" /><path d="M 118.30583269289576 110.29060199501025 l 6.1204915162448765 3.44062699928181 a28.021276988455337,28.021276988455337 0 0,0 -0.23997955864928353,0.41842458844222247 l -6.060359961443213 -3.545471433582348" fill="#ff4906" stroke="none" /><path d="M 118.12598468904814 110.60418214915192 l 13.490307170471416 7.892187759053078 a36.62929989403939,36.62929989403939 0 0,0 -0.32306889762671404,0.5414820553106446 l -13.352457397146473 -8.123231908249828" fill="#ffbe11" stroke="none" /><path d="M 117.75023020441432 111.22182372390056 l 12.800366754447083 8.09248430389141 a36.143899473289004,36.143899473289004 0 0,0 -0.3369904635932752,0.5230166830734715 l -12.659171427476757 -8.311622586886335" fill="#ffb811" stroke="none" /><path d="M 117.35343817320211 111.8261652097733 l 12.515307068954176 8.529035432128708 a36.14520902571903,36.14520902571903 0 0,0 -0.3548066951903185,0.5111255071554225 l -12.36663946660172 -8.743202201471151" fill="#ffb811" stroke="none" /><path d="M 117.14729908036423 112.12312394758627 l 20.018241530511062 14.152877496900212 a45.5159934617413,45.5159934617413 0 0,0 -0.4578046471057001,0.6358506141038539 l -19.77165709102976 -14.495361716455196" fill="#d1ff1c" stroke="none" /><path d="M 116.71984013943494 112.70617746262583 l 12.205808071254026 9.275756355009369 a36.3304079081343,36.3304079081343 0 0,0 -0.38266850271267056,0.49465062398940507 l -12.044332751323287 -9.484484973112027" fill="#ffbb11" stroke="none" /><path d="M 116.498646956653 112.99209946851258 l 13.338180151288327 10.503343923278464 a37.97725782683683,37.97725782683683 0 0,0 -0.40885608304392435,0.5101108280939627 l -13.155406156189548 -10.731382584950676" fill="#ffd013" stroke="none" /><path d="M 116.27256486870786 113.27417163493432 l 16.853674363170033 13.748205521443166 a42.74993091022625,42.74993091022625 0 0,0 -0.470053811973614,0.5662100972306426 l -16.614524551302875 -14.03627687578758" fill="#f2ff19" stroke="none" /><path d="M 116.0416608686014 113.55231037782055 l 14.894375568949775 12.58306120841424 a40.498098701248466,40.498098701248466 0 0,0 -0.4544609670043389,0.5286407759251898 l -14.675572092374656 -12.837579083500957" fill="#fff016" stroke="none" /><path d="M 115.80600337817218 113.82643327865902 l 18.434460053104665 16.125697676640108 a45.49219147009732,45.49219147009732 0 0,0 -0.5206497919019639,0.5849555605724047 l -18.154151411554363 -16.44062740695338" fill="#d2ff1c" stroke="none" /><path d="M 115.56566222782051 114.09645910891815 l 8.296700412629242 7.5135960419686105 a32.193273123568844,32.193273123568844 0 0,0 -0.37551704238061767,0.40754958398755664 l -8.166136962252903 -7.655296880757502" fill="#ff830c" stroke="none" /><path d="M 115.32070863581623 114.36230785411682 l 7.072528909504446 6.630100468589211 a30.69427137021463,30.69427137021463 0 0,0 -0.36466760081260785,0.382352521530164 l -6.957354757312874 -6.750860106701881" fill="#ff6f0a" stroke="none" /><path d="M 115.07121518719521 114.62390073753431 l 18.64164784453471 18.088362768130597 a46.974986082597596,46.974986082597596 0 0,0 -0.5680827668362571,0.5754648435654386 l -18.327524452642916 -18.4065681056767" fill="#c0ff1e" stroke="none" /><path d="M 114.55890576462653 115.13401014063108 l 16.566351950381634 17.220754256099173 a44.895572688112566,44.895572688112566 0 0,0 -0.5615456256985683,0.5309764390087126 l -16.267470490292258 -17.503365331853807" fill="#d9ff1c" stroke="none" /><path d="M 114.29624159901734 115.38237550388516 l 16.642896801557892 17.907314051797332 a45.44704298063478,45.44704298063478 0 0,0 -0.57761124985382,0.5276341817109153 l -16.332186002237208 -18.19114100009483" fill="#d2ff1c" stroke="none" /><path d="M 114.0293411484842 115.62618273729858 l 11.306426304568419 12.593341459949778 a37.9241698439695,37.9241698439695 0 0,0 -0.4895064878989197,0.4319325616273682 l -11.087977463762911 -12.786097163349435" fill="#ffcf13" stroke="none" /><path d="M 113.20401910651253 116.32954008644616 l 14.12696638777171 17.470958052099117 a43.467878283884275,43.467878283884275 0 0,0 -0.5858693931298863,0.4654500788666018 l -13.824139501924472 -17.711542044970845" fill="#eaff1a" stroke="none" /><path d="M 112.92097659922987 116.55440617244103 l 15.768035417543796 20.202069157761176 a46.62722261939208,46.62722261939208 0 0,0 -0.6369528876019969,0.48838831314872166 l -15.417953801448306 -20.47049681273727" fill="#c4ff1e" stroke="none" /><path d="M 112.63410532772338 116.77436683061366 l 13.575081297285784 18.023705480466166 a43.56405972945703,43.56405972945703 0 0,0 -0.6028747860458851,0.4459923540161776 l -13.262821540821335 -18.254707783222113" fill="#e9ff1a" stroke="none" /><path d="M 112.34349029814194 116.9893568818739 l 14.395019779762237 19.81304496968967 a45.490270423796694,45.490270423796694 0 0,0 -0.6374544492613098,0.45480682408258644 l -14.051838002652042 -20.057896055616474" fill="#d2ff1c" stroke="none" /><line stroke="#e1ed5e" stroke-width="0.3" x1="143.8653032363475" x2="146.44561519142675" y1="172.8068346515853" y2="177.08958963109032" /><path d="M 144.38136562736335 173.6633856474863 a86.0,86.0 0 0,1 -40.68145358897372,12.25698825130547" fill="none" id="id114" stroke="none" /><text fill="#e1ed5e" style="font-size:6.75px; font-family:Arial;" text-anchor="middle"><textPath startOffset="21.466115282336833" xlink:href="#id114">June</textPath></text><path d="M 110.8373102113329 117.98757091392108 l 4.280459503070433 7.10462904117395 a29.294461246525795,29.294461246525795 0 0,0 -0.43416083527775134,0.2565098741855519 l -4.157530796764299 -7.177257487653251" fill="#ff5b08" stroke="none" /><path d="M 110.5260780823613 118.17145234162733 l 6.900048952817223 11.911740509613113 a34.76590852503503,34.76590852503503 0 0,0 -0.5204145816166457,0.29550498142820436 l -6.693985604279378 -12.028748656835946" fill="#ffa60f" stroke="none" /><path d="M 110.21172684928248 118.3499491758327 l 11.929141600180653 21.436055361195557 a45.531793427415806,45.531793427415806 0 0,0 -0.6881310746938463,0.3752239283217783 l -11.558387713618158 -21.638219941277104" fill="#d1ff1c" stroke="none" /><path d="M 109.89434966115114 118.52300852407294 l 11.546880674033241 21.616677849111596 a45.50737061646219,45.50737061646219 0 0,0 -0.6941154671691084,0.36312840649993766 l -11.173074304337636 -21.812235674556252" fill="#d1ff1c" stroke="none" /><path d="M 109.57404056367764 118.69057910512821 l 11.209560187775258 21.883463938743738 a45.58739989428841,45.58739989428841 0 0,0 -0.7014947683210779,0.35174403962869544 l -10.83121151177142 -22.073175819281737" fill="#d0ff1d" stroke="none" /><path d="M 109.2508944713604 118.85261126421891 l 7.686055823146198 15.66359048170535 a38.44773684163909,38.44773684163909 0 0,0 -0.596649065750044,0.2864278098640356 l -7.415294089395921 -15.793572568068948" fill="#ffd614" stroke="none" /><path d="M 108.92500713936063 119.00905698771935 l 7.151784010772421 15.232331773167873 a37.827713623205014,37.827713623205014 0 0,0 -0.5917911701032207,0.27166230067043784 l -6.888524844901782 -15.353181144172385" fill="#ffce13" stroke="none" /><path d="M 108.59647513512805 119.15986991738527 l 6.957675496458777 15.507304487485555 a37.996639102528846,37.996639102528846 0 0,0 -0.5990429352065744,0.26260281854547235 l -6.6897118865944485 -15.624771859325483" fill="#ffd013" stroke="none" /><path d="M 108.2653958097858 119.30500536409082 l 4.293688754431199 10.028519667248556 a31.909031571882082,31.909031571882082 0 0,0 -0.506789177572346,0.2118379173270599 l -4.120428117361391 -10.10094262759559" fill="#ff800b" stroke="none" /><path d="M 107.59598834532513 119.57807347666477 l 10.221809275468695 26.3459241854608 a49.259389697056555,49.259389697056555 0 0,0 -0.7931460268452061,0.29989996054514656 l -9.766793027863216 -26.51797239611258" fill="#a6ff21" stroke="none" /><path d="M 107.2578585660854 119.70592522655815 l 8.069431448523474 21.909439443817515 a44.348217504656034,44.348217504656034 0 0,0 -0.7186109970367829,0.2576683365827508 l -7.691100890856957 -22.045095321440225" fill="#dfff1b" stroke="none" /><path d="M 106.91757812671514 119.82793768551818 l 8.077583014032866 23.152873696259622 a45.521478498319446,45.521478498319446 0 0,0 -0.7420657091153322,0.2517489783226731 l -7.6778475719803065 -23.28848566148042" fill="#d1ff1c" stroke="none" /><path d="M 106.2309692047433 120.05430185196036 l 5.121534279757041 16.483598460609198 a38.26091340541758,38.26091340541758 0 0,0 -0.6306218871614143,0.1900012015315128 l -4.837037418155381 -16.569315031246436" fill="#ffd413" stroke="none" /><path d="M 105.88484417918355 120.15858648285463 l 6.875346470035334 23.551560958241925 a45.53459623985715,45.53459623985715 0 0,0 -0.7542888954660724,0.2131695762468424 l -6.468926406464655 -23.666419327827285" fill="#d1ff1c" stroke="none" /><path d="M 105.53697534728816 120.25689768951611 l 7.470038250149491 27.328964114706064 a49.33149750792549,49.33149750792549 0 0,0 -0.821039516640036,0.21684399865667675 l -6.998508290697957 -27.453499462666326" fill="#a5ff21" stroke="none" /><path d="M 105.18746579009965 120.34920634021253 l 4.816589207035655 18.894344868176233 a40.49861019629117,40.49861019629117 0 0,0 -0.6769954324701482,0.16638900608412374 l -4.490640489822296 -18.974455132574384" fill="#fff016" stroke="none" /><path d="M 104.83641907484287 120.43548508189849 l 4.005885412254171 16.926203109182513 a38.393776750016386,38.393776750016386 0 0,0 -0.644430128242361,0.14667019910359383 l -3.713935134618948 -16.992650041863794" fill="#ffd513" stroke="none" /><path d="M 104.48393922423573 120.51570834832081 l 3.2666619816436353 14.946207148775866 a36.29902574141356,36.29902574141356 0 0,0 -0.611566916624139,0.12815979353234022 l -3.0089036035901184 -15.000222923034746" fill="#ffba11" stroke="none" /><path d="M 104.13013068566511 120.58985236759428 l 3.3231841322610483 16.5669989356688 a37.89701176277518,37.89701176277518 0 0,0 -0.6406984041305833,0.12279137402668008 l -3.0375181135587606 -16.62174750804395" fill="#ffcf13" stroke="none" /><path d="M 103.7750983002368 120.6578951692458 l 2.2513946487901353 12.319963863295982 a33.52398848041309,33.52398848041309 0 0,0 -0.568552522745632,0.09885014382631392 l -2.0389931545724536 -12.356892585643303" fill="#ff950d" stroke="none" /><path d="M 103.41894727170886 120.7198165907248 l 3.5456806678432278 21.487857895588586 a42.77842713189651,42.77842713189651 0 0,0 -0.7275676182261808,0.11363109878312774 l -3.17527718600853 -21.54570730171882" fill="#f2ff19" stroke="none" /><path d="M 103.06178313531738 120.77559828337769 l 2.5065799633703043 17.00829094766928 a38.19200116546466,38.19200116546466 0 0,0 -0.651212555367245,0.09025212631158155 l -2.213438816816229 -17.048917639473462" fill="#ffd313" stroke="none" /><path d="M 102.34483914955558 120.86867818915974 l 3.1463979584112893 28.002418187856943 a49.17863099017261,49.17863099017261 0 0,0 -0.8420491736965526,0.08728183978499736 l -2.663916188109134 -28.052429396097697" fill="#a7ff21" stroke="none" /><path d="M 101.98527174616119 120.90594882070398 l 0.6246793947148993 6.5782004305005 a27.60779428024347,27.60779428024347 0 0,0 -0.47348114212629766,0.040853945247400256 l -0.5113539348470599 -6.587978628026564" fill="#ff4406" stroke="none" /><path d="M 101.62511606390274 120.93702456842531 l 3.5782879463108945 46.10052433110122 a67.23918779811308,67.23918779811308 0 0,0 -1.1547121454751683,0.07963571018664148 l -2.784213040056796 -46.15528838580415" fill="#38ff7f" stroke="none" /><path d="M 100.90346689309514 120.98055641714683 l 0.9350786485511844 21.714653287612556 a42.734777189568774,42.734777189568774 0 0,0 -0.7352002511575951,0.025321783180274934 l -0.5611580457189369 -21.727531869218925" fill="#f3ff19" stroke="none" /><line stroke="#e1ed5e" stroke-width="0.3" x1="102.19456741930631" x2="102.32365962044197" y1="184.97166512339345" y2="189.96999836594603" /><path d="M 102.22038585953345 185.97133177190398 a86.0,86.0 0 0,1 -42.740103519485714,-10.115201625700543" fill="none" id="id115" stroke="none" /><text fill="#e1ed5e" style="font-size:6.75px; font-family:Arial;" text-anchor="middle"><textPath startOffset="22.20632615414155" xlink:href="#id115">July</textPath></text><path d="M 100.54218724476979 120.99299961872073 l 0.5838289456673869 22.605328605613817 a43.612866638389335,43.612866638389335 0 0,0 -0.7506403829737694,0.012922954932302728 l -0.19462887280094945 -22.61202903782528" fill="#e8ff1a" stroke="none" /><path d="M 100.18074693466247 120.99922214144158 l 0.1816122629005077 21.099756183304606 a42.100537765870726,42.100537765870726 0 0,0 -0.7247183951259117,0.0 l 0.18161226290049318 -21.099756183304606" fill="#faff18" stroke="none" /><path d="M 99.81925306533755 120.99922214144158 l -0.1874702544406149 21.780339042889103 a42.78114583577961,42.78114583577961 0 0,0 -0.7363252675062467,-0.012676507237462987 l 0.5623552118395295 -21.773885058372482" fill="#f2ff19" stroke="none" /><path d="M 99.09653310690486 120.98055641714683 l -0.722183884394591 16.77075258196477 a37.78629475877143,37.78629475877143 0 0,0 -0.6495858694457779,-0.03357616961614632 l 1.0107578222538578 -16.755836605586424" fill="#ffcd13" stroke="none" /><path d="M 96.58105272829116 120.7198165907248 l -2.703658807350382 16.38496009451421 a37.60652547179531,37.60652547179531 0 0,0 -0.6377906060067834,-0.11088807209997878 l 2.9852983848292154 -16.335993443893226" fill="#ffcb12" stroke="none" /><path d="M 96.22490169976321 120.6578951692458 l -1.776050024978403 9.71880791264134 a30.87975611713395,30.87975611713395 0 0,0 -0.522062546462398,-0.10005452954884873 l 1.943080186012496 -9.686796184744024" fill="#ff710a" stroke="none" /><path d="M 95.86986931433489 120.58985236759428 l -2.9875297404522816 14.89366825926573 a36.190348520265964,36.190348520265964 0 0,0 -0.6097359200150693,-0.12777609039046625 l 3.243457121896738 -14.840036188148723" fill="#ffb911" stroke="none" /><path d="M 95.51606077576429 120.51570834832081 l -4.180491408179022 19.127320463956682 a40.57883797738657,40.57883797738657 0 0,0 -0.681105845146688,-0.1550174728651317 l 4.509117402718573 -19.05252625751386" fill="#fff116" stroke="none" /><path d="M 95.16358092515715 120.4354850818985 l -4.016612208853793 16.97152740562916 a38.440353096091116,38.440353096091116 0 0,0 -0.6425885565568544,-0.15793263309976782 l 4.308154050153858 -16.89987351421536" fill="#ffd614" stroke="none" /><path d="M 94.11515582081647 120.15858648285463 l -5.222282068337273 17.888974033471108 a39.63565458929416,39.63565458929416 0 0,0 -0.6532805694189061,-0.19682807662369028 l 5.529437612196425 -17.796430587741693" fill="#ffe515" stroke="none" /><path d="M 93.76903079525671 120.05430185196036 l -4.168791530236495 13.417207011971216 a35.04992052734325,35.04992052734325 0 0,0 -0.574616166372532,-0.18397395069202677 l 4.399129041699967 -13.343460214619483" fill="#ffaa0f" stroke="none" /><path d="M 93.08242187328487 119.8279376855182 l -3.9966115280320254 11.455535865219442 a33.13269160843246,33.13269160843246 0 0,0 -0.5368765170493889,-0.1925048178623619 l 4.193207605711141 -11.385043506317121" fill="#ff900d" stroke="none" /><path d="M 92.7421414339146 119.70592522655815 l -4.974471413838441 13.50626508221184 a35.39321236965781,35.39321236965781 0 0,0 -0.5698809088160389,-0.21548019694325266 l 5.206222543414763 -13.418636635161954" fill="#ffae10" stroke="none" /><path d="M 92.40401165467489 119.57807347666478 l -5.522124959683579 14.232850722387768 a36.26656162192831,36.26656162192831 0 0,0 -0.5800558901540441,-0.23081620968155042 l 5.766301925879481 -14.135687668300152" fill="#ffba11" stroke="none" /><path d="M 92.06813273071674 119.44442032107085 l -3.626378040225245 8.88981326380825 a30.601010236220404,30.601010236220404 0 0,0 -0.48601477533284804,-0.20315421550609655 l 3.778864275055555 -8.82607400528218" fill="#ff6e0a" stroke="none" /><path d="M 91.7346041902142 119.30500536409082 l -13.275854541240452 31.007643073560004 a54.730138493304004,54.730138493304004 0 0,0 -0.8628579680119697,-0.3782515761181987 l 13.807633183910164 -30.774526944147354" fill="#6aff28" stroke="none" /><path d="M 91.40352486487194 119.15986991738527 l -6.148690993670109 13.704235485951049 a36.020401831843245,36.020401831843245 0 0,0 -0.5635168955751608,-0.2586829680001978 l 6.38367588501269 -13.596365447616778" fill="#ffb710" stroke="none" /><path d="M 90.7491055286396 118.85261126421891 l -8.643708357448542 17.61521267470409 a40.62165670231954,40.62165670231954 0 0,0 -0.6250823631812839,-0.31342927339609306 l 8.945644628312587 -17.463815560398693" fill="#fff116" stroke="none" /><path d="M 90.42595943632237 118.69057910512821 l -4.928449150228971 9.621389014939853 a31.810214503107602,31.810214503107602 0 0,0 -0.48519529037757025,-0.25383124417994946 l 5.093335343133037 -9.535128351815187" fill="#ff7e0b" stroke="none" /><path d="M 90.10565033884886 118.52300852407294 l -9.226536228041763 17.272808729482673 a40.582617092019646,40.582617092019646 0 0,0 -0.6133331856988973,-0.3344381554203765 l 9.5224922256093 -17.11142992230253" fill="#fff116" stroke="none" /><line stroke="#e1ed5e" stroke-width="0.3" x1="58.666819895761336" x2="56.23545636021788" y1="174.27360380694188" y2="178.64263932499728" /><path d="M 58.180547188652646 175.14741091055294 a86.0,86.0 0 0,1 -31.652253787137756,-30.449443065178592" fill="none" id="id116" stroke="none" /><text fill="#e1ed5e" style="font-size:6.75px; font-family:Arial;" text-anchor="middle"><textPath startOffset="22.20632615414155" xlink:href="#id116">August</textPath></text><path d="M 89.4739219176387 118.17145234162733 l -12.37202458719582 21.358159553499874 a45.682746441572014,45.682746441572014 0 0,0 -0.677044687251479,-0.40000993510566174 l 12.737837145475682 -21.142031046100463" fill="#cfff1d" stroke="none" /><path d="M 89.1626897886671 117.98757091392108 l -11.400261760465018 18.92194768395451 a43.0908594753901,43.0908594753901 0 0,0 -0.6320419529149578,-0.3882517898581652 l 11.724282913312283 -18.72290742726797" fill="#eeff19" stroke="none" /><path d="M 88.8546689885994 117.79835938074946 l -12.991843263474665 20.747117800733008 a45.47919296913574,45.47919296913574 0 0,0 -0.6599208440912033,-0.4211927057730854 l 13.347045909612792 -20.52041066613612" fill="#d2ff1c" stroke="none" /><path d="M 88.54995079064634 117.60387380957326 l -10.677967959813008 16.416837785610294 a40.58396187266088,40.58396187266088 0 0,0 -0.5823321208383545,-0.38593797609166003 l 10.958974779391324 -16.230601788427315" fill="#fff116" stroke="none" /><path d="M 88.24862548938628 117.40417183066458 l -5.431321783538932 8.043966048649615 a30.705907794130965,30.705907794130965 0 0,0 -0.4355020589469639,-0.2995422872635075 l 5.568980727108786 -7.949282972021007" fill="#ff6f0a" stroke="none" /><path d="M 87.95078237400918 117.19931262002967 l -9.965739499673202 14.225311091977462 a38.3688065058853,38.3688065058853 0 0,0 -0.5376614865588515,-0.38360719486187955 l 10.209128314080939 -14.051659635271363" fill="#ffd513" stroke="none" /><path d="M 87.65650970185807 116.9893568818739 l -14.405229671074707 19.827097679502142 a45.50764052839298,45.50764052839298 0 0,0 -0.6297716332542985,-0.4658899985681656 l 14.74438627474757 -19.57619773219421" fill="#d1ff1c" stroke="none" /><path d="M 87.36589467227662 116.77436683061367 l -10.863023305124857 14.422892091125634 a39.05616491949329,39.05616491949329 0 0,0 -0.533528175743958,-0.40908665435193586 l 11.1096802093623 -14.233766094946333" fill="#ffde14" stroke="none" /><path d="M 87.07902340077011 116.55440617244103 l -9.495213711244746 12.165305250954907 a36.43223040493892,36.43223040493892 0 0,0 -0.49104142093870534,-0.39011300262961374 l 9.70321262490081 -12.000058334320162" fill="#ffbc11" stroke="none" /><path d="M 86.79598089348748 116.32954008644616 l -8.19194721340712 10.131061559991513 a34.02867635178595,34.02867635178595 0 0,0 -0.45230571694611427,-0.3722168122302122 l 8.365123058897924 -9.98854962890412" fill="#ff9c0e" stroke="none" /><path d="M 86.51685102203217 116.09983520530335 l -15.739425444527319 18.793989171010452 a45.51414983808111,45.51414983808111 0 0,0 -0.5963101868905183,-0.5081884779413344 l 16.060601107994895 -18.520276302846167" fill="#d1ff1c" stroke="none" /><path d="M 86.24171649860922 115.8653595955263 l -16.065546535464026 18.52597912072628 a45.521698307106426,45.521698307106426 0 0,0 -0.5875716397533541,-0.5184636562992111 l 16.38206052812397 -18.246692322654777" fill="#d1ff1c" stroke="none" /><path d="M 85.97065885151581 115.62618273729859 l -16.376336057337706 18.24031628363529 a45.5131295592772,45.5131295592772 0 0,0 -0.5784511802164048,-0.5284014381825765 l 16.687886787020965 -17.95572207886614" fill="#d1ff1c" stroke="none" /><path d="M 85.44109423537348 115.13401014063109 l -39.6268634782983 41.19219970357125 a78.1584256741435,78.1584256741435 0 0,0 -0.9615349045308533,-0.9410642803543415 l 40.33004833520495 -40.50398532029434" fill="#46fff4" stroke="none" /><path d="M 84.9287848128048 114.62390073753433 l -14.636993659359092 14.20256692720092 a41.3949623854946,41.3949623854946 0 0,0 -0.491798662909304,-0.5156489318752611 l 14.879298873647352 -13.948510878743159" fill="#fffb17" stroke="none" /><path d="M 84.67929136418377 114.36230785411682 l -17.899972003952463 16.780223070089157 a45.535380250247485,45.535380250247485 0 0,0 -0.5311454740751649,-0.5764535096034262 l 18.18616388602336 -16.469618305684385" fill="#d1ff1c" stroke="none" /><path d="M 84.43433777217949 114.09645910891817 l -19.5887965441987 17.739860048143836 a47.42770486776596,47.42770486776596 0 0,0 -0.5428013879265703,-0.6098431135335125 l 19.89125678177361 -17.400042764869458" fill="#bbff1f" stroke="none" /><path d="M 83.28015986056508 112.70617746262583 l -7.726993815812088 5.872098887163102 a30.705049137960117,30.705049137960117 0 0,0 -0.3161724253170317,-0.42356463187147003 l 7.826927507824205 -5.738221375782325" fill="#ff6f0a" stroke="none" /><path d="M 83.06392112726016 112.41649034213515 l -7.824061985444756 5.7361205511925855 a30.701496015043023,30.701496015043023 0 0,0 -0.3087988744131832,-0.4288946282471153 l 7.921640652233546 -5.600592317494332" fill="#ff6f0a" stroke="none" /><path d="M 82.85270091963577 112.12312394758628 l -7.936514600274218 5.611108184444684 a30.719711881424672,30.719711881424672 0 0,0 -0.3015492161655952,-0.4344041364898335 l 8.031924723601946 -5.473662785767838" fill="#ff6f0a" stroke="none" /><path d="M 82.6465618267979 111.8261652097733 l -16.126977865297896 10.990346850337026 a40.51581766051633,40.51581766051633 0 0,0 -0.3877882634051843,-0.5796908379882398 l 16.31376923411381 -10.711119098142964" fill="#fff016" stroke="none" /><path d="M 82.44556493220864 111.52570212397912 l -16.353725774933523 10.737353333856856 a40.56361682659451,40.56361682659451 0 0,0 -0.3781980427849639,-0.5869717610792837 l 16.53612868109553 -10.454259972856123" fill="#fff116" stroke="none" /><path d="M 82.24976979558568 111.22182372390057 l -14.360774424034505 9.078985301561742 a37.9899916469661,37.9899916469661 0 0,0 -0.3446874641650491,-0.5557459431119501 l 14.51492652786751 -8.830443027084527" fill="#ffd013" stroke="none" /><path d="M 82.05923443525364 110.91462005526583 l -14.477850602287402 8.807887153454509 a37.94659358603205,37.94659358603205 0 0,0 -0.3346873730590451,-0.5609552884286912 l 14.627318851044679 -8.557369771139706" fill="#ffcf13" stroke="none" /><line stroke="#e1ed5e" stroke-width="0.3" x1="26.63291911575756" x2="22.317208475507996" y1="142.92168965132927" y2="145.44649492493687" /><path d="M 25.769776987707644 143.4266507060508 a86.0,86.0 0 0,1 -11.730757126820373,-40.83630448921669" fill="none" id="id117" stroke="none" /><text fill="#e1ed5e" style="font-size:6.75px; font-family:Arial;" text-anchor="middle"><textPath startOffset="21.46611528233685" xlink:href="#id117">September</textPath></text><path d="M 81.87401531095188 110.60418214915194 l -17.537682315621844 10.26000964577561 a41.31841772715296,41.31841772715296 0 0,0 -0.3538588071605091,-0.6169826571319756 l 17.711693118934733 -9.956607142785327" fill="#fffa17" stroke="none" /><path d="M 81.69416730710424 110.29060199501025 l -8.458963208356648 4.755196069360739 a30.703914066931716,30.703914066931716 0 0,0 -0.25502318740220564,-0.4629411616271616 l 8.539562805210371 -4.608884389335755" fill="#ff6f0a" stroke="none" /><path d="M 81.51974371655577 109.97397251340807 l -8.499236854611885 4.587120084951802 a30.658089758568263,30.658089758568263 0 0,0 -0.24664796987268647,-0.46656500728477274 l 8.576937332709457 -4.440140062580903" fill="#ff6e0a" stroke="none" /><path d="M 81.35079622478065 109.6543875284942 l -17.30102452645392 8.956457199546273 a40.48187812384279,40.48187812384279 0 0,0 -0.31502868440707704,-0.6215814811142057 l 17.452631880647264 -8.657321506729383" fill="#fff016" stroke="none" /><path d="M 81.18737489456691 109.33194174019688 l -19.561250016339894 9.703294702087607 a42.83566876185199,42.83566876185199 0 0,0 -0.32197480070423573,-0.6633634552365297 l 19.72537807365885 -9.365142290885792" fill="#f1ff19" stroke="none" /><path d="M 81.02952815118164 109.00673069616217 l -37.52671931399002 17.81679746635445 a62.541460427241674,62.541460427241674 0 0,0 -0.45335227509208004,-0.9764804684365664 l 37.82784620592192 -17.168196930639056" fill="#32ff48" stroke="none" /><path d="M 80.87730276802145 108.67885076344099 l -10.131312488971579 4.5981039213720125 a32.125918048454615,32.125918048454615 0 0,0 -0.2242066524377765,-0.5055268124195788 l 10.208960226140634 -4.4230287724597375" fill="#ff820c" stroke="none" /><path d="M 80.58989483394504 108.01547362559985 l -8.973705555139052 3.705724393853718 a30.70874784272081,30.70874784272081 0 0,0 -0.19755578823717448,-0.4903172649723893 l 9.036163957633615 -3.5507077610385234" fill="#ff6f0a" stroke="none" /><path d="M 80.45479744820244 107.68017299344265 l -18.256177084113354 7.173657977364829 a40.615029199639636,40.615029199639636 0 0,0 -0.2500836004757175,-0.6528893661991186 l 18.376954964182577 -6.858345044332552" fill="#fff116" stroke="none" /><path d="M 80.32549172779594 107.34259656027581 l -14.387168709322218 5.3693426039228145 a36.35644696760292,36.35644696760292 0 0,0 -0.21376853126424472,-0.5881991881082554 l 14.477461501591687 -5.120895618808442" fill="#ffbb11" stroke="none" /><path d="M 80.20201598880116 107.00284435728193 l -14.368201736211494 5.08224879845351 a36.24055359827369,36.24055359827369 0 0,0 -0.2029629235643029,-0.5899052607164453 l 14.453555490719026 -4.834170834647768" fill="#ffb911" stroke="none" /><path d="M 80.0844068197444 106.66101706037122 l -33.15056106762747 11.087616162558643 a55.95561373036854,55.95561373036854 0 0,0 -0.2976512215630344,-0.9160762644246587 l 33.336504540206754 -10.51534099815618" fill="#5dff2a" stroke="none" /><path d="M 79.97269907076064 106.31721596034903 l -14.59845999469512 4.60479546399403 a36.30748756269081,36.30748756269081 0 0,0 -0.1828742924618732,-0.5976437688011526 l 14.675561059663124 -4.35282472264083" fill="#ffba11" stroke="none" /><path d="M 79.86692584326677 105.97154293290107 l -23.487175662187035 6.966381623962426 a45.498528394928385,45.498528394928385 0 0,0 -0.216242292602882,-0.7527677888742734 l 23.603610591676023 -6.5610563595835565" fill="#d1ff1c" stroke="none" /><path d="M 79.67330655649465 105.27499134158121 l -23.760023807926434 6.165976783726291 a45.547056871459816,45.547056871459816 0 0,0 -0.1904055362130324,-0.7605754686764135 l 23.862640658434522 -5.756073475652485" fill="#d1ff1c" stroke="none" /><path d="M 79.58551787078972 104.9243191809786 l -7.99568770460746 1.9286954270848509 a29.225015982967385,29.225015982967385 0 0,0 -0.11375410795801115,-0.4900497198615087 l 8.027702378496027 -1.790777049874768" fill="#ff5a08" stroke="none" /><path d="M 79.50377843672027 104.57218783832718 l -12.005999882280086 2.678234448200151 a33.301096411817745,33.301096411817745 0 0,0 -0.11998854626334603,-0.5605465418984547 l 12.050322467267874 -2.4711740868855325" fill="#ff920d" stroke="none" /><path d="M 79.4281124754447 104.21870165774334 l -25.07536299023772 5.1422347749647574 a46.59719530677219,46.59719530677219 0 0,0 -0.1543700000303858,-0.7871293043909978 l 25.16016292324377 -4.709841743505805" fill="#c5ff1e" stroke="none" /><path d="M 79.35854240842038 103.8639653848113 l -19.15609860798481 3.5859144927575217 a40.488840309987815,40.488840309987815 0 0,0 -0.12234099824900915,-0.6861532890896133 l 19.214986048573007 -3.255642452934695" fill="#fff016" stroke="none" /><path d="M 79.29508885075956 103.50808413554451 l -24.19461264554262 4.099352862501241 a45.53943713615184,45.53943713615184 0 0,0 -0.1242971735246909,-0.7739986181891803 l 24.2615915734286 -3.6822750146188468" fill="#d1ff1c" stroke="none" /><path d="M 79.1416061653843 102.43462659150553 l -24.49175661747027 2.858718768394245 a45.65802942666279,45.65802942666279 0 0,0 -0.08439712477810939,-0.7814125576874029 l 24.53733604374943 -2.4367098888220604" fill="#d0ff1d" stroke="none" /><path d="M 79.07016306316243 101.71520430193888 l -50.87623906485187 4.1693179155599305 a72.04679141008737,72.04679141008737 0 0,0 -0.09065353172606246,-1.2368954158357583 l 50.940469155242276 -3.292949363227412" fill="#3effb5" stroke="none" /><path d="M 79.04373962182676 101.35467743843564 l -20.449948109664838 1.321947848586401 a41.4926309634065,41.4926309634065 0 0,0 -0.03993892776416377,-0.7131363846833041 l 20.469673388316533 -0.9697397475676592" fill="#fffc17" stroke="none" /><path d="M 79.0235259727143 100.99374915477108 l -24.44904174012577 1.1582601791229958 a45.476462339418134,45.476462339418134 0 0,0 -0.03031302277259725,-0.7822444248718531 l 24.46535689574957 -0.737238507237146" fill="#d2ff1c" stroke="none" /><path d="M 79.0095281055655 100.63252640178507 l -11.94348447652247 0.35990468907531864 a32.948905925906004,32.948905925906004 0 0,0 -0.012203548804251585,-0.567050960009305 l 11.947910088011728 -0.1542639132758848" fill="#ff8e0d" stroke="none" /><line stroke="#e1ed5e" stroke-width="0.3" x1="15.007084014347285" x2="10.007500721073583" y1="101.09737516637583" y2="101.16192664675087" /><path d="M 14.007167355692545 101.11028546245083 a86.0,86.0 0 0,1 10.666146001902534,-42.60595125391555" fill="none" id="id118" stroke="none" /><text fill="#e1ed5e" style="font-size:6.75px; font-family:Arial;" text-anchor="middle"><textPath startOffset="22.20632615414155" xlink:href="#id118">October</textPath></text><path d="M 79.00019446554 99.90962569577889 l -14.375349352169454 -0.061865439349234136 a35.37548247292955,35.37548247292955 0 0,0 0.007861767852787641,-0.6089025841705382 l 14.372154577198952 0.3093042815802443" fill="#ffae10" stroke="none" /><path d="M 79.03285615573316 98.82574320788736 l -1.9548193848829576 -0.10947890457096922 a22.957882646651797,22.957882646651797 0 0,0 0.02549353595761707,-0.39437371755822437 l 1.9526452579209275 0.14311168638220537" fill="#ff0000" stroke="none" /><path d="M 79.05617556472873 98.46500227214037 l -4.4538869574329585 -0.3264306564893479 a25.465833181287394,25.465833181287394 0 0,0 0.035804374744956624,-0.43690406104410545 l 4.447608098868505 0.40304863474123176" fill="#ff2503" stroke="none" /><path d="M 79.08570108090925 98.10471618934814 l -62.742896757272284 -5.685851431955563 a84.0,84.0 0 0,0 0.1428914972710853,-1.4388978771822787 l 62.635728134318974 6.7650248398422725" fill="#4dd2ff" stroke="none" /><path d="M 79.32604984820605 96.31383870115002 l -43.5452344340926 -7.764106846623766 a65.23198839127485,65.23198839127485 0 0,0 0.20661230884599796,-1.1037312155298533 l 43.40513640133673 8.512516139616192" fill="#35ff68" stroke="none" /><path d="M 79.3925641242962 95.95851677861259 l -12.79996937223052 -2.510300736305246 a34.04380411217272,34.04380411217272 0 0,0 0.11772785830276125,-0.5740828472821345 l 12.754862218012764 2.730259239750783" fill="#ff9c0e" stroke="none" /><path d="M 79.46518482838121 95.60439243477599 l -19.84357842844761 -4.247643951612163 a41.29310434570371,41.29310434570371 0 0,0 0.15476186143416362,-0.6937670790578913 l 19.76752218001141 4.588589200220014" fill="#fffa17" stroke="none" /><line stroke="#e1ed5e" stroke-width="0.3" x1="26.266209847984243" x2="21.928928074336255" y1="57.711370442889674" y2="55.22380399835377" /><path d="M 25.398753493254645 57.213857153982495 a86.0,86.0 0 0,1 29.58750427330803,-30.492523968695096" fill="none" id="id119" stroke="none" /><text fill="#e1ed5e" style="font-size:6.75px; font-family:Arial;" text-anchor="middle"><textPath startOffset="21.46611528233685" xlink:href="#id119">November</textPath></text><line stroke="#e1ed5e" stroke-width="0.3" x1="56.762969772571076" x2="54.21961505331055" y1="26.818313649435495" y2="22.513508569990535" /><path d="M 56.25429882871897 25.957352633546506 a86.0,86.0 0 0,1 42.265352541879196,-11.944610805530505" fill="none" id="id120" stroke="none" /><text fill="#e1ed5e" style="font-size:6.75px; font-family:Arial;" text-anchor="middle"><textPath startOffset="22.20632615414155" xlink:href="#id120">December</textPath></text></svg>